<?xml version="1.0" encoding="UTF-8" standalone="no"?><!DOCTYPE svg PUBLIC "-//W3C//DTD SVG 1.1//EN" "http://www.w3.org/Graphics/SVG/1.1/DTD/svg11.dtd"><svg width="100%" height="100%" viewBox="0 0 294 294" version="1.1" xmlns="http://www.w3.org/2000/svg" xmlns:xlink="http://www.w3.org/1999/xlink" xml:space="preserve" xmlns:serif="http://www.serif.com/" style="fill-rule:evenodd;clip-rule:evenodd;stroke-linejoin:round;stroke-miterlimit:2;"><rect id="Mesa-de-trabajo1" serif:id="Mesa de trabajo1" x="0" y="0" width="294" height="294" style="fill:none;"/><g id="Grupo_22418"><g><path id="Trazado_20363" d="M231.572,227.145c-4.512,4.598 -9.53,8.67 -14.96,12.136c-38.736,25.848 -83.015,18.398 -96.705,15.851c-22.088,-4.108 -40.734,-7.006 -56.752,-21.47c-36.401,-32.864 -34.631,-101.427 -6.816,-143.898c3.298,-5.036 31.071,-46.177 75.447,-51.975c1.086,-0.141 1.896,-0.222 2.604,-0.3c6.865,-0.726 49.406,-4.56 84.093,24.483c7.904,6.638 14.769,14.422 20.368,23.093c27.092,41.82 27.178,106.587 -7.279,142.08Z" style="fill:#dff7f9;fill-rule:nonzero;"/><g id="Grupo_22390"><path id="Trazado_20364" d="M107.229,140.328c5.476,-10.634 15.66,-18.134 27.489,-19.473l0.809,-51.212c0,-0.004 0,-0.008 0,-0.012c0,-0.428 -0.352,-0.781 -0.781,-0.781c-0.001,0 -0.003,0 -0.005,0c-33.364,0.361 -62.804,21.127 -76.542,51.885c-0.048,0.109 -0.073,0.227 -0.073,0.346c0,0.355 0.222,0.675 0.554,0.801l48.549,18.446Z" style="fill:#91b3fa;fill-rule:nonzero;"/><path id="Trazado_20365" d="M170.931,162.057c-0.682,-0.019 -1.298,0.421 -1.502,1.072c-0.574,1.831 -1.623,5.347 -1.792,5.788c-0.829,2.165 -1.816,4.265 -2.955,6.284c-2.09,3.772 -4.866,7.12 -8.185,9.872c-8.487,6.873 -20.687,8.15 -30.863,4.747c-0.29,-0.097 -0.578,-0.201 -0.864,-0.308c-0.528,-0.198 -1.127,0.024 -1.398,0.517l-25.659,46.794c12.46,6.248 24.185,7.882 38.895,6.939c42.739,-2.739 76.302,-37.441 80.027,-80.475l-45.704,-1.23Z" style="fill:#7d97f4;fill-rule:nonzero;"/><path id="Trazado_20366" d="M169.582,162.054c-2.782,17.076 -15.402,30.419 -32.551,31.001c-5.064,0.079 -10.095,-0.828 -14.813,-2.671c-0.441,-0.175 -0.949,0.002 -1.186,0.413l-26.376,45.372c12.756,6.41 26.995,9.298 41.24,8.363c42.739,-2.739 76.302,-38.494 80.027,-81.528l-46.341,-0.95Z" style="fill:#2a94ee;fill-rule:nonzero;"/><path id="Trazado_20367" d="M92.736,229.007l25.534,-45.803c0.179,-0.323 0.103,-0.731 -0.18,-0.968c-7.863,-6.621 -14.148,-15.498 -14.148,-27.009c0,-2.838 -1.261,-6.969 -0.681,-9.635l-48.022,-17.173c-2.73,8.899 -4.114,18.156 -4.105,27.465c-0,30.914 16.426,58.104 38.98,73.733c0.304,0.21 0.665,0.323 1.034,0.323c0.658,-0 1.267,-0.358 1.588,-0.933Z" style="fill:#91b3fa;fill-rule:nonzero;"/><path id="Trazado_20368" d="M90.182,227.706l26.464,-45.236c0.336,-0.572 0.218,-1.309 -0.28,-1.748c-7.979,-7.117 -12.51,-17.344 -12.421,-28.037c-0,-2.78 0.296,-5.553 0.884,-8.27l-48.871,-18.268c-0.08,-0.03 -0.166,-0.046 -0.252,-0.046c-0.317,0 -0.598,0.209 -0.69,0.511c-2.582,8.675 -3.89,17.679 -3.882,26.73c-0,31.667 15.646,58.935 39.048,74.364Z" style="fill:#2a94ee;fill-rule:nonzero;"/><g id="Grupo_22389"><path id="Trazado_20369" d="M140.502,121.984c15.148,2.534 26.895,15.289 28.885,31.228c0.102,0.848 0.814,1.503 1.669,1.532l73.264,2.456l0.575,-0.558c-0.224,-61.289 -44.171,-113.798 -103.037,-120.748l-1.356,86.09Z" style="fill:#2a94ee;fill-rule:nonzero;"/></g></g><g id="Grupo_22395"><path id="Elipse_1209" d="M171.895,62.334c6.919,-6.919 18.154,-6.919 25.074,0c6.919,6.92 6.919,18.155 -0,25.075c-6.92,6.919 -18.155,6.919 -25.074,-0c-6.92,-6.92 -6.92,-18.155 -0,-25.075Z" style="fill:#91b3fa;"/><path id="Elipse_1210" d="M172.861,63.521c6.293,-6.293 16.512,-6.293 22.805,0c6.293,6.293 6.293,16.512 -0,22.805c-6.293,6.293 -16.512,6.293 -22.805,0c-6.293,-6.293 -6.293,-16.512 -0,-22.805Z" style="fill:#fff;"/><g id="Grupo_22394"><g id="Grupo_22393"><g id="Grupo_22392"><path id="Trazado_20370" d="M175.474,90.758c0.253,-1.18 0.455,-1.952 0.455,-1.952l-4.483,-7.591c0,0 -1.451,1.469 -2.321,7.867c-0.009,0.066 -0.013,0.133 -0.013,0.199c-0,0.81 0.666,1.477 1.476,1.477l4.886,-0Z" style="fill:#7d97f4;fill-rule:nonzero;"/><path id="Trazado_20371" d="M199.719,89.055c-1.245,-5.548 -3.46,-8.13 -3.46,-8.13l-2.806,9.293c0,0 0.086,0.184 0.215,0.537l4.69,0c0.765,0 1.395,-0.63 1.395,-1.395c-0,-0.103 -0.011,-0.205 -0.034,-0.305Z" style="fill:#7d97f4;fill-rule:nonzero;"/><path id="Trazado_20372" d="M175.44,90.755c4.607,1.695 10.869,1.459 18.175,0c0.198,-0.792 0.436,-1.574 0.714,-2.343l1.928,-7.487c-2.704,-2.424 -6.5,-3.223 -7.961,-3.45c-3.396,-0.841 -7.365,-0.096 -7.365,-0.096c-5.381,0.375 -9.484,3.829 -9.484,3.829l3.334,7.588c0.263,0.637 0.483,1.292 0.659,1.959Z" style="fill:#7d97f4;fill-rule:nonzero;"/><path id="Trazado_20373" d="M181.62,73.719l-0.115,3.782c-0.011,0.372 0.222,0.712 0.573,0.835c1.558,0.595 3.27,0.659 4.867,0.181c0.381,-0.139 0.614,-0.531 0.554,-0.932l-0.569,-3.866l-5.31,-0Z" style="fill:url(#_Linear1);fill-rule:nonzero;"/><g id="Grupo_22391"><path id="Trazado_20374" d="M180.219,67.368c-0,0 0.222,5.107 1.111,7.109c0.888,2.002 3.11,1.999 3.332,1.999c1.368,-0.253 2.573,-1.057 3.333,-2.223c1.11,-1.777 1.554,-7.553 1.554,-7.553c0,-0 -1.999,-2.223 -4.665,-2.444c-2.666,-0.22 -4.665,2.001 -4.665,3.112Z" style="fill:url(#_Linear2);fill-rule:nonzero;"/><path id="Trazado_20375" d="M188.58,69.213c-0,-0 1.021,-1.53 1.529,-1.022c0.507,0.508 -0.51,3.823 -1.529,3.823c-1.02,0 -0,-2.801 -0,-2.801Z" style="fill:url(#_Linear3);fill-rule:nonzero;"/><path id="Trazado_20376" d="M180.933,69.468c0,-0 -1.274,-1.784 -1.784,-1.274c-0.51,0.509 0.765,3.822 1.784,3.822l0,-2.548Z" style="fill:url(#_Linear4);fill-rule:nonzero;"/><path id="Trazado_20377" d="M190.181,66.117c0.006,-0.345 -0.013,-0.703 -0.031,-1.11c-0.009,-0.408 0.012,-0.815 0.064,-1.22c0.001,-0.03 0.002,-0.06 0.002,-0.09c0,-0.969 -0.797,-1.766 -1.766,-1.766c-0.146,-0 -0.292,0.018 -0.433,0.054c-0.082,0.033 -0.173,0.04 -0.259,0.019c-0.102,-0.04 -0.147,-0.156 -0.188,-0.258c-0.496,-1.365 -1.896,-2.199 -3.332,-1.987c-1.22,0.154 -2.28,0.924 -2.803,2.037c-0.022,0.064 -0.062,0.122 -0.115,0.164c-0.056,0.028 -0.118,0.041 -0.181,0.036c-0.6,0.007 -1.294,-0.124 -1.802,0.246c-0.445,0.31 -0.729,0.802 -0.776,1.342c0.014,0.593 0.18,1.172 0.481,1.682c0.202,0.3 0.273,0.669 0.198,1.022c-0.046,0.1 -0.097,0.197 -0.153,0.291c-0.547,1.086 0.891,2.156 1.156,3.13l0.604,2.219c0.09,-0.473 0.116,-0.956 0.076,-1.436c-0.109,-0.653 -0.179,-1.312 -0.21,-1.973c0.013,-0.477 0.131,-0.945 0.347,-1.37c0.21,-0.408 0.594,-0.587 0.881,-0.945c0.242,0.275 0.561,0.47 0.915,0.56c0.228,0.021 0.459,-0.009 0.674,-0.089c0.33,-0.104 0.798,-0.476 1.119,-0.501c0.321,-0.026 0.431,0.31 0.642,0.488c0.655,0.497 1.522,0.624 2.291,0.335c-0.163,0.068 0.791,1.847 0.822,2.008c0.181,0.947 0.29,1.906 0.327,2.87c0.076,0.056 0.162,-0.06 0.186,-0.149c0.174,-0.641 0.227,-1.308 0.339,-1.963c0.166,-0.732 0.389,-1.449 0.668,-2.146c0.166,-0.482 0.253,-0.989 0.257,-1.5Z" style="fill:#20287a;fill-rule:nonzero;"/></g></g></g></g></g><g id="Grupo_22399"><path id="Elipse_1212" d="M207.082,54.427c6.34,-6.341 16.636,-6.341 22.976,0c6.341,6.341 6.341,16.636 0,22.977c-6.34,6.34 -16.636,6.34 -22.976,-0c-6.341,-6.341 -6.341,-16.636 -0,-22.977Z" style="fill:#91b3fa;"/><circle id="Elipse_1213" cx="218.416" cy="65.963" r="14.777" style="fill:#fff;"/><g id="Grupo_22398"><g id="Grupo_22397"><g id="Grupo_22396"><path id="Trazado_20378" d="M215.248,62.754c-0.936,-0 -1.906,0.12 -2.273,-1.008c-0.689,-2.122 0.469,-5.295 2.369,-6.45c0.655,-0.354 1.366,-0.591 2.102,-0.702c0.788,-0.23 1.635,-0.159 2.372,0.201c0.714,0.384 1.406,-0.233 2.145,0.26c0.622,0.449 1.119,1.048 1.446,1.742c0.41,0.885 0.698,1.822 0.858,2.784c0.135,0.393 0.057,0.83 -0.206,1.152c-0.766,1.188 -1.787,2.02 -3.263,2.02l-5.55,0.001Z" style="fill:#20287a;fill-rule:nonzero;"/><path id="Trazado_20379" d="M215.06,59.018c0,0 0.169,0.355 -0.932,0.908c-0.614,0.309 -1.81,0.765 -1.967,2.097c-0.082,0.688 -0.351,2.387 -1.006,2.492c-1.63,0.262 -3.83,1.28 -4.036,3.258c-0.235,2.27 0.421,3.462 1.574,3.759c0.849,0.218 1.064,0.447 0.892,1.344c-0.165,0.861 0.488,3.949 1.912,4.736c3.192,1.764 5.972,-6.27 5.972,-6.27l0.653,-10.372l-3.062,-1.952Z" style="fill:#20287a;fill-rule:nonzero;"/><path id="Trazado_20380" d="M222.364,58.111c0,-0 -0.172,0.375 0.949,0.961c0.626,0.327 1.842,0.811 2.003,2.223c0.083,0.729 0.277,1.753 0.943,1.863c1.66,0.277 3.584,1.894 3.993,5.034c0.312,2.396 -0.37,4.967 -1.547,5.281c-0.864,0.231 -0.799,-0.227 -0.624,0.721c0.168,0.912 -0.226,0.56 -1.676,1.394c-3.249,1.867 -6.494,-4.426 -6.494,-4.426l-0.665,-10.989l3.118,-2.062Z" style="fill:#20287a;fill-rule:nonzero;"/><path id="Trazado_20381" d="M218.021,69.628c-0,-0 2.466,-0.636 2.99,0.15c0.262,1.307 0.397,2.604 0.397,2.604l-2.842,0.534l-1.88,-0.433l-0.447,-0.259l-0.185,-1.851c0.615,-0.344 1.278,-0.595 1.967,-0.745Z" style="fill:url(#_Linear5);fill-rule:nonzero;"/><path id="Trazado_20382" d="M215.062,63.036c-0,-0 -0.397,-1.19 -0.991,-0.793c-0.595,0.396 0.892,2.927 0.892,2.927l0.099,-2.134Z" style="fill:url(#_Linear6);fill-rule:nonzero;"/><path id="Trazado_20383" d="M221.011,63.036c0,-0 0,-1.785 0.991,-0.793c0.992,0.991 -0.991,2.379 -0.991,2.379l0,-1.586Z" style="fill:url(#_Linear7);fill-rule:nonzero;"/><path id="Trazado_20384" d="M230.35,79.243c-0.83,-4.007 -2.022,-7.139 -2.399,-7.321l-2.251,5.57c-0.298,1.217 -0.44,2.467 -0.42,3.72l3.462,-0c0.001,-0 0.002,-0 0.003,-0c0.899,-0 1.639,-0.74 1.639,-1.639c-0,-0.111 -0.012,-0.221 -0.034,-0.33Z" style="fill:#d64626;fill-rule:nonzero;"/><path id="Trazado_20385" d="M213.02,81.212c0.103,-1.789 0.06,-2.917 0.06,-2.917l-3.173,-5.151c-0.388,1.896 -0.653,3.814 -0.793,5.744c-0.018,0.193 -0.036,0.39 -0.053,0.59c-0.004,0.044 -0.005,0.088 -0.005,0.133c-0,0.878 0.723,1.601 1.601,1.601l2.363,0Z" style="fill:#d64626;fill-rule:nonzero;"/><path id="Trazado_20386" d="M217.412,81.224l3.455,-0l0.936,-9.848c0,-0 -0.793,-0.204 -1.189,-1.592c-0.302,-1.372 -0.501,-2.765 -0.595,-4.167l-3.569,0.792c-0,-0 0.396,3.779 -0.397,5.563l1.359,9.252Z" style="fill:url(#_Linear8);fill-rule:nonzero;"/><path id="Trazado_20387" d="M222.731,81.223l0.497,-6.216c-3.619,2.163 -7.34,2.06 -11.115,0.912l1.071,5.305l9.547,-0.001Z" style="fill:url(#_Linear9);fill-rule:nonzero;"/><path id="Trazado_20388" d="M218.26,81.212c-1.072,-5.172 -2.207,-10.833 -2.207,-10.833l-0.595,1.186l-5.553,1.591c0.272,1.269 1.102,4.761 1.937,8.056l6.418,0Z" style="fill:#d64626;fill-rule:nonzero;"/><path id="Trazado_20389" d="M226.194,81.212c0.296,-1.584 0.556,-2.823 0.556,-2.823l1.201,-6.469c-0.377,-0.378 -6.308,-1.191 -6.308,-1.191l-0.634,-0.948c-0,0 -0.792,5.755 -1.469,11.428l6.654,0.003Z" style="fill:#d64626;fill-rule:nonzero;"/><path id="Trazado_20390" d="M214.664,60.259c-0,0 -0.199,4.759 0.396,5.553c0.595,0.794 1.389,2.578 2.776,2.776c1.388,0.199 3.57,-3.767 3.57,-3.965c-0,-0.198 -0.199,-5.354 -0.199,-5.354c0,-0 -4.162,-3.373 -6.543,0.99Z" style="fill:url(#_Linear10);fill-rule:nonzero;"/><path id="Trazado_20391" d="M213.872,59.466c-0,-0 -0.793,2.379 1.586,1.586l2.38,-0.793c0,0 2.38,-1.387 2.776,-0.793c0.341,0.655 0.607,1.346 0.794,2.06c0.186,0.715 0.793,-2.06 -0,-3.249c-0.794,-1.19 -5.751,-2.182 -7.536,1.189Z" style="fill:#20287a;fill-rule:nonzero;"/></g></g></g></g><g id="Grupo_22404"><circle id="Elipse_1215" cx="191.695" cy="113.19" r="18.358" style="fill:#91b3fa;"/><circle id="Elipse_1216" cx="191.521" cy="113.244" r="16.697" style="fill:#fff;"/><g id="Grupo_22403"><g id="Grupo_22402"><g id="Grupo_22401"><g id="Grupo_22400"><path id="Elipse_1217" d="M188.13,102.195c2.126,-2.125 5.577,-2.125 7.702,0c2.125,2.125 2.125,5.576 -0,7.701c-2.125,2.126 -5.576,2.126 -7.702,0c-2.125,-2.125 -2.125,-5.576 0,-7.701Z" style="fill:#20287a;"/><path id="Trazado_20392" d="M186.751,104.525c-2.395,8.283 -4.025,15.813 -3.76,17.931l6.983,-0.738l0.81,-15.32l-4.033,-1.873Z" style="fill:#20287a;fill-rule:nonzero;"/><path id="Trazado_20393" d="M194.481,103.67l-0.961,18.728l7.901,4.205c-0.166,-6.4 -3.435,-22.846 -4.774,-23.287l-2.166,0.354Z" style="fill:#20287a;fill-rule:nonzero;"/><path id="Trazado_20394" d="M194.483,113.812l0.23,5.101l-4.947,0.745l-0.312,-5.354l5.029,-0.492Z" style="fill:url(#_Linear11);fill-rule:nonzero;"/><path id="Trazado_20395" d="M196.829,110.741c-0,0 -1.186,5.296 -4.394,5.932c-3.208,0.636 -4.158,-4.353 -4.326,-4.712c0,0 -0.717,0.339 -0.878,-0.375c-0.161,-0.713 -1.007,-2.506 0.589,-2.47c-0,-0 -0.314,-1.781 0.24,-2.656c0.554,-0.874 1.665,-2.977 3.958,-2.393c2.292,0.585 5.954,2.514 4.811,6.674Z" style="fill:url(#_Linear12);fill-rule:nonzero;"/><path id="Trazado_20396" d="M194.635,117.208l3.138,1.663l-4.109,4.506l-7.596,-4.777c1.075,-0.492 2.191,-0.888 3.334,-1.186l5.233,-0.206Z" style="fill:url(#_Linear13);fill-rule:nonzero;"/><path id="Trazado_20397" d="M187.998,104.378c-1.072,1.502 -0.229,2.83 -0.517,3.905c1.824,-0.515 3.706,-0.796 5.601,-0.838c0.218,-0.717 -0.211,-1.91 -0.43,-2.851c0.342,0.893 1.125,2.261 1.042,2.966c1.417,0.066 1.127,0.085 2.72,0.721l-1.24,-4.325c-2.762,-1.287 -5.148,-1.123 -7.176,0.422Z" style="fill:#20287a;fill-rule:nonzero;"/><path id="Trazado_20398" d="M193.277,99.295c-0,1.04 -0.979,2.207 -1.682,2.207c-0.581,-0 -1.683,-1.167 -1.683,-2.207c-0.007,-0.062 -0.01,-0.125 -0.01,-0.188c-0,-0.93 0.765,-1.694 1.694,-1.694c0.93,-0 1.694,0.764 1.694,1.694c0,0.063 -0.003,0.126 -0.01,0.188l-0.003,0Z" style="fill:#20287a;fill-rule:nonzero;"/><path id="Trazado_20399" d="M200.024,130.159l1.727,-9.607c-2.35,-1.599 -4.528,-2.36 -7.116,-3.34c-0.802,1.668 -4.467,1.502 -5.233,0.207c-2.498,0.681 -4.864,1.778 -6.999,3.244l2.363,9.496l15.258,-0Z" style="fill:#d64626;fill-rule:nonzero;"/><path id="Trazado_20400" d="M204.762,128.459c-1.399,-5.981 -3.011,-7.908 -3.011,-7.908l-2.583,7.864c-0,-0 0.311,0.627 0.721,1.742l3.525,0c0.759,-0 1.384,-0.625 1.384,-1.385c-0,-0.105 -0.012,-0.21 -0.036,-0.313Z" style="fill:#d64626;fill-rule:nonzero;"/><path id="Trazado_20401" d="M184.938,130.158c0.307,-1.097 0.696,-2.17 1.163,-3.209l-3.698,-6.284c-1.281,2.479 -2.103,5.169 -2.428,7.94c-0.007,0.057 -0.011,0.114 -0.011,0.172c0,0.758 0.624,1.381 1.382,1.381c0.001,0 0.002,0 0.003,0l3.589,0Z" style="fill:#d64626;fill-rule:nonzero;"/><path id="Trazado_20402" d="M195.011,104.056c1.833,4.633 2.748,17.7 1.628,24.61c1.752,-6.033 3.935,-13.684 0.601,-23.972l-2.229,-0.638Z" style="fill:#20287a;fill-rule:nonzero;"/></g></g></g></g></g><g id="Grupo_22409"><circle id="Elipse_1219" cx="229.207" cy="99.806" r="16.515" style="fill:#91b3fa;"/><path id="Elipse_1220" d="M218.429,89.233c5.862,-5.862 15.38,-5.862 21.242,0c5.862,5.862 5.862,15.381 0,21.243c-5.862,5.862 -15.38,5.862 -21.242,-0c-5.862,-5.862 -5.862,-15.381 -0,-21.243Z" style="fill:#fff;"/><g id="Grupo_22408"><g id="Grupo_22407"><g id="Grupo_22406"><path id="Trazado_20403" d="M239.137,116.532c0.828,-0.001 1.509,-0.682 1.509,-1.51c-0,-0.003 -0,-0.006 -0,-0.01c-0.016,-2.398 -0.065,-4.506 -0.177,-5.668c-0.285,-2.97 -1.862,-3.911 -1.862,-3.911l-0.803,11.099l1.333,-0Z" style="fill:#2a94ee;fill-rule:nonzero;"/><path id="Trazado_20404" d="M235.261,116.532c-0.117,-6.218 -0.232,-11.36 -0.232,-11.36c-2.815,-1.732 -13.211,-1.514 -13.211,-1.514c0,-0 -0.72,5.997 -1.544,12.874l14.987,-0Z" style="fill:#d64626;fill-rule:nonzero;"/><path id="Trazado_20405" d="M218.094,116.532l9.673,-0c-0.311,-3.004 -2.809,-14.126 -2.809,-14.126l-7.759,2.374c-0,-0 0.613,6.933 0.613,9.099c0,0.497 0.139,1.458 0.282,2.653Z" style="fill:#2a94ee;fill-rule:nonzero;"/><path id="Trazado_20406" d="M218.385,116.532c0.034,-3.665 -0.031,-10.424 -1.185,-11.743c-0,-0 -1.495,0.769 -3.011,5.75c-0.437,1.438 -0.835,2.802 -1.205,4.102c-0.038,0.133 -0.057,0.269 -0.057,0.407c0,0.814 0.67,1.484 1.485,1.484l3.973,-0Z" style="fill:#2a94ee;fill-rule:nonzero;"/><path id="Trazado_20407" d="M238.316,116.532c0.28,-5.271 0.524,-10.887 0.292,-11.118c-0.433,-0.433 -5.637,-2.132 -5.637,-2.132c0,0 -3.39,10.368 -4.178,13.25l9.523,-0Z" style="fill:#2a94ee;fill-rule:nonzero;"/><path id="Trazado_20408" d="M225.283,104.245l1.3,-4.548l4.764,0l0.65,5.198c-0,-0 -4.115,1.082 -6.714,-0.65Z" style="fill:url(#_Linear14);fill-rule:nonzero;"/><g id="Grupo_22405"><path id="Trazado_20409" d="M225.283,93.789c0,0 0.448,4.351 1.202,6.05c0.534,1.065 1.64,1.729 2.831,1.699c1.162,-0.215 2.187,-0.898 2.832,-1.888c0.944,-1.51 1.322,-6.417 1.322,-6.417c-0,-0 -1.699,-1.888 -3.965,-2.077c-2.267,-0.188 -4.222,1.69 -4.222,2.633Z" style="fill:url(#_Linear15);fill-rule:nonzero;"/><path id="Trazado_20410" d="M232.647,95.366c-0,-0 0.866,-1.3 1.299,-0.866c0.433,0.433 -0.433,3.248 -1.299,3.248c-0.867,0 -0,-2.382 -0,-2.382Z" style="fill:url(#_Linear16);fill-rule:nonzero;"/><path id="Trazado_20411" d="M226.15,95.582c-0,0 -1.082,-1.516 -1.516,-1.081c-0.435,0.434 0.649,3.248 1.516,3.248l-0,-2.167Z" style="fill:url(#_Linear17);fill-rule:nonzero;"/><path id="Trazado_20412" d="M234.869,92.788c0.222,-0.606 0.296,-1.257 0.215,-1.897c-0.113,-0.961 -0.629,-2.745 -1.345,-3.46c0.204,0.203 -1.738,1.025 -2.037,0.995c0.583,-0.475 1.309,-1.021 1.336,-1.849c-0.706,0.412 -1.49,0.671 -2.302,0.762c-2.001,0.352 -4.151,0.278 -5.691,1.792c-0.689,0.647 -1.029,1.586 -0.914,2.524c0.12,0.666 1.112,1.368 0.502,1.982c-0.432,0.434 0.875,1.222 1.088,2.451c0.013,0.089 0.032,0.177 0.056,0.264c-0.018,-0.629 -0.26,-1.304 -0.245,-1.915c0.031,-1.254 1.923,-1.343 2.847,-1.426c1.23,-0.11 2.572,-0.099 3.636,-0.818c0.433,-0.293 0.708,2.07 0.727,2.186c0.15,0.68 0.19,1.38 0.12,2.073l0.3,-0c0.086,-0.797 0.007,-1.562 0.593,-2.14c0.292,-0.271 0.557,-0.57 0.79,-0.893c0.132,-0.198 0.24,-0.409 0.324,-0.631Z" style="fill:#20287a;fill-rule:nonzero;"/></g><path id="Trazado_20413" d="M226.352,100.506c-0.101,0.826 -0.279,1.642 -0.533,2.435c-0.286,0.865 -0.075,2.07 -0.06,2.98c0.024,1.269 1.011,2.658 0.794,3.905c-0.552,-1.552 -2.239,-2.761 -3.102,-4.21c-0.841,-1.416 -1.446,-2.559 -0.481,-3.895c0.599,-0.828 3.395,-1.293 3.382,-1.215Z" style="fill:#20287a;fill-rule:nonzero;"/><path id="Trazado_20414" d="M231.452,104.668c0.12,2.643 -0.399,3.18 -0.82,5.851c0.565,-1.802 1.837,-2.753 2.838,-4.362c0.986,-1.587 1.307,-3.563 -0.309,-4.621c-0.111,-0.072 -1.673,-0.796 -1.666,-0.655c0.02,0.387 -0.095,2.645 -0.043,3.787Z" style="fill:#20287a;fill-rule:nonzero;"/></g></g></g></g><g id="Grupo_22410"><circle id="Elipse_1222" cx="83.654" cy="111.253" r="11.325" style="fill:url(#_Linear18);"/><path id="Elipse_1223" d="M75.912,103.511c4.273,-4.272 11.211,-4.272 15.484,0c4.273,4.273 4.273,11.211 -0,15.484c-4.273,4.272 -11.211,4.272 -15.484,-0c-4.272,-4.273 -4.272,-11.211 0,-15.484Z" style="fill:url(#_Linear19);"/><path id="Trazado_20415" d="M73.562,110.821l-0.006,0c-0.056,-0.003 -0.1,-0.052 -0.098,-0.109c0.023,-0.43 0.072,-0.858 0.149,-1.282c0.011,-0.047 0.053,-0.08 0.101,-0.08c0.057,-0 0.104,0.047 0.104,0.104c-0,0.004 -0,0.008 -0.001,0.012c-0.075,0.415 -0.123,0.835 -0.145,1.256c-0.003,0.055 -0.049,0.099 -0.104,0.099Z" style="fill:#fff;fill-opacity:0.7;fill-rule:nonzero;"/><path id="Trazado_20416" d="M74.626,106.809c-0.057,-0 -0.104,-0.047 -0.104,-0.104c0,-0.016 0.004,-0.032 0.011,-0.046c1.725,-3.446 5.267,-5.627 9.121,-5.616c0.618,-0 1.234,0.055 1.842,0.166c0.049,0.009 0.085,0.052 0.085,0.102c-0,0.056 -0.047,0.103 -0.104,0.103c-0.006,0 -0.012,-0 -0.018,-0.002c-0.595,-0.107 -1.198,-0.162 -1.803,-0.162c-3.775,-0.01 -7.245,2.126 -8.935,5.502c-0.018,0.036 -0.055,0.058 -0.095,0.057Z" style="fill:#fff;fill-opacity:0.7;fill-rule:nonzero;"/><path id="Elipse_1224" d="M77.34,104.939c3.617,-3.617 9.489,-3.617 13.106,-0c3.616,3.616 3.616,9.489 -0,13.105c-3.617,3.617 -9.489,3.617 -13.106,0c-3.616,-3.616 -3.616,-9.489 0,-13.105Z" style="fill:#fff;fill-opacity:0.78;"/><path id="Trazado_20417" d="M86.729,107.99c0,1.569 -1.271,3.263 -2.841,3.263c-1.569,-0 -2.841,-1.694 -2.841,-3.263c0.09,-1.494 1.344,-2.676 2.841,-2.676c1.497,0 2.751,1.182 2.841,2.676l0,0Z" style="fill:url(#_Linear20);fill-rule:nonzero;"/><path id="Trazado_20418" d="M80.365,117.294l6.933,0c0.729,-0 1.377,-0.474 1.599,-1.167l0.373,-1.166c0.274,-0.85 -0.176,-1.777 -1.013,-2.087c-2.832,-0.982 -5.92,-0.948 -8.731,0.095c-0.832,0.284 -1.305,1.179 -1.071,2.026l0.287,1.06c0.198,0.73 0.867,1.24 1.623,1.239Z" style="fill:url(#_Linear21);fill-rule:nonzero;"/></g><g id="Grupo_22411"><circle id="Elipse_1225" cx="103.116" cy="93.991" r="11.325" style="fill:url(#_Linear22);"/><path id="Elipse_1226" d="M95.375,86.249c4.273,-4.273 11.21,-4.273 15.483,0c4.273,4.273 4.273,11.211 0,15.483c-4.273,4.273 -11.21,4.273 -15.483,0c-4.273,-4.272 -4.273,-11.21 -0,-15.483Z" style="fill:url(#_Linear23);"/><path id="Trazado_20419" d="M93.024,93.558l-0.005,0c-0.057,-0.003 -0.101,-0.052 -0.098,-0.109c0.022,-0.43 0.072,-0.858 0.148,-1.282c0.006,-0.052 0.051,-0.092 0.103,-0.092c0.057,0 0.104,0.047 0.104,0.104c0,0.008 -0.001,0.016 -0.003,0.024c-0.074,0.416 -0.123,0.835 -0.145,1.257c-0.003,0.055 -0.049,0.098 -0.104,0.098Z" style="fill:#fff;fill-opacity:0.7;fill-rule:nonzero;"/><path id="Trazado_20420" d="M94.088,89.547c-0.057,-0.001 -0.103,-0.048 -0.103,-0.104c-0,-0.016 0.003,-0.032 0.011,-0.047c1.725,-3.446 5.267,-5.626 9.12,-5.615c0.618,-0 1.235,0.055 1.842,0.166c0.049,0.009 0.085,0.052 0.085,0.101c0,0.057 -0.046,0.104 -0.103,0.104c-0.006,-0 -0.013,-0.001 -0.019,-0.002c-0.595,-0.108 -1.198,-0.162 -1.802,-0.162c-3.776,-0.011 -7.246,2.126 -8.936,5.502c-0.018,0.035 -0.055,0.057 -0.095,0.057Z" style="fill:#fff;fill-opacity:0.7;fill-rule:nonzero;"/><path id="Elipse_1227" d="M96.802,87.677c3.617,-3.616 9.488,-3.616 13.105,0c3.616,3.616 3.616,9.488 -0,13.104c-3.617,3.617 -9.488,3.617 -13.105,0c-3.616,-3.616 -3.616,-9.488 0,-13.104Z" style="fill:#fff;fill-opacity:0.78;"/><path id="Trazado_20421" d="M106.194,90.728c-0,1.57 -1.272,3.263 -2.842,3.263c-1.569,0 -2.841,-1.693 -2.841,-3.263c0.087,-1.496 1.343,-2.68 2.841,-2.68c1.499,-0 2.755,1.184 2.842,2.68Z" style="fill:url(#_Linear24);fill-rule:nonzero;"/><path id="Trazado_20422" d="M99.825,100.032l6.936,-0c0.728,-0 1.377,-0.474 1.599,-1.168l0.373,-1.166c0.273,-0.849 -0.177,-1.776 -1.013,-2.086c-2.833,-0.982 -5.921,-0.948 -8.731,0.095c-0.832,0.284 -1.305,1.179 -1.071,2.027l0.287,1.059c0.198,0.729 0.865,1.239 1.62,1.239Z" style="fill:url(#_Linear25);fill-rule:nonzero;"/></g><g id="Grupo_22412"><circle id="Elipse_1228" cx="107.187" cy="119.663" r="11.325" style="fill:url(#_Linear26);"/><circle id="Elipse_1229" cx="107.187" cy="119.663" r="10.948" style="fill:url(#_Linear27);"/><path id="Trazado_20423" d="M97.095,119.23l-0.006,0c-0.055,-0.002 -0.098,-0.048 -0.098,-0.103c0,-0.002 0,-0.003 0,-0.005c0.023,-0.431 0.072,-0.859 0.149,-1.283c0.006,-0.052 0.05,-0.092 0.103,-0.092c0.057,0 0.104,0.047 0.104,0.104c-0,0.009 -0.001,0.017 -0.003,0.025c-0.075,0.415 -0.123,0.835 -0.146,1.256c-0.002,0.055 -0.048,0.098 -0.103,0.098Z" style="fill:#fff;fill-opacity:0.7;fill-rule:nonzero;"/><path id="Trazado_20424" d="M98.159,115.218c0,0 -0,0 -0,0c-0.057,0 -0.104,-0.046 -0.104,-0.103c0,-0.016 0.004,-0.032 0.012,-0.047c1.725,-3.446 5.267,-5.627 9.12,-5.616c0.618,0 1.235,0.056 1.842,0.166c0.049,0.009 0.085,0.052 0.085,0.102c0,0.057 -0.046,0.104 -0.103,0.104c-0.006,-0 -0.013,-0.001 -0.019,-0.002c-0.595,-0.108 -1.198,-0.162 -1.802,-0.162c-3.776,-0.011 -7.246,2.125 -8.936,5.501c-0.018,0.036 -0.055,0.058 -0.095,0.057Z" style="fill:#fff;fill-opacity:0.7;fill-rule:nonzero;"/><circle id="Elipse_1230" cx="107.426" cy="119.902" r="9.267" style="fill:#fff;fill-opacity:0.78;"/><path id="Trazado_20425" d="M110.262,116.399c0,1.57 -1.272,3.263 -2.841,3.263c-1.569,0 -2.841,-1.693 -2.841,-3.263c0.084,-1.498 1.34,-2.685 2.841,-2.685c1.5,0 2.756,1.187 2.841,2.685l0,0Z" style="fill:url(#_Linear28);fill-rule:nonzero;"/><path id="Trazado_20426" d="M103.896,125.704l6.936,0c0.728,-0 1.377,-0.474 1.599,-1.167l0.373,-1.166c0.273,-0.85 -0.176,-1.777 -1.013,-2.087c-2.833,-0.982 -5.92,-0.948 -8.731,0.095c-0.832,0.284 -1.305,1.179 -1.071,2.026l0.287,1.06c0.198,0.729 0.865,1.239 1.62,1.239Z" style="fill:url(#_Linear29);fill-rule:nonzero;"/></g><g id="Grupo_22416"><path id="Trazado_20427" d="M125.526,116.86c0,-0 -3.129,1.521 -3.704,3.27c-0.461,1.403 -3.921,1.584 -4.265,4.342c-0.155,1.414 -1.245,2.559 -2.649,2.783c-3.534,0.54 -8.979,2.376 -9.85,8.511c-0.665,4.682 1.722,6.458 4.227,7.072c1.838,0.425 3.032,2.244 2.691,4.099c-0.357,1.782 0.175,3.841 3.262,5.467c6.917,3.65 13.825,-8.646 13.825,-8.646l1.416,-21.471l-4.953,-5.427Z" style="fill:#20287a;fill-rule:nonzero;"/><path id="Trazado_20428" d="M163.165,111.77c-0,-0 -13.812,21.845 -30.234,26.064c-0,0 3.199,9.114 5.67,10.157c-0,0 20.205,-16.858 25.397,-33.118l-0.833,-3.103Z" style="fill:url(#_Linear30);fill-rule:nonzero;"/><path id="Trazado_20429" d="M97.096,251.49l-0.448,3.68c-0.083,0.696 -0.637,1.248 -1.333,1.33c-1.635,0.198 -3.286,0.223 -4.927,0.077c-0.654,-0.075 -1.154,-0.635 -1.154,-1.294c0,-0.134 0.021,-0.267 0.062,-0.395c0.451,-1.421 1.277,-3.553 2.468,-4.806l4.082,-0c0,-0 0.001,-0 0.001,-0c0.69,-0 1.258,0.568 1.258,1.257c-0,0.051 -0.003,0.101 -0.009,0.151Z" style="fill:#20287a;fill-rule:nonzero;"/><path id="Trazado_20430" d="M129.066,208.385l0.689,4.053c-0,0 -2.307,23.371 -2.718,32.719c-0.064,1.464 0.313,2.915 1.082,4.163l4.012,6.515l-10.196,-6.017l-0.203,-1.244l1.669,-2.295l-2.187,-26.181c-0.128,-1.537 0.189,-3.08 0.914,-4.443l2.109,-3.961l4.829,-3.309Z" style="fill:url(#_Linear31);fill-rule:nonzero;"/><path id="Trazado_20431" d="M132.804,256.778l-3.254,0c-0.608,0.002 -1.183,-0.28 -1.554,-0.762c-1.015,-1.318 -3.116,-3.89 -4.121,-3.957c-1.353,-0.09 -1.18,4.719 -1.18,4.719l-0.759,-0l-0.961,-5.976c-0.241,-1.5 0.51,-2.996 1.857,-3.698c1.347,-0.703 0.309,2.286 1.986,3.298c1.677,1.012 6.823,4.634 6.823,4.634c0.44,-0.051 0.885,-0.039 1.322,0.035c0.409,0.072 0.71,0.432 0.71,0.847c0,0.472 -0.388,0.861 -0.86,0.861c-0.003,-0 -0.006,-0 -0.009,-0.001Z" style="fill:#20287a;fill-rule:nonzero;"/><path id="Trazado_20432" d="M115.101,210.31c-0,0 -13.518,25.639 -15.666,31.494c-1.359,3.622 -2.341,7.375 -2.93,11.2c-0.045,0.721 -0.944,1.415 -3.421,1.415c-1.278,0 -1.904,-0.512 -2.211,-1.009c-0.259,-0.425 -0.279,-0.954 -0.055,-1.398c0.781,-1.583 3.263,-6.639 4.182,-8.933c1.097,-2.738 3.457,-15.147 4.752,-19.462c1.295,-4.315 2.757,-8.996 8.394,-13.306c-0,-0.001 3.869,-3.791 6.955,-0.001Z" style="fill:url(#_Linear32);fill-rule:nonzero;"/><path id="Trazado_20433" d="M123.639,168.298c3.485,-14.774 -5.347,-23.13 -5.347,-23.13c5.573,-5.348 15.728,-7.784 15.728,-7.784c-0,-0 9.689,7.084 8.54,12.628c-0.674,3.25 -6.811,19.466 -6.811,19.466c-3.992,1.553 -8.493,1.114 -12.11,-1.18Z" style="fill:#d64626;fill-rule:nonzero;"/><path id="Trazado_20434" d="M115.909,175.613c1.419,-4.275 7.73,-7.315 7.73,-7.315c3.617,2.294 8.119,2.733 12.111,1.18c3.992,-1.553 1.273,4.866 0.394,9.386c-0.878,4.519 -6.389,33.574 -6.389,33.574c-8.684,1.759 -22.039,-1.77 -22.039,-1.77c5.533,-9.821 6.774,-30.781 8.193,-35.055Z" style="fill:#2a94ee;fill-rule:nonzero;"/><path id="Trazado_20435" d="M127.686,127.621l-2.834,12.732c-0.272,1.122 0.751,0.938 1.885,0.724c1.857,-0.35 4.25,-1.071 5.05,-2.516c0.078,-0.15 0.127,-0.313 0.146,-0.48l1.217,-8.832c0.097,-0.699 -0.283,-1.381 -0.928,-1.667l-2.35,-1.043c-0.203,-0.089 -0.421,-0.136 -0.643,-0.136c-0.731,0 -1.373,0.506 -1.543,1.218Z" style="fill:url(#_Linear33);fill-rule:nonzero;"/><g id="Grupo_22413"><path id="Trazado_20436" d="M133.116,116.013c-0,0 3.017,2.043 4.315,7.245c1.297,5.203 -0.811,7.069 -2.971,6.954c-2.161,-0.114 -5.293,-0.781 -8.007,-4.514c-2.714,-3.733 2.708,-12.181 6.663,-9.685Z" style="fill:url(#_Linear34);fill-rule:nonzero;"/><path id="Trazado_20437" d="M129.191,123.599c-0,0 -1.106,-7.454 5.083,-6.314l1.251,1.303c0,0 3.03,-3.412 -0.323,-5.99c-3.352,-2.579 -8.004,-1.919 -10.579,2.776c-2.574,4.695 -3.508,7.994 -1.35,10.912c2.157,2.917 3.78,0.415 3.78,0.415c-0,-0 -0.99,-2.524 -0.168,-3.609c0.821,-1.085 1.88,0.631 1.88,0.631l0.426,-0.124Z" style="fill:#20287a;fill-rule:nonzero;"/><path id="Trazado_20438" d="M128.344,124.238c0,0 -0.546,-3.835 -2.505,-2.739c-1.958,1.097 0.706,3.583 1.774,4.429l0.731,-1.69Z" style="fill:url(#_Linear35);fill-rule:nonzero;"/></g><g id="Grupo_22414"><path id="Trazado_20439" d="M163.07,116.267c0.042,0.45 -1.634,0.761 -2.167,-1.159c0.146,-0.834 0.406,-4.486 1.046,-5.054c3.406,-3.022 9.48,-6.422 9.48,-6.422c0.404,0.533 0.31,1.302 -0.212,1.721l-3.031,2.045c0.417,1.015 0.696,2.081 0.829,3.169c0.031,0.911 -0.29,1.799 -0.896,2.479c-0.6,0.69 -1.415,1.58 -2.147,2.256c-0.768,0.748 -1.839,1.104 -2.902,0.965Z" style="fill:url(#_Linear36);fill-rule:nonzero;"/><path id="Trazado_20440" d="M164.717,114.778l-0.464,-0.191c0.06,-0.15 1.517,-3.685 2.223,-4.42c0.217,-0.177 0.355,-0.433 0.385,-0.711c-0.013,-0.119 -0.069,-0.23 -0.156,-0.312l-2.453,1.312l-1.081,1.697l-0.421,-0.27l1.154,-1.807l2.873,-1.536l0.13,0.106c0.259,0.181 0.426,0.466 0.458,0.781c-0.013,0.419 -0.203,0.815 -0.522,1.088c-0.537,0.552 -1.717,3.264 -2.126,4.263Z" style="fill:url(#_Linear37);fill-rule:nonzero;"/></g><g id="Grupo_22415"><path id="Trazado_20441" d="M126.798,176.093l0.06,-0l25.325,-0.027c0.615,-0 1.121,-0.507 1.121,-1.122c0,-0.615 -0.506,-1.122 -1.121,-1.122c-0,0 -25.325,0.028 -25.325,0.028c-0.009,-0 -0.018,-0 -0.028,-0c-0.615,-0 -1.121,0.506 -1.121,1.121c0,0.604 0.489,1.105 1.093,1.12l-0.004,0.002Z" style="fill:url(#_Linear38);fill-rule:nonzero;"/><path id="Trazado_20442" d="M174.947,153.342l-21.088,0c-1.548,-0.002 -2.966,0.888 -3.636,2.283l-9.75,20.456l26.21,0c0.997,0.003 1.899,-0.604 2.272,-1.529l7.561,-18.929c0.077,-0.195 0.116,-0.403 0.116,-0.613c0,-0.915 -0.753,-1.668 -1.668,-1.668c-0.006,0 -0.011,0 -0.017,0Z" style="fill:#20287a;fill-rule:nonzero;"/><path id="Elipse_1231" d="M160.093,163.814c0.462,-1.403 1.544,-2.309 2.415,-2.022c0.87,0.287 1.201,1.658 0.739,3.061c-0.462,1.403 -1.544,2.309 -2.414,2.022c-0.871,-0.287 -1.202,-1.658 -0.74,-3.061Z" style="fill:#91b3fa;"/></g><path id="Trazado_20443" d="M118.257,145.198c-3.456,3.485 -7.84,18.942 -5.665,21.524c1.916,3.004 8.437,7.096 14.646,7.101l9.162,0c-3.85,-4.09 -6.501,-5.127 -9.658,-2.267c-2.504,-1.071 -5.753,-5.217 -7.921,-7.068c-0.846,-0.728 -1.049,-1.97 -0.48,-2.93c1.722,-2.916 3.882,-5.914 4.566,-8.817c0.145,-3.403 -2.37,-7.297 -4.65,-7.543Z" style="fill:url(#_Linear39);fill-rule:nonzero;"/></g><g id="Grupo_22417"><path id="Trazado_20444" d="M162.808,257.826c-0.245,-0.014 -0.474,-0.127 -0.634,-0.313c-2.349,-2.714 -19.55,-24.043 -0.455,-46.158c18.127,-20.993 26.708,-25.669 27.026,-37.226c0.023,-0.724 0.624,-1.307 1.349,-1.307c0.476,-0 0.919,0.252 1.161,0.662c5.131,8.689 13.651,29.225 -8.266,44.772c-24.176,17.15 -20.845,33.705 -19.263,38.364c0.033,0.095 0.05,0.195 0.05,0.295c-0,0.501 -0.412,0.912 -0.912,0.912c-0.019,0 -0.037,-0 -0.056,-0.001l0,0Z" style="fill:#7d97f4;fill-rule:nonzero;"/><path id="Trazado_20445" d="M165.981,258.017c-0.579,-0.034 -1.07,-0.448 -1.201,-1.013c-0.902,-3.866 -3.485,-18.372 6.995,-23.057c11.535,-5.159 21.934,5.163 29.998,-4.134c0.126,-0.15 0.311,-0.237 0.507,-0.237c0.362,0 0.661,0.299 0.661,0.661c-0,0.023 -0.001,0.047 -0.004,0.07c-0.437,4.572 -3.105,15.287 -18.317,18.546c-16.281,3.489 -17.991,5.515 -17.483,7.831c0.016,0.075 0.024,0.152 0.024,0.229c0,0.607 -0.5,1.107 -1.107,1.107c-0.023,-0 -0.046,-0.001 -0.07,-0.003l-0.003,0Z" style="fill:#7d97f4;fill-rule:nonzero;"/><path id="Trazado_20446" d="M189.051,185.864c-0.137,0.848 -0.338,1.684 -0.601,2.501c-0.256,0.815 -0.554,1.615 -0.892,2.399c-0.675,1.572 -1.482,3.085 -2.411,4.522c-1.872,2.876 -4.148,5.468 -6.757,7.698c-1.3,1.106 -2.659,2.14 -4.072,3.097c-1.348,0.927 -2.637,1.938 -3.858,3.027c-2.448,2.185 -4.638,4.643 -6.526,7.326c-3.843,5.353 -6.169,11.647 -6.732,18.212c-0.244,3.284 -0.015,6.586 0.682,9.805c0.719,3.238 1.832,6.376 3.314,9.343c0.024,0.047 0.037,0.098 0.037,0.151c-0,0.176 -0.145,0.321 -0.322,0.321c-0.119,-0 -0.228,-0.066 -0.284,-0.171c-1.682,-2.948 -2.968,-6.105 -3.822,-9.39c-0.868,-3.309 -1.223,-6.732 -1.053,-10.149c0.173,-3.428 0.849,-6.812 2.006,-10.043c1.161,-3.227 2.735,-6.291 4.682,-9.115c1.941,-2.824 4.213,-5.406 6.769,-7.69c1.276,-1.146 2.622,-2.21 4.032,-3.187c1.368,-0.912 2.688,-1.894 3.953,-2.944c2.529,-2.088 4.789,-4.482 6.726,-7.129c0.972,-1.324 1.849,-2.716 2.624,-4.166c0.786,-1.444 1.432,-2.96 1.932,-4.526l0.006,-0.02c0.039,-0.122 0.153,-0.205 0.28,-0.205c0.161,0 0.294,0.133 0.294,0.294c-0,0.014 -0.001,0.027 -0.003,0.041l-0.004,-0.002Z" style="fill:#91b3fa;fill-rule:nonzero;"/><path id="Trazado_20447" d="M165.099,255.416c0.027,-0.136 0.027,-0.275 -0,-0.411l-0.043,-0.403l-0.07,-0.805c-0.04,-0.537 -0.068,-1.075 -0.085,-1.613c-0.033,-1.077 -0.022,-2.156 0.041,-3.233c0.1,-2.169 0.492,-4.313 1.165,-6.377c0.655,-2.121 1.913,-4.006 3.621,-5.426c0.888,-0.681 1.897,-1.188 2.974,-1.493c1.068,-0.299 2.175,-0.439 3.284,-0.415c4.32,0.175 8.579,0.68 12.838,1.03c2.099,0.243 4.221,0.188 6.304,-0.162c0.505,-0.111 0.999,-0.264 1.478,-0.457c0.476,-0.2 0.931,-0.445 1.358,-0.733c0.854,-0.599 1.609,-1.329 2.236,-2.163c0.05,-0.06 0.123,-0.095 0.201,-0.095c0.144,0 0.262,0.119 0.262,0.262c0,0.054 -0.016,0.106 -0.047,0.15c-0.644,0.896 -1.427,1.685 -2.317,2.337c-0.455,0.32 -0.94,0.596 -1.449,0.823c-0.51,0.218 -1.038,0.394 -1.577,0.525c-2.146,0.389 -4.335,0.471 -6.504,0.245c-2.149,-0.143 -4.279,-0.379 -6.411,-0.562c-2.132,-0.182 -4.277,-0.355 -6.387,-0.443c-1.036,-0.031 -2.072,0.09 -3.073,0.361c-0.994,0.272 -1.927,0.73 -2.75,1.349c-1.631,1.314 -2.847,3.075 -3.498,5.066c-0.694,2.006 -1.114,4.096 -1.25,6.214c-0.082,1.061 -0.113,2.128 -0.1,3.193c0.007,0.533 0.026,1.066 0.055,1.598l0.055,0.797l0.035,0.398c-0,0.135 0.031,0.267 0.092,0.388c0.021,0.036 0.032,0.078 0.032,0.12c0,0.132 -0.108,0.241 -0.24,0.241c-0.132,-0 -0.241,-0.109 -0.241,-0.241c0,-0.019 0.003,-0.037 0.007,-0.056l0.004,-0.009Z" style="fill:#91b3fa;fill-rule:nonzero;"/></g></g></g><defs><linearGradient id="_Linear1" x1="0" y1="0" x2="1" y2="0" gradientUnits="userSpaceOnUse" gradientTransform="matrix(0.990567,15.28,-15.28,0.990567,183.978,69.4726)"><stop offset="0" style="stop-color:#c4421b;stop-opacity:1"/><stop offset="1" style="stop-color:#5c0e16;stop-opacity:1"/></linearGradient><linearGradient id="_Linear2" x1="0" y1="0" x2="1" y2="0" gradientUnits="userSpaceOnUse" gradientTransform="matrix(1.27827,-16.1257,16.1257,1.27827,184.054,77.4672)"><stop offset="0" style="stop-color:#c4421b;stop-opacity:1"/><stop offset="1" style="stop-color:#5c0e16;stop-opacity:1"/></linearGradient><linearGradient id="_Linear3" x1="0" y1="0" x2="1" y2="0" gradientUnits="userSpaceOnUse" gradientTransform="matrix(1.27445,-16.113,16.113,1.27445,188.567,77.8169)"><stop offset="0" style="stop-color:#c4421b;stop-opacity:1"/><stop offset="1" style="stop-color:#5c0e16;stop-opacity:1"/></linearGradient><linearGradient id="_Linear4" x1="0" y1="0" x2="1" y2="0" gradientUnits="userSpaceOnUse" gradientTransform="matrix(1.27335,-16.1196,16.1196,1.27335,179.445,77.1013)"><stop offset="0" style="stop-color:#c4421b;stop-opacity:1"/><stop offset="1" style="stop-color:#5c0e16;stop-opacity:1"/></linearGradient><linearGradient id="_Linear5" x1="0" y1="0" x2="1" y2="0" gradientUnits="userSpaceOnUse" gradientTransform="matrix(1.63824,10.72,-10.72,1.63824,214.255,42.2743)"><stop offset="0" style="stop-color:#ff928e;stop-opacity:1"/><stop offset="1" style="stop-color:#fe7062;stop-opacity:1"/></linearGradient><linearGradient id="_Linear6" x1="0" y1="0" x2="1" y2="0" gradientUnits="userSpaceOnUse" gradientTransform="matrix(4.24733,-13.5629,13.5629,4.24733,214.785,62.7484)"><stop offset="0" style="stop-color:#febbba;stop-opacity:1"/><stop offset="1" style="stop-color:#ff928e;stop-opacity:1"/></linearGradient><linearGradient id="_Linear7" x1="0" y1="0" x2="1" y2="0" gradientUnits="userSpaceOnUse" gradientTransform="matrix(4.24698,-13.5642,13.5642,4.24698,221.058,64.7135)"><stop offset="0" style="stop-color:#febbba;stop-opacity:1"/><stop offset="1" style="stop-color:#ff928e;stop-opacity:1"/></linearGradient><linearGradient id="_Linear8" x1="0" y1="0" x2="1" y2="0" gradientUnits="userSpaceOnUse" gradientTransform="matrix(1.96084,-13.1099,13.1099,1.96084,218.21,76.8225)"><stop offset="0" style="stop-color:#febbba;stop-opacity:1"/><stop offset="1" style="stop-color:#ff928e;stop-opacity:1"/></linearGradient><linearGradient id="_Linear9" x1="0" y1="0" x2="1" y2="0" gradientUnits="userSpaceOnUse" gradientTransform="matrix(0.94476,-6.32839,6.32839,0.94476,217.259,79.651)"><stop offset="0" style="stop-color:#09005d;stop-opacity:1"/><stop offset="1" style="stop-color:#1a0f91;stop-opacity:1"/></linearGradient><linearGradient id="_Linear10" x1="0" y1="0" x2="1" y2="0" gradientUnits="userSpaceOnUse" gradientTransform="matrix(4.24724,-13.5615,13.5615,4.24724,217.66,63.6486)"><stop offset="0" style="stop-color:#febbba;stop-opacity:1"/><stop offset="1" style="stop-color:#ff928e;stop-opacity:1"/></linearGradient><linearGradient id="_Linear11" x1="0" y1="0" x2="1" y2="0" gradientUnits="userSpaceOnUse" gradientTransform="matrix(-2.55052,18.3558,-18.3558,-2.55052,-313.562,167.29)"><stop offset="0" style="stop-color:#febbba;stop-opacity:1"/><stop offset="1" style="stop-color:#ff928e;stop-opacity:1"/></linearGradient><linearGradient id="_Linear12" x1="0" y1="0" x2="1" y2="0" gradientUnits="userSpaceOnUse" gradientTransform="matrix(4.70381,-26.2014,26.2014,4.70381,190.406,118.388)"><stop offset="0" style="stop-color:#febbba;stop-opacity:1"/><stop offset="1" style="stop-color:#ff928e;stop-opacity:1"/></linearGradient><linearGradient id="_Linear13" x1="0" y1="0" x2="1" y2="0" gradientUnits="userSpaceOnUse" gradientTransform="matrix(-2.55152,18.3485,-18.3485,-2.55152,-248.649,106.657)"><stop offset="0" style="stop-color:#febbba;stop-opacity:1"/><stop offset="1" style="stop-color:#ff928e;stop-opacity:1"/></linearGradient><linearGradient id="_Linear14" x1="0" y1="0" x2="1" y2="0" gradientUnits="userSpaceOnUse" gradientTransform="matrix(-5.38411,24.8314,-24.8314,-5.38411,232.097,88.6174)"><stop offset="0" style="stop-color:#febbba;stop-opacity:1"/><stop offset="1" style="stop-color:#ff928e;stop-opacity:1"/></linearGradient><linearGradient id="_Linear15" x1="0" y1="0" x2="1" y2="0" gradientUnits="userSpaceOnUse" gradientTransform="matrix(3.45471,-16.4881,16.4881,3.45471,228.861,96.6321)"><stop offset="0" style="stop-color:#febbba;stop-opacity:1"/><stop offset="1" style="stop-color:#ff928e;stop-opacity:1"/></linearGradient><linearGradient id="_Linear16" x1="0" y1="0" x2="1" y2="0" gradientUnits="userSpaceOnUse" gradientTransform="matrix(3.45022,-16.4811,16.4811,3.45022,232.859,97.4645)"><stop offset="0" style="stop-color:#febbba;stop-opacity:1"/><stop offset="1" style="stop-color:#ff928e;stop-opacity:1"/></linearGradient><linearGradient id="_Linear17" x1="0" y1="0" x2="1" y2="0" gradientUnits="userSpaceOnUse" gradientTransform="matrix(3.44935,-16.4875,16.4875,3.44935,225.413,95.9097)"><stop offset="0" style="stop-color:#febbba;stop-opacity:1"/><stop offset="1" style="stop-color:#ff928e;stop-opacity:1"/></linearGradient><linearGradient id="_Linear18" x1="0" y1="0" x2="1" y2="0" gradientUnits="userSpaceOnUse" gradientTransform="matrix(-15.538,30.6684,-30.6684,-15.538,162.024,-43.4027)"><stop offset="0" style="stop-color:#ff928e;stop-opacity:1"/><stop offset="1" style="stop-color:#fe7062;stop-opacity:1"/></linearGradient><linearGradient id="_Linear19" x1="0" y1="0" x2="1" y2="0" gradientUnits="userSpaceOnUse" gradientTransform="matrix(10.6835,32.6699,-32.6699,10.6835,29.71,-53.5212)"><stop offset="0" style="stop-color:#ff928e;stop-opacity:1"/><stop offset="1" style="stop-color:#fe7062;stop-opacity:1"/></linearGradient><linearGradient id="_Linear20" x1="0" y1="0" x2="1" y2="0" gradientUnits="userSpaceOnUse" gradientTransform="matrix(-15.5356,30.6309,-30.6309,-15.5356,160.913,-43.7902)"><stop offset="0" style="stop-color:#ff928e;stop-opacity:1"/><stop offset="1" style="stop-color:#fe7062;stop-opacity:1"/></linearGradient><linearGradient id="_Linear21" x1="0" y1="0" x2="1" y2="0" gradientUnits="userSpaceOnUse" gradientTransform="matrix(-15.534,30.6477,-30.6477,-15.534,163.581,-42.5351)"><stop offset="0" style="stop-color:#ff928e;stop-opacity:1"/><stop offset="1" style="stop-color:#fe7062;stop-opacity:1"/></linearGradient><linearGradient id="_Linear22" x1="0" y1="0" x2="1" y2="0" gradientUnits="userSpaceOnUse" gradientTransform="matrix(-15.538,30.6457,-30.6457,-15.538,170.206,-38.4224)"><stop offset="0" style="stop-color:#ff928e;stop-opacity:1"/><stop offset="1" style="stop-color:#fe7062;stop-opacity:1"/></linearGradient><linearGradient id="_Linear23" x1="0" y1="0" x2="1" y2="0" gradientUnits="userSpaceOnUse" gradientTransform="matrix(10.699,32.6544,-32.6544,10.699,56.9296,-47.0783)"><stop offset="0" style="stop-color:#ff928e;stop-opacity:1"/><stop offset="1" style="stop-color:#fe7062;stop-opacity:1"/></linearGradient><linearGradient id="_Linear24" x1="0" y1="0" x2="1" y2="0" gradientUnits="userSpaceOnUse" gradientTransform="matrix(-15.5356,30.6512,-30.6512,-15.5356,169.109,-38.9495)"><stop offset="0" style="stop-color:#ff928e;stop-opacity:1"/><stop offset="1" style="stop-color:#fe7062;stop-opacity:1"/></linearGradient><linearGradient id="_Linear25" x1="0" y1="0" x2="1" y2="0" gradientUnits="userSpaceOnUse" gradientTransform="matrix(-15.534,30.646,-30.646,-15.534,171.782,-37.5595)"><stop offset="0" style="stop-color:#ff928e;stop-opacity:1"/><stop offset="1" style="stop-color:#fe7062;stop-opacity:1"/></linearGradient><linearGradient id="_Linear26" x1="0" y1="0" x2="1" y2="0" gradientUnits="userSpaceOnUse" gradientTransform="matrix(-15.5154,30.6684,-30.6684,-15.5154,183.972,-31.9122)"><stop offset="0" style="stop-color:#ff928e;stop-opacity:1"/><stop offset="1" style="stop-color:#fe7062;stop-opacity:1"/></linearGradient><linearGradient id="_Linear27" x1="0" y1="0" x2="1" y2="0" gradientUnits="userSpaceOnUse" gradientTransform="matrix(-15.5248,30.6555,-30.6555,-15.5248,183.979,-31.9067)"><stop offset="0" style="stop-color:#ff928e;stop-opacity:1"/><stop offset="1" style="stop-color:#fe7062;stop-opacity:1"/></linearGradient><linearGradient id="_Linear28" x1="0" y1="0" x2="1" y2="0" gradientUnits="userSpaceOnUse" gradientTransform="matrix(-15.5356,30.6753,-30.6753,-15.5356,182.883,-32.5481)"><stop offset="0" style="stop-color:#ff928e;stop-opacity:1"/><stop offset="1" style="stop-color:#fe7062;stop-opacity:1"/></linearGradient><linearGradient id="_Linear29" x1="0" y1="0" x2="1" y2="0" gradientUnits="userSpaceOnUse" gradientTransform="matrix(-15.5332,30.6471,-30.6471,-15.5332,185.555,-31.042)"><stop offset="0" style="stop-color:#ff928e;stop-opacity:1"/><stop offset="1" style="stop-color:#fe7062;stop-opacity:1"/></linearGradient><linearGradient id="_Linear30" x1="0" y1="0" x2="1" y2="0" gradientUnits="userSpaceOnUse" gradientTransform="matrix(17.1492,39.0108,-39.0108,17.1492,-254.698,79.967)"><stop offset="0" style="stop-color:#febbba;stop-opacity:1"/><stop offset="1" style="stop-color:#ff928e;stop-opacity:1"/></linearGradient><linearGradient id="_Linear31" x1="0" y1="0" x2="1" y2="0" gradientUnits="userSpaceOnUse" gradientTransform="matrix(11.3275,-132.337,132.337,11.3275,-228.981,284.399)"><stop offset="0" style="stop-color:#febbba;stop-opacity:1"/><stop offset="1" style="stop-color:#ff928e;stop-opacity:1"/></linearGradient><linearGradient id="_Linear32" x1="0" y1="0" x2="1" y2="0" gradientUnits="userSpaceOnUse" gradientTransform="matrix(11.3389,-132.389,132.389,11.3389,-206.201,286.383)"><stop offset="0" style="stop-color:#febbba;stop-opacity:1"/><stop offset="1" style="stop-color:#ff928e;stop-opacity:1"/></linearGradient><linearGradient id="_Linear33" x1="0" y1="0" x2="1" y2="0" gradientUnits="userSpaceOnUse" gradientTransform="matrix(2.13127,-15.5768,15.5768,2.13127,-230.237,153.952)"><stop offset="0" style="stop-color:#febbba;stop-opacity:1"/><stop offset="1" style="stop-color:#ff928e;stop-opacity:1"/></linearGradient><linearGradient id="_Linear34" x1="0" y1="0" x2="1" y2="0" gradientUnits="userSpaceOnUse" gradientTransform="matrix(18.5598,-33.039,33.039,18.5598,-240.173,98.9666)"><stop offset="0" style="stop-color:#febbba;stop-opacity:1"/><stop offset="1" style="stop-color:#ff928e;stop-opacity:1"/></linearGradient><linearGradient id="_Linear35" x1="0" y1="0" x2="1" y2="0" gradientUnits="userSpaceOnUse" gradientTransform="matrix(18.5628,-33.0315,33.0315,18.5628,-236.215,101.19)"><stop offset="0" style="stop-color:#febbba;stop-opacity:1"/><stop offset="1" style="stop-color:#ff928e;stop-opacity:1"/></linearGradient><linearGradient id="_Linear36" x1="0" y1="0" x2="1" y2="0" gradientUnits="userSpaceOnUse" gradientTransform="matrix(17.1354,39.0133,-39.0133,17.1354,-257.934,81.4596)"><stop offset="0" style="stop-color:#febbba;stop-opacity:1"/><stop offset="1" style="stop-color:#ff928e;stop-opacity:1"/></linearGradient><linearGradient id="_Linear37" x1="0" y1="0" x2="1" y2="0" gradientUnits="userSpaceOnUse" gradientTransform="matrix(4.61476,0,0,4.61476,162.75,111.659)"><stop offset="0" style="stop-color:#febbba;stop-opacity:1"/><stop offset="1" style="stop-color:#ff928e;stop-opacity:1"/></linearGradient><linearGradient id="_Linear38" x1="0" y1="0" x2="1" y2="0" gradientUnits="userSpaceOnUse" gradientTransform="matrix(-20.4204,5.58979,-5.58979,-20.4204,-327.679,157.941)"><stop offset="0" style="stop-color:#09005d;stop-opacity:1"/><stop offset="1" style="stop-color:#1a0f91;stop-opacity:1"/></linearGradient><linearGradient id="_Linear39" x1="0" y1="0" x2="1" y2="0" gradientUnits="userSpaceOnUse" gradientTransform="matrix(44.4844,-18.6064,18.6064,44.4844,92.5248,174.081)"><stop offset="0" style="stop-color:#febbba;stop-opacity:1"/><stop offset="1" style="stop-color:#ff928e;stop-opacity:1"/></linearGradient></defs></svg>