<svg xmlns="http://www.w3.org/2000/svg" xmlns:xlink="http://www.w3.org/1999/xlink" width="420" height="419" viewBox="0 0 420 419">
  <defs>
    <clipPath id="clip-path">
      <circle id="Elipse_1211" data-name="Elipse 1211" cx="30.407" cy="30.407" r="30.407" transform="translate(0 43.001) rotate(-45)" fill="none"/>
    </clipPath>
    <linearGradient id="linear-gradient" x1="0.412" y1="-0.83" x2="0.577" y2="2.157" gradientUnits="objectBoundingBox">
      <stop offset="0" stop-color="#c4421b"/>
      <stop offset="1" stop-color="#5c0e16"/>
    </linearGradient>
    <linearGradient id="linear-gradient-2" x1="0.411" y1="1.081" x2="0.548" y2="-0.237" xlink:href="#linear-gradient"/>
    <linearGradient id="linear-gradient-3" x1="0.208" y1="2.478" x2="0.81" y2="-1.626" xlink:href="#linear-gradient"/>
    <linearGradient id="linear-gradient-4" x1="0.217" y1="2.299" x2="0.887" y2="-1.819" xlink:href="#linear-gradient"/>
    <clipPath id="clip-path-2">
      <circle id="Elipse_1214" data-name="Elipse 1214" cx="27.862" cy="27.862" r="27.862" fill="none"/>
    </clipPath>
    <linearGradient id="linear-gradient-5" x1="-0.336" y1="-7.678" x2="-0.03" y2="-4.642" gradientUnits="objectBoundingBox">
      <stop offset="0" stop-color="#ff928e"/>
      <stop offset="1" stop-color="#fe7062"/>
    </linearGradient>
    <linearGradient id="linear-gradient-6" x1="0.755" y1="0.195" x2="4.508" y2="-4.313" gradientUnits="objectBoundingBox">
      <stop offset="0" stop-color="#febbba"/>
      <stop offset="1" stop-color="#ff928e"/>
    </linearGradient>
    <linearGradient id="linear-gradient-7" x1="0.037" y1="1.034" x2="3.384" y2="-4.028" xlink:href="#linear-gradient-6"/>
    <linearGradient id="linear-gradient-8" x1="0.375" y1="0.718" x2="0.716" y2="-0.122" xlink:href="#linear-gradient-6"/>
    <linearGradient id="linear-gradient-9" x1="0.463" y1="0.747" x2="0.548" y2="-0.271" gradientUnits="objectBoundingBox">
      <stop offset="0" stop-color="#09005d"/>
      <stop offset="1" stop-color="#1a0f91"/>
    </linearGradient>
    <linearGradient id="linear-gradient-10" x1="0.447" y1="0.532" x2="1.074" y2="-0.751" xlink:href="#linear-gradient-6"/>
    <clipPath id="clip-path-3">
      <circle id="Elipse_1218" data-name="Elipse 1218" cx="31.483" cy="31.483" r="31.483" fill="none"/>
    </clipPath>
    <linearGradient id="linear-gradient-11" x1="-95.652" y1="9.148" x2="-96.137" y2="12.288" xlink:href="#linear-gradient-6"/>
    <linearGradient id="linear-gradient-12" x1="0.348" y1="1.13" x2="0.81" y2="-0.923" xlink:href="#linear-gradient-6"/>
    <linearGradient id="linear-gradient-13" x1="-37.142" y1="-1.71" x2="-37.36" y2="1.264" xlink:href="#linear-gradient-6"/>
    <clipPath id="clip-path-4">
      <circle id="Elipse_1221" data-name="Elipse 1221" cx="28.322" cy="28.322" r="28.322" transform="translate(0 40.054) rotate(-45)" fill="none"/>
    </clipPath>
    <linearGradient id="linear-gradient-14" x1="1.015" y1="-2.003" x2="0.213" y2="2.486" xlink:href="#linear-gradient-6"/>
    <linearGradient id="linear-gradient-15" x1="0.437" y1="0.528" x2="0.859" y2="-1.058" xlink:href="#linear-gradient-6"/>
    <linearGradient id="linear-gradient-16" x1="0.332" y1="0.915" x2="2.249" y2="-4.024" xlink:href="#linear-gradient-6"/>
    <linearGradient id="linear-gradient-17" x1="0.544" y1="0.447" x2="2.68" y2="-4.509" xlink:href="#linear-gradient-6"/>
    <linearGradient id="linear-gradient-18" x1="3.96" y1="-6.328" x2="3.274" y2="-4.974" xlink:href="#linear-gradient-5"/>
    <linearGradient id="linear-gradient-19" x1="4.079" y1="-6.563" x2="3.369" y2="-5.163" xlink:href="#linear-gradient-5"/>
    <linearGradient id="linear-gradient-20" x1="14.055" y1="-25.108" x2="11.321" y2="-19.95" xlink:href="#linear-gradient-5"/>
    <linearGradient id="linear-gradient-21" x1="7.776" y1="-30.139" x2="6.358" y2="-24.168" xlink:href="#linear-gradient-5"/>
    <linearGradient id="linear-gradient-22" x1="3.462" y1="-5.346" x2="2.776" y2="-3.993" xlink:href="#linear-gradient-5"/>
    <linearGradient id="linear-gradient-23" x1="3.564" y1="-5.547" x2="2.855" y2="-4.147" xlink:href="#linear-gradient-5"/>
    <linearGradient id="linear-gradient-24" x1="12.072" y1="-21.367" x2="9.338" y2="-16.21" xlink:href="#linear-gradient-5"/>
    <linearGradient id="linear-gradient-25" x1="6.748" y1="-25.808" x2="5.33" y2="-19.837" xlink:href="#linear-gradient-5"/>
    <linearGradient id="linear-gradient-26" x1="3.89" y1="-6.192" x2="3.205" y2="-4.838" xlink:href="#linear-gradient-5"/>
    <linearGradient id="linear-gradient-27" x1="4.007" y1="-6.422" x2="3.298" y2="-5.022" xlink:href="#linear-gradient-5"/>
    <linearGradient id="linear-gradient-28" x1="13.78" y1="-24.589" x2="11.046" y2="-19.432" xlink:href="#linear-gradient-5"/>
    <linearGradient id="linear-gradient-29" x1="7.634" y1="-29.539" x2="6.216" y2="-23.568" xlink:href="#linear-gradient-5"/>
    <linearGradient id="linear-gradient-30" x1="-12.477" y1="-0.878" x2="-11.925" y2="0.199" xlink:href="#linear-gradient-6"/>
    <linearGradient id="linear-gradient-31" x1="-31.995" y1="1.602" x2="-30.96" y2="-1.187" xlink:href="#linear-gradient-6"/>
    <linearGradient id="linear-gradient-32" x1="-12.148" y1="1.698" x2="-11.684" y2="-1.193" xlink:href="#linear-gradient-6"/>
    <linearGradient id="linear-gradient-33" x1="-42.48" y1="1.857" x2="-42.225" y2="0.807" xlink:href="#linear-gradient-6"/>
    <linearGradient id="linear-gradient-34" x1="-30.222" y1="-1.132" x2="-28.689" y2="-3.386" xlink:href="#linear-gradient-6"/>
    <linearGradient id="linear-gradient-35" x1="-112.77" y1="-4.348" x2="-106.977" y2="-11.489" xlink:href="#linear-gradient-6"/>
    <linearGradient id="linear-gradient-36" x1="-38.864" y1="-1.709" x2="-37.274" y2="1.298" xlink:href="#linear-gradient-6"/>
    <linearGradient id="linear-gradient-37" x1="0" y1="0.5" x2="1" y2="0.5" xlink:href="#linear-gradient-6"/>
    <linearGradient id="linear-gradient-38" x1="-16.43" y1="-6.995" x2="-17.17" y2="-4.533" xlink:href="#linear-gradient-9"/>
    <linearGradient id="linear-gradient-39" x1="-0.799" y1="1.009" x2="1.025" y2="0.359" xlink:href="#linear-gradient-6"/>
  </defs>
  <g id="Grupo_22418" data-name="Grupo 22418" transform="translate(-452.437 -455)">
    <path id="Trazado_20363" data-name="Trazado 20363" d="M821.9,826.469a160.572,160.572,0,0,1-28.2,22.879c-73.041,48.74-156.536,34.692-182.35,29.89-41.648-7.747-76.805-13.212-107.011-40.484-68.637-61.972-65.3-191.25-12.852-271.333,6.219-9.5,58.587-87.072,142.262-98,2.047-.267,3.574-.42,4.911-.561,12.944-1.37,93.158-8.6,158.564,46.164a195.036,195.036,0,0,1,38.4,43.544C886.715,637.417,886.877,759.541,821.9,826.469Z" transform="translate(0 -10.845)" fill="#dff7f9"/>
    <g id="Grupo_22390" data-name="Grupo 22390" transform="translate(481.674 455)">
      <path id="Trazado_20364" data-name="Trazado 20364" d="M823.842,1009.24c10.324-20.055,29.527-34.193,51.832-36.719l1.526-96.564a1.471,1.471,0,0,0-1.481-1.5C812.807,875.143,757.3,914.3,731.388,972.3a1.614,1.614,0,0,0,.9,2.162Z" transform="translate(-718.069 -812.32)" fill="#91b3fa"/>
      <path id="Trazado_20365" data-name="Trazado 20365" d="M1387.6,2064.5a2.883,2.883,0,0,0-2.833,2.021c-1.08,3.453-3.055,10.077-3.378,10.915a88.471,88.471,0,0,1-5.573,11.849,65.251,65.251,0,0,1-15.433,18.616c-16,12.958-39.007,15.366-58.195,8.953-.547-.183-1.089-.379-1.629-.581a2.146,2.146,0,0,0-2.635.977l-48.382,88.233c23.494,11.781,45.6,14.862,73.34,13.084,80.588-5.165,143.869-70.6,150.893-151.742Z" transform="translate(-1161.714 -1826.608)" fill="#7d97f4"/>
      <path id="Trazado_20366" data-name="Trazado 20366" d="M1369.666,2064.5c-5.246,32.2-29.042,57.358-61.378,58.456a73.576,73.576,0,0,1-27.93-5.037,1.811,1.811,0,0,0-2.237.78l-49.731,85.551a151.115,151.115,0,0,0,77.761,15.77c80.588-5.165,143.869-72.585,150.893-153.729Z" transform="translate(-1146.326 -1826.614)" fill="#2a94ee"/>
      <path id="Trazado_20367" data-name="Trazado 20367" d="M723.061,1837.267l48.152-86.365a1.457,1.457,0,0,0-.339-1.826c-14.824-12.484-26.675-29.222-26.675-50.927,0-5.353-2.374-13.145-1.286-18.168L652.358,1647.6a176.033,176.033,0,0,0-7.741,51.786c0,58.292,30.973,109.561,73.5,139.032A3.428,3.428,0,0,0,723.061,1837.267Z" transform="translate(-644.617 -1473.136)" fill="#91b3fa"/>
      <path id="Trazado_20368" data-name="Trazado 20368" d="M718.246,1810.443l49.9-85.3a2.623,2.623,0,0,0-.527-3.294,70.058,70.058,0,0,1-23.421-52.866,73.643,73.643,0,0,1,1.666-15.595l-92.15-34.446a1.357,1.357,0,0,0-1.776.878,176.094,176.094,0,0,0-7.321,50.4C644.617,1729.934,674.12,1781.35,718.246,1810.443Z" transform="translate(-644.617 -1448.765)" fill="#2a94ee"/>
      <g id="Grupo_22389" data-name="Grupo 22389" transform="translate(168.512 0)">
        <path id="Trazado_20369" data-name="Trazado 20369" d="M1796.638,617.331c28.563,4.777,50.712,28.828,54.464,58.882a3.288,3.288,0,0,0,3.147,2.89l138.146,4.63,1.085-1.052c-.422-115.567-83.29-214.576-194.29-227.681Z" transform="translate(-1796.638 -455)" fill="#2a94ee"/>
      </g>
    </g>
    <g id="Grupo_22395" data-name="Grupo 22395" transform="translate(685.739 481.215)">
      <circle id="Elipse_1209" data-name="Elipse 1209" cx="33.432" cy="33.432" r="33.432" transform="translate(0 47.28) rotate(-45)" fill="#91b3fa"/>
      <circle id="Elipse_1210" data-name="Elipse 1210" cx="30.407" cy="30.407" r="30.407" transform="translate(3.962 47.379) rotate(-45)" fill="#fff"/>
      <g id="Grupo_22394" data-name="Grupo 22394" transform="translate(4.136 4.616)">
        <g id="Grupo_22393" data-name="Grupo 22393" transform="translate(0)" clip-path="url(#clip-path)">
          <g id="Grupo_22392" data-name="Grupo 22392" transform="translate(14.257 14.135)">
            <path id="Trazado_20370" data-name="Trazado 20370" d="M2150.684,1034.706c.479-2.224.857-3.679.857-3.679l-8.452-14.314s-2.736,2.769-4.376,14.834a2.784,2.784,0,0,0,2.758,3.159Z" transform="translate(-2138.688 -976.225)" fill="#7d97f4"/>
            <path id="Trazado_20371" data-name="Trazado 20371" d="M2452.183,1028.468c-2.347-10.46-6.525-15.33-6.525-15.33l-5.29,17.524s.16.346.4,1.013h8.844A2.631,2.631,0,0,0,2452.183,1028.468Z" transform="translate(-2394.474 -973.194)" fill="#7d97f4"/>
            <path id="Trazado_20372" data-name="Trazado 20372" d="M2175.15,991.183c8.688,3.2,20.495,2.749,34.271,0a45.02,45.02,0,0,1,1.347-4.422l3.635-14.119c-5.1-4.568-12.257-6.077-15.012-6.505-6.4-1.588-13.887-.181-13.887-.181-10.147.708-17.884,7.219-17.884,7.219l6.287,14.308A29.14,29.14,0,0,1,2175.15,991.183Z" transform="translate(-2163.219 -932.702)" fill="#7d97f4"/>
            <path id="Trazado_20373" data-name="Trazado 20373" d="M2292.508,923.818l-.216,7.131a1.619,1.619,0,0,0,1.082,1.575c1.823.643,5.6,1.621,9.175.34a1.614,1.614,0,0,0,1.045-1.756l-1.072-7.291Z" transform="translate(-2268.923 -897.462)" fill="url(#linear-gradient)"/>
            <g id="Grupo_22391" data-name="Grupo 22391" transform="translate(17.809)">
              <path id="Trazado_20374" data-name="Trazado 20374" d="M2276.356,812.268s.419,9.634,2.094,13.4,5.865,3.77,6.283,3.77a9.586,9.586,0,0,0,6.283-4.189c2.094-3.351,2.932-14.242,2.932-14.242s-3.77-4.189-8.8-4.608S2276.356,810.174,2276.356,812.268Z" transform="translate(-2273.221 -797.886)" fill="url(#linear-gradient-2)"/>
              <path id="Trazado_20375" data-name="Trazado 20375" d="M2375.222,856.167s1.922-2.883,2.884-1.922-.961,7.209-2.884,7.209S2375.222,856.167,2375.222,856.167Z" transform="translate(-2356.323 -838.307)" fill="url(#linear-gradient-3)"/>
              <path id="Trazado_20376" data-name="Trazado 20376" d="M2265.247,856.779s-2.4-3.364-3.364-2.4,1.442,7.209,3.364,7.209Z" transform="translate(-2260.764 -838.438)" fill="url(#linear-gradient-4)"/>
              <path id="Trazado_20377" data-name="Trazado 20377" d="M2277.667,762.6c.012-.652-.025-1.325-.058-2.093a15.415,15.415,0,0,1,.12-2.3,3.331,3.331,0,0,0-4.143-3.394.8.8,0,0,1-.488.036c-.193-.075-.278-.3-.355-.488a5.785,5.785,0,0,0-6.284-3.745,6.772,6.772,0,0,0-5.285,3.839.672.672,0,0,1-.217.31.64.64,0,0,1-.337.067c-1.133.015-2.441-.233-3.4.464a3.448,3.448,0,0,0-1.463,2.531,6.535,6.535,0,0,0,.908,3.175,2.512,2.512,0,0,1,.373,1.927,5.943,5.943,0,0,1-.288.55c-1.032,2.049,1.679,4.065,2.18,5.9l1.139,4.184a10.033,10.033,0,0,0,.142-2.708,31.6,31.6,0,0,1-.4-3.72,6.088,6.088,0,0,1,.653-2.583c.4-.768,1.121-1.107,1.663-1.78a3.426,3.426,0,0,0,1.724,1.055,2.9,2.9,0,0,0,1.271-.169c.622-.195,1.505-.9,2.11-.945s.812.585,1.211.92a4.516,4.516,0,0,0,4.321.632c-.308.129,1.49,3.482,1.548,3.786a36.143,36.143,0,0,1,.618,5.411c.144.1.3-.109.351-.28.327-1.21.428-2.467.639-3.7a26.693,26.693,0,0,1,1.258-4.045A8.864,8.864,0,0,0,2277.667,762.6Z" transform="translate(-2255.752 -750.575)" fill="#20287a"/>
            </g>
          </g>
        </g>
      </g>
    </g>
    <g id="Grupo_22399" data-name="Grupo 22399" transform="translate(754.065 468.284)">
      <circle id="Elipse_1212" data-name="Elipse 1212" cx="30.635" cy="30.635" r="30.635" transform="translate(0 43.324) rotate(-45)" fill="#91b3fa"/>
      <circle id="Elipse_1213" data-name="Elipse 1213" cx="27.862" cy="27.862" r="27.862" transform="translate(15.171 15.552)" fill="#fff"/>
      <g id="Grupo_22398" data-name="Grupo 22398" transform="translate(15.331 15.77)">
        <g id="Grupo_22397" data-name="Grupo 22397" clip-path="url(#clip-path-2)">
          <g id="Grupo_22396" data-name="Grupo 22396" transform="translate(6.312 5.971)">
            <path id="Trazado_20378" data-name="Trazado 20378" d="M2697.077,700.855c-1.764,0-3.594.225-4.284-1.9-1.3-4,.884-9.984,4.465-12.163a12.114,12.114,0,0,1,3.969-1.324,6.213,6.213,0,0,1,4.472.379c1.345.723,2.651-.439,4.045.489a8.552,8.552,0,0,1,2.727,3.288,20.49,20.49,0,0,1,1.617,5.25,2.263,2.263,0,0,1-.387,2.172c-1.446,2.24-3.371,3.809-6.154,3.809Z" transform="translate(-2681.66 -685.234)" fill="#20287a"/>
            <path id="Trazado_20379" data-name="Trazado 20379" d="M2636.79,741.612s.319.668-1.758,1.712c-1.158.582-3.412,1.442-3.709,3.955-.154,1.3-.66,4.5-1.895,4.7-3.074.493-7.224,2.412-7.611,6.142-.444,4.281.787,6.529,2.967,7.088,1.6.411,2.007.842,1.683,2.534-.311,1.623.921,7.446,3.606,8.93,6.018,3.325,11.26-11.823,11.26-11.823l1.232-19.558Z" transform="translate(-2621.728 -733.035)" fill="#20287a"/>
            <path id="Trazado_20380" data-name="Trazado 20380" d="M2778.5,730.37s-.325.708,1.79,1.814c1.179.617,3.473,1.528,3.776,4.19.156,1.375.522,3.306,1.779,3.516,3.13.523,6.757,3.572,7.529,9.492.589,4.519-.7,9.365-2.916,9.958-1.63.436-1.507-.428-1.177,1.365.316,1.72-.426,1.056-3.16,2.628-6.127,3.522-12.245-8.345-12.245-8.345l-1.254-20.721Z" transform="translate(-2749.664 -723.503)" fill="#20287a"/>
            <path id="Trazado_20381" data-name="Trazado 20381" d="M2736.757,870.562s4.651-1.2,5.639.283c.494,2.464.748,4.911.748,4.911l-5.359,1.006-3.544-.816-.843-.49-.35-3.491A13.471,13.471,0,0,1,2736.757,870.562Z" transform="translate(-2716.113 -841.98)" fill="url(#linear-gradient-5)"/>
            <path id="Trazado_20382" data-name="Trazado 20382" d="M2708.864,782.222s-.748-2.243-1.869-1.5,1.683,5.52,1.683,5.52Z" transform="translate(-2693.798 -766.07)" fill="url(#linear-gradient-6)"/>
            <path id="Trazado_20383" data-name="Trazado 20383" d="M2794.494,779.921s0-3.365,1.87-1.5-1.87,4.487-1.87,4.487Z" transform="translate(-2768.211 -763.769)" fill="url(#linear-gradient-7)"/>
            <path id="Trazado_20384" data-name="Trazado 20384" d="M2856.969,915.358c-1.565-7.556-3.813-13.461-4.523-13.8l-4.245,10.5a27.658,27.658,0,0,0-.788,7.015h6.529A3.09,3.09,0,0,0,2856.969,915.358Z" transform="translate(-2813.077 -868.646)" fill="#d64626"/>
            <path id="Trazado_20385" data-name="Trazado 20385" d="M2653.778,931.911c.2-3.375.11-5.5.11-5.5l-5.983-9.712a84.671,84.671,0,0,0-1.5,10.83q-.052.547-.1,1.113a3.021,3.021,0,0,0,3.011,3.271Z" transform="translate(-2642.561 -881.484)" fill="#d64626"/>
            <path id="Trazado_20386" data-name="Trazado 20386" d="M2735.611,852.825h6.514l1.767-18.568s-1.5-.385-2.243-3a53.1,53.1,0,0,1-1.122-7.858l-6.73,1.493s.748,7.125-.748,10.49Z" transform="translate(-2716.113 -802.378)" fill="url(#linear-gradient-8)"/>
            <path id="Trazado_20387" data-name="Trazado 20387" d="M2704.249,951.514l.937-11.721c-6.823,4.082-13.84,3.884-20.957,1.719l2.02,10Z" transform="translate(-2674.721 -901.067)" fill="url(#linear-gradient-9)"/>
            <path id="Trazado_20388" data-name="Trazado 20388" d="M2672.609,902.852c-2.022-9.753-4.162-20.427-4.162-20.427l-1.122,2.238-10.469,3c.512,2.392,2.078,8.976,3.651,15.19Z" transform="translate(-2651.512 -852.426)" fill="#d64626"/>
            <path id="Trazado_20389" data-name="Trazado 20389" d="M2788.839,896.605c.558-2.987,1.049-5.319,1.049-5.319l2.264-12.2c-.713-.712-11.891-2.245-11.891-2.245l-1.2-1.786s-1.493,10.851-2.768,21.548Z" transform="translate(-2752.782 -846.179)" fill="#d64626"/>
            <path id="Trazado_20390" data-name="Trazado 20390" d="M2715.51,733.52s-.374,8.974.748,10.469,2.617,4.861,5.235,5.235,6.73-7.1,6.73-7.478-.374-10.1-.374-10.1S2720,725.294,2715.51,733.52Z" transform="translate(-2701.192 -722.602)" fill="url(#linear-gradient-10)"/>
            <path id="Trazado_20391" data-name="Trazado 20391" d="M2704.678,722.933s-1.5,4.487,2.991,2.991l4.487-1.5s4.487-2.617,5.235-1.5a18.552,18.552,0,0,1,1.5,3.884s1.5-3.884,0-6.128S2708.043,716.577,2704.678,722.933Z" transform="translate(-2691.856 -713.511)" fill="#20287a"/>
          </g>
        </g>
      </g>
    </g>
    <g id="Grupo_22404" data-name="Grupo 22404" transform="translate(712.098 566.132)">
      <circle id="Elipse_1215" data-name="Elipse 1215" cx="34.616" cy="34.616" r="34.616" transform="translate(0)" fill="#91b3fa"/>
      <circle id="Elipse_1216" data-name="Elipse 1216" cx="31.483" cy="31.483" r="31.483" transform="translate(2.804 3.235)" fill="#fff"/>
      <g id="Grupo_22403" data-name="Grupo 22403" transform="translate(2.985 3.482)">
        <g id="Grupo_22402" data-name="Grupo 22402" clip-path="url(#clip-path-3)">
          <g id="Grupo_22401" data-name="Grupo 22401" transform="translate(9.513 1.384)">
            <g id="Grupo_22400" data-name="Grupo 22400">
              <circle id="Elipse_1217" data-name="Elipse 1217" cx="10.268" cy="10.268" r="10.268" transform="translate(8.137 16.279) rotate(-45)" fill="#20287a"/>
              <path id="Trazado_20392" data-name="Trazado 20392" d="M2318.548,1320.2c-4.516,15.618-7.587,29.816-7.089,33.809l13.167-1.39,1.527-28.888Z" transform="translate(-2305.751 -1306.788)" fill="#20287a"/>
              <path id="Trazado_20393" data-name="Trazado 20393" d="M2444.091,1305.907l-1.807,35.313,14.9,7.934c-.312-12.068-6.478-43.078-9-43.909Z" transform="translate(-2416.719 -1294.108)" fill="#20287a"/>
              <path id="Trazado_20394" data-name="Trazado 20394" d="M2401.338,1435.307l.434,9.617-9.328,1.4-.588-10.1Z" transform="translate(-2373.962 -1404.383)" fill="url(#linear-gradient-11)"/>
              <path id="Trazado_20395" data-name="Trazado 20395" d="M2378.519,1326.035s-2.236,9.984-8.284,11.184-7.841-8.208-8.16-8.884c0,0-1.353.638-1.656-.707s-1.9-4.727,1.11-4.658c0,0-.592-3.359.449-5.008s3.139-5.615,7.463-4.512S2380.675,1318.191,2378.519,1326.035Z" transform="translate(-2346.719 -1300.903)" fill="url(#linear-gradient-12)"/>
              <path id="Trazado_20396" data-name="Trazado 20396" d="M2366.051,1477.391l5.916,3.137-7.747,8.5-14.322-9.009c2.182-.815,4.327-1.909,6.287-2.235Z" transform="translate(-2338.386 -1440.065)" fill="url(#linear-gradient-13)"/>
              <path id="Trazado_20397" data-name="Trazado 20397" d="M2367.89,1304.89c-2.021,2.827-.432,5.335-.975,7.365a42.318,42.318,0,0,1,10.561-1.58c.412-1.352-.4-3.6-.81-5.377.646,1.685,2.122,4.263,1.965,5.594,2.673.123,2.125.16,5.129,1.363l-2.339-8.155C2376.214,1301.668,2371.716,1301.978,2367.89,1304.89Z" transform="translate(-2352.743 -1291.755)" fill="#20287a"/>
              <path id="Trazado_20398" data-name="Trazado 20398" d="M2403.852,1235.589c0,1.961-1.845,4.161-3.175,4.161-1.1,0-3.175-2.2-3.175-4.161a3.195,3.195,0,1,1,6.35,0Z" transform="translate(-2378.749 -1232.039)" fill="#20287a"/>
              <path id="Trazado_20399" data-name="Trazado 20399" d="M2337.689,1501.847l3.257-18.116c-4.43-3.014-8.537-4.448-13.417-6.3-1.513,3.145-8.422,2.833-9.867.391a43.56,43.56,0,0,0-13.2,6.118l4.457,17.905Z" transform="translate(-2299.865 -1440.101)" fill="#d64626"/>
              <path id="Trazado_20400" data-name="Trazado 20400" d="M2522.794,1533.741c-2.637-11.279-5.676-14.912-5.676-14.912l-4.873,14.828s.587,1.183,1.358,3.288h6.646A2.612,2.612,0,0,0,2522.794,1533.741Z" transform="translate(-2476.037 -1475.199)" fill="#d64626"/>
              <path id="Trazado_20401" data-name="Trazado 20401" d="M2283.614,1538.148a42.981,42.981,0,0,1,2.193-6.052l-6.972-11.848a43.691,43.691,0,0,0-4.578,14.972,2.607,2.607,0,0,0,2.589,2.929Z" transform="translate(-2274.235 -1476.403)" fill="#d64626"/>
              <path id="Trazado_20402" data-name="Trazado 20402" d="M2460.736,1314.385c3.455,8.736,5.181,33.374,3.07,46.4,3.3-11.375,7.418-25.8,1.131-45.2Z" transform="translate(-2432.364 -1301.858)" fill="#20287a"/>
            </g>
          </g>
        </g>
      </g>
    </g>
    <g id="Grupo_22409" data-name="Grupo 22409" transform="translate(777.096 535.55)">
      <circle id="Elipse_1219" data-name="Elipse 1219" cx="31.14" cy="31.14" r="31.14" transform="translate(9.209 8.822)" fill="#91b3fa"/>
      <circle id="Elipse_1220" data-name="Elipse 1220" cx="28.322" cy="28.322" r="28.322" transform="translate(0 40.054) rotate(-45)" fill="#fff"/>
      <g id="Grupo_22408" data-name="Grupo 22408" transform="translate(0.162 0.222)">
        <g id="Grupo_22407" data-name="Grupo 22407" clip-path="url(#clip-path-4)">
          <g id="Grupo_22406" data-name="Grupo 22406" transform="translate(9.488 14.797)">
            <path id="Trazado_20403" data-name="Trazado 20403" d="M3005.173,1348.726a2.846,2.846,0,0,0,2.845-2.865c-.03-4.522-.122-8.5-.333-10.689-.538-5.6-3.509-7.374-3.509-7.374l-1.513,20.927Z" transform="translate(-2955.75 -1292.245)" fill="#2a94ee"/>
            <path id="Trazado_20404" data-name="Trazado 20404" d="M2813.62,1329.975c-.221-11.724-.438-21.419-.438-21.419-5.308-3.267-24.909-2.857-24.909-2.857s-1.361,11.31-2.913,24.276Z" transform="translate(-2771.506 -1273.494)" fill="#d64626"/>
            <path id="Trazado_20405" data-name="Trazado 20405" d="M2748.944,1316.912h18.241c-.586-5.668-5.3-26.636-5.3-26.636l-14.631,4.477s1.156,13.073,1.156,17.157C2748.413,1312.846,2748.676,1314.661,2748.944,1316.912Z" transform="translate(-2739.2 -1260.431)" fill="#2a94ee"/>
            <path id="Trazado_20406" data-name="Trazado 20406" d="M2704.584,1341.955c.065-6.91-.059-19.655-2.235-22.142,0,0-2.819,1.451-5.677,10.843-.825,2.711-1.574,5.284-2.272,7.735a2.8,2.8,0,0,0,2.693,3.565Z" transform="translate(-2694.291 -1285.474)" fill="#2a94ee"/>
            <path id="Trazado_20407" data-name="Trazado 20407" d="M2908.916,1326.12c.527-9.938.986-20.527.55-20.964-.817-.817-10.629-4.02-10.629-4.02s-6.393,19.549-7.878,24.984Z" transform="translate(-2861.04 -1269.638)" fill="#2a94ee"/>
            <path id="Trazado_20408" data-name="Trazado 20408" d="M2847.455,1265.278l2.45-8.575h8.983l1.225,9.8S2852.355,1268.545,2847.455,1265.278Z" transform="translate(-2824.154 -1231.965)" fill="url(#linear-gradient-14)"/>
            <g id="Grupo_22405" data-name="Grupo 22405" transform="translate(21.062)">
              <path id="Trazado_20409" data-name="Trazado 20409" d="M2847.455,1155.668s.844,8.2,2.268,11.406,4.983,3.2,5.339,3.2a8.145,8.145,0,0,0,5.339-3.559c1.78-2.847,2.491-12.1,2.491-12.1s-3.2-3.559-7.475-3.915S2847.455,1153.888,2847.455,1155.668Z" transform="translate(-2845.217 -1142.069)" fill="url(#linear-gradient-15)"/>
              <path id="Trazado_20410" data-name="Trazado 20410" d="M2934.671,1192.987s1.633-2.45,2.45-1.633-.817,6.125-2.45,6.125S2934.671,1192.987,2934.671,1192.987Z" transform="translate(-2918.549 -1176.416)" fill="url(#linear-gradient-16)"/>
              <path id="Trazado_20411" data-name="Trazado 20411" d="M2841.225,1193.506s-2.042-2.858-2.858-2.042,1.225,6.125,2.858,6.125Z" transform="translate(-2837.353 -1176.527)" fill="url(#linear-gradient-17)"/>
              <path id="Trazado_20412" data-name="Trazado 20412" d="M2853.054,1105.8a7.6,7.6,0,0,0,.4-3.576c-.211-1.813-1.186-5.176-2.535-6.525.384.384-3.277,1.932-3.842,1.877,1.1-.9,2.47-1.922,2.52-3.486a11.068,11.068,0,0,1-4.339,1.435c-3.773.665-7.828.526-10.73,3.381a5.589,5.589,0,0,0-1.724,4.754c.227,1.256,2.1,2.58.946,3.735-.813.817,1.651,2.3,2.051,4.621a4.086,4.086,0,0,0,.106.5c-.035-1.185-.491-2.459-.462-3.611.059-2.364,3.624-2.531,5.367-2.687,2.321-.208,4.849-.188,6.857-1.544.816-.551,1.334,3.9,1.37,4.122a12.365,12.365,0,0,1,.229,3.909h.562c.163-1.5.013-2.941,1.118-4.034a11.354,11.354,0,0,0,1.49-1.684A5.907,5.907,0,0,0,2853.054,1105.8Z" transform="translate(-2832.741 -1094.093)" fill="#20287a"/>
            </g>
            <path id="Trazado_20413" data-name="Trazado 20413" d="M2819.979,1266.64a25.044,25.044,0,0,1-1,4.591c-.539,1.631-.143,3.9-.11,5.619.045,2.394,1.906,5.013,1.5,7.367-1.042-2.928-4.222-5.205-5.85-7.938-1.59-2.67-2.726-4.825-.908-7.346C2814.731,1267.369,2820,1266.494,2819.979,1266.64Z" transform="translate(-2794.663 -1240.377)" fill="#20287a"/>
            <path id="Trazado_20414" data-name="Trazado 20414" d="M2915.3,1278.344c.225,4.985-.753,6-1.545,11.034,1.065-3.4,3.463-5.191,5.351-8.226,1.861-2.991,2.464-6.719-.583-8.713-.208-.136-3.155-1.5-3.141-1.236C2915.419,1271.931,2915.2,1276.184,2915.3,1278.344Z" transform="translate(-2880.368 -1244.231)" fill="#20287a"/>
          </g>
        </g>
      </g>
    </g>
    <g id="Grupo_22410" data-name="Grupo 22410" transform="translate(513.798 567.901)">
      <circle id="Elipse_1222" data-name="Elipse 1222" cx="21.354" cy="21.354" r="21.354" transform="translate(7.841 7.841)" fill="url(#linear-gradient-18)"/>
      <circle id="Elipse_1223" data-name="Elipse 1223" cx="20.644" cy="20.644" r="20.644" transform="translate(0 29.195) rotate(-45)" fill="url(#linear-gradient-19)"/>
      <path id="Trazado_20415" data-name="Trazado 20415" d="M921.509,1382.493h-.01a.2.2,0,0,1-.185-.205,19.365,19.365,0,0,1,.28-2.418.2.2,0,0,1,.385.069,18.977,18.977,0,0,0-.274,2.369A.2.2,0,0,1,921.509,1382.493Z" transform="translate(-911.344 -1354.114)" fill="#fff" opacity="0.7"/>
      <path id="Trazado_20416" data-name="Trazado 20416" d="M934.7,1287.7a.2.2,0,0,1-.174-.283,19.172,19.172,0,0,1,17.2-10.589,19.425,19.425,0,0,1,3.473.313.2.2,0,1,1-.07.384,19.049,19.049,0,0,0-3.4-.306,18.783,18.783,0,0,0-16.849,10.374A.2.2,0,0,1,934.7,1287.7Z" transform="translate(-922.532 -1266.882)" fill="#fff" opacity="0.7"/>
      <circle id="Elipse_1224" data-name="Elipse 1224" cx="17.473" cy="17.473" r="17.473" transform="translate(4.935 29.645) rotate(-45)" fill="#fff" opacity="0.78"/>
      <path id="Trazado_20417" data-name="Trazado 20417" d="M1026.1,1334.746c0,2.959-2.4,6.153-5.357,6.153s-5.357-3.194-5.357-6.153a5.366,5.366,0,0,1,10.714,0Z" transform="translate(-991.105 -1311.704)" fill="url(#linear-gradient-20)"/>
      <path id="Trazado_20418" data-name="Trazado 20418" d="M986.232,1424.286h13.077a3.165,3.165,0,0,0,3.015-2.2l.7-2.2a3.162,3.162,0,0,0-1.91-3.935c-5.322-1.946-10.825-1.7-16.462.179a3.152,3.152,0,0,0-2.02,3.821l.542,2A3.165,3.165,0,0,0,986.232,1424.286Z" transform="translate(-963.242 -1383.701)" fill="url(#linear-gradient-21)"/>
    </g>
    <g id="Grupo_22411" data-name="Grupo 22411" transform="translate(550.497 535.352)">
      <circle id="Elipse_1225" data-name="Elipse 1225" cx="21.354" cy="21.354" r="21.354" transform="translate(7.841 7.841)" fill="url(#linear-gradient-22)"/>
      <circle id="Elipse_1226" data-name="Elipse 1226" cx="20.644" cy="20.644" r="20.644" transform="translate(0 29.195) rotate(-45)" fill="url(#linear-gradient-23)"/>
      <path id="Trazado_20419" data-name="Trazado 20419" d="M1174.764,1164.4h-.01a.2.2,0,0,1-.185-.205,19.373,19.373,0,0,1,.28-2.418.2.2,0,1,1,.385.069,18.981,18.981,0,0,0-.274,2.369A.2.2,0,0,1,1174.764,1164.4Z" transform="translate(-1164.599 -1136.025)" fill="#fff" opacity="0.7"/>
      <path id="Trazado_20420" data-name="Trazado 20420" d="M1187.959,1069.608a.2.2,0,0,1-.174-.284,19.172,19.172,0,0,1,17.2-10.589,19.446,19.446,0,0,1,3.473.313.2.2,0,1,1-.07.384,19.049,19.049,0,0,0-3.4-.306,18.783,18.783,0,0,0-16.849,10.374A.2.2,0,0,1,1187.959,1069.608Z" transform="translate(-1175.787 -1048.793)" fill="#fff" opacity="0.7"/>
      <circle id="Elipse_1227" data-name="Elipse 1227" cx="17.473" cy="17.473" r="17.473" transform="translate(4.935 29.645) rotate(-45)" fill="#fff" opacity="0.78"/>
      <path id="Trazado_20421" data-name="Trazado 20421" d="M1279.354,1116.658c0,2.958-2.4,6.152-5.357,6.152s-5.357-3.194-5.357-6.152a5.366,5.366,0,0,1,10.714,0Z" transform="translate(-1244.359 -1093.615)" fill="url(#linear-gradient-24)"/>
      <path id="Trazado_20422" data-name="Trazado 20422" d="M1239.486,1206.2h13.077a3.165,3.165,0,0,0,3.015-2.2l.7-2.2a3.162,3.162,0,0,0-1.91-3.935c-5.322-1.946-10.825-1.7-16.462.18a3.152,3.152,0,0,0-2.02,3.821l.542,2A3.165,3.165,0,0,0,1239.486,1206.2Z" transform="translate(-1216.497 -1165.612)" fill="url(#linear-gradient-25)"/>
    </g>
    <g id="Grupo_22412" data-name="Grupo 22412" transform="translate(566.013 591.6)">
      <circle id="Elipse_1228" data-name="Elipse 1228" cx="21.354" cy="21.354" r="21.354" transform="translate(0 0)" fill="url(#linear-gradient-26)"/>
      <circle id="Elipse_1229" data-name="Elipse 1229" cx="20.644" cy="20.644" r="20.644" transform="translate(0.71 0.71)" fill="url(#linear-gradient-27)"/>
      <path id="Trazado_20423" data-name="Trazado 20423" d="M1226.536,1489.018h-.01a.2.2,0,0,1-.185-.205,19.374,19.374,0,0,1,.28-2.418.2.2,0,0,1,.385.069,19.009,19.009,0,0,0-.274,2.369A.2.2,0,0,1,1226.536,1489.018Z" transform="translate(-1224.212 -1468.48)" fill="#fff" opacity="0.7"/>
      <path id="Trazado_20424" data-name="Trazado 20424" d="M1239.731,1394.222a.2.2,0,0,1-.174-.283,19.172,19.172,0,0,1,17.2-10.589,19.448,19.448,0,0,1,3.473.313.2.2,0,1,1-.07.384,19.047,19.047,0,0,0-3.4-.306,18.783,18.783,0,0,0-16.849,10.374A.2.2,0,0,1,1239.731,1394.222Z" transform="translate(-1235.4 -1381.248)" fill="#fff" opacity="0.7"/>
      <circle id="Elipse_1230" data-name="Elipse 1230" cx="17.473" cy="17.473" r="17.473" transform="translate(4.331 4.331)" fill="#fff" opacity="0.78"/>
      <path id="Trazado_20425" data-name="Trazado 20425" d="M1331.127,1441.271c0,2.959-2.4,6.153-5.357,6.153s-5.357-3.194-5.357-6.153a5.366,5.366,0,0,1,10.714,0Z" transform="translate(-1303.973 -1426.07)" fill="url(#linear-gradient-28)"/>
      <path id="Trazado_20426" data-name="Trazado 20426" d="M1291.259,1530.812h13.077a3.165,3.165,0,0,0,3.015-2.2l.7-2.2a3.162,3.162,0,0,0-1.91-3.935c-5.322-1.946-10.825-1.7-16.462.179a3.152,3.152,0,0,0-2.02,3.821l.542,2A3.165,3.165,0,0,0,1291.259,1530.812Z" transform="translate(-1276.11 -1498.067)" fill="url(#linear-gradient-29)"/>
    </g>
    <g id="Grupo_22416" data-name="Grupo 22416" transform="translate(553.515 582.727)">
      <path id="Trazado_20427" data-name="Trazado 20427" d="M1367.984,1504.324s-5.9,2.87-6.984,6.166c-.87,2.645-7.393,2.986-8.038,8.188a5.969,5.969,0,0,1-5,5.247c-6.662,1.021-16.93,4.481-18.572,16.048-1.254,8.829,3.247,12.177,7.971,13.336a6.691,6.691,0,0,1,5.073,7.728c-.673,3.36.331,7.243,6.151,10.315,13.043,6.882,26.068-16.3,26.068-16.3l2.669-40.486Z" transform="translate(-1299.552 -1479.383)" fill="#20287a"/>
      <path id="Trazado_20428" data-name="Trazado 20428" d="M1733.021,1441.234s-26.042,41.191-57.009,49.147c0,0,6.034,17.186,10.691,19.153,0,0,38.1-31.788,47.888-62.446Z" transform="translate(-1593.618 -1425.891)" fill="url(#linear-gradient-30)"/>
      <path id="Trazado_20429" data-name="Trazado 20429" d="M1149.236,3158.2l-.844,6.938a2.866,2.866,0,0,1-2.514,2.508,44.369,44.369,0,0,1-9.286.146,2.455,2.455,0,0,1-2.061-3.183c.851-2.679,2.409-6.7,4.654-9.065h7.7A2.371,2.371,0,0,1,1149.236,3158.2Z" transform="translate(-1134.415 -2879.399)" fill="#20287a"/>
      <path id="Trazado_20430" data-name="Trazado 20430" d="M1545.33,2638.734l1.3,7.642s-4.35,44.067-5.124,61.694a13.811,13.811,0,0,0,2.044,7.85l7.565,12.285-19.226-11.345-.383-2.346,3.147-4.327-4.122-49.366a15.147,15.147,0,0,1,1.724-8.377l3.977-7.471Z" transform="translate(-1470.224 -2441.214)" fill="url(#linear-gradient-31)"/>
      <path id="Trazado_20431" data-name="Trazado 20431" d="M1549.674,3136.884h-6.135a3.694,3.694,0,0,1-2.932-1.437c-1.912-2.485-5.875-7.334-7.77-7.46-2.551-.17-2.224,8.9-2.224,8.9h-1.43l-1.811-11.269a6.67,6.67,0,0,1,3.5-6.972s.583,4.312,3.745,6.219,12.866,8.738,12.866,8.738a8.772,8.772,0,0,1,2.494.066A1.623,1.623,0,0,1,1549.674,3136.884Z" transform="translate(-1467.518 -2848.114)" fill="#20287a"/>
      <path id="Trazado_20432" data-name="Trazado 20432" d="M1198.21,2644.893s-25.487,48.345-29.538,59.383a106.018,106.018,0,0,0-5.525,21.118c-.085,1.363-1.78,2.669-6.451,2.669-2.411,0-3.591-.967-4.17-1.9a2.723,2.723,0,0,1-.1-2.638c1.474-2.984,6.153-12.519,7.885-16.843,2.069-5.163,6.519-28.562,8.959-36.7s5.2-16.961,15.827-25.09C1185.1,2644.893,1192.391,2637.747,1198.21,2644.893Z" transform="translate(-1149.437 -2443.744)" fill="url(#linear-gradient-32)"/>
      <path id="Trazado_20433" data-name="Trazado 20433" d="M1504.664,1817c6.574-27.858-10.08-43.614-10.08-43.614,10.509-10.087,29.656-14.678,29.656-14.678s18.27,13.357,16.1,23.813c-1.271,6.128-12.843,36.7-12.843,36.7S1516.8,1824.291,1504.664,1817Z" transform="translate(-1439.791 -1695.069)" fill="#d64626"/>
      <path id="Trazado_20434" data-name="Trazado 20434" d="M1378.938,2155.672c2.676-8.061,14.576-13.792,14.576-13.792,12.136,7.289,22.836,2.224,22.836,2.224s2.4,9.173.744,17.7-12.048,63.307-12.048,63.307c-16.373,3.318-41.556-3.338-41.556-3.338C1373.919,2203.254,1376.262,2163.732,1378.938,2155.672Z" transform="translate(-1328.641 -2019.947)" fill="#2a94ee"/>
      <path id="Trazado_20435" data-name="Trazado 20435" d="M1580.754,1624.939l-5.345,24.009c-.512,2.115,1.416,1.769,3.554,1.366,3.5-.66,8.014-2.02,9.523-4.744a2.585,2.585,0,0,0,.274-.9l2.3-16.649a2.991,2.991,0,0,0-1.751-3.143l-4.431-1.965A2.991,2.991,0,0,0,1580.754,1624.939Z" transform="translate(-1508.25 -1579.708)" fill="url(#linear-gradient-33)"/>
      <g id="Grupo_22413" data-name="Grupo 22413" transform="translate(61.92 14.089)">
        <path id="Trazado_20436" data-name="Trazado 20436" d="M1600.6,1489.063s5.69,3.852,8.136,13.661-1.528,13.328-5.6,13.113-9.979-1.475-15.1-8.513S1593.143,1484.356,1600.6,1489.063Z" transform="translate(-1579.778 -1479.807)" fill="url(#linear-gradient-34)"/>
        <path id="Trazado_20437" data-name="Trazado 20437" d="M1554.853,1456.551s-2.085-14.056,9.585-11.906l2.36,2.457s5.712-6.433-.609-11.3-15.094-3.618-19.947,5.235-6.615,15.074-2.547,20.575,7.128.783,7.128.783-1.866-4.761-.318-6.8,3.545,1.188,3.545,1.188Z" transform="translate(-1541.433 -1432.99)" fill="#20287a"/>
        <path id="Trazado_20438" data-name="Trazado 20438" d="M1585.49,1564.918s-1.03-7.232-4.723-5.164,1.331,6.755,3.346,8.351Z" transform="translate(-1573.665 -1540.154)" fill="url(#linear-gradient-35)"/>
      </g>
      <g id="Grupo_22414" data-name="Grupo 22414" transform="translate(135.137 0)">
        <path id="Trazado_20439" data-name="Trazado 20439" d="M2026.8,1364.2c.079.85-3.081,1.437-4.086-2.185.276-1.573.767-8.459,1.973-9.529,6.422-5.7,17.874-12.109,17.874-12.109a2.343,2.343,0,0,1-.4,3.243l-5.717,3.858c.6,1.975,1.467,3.721,1.565,5.976a6.692,6.692,0,0,1-1.69,4.675c-1.138,1.3-2.669,2.978-4.05,4.253A6.609,6.609,0,0,1,2026.8,1364.2Z" transform="translate(-2022.709 -1340.378)" fill="url(#linear-gradient-36)"/>
        <path id="Trazado_20440" data-name="Trazado 20440" d="M2049.245,1412.956l-.874-.359c.116-.283,2.859-6.949,4.186-8.336a2.008,2.008,0,0,0,.725-1.34.953.953,0,0,0-.293-.588l-4.625,2.474-2.043,3.2-.8-.509,2.175-3.407,5.418-2.9.245.2a2.053,2.053,0,0,1,.864,1.472,2.809,2.809,0,0,1-.985,2.052C2052.241,1405.959,2050.017,1411.073,2049.245,1412.956Z" transform="translate(-2042.053 -1391.94)" fill="url(#linear-gradient-37)"/>
      </g>
      <g id="Grupo_22415" data-name="Grupo 22415" transform="translate(68.8 93.732)">
        <path id="Trazado_20441" data-name="Trazado 20441" d="M1588.688,2214.641c.036,0,.073,0,.11,0l47.752-.052a2.115,2.115,0,1,0,0-4.229l-47.752.052a2.114,2.114,0,0,0-.105,4.227Z" transform="translate(-1586.658 -2171.743)" fill="url(#linear-gradient-38)"/>
        <path id="Trazado_20442" data-name="Trazado 20442" d="M1834.472,1956.509H1794.7a7.586,7.586,0,0,0-6.855,4.3l-18.385,38.572h49.421a4.606,4.606,0,0,0,4.284-2.883l14.256-35.693A3.146,3.146,0,0,0,1834.472,1956.509Z" transform="translate(-1741.654 -1956.509)" fill="#20287a"/>
        <ellipse id="Elipse_1231" data-name="Elipse 1231" cx="5.044" cy="3.13" rx="5.044" ry="3.13" transform="matrix(0.313, -0.95, 0.95, 0.313, 63.232, 24.538)" fill="#91b3fa"/>
      </g>
      <path id="Trazado_20443" data-name="Trazado 20443" d="M1428.5,1855.567c-6.515,6.575-14.782,35.717-10.681,40.585,3.611,5.667,15.907,13.38,27.616,13.391h17.275c-7.259-7.713-12.257-9.669-18.21-4.276-4.723-2.018-10.848-9.836-14.936-13.327a4.359,4.359,0,0,1-.91-5.526c3.248-5.5,7.32-11.15,8.615-16.625C1437.547,1863.373,1432.8,1856.03,1428.5,1855.567Z" transform="translate(-1373.775 -1777.191)" fill="url(#linear-gradient-39)"/>
    </g>
    <g id="Grupo_22417" data-name="Grupo 22417" transform="translate(673.403 713.185)">
      <path id="Trazado_20444" data-name="Trazado 20444" d="M1953.855,2358.2a1.713,1.713,0,0,1-1.2-.59c-4.429-5.118-36.862-45.336-.858-87.034,34.179-39.585,50.359-48.4,50.96-70.195a2.544,2.544,0,0,1,4.733-1.216c9.675,16.384,25.74,55.106-15.586,84.421-45.587,32.338-39.3,63.557-36.322,72.339a1.719,1.719,0,0,1-1.731,2.274Z" transform="translate(-1935.012 -2197.917)" fill="#7d97f4"/>
      <path id="Trazado_20445" data-name="Trazado 20445" d="M2075.607,2955.059a2.477,2.477,0,0,1-2.27-1.91c-1.694-7.29-6.566-34.641,13.19-43.477,21.748-9.727,41.359,9.734,56.565-7.8a1.25,1.25,0,0,1,2.194.931c-.823,8.621-5.854,28.825-34.538,34.971-30.7,6.578-33.924,10.4-32.966,14.766a2.086,2.086,0,0,1-2.175,2.513Z" transform="translate(-2050.781 -2794.411)" fill="#7d97f4"/>
      <path id="Trazado_20446" data-name="Trazado 20446" d="M2033.755,2356.039a31.894,31.894,0,0,1-1.138,4.716,46.686,46.686,0,0,1-1.682,4.524,57.523,57.523,0,0,1-4.545,8.526,67.65,67.65,0,0,1-12.743,14.515,88.206,88.206,0,0,1-7.678,5.839,73.555,73.555,0,0,0-7.276,5.708,80.955,80.955,0,0,0-12.3,13.813,69,69,0,0,0-12.7,34.34,64.766,64.766,0,0,0,1.286,18.487,76.64,76.64,0,0,0,6.249,17.619.606.606,0,0,1-1.072.567,72.563,72.563,0,0,1-7.208-17.706,63.118,63.118,0,0,1-1.986-19.136,66.05,66.05,0,0,1,3.782-18.937,74.973,74.973,0,0,1,8.828-17.187,80.842,80.842,0,0,1,12.763-14.5,77.105,77.105,0,0,1,7.6-6.01,88.658,88.658,0,0,0,7.454-5.555,74.451,74.451,0,0,0,12.681-13.441,65.083,65.083,0,0,0,4.948-7.855,49.1,49.1,0,0,0,3.643-8.535l.012-.038a.553.553,0,0,1,1.077.246Z" transform="translate(-1965.43 -2331.441)" fill="#91b3fa"/>
      <path id="Trazado_20447" data-name="Trazado 20447" d="M2084.983,2982.419a1.963,1.963,0,0,0,0-.774l-.081-.759-.132-1.518q-.111-1.519-.161-3.042c-.062-2.03-.042-4.065.078-6.1a45.507,45.507,0,0,1,2.2-12.023,21.581,21.581,0,0,1,6.827-10.231,16.709,16.709,0,0,1,5.608-2.816,21.255,21.255,0,0,1,6.193-.783c8.145.329,16.177,1.282,24.207,1.943,4,.292,8.045.517,11.886-.306a17.664,17.664,0,0,0,2.789-.862,14.965,14.965,0,0,0,2.56-1.383,18.745,18.745,0,0,0,4.216-4.081l0,0a.493.493,0,0,1,.785.6,19.778,19.778,0,0,1-4.369,4.406,16.142,16.142,0,0,1-2.732,1.551,18.857,18.857,0,0,1-2.975.99c-4.088.917-8.223.709-12.263.462-4.052-.269-8.068-.715-12.089-1.059s-8.063-.669-12.042-.835a19.859,19.859,0,0,0-5.8.677,15.358,15.358,0,0,0-5.184,2.545,20.4,20.4,0,0,0-6.595,9.552,44.537,44.537,0,0,0-2.358,11.717c-.155,2-.212,4.011-.187,6.02q.02,1.507.1,3.013l.1,1.5.066.75a1.636,1.636,0,0,0,.173.731.458.458,0,1,1-.833.122Z" transform="translate(-2061.821 -2826.677)" fill="#91b3fa"/>
    </g>
  </g>
</svg>
