<svg id="_025-checklist" data-name="025-checklist" xmlns="http://www.w3.org/2000/svg" width="137.594" height="160" viewBox="0 0 137.594 160">
  <g id="Grupo_55844" data-name="Grupo 55844" transform="translate(0)">
    <path id="Trazado_27394" data-name="Trazado 27394" d="M216.809,250.795H176.636a2.344,2.344,0,0,0,0,4.688h40.173a2.344,2.344,0,1,0,0-4.688Z" transform="translate(-131.029 -172.422)" fill="#20287a"/>
    <path id="Trazado_27395" data-name="Trazado 27395" d="M216.809,288.96H176.636a2.344,2.344,0,0,0,0,4.688h40.173a2.344,2.344,0,1,0,0-4.688Z" transform="translate(-131.029 -198.66)" fill="#20287a"/>
    <path id="Trazado_27396" data-name="Trazado 27396" d="M128.213,235.874h-8.967a2.344,2.344,0,0,0-2.344,2.344v8.967a2.344,2.344,0,0,0,2.344,2.344h8.967a2.344,2.344,0,0,0,2.344-2.344v-8.967A2.344,2.344,0,0,0,128.213,235.874Zm-2.344,8.967h-4.28v-4.28h4.28Z" transform="translate(-91.573 -162.163)" fill="#20287a"/>
    <path id="Trazado_27397" data-name="Trazado 27397" d="M128.213,312.777h-8.967a2.344,2.344,0,0,0-2.344,2.344v8.967a2.344,2.344,0,0,0,2.344,2.344h8.967a2.344,2.344,0,0,0,2.344-2.344v-8.967A2.344,2.344,0,0,0,128.213,312.777Zm-2.344,8.967h-4.28v-4.28h4.28Z" transform="translate(-91.573 -215.034)" fill="#20287a"/>
    <path id="Trazado_27398" data-name="Trazado 27398" d="M128.213,389.68h-8.967a2.344,2.344,0,0,0-2.344,2.344v8.967a2.344,2.344,0,0,0,2.344,2.344h8.967a2.344,2.344,0,0,0,2.344-2.344v-8.967A2.344,2.344,0,0,0,128.213,389.68Zm-2.344,8.967h-4.28v-4.28h4.28Z" transform="translate(-91.573 -267.905)" fill="#20287a"/>
    <path id="Trazado_27399" data-name="Trazado 27399" d="M171.1,134.219a2.344,2.344,0,0,0,2.344-2.344V102.822a3.91,3.91,0,0,0-3.906-3.906H149.3V23.858a3.91,3.91,0,0,0-3.906-3.906H123.1V18.377a3.91,3.91,0,0,0-3.906-3.906H108.647a16.159,16.159,0,0,0-32.142,0H65.96a3.91,3.91,0,0,0-3.906,3.906v1.575h-22.3a3.91,3.91,0,0,0-3.906,3.906V156.094A3.91,3.91,0,0,0,39.756,160H169.538a3.911,3.911,0,0,0,3.906-3.906V142.813a2.344,2.344,0,0,0-4.688,0v12.5H117.047V103.6h16.07v9.165a3.285,3.285,0,0,0,3.281,3.281h13.008a3.285,3.285,0,0,0,3.281-3.281V103.6h16.07v28.272A2.344,2.344,0,0,0,171.1,134.219ZM92.576,4.688a11.489,11.489,0,0,1,11.347,9.783H81.23A11.489,11.489,0,0,1,92.576,4.688ZM112.36,155.313H40.538V24.64h6.81V144.523a3.285,3.285,0,0,0,3.281,3.281H112.36Zm23.1-93.281a2.344,2.344,0,0,0-2.344,2.344V98.916H116.266a3.909,3.909,0,0,0-3.856,3.311H81.457a2.344,2.344,0,0,0,0,4.688h30.9v7.239h-30.9a2.344,2.344,0,0,0,0,4.688h30.9v7.239h-30.9a2.344,2.344,0,0,0,0,4.688h30.9v12.35H52.035V24.64H62.054v5.913a3.91,3.91,0,0,0,3.906,3.906H79.334a2.344,2.344,0,0,0,0-4.688H66.741V19.158h51.671V29.771H90.272a2.344,2.344,0,0,0,0,4.688h28.921a3.91,3.91,0,0,0,3.906-3.906V24.64h10.019v28.8a2.344,2.344,0,1,0,4.687,0V24.64h6.81V98.916h-6.81V64.375a2.344,2.344,0,0,0-2.344-2.344ZM148,111.362H137.8V103.6H148Z" transform="translate(-35.85)" fill="#20287a"/>
    <path id="Trazado_27400" data-name="Trazado 27400" d="M365.078,460.043H351.444a2.344,2.344,0,1,0,0,4.687h13.634a2.344,2.344,0,0,0,0-4.687Z" transform="translate(-251.209 -316.28)" fill="#20287a"/>
    <path id="Trazado_27401" data-name="Trazado 27401" d="M365.078,430.989H351.444a2.344,2.344,0,1,0,0,4.687h13.634a2.344,2.344,0,0,0,0-4.687Z" transform="translate(-251.209 -296.305)" fill="#20287a"/>
    <path id="Trazado_27402" data-name="Trazado 27402" d="M180.531,159.752A16.747,16.747,0,1,0,163.784,143,16.766,16.766,0,0,0,180.531,159.752Zm0-28.806a12.059,12.059,0,1,1-12.059,12.059A12.073,12.073,0,0,1,180.531,130.946Z" transform="translate(-123.805 -86.802)" fill="#20287a"/>
    <path id="Trazado_27403" data-name="Trazado 27403" d="M195.325,173.049a2.344,2.344,0,0,0,3.315,0l7.425-7.425a2.344,2.344,0,1,0-3.315-3.314l-5.767,5.768-3.938-3.937a2.344,2.344,0,0,0-3.315,3.314Z" transform="translate(-141.171 -111.116)" fill="#20287a"/>
  </g>
</svg>
