<svg xmlns="http://www.w3.org/2000/svg" width="90" height="90" viewBox="0 0 90 90">
  <g id="Grupo_55855" data-name="Grupo 55855" transform="translate(-231 -4398)">
    <circle id="Elipse_1806" data-name="Elipse 1806" cx="45" cy="45" r="45" transform="translate(231 4398)" fill="#2a94ee"/>
    <g id="_022-retailer" data-name="022-retailer" transform="translate(250 4421)">
      <g id="Grupo_55841" data-name="Grupo 55841" transform="translate(0 0)">
        <path id="Trazado_27360" data-name="Trazado 27360" d="M315.607,149.436v-1.09a.766.766,0,0,0-1.532,0v1.09a.766.766,0,1,0,1.532,0Z" transform="translate(-281.995 -136.93)" fill="#fff"/>
        <path id="Trazado_27361" data-name="Trazado 27361" d="M368.691,150.2a.766.766,0,0,0,.766-.766v-1.09a.766.766,0,0,0-1.532,0v1.09A.766.766,0,0,0,368.691,150.2Z" transform="translate(-330.344 -136.93)" fill="#fff"/>
        <path id="Trazado_27362" data-name="Trazado 27362" d="M326.444,197.527a.766.766,0,0,0-1.083-1.083,2.116,2.116,0,0,1-2.99,0,.766.766,0,1,0-1.083,1.083,3.65,3.65,0,0,0,5.156,0Z" transform="translate(-288.269 -180.601)" fill="#fff"/>
        <path id="Trazado_27363" data-name="Trazado 27363" d="M338.919,163.232h.873a.766.766,0,0,0,0-1.532h-.107v-.785a.766.766,0,0,0-1.532,0v1.551A.766.766,0,0,0,338.919,163.232Z" transform="translate(-303.613 -148.215)" fill="#fff"/>
        <path id="Trazado_27364" data-name="Trazado 27364" d="M160.4,95.249h-2.687a.766.766,0,0,0,0,1.532H160.4a.766.766,0,0,0,0-1.532Z" transform="translate(-140.921 -89.944)" fill="#fff"/>
        <path id="Trazado_27365" data-name="Trazado 27365" d="M152.766,397.479a.766.766,0,0,0,.766-.766v-.447a.766.766,0,1,0-1.532,0v.447A.766.766,0,0,0,152.766,397.479Z" transform="translate(-136.474 -359.527)" fill="#fff"/>
        <path id="Trazado_27366" data-name="Trazado 27366" d="M171.766,397.479a.766.766,0,0,0,.766-.766v-.447a.766.766,0,1,0-1.532,0v.447A.766.766,0,0,0,171.766,397.479Z" transform="translate(-153.534 -359.527)" fill="#fff"/>
        <path id="Trazado_27367" data-name="Trazado 27367" d="M190.766,397.479a.766.766,0,0,0,.766-.766v-.447a.766.766,0,1,0-1.532,0v.447A.766.766,0,0,0,190.766,397.479Z" transform="translate(-170.593 -359.527)" fill="#fff"/>
        <path id="Trazado_27368" data-name="Trazado 27368" d="M209.766,397.479a.766.766,0,0,0,.766-.766v-.447a.766.766,0,1,0-1.532,0v.447A.766.766,0,0,0,209.766,397.479Z" transform="translate(-187.652 -359.527)" fill="#fff"/>
        <path id="Trazado_27369" data-name="Trazado 27369" d="M418.4,379.624h-2.687a.766.766,0,1,0,0,1.532H418.4a.766.766,0,1,0,0-1.532Z" transform="translate(-372.568 -345.272)" fill="#fff"/>
        <path id="Trazado_27370" data-name="Trazado 27370" d="M326.7,396.305h2.568a.766.766,0,0,0,0-1.532H326.7a.766.766,0,0,0,0,1.532Z" transform="translate(-292.638 -358.874)" fill="#fff"/>
        <path id="Trazado_27371" data-name="Trazado 27371" d="M51.02,82.166h-.2V79.95a.766.766,0,1,0-1.532,0v2.215H41.419v-4.5A1.074,1.074,0,0,0,40.346,76.6H39.7v-2.7h2.558v1.685a1.074,1.074,0,0,0,1.072,1.072h2.32a1.074,1.074,0,0,0,1.072-1.072V73.892h2.558v2.483a.766.766,0,1,0,1.532,0V73.432a1.074,1.074,0,0,0-1.072-1.073H48.364V68.135a3.323,3.323,0,0,0-3.32-3.32H40.281l-1.045-1.2A5.294,5.294,0,0,0,42.411,60.2h.183a2.869,2.869,0,0,0,2.866-2.866v-.782a2.857,2.857,0,0,0-.89-2.073V50.166A4.879,4.879,0,0,0,39.7,45.292H36.746a4.447,4.447,0,0,0-2.859-1.038H27.9a1.278,1.278,0,0,0-1.277,1.277v8.953a2.857,2.857,0,0,0-.89,2.073v.782A2.869,2.869,0,0,0,28.6,60.2h.183a5.294,5.294,0,0,0,3.175,3.412l-1.045,1.2H22.006V63.1a.766.766,0,0,0-1.532,0v1.974a1.278,1.278,0,0,0,1.277,1.277h6.394v6.727h-.868A1.278,1.278,0,0,0,26,74.351v7.814h-.618V70.581a1.79,1.79,0,0,0-1.787-1.787h-4.8a.767.767,0,0,1-.766-.766V58.511h2.446v1.011a.766.766,0,1,0,1.532,0V55.958h1.384a1.074,1.074,0,0,0,1.072-1.072v-10.5a1.074,1.074,0,0,0-1.072-1.072h-10.5a1.074,1.074,0,0,0-1.072,1.072v10.5a1.074,1.074,0,0,0,1.072,1.072h2.067v.255A2.3,2.3,0,0,0,16.5,58.381v9.646a2.3,2.3,0,0,0,2.3,2.3h4.8a.256.256,0,0,1,.255.255v6.375h-.664V74.328a1.074,1.074,0,0,0-1.072-1.072H16.087a1.064,1.064,0,0,0-.46.105V67.712a1.074,1.074,0,0,0-1.072-1.072H3.013a1.074,1.074,0,0,0-1.072,1.072V74.76a1.074,1.074,0,0,0,1.072,1.073H6.537v1.124H3.217a1.278,1.278,0,0,0-1.277,1.277v3.933H1.277A1.278,1.278,0,0,0,0,83.442v2.043a1.278,1.278,0,0,0,1.277,1.277h9.244a.766.766,0,0,0,0-1.532H1.532V83.7H50.765V85.23H14.1a.766.766,0,0,0,0,1.532H51.02A1.278,1.278,0,0,0,52.3,85.485V83.442A1.278,1.278,0,0,0,51.02,82.166Zm-5.826-7.048h-1.4V73.892h1.4Zm-2.146-8.77h2a1.79,1.79,0,0,1,1.787,1.788V72.36H43.048Zm-25.607-21.5h1.4v1.226h-1.4Zm-4.09,9.58v-9.58h2.558V46.53A1.074,1.074,0,0,0,16.981,47.6H19.3a1.074,1.074,0,0,0,1.072-1.072V44.845h2.558v9.58Zm3.14,1.787v-.255h3.984v1.021H17.257A.767.767,0,0,1,16.491,56.213Zm.056,18.575h5.107v2.168H16.547Zm-1.532.94v1.229H11.031V75.833h3.524A1.064,1.064,0,0,0,15.015,75.728ZM3.473,74.3V68.172H14.1V74.3H11.031V72.207a1.074,1.074,0,0,0-1.072-1.072H7.61a1.074,1.074,0,0,0-1.072,1.072V74.3ZM9.5,72.666v4.29H8.069v-4.29Zm14.351,9.5H3.473V78.488H23.85ZM43.927,56.557v.782a1.334,1.334,0,0,1-1.294,1.332V55.225A1.334,1.334,0,0,1,43.927,56.557ZM39.7,46.824a3.345,3.345,0,0,1,3.341,3.341v3.56a2.883,2.883,0,0,0-.4-.033v-.586A2.812,2.812,0,0,0,39.825,50.3h-1.47V48.722a4.44,4.44,0,0,0-.424-1.9ZM28.56,58.671a1.334,1.334,0,0,1-1.294-1.332v-.782a1.334,1.334,0,0,1,1.294-1.332Zm0-5.565v.586a2.869,2.869,0,0,0-.4.033V45.786h5.731a2.939,2.939,0,0,1,2.935,2.935V50.3H31.369A2.812,2.812,0,0,0,28.56,53.106Zm1.532,5.586V53.106a1.278,1.278,0,0,1,1.277-1.277h8.456A1.278,1.278,0,0,1,41.1,53.106v5.586a3.741,3.741,0,0,1-3.737,3.737H33.829A3.742,3.742,0,0,1,30.092,58.692Zm3.648,6.592a.054.054,0,0,1-.016-.038V63.959l.105,0h3.535l.105,0v1.286a.054.054,0,0,1-.016.038L35.6,67.173Zm.191,2.379-1.9,1.428V65.868l.212-.243a1.576,1.576,0,0,0,.408.733Zm4.616-1.305a1.577,1.577,0,0,0,.408-.733l.212.243v3.222l-1.9-1.428Zm-8.869-.011h.817V70.01a1.072,1.072,0,0,0,1.716.858l2.831-2.123a1.067,1.067,0,0,0,1.111,0l2.831,2.123A1.073,1.073,0,0,0,40.7,70.01V66.347h.817V72.36H39.244a1.073,1.073,0,0,0-1.01.715H29.677Zm-.414,11.321v4.5H27.532V74.607h.613v.562a.766.766,0,1,0,1.532,0v-.562h8.494V76.6H30.336A1.074,1.074,0,0,0,29.264,77.668Zm10.623,4.5H30.8V78.128h9.091Z" transform="translate(0 -43.313)" fill="#fff"/>
      </g>
    </g>
  </g>
</svg>
