<svg id="_010-stock" data-name="010-stock" xmlns="http://www.w3.org/2000/svg" width="143.207" height="150" viewBox="0 0 143.207 150">
  <g id="Grupo_55830" data-name="Grupo 55830" transform="translate(0)">
    <path id="Trazado_27285" data-name="Trazado 27285" d="M82.061,221.5H74.355a2.2,2.2,0,0,0,0,4.395h7.706a2.2,2.2,0,1,0,0-4.395Z" transform="translate(-54.414 -156.607)" fill="#20287a"/>
    <path id="Trazado_27286" data-name="Trazado 27286" d="M183.149,225.895h7.706a2.2,2.2,0,1,0,0-4.395h-7.706a2.2,2.2,0,1,0,0,4.395Z" transform="translate(-131.335 -156.607)" fill="#20287a"/>
    <path id="Trazado_27287" data-name="Trazado 27287" d="M291.943,225.895h7.706a2.2,2.2,0,0,0,0-4.395h-7.706a2.2,2.2,0,0,0,0,4.395Z" transform="translate(-208.256 -156.607)" fill="#20287a"/>
    <path id="Trazado_27288" data-name="Trazado 27288" d="M400.737,225.895h7.706a2.2,2.2,0,1,0,0-4.395h-7.706a2.2,2.2,0,0,0,0,4.395Z" transform="translate(-285.177 -156.607)" fill="#20287a"/>
    <path id="Trazado_27289" data-name="Trazado 27289" d="M82.061,378.5H74.355a2.2,2.2,0,0,0,0,4.395h7.706a2.2,2.2,0,1,0,0-4.395Z" transform="translate(-54.414 -267.611)" fill="#20287a"/>
    <path id="Trazado_27290" data-name="Trazado 27290" d="M190.854,378.5h-7.706a2.2,2.2,0,1,0,0,4.395h7.706a2.2,2.2,0,1,0,0-4.395Z" transform="translate(-131.334 -267.611)" fill="#20287a"/>
    <path id="Trazado_27291" data-name="Trazado 27291" d="M400.737,382.895h7.706a2.2,2.2,0,1,0,0-4.395h-7.706a2.2,2.2,0,0,0,0,4.395Z" transform="translate(-285.177 -267.611)" fill="#20287a"/>
    <path id="Trazado_27292" data-name="Trazado 27292" d="M190.854,57.5h-7.706a2.2,2.2,0,1,0,0,4.395h7.706a2.2,2.2,0,1,0,0-4.395Z" transform="translate(-131.334 -40.654)" fill="#20287a"/>
    <path id="Trazado_27293" data-name="Trazado 27293" d="M299.648,57.5h-7.706a2.2,2.2,0,1,0,0,4.395h7.706a2.2,2.2,0,1,0,0-4.395Z" transform="translate(-208.255 -40.654)" fill="#20287a"/>
    <path id="Trazado_27294" data-name="Trazado 27294" d="M408.443,57.5h-7.705a2.2,2.2,0,0,0,0,4.395h7.706a2.2,2.2,0,1,0,0-4.395Z" transform="translate(-285.177 -40.654)" fill="#20287a"/>
    <path id="Trazado_27295" data-name="Trazado 27295" d="M151.724,0H52.788a3.666,3.666,0,0,0-3.662,3.662V28.348H23.371V3.076A3.08,3.08,0,0,0,20.3,0H14.669a3.08,3.08,0,0,0-3.076,3.076V146.924A3.08,3.08,0,0,0,14.669,150h5.626a3.08,3.08,0,0,0,3.076-3.076v-12.73H143.022v12.73A3.08,3.08,0,0,0,146.1,150h5.626a3.08,3.08,0,0,0,3.076-3.076V3.076A3.079,3.079,0,0,0,151.724,0ZM18.976,145.605H15.988V4.395h2.989ZM129,4.395h4.017v5.713H129Zm-31.873,0h4.017v5.713H97.125Zm-11.731,0H92.73v7.324A2.786,2.786,0,0,0,95.514,14.5h7.239a2.786,2.786,0,0,0,2.783-2.783V4.395h7.337V28.348H85.394Zm-20.142,0h4.017v5.713H65.252Zm-11.731,0h7.337v7.324A2.786,2.786,0,0,0,63.64,14.5H70.88a2.786,2.786,0,0,0,2.783-2.783V4.395H81V28.348H53.521ZM23.371,52.405h5.613v7.36a2.786,2.786,0,0,0,2.783,2.783h7.239a2.786,2.786,0,0,0,2.783-2.783v-7.36h7.337V76.359H23.371Zm10.008,5.749V52.405H37.4v5.749ZM23.371,98.462h5.613v7.3a2.786,2.786,0,0,0,2.783,2.783h7.239a2.786,2.786,0,0,0,2.783-2.783v-7.3h7.337v23.954H23.371Zm10.008,5.688V98.462H37.4v5.688ZM143.022,129.8H23.371V126.81H143.022V129.8Zm0-7.384H117.267V98.462H124.6v7.3a2.786,2.786,0,0,0,2.783,2.783h7.239a2.786,2.786,0,0,0,2.783-2.783v-7.3h5.613ZM129,104.15V98.462h4.017v5.688Zm14.024-20.408h-19.4a2.2,2.2,0,0,0,0,4.395h19.4v5.93H116.535a3.666,3.666,0,0,0-3.662,3.662v24.686H85.394V116.6a2.2,2.2,0,1,0-4.395,0v5.814H53.521V98.462h7.337v7.3a2.786,2.786,0,0,0,2.783,2.783H70.88a2.786,2.786,0,0,0,2.783-2.783v-7.3H81v7.886a2.2,2.2,0,0,0,4.395,0V97.73a3.666,3.666,0,0,0-3.662-3.662H23.371v-5.93h90a2.2,2.2,0,0,0,0-4.395h-90V80.754H143.022v2.989ZM65.252,104.15V98.462h4.017v5.688Zm-1.611-41.6H70.88a2.786,2.786,0,0,0,2.783-2.783v-7.36H81V76.359H53.521V52.405h7.337v7.36a2.786,2.786,0,0,0,2.783,2.783Zm1.611-4.395V52.405h4.017v5.749Zm30.262,4.395h7.239a2.786,2.786,0,0,0,2.783-2.783v-7.36h7.337V76.359H85.394V52.405H92.73v7.36a2.786,2.786,0,0,0,2.783,2.783Zm1.611-4.395V52.405h4.017v5.749Zm45.9,18.2H117.267V52.405H124.6v7.36a2.786,2.786,0,0,0,2.783,2.783h7.239a2.786,2.786,0,0,0,2.783-2.783v-7.36h5.613ZM129,58.154V52.405h4.017v5.749Zm14.024-22.422H52.142a2.2,2.2,0,0,0,0,4.395h90.88v7.885H23.371V40.126H41.888a2.2,2.2,0,1,0,0-4.395H23.371V32.743H143.022v2.989Zm0-7.384H117.267V4.395H124.6v7.324a2.786,2.786,0,0,0,2.783,2.783h7.239a2.786,2.786,0,0,0,2.783-2.783V4.395h5.613Zm7.384,117.257h-2.989V4.395h2.989Z" transform="translate(-11.593)" fill="#20287a"/>
  </g>
</svg>
