<svg xmlns="http://www.w3.org/2000/svg" width="80" height="80" viewBox="0 0 80 80">
  <g id="Grupo_22463" data-name="Grupo 22463" transform="translate(-643 -2470)">
    <circle id="Base" cx="40" cy="40" r="40" transform="translate(643 2470)" fill="#fff"/>
    <g id="_023-startup" data-name="023-startup" transform="translate(654.32 2481.322)">
      <path id="Trazado_20562" data-name="Trazado 20562" d="M274.615,218.042a1.121,1.121,0,1,0,1.585,0A1.122,1.122,0,0,0,274.615,218.042Zm0,0" transform="translate(-243.56 -193.325)"/>
      <path id="Trazado_20563" data-name="Trazado 20563" d="M119.533,16.019a43.422,43.422,0,0,0,3.418-14.878A1.121,1.121,0,0,0,121.83,0h-.021a43.407,43.407,0,0,0-14.99,3.467,30.715,30.715,0,0,0-9.5,6.321c-1.5,1.5-2.985,3.145-4.415,4.886-8-1.378-10.959,3.1-14.085,7.839a36.947,36.947,0,0,1-4.623,6.03,1.12,1.12,0,0,0,.919,1.905l7.707-.877-.98,1.641a1.12,1.12,0,0,0-.109.9c.091.294.192.588.3.877L78.42,36.609a1.121,1.121,0,0,0-.17,1.365A19.273,19.273,0,0,0,84.976,44.7a1.12,1.12,0,0,0,1.365-.17l3.616-3.617c.29.111.583.213.878.3a1.12,1.12,0,0,0,.9-.109l1.641-.98L92.5,47.834a1.12,1.12,0,0,0,1.905.919,33.645,33.645,0,0,1,5.616-4.228c4.751-3.082,9.658-6.265,8.253-14.48,1.742-1.43,3.384-2.913,4.887-4.415a30.794,30.794,0,0,0,6.369-9.611Zm-1.992-1.041a14.581,14.581,0,0,1-9.568-9.568,42.646,42.646,0,0,1,12.664-3.1,42.5,42.5,0,0,1-3.1,12.664ZM80.691,23.746c2.85-4.317,4.982-7.547,10.6-7.031A117.423,117.423,0,0,0,84.282,27.15l-6.517.741C78.88,26.49,79.823,25.061,80.691,23.746Zm4.7,18.568a17,17,0,0,1-4.753-4.753l2.436-2.436a13.678,13.678,0,0,0,4.753,4.753Zm13.415.33c-1.25.811-2.526,1.639-3.749,2.581l.746-6.557a117.527,117.527,0,0,0,10.431-7C106.747,37.492,103.2,39.8,98.8,42.644Zm-7.776-3.723a11.5,11.5,0,0,1-7-7c4.334-7.261,8.589-14.264,14.876-20.55a27.46,27.46,0,0,1,7.022-5.009,16.813,16.813,0,0,0,10.661,10.661,27.46,27.46,0,0,1-5.009,7.022c-6.275,6.275-13.3,10.55-20.55,14.876Zm0,0" transform="translate(-65.594 0.001)"/>
      <path id="Trazado_20564" data-name="Trazado 20564" d="M208.652,246.328l-4.753,4.753a1.12,1.12,0,0,0,1.585,1.585l4.753-4.754a1.12,1.12,0,0,0-1.585-1.584Zm0,0" transform="translate(-180.766 -218.442)"/>
      <path id="Trazado_20565" data-name="Trazado 20565" d="M308.182,126.479a4.481,4.481,0,1,0,6.337,0A4.486,4.486,0,0,0,308.182,126.479Zm4.753,4.753a2.241,2.241,0,1,1,0-3.169A2.244,2.244,0,0,1,312.935,131.232Zm0,0" transform="translate(-272.495 -111.147)"/>
      <path id="Trazado_20566" data-name="Trazado 20566" d="M7.29,379.97c-.708.708-.316.335-7.138,11.943a1.12,1.12,0,0,0,1.532,1.532c11.631-6.835,11.234-6.43,11.943-7.138a4.481,4.481,0,1,0-6.338-6.337Zm4.753,1.584a2.245,2.245,0,0,1,0,3.169c-.357.357.084.012-7.811,4.642,4.586-7.819,4.282-7.451,4.641-7.81a2.245,2.245,0,0,1,3.169,0Zm0,0" transform="translate(0 -336.241)"/>
    </g>
  </g>
</svg>
