<svg xmlns="http://www.w3.org/2000/svg" width="720" height="480" viewBox="0 0 720 480">
  <g id="Grupo_56805" data-name="Grupo 56805" transform="translate(-323 -16106)">
    <rect id="Rectángulo_5006" data-name="Rectángulo 5006" width="720" height="480" transform="translate(323 16106)" fill="#f6f6f6"/>
    <g id="Grupo_56638" data-name="Grupo 56638" transform="translate(-1704.043 18651.063)">
      <g id="Grupo_56637" data-name="Grupo 56637">
        <path id="Trazado_28859" data-name="Trazado 28859" d="M2489.694-2165.243a173.546,173.546,0,0,0,70.364-127.333l-27.405,16.889-24.734-20.589a121.207,121.207,0,0,1-44.568,85.4l-12.984-22.575-2.877,32.955-3.255,32.544,29.8,13.429,29.975,13.976Z" fill="#d64626" fill-rule="evenodd"/>
        <path id="Trazado_28860" data-name="Trazado 28860" d="M2559.442-2324.024a173.428,173.428,0,0,0-75.092-124.627l.96,32.168-30.215,11.133a121.139,121.139,0,0,1,51.659,81.326l-26.035-.068,27.1,18.978,26.549,19.081,26.55-19.081,27.1-18.978Z" fill="#d64626" fill-rule="evenodd"/>
        <path id="Trazado_28861" data-name="Trazado 28861" d="M2456.808-2463.861a173.387,173.387,0,0,0-145.455,2.741l28.33,15.279-5.481,31.687a121.313,121.313,0,0,1,96.262-4.076l-13.052,22.506,29.975-13.976,29.8-13.429-3.255-32.544-2.877-32.955Z" fill="#d64626" fill-rule="evenodd"/>
        <path id="Trazado_28862" data-name="Trazado 28862" d="M2284.427-2444.882a173.331,173.331,0,0,0-70.364,127.367l27.371-16.923,24.734,20.589a121.245,121.245,0,0,1,44.6-85.4l12.949,22.575,2.878-32.955,3.289-32.544-29.838-13.429-29.975-13.977Z" fill="#d64626" fill-rule="evenodd"/>
        <path id="Trazado_28863" data-name="Trazado 28863" d="M2214.645-2286.1a173.465,173.465,0,0,0,75.092,124.626l-.925-32.167,30.18-11.133a121.266,121.266,0,0,1-51.659-81.292l26.035.034-27.1-18.978-26.55-19.081-26.549,19.081-27.1,18.978Z" fill="#d64626" fill-rule="evenodd"/>
        <path id="Trazado_28864" data-name="Trazado 28864" d="M2317.279-2146.264A173.384,173.384,0,0,0,2462.734-2149l-28.3-15.244,5.447-31.722a121.316,121.316,0,0,1-96.262,4.076l13.086-22.506-30.009,13.976L2296.9-2187l3.255,32.544,2.912,32.955Z" fill="#d64626" fill-rule="evenodd"/>
      </g>
      <path id="Trazado_32392" data-name="Trazado 32392" d="M-44.79-14.219v9.365a4.8,4.8,0,0,1-1.46,3.691A5.629,5.629,0,0,1-50.239.2a5.692,5.692,0,0,1-3.955-1.318,4.713,4.713,0,0,1-1.494-3.623v-9.473h2.93v9.385A2.709,2.709,0,0,0-52.09-2.8a2.568,2.568,0,0,0,1.851.64q2.471,0,2.51-2.6v-9.463Zm7.939,11.3a.909.909,0,0,0-.513-.815,5.824,5.824,0,0,0-1.646-.532q-3.77-.791-3.77-3.2a2.9,2.9,0,0,1,1.167-2.349,4.708,4.708,0,0,1,3.052-.942,5.067,5.067,0,0,1,3.218.947,2.985,2.985,0,0,1,1.206,2.461h-2.822a1.366,1.366,0,0,0-.391-1,1.653,1.653,0,0,0-1.221-.4,1.689,1.689,0,0,0-1.1.322,1.017,1.017,0,0,0-.391.82.87.87,0,0,0,.444.757,4.571,4.571,0,0,0,1.5.5,12.244,12.244,0,0,1,1.777.474,2.92,2.92,0,0,1,2.236,2.842A2.756,2.756,0,0,1-35.347-.7,5.35,5.35,0,0,1-38.55.2a5.588,5.588,0,0,1-2.358-.474,3.957,3.957,0,0,1-1.616-1.3,3.018,3.018,0,0,1-.586-1.782h2.676a1.473,1.473,0,0,0,.557,1.152,2.208,2.208,0,0,0,1.387.4,2.044,2.044,0,0,0,1.226-.308A.957.957,0,0,0-36.851-2.92Zm10.889,1.846A3.539,3.539,0,0,1-28.853.2a3.338,3.338,0,0,1-2.593-.977,4.169,4.169,0,0,1-.913-2.861v-6.924h2.822v6.834q0,1.652,1.5,1.652a2.038,2.038,0,0,0,1.973-1v-7.489h2.832V0h-2.656ZM-14.976,0a3.134,3.134,0,0,1-.283-.947A3.415,3.415,0,0,1-17.925.2,3.752,3.752,0,0,1-20.5-.7a2.89,2.89,0,0,1-1.021-2.266,2.986,2.986,0,0,1,1.245-2.578,6.144,6.144,0,0,1,3.6-.908h1.3v-.605a1.741,1.741,0,0,0-.376-1.172,1.479,1.479,0,0,0-1.187-.439,1.682,1.682,0,0,0-1.118.342,1.161,1.161,0,0,0-.405.938h-2.822a2.835,2.835,0,0,1,.566-1.7,3.744,3.744,0,0,1,1.6-1.226,5.837,5.837,0,0,1,2.324-.444,4.611,4.611,0,0,1,3.1.981,3.433,3.433,0,0,1,1.147,2.759v4.58a5.052,5.052,0,0,0,.42,2.275V0ZM-17.31-1.963a2.431,2.431,0,0,0,1.152-.278,1.828,1.828,0,0,0,.781-.747V-4.8h-1.055q-2.119,0-2.256,1.465l-.01.166a1.13,1.13,0,0,0,.371.869A1.441,1.441,0,0,0-17.31-1.963ZM-4.438-7.92A7.667,7.667,0,0,0-5.454-8a2.067,2.067,0,0,0-2.1,1.084V0h-2.822V-10.566H-7.71l.078,1.26a2.615,2.615,0,0,1,2.354-1.455,2.957,2.957,0,0,1,.879.127ZM-.1,0H-2.935V-10.566H-.1Zm-3-13.3a1.39,1.39,0,0,1,.425-1.045,1.6,1.6,0,0,1,1.157-.41,1.6,1.6,0,0,1,1.152.41A1.382,1.382,0,0,1,.063-13.3a1.386,1.386,0,0,1-.435,1.055,1.6,1.6,0,0,1-1.147.41,1.6,1.6,0,0,1-1.147-.41A1.386,1.386,0,0,1-3.1-13.3Zm4.883,7.92a6.266,6.266,0,0,1,.605-2.8,4.432,4.432,0,0,1,1.743-1.9,5.086,5.086,0,0,1,2.642-.674,4.812,4.812,0,0,1,3.491,1.309A5.252,5.252,0,0,1,11.772-5.9l.02.723a5.523,5.523,0,0,1-1.357,3.9A4.718,4.718,0,0,1,6.792.2,4.742,4.742,0,0,1,3.145-1.27,5.62,5.62,0,0,1,1.782-5.254Zm2.822.2a3.95,3.95,0,0,0,.566,2.3,1.868,1.868,0,0,0,1.621.8,1.873,1.873,0,0,0,1.6-.787A4.322,4.322,0,0,0,8.97-5.386a3.91,3.91,0,0,0-.576-2.289,1.873,1.873,0,0,0-1.621-.812,1.842,1.842,0,0,0-1.6.807A4.395,4.395,0,0,0,4.6-5.181ZM19.194,0V-8.5H17.622v-2.07h1.572v-.488a3.963,3.963,0,0,1,1.226-3.071,4.931,4.931,0,0,1,3.4-1.079,11.289,11.289,0,0,1,3.2.576l-.41,2.334a12.5,12.5,0,0,0-1.484-.366A7.293,7.293,0,0,0,24-12.744q-1.973,0-1.973,1.748v.43h2.08V-8.5h-2.08V0Zm9.15,0H25.513V-10.566h2.832Zm4.932-10.566.088,1.221A3.689,3.689,0,0,1,36.4-10.762a3.066,3.066,0,0,1,2.5.986,4.6,4.6,0,0,1,.84,2.949V0H36.919V-6.773a1.838,1.838,0,0,0-.391-1.307,1.746,1.746,0,0,0-1.3-.406,1.941,1.941,0,0,0-1.787,1.018V0H30.62V-10.566ZM48,0a3.134,3.134,0,0,1-.283-.947A3.415,3.415,0,0,1,45.054.2,3.752,3.752,0,0,1,42.48-.7,2.89,2.89,0,0,1,41.46-2.969a2.986,2.986,0,0,1,1.245-2.578,6.144,6.144,0,0,1,3.6-.908h1.3v-.605a1.741,1.741,0,0,0-.376-1.172,1.479,1.479,0,0,0-1.187-.439,1.682,1.682,0,0,0-1.118.342,1.161,1.161,0,0,0-.405.938H41.694a2.835,2.835,0,0,1,.566-1.7,3.744,3.744,0,0,1,1.6-1.226,5.837,5.837,0,0,1,2.324-.444,4.611,4.611,0,0,1,3.1.981,3.433,3.433,0,0,1,1.147,2.759v4.58a5.052,5.052,0,0,0,.42,2.275V0ZM45.669-1.963a2.431,2.431,0,0,0,1.152-.278,1.828,1.828,0,0,0,.781-.747V-4.8H46.548q-2.119,0-2.256,1.465l-.01.166a1.13,1.13,0,0,0,.371.869A1.441,1.441,0,0,0,45.669-1.963ZM55.581,0H52.749V-15h2.832Z" transform="translate(2387.044 -2096.85)" fill="#97181a"/>
      <path id="Trazado_32390" data-name="Trazado 32390" d="M-44.479-2.824h7.465V0h-10.98V-17.062h3.516Zm8.73-3.633a7.52,7.52,0,0,1,.727-3.363,5.319,5.319,0,0,1,2.092-2.285,6.1,6.1,0,0,1,3.17-.809,5.774,5.774,0,0,1,4.189,1.57A6.3,6.3,0,0,1-23.76-7.078l.023.867a6.627,6.627,0,0,1-1.629,4.682A5.662,5.662,0,0,1-29.736.234a5.69,5.69,0,0,1-4.377-1.758A6.744,6.744,0,0,1-35.748-6.3Zm3.387.24a4.74,4.74,0,0,0,.68,2.764,2.242,2.242,0,0,0,1.945.957,2.247,2.247,0,0,0,1.922-.945,5.186,5.186,0,0,0,.691-3.022,4.692,4.692,0,0,0-.691-2.746,2.248,2.248,0,0,0-1.945-.974,2.211,2.211,0,0,0-1.922.968A5.274,5.274,0,0,0-32.361-6.217Zm10.219-.217a7.431,7.431,0,0,1,1.389-4.7,4.5,4.5,0,0,1,3.744-1.781,3.946,3.946,0,0,1,3.246,1.43l.141-1.2h3.07V-.422a5.419,5.419,0,0,1-.756,2.895,4.854,4.854,0,0,1-2.127,1.875,7.477,7.477,0,0,1-3.211.645,6.953,6.953,0,0,1-2.719-.557,4.825,4.825,0,0,1-2-1.436l1.5-2.062A3.967,3.967,0,0,0-16.8,2.355a2.9,2.9,0,0,0,2.1-.721,2.7,2.7,0,0,0,.75-2.045v-.68A3.917,3.917,0,0,1-17.033.234a4.488,4.488,0,0,1-3.7-1.787,7.429,7.429,0,0,1-1.412-4.74Zm3.387.241a4.652,4.652,0,0,0,.691,2.714,2.2,2.2,0,0,0,1.9.983,2.35,2.35,0,0,0,2.215-1.165V-9.018a2.345,2.345,0,0,0-2.191-1.165,2.211,2.211,0,0,0-1.916,1A5.244,5.244,0,0,0-18.756-6.193ZM-4.295,0H-7.682V-12.68h3.387Zm-1-17.824H-1.6l-3.246,3.633H-7.6ZM5.49-3.5a1.091,1.091,0,0,0-.615-.979A6.989,6.989,0,0,0,2.9-5.121Q-1.623-6.07-1.623-8.965a3.484,3.484,0,0,1,1.4-2.818,5.649,5.649,0,0,1,3.662-1.131A6.08,6.08,0,0,1,7.3-11.777,3.582,3.582,0,0,1,8.748-8.824H5.361a1.639,1.639,0,0,0-.469-1.2A1.984,1.984,0,0,0,3.428-10.5a2.027,2.027,0,0,0-1.324.387,1.221,1.221,0,0,0-.469.984,1.044,1.044,0,0,0,.533.908,5.485,5.485,0,0,0,1.8.6A14.693,14.693,0,0,1,6.1-7.055q2.684.984,2.684,3.41A3.307,3.307,0,0,1,7.295-.838,6.42,6.42,0,0,1,3.451.234,6.706,6.706,0,0,1,.621-.334,4.748,4.748,0,0,1-1.318-1.893a3.621,3.621,0,0,1-.7-2.139H1.189a1.768,1.768,0,0,0,.668,1.383,2.649,2.649,0,0,0,1.664.48,2.452,2.452,0,0,0,1.471-.369A1.149,1.149,0,0,0,5.49-3.5ZM15.018-15.8v3.117h2.168V-10.2H15.018v6.328a1.511,1.511,0,0,0,.27,1.008,1.354,1.354,0,0,0,1.031.3,5.4,5.4,0,0,0,1-.082V-.07a6.972,6.972,0,0,1-2.051.3q-3.562,0-3.633-3.6V-10.2H9.779V-12.68h1.852V-15.8ZM22.646,0h-3.4V-12.68h3.4Zm-3.6-15.961a1.668,1.668,0,0,1,.51-1.254,1.915,1.915,0,0,1,1.389-.492,1.919,1.919,0,0,1,1.383.492,1.658,1.658,0,0,1,.516,1.254,1.663,1.663,0,0,1-.521,1.266,1.924,1.924,0,0,1-1.377.492A1.924,1.924,0,0,1,19.57-14.7,1.663,1.663,0,0,1,19.049-15.961ZM30.709-2.5a2.221,2.221,0,0,0,1.523-.516,1.807,1.807,0,0,0,.609-1.371h3.176a4.344,4.344,0,0,1-.7,2.361A4.64,4.64,0,0,1,33.422-.357a5.923,5.923,0,0,1-2.654.592,5.5,5.5,0,0,1-4.289-1.729,6.84,6.84,0,0,1-1.57-4.775v-.223a6.762,6.762,0,0,1,1.559-4.676,5.441,5.441,0,0,1,4.277-1.746,5.333,5.333,0,0,1,3.814,1.354,4.792,4.792,0,0,1,1.459,3.6H32.842a2.327,2.327,0,0,0-.609-1.608,2.032,2.032,0,0,0-1.547-.619,2.04,2.04,0,0,0-1.787.863,5,5,0,0,0-.6,2.8v.352a5.063,5.063,0,0,0,.6,2.817A2.065,2.065,0,0,0,30.709-2.5ZM45.3,0a3.761,3.761,0,0,1-.34-1.137A4.1,4.1,0,0,1,41.76.234,4.5,4.5,0,0,1,38.672-.844a3.467,3.467,0,0,1-1.225-2.719,3.583,3.583,0,0,1,1.494-3.094,7.373,7.373,0,0,1,4.318-1.09h1.559v-.727a2.089,2.089,0,0,0-.451-1.406,1.775,1.775,0,0,0-1.424-.527A2.018,2.018,0,0,0,41.6-10a1.393,1.393,0,0,0-.486,1.125H37.729a3.4,3.4,0,0,1,.68-2.039,4.493,4.493,0,0,1,1.922-1.471,7,7,0,0,1,2.789-.533,5.534,5.534,0,0,1,3.721,1.178,4.12,4.12,0,0,1,1.377,3.311v5.5a6.062,6.062,0,0,0,.5,2.73V0ZM42.5-2.355a2.917,2.917,0,0,0,1.383-.334,2.194,2.194,0,0,0,.938-.9v-2.18H43.553q-2.543,0-2.707,1.758l-.012.2a1.356,1.356,0,0,0,.445,1.043A1.73,1.73,0,0,0,42.5-2.355ZM-34.482,28.8h-3.4V16.12h3.4Zm-3.6-15.961a1.668,1.668,0,0,1,.51-1.254,1.915,1.915,0,0,1,1.389-.492,1.919,1.919,0,0,1,1.383.492,1.658,1.658,0,0,1,.516,1.254A1.663,1.663,0,0,1-34.8,14.1a1.924,1.924,0,0,1-1.377.492,1.924,1.924,0,0,1-1.377-.492A1.663,1.663,0,0,1-38.08,12.839Zm9.5,3.281.105,1.465a4.427,4.427,0,0,1,3.645-1.7,3.679,3.679,0,0,1,3,1.184,5.522,5.522,0,0,1,1.008,3.539V28.8h-3.387V20.672a2.206,2.206,0,0,0-.469-1.568,2.1,2.1,0,0,0-1.559-.487,2.329,2.329,0,0,0-2.145,1.221V28.8h-3.387V16.12Zm15.07,8.543,2.355-8.543h3.539L-11.889,28.8h-3.234L-19.4,16.12h3.539ZM-.439,29.034A6.225,6.225,0,0,1-4.98,27.323a6.082,6.082,0,0,1-1.752-4.559v-.328a7.66,7.66,0,0,1,.738-3.416A5.418,5.418,0,0,1-3.9,16.7a5.871,5.871,0,0,1,3.088-.814,5.262,5.262,0,0,1,4.1,1.641,6.667,6.667,0,0,1,1.494,4.652v1.383H-3.3a3.146,3.146,0,0,0,.99,1.992,2.993,2.993,0,0,0,2.092.75,3.656,3.656,0,0,0,3.059-1.418l1.664,1.863a5.084,5.084,0,0,1-2.062,1.682A6.767,6.767,0,0,1-.439,29.034ZM-.826,18.616a2.116,2.116,0,0,0-1.635.683,3.535,3.535,0,0,0-.8,1.954H1.447v-.271a2.521,2.521,0,0,0-.609-1.748A2.183,2.183,0,0,0-.826,18.616Zm14.648.68A9.2,9.2,0,0,0,12.6,19.2a2.481,2.481,0,0,0-2.52,1.3v8.3H6.7V16.12H9.9l.094,1.512a3.138,3.138,0,0,1,2.824-1.746,3.549,3.549,0,0,1,1.055.152Zm8.5,6a1.091,1.091,0,0,0-.615-.979,6.989,6.989,0,0,0-1.975-.639q-4.523-.949-4.523-3.844a3.484,3.484,0,0,1,1.4-2.818,5.649,5.649,0,0,1,3.662-1.131,6.08,6.08,0,0,1,3.861,1.137,3.582,3.582,0,0,1,1.447,2.953H22.189a1.639,1.639,0,0,0-.469-1.2,1.984,1.984,0,0,0-1.465-.475,2.027,2.027,0,0,0-1.324.387,1.221,1.221,0,0,0-.469.984,1.044,1.044,0,0,0,.533.908,5.485,5.485,0,0,0,1.8.6,14.693,14.693,0,0,1,2.133.568q2.684.984,2.684,3.41a3.308,3.308,0,0,1-1.488,2.807,6.42,6.42,0,0,1-3.844,1.072,6.706,6.706,0,0,1-2.83-.568,4.748,4.748,0,0,1-1.939-1.559,3.621,3.621,0,0,1-.7-2.139h3.211a1.768,1.768,0,0,0,.668,1.383,2.649,2.649,0,0,0,1.664.48,2.452,2.452,0,0,0,1.471-.369A1.149,1.149,0,0,0,22.318,25.3Zm12.82,3.5a3.761,3.761,0,0,1-.34-1.137,4.1,4.1,0,0,1-3.2,1.371,4.5,4.5,0,0,1-3.088-1.078,3.467,3.467,0,0,1-1.225-2.719,3.583,3.583,0,0,1,1.494-3.094,7.373,7.373,0,0,1,4.318-1.09h1.559v-.727a2.089,2.089,0,0,0-.451-1.406,1.775,1.775,0,0,0-1.424-.527,2.018,2.018,0,0,0-1.342.41,1.393,1.393,0,0,0-.486,1.125H27.568a3.4,3.4,0,0,1,.68-2.039,4.493,4.493,0,0,1,1.922-1.471,7,7,0,0,1,2.789-.533,5.534,5.534,0,0,1,3.721,1.178,4.12,4.12,0,0,1,1.377,3.311v5.5a6.062,6.062,0,0,0,.5,2.73v.2Zm-2.8-2.355a2.917,2.917,0,0,0,1.383-.334,2.194,2.194,0,0,0,.938-.9v-2.18H33.393q-2.543,0-2.707,1.758l-.012.2a1.356,1.356,0,0,0,.445,1.043A1.73,1.73,0,0,0,32.338,26.445Z" transform="translate(2387.044 -2313.849)" fill="#d64626"/>
      <path id="Trazado_32393" data-name="Trazado 32393" d="M-64.78-3.525l3.223-10.693H-58.3L-63.247,0H-66.3l-4.932-14.219h3.252ZM-52.71.2A5.187,5.187,0,0,1-56.494-1.23a5.068,5.068,0,0,1-1.46-3.8V-5.3a6.383,6.383,0,0,1,.615-2.847A4.515,4.515,0,0,1-55.6-10.083a4.893,4.893,0,0,1,2.573-.679,4.385,4.385,0,0,1,3.413,1.367,5.555,5.555,0,0,1,1.245,3.877v1.152h-6.729a2.622,2.622,0,0,0,.825,1.66,2.5,2.5,0,0,0,1.743.625,3.046,3.046,0,0,0,2.549-1.182l1.387,1.553a4.237,4.237,0,0,1-1.719,1.4A5.639,5.639,0,0,1-52.71.2Zm-.322-8.682a1.764,1.764,0,0,0-1.362.569,2.946,2.946,0,0,0-.669,1.628h3.926v-.226a2.1,2.1,0,0,0-.508-1.457A1.819,1.819,0,0,0-53.032-8.486Zm8.867-2.08.088,1.221a3.689,3.689,0,0,1,3.037-1.416,3.066,3.066,0,0,1,2.5.986,4.6,4.6,0,0,1,.84,2.949V0h-2.822V-6.773a1.838,1.838,0,0,0-.391-1.307,1.746,1.746,0,0,0-1.3-.406A1.941,1.941,0,0,0-44-7.468V0h-2.822V-10.566Zm11.982-2.6v2.6h1.807V-8.5h-1.807v5.273a1.259,1.259,0,0,0,.225.84,1.128,1.128,0,0,0,.859.254,4.5,4.5,0,0,0,.83-.068V-.059A5.81,5.81,0,0,1-31.978.2Q-34.946.2-35-2.8V-8.5h-1.543v-2.07H-35v-2.6ZM-22.681,0a3.134,3.134,0,0,1-.283-.947A3.415,3.415,0,0,1-25.63.2,3.752,3.752,0,0,1-28.2-.7a2.89,2.89,0,0,1-1.021-2.266,2.986,2.986,0,0,1,1.245-2.578,6.144,6.144,0,0,1,3.6-.908h1.3v-.605a1.741,1.741,0,0,0-.376-1.172,1.479,1.479,0,0,0-1.187-.439,1.682,1.682,0,0,0-1.118.342,1.161,1.161,0,0,0-.405.938h-2.822a2.835,2.835,0,0,1,.566-1.7,3.744,3.744,0,0,1,1.6-1.226,5.837,5.837,0,0,1,2.324-.444,4.611,4.611,0,0,1,3.1.981,3.433,3.433,0,0,1,1.147,2.759v4.58a5.052,5.052,0,0,0,.42,2.275V0Zm-2.334-1.963a2.431,2.431,0,0,0,1.152-.278,1.828,1.828,0,0,0,.781-.747V-4.8h-1.055q-2.119,0-2.256,1.465l-.01.166a1.13,1.13,0,0,0,.371.869A1.441,1.441,0,0,0-25.015-1.963Zm14.561-8.6.088,1.182a3.713,3.713,0,0,1,3.037-1.377,2.818,2.818,0,0,1,2.8,1.611,3.628,3.628,0,0,1,3.174-1.611,3.152,3.152,0,0,1,2.559,1,4.6,4.6,0,0,1,.84,3.013V0H-.786V-6.754A2.02,2.02,0,0,0-1.138-8.07a1.556,1.556,0,0,0-1.24-.416A1.762,1.762,0,0,0-4.136-7.273L-4.126,0H-6.948V-6.744A2,2,0,0,0-7.31-8.075a1.571,1.571,0,0,0-1.23-.411,1.828,1.828,0,0,0-1.738,1V0H-13.1V-10.566ZM7.192,0H4.36V-10.566H7.192Zm-3-13.3a1.39,1.39,0,0,1,.425-1.045,1.6,1.6,0,0,1,1.157-.41,1.6,1.6,0,0,1,1.152.41,1.382,1.382,0,0,1,.43,1.045,1.386,1.386,0,0,1-.435,1.055,1.6,1.6,0,0,1-1.147.41,1.6,1.6,0,0,1-1.147-.41A1.386,1.386,0,0,1,4.194-13.3Zm7.92,2.734L12.2-9.346a3.689,3.689,0,0,1,3.037-1.416,3.066,3.066,0,0,1,2.5.986,4.6,4.6,0,0,1,.84,2.949V0H15.757V-6.773a1.838,1.838,0,0,0-.391-1.307,1.746,1.746,0,0,0-1.3-.406A1.941,1.941,0,0,0,12.28-7.468V0H9.458V-10.566Zm8.164,5.186a6.266,6.266,0,0,1,.605-2.8,4.432,4.432,0,0,1,1.743-1.9,5.086,5.086,0,0,1,2.642-.674A4.812,4.812,0,0,1,28.76-9.453,5.252,5.252,0,0,1,30.269-5.9l.02.723a5.523,5.523,0,0,1-1.357,3.9A4.718,4.718,0,0,1,25.288.2,4.742,4.742,0,0,1,21.641-1.27a5.62,5.62,0,0,1-1.362-3.984Zm2.822.2a3.95,3.95,0,0,0,.566,2.3,1.868,1.868,0,0,0,1.621.8,1.873,1.873,0,0,0,1.6-.787,4.322,4.322,0,0,0,.576-2.518,3.91,3.91,0,0,0-.576-2.289,1.873,1.873,0,0,0-1.621-.812,1.842,1.842,0,0,0-1.6.807A4.395,4.395,0,0,0,23.1-5.181ZM37.964-7.92A7.667,7.667,0,0,0,36.948-8a2.067,2.067,0,0,0-2.1,1.084V0H32.026V-10.566h2.666l.078,1.26a2.615,2.615,0,0,1,2.354-1.455,2.957,2.957,0,0,1,.879.127ZM42.3,0H39.468V-10.566H42.3Zm-3-13.3a1.39,1.39,0,0,1,.425-1.045,1.6,1.6,0,0,1,1.157-.41,1.6,1.6,0,0,1,1.152.41,1.382,1.382,0,0,1,.43,1.045,1.386,1.386,0,0,1-.435,1.055,1.6,1.6,0,0,1-1.147.41,1.6,1.6,0,0,1-1.147-.41A1.386,1.386,0,0,1,39.3-13.3ZM50.347-2.92a.909.909,0,0,0-.513-.815,5.824,5.824,0,0,0-1.646-.532q-3.77-.791-3.77-3.2a2.9,2.9,0,0,1,1.167-2.349,4.708,4.708,0,0,1,3.052-.942,5.067,5.067,0,0,1,3.218.947,2.985,2.985,0,0,1,1.206,2.461H50.239a1.366,1.366,0,0,0-.391-1,1.653,1.653,0,0,0-1.221-.4,1.689,1.689,0,0,0-1.1.322,1.017,1.017,0,0,0-.391.82.87.87,0,0,0,.444.757,4.571,4.571,0,0,0,1.5.5,12.244,12.244,0,0,1,1.777.474,2.92,2.92,0,0,1,2.236,2.842A2.756,2.756,0,0,1,51.851-.7a5.35,5.35,0,0,1-3.2.894,5.588,5.588,0,0,1-2.358-.474,3.957,3.957,0,0,1-1.616-1.3,3.018,3.018,0,0,1-.586-1.782h2.676a1.473,1.473,0,0,0,.557,1.152,2.208,2.208,0,0,0,1.387.4,2.044,2.044,0,0,0,1.226-.308A.957.957,0,0,0,50.347-2.92Zm7.939-10.244v2.6h1.807V-8.5H58.286v5.273a1.259,1.259,0,0,0,.225.84,1.128,1.128,0,0,0,.859.254A4.5,4.5,0,0,0,60.2-2.2V-.059A5.81,5.81,0,0,1,58.491.2q-2.969,0-3.027-3V-8.5H53.921v-2.07h1.543v-2.6ZM67.788,0A3.134,3.134,0,0,1,67.5-.947,3.415,3.415,0,0,1,64.839.2a3.752,3.752,0,0,1-2.573-.9,2.89,2.89,0,0,1-1.021-2.266A2.986,2.986,0,0,1,62.49-5.547a6.144,6.144,0,0,1,3.6-.908h1.3v-.605a1.741,1.741,0,0,0-.376-1.172,1.479,1.479,0,0,0-1.187-.439,1.682,1.682,0,0,0-1.118.342,1.161,1.161,0,0,0-.405.938H61.479a2.835,2.835,0,0,1,.566-1.7,3.744,3.744,0,0,1,1.6-1.226,5.837,5.837,0,0,1,2.324-.444,4.611,4.611,0,0,1,3.1.981A3.433,3.433,0,0,1,70.22-7.021v4.58a5.052,5.052,0,0,0,.42,2.275V0ZM65.454-1.963a2.431,2.431,0,0,0,1.152-.278,1.828,1.828,0,0,0,.781-.747V-4.8H66.333q-2.119,0-2.256,1.465l-.01.166a1.13,1.13,0,0,0,.371.869A1.441,1.441,0,0,0,65.454-1.963Z" transform="translate(2620.754 -2193.187)" fill="#97181a"/>
      <path id="Trazado_32387" data-name="Trazado 32387" d="M-51.514,0V-14.219h4.375a6.644,6.644,0,0,1,3.354.845,5.89,5.89,0,0,1,2.31,2.4,7.41,7.41,0,0,1,.83,3.54v.654a7.431,7.431,0,0,1-.815,3.525,5.84,5.84,0,0,1-2.3,2.393A6.694,6.694,0,0,1-47.109,0Zm2.93-11.846v9.492h1.416a3.181,3.181,0,0,0,2.627-1.123,5.075,5.075,0,0,0,.928-3.213v-.752a5.156,5.156,0,0,0-.9-3.286,3.171,3.171,0,0,0-2.627-1.118ZM-35.723,0h-2.832V-10.566h2.832Zm-3-13.3a1.39,1.39,0,0,1,.425-1.045,1.6,1.6,0,0,1,1.157-.41,1.6,1.6,0,0,1,1.152.41,1.382,1.382,0,0,1,.43,1.045,1.386,1.386,0,0,1-.435,1.055,1.6,1.6,0,0,1-1.147.41,1.6,1.6,0,0,1-1.147-.41A1.386,1.386,0,0,1-38.721-13.3ZM-27.676-2.92a.909.909,0,0,0-.513-.815,5.824,5.824,0,0,0-1.646-.532q-3.77-.791-3.77-3.2a2.9,2.9,0,0,1,1.167-2.349,4.708,4.708,0,0,1,3.052-.942,5.067,5.067,0,0,1,3.218.947,2.985,2.985,0,0,1,1.206,2.461h-2.822a1.366,1.366,0,0,0-.391-1,1.653,1.653,0,0,0-1.221-.4,1.689,1.689,0,0,0-1.1.322,1.017,1.017,0,0,0-.391.82.87.87,0,0,0,.444.757,4.571,4.571,0,0,0,1.5.5,12.244,12.244,0,0,1,1.777.474,2.92,2.92,0,0,1,2.236,2.842A2.756,2.756,0,0,1-26.172-.7a5.35,5.35,0,0,1-3.2.894,5.588,5.588,0,0,1-2.358-.474,3.957,3.957,0,0,1-1.616-1.3,3.018,3.018,0,0,1-.586-1.782h2.676A1.473,1.473,0,0,0-30.7-2.207a2.208,2.208,0,0,0,1.387.4,2.044,2.044,0,0,0,1.226-.308A.957.957,0,0,0-27.676-2.92Zm7.939-10.244v2.6h1.807V-8.5h-1.807v5.273a1.259,1.259,0,0,0,.225.84,1.128,1.128,0,0,0,.859.254,4.5,4.5,0,0,0,.83-.068V-.059A5.81,5.81,0,0,1-19.531.2q-2.969,0-3.027-3V-8.5H-24.1v-2.07h1.543v-2.6ZM-10.42-7.92A7.667,7.667,0,0,0-11.436-8a2.067,2.067,0,0,0-2.1,1.084V0h-2.822V-10.566h2.666l.078,1.26a2.615,2.615,0,0,1,2.354-1.455,2.957,2.957,0,0,1,.879.127ZM-6.084,0H-8.916V-10.566h2.832Zm-3-13.3a1.39,1.39,0,0,1,.425-1.045,1.6,1.6,0,0,1,1.157-.41,1.6,1.6,0,0,1,1.152.41,1.382,1.382,0,0,1,.43,1.045,1.386,1.386,0,0,1-.435,1.055,1.6,1.6,0,0,1-1.147.41,1.6,1.6,0,0,1-1.147-.41A1.386,1.386,0,0,1-9.082-13.3ZM5.762-5.186a6.4,6.4,0,0,1-1.084,3.96A3.591,3.591,0,0,1,1.65.2,3.3,3.3,0,0,1-1.094-1.123L-1.221,0H-3.76V-15H-.937v5.381a3.214,3.214,0,0,1,2.568-1.143A3.62,3.62,0,0,1,4.663-9.341a6.408,6.408,0,0,1,1.1,4ZM2.939-5.4a4.227,4.227,0,0,0-.508-2.346,1.715,1.715,0,0,0-1.514-.74A1.861,1.861,0,0,0-.937-7.379V-3.2A1.886,1.886,0,0,0,.938-2.08a1.743,1.743,0,0,0,1.8-1.352A6.993,6.993,0,0,0,2.939-5.4ZM13.828-1.074A3.539,3.539,0,0,1,10.938.2,3.338,3.338,0,0,1,8.345-.781a4.169,4.169,0,0,1-.913-2.861v-6.924h2.822v6.834q0,1.652,1.5,1.652a2.038,2.038,0,0,0,1.973-1v-7.489h2.832V0H13.906ZM21.67,0H18.838V-10.566H21.67Zm-3-13.3a1.39,1.39,0,0,1,.425-1.045,1.6,1.6,0,0,1,1.157-.41,1.6,1.6,0,0,1,1.152.41,1.382,1.382,0,0,1,.43,1.045,1.386,1.386,0,0,1-.435,1.055,1.6,1.6,0,0,1-1.147.41,1.6,1.6,0,0,1-1.147-.41A1.386,1.386,0,0,1,18.672-13.3Zm4.883,7.939A6.368,6.368,0,0,1,24.663-9.3,3.6,3.6,0,0,1,27.7-10.762a3.236,3.236,0,0,1,2.549,1.152V-15h2.832V0H30.527l-.137-1.123A3.321,3.321,0,0,1,27.676.2a3.587,3.587,0,0,1-2.993-1.47A6.573,6.573,0,0,1,23.555-5.361Zm2.822.2a4.194,4.194,0,0,0,.518,2.286,1.685,1.685,0,0,0,1.5.795,1.888,1.888,0,0,0,1.846-1.109V-7.378a1.861,1.861,0,0,0-1.826-1.109Q26.377-8.486,26.377-5.161Zm8.447-.22a6.267,6.267,0,0,1,.605-2.8,4.432,4.432,0,0,1,1.743-1.9,5.086,5.086,0,0,1,2.642-.674,4.812,4.812,0,0,1,3.491,1.309A5.252,5.252,0,0,1,44.814-5.9l.02.723a5.523,5.523,0,0,1-1.357,3.9A4.718,4.718,0,0,1,39.834.2,4.742,4.742,0,0,1,36.187-1.27a5.62,5.62,0,0,1-1.362-3.984Zm2.822.2a3.95,3.95,0,0,0,.566,2.3,1.868,1.868,0,0,0,1.621.8,1.873,1.873,0,0,0,1.6-.787,4.322,4.322,0,0,0,.576-2.518,3.91,3.91,0,0,0-.576-2.289,1.873,1.873,0,0,0-1.621-.812,1.842,1.842,0,0,0-1.6.807A4.395,4.395,0,0,0,37.646-5.181ZM52.51-7.92A7.667,7.667,0,0,0,51.494-8a2.067,2.067,0,0,0-2.1,1.084V0H46.572V-10.566h2.666l.078,1.26a2.615,2.615,0,0,1,2.354-1.455,2.957,2.957,0,0,1,.879.127Z" transform="translate(2613.04 -2387.16)" fill="#97181a"/>
      <path id="Trazado_32391" data-name="Trazado 32391" d="M-52.251-5.205h-2.334V0h-2.93V-14.219h5.283A5.972,5.972,0,0,1-48.345-13.1a3.876,3.876,0,0,1,1.367,3.174,4.374,4.374,0,0,1-.63,2.427,4.3,4.3,0,0,1-1.909,1.548L-46.44-.137V0h-3.145Zm-2.334-2.373h2.363a2.42,2.42,0,0,0,1.709-.562,2.007,2.007,0,0,0,.605-1.548,2.148,2.148,0,0,0-.571-1.582,2.374,2.374,0,0,0-1.753-.576h-2.354ZM-40.073.2A5.187,5.187,0,0,1-43.857-1.23a5.068,5.068,0,0,1-1.46-3.8V-5.3A6.383,6.383,0,0,1-44.7-8.149a4.515,4.515,0,0,1,1.743-1.934,4.893,4.893,0,0,1,2.573-.679,4.385,4.385,0,0,1,3.413,1.367,5.555,5.555,0,0,1,1.245,3.877v1.152h-6.729a2.622,2.622,0,0,0,.825,1.66,2.5,2.5,0,0,0,1.743.625,3.046,3.046,0,0,0,2.549-1.182l1.387,1.553a4.237,4.237,0,0,1-1.719,1.4A5.639,5.639,0,0,1-40.073.2ZM-40.4-8.486a1.764,1.764,0,0,0-1.362.569,2.946,2.946,0,0,0-.669,1.628H-38.5v-.226a2.1,2.1,0,0,0-.508-1.457A1.819,1.819,0,0,0-40.4-8.486ZM-29.731-2.08a1.851,1.851,0,0,0,1.27-.43,1.506,1.506,0,0,0,.508-1.143h2.646a3.62,3.62,0,0,1-.586,1.968A3.866,3.866,0,0,1-27.471-.3,4.936,4.936,0,0,1-29.683.2a4.587,4.587,0,0,1-3.574-1.44,5.7,5.7,0,0,1-1.309-3.979V-5.41a5.635,5.635,0,0,1,1.3-3.9A4.534,4.534,0,0,1-29.7-10.762a4.444,4.444,0,0,1,3.179,1.128,3.994,3.994,0,0,1,1.216,3h-2.646a1.939,1.939,0,0,0-.508-1.34,1.693,1.693,0,0,0-1.289-.515,1.7,1.7,0,0,0-1.489.719,4.166,4.166,0,0,0-.5,2.333v.293a4.219,4.219,0,0,0,.5,2.347A1.721,1.721,0,0,0-29.731-2.08Zm5.6-3.3a6.266,6.266,0,0,1,.605-2.8,4.432,4.432,0,0,1,1.743-1.9,5.086,5.086,0,0,1,2.642-.674,4.812,4.812,0,0,1,3.491,1.309A5.252,5.252,0,0,1-14.146-5.9l.02.723a5.523,5.523,0,0,1-1.357,3.9A4.718,4.718,0,0,1-19.126.2,4.742,4.742,0,0,1-22.773-1.27a5.62,5.62,0,0,1-1.362-3.984Zm2.822.2a3.95,3.95,0,0,0,.566,2.3,1.868,1.868,0,0,0,1.621.8,1.873,1.873,0,0,0,1.6-.787,4.322,4.322,0,0,0,.576-2.518,3.91,3.91,0,0,0-.576-2.289,1.873,1.873,0,0,0-1.621-.812,1.842,1.842,0,0,0-1.6.807A4.395,4.395,0,0,0-21.313-5.181ZM-9.409,0h-2.832V-15h2.832Zm7.188.2A5.187,5.187,0,0,1-6.006-1.23a5.068,5.068,0,0,1-1.46-3.8V-5.3a6.383,6.383,0,0,1,.615-2.847,4.515,4.515,0,0,1,1.743-1.934,4.893,4.893,0,0,1,2.573-.679A4.385,4.385,0,0,1,.879-9.395,5.555,5.555,0,0,1,2.124-5.518v1.152H-4.6a2.622,2.622,0,0,0,.825,1.66,2.5,2.5,0,0,0,1.743.625A3.046,3.046,0,0,0,.513-3.262L1.9-1.709A4.237,4.237,0,0,1,.181-.308,5.639,5.639,0,0,1-2.222.2Zm-.322-8.682a1.764,1.764,0,0,0-1.362.569,2.946,2.946,0,0,0-.669,1.628H-.649v-.226a2.1,2.1,0,0,0-.508-1.457A1.819,1.819,0,0,0-2.544-8.486ZM8.12-2.08a1.851,1.851,0,0,0,1.27-.43A1.506,1.506,0,0,0,9.9-3.652h2.646a3.62,3.62,0,0,1-.586,1.968A3.866,3.866,0,0,1,10.381-.3,4.936,4.936,0,0,1,8.169.2a4.587,4.587,0,0,1-3.574-1.44A5.7,5.7,0,0,1,3.286-5.225V-5.41a5.635,5.635,0,0,1,1.3-3.9,4.534,4.534,0,0,1,3.564-1.455,4.444,4.444,0,0,1,3.179,1.128,3.994,3.994,0,0,1,1.216,3H9.9a1.939,1.939,0,0,0-.508-1.34A1.693,1.693,0,0,0,8.1-8.486a1.7,1.7,0,0,0-1.489.719,4.166,4.166,0,0,0-.5,2.333v.293a4.219,4.219,0,0,0,.5,2.347A1.721,1.721,0,0,0,8.12-2.08Zm10.43,0a1.851,1.851,0,0,0,1.27-.43,1.506,1.506,0,0,0,.508-1.143h2.646a3.62,3.62,0,0,1-.586,1.968A3.866,3.866,0,0,1,20.811-.3,4.936,4.936,0,0,1,18.6.2a4.587,4.587,0,0,1-3.574-1.44,5.7,5.7,0,0,1-1.309-3.979V-5.41a5.635,5.635,0,0,1,1.3-3.9,4.534,4.534,0,0,1,3.564-1.455,4.444,4.444,0,0,1,3.179,1.128,3.994,3.994,0,0,1,1.216,3H20.327a1.939,1.939,0,0,0-.508-1.34,1.693,1.693,0,0,0-1.289-.515,1.7,1.7,0,0,0-1.489.719,4.166,4.166,0,0,0-.5,2.333v.293a4.219,4.219,0,0,0,.5,2.347A1.721,1.721,0,0,0,18.55-2.08ZM27.563,0H24.731V-10.566h2.832Zm-3-13.3a1.39,1.39,0,0,1,.425-1.045,1.6,1.6,0,0,1,1.157-.41,1.6,1.6,0,0,1,1.152.41,1.382,1.382,0,0,1,.43,1.045,1.386,1.386,0,0,1-.435,1.055,1.6,1.6,0,0,1-1.147.41A1.6,1.6,0,0,1,25-12.246,1.386,1.386,0,0,1,24.565-13.3Zm4.883,7.92a6.266,6.266,0,0,1,.605-2.8,4.432,4.432,0,0,1,1.743-1.9,5.086,5.086,0,0,1,2.642-.674A4.812,4.812,0,0,1,37.93-9.453,5.252,5.252,0,0,1,39.438-5.9l.02.723a5.523,5.523,0,0,1-1.357,3.9A4.718,4.718,0,0,1,34.458.2,4.742,4.742,0,0,1,30.811-1.27a5.62,5.62,0,0,1-1.362-3.984Zm2.822.2a3.95,3.95,0,0,0,.566,2.3,1.868,1.868,0,0,0,1.621.8,1.873,1.873,0,0,0,1.6-.787,4.322,4.322,0,0,0,.576-2.518,3.91,3.91,0,0,0-.576-2.289,1.873,1.873,0,0,0-1.621-.812,1.842,1.842,0,0,0-1.6.807A4.395,4.395,0,0,0,32.271-5.181ZM35-15h3.076l-2.705,3.027H33.071Zm8.8,4.434.088,1.221a3.689,3.689,0,0,1,3.037-1.416,3.066,3.066,0,0,1,2.5.986,4.6,4.6,0,0,1,.84,2.949V0H47.437V-6.773a1.838,1.838,0,0,0-.391-1.307,1.746,1.746,0,0,0-1.3-.406A1.941,1.941,0,0,0,43.96-7.468V0H41.138V-10.566ZM53.286,1.221h-2.1l5.234-15.439h2.1ZM-35.479,18.795h-2.334V24h-2.93V9.781h5.283A5.972,5.972,0,0,1-31.572,10.9a3.876,3.876,0,0,1,1.367,3.174,4.374,4.374,0,0,1-.63,2.427,4.3,4.3,0,0,1-1.909,1.548l3.076,5.811V24h-3.145Zm-2.334-2.373h2.363a2.42,2.42,0,0,0,1.709-.562,2.007,2.007,0,0,0,.605-1.548,2.148,2.148,0,0,0-.571-1.582,2.374,2.374,0,0,0-1.753-.576h-2.354ZM-23.3,24.2a5.187,5.187,0,0,1-3.784-1.426,5.068,5.068,0,0,1-1.46-3.8V18.7a6.383,6.383,0,0,1,.615-2.847,4.515,4.515,0,0,1,1.743-1.934,4.893,4.893,0,0,1,2.573-.679A4.385,4.385,0,0,1-20.2,14.605a5.555,5.555,0,0,1,1.245,3.877v1.152h-6.729a2.622,2.622,0,0,0,.825,1.66,2.5,2.5,0,0,0,1.743.625,3.046,3.046,0,0,0,2.549-1.182l1.387,1.553a4.237,4.237,0,0,1-1.719,1.4A5.639,5.639,0,0,1-23.3,24.2Zm-.322-8.682a1.764,1.764,0,0,0-1.362.569,2.946,2.946,0,0,0-.669,1.628h3.926v-.226a2.1,2.1,0,0,0-.508-1.457A1.819,1.819,0,0,0-23.623,15.514Zm10.664,6.406a1.851,1.851,0,0,0,1.27-.43,1.506,1.506,0,0,0,.508-1.143h2.646a3.62,3.62,0,0,1-.586,1.968A3.866,3.866,0,0,1-10.7,23.7a4.936,4.936,0,0,1-2.212.493,4.587,4.587,0,0,1-3.574-1.44,5.7,5.7,0,0,1-1.309-3.979V18.59a5.635,5.635,0,0,1,1.3-3.9,4.534,4.534,0,0,1,3.564-1.455,4.444,4.444,0,0,1,3.179,1.128,3.994,3.994,0,0,1,1.216,3h-2.646a1.939,1.939,0,0,0-.508-1.34,1.693,1.693,0,0,0-1.289-.515,1.7,1.7,0,0,0-1.489.719,4.166,4.166,0,0,0-.5,2.333v.293a4.219,4.219,0,0,0,.5,2.347A1.721,1.721,0,0,0-12.959,21.92Zm5.6-3.3a6.266,6.266,0,0,1,.605-2.8,4.432,4.432,0,0,1,1.743-1.9,5.086,5.086,0,0,1,2.642-.674,4.812,4.812,0,0,1,3.491,1.309A5.252,5.252,0,0,1,2.627,18.1l.02.723a5.523,5.523,0,0,1-1.357,3.9A4.718,4.718,0,0,1-2.354,24.2,4.742,4.742,0,0,1-6,22.73a5.62,5.62,0,0,1-1.362-3.984Zm2.822.2a3.95,3.95,0,0,0,.566,2.3,1.868,1.868,0,0,0,1.621.8,1.873,1.873,0,0,0,1.6-.787,4.322,4.322,0,0,0,.576-2.518,3.91,3.91,0,0,0-.576-2.289,1.873,1.873,0,0,0-1.621-.812,1.842,1.842,0,0,0-1.6.807A4.395,4.395,0,0,0-4.541,18.819Zm8.516-.181a6.193,6.193,0,0,1,1.157-3.916,3.75,3.75,0,0,1,3.12-1.484,3.289,3.289,0,0,1,2.705,1.191l.117-1h2.559V23.648A4.516,4.516,0,0,1,13,26.061a4.045,4.045,0,0,1-1.772,1.563,6.231,6.231,0,0,1-2.676.537A5.794,5.794,0,0,1,6.289,27.7a4.021,4.021,0,0,1-1.67-1.2l1.25-1.719a3.306,3.306,0,0,0,2.559,1.182,2.42,2.42,0,0,0,1.748-.6,2.253,2.253,0,0,0,.625-1.7v-.566a3.264,3.264,0,0,1-2.568,1.1,3.74,3.74,0,0,1-3.081-1.489,6.191,6.191,0,0,1-1.177-3.95Zm2.822.2A3.877,3.877,0,0,0,7.373,21.1a1.831,1.831,0,0,0,1.582.819,1.958,1.958,0,0,0,1.846-.971V16.485a1.954,1.954,0,0,0-1.826-.971,1.843,1.843,0,0,0-1.6.834A4.37,4.37,0,0,0,6.8,18.839ZM18.779,24H15.947V13.434h2.832Zm-3-13.3a1.39,1.39,0,0,1,.425-1.045,1.831,1.831,0,0,1,2.31,0,1.491,1.491,0,0,1,0,2.1,1.81,1.81,0,0,1-2.295,0A1.386,1.386,0,0,1,15.781,10.7Zm4.883,7.939A6.368,6.368,0,0,1,21.772,14.7,3.6,3.6,0,0,1,24.8,13.238a3.236,3.236,0,0,1,2.549,1.152V9h2.832V24H27.637L27.5,22.877A3.321,3.321,0,0,1,24.785,24.2a3.587,3.587,0,0,1-2.993-1.47A6.573,6.573,0,0,1,20.664,18.639Zm2.822.2A4.194,4.194,0,0,0,24,21.125a1.685,1.685,0,0,0,1.5.795,1.888,1.888,0,0,0,1.846-1.109V16.622a1.861,1.861,0,0,0-1.826-1.109Q23.486,15.514,23.486,18.839ZM38.5,24a3.134,3.134,0,0,1-.283-.947A3.415,3.415,0,0,1,35.547,24.2a3.752,3.752,0,0,1-2.573-.9,2.89,2.89,0,0,1-1.021-2.266A2.986,2.986,0,0,1,33.2,18.453a6.144,6.144,0,0,1,3.6-.908h1.3v-.605a1.741,1.741,0,0,0-.376-1.172,1.479,1.479,0,0,0-1.187-.439,1.682,1.682,0,0,0-1.118.342,1.161,1.161,0,0,0-.405.938H32.188a2.835,2.835,0,0,1,.566-1.7,3.744,3.744,0,0,1,1.6-1.226,5.837,5.837,0,0,1,2.324-.444,4.611,4.611,0,0,1,3.1.981,3.433,3.433,0,0,1,1.147,2.759v4.58a5.052,5.052,0,0,0,.42,2.275V24Zm-2.334-1.963a2.431,2.431,0,0,0,1.152-.278,1.828,1.828,0,0,0,.781-.747V19.2H37.041q-2.119,0-2.256,1.465l-.01.166a1.13,1.13,0,0,0,.371.869A1.441,1.441,0,0,0,36.162,22.037Z" transform="translate(2187.076 -2193.187)" fill="#97181a"/>
      <path id="Trazado_32389" data-name="Trazado 32389" d="M-30-5.205h-2.334V0h-2.93V-14.219h5.283A5.972,5.972,0,0,1-26.089-13.1a3.876,3.876,0,0,1,1.367,3.174,4.374,4.374,0,0,1-.63,2.427,4.3,4.3,0,0,1-1.909,1.548l3.076,5.811V0h-3.145Zm-2.334-2.373h2.363a2.42,2.42,0,0,0,1.709-.562,2.007,2.007,0,0,0,.605-1.548,2.148,2.148,0,0,0-.571-1.582,2.374,2.374,0,0,0-1.753-.576h-2.354ZM-17.817.2A5.187,5.187,0,0,1-21.6-1.23a5.068,5.068,0,0,1-1.46-3.8V-5.3a6.383,6.383,0,0,1,.615-2.847A4.515,4.515,0,0,1-20.7-10.083a4.893,4.893,0,0,1,2.573-.679,4.385,4.385,0,0,1,3.413,1.367,5.555,5.555,0,0,1,1.245,3.877v1.152H-20.2a2.622,2.622,0,0,0,.825,1.66,2.5,2.5,0,0,0,1.743.625,3.046,3.046,0,0,0,2.549-1.182L-13.7-1.709a4.237,4.237,0,0,1-1.719,1.4A5.639,5.639,0,0,1-17.817.2Zm-.322-8.682a1.764,1.764,0,0,0-1.362.569,2.946,2.946,0,0,0-.669,1.628h3.926v-.226a2.1,2.1,0,0,0-.508-1.457A1.819,1.819,0,0,0-18.14-8.486ZM-7.476-2.08a1.851,1.851,0,0,0,1.27-.43A1.506,1.506,0,0,0-5.7-3.652h2.646a3.62,3.62,0,0,1-.586,1.968A3.866,3.866,0,0,1-5.215-.3,4.936,4.936,0,0,1-7.427.2,4.587,4.587,0,0,1-11-1.245,5.7,5.7,0,0,1-12.31-5.225V-5.41a5.635,5.635,0,0,1,1.3-3.9,4.534,4.534,0,0,1,3.564-1.455A4.444,4.444,0,0,1-4.268-9.634a3.994,3.994,0,0,1,1.216,3H-5.7a1.939,1.939,0,0,0-.508-1.34A1.693,1.693,0,0,0-7.5-8.486a1.7,1.7,0,0,0-1.489.719,4.166,4.166,0,0,0-.5,2.333v.293a4.219,4.219,0,0,0,.5,2.347A1.721,1.721,0,0,0-7.476-2.08ZM1.538,0H-1.294V-10.566H1.538Zm-3-13.3a1.39,1.39,0,0,1,.425-1.045,1.6,1.6,0,0,1,1.157-.41,1.6,1.6,0,0,1,1.152.41A1.382,1.382,0,0,1,1.7-13.3a1.386,1.386,0,0,1-.435,1.055,1.6,1.6,0,0,1-1.147.41,1.6,1.6,0,0,1-1.147-.41A1.386,1.386,0,0,1-1.46-13.3ZM8.257-2.08a1.851,1.851,0,0,0,1.27-.43,1.506,1.506,0,0,0,.508-1.143h2.646a3.62,3.62,0,0,1-.586,1.968A3.866,3.866,0,0,1,10.518-.3,4.936,4.936,0,0,1,8.306.2a4.587,4.587,0,0,1-3.574-1.44A5.7,5.7,0,0,1,3.423-5.225V-5.41a5.635,5.635,0,0,1,1.3-3.9,4.534,4.534,0,0,1,3.564-1.455,4.444,4.444,0,0,1,3.179,1.128,3.994,3.994,0,0,1,1.216,3H10.034a1.939,1.939,0,0,0-.508-1.34,1.693,1.693,0,0,0-1.289-.515,1.7,1.7,0,0,0-1.489.719,4.166,4.166,0,0,0-.5,2.333v.293a4.219,4.219,0,0,0,.5,2.347A1.721,1.721,0,0,0,8.257-2.08ZM17.271,0H14.438V-15h2.832Zm8.447,0a3.134,3.134,0,0,1-.283-.947A3.415,3.415,0,0,1,22.769.2,3.752,3.752,0,0,1,20.2-.7a2.89,2.89,0,0,1-1.021-2.266A2.986,2.986,0,0,1,20.42-5.547a6.144,6.144,0,0,1,3.6-.908h1.3v-.605a1.741,1.741,0,0,0-.376-1.172,1.479,1.479,0,0,0-1.187-.439,1.682,1.682,0,0,0-1.118.342,1.161,1.161,0,0,0-.405.938H19.409a2.835,2.835,0,0,1,.566-1.7,3.744,3.744,0,0,1,1.6-1.226,5.837,5.837,0,0,1,2.324-.444A4.611,4.611,0,0,1,27-9.78a3.433,3.433,0,0,1,1.147,2.759v4.58a5.052,5.052,0,0,0,.42,2.275V0ZM23.384-1.963a2.431,2.431,0,0,0,1.152-.278,1.828,1.828,0,0,0,.781-.747V-4.8H24.263q-2.119,0-2.256,1.465L22-3.174a1.13,1.13,0,0,0,.371.869A1.441,1.441,0,0,0,23.384-1.963ZM36.255-7.92A7.667,7.667,0,0,0,35.239-8a2.067,2.067,0,0,0-2.1,1.084V0H30.317V-10.566h2.666l.078,1.26a2.615,2.615,0,0,1,2.354-1.455,2.957,2.957,0,0,1,.879.127Z" transform="translate(2169.073 -2387.16)" fill="#97181a"/>
      <path id="Trazado_32388" data-name="Trazado 32388" d="M-35.542,0h-2.93V-14.219h2.93Zm5.127-10.566.088,1.221a3.689,3.689,0,0,1,3.037-1.416,3.066,3.066,0,0,1,2.5.986,4.6,4.6,0,0,1,.84,2.949V0h-2.822V-6.773a1.838,1.838,0,0,0-.391-1.307,1.746,1.746,0,0,0-1.3-.406,1.941,1.941,0,0,0-1.787,1.018V0h-2.822V-10.566Zm8.164,5.205A6.368,6.368,0,0,1-21.143-9.3a3.6,3.6,0,0,1,3.032-1.465,3.236,3.236,0,0,1,2.549,1.152V-15h2.832V0h-2.549l-.137-1.123A3.321,3.321,0,0,1-18.13.2a3.587,3.587,0,0,1-2.993-1.47A6.573,6.573,0,0,1-22.251-5.361Zm2.822.2a4.194,4.194,0,0,0,.518,2.286,1.685,1.685,0,0,0,1.5.795,1.888,1.888,0,0,0,1.846-1.109V-7.378a1.861,1.861,0,0,0-1.826-1.109Q-19.429-8.486-19.429-5.161ZM-4.214-1.074A3.539,3.539,0,0,1-7.1.2,3.338,3.338,0,0,1-9.7-.781a4.169,4.169,0,0,1-.913-2.861v-6.924h2.822v6.834q0,1.652,1.5,1.652a2.038,2.038,0,0,0,1.973-1v-7.489h2.832V0H-4.136ZM6.372-2.92a.909.909,0,0,0-.513-.815,5.824,5.824,0,0,0-1.646-.532q-3.77-.791-3.77-3.2A2.9,2.9,0,0,1,1.611-9.819a4.708,4.708,0,0,1,3.052-.942,5.067,5.067,0,0,1,3.218.947A2.985,2.985,0,0,1,9.087-7.354H6.265a1.366,1.366,0,0,0-.391-1,1.653,1.653,0,0,0-1.221-.4,1.689,1.689,0,0,0-1.1.322,1.017,1.017,0,0,0-.391.82.87.87,0,0,0,.444.757,4.571,4.571,0,0,0,1.5.5,12.244,12.244,0,0,1,1.777.474A2.92,2.92,0,0,1,9.116-3.037,2.756,2.756,0,0,1,7.876-.7,5.35,5.35,0,0,1,4.673.2,5.588,5.588,0,0,1,2.314-.278,3.957,3.957,0,0,1,.7-1.577,3.018,3.018,0,0,1,.112-3.359H2.788a1.473,1.473,0,0,0,.557,1.152,2.208,2.208,0,0,0,1.387.4,2.044,2.044,0,0,0,1.226-.308A.957.957,0,0,0,6.372-2.92Zm7.939-10.244v2.6h1.807V-8.5H14.312v5.273a1.259,1.259,0,0,0,.225.84,1.128,1.128,0,0,0,.859.254,4.5,4.5,0,0,0,.83-.068V-.059A5.81,5.81,0,0,1,14.517.2q-2.969,0-3.027-3V-8.5H9.946v-2.07h1.543v-2.6ZM23.628-7.92A7.667,7.667,0,0,0,22.612-8a2.067,2.067,0,0,0-2.1,1.084V0H17.69V-10.566h2.666l.078,1.26a2.615,2.615,0,0,1,2.354-1.455,2.957,2.957,0,0,1,.879.127ZM27.964,0H25.132V-10.566h2.832Zm-3-13.3a1.39,1.39,0,0,1,.425-1.045,1.6,1.6,0,0,1,1.157-.41,1.6,1.6,0,0,1,1.152.41,1.382,1.382,0,0,1,.43,1.045,1.386,1.386,0,0,1-.435,1.055,1.6,1.6,0,0,1-1.147.41,1.6,1.6,0,0,1-1.147-.41A1.386,1.386,0,0,1,24.966-13.3ZM36.411,0a3.134,3.134,0,0,1-.283-.947A3.415,3.415,0,0,1,33.462.2a3.752,3.752,0,0,1-2.573-.9,2.89,2.89,0,0,1-1.021-2.266,2.986,2.986,0,0,1,1.245-2.578,6.144,6.144,0,0,1,3.6-.908h1.3v-.605a1.741,1.741,0,0,0-.376-1.172,1.479,1.479,0,0,0-1.187-.439,1.682,1.682,0,0,0-1.118.342,1.161,1.161,0,0,0-.405.938H30.1a2.835,2.835,0,0,1,.566-1.7,3.744,3.744,0,0,1,1.6-1.226,5.837,5.837,0,0,1,2.324-.444,4.611,4.611,0,0,1,3.1.981,3.433,3.433,0,0,1,1.147,2.759v4.58a5.052,5.052,0,0,0,.42,2.275V0ZM34.077-1.963a2.431,2.431,0,0,0,1.152-.278,1.828,1.828,0,0,0,.781-.747V-4.8H34.956Q32.837-4.8,32.7-3.34l-.01.166a1.13,1.13,0,0,0,.371.869A1.441,1.441,0,0,0,34.077-1.963Z" transform="translate(2387.044 -2501.955)" fill="#97181a"/>
    </g>
  </g>
</svg>
