<svg id="_026-process-1" data-name="026-process-1" xmlns="http://www.w3.org/2000/svg" width="200" height="200" viewBox="0 0 200 200">
  <path id="Trazado_20924" data-name="Trazado 20924" d="M200,100A100,100,0,1,1,100,0,100,100,0,0,1,200,100Zm0,0" transform="translate(0 0)" fill="#d64626"/>
  <path id="Trazado_20925" data-name="Trazado 20925" d="M8.951,58.639h2.768v62.5H2.237a100.354,100.354,0,0,1,6.714-62.5ZM82.883,164.107h22.586V74.264H89.844l-7.739,89a.781.781,0,0,0,.778.848ZM97.656.074a100.8,100.8,0,0,0-11.719.96l-7.7,60.631a.782.782,0,0,0,.775.88H97.656Zm70.1,26.436-7.426,38.985a.782.782,0,0,0,.768.928h18.587V39.632A100.5,100.5,0,0,0,167.76,26.51Zm0,0" transform="translate(0 -0.045)" fill="#97181a"/>
  <path id="Trazado_20926" data-name="Trazado 20926" d="M160.977,208.437v3.906a10.754,10.754,0,0,1-10.742,10.742H115.818l3.285,3.285a2.93,2.93,0,1,1-4.144,4.143l-8.286-8.286a2.93,2.93,0,0,1,0-4.144l8.286-8.286a2.93,2.93,0,0,1,4.144,4.143l-3.285,3.285h34.416a4.887,4.887,0,0,0,4.883-4.883v-3.906a2.93,2.93,0,0,1,5.859,0ZM90.309,60.857A2.93,2.93,0,1,0,86.166,65l3.285,3.285H63.32A10.754,10.754,0,0,0,52.578,79.029v3.906a2.93,2.93,0,0,0,5.859,0V79.029a4.887,4.887,0,0,1,4.883-4.883H89.451L86.166,77.43a2.93,2.93,0,0,0,4.143,4.144L98.6,73.287a2.931,2.931,0,0,0,0-4.143ZM37.93,161.562a2.93,2.93,0,1,0,2.93,2.93A2.93,2.93,0,0,0,37.93,161.562Zm9.766,0a2.93,2.93,0,1,0,2.93,2.93A2.93,2.93,0,0,0,47.7,161.562Zm9.766,0a2.93,2.93,0,1,0,2.93,2.93A2.93,2.93,0,0,0,57.461,161.562Zm0,0" transform="translate(-21.328 -36.562)" fill="#fc9302"/>
  <path id="Trazado_20927" data-name="Trazado 20927" d="M243.672,277.406H231.953A1.953,1.953,0,0,1,230,275.453v-87.5A1.953,1.953,0,0,1,231.953,186h11.719a1.953,1.953,0,0,1,1.953,1.953v87.5A1.953,1.953,0,0,1,243.672,277.406Zm0,0" transform="translate(-140.156 -113.344)" fill="#02c6dc"/>
  <path id="Trazado_20928" data-name="Trazado 20928" d="M337.734,277.406H261.953A1.953,1.953,0,0,1,260,275.453v-87.5A1.953,1.953,0,0,1,261.953,186h75.781a1.953,1.953,0,0,1,1.953,1.953v87.5A1.953,1.953,0,0,1,337.734,277.406Zm0,0" transform="translate(-158.438 -113.344)" fill="#84deea"/>
  <path id="Trazado_20929" data-name="Trazado 20929" d="M385.859,392.93a2.93,2.93,0,1,1-2.93-2.93A2.93,2.93,0,0,1,385.859,392.93ZM392.7,390a2.93,2.93,0,1,0,2.93,2.93A2.93,2.93,0,0,0,392.7,390Zm9.766,0a2.93,2.93,0,1,0,2.93,2.93A2.93,2.93,0,0,0,402.461,390Zm0,0" transform="translate(-231.563 -237.656)" fill="#03bdd6"/>
  <path id="Trazado_20930" data-name="Trazado 20930" d="M325.9,251.874a19.918,19.918,0,0,0-6.6,14.909v.386H301.236v-.456a20.207,20.207,0,0,0-6.75-14.97,23.547,23.547,0,1,1,31.418.131Zm0,0" transform="translate(-174.721 -128.409)" fill="#d3f1f5"/>
  <path id="Trazado_20931" data-name="Trazado 20931" d="M340.227,346.068a3.226,3.226,0,0,1-2.257,3.078v.148a8.064,8.064,0,0,1-8.064,8.064h-3.548a8.064,8.064,0,0,1-8.064-8.064v-.148a3.225,3.225,0,0,1,.967-6.3H337a3.223,3.223,0,0,1,3.226,3.224Zm0,0" transform="translate(-192.584 -208.921)" fill="#3691bb"/>
  <path id="Trazado_20932" data-name="Trazado 20932" d="M317.565,252.867a2.931,2.931,0,0,1-1.073,4l-5.075,2.93a2.929,2.929,0,0,1-2.93-5.074l5.075-2.93A2.929,2.929,0,0,1,317.565,252.867Zm-1.073-9.86-5.075-2.93a2.929,2.929,0,1,0-2.93,5.074l5.075,2.93a2.929,2.929,0,0,0,2.93-5.074Zm15.222,5.074,5.075-2.93a2.929,2.929,0,1,0-2.93-5.074l-5.075,2.93a2.929,2.929,0,0,0,2.93,5.074Zm-9.076,7.716a2.93,2.93,0,0,0-2.93,2.93v5.859a2.93,2.93,0,0,0,5.859,0v-5.859A2.93,2.93,0,0,0,322.639,255.8Zm14.151-1.071-5.075-2.93a2.929,2.929,0,0,0-2.93,5.074l5.075,2.93a2.929,2.929,0,1,0,2.93-5.074Zm-14.151-22.366a2.93,2.93,0,0,0-2.93,2.93v5.859a2.93,2.93,0,0,0,5.859,0v-5.859A2.93,2.93,0,0,0,322.639,232.359Zm0,0" transform="translate(-187.092 -141.594)" fill="#84deea"/>
  <path id="Trazado_20933" data-name="Trazado 20933" d="M286.406,14.782V60.546a1.953,1.953,0,0,1-1.953,1.953h-62.5A1.953,1.953,0,0,1,220,60.546V.988A100.808,100.808,0,0,1,234.063,0a99.534,99.534,0,0,1,52.344,14.783Zm0,0" transform="translate(-134.063 0)" fill="#0ab59e"/>
  <path id="Trazado_20934" data-name="Trazado 20934" d="M304.688,14.782V60.546a1.953,1.953,0,0,1-1.953,1.953H251.953A1.953,1.953,0,0,1,250,60.546V.029C250.78.012,251.559,0,252.344,0a99.534,99.534,0,0,1,52.344,14.783Zm0,0" transform="translate(-152.344 0)" fill="#0ed1b2"/>
  <path id="Trazado_20935" data-name="Trazado 20935" d="M310.859,132.93a2.93,2.93,0,1,1-2.93-2.93A2.93,2.93,0,0,1,310.859,132.93ZM317.7,130a2.93,2.93,0,1,0,2.93,2.93A2.93,2.93,0,0,0,317.7,130Zm9.766,0a2.93,2.93,0,1,0,2.93,2.93A2.93,2.93,0,0,0,327.461,130Zm0,0" transform="translate(-185.859 -79.219)" fill="#0ab59e"/>
  <path id="Trazado_20936" data-name="Trazado 20936" d="M291.491,20.891,255.664,56.718a1.564,1.564,0,0,1-2.211,0L237.826,41.095a.781.781,0,0,1,0-1.1l4.419-4.419a.781.781,0,0,1,1.1,0L254,46.225a.781.781,0,0,0,1.1,0l30.858-30.859a.781.781,0,0,1,1.1,0l4.42,4.42a.781.781,0,0,1,0,1.1Zm0,0" transform="translate(-144.786 -9.224)" fill="#ddf4ba"/>
  <path id="Trazado_20937" data-name="Trazado 20937" d="M212.492,107.994H188.2a1.953,1.953,0,0,1-1.953-1.953V68.246a100.125,100.125,0,0,1,26.242,39.748ZM94.453,178.306h-62.5A1.953,1.953,0,0,0,30,180.259v8.33a100.17,100.17,0,0,0,66.406,50.592V180.259a1.953,1.953,0,0,0-1.953-1.953Zm0,0" transform="translate(-18.281 -41.587)" fill="#df3d9b"/>
  <path id="Trazado_20938" data-name="Trazado 20938" d="M96.875,382.5v4.3a.781.781,0,0,1-.781.781H66.406a.781.781,0,0,1-.781-.781v-4.3a.781.781,0,0,1,.781-.781H96.094A.781.781,0,0,1,96.875,382.5Zm-.781,10.938H57.127q2.827,3.049,5.9,5.859h33.07a.781.781,0,0,0,.781-.781v-4.3a.781.781,0,0,0-.781-.781Zm0-23.437H50.781a.781.781,0,0,0-.781.781v4.3a.781.781,0,0,0,.781.781H96.094a.781.781,0,0,0,.781-.781v-4.3A.781.781,0,0,0,96.094,370Zm0,35.156H70.056a100.13,100.13,0,0,0,8.6,5.859H96.094a.781.781,0,0,0,.781-.781v-4.3a.781.781,0,0,0-.781-.781Zm0,0" transform="translate(-30.469 -225.469)" fill="#a72975"/>
  <path id="Trazado_20939" data-name="Trazado 20939" d="M78.594,141.953v62.5a1.953,1.953,0,0,1-1.953,1.953H21.953A1.953,1.953,0,0,1,20,204.453V146.5q1.4-3.312,3.021-6.5h53.62a1.953,1.953,0,0,1,1.953,1.953Zm0,0" transform="translate(-12.188 -85.313)" fill="#fded32"/>
  <path id="Trazado_20940" data-name="Trazado 20940" d="M88.828,206.406H41.953A1.953,1.953,0,0,1,40,204.453v-62.5A1.953,1.953,0,0,1,41.953,140H88.828a1.953,1.953,0,0,1,1.953,1.953v62.5A1.953,1.953,0,0,1,88.828,206.406Zm0,0" transform="translate(-24.375 -85.312)" fill="#fdf061"/>
  <path id="Trazado_20941" data-name="Trazado 20941" d="M87.344,170.781v4.3a.781.781,0,0,1-.781.781H60.781a.781.781,0,0,1-.781-.781v-4.3a.781.781,0,0,1,.781-.781H86.562A.781.781,0,0,1,87.344,170.781Zm0,0" transform="translate(-36.562 -103.594)" fill="#d6bf01"/>
  <path id="Trazado_20942" data-name="Trazado 20942" d="M81.875,222.5v4.3a.781.781,0,0,1-.781.781H35.781A.781.781,0,0,1,35,226.8v-4.3a.781.781,0,0,1,.781-.781H81.094A.781.781,0,0,1,81.875,222.5ZM71.328,233.437H45.547a.781.781,0,0,0-.781.781v4.3a.781.781,0,0,0,.781.781H71.328a.781.781,0,0,0,.781-.781v-4.3A.781.781,0,0,0,71.328,233.437ZM41.641,215.859H75.234a.781.781,0,0,0,.781-.781v-4.3a.781.781,0,0,0-.781-.781H41.641a.781.781,0,0,0-.781.781v4.3A.781.781,0,0,0,41.641,215.859Zm0,0" transform="translate(-21.328 -127.969)" fill="#e8ce00"/>
</svg>
