<svg id="_022-retailer" data-name="022-retailer" xmlns="http://www.w3.org/2000/svg" width="151.667" height="126.006" viewBox="0 0 151.667 126.006">
  <g id="Grupo_55841" data-name="Grupo 55841" transform="translate(0 0)">
    <path id="Trazado_27360" data-name="Trazado 27360" d="M318.518,152.963V149.8a2.222,2.222,0,1,0-4.443,0v3.161a2.222,2.222,0,1,0,4.443,0Z" transform="translate(-221.039 -116.694)" fill="#20287a"/>
    <path id="Trazado_27361" data-name="Trazado 27361" d="M370.147,155.184a2.222,2.222,0,0,0,2.222-2.222V149.8a2.222,2.222,0,1,0-4.443,0v3.161A2.222,2.222,0,0,0,370.147,155.184Z" transform="translate(-258.937 -116.694)" fill="#20287a"/>
    <path id="Trazado_27362" data-name="Trazado 27362" d="M336.668,200.012a2.222,2.222,0,0,0-3.142-3.142,6.138,6.138,0,0,1-8.67,0,2.222,2.222,0,1,0-3.142,3.142,10.586,10.586,0,0,0,14.954,0Z" transform="translate(-225.957 -150.925)" fill="#20287a"/>
    <path id="Trazado_27363" data-name="Trazado 27363" d="M340.375,169.091h2.532a2.222,2.222,0,1,0,0-4.443h-.31v-2.277a2.222,2.222,0,0,0-4.443,0v4.5A2.222,2.222,0,0,0,340.375,169.091Z" transform="translate(-237.984 -125.539)" fill="#20287a"/>
    <path id="Trazado_27364" data-name="Trazado 27364" d="M166.965,95.249h-7.791a2.222,2.222,0,1,0,0,4.443h7.791a2.222,2.222,0,0,0,0-4.443Z" transform="translate(-110.459 -79.864)" fill="#20287a"/>
    <path id="Trazado_27365" data-name="Trazado 27365" d="M154.222,401.239a2.222,2.222,0,0,0,2.222-2.221v-1.3a2.222,2.222,0,0,0-4.443,0v1.3A2.221,2.221,0,0,0,154.222,401.239Z" transform="translate(-106.974 -291.174)" fill="#20287a"/>
    <path id="Trazado_27366" data-name="Trazado 27366" d="M173.222,401.239a2.222,2.222,0,0,0,2.222-2.221v-1.3a2.222,2.222,0,0,0-4.443,0v1.3A2.221,2.221,0,0,0,173.222,401.239Z" transform="translate(-120.346 -291.174)" fill="#20287a"/>
    <path id="Trazado_27367" data-name="Trazado 27367" d="M192.222,401.239a2.222,2.222,0,0,0,2.222-2.221v-1.3a2.222,2.222,0,0,0-4.443,0v1.3A2.221,2.221,0,0,0,192.222,401.239Z" transform="translate(-133.717 -291.174)" fill="#20287a"/>
    <path id="Trazado_27368" data-name="Trazado 27368" d="M211.222,401.239a2.222,2.222,0,0,0,2.222-2.221v-1.3a2.222,2.222,0,0,0-4.443,0v1.3A2.221,2.221,0,0,0,211.222,401.239Z" transform="translate(-147.089 -291.174)" fill="#20287a"/>
    <path id="Trazado_27369" data-name="Trazado 27369" d="M424.965,379.624h-7.791a2.222,2.222,0,1,0,0,4.443h7.791a2.222,2.222,0,1,0,0-4.443Z" transform="translate(-292.033 -280.001)" fill="#20287a"/>
    <path id="Trazado_27370" data-name="Trazado 27370" d="M328.151,399.216H335.6a2.222,2.222,0,0,0,0-4.443h-7.448a2.222,2.222,0,0,0,0,4.443Z" transform="translate(-229.381 -290.662)" fill="#20287a"/>
    <path id="Trazado_27371" data-name="Trazado 27371" d="M147.964,155.989h-.592v-6.424a2.222,2.222,0,1,0-4.443,0v6.424H120.119V142.947a3.114,3.114,0,0,0-3.11-3.11h-1.864v-7.842h7.418v4.888a3.114,3.114,0,0,0,3.11,3.11H132.4a3.114,3.114,0,0,0,3.11-3.11v-4.888h7.418v7.2a2.222,2.222,0,1,0,4.443,0v-8.535a3.114,3.114,0,0,0-3.11-3.11h-4V115.3a9.638,9.638,0,0,0-9.627-9.627H116.819l-3.031-3.474A15.353,15.353,0,0,0,123,92.3h.53a8.32,8.32,0,0,0,8.311-8.311V81.722a8.285,8.285,0,0,0-2.582-6.013V63.186a14.15,14.15,0,0,0-14.134-14.134h-8.553a12.9,12.9,0,0,0-8.292-3.011H80.916a3.707,3.707,0,0,0-3.7,3.7V75.709a8.286,8.286,0,0,0-2.582,6.013V83.99A8.32,8.32,0,0,0,82.942,92.3h.53a15.354,15.354,0,0,0,9.209,9.9l-3.031,3.474H63.821v-4.984a2.222,2.222,0,0,0-4.443,0v5.724a3.707,3.707,0,0,0,3.7,3.7H81.624v19.51H79.107a3.707,3.707,0,0,0-3.7,3.7v22.661H73.612v-33.6a5.19,5.19,0,0,0-5.184-5.184H54.505a2.224,2.224,0,0,1-2.222-2.222v-27.6h7.094V90.32a2.222,2.222,0,0,0,4.443,0V79.983h4.015a3.114,3.114,0,0,0,3.11-3.11V46.423a3.114,3.114,0,0,0-3.11-3.11H37.385a3.114,3.114,0,0,0-3.11,3.11v30.45a3.114,3.114,0,0,0,3.11,3.11h6v.741a6.675,6.675,0,0,0,4.459,6.288v27.974a6.672,6.672,0,0,0,6.665,6.665H68.428a.742.742,0,0,1,.741.741v18.489H67.243V133.26a3.114,3.114,0,0,0-3.11-3.11H46.655a3.085,3.085,0,0,0-1.333.3v-16.38a3.114,3.114,0,0,0-3.11-3.11H8.739a3.114,3.114,0,0,0-3.11,3.11v20.439a3.114,3.114,0,0,0,3.11,3.11h10.22v3.258H9.331a3.707,3.707,0,0,0-3.7,3.7v11.4H3.7a3.707,3.707,0,0,0-3.7,3.7v5.924a3.707,3.707,0,0,0,3.7,3.7H30.511a2.222,2.222,0,1,0,0-4.443H4.443v-4.443h142.78v4.443H40.879a2.222,2.222,0,1,0,0,4.443H147.964a3.707,3.707,0,0,0,3.7-3.7v-5.924A3.707,3.707,0,0,0,147.964,155.989Zm-16.9-20.439h-4.061v-3.555h4.061Zm-6.223-25.435h5.791a5.19,5.19,0,0,1,5.184,5.184v12.253H124.844ZM50.58,47.756h4.061v3.555H50.58ZM38.718,75.54V47.756h7.418v4.888a3.114,3.114,0,0,0,3.11,3.11h6.727a3.114,3.114,0,0,0,3.11-3.11V47.756H66.5V75.54Zm9.106,5.184v-.741H59.377v2.962H50.046A2.224,2.224,0,0,1,47.824,80.724Zm.164,53.869H62.8v6.289H47.988Zm-4.443,2.726v3.563H31.992v-3.258h10.22A3.084,3.084,0,0,0,43.545,137.319ZM10.072,133.18V115.406H40.879V133.18H31.992v-6.073a3.114,3.114,0,0,0-3.11-3.11H22.069a3.114,3.114,0,0,0-3.11,3.11v6.073Zm17.477-4.74v12.441H23.4V128.44Zm41.619,27.549h-59.1V145.325h59.1Zm58.226-74.267V83.99a3.87,3.87,0,0,1-3.752,3.862V77.86A3.87,3.87,0,0,1,127.394,81.722ZM115.121,53.5a9.7,9.7,0,0,1,9.69,9.69V73.51a8.358,8.358,0,0,0-1.17-.1v-1.7a8.155,8.155,0,0,0-8.146-8.146h-4.264V59A12.878,12.878,0,0,0,110,53.5Zm-32.3,34.356a3.87,3.87,0,0,1-3.752-3.862V81.722a3.87,3.87,0,0,1,3.752-3.862Zm0-16.138v1.7a8.322,8.322,0,0,0-1.17.1V50.485H98.275A8.523,8.523,0,0,1,106.789,59v4.569H90.972A8.155,8.155,0,0,0,82.826,71.713Zm4.443,16.2v-16.2a3.707,3.707,0,0,1,3.7-3.7H115.5a3.707,3.707,0,0,1,3.7,3.7v16.2A10.85,10.85,0,0,1,108.36,98.751H98.108A10.851,10.851,0,0,1,87.269,87.913ZM97.848,107.03a.158.158,0,0,1-.046-.111v-3.731c.1,0,.2.006.305.006H108.36c.1,0,.2,0,.305-.006v3.731a.158.158,0,0,1-.046.111l-5.386,5.478Zm.553,6.9-5.52,4.14v-9.345l.616-.706a4.571,4.571,0,0,0,1.183,2.125Zm13.388-3.785a4.573,4.573,0,0,0,1.183-2.125l.616.706v9.345l-5.52-4.14Zm-25.721-.031h2.37v10.622a3.108,3.108,0,0,0,4.977,2.488l8.209-6.157a3.094,3.094,0,0,0,3.222,0l8.209,6.157a3.11,3.11,0,0,0,4.977-2.488V110.115h2.37v17.437h-6.589a3.113,3.113,0,0,0-2.929,2.074H86.068Zm-1.2,32.832v13.042H79.847V134.068h1.777V135.7a2.222,2.222,0,1,0,4.443,0v-1.629H110.7v5.768H87.978A3.114,3.114,0,0,0,84.868,142.947Zm30.807,13.042H89.311V144.28h26.364Z" transform="translate(0 -43.313)" fill="#20287a"/>
  </g>
</svg>
