<svg xmlns="http://www.w3.org/2000/svg" width="200" height="120" viewBox="0 0 200 120">
  <g id="Grupo_55881" data-name="Grupo 55881" transform="translate(-179 -7428)">
    <rect id="Rectángulo_5495" data-name="Rectángulo 5495" width="200" height="120" rx="5" transform="translate(179 7428)" fill="#e1eafe"/>
    <g id="happy" transform="translate(242 7451)">
      <path id="Trazado_26458" data-name="Trazado 26458" d="M67.12,314.989a7.362,7.362,0,0,0,1.774-4.8V309.4a7.4,7.4,0,0,0-14.8,0v.792a7.362,7.362,0,0,0,1.774,4.8,10.488,10.488,0,0,0-6.382,4.795,10.488,10.488,0,0,0-6.382-4.795,7.362,7.362,0,0,0,1.774-4.8V309.4a7.4,7.4,0,0,0-14.8,0v.792a7.362,7.362,0,0,0,1.774,4.8,10.488,10.488,0,0,0-6.382,4.795,10.488,10.488,0,0,0-6.382-4.795,7.362,7.362,0,0,0,1.774-4.8V309.4a7.4,7.4,0,0,0-14.8,0v.792a7.362,7.362,0,0,0,1.774,4.8A10.468,10.468,0,0,0,0,325.109v6.174a1.464,1.464,0,0,0,1.464,1.464H73.5a1.464,1.464,0,0,0,1.464-1.464v-6.174a10.468,10.468,0,0,0-7.846-10.121ZM57.025,309.4a4.47,4.47,0,0,1,8.941,0v.792a4.47,4.47,0,0,1-8.941,0Zm-24.013,0a4.47,4.47,0,0,1,8.941,0v.792a4.47,4.47,0,0,1-8.941,0ZM9,309.4a4.47,4.47,0,0,1,8.941,0v.792a4.47,4.47,0,0,1-8.941,0ZM2.928,325.109a7.529,7.529,0,0,1,7.521-7.521h6.043a7.529,7.529,0,0,1,7.521,7.521v4.71H2.928Zm24.013,0a7.529,7.529,0,0,1,7.521-7.521H40.5a7.529,7.529,0,0,1,7.521,7.521v4.71H26.941Zm45.1,4.71H50.953v-4.71a7.529,7.529,0,0,1,7.521-7.521h6.043a7.529,7.529,0,0,1,7.521,7.521Zm0,0" transform="translate(0 -257.782)" fill="#20287a"/>
      <path id="Trazado_26459" data-name="Trazado 26459" d="M34.37,29.369l-.013,8.13a1.463,1.463,0,0,0,2.391,1.135l8.271-6.77h9.15L59.4,38.415a1.464,1.464,0,0,0,2.332-.059L66.4,31.864H76.1l8.233,6.768A1.464,1.464,0,0,0,86.725,37.5V29.346A15.933,15.933,0,0,0,78.126,0h-35.2A15.933,15.933,0,0,0,34.37,29.369ZM42.931,2.928h35.2a13.005,13.005,0,0,1,6.412,24.32A1.463,1.463,0,0,0,83.8,28.52V34.4l-6.245-5.133a1.462,1.462,0,0,0-.929-.333H65.653a1.464,1.464,0,0,0-1.189.61l-3.979,5.533-4.469-5.592a1.465,1.465,0,0,0-1.144-.55H44.5a1.467,1.467,0,0,0-.928.331l-6.278,5.14.009-5.862a1.463,1.463,0,0,0-.745-1.278A13,13,0,0,1,42.931,2.928Zm0,0" transform="translate(-23.046)" fill="#20287a"/>
      <path id="Trazado_26460" data-name="Trazado 26460" d="M367.652,42.928h.055A1.464,1.464,0,0,0,367.713,40h-.061a1.464,1.464,0,1,0,0,2.928Zm0,0" transform="translate(-312.572 -34.144)" fill="#20287a"/>
      <path id="Trazado_26461" data-name="Trazado 26461" d="M405.329,57.077A7.135,7.135,0,0,1,405.6,67.6a1.464,1.464,0,1,0,2.036,2.1,10.063,10.063,0,0,0-.38-14.83,1.464,1.464,0,0,0-1.926,2.206Zm0,0" transform="translate(-345.554 -46.529)" fill="#20287a"/>
      <path id="Trazado_26462" data-name="Trazado 26462" d="M201.972,67.812a35.323,35.323,0,0,0,3.7,2.965,1.464,1.464,0,0,0,1.647,0,35.322,35.322,0,0,0,3.7-2.965c2.689-2.487,4-4.612,4-6.5a5.756,5.756,0,0,0-5.548-5.932,5.3,5.3,0,0,0-2.966.92,5.306,5.306,0,0,0-2.967-.92,5.756,5.756,0,0,0-5.548,5.932c0,1.884,1.306,4.009,4,6.5Zm1.553-9.5a2.447,2.447,0,0,1,1.859.891,1.465,1.465,0,0,0,2.215,0,2.447,2.447,0,0,1,1.859-.891,2.834,2.834,0,0,1,2.619,3c0,1.638-3.086,4.592-5.587,6.453-2.5-1.858-5.586-4.81-5.586-6.453a2.835,2.835,0,0,1,2.62-3Zm0,0" transform="translate(-168.99 -47.274)" fill="#20287a"/>
    </g>
  </g>
</svg>
