<svg xmlns="http://www.w3.org/2000/svg" width="80" height="80" viewBox="0 0 80 80">
  <g id="Grupo_55884" data-name="Grupo 55884" transform="translate(-417 -5179)">
    <circle id="Base" cx="40" cy="40" r="40" transform="translate(417 5179)" fill="#fff"/>
    <g id="outline" transform="translate(431 5193)">
      <path id="Trazado_27515" data-name="Trazado 27515" d="M105.893,82.4h-4.615a.324.324,0,0,1-.324-.324V79.248h1.288a5.751,5.751,0,0,0,4.453-9.39L105.421,68.3a5.1,5.1,0,0,1-1.148-3.22v-.036A9.044,9.044,0,0,0,95.23,56H91.7a9.037,9.037,0,0,0-9.027,9.027v7.92a7.142,7.142,0,0,0,7.134,7.134h2.349v1.992a.324.324,0,0,1-.324.324H86.338A4.746,4.746,0,0,0,81.6,87.137v9.675l-2.666-10.23a.88.88,0,0,0-.854-.666h-.633l.44-1.76h.193a4.4,4.4,0,1,0,0-8.8H74.558a13.607,13.607,0,0,1-7.572-2.292l-1.619-1.079A.88.88,0,0,0,64,72.717V86.8a.88.88,0,0,0,1.368.732l1.619-1.079a13.6,13.6,0,0,1,5.526-2.139l-.4,1.606H71.039a.88.88,0,0,0-.88.88v5.279a.88.88,0,0,0,.392.732l2.366,1.578,2.553,9.361a.88.88,0,0,0,.845.648h33.439a.88.88,0,0,0,.88-.88V87.137A4.746,4.746,0,0,0,105.893,82.4ZM91.7,57.76h3.53a7.284,7.284,0,0,1,7.284,7.284v.036a6.867,6.867,0,0,0,1.545,4.333l1.274,1.559a3.991,3.991,0,0,1-3.091,6.516h-1.288v-1.3A3.5,3.5,0,0,0,103.033,73a3.364,3.364,0,0,0-3.36-3.36,2.843,2.843,0,0,1-2.84-2.84V63.08a.88.88,0,0,0-1.368-.732,13.844,13.844,0,0,1-7.7,2.332H84.442A7.276,7.276,0,0,1,91.7,57.76Zm2.216,24.313V80.08h.257a.88.88,0,0,0,0-1.76H89.807a5.38,5.38,0,0,1-5.374-5.374V66.44h3.329a15.588,15.588,0,0,0,7.311-1.812V66.8a4.605,4.605,0,0,0,4.6,4.6,1.629,1.629,0,0,1,.4,3.2.88.88,0,0,0-.88.88v6.592a2.08,2.08,0,0,0,.88,1.7v3.465a3.959,3.959,0,1,1-7.919,0V84.128A2.085,2.085,0,0,0,93.915,82.072ZM90.4,84.156v3.08a5.719,5.719,0,1,0,11.438,0v-3.08h1.609l.094,8.111a.88.88,0,0,0,.258.612l.559.559a4.586,4.586,0,0,1,.59,5.743l-1.16,1.47a.88.88,0,0,0-.189.545v1.437H88.636V101.2a.88.88,0,0,0-.153-.5l-1.018-1.491a4.586,4.586,0,0,1,.572-5.771.892.892,0,0,0,.064-.071l.449-.559a.88.88,0,0,0,.194-.551v-8.1Zm-9.83-5.279H78.958a.88.88,0,1,0,0,1.76h1.608a2.644,2.644,0,0,1-2.488,1.76h-2.64V77.117h2.64A2.644,2.644,0,0,1,80.566,78.877ZM66.011,84.984l-.251.167V74.362l.251.167a15.355,15.355,0,0,0,7.668,2.563v5.3a.877.877,0,0,0-.277.045A15.352,15.352,0,0,0,66.011,84.984Zm8.354-.825c.065,0,.129,0,.194,0h1.513l-.44,1.76H73.926Zm2.626,18.477L74.527,93.6a.88.88,0,0,0-.361-.5l-2.248-1.5V87.675h1.76v.88a2.643,2.643,0,0,0,2.64,2.64.88.88,0,0,0,0-1.76.881.881,0,0,1-.88-.88v-.88h1.953l.713,2.853,0,.013,3.224,12.114Zm6.366-15.5a2.985,2.985,0,0,1,2.981-2.981h.644v7.791l-.226.281a6.353,6.353,0,0,0-.751,7.965l.871,1.275v1.165H83.357Zm25.516,15.5h-3.519V101.5l.994-1.259c.015-.018.028-.038.041-.057a6.35,6.35,0,0,0-.791-7.992l-.305-.305-.09-7.732h.69a2.985,2.985,0,0,1,2.981,2.981Z" transform="translate(-58.721 -52.481)" fill="#2a94ee"/>
      <ellipse id="Elipse_1820" data-name="Elipse 1820" cx="1.155" cy="1.155" rx="1.155" ry="1.155" transform="translate(32.885 15.955)" fill="#2a94ee"/>
      <ellipse id="Elipse_1821" data-name="Elipse 1821" cx="1.21" cy="1.21" rx="1.21" ry="1.21" transform="translate(27.496 15.9)" fill="#2a94ee"/>
      <path id="Trazado_27516" data-name="Trazado 27516" d="M290.566,215.213a1.028,1.028,0,0,1-1.1.217l-.266-.107a.88.88,0,0,0-.655,1.633l.266.107a2.789,2.789,0,0,0,2.981-.589.88.88,0,0,0-1.227-1.261Z" transform="translate(-258.078 -193.961)" fill="#2a94ee"/>
      <path id="Trazado_27517" data-name="Trazado 27517" d="M16.88,265.76h1.76a.88.88,0,0,0,0-1.76H16.88a.88.88,0,0,0,0,1.76Z" transform="translate(-16 -237.604)" fill="#2a94ee"/>
      <path id="Trazado_27518" data-name="Trazado 27518" d="M16.485,209.665l1.76.88a.88.88,0,1,0,.787-1.574l-1.76-.88a.88.88,0,1,0-.787,1.574Z" transform="translate(-15.999 -187.762)" fill="#2a94ee"/>
      <path id="Trazado_27519" data-name="Trazado 27519" d="M19.425,312.485a.88.88,0,0,0-1.18-.393l-1.76.88a.88.88,0,1,0,.787,1.574l1.76-.88A.88.88,0,0,0,19.425,312.485Z" transform="translate(-15.999 -280.324)" fill="#2a94ee"/>
      <path id="Trazado_27520" data-name="Trazado 27520" d="M27.08,34.558h9.239a.88.88,0,0,0,.88-.88V27.519a.88.88,0,0,0-.88-.88H32.491l-.941-2.117a.88.88,0,0,0-.8-.523H28.4a.88.88,0,0,0-.88.88v1.76H24.88a.88.88,0,0,0-.88.88v3.959a3.083,3.083,0,0,0,3.08,3.08Zm8.359-1.76H32.8V28.4h2.64ZM25.76,28.4H28.4a.88.88,0,0,0,.88-.88V25.76h.895l.865,1.947V32.8H27.08a1.321,1.321,0,0,1-1.32-1.32Z" transform="translate(-23.12 -24)" fill="#2a94ee"/>
      <path id="Trazado_27521" data-name="Trazado 27521" d="M122.964,144a2.414,2.414,0,0,0-1.718.712l-.683.684-.683-.684a2.431,2.431,0,0,0-4.024.95,3.28,3.28,0,0,0,1.059,3.585l3.1,2.479a.88.88,0,0,0,1.1,0l3.1-2.479a3.28,3.28,0,0,0,1.058-3.585A2.427,2.427,0,0,0,122.964,144Zm.148,3.872-2.55,2.04-2.55-2.04a1.514,1.514,0,0,1-.489-1.654.671.671,0,0,1,1.111-.262l1.306,1.306a.88.88,0,0,0,1.244,0l1.306-1.306a.671.671,0,0,1,1.111.262A1.513,1.513,0,0,1,123.112,147.872Z" transform="translate(-104.725 -130.802)" fill="#2a94ee"/>
    </g>
  </g>
</svg>
