<svg xmlns="http://www.w3.org/2000/svg" width="90" height="90" viewBox="0 0 90 90">
  <g id="Grupo_56822" data-name="Grupo 56822" transform="translate(-231 -19168)">
    <g id="Grupo_55892" data-name="Grupo 55892" transform="translate(0 -5296)">
      <g id="Grupo_55890" data-name="Grupo 55890">
        <g id="Grupo_55870" data-name="Grupo 55870" transform="translate(52 20724)">
          <circle id="Elipse_1805" data-name="Elipse 1805" cx="45" cy="45" r="45" transform="translate(179 3740)" fill="#2a94ee"/>
        </g>
      </g>
    </g>
    <g id="Grupo_55886" data-name="Grupo 55886" transform="translate(-3724.701 21298.207)">
      <path id="Trazado_27314" data-name="Trazado 27314" d="M3997.9-2059.369a1.049,1.049,0,0,0-.051-.131,1.372,1.372,0,0,0-1.242-.794h-4.26v-.766a1.436,1.436,0,0,0-1.436-1.436h-2.548a1.025,1.025,0,0,0-1.025,1.025,1.025,1.025,0,0,0,1.025,1.025h1.935v2.261h-13.581v-2.261h8.585a1.025,1.025,0,0,0,1.025-1.025,1.025,1.025,0,0,0-1.025-1.025h-9.2a1.437,1.437,0,0,0-1.436,1.436v.766h-4.259a1.373,1.373,0,0,0-1.242.794,1.047,1.047,0,0,0-.05.131l-2.355,7.727a1.426,1.426,0,0,0,.63,1.644v.5a3.71,3.71,0,0,0,1.321,2.837v12.676a1.711,1.711,0,0,0,1.71,1.711H3996.6a1.71,1.71,0,0,0,1.71-1.711h0v-12.675a3.713,3.713,0,0,0,1.321-2.837v-.5a1.426,1.426,0,0,0,.63-1.644Zm-1.647,25.036h-6.951v-1.982a1.025,1.025,0,0,0-1.025-1.025,1.025,1.025,0,0,0-1.025,1.025v1.982h-7.485v-8.039h7.486v1.272a1.025,1.025,0,0,0,1.025,1.025,1.025,1.025,0,0,0,1.025-1.025v-1.887a1.438,1.438,0,0,0-1.436-1.436h-8.717a1.437,1.437,0,0,0-1.436,1.436v8.654h-6.952v-11.5c.057,0,.115.007.171.008a3.582,3.582,0,0,0,2.572-1.006,3.61,3.61,0,0,0,5,0,3.611,3.611,0,0,0,5,0,3.61,3.61,0,0,0,5,0,3.611,3.611,0,0,0,5,0,3.592,3.592,0,0,0,2.5,1.007h.07a1.311,1.311,0,0,0,.171-.007Zm1.321-15.17a1.6,1.6,0,0,1-1.53,1.63h-.029a1.554,1.554,0,0,1-1.3-.7,1.432,1.432,0,0,0-1.2-.648h0a1.435,1.435,0,0,0-1.2.649,1.557,1.557,0,0,1-2.155.448,1.558,1.558,0,0,1-.447-.448,1.434,1.434,0,0,0-1.985-.414,1.435,1.435,0,0,0-.414.414,1.557,1.557,0,0,1-2.155.448,1.554,1.554,0,0,1-.447-.448,1.435,1.435,0,0,0-1.985-.414,1.437,1.437,0,0,0-.414.414,1.556,1.556,0,0,1-2.155.448,1.551,1.551,0,0,1-.448-.448,1.434,1.434,0,0,0-1.985-.414,1.435,1.435,0,0,0-.415.414,1.556,1.556,0,0,1-2.155.448,1.56,1.56,0,0,1-.448-.448,1.437,1.437,0,0,0-1.2-.649h0a1.434,1.434,0,0,0-1.2.648,1.552,1.552,0,0,1-1.3.7h-.03a1.606,1.606,0,0,1-1.531-1.63v-.285h28.133v.285Zm-28.609-2.336,1.951-6.4h3.75v.674a1.437,1.437,0,0,0,1.436,1.436h14.81a1.437,1.437,0,0,0,1.436-1.436v-.674h3.751l1.951,6.4Z" transform="translate(0 -37.817)" fill="#fff"/>
      <path id="Trazado_27636" data-name="Trazado 27636" d="M4054.179-2083.262a5.375,5.375,0,0,0-1.4-7.472,5.376,5.376,0,0,0-3.948-.863,26.038,26.038,0,0,0-16.856-16.427,6.3,6.3,0,0,0-3.565-3.768,5.379,5.379,0,0,0-1.4-7.476,5.379,5.379,0,0,0-7.476,1.4,5.378,5.378,0,0,0,0,6.075,6.3,6.3,0,0,0-3.639,4,26.043,26.043,0,0,0-11.693,8.16h2.729a23.974,23.974,0,0,1,8.7-5.879v.528a1.6,1.6,0,0,0,1.6,1.6h13.492a1.6,1.6,0,0,0,1.6-1.6v-.76a23.99,23.99,0,0,1,14.6,14.874,5.37,5.37,0,0,0-1.759,7.388c.046.074.094.148.144.221a6.27,6.27,0,0,0-3.906,5.8v1a1.6,1.6,0,0,0,1.6,1.6h3.634a23.957,23.957,0,0,1-17.575,14.99,5.378,5.378,0,0,0-3.308-6.849,5.378,5.378,0,0,0-6.85,3.308,5.38,5.38,0,0,0-.049,3.4,23.97,23.97,0,0,1-14.993-10.922h-2.363a26.024,26.024,0,0,0,16.924,12.923,6.261,6.261,0,0,0-2.786,5.206v1a1.6,1.6,0,0,0,1.6,1.6h13.492a1.6,1.6,0,0,0,1.6-1.6v-1a6.257,6.257,0,0,0-2.633-5.1,26.019,26.019,0,0,0,19.126-16.949h1.094a1.025,1.025,0,0,0,1.025-1.025,1.025,1.025,0,0,0-1.025-1.025h-6.461v-.55a4.22,4.22,0,0,1,3.621-4.171,5.358,5.358,0,0,0,5.347,0,4.22,4.22,0,0,1,3.62,4.171v.55h-1.342a1.025,1.025,0,0,0-1.025,1.025,1.025,1.025,0,0,0,1.025,1.025h1.8a1.6,1.6,0,0,0,1.6-1.6v-1A6.271,6.271,0,0,0,4054.179-2083.262Zm-30.205-34.891a3.325,3.325,0,0,1,3.325,3.325,3.325,3.325,0,0,1-3.325,3.325,3.326,3.326,0,0,1-3.326-3.325A3.332,3.332,0,0,1,4023.974-2118.153Zm6.294,12.712H4017.68v-.55a4.219,4.219,0,0,1,3.62-4.171,5.36,5.36,0,0,0,5.347,0,4.22,4.22,0,0,1,3.62,4.171Zm-9.622,43.8a3.325,3.325,0,0,1,3.325-3.325,3.326,3.326,0,0,1,3.326,3.325,3.326,3.326,0,0,1-3.326,3.325,3.332,3.332,0,0,1-3.325-3.324Zm9.624,8.836v.551H4017.68v-.551a4.219,4.219,0,0,1,3.62-4.171,5.358,5.358,0,0,0,5.347,0A4.221,4.221,0,0,1,4030.269-2052.81Zm19.471-30.157a3.325,3.325,0,0,1-3.325-3.325,3.325,3.325,0,0,1,3.325-3.325,3.325,3.325,0,0,1,3.325,3.325A3.332,3.332,0,0,1,4049.74-2082.967Z" transform="translate(-22.797)" fill="#fff"/>
    </g>
  </g>
</svg>
