<svg id="_023-wholesaler" data-name="023-wholesaler" xmlns="http://www.w3.org/2000/svg" width="150.77" height="122.4" viewBox="0 0 150.77 122.4">
  <g id="Grupo_55842" data-name="Grupo 55842" transform="translate(0 0)">
    <path id="Trazado_27372" data-name="Trazado 27372" d="M147.089,59.128H119.5V51.848a3.685,3.685,0,0,0-3.681-3.681H67.434a2.209,2.209,0,1,0,0,4.417h47.649V69.443h-79.4V52.584H57.128a2.209,2.209,0,1,0,0-4.417H34.95a3.685,3.685,0,0,0-3.681,3.681v7.279H3.681A3.685,3.685,0,0,0,0,62.808v7.371A3.685,3.685,0,0,0,3.681,73.86h1.6v93.028a3.685,3.685,0,0,0,3.681,3.681H141.808a3.685,3.685,0,0,0,3.681-3.681V73.86h1.6a3.685,3.685,0,0,0,3.681-3.681V62.808A3.685,3.685,0,0,0,147.089,59.128ZM4.417,63.545H31.269v5.9H4.417ZM44.164,166.152H21.5V143.491h5.549v5.042a2.8,2.8,0,0,0,2.8,2.8h5.968a2.8,2.8,0,0,0,2.8-2.8V143.49h5.549Zm-2.074-41.9h5.968a2.8,2.8,0,0,0,2.8-2.8v-5.042H56.4v22.661H33.743V116.412h5.549v5.042A2.8,2.8,0,0,0,42.09,124.252Zm1.62-4.417v-3.423h2.729v3.423ZM34.2,143.49v3.423H31.469V143.49H34.2Zm37.045,22.662H48.581V143.491H54.13v5.042a2.8,2.8,0,0,0,2.8,2.8H62.9a2.8,2.8,0,0,0,2.8-2.8V143.49h5.549Zm-2.074-41.9h5.968a2.8,2.8,0,0,0,2.8-2.8v-5.042h5.549v22.661H60.822V116.412h5.549v5.042a2.8,2.8,0,0,0,2.8,2.8Zm1.62-4.417v-3.423h2.729v3.423ZM61.276,143.49v3.423H58.547V143.49h2.729Zm67.992,22.662H111.752V158.79h17.515Zm0-11.779H111.752v-7.362h17.515Zm0-11.779H111.752v-7.362h17.515Zm11.8,23.558h-7.387V119.969a2.209,2.209,0,0,0-4.417,0v10.846H111.016a3.685,3.685,0,0,0-3.681,3.681v8.834a3.657,3.657,0,0,0,.309,1.472,3.657,3.657,0,0,0-.309,1.472v8.834a3.657,3.657,0,0,0,.309,1.472,3.657,3.657,0,0,0-.309,1.472v8.1h-4.6v-6.724a2.209,2.209,0,0,0-4.417,0v6.724H75.659V143.491h5.549v5.042a2.8,2.8,0,0,0,2.8,2.8h5.968a2.8,2.8,0,0,0,2.8-2.8V143.49h5.549v5.632a2.209,2.209,0,1,0,4.417,0v-6.957a3.1,3.1,0,0,0-3.092-3.092H87.9V115.087a3.1,3.1,0,0,0-3.092-3.092H32.418a3.1,3.1,0,0,0-3.092,3.092v23.987H21.5V98.682H129.268v10.981a2.209,2.209,0,1,0,4.417,0V88.275A3.685,3.685,0,0,0,130,84.594H20.766a3.685,3.685,0,0,0-3.681,3.681v77.877H9.7V73.86H141.072ZM85.626,146.913V143.49h2.729v3.423ZM21.5,94.265V89.011H129.268v5.254Zm124.85-24.822H119.5v-5.9h26.852Z" transform="translate(0 -48.167)" fill="#20287a"/>
    <path id="Trazado_27373" data-name="Trazado 27373" d="M101.637,407.5H95.091a2.209,2.209,0,1,0,0,4.417h6.546a2.209,2.209,0,1,0,0-4.417Z" transform="translate(-65.531 -301.686)" fill="#20287a"/>
    <path id="Trazado_27374" data-name="Trazado 27374" d="M193.593,407.5h-6.546a2.209,2.209,0,1,0,0,4.417h6.546a2.209,2.209,0,1,0,0-4.417Z" transform="translate(-130.408 -301.686)" fill="#20287a"/>
    <path id="Trazado_27375" data-name="Trazado 27375" d="M285.549,407.5H279a2.209,2.209,0,0,0,0,4.417h6.547a2.209,2.209,0,0,0,0-4.417Z" transform="translate(-195.286 -301.686)" fill="#20287a"/>
    <path id="Trazado_27376" data-name="Trazado 27376" d="M136.66,319.961h6.546a2.209,2.209,0,1,0,0-4.417H136.66a2.209,2.209,0,1,0,0,4.417Z" transform="translate(-94.859 -236.809)" fill="#20287a"/>
    <path id="Trazado_27377" data-name="Trazado 27377" d="M228.616,319.961h6.546a2.209,2.209,0,0,0,0-4.417h-6.546a2.209,2.209,0,1,0,0,4.417Z" transform="translate(-159.736 -236.809)" fill="#20287a"/>
    <path id="Trazado_27378" data-name="Trazado 27378" d="M183.912,86.5a2.209,2.209,0,0,0,2.209,2.209h38.039a2.209,2.209,0,0,0,0-4.417H186.121A2.209,2.209,0,0,0,183.912,86.5Z" transform="translate(-129.755 -73.655)" fill="#20287a"/>
  </g>
</svg>
