<svg xmlns="http://www.w3.org/2000/svg" width="46" height="46" viewBox="0 0 46 46">
  <g id="_045-linkedin" data-name="045-linkedin" opacity="0.5">
    <path id="Trazado_26535" data-name="Trazado 26535" d="M39.262,0H6.738A6.746,6.746,0,0,0,0,6.738V39.262A6.746,6.746,0,0,0,6.738,46H39.262A6.746,6.746,0,0,0,46,39.262V6.738A6.746,6.746,0,0,0,39.262,0ZM43.3,39.262A4.048,4.048,0,0,1,39.262,43.3H6.738A4.048,4.048,0,0,1,2.7,39.262V6.738A4.048,4.048,0,0,1,6.738,2.7H39.262A4.048,4.048,0,0,1,43.3,6.738Zm0,0" fill="#2a94ee"/>
    <path id="Trazado_26536" data-name="Trazado 26536" d="M91,229.047h8.086V210H91ZM93.7,212.7h2.7v13.656H93.7Zm0,0" transform="translate(-82.824 -191.133)" fill="#2a94ee"/>
    <path id="Trazado_26537" data-name="Trazado 26537" d="M221.789,210h-.008a8.071,8.071,0,0,0-2.7.458V210H211v19.047h8.086v-9.613a1.348,1.348,0,0,1,2.7,0v9.613h8.086v-10.54c0-4.362-3.538-8.5-8.078-8.507Zm5.383,16.352h-2.7v-6.918a4.043,4.043,0,0,0-8.086,0v6.918h-2.7V212.695h2.7v2.7l2.157-1.62a5.343,5.343,0,0,1,3.234-1.077h.005a5.762,5.762,0,0,1,5.385,5.812Zm0,0" transform="translate(-192.043 -191.132)" fill="#2a94ee"/>
    <path id="Trazado_26538" data-name="Trazado 26538" d="M91,98.086h8.086V90H91ZM93.7,92.7h2.7v2.7H93.7Zm0,0" transform="translate(-82.824 -81.914)" fill="#2a94ee"/>
  </g>
</svg>
