<svg id="_045-test" data-name="045-test" xmlns="http://www.w3.org/2000/svg" width="200" height="200" viewBox="0 0 200 200">
  <path id="Trazado_21197" data-name="Trazado 21197" d="M200,100A100,100,0,1,1,100,0,100,100,0,0,1,200,100Zm0,0" fill="#d64626"/>
  <path id="Trazado_21198" data-name="Trazado 21198" d="M271.832,132.8v-4.3a.781.781,0,0,1,.781-.781h46.941a.781.781,0,0,1,.781.781v4.3a.781.781,0,0,1-.781.781H272.613A.782.782,0,0,1,271.832,132.8Zm59.441,80.859H272.613a.781.781,0,0,0-.781.781v4.3a.781.781,0,0,0,.781.781h58.659a.781.781,0,0,0,.781-.781v-4.3A.781.781,0,0,0,331.273,213.656ZM272.613,207.8h46.941a.781.781,0,0,0,.781-.781v-4.3a.781.781,0,0,0-.781-.781H272.613a.781.781,0,0,0-.781.781v4.3A.782.782,0,0,0,272.613,207.8Zm58.659-17.578H272.613a.781.781,0,0,0-.781.781v4.3a.781.781,0,0,0,.781.781h58.659a.781.781,0,0,0,.781-.781V191A.781.781,0,0,0,331.273,190.219Zm0-50.781H272.613a.781.781,0,0,0-.781.781v4.3a.781.781,0,0,0,.781.781h58.659a.781.781,0,0,0,.781-.781v-4.3A.781.781,0,0,0,331.273,139.437Zm0-23.437H272.613a.781.781,0,0,0-.781.781v4.3a.781.781,0,0,0,.781.781h58.659a.781.781,0,0,0,.781-.781v-4.3A.781.781,0,0,0,331.273,116Zm0,0" transform="translate(-165.648 -70.688)" fill="#97181a"/>
  <path id="Trazado_21199" data-name="Trazado 21199" d="M106.82,162.719a28.32,28.32,0,1,0,28.32,28.32A28.352,28.352,0,0,0,106.82,162.719Zm0,50.781a22.461,22.461,0,1,1,22.461-22.461A22.486,22.486,0,0,1,106.82,213.5Zm0-68.359A28.32,28.32,0,1,0,78.5,116.82,28.352,28.352,0,0,0,106.82,145.141Zm0-50.781A22.461,22.461,0,1,1,84.359,116.82,22.486,22.486,0,0,1,106.82,94.359Zm0,0" transform="translate(-47.836 -53.93)" fill="#88b9d3"/>
  <path id="Trazado_21200" data-name="Trazado 21200" d="M434.578,44.241,423.529,55.29a3.9,3.9,0,0,1-5.524,0L401.433,38.717a3.9,3.9,0,0,1,0-5.524l11.049-11.049a3.9,3.9,0,0,1,5.524,0l16.573,16.573A3.9,3.9,0,0,1,434.578,44.241Zm0,0" transform="translate(-243.926 -12.797)" fill="#024c67"/>
  <path id="Trazado_21201" data-name="Trazado 21201" d="M164.473,84.184,124.958,123.7a1.722,1.722,0,0,1-2.437,0l-17.235-17.23a.862.862,0,0,1,0-1.218l4.874-4.875a.864.864,0,0,1,1.219,0l11.749,11.749a.859.859,0,0,0,1.218,0L158.38,78.091a.862.862,0,0,1,1.218,0l4.874,4.874a.862.862,0,0,1,0,1.219Zm-45.139,96.873a7.806,7.806,0,0,0-2.289,5.524v7.031a.781.781,0,0,0,.781.781h7.031a7.806,7.806,0,0,0,5.524-2.289l8.76-8.76L128.094,172.3Zm0,0" transform="translate(-64.006 -47.433)" fill="#fded32"/>
  <path id="Trazado_21202" data-name="Trazado 21202" d="M290.369,53.1l-95.618,95.618a7.808,7.808,0,0,1-3.992,2.136l-11.176,2.235a5.852,5.852,0,0,1-5.287-1.6l-4.414-4.414a5.852,5.852,0,0,1-1.6-5.286l2.234-11.176a7.813,7.813,0,0,1,2.136-3.992L268.271,31Zm0,0" transform="translate(-102.478 -18.891)" fill="#fc9302"/>
  <path id="Trazado_21203" data-name="Trazado 21203" d="M299.928,63.437,204.31,159.054a7.808,7.808,0,0,1-3.992,2.136l-11.176,2.235a5.851,5.851,0,0,1-5.287-1.6l2.85-14.246a7.807,7.807,0,0,1,2.136-3.993L284.46,47.969Zm0,0" transform="translate(-112.037 -29.231)" fill="#fdbf43"/>
  <path id="Trazado_21204" data-name="Trazado 21204" d="M183.632,297.878l-6.088,6.088a7.811,7.811,0,0,1-11.049,0l-5.524,5.525-11.049-11.049,5.525-5.524a7.811,7.811,0,0,1,0-11.049l6.088-6.088Zm0,0" transform="translate(-91.359 -168.054)" fill="#024c67"/>
</svg>
