<svg xmlns="http://www.w3.org/2000/svg" width="90" height="90" viewBox="0 0 90 90">
  <g id="Grupo_55883" data-name="Grupo 55883" transform="translate(-231 -4573)">
    <circle id="Elipse_1807" data-name="Elipse 1807" cx="45" cy="45" r="45" transform="translate(231 4573)" fill="#2a94ee"/>
    <g id="_025-checklist" data-name="025-checklist" transform="translate(254 4592)">
      <g id="Grupo_55844" data-name="Grupo 55844" transform="translate(0)">
        <path id="Trazado_27394" data-name="Trazado 27394" d="M188.189,250.795H175.058a.766.766,0,1,0,0,1.532h13.131a.766.766,0,1,0,0-1.532Z" transform="translate(-160.151 -225.178)" fill="#fff"/>
        <path id="Trazado_27395" data-name="Trazado 27395" d="M188.189,288.96H175.058a.766.766,0,1,0,0,1.532h13.131a.766.766,0,1,0,0-1.532Z" transform="translate(-160.151 -259.445)" fill="#fff"/>
        <path id="Trazado_27396" data-name="Trazado 27396" d="M120.6,235.874h-2.931a.766.766,0,0,0-.766.766v2.931a.766.766,0,0,0,.766.766H120.6a.766.766,0,0,0,.766-.766V236.64A.766.766,0,0,0,120.6,235.874Zm-.766,2.931h-1.4v-1.4h1.4Z" transform="translate(-108.623 -211.781)" fill="#fff"/>
        <path id="Trazado_27397" data-name="Trazado 27397" d="M120.6,312.777h-2.931a.766.766,0,0,0-.766.766v2.931a.766.766,0,0,0,.766.766H120.6a.766.766,0,0,0,.766-.766v-2.931A.766.766,0,0,0,120.6,312.777Zm-.766,2.931h-1.4v-1.4h1.4Z" transform="translate(-108.623 -280.829)" fill="#fff"/>
        <path id="Trazado_27398" data-name="Trazado 27398" d="M120.6,389.68h-2.931a.766.766,0,0,0-.766.766v2.931a.766.766,0,0,0,.766.766H120.6a.766.766,0,0,0,.766-.766v-2.931A.766.766,0,0,0,120.6,389.68Zm-.766,2.931h-1.4v-1.4h1.4Z" transform="translate(-108.623 -349.877)" fill="#fff"/>
        <path id="Trazado_27399" data-name="Trazado 27399" d="M80.057,43.87a.766.766,0,0,0,.766-.766v-9.5a1.278,1.278,0,0,0-1.277-1.277H72.933V7.8a1.278,1.278,0,0,0-1.277-1.277H64.368V6.007A1.278,1.278,0,0,0,63.091,4.73H59.644a5.282,5.282,0,0,0-10.506,0H45.692a1.278,1.278,0,0,0-1.277,1.277v.515H37.127A1.278,1.278,0,0,0,35.85,7.8V51.02A1.278,1.278,0,0,0,37.127,52.3h42.42a1.278,1.278,0,0,0,1.277-1.277V46.679a.766.766,0,0,0-1.532,0v4.086H62.39v-16.9h5.252v3a1.074,1.074,0,0,0,1.073,1.073h4.252a1.074,1.074,0,0,0,1.073-1.073v-3h5.252V43.1A.766.766,0,0,0,80.057,43.87ZM54.391,1.532A3.755,3.755,0,0,1,58.1,4.73H50.683A3.755,3.755,0,0,1,54.391,1.532Zm6.466,49.233H37.382V8.054h2.226V47.238a1.074,1.074,0,0,0,1.072,1.073H60.858Zm7.551-30.49a.766.766,0,0,0-.766.766v11.29H62.134a1.278,1.278,0,0,0-1.26,1.082H50.757a.766.766,0,0,0,0,1.532h10.1v2.366h-10.1a.766.766,0,0,0,0,1.532h10.1V41.21h-10.1a.766.766,0,0,0,0,1.532h10.1v4.037H41.14V8.054h3.275V9.986a1.278,1.278,0,0,0,1.277,1.277h4.371a.766.766,0,0,0,0-1.532H45.947V6.262H62.836V9.731h-9.2a.766.766,0,1,0,0,1.532h9.453a1.278,1.278,0,0,0,1.277-1.277V8.054h3.275v9.413a.766.766,0,1,0,1.532,0V8.054H71.4V32.331H69.175V21.041a.766.766,0,0,0-.766-.766Zm4.1,16.124H69.174V33.863h3.332Z" transform="translate(-35.85)" fill="#fff"/>
        <path id="Trazado_27400" data-name="Trazado 27400" d="M354.323,460.043h-4.456a.766.766,0,1,0,0,1.532h4.456a.766.766,0,1,0,0-1.532Z" transform="translate(-317.104 -413.053)" fill="#fff"/>
        <path id="Trazado_27401" data-name="Trazado 27401" d="M354.323,430.989h-4.456a.766.766,0,1,0,0,1.532h4.456a.766.766,0,1,0,0-1.532Z" transform="translate(-317.104 -386.967)" fill="#fff"/>
        <path id="Trazado_27402" data-name="Trazado 27402" d="M169.258,137.206a5.474,5.474,0,1,0-5.474-5.474A5.48,5.48,0,0,0,169.258,137.206Zm0-9.415a3.942,3.942,0,1,1-3.942,3.942A3.946,3.946,0,0,1,169.258,127.79Z" transform="translate(-150.717 -113.362)" fill="#fff"/>
        <path id="Trazado_27403" data-name="Trazado 27403" d="M191.1,165.358a.766.766,0,0,0,1.084,0l2.427-2.427a.766.766,0,1,0-1.083-1.083l-1.885,1.885-1.287-1.287a.766.766,0,1,0-1.083,1.083Z" transform="translate(-173.397 -145.115)" fill="#fff"/>
      </g>
    </g>
  </g>
</svg>
