<?xml version="1.0" encoding="UTF-8" standalone="no"?><!DOCTYPE svg PUBLIC "-//W3C//DTD SVG 1.1//EN" "http://www.w3.org/Graphics/SVG/1.1/DTD/svg11.dtd"><svg width="100%" height="100%" viewBox="0 0 720 480" version="1.1" xmlns="http://www.w3.org/2000/svg" xmlns:xlink="http://www.w3.org/1999/xlink" xml:space="preserve" xmlns:serif="http://www.serif.com/" style="fill-rule:evenodd;clip-rule:evenodd;stroke-linejoin:round;stroke-miterlimit:2;"><g id="Grupo_56805"><rect id="Rectángulo_5006" x="0" y="0" width="720" height="480" style="fill:#f6f6f6;"/><g id="Grupo_56638"><g id="Grupo_56637"><path id="Trazado_28859" d="M462.651,379.82c40.948,-30.073 66.692,-76.661 70.364,-127.333l-27.405,16.889l-24.734,-20.589c-2.419,33.386 -18.564,64.322 -44.568,85.4l-12.984,-22.575l-2.877,32.955l-3.255,32.544l29.8,13.429l29.975,13.976l-14.316,-24.696Z" style="fill:#d64626;"/><path id="Trazado_28860" d="M532.399,221.039c-5.548,-50.513 -33.027,-96.117 -75.092,-124.627l0.96,32.168l-30.215,11.133c27.71,18.792 46.426,48.256 51.659,81.326l-26.035,-0.068l27.1,18.978l26.549,19.081l26.55,-19.081l27.1,-18.978l-28.576,0.068Z" style="fill:#d64626;"/><path id="Trazado_28861" d="M429.765,81.202c-46.516,-20.443 -99.743,-19.44 -145.455,2.741l28.33,15.279l-5.481,31.687c30.135,-14.582 65.002,-16.059 96.262,-4.076l-13.052,22.506l29.975,-13.976l29.8,-13.429l-3.255,-32.544l-2.877,-32.955l-14.247,24.767Z" style="fill:#d64626;"/><path id="Trazado_28862" d="M257.384,100.181c-40.979,30.061 -66.731,76.674 -70.364,127.367l27.371,-16.923l24.734,20.589c2.432,-33.39 18.588,-64.325 44.6,-85.4l12.949,22.575l2.878,-32.955l3.289,-32.544l-29.838,-13.429l-29.975,-13.977l14.356,24.697Z" style="fill:#d64626;"/><path id="Trazado_28863" d="M187.602,258.963c5.553,50.511 33.03,96.113 75.092,124.626l-0.925,-32.167l30.18,-11.133c-27.691,-18.795 -46.403,-48.24 -51.659,-81.292l26.035,0.034l-27.1,-18.978l-26.55,-19.081l-26.549,19.081l-27.1,18.978l28.576,-0.068Z" style="fill:#d64626;"/><path id="Trazado_28864" d="M290.236,398.799c46.515,20.445 99.742,19.444 145.455,-2.736l-28.3,-15.244l5.447,-31.722c-30.135,14.582 -65.002,16.058 -96.262,4.076l13.086,-22.506l-30.009,13.976l-29.796,13.42l3.255,32.544l2.912,32.955l14.212,-24.763Z" style="fill:#d64626;"/></g><path id="Trazado_32392" d="M315.211,433.994l-0,9.365c0.069,1.383 -0.464,2.729 -1.46,3.691c-1.103,0.954 -2.533,1.442 -3.989,1.363c-1.437,0.077 -2.851,-0.395 -3.955,-1.318c-1,-0.933 -1.545,-2.256 -1.494,-3.623l-0,-9.473l2.93,-0l-0,9.385c-0.065,0.739 0.177,1.473 0.668,2.029c0.508,0.449 1.174,0.68 1.851,0.64c1.647,-0 2.484,-0.867 2.51,-2.6l-0,-9.463l2.939,0.004Zm7.939,11.3c-0.001,-0.347 -0.201,-0.664 -0.513,-0.815c-0.519,-0.258 -1.074,-0.438 -1.646,-0.532c-2.513,-0.527 -3.77,-1.594 -3.77,-3.2c-0.008,-0.923 0.426,-1.797 1.167,-2.349c0.876,-0.66 1.956,-0.993 3.052,-0.942c1.149,-0.059 2.284,0.275 3.218,0.947c0.776,0.576 1.227,1.495 1.206,2.461l-2.822,-0c0.012,-0.373 -0.13,-0.734 -0.391,-1c-0.336,-0.292 -0.777,-0.437 -1.221,-0.4c-0.393,-0.024 -0.782,0.09 -1.1,0.322c-0.252,0.197 -0.397,0.501 -0.391,0.82c0.001,0.314 0.171,0.603 0.444,0.757c0.467,0.253 0.975,0.422 1.5,0.5c0.603,0.113 1.197,0.272 1.777,0.474c1.308,0.315 2.237,1.496 2.236,2.842c0.011,0.938 -0.458,1.819 -1.242,2.334c-0.945,0.633 -2.067,0.948 -3.203,0.9c-0.811,0.015 -1.616,-0.147 -2.358,-0.474c-0.645,-0.282 -1.203,-0.731 -1.616,-1.3c-0.38,-0.517 -0.585,-1.141 -0.586,-1.782l2.676,-0c0,0.449 0.206,0.873 0.557,1.152c0.404,0.285 0.893,0.426 1.387,0.4c0.431,0.029 0.86,-0.078 1.226,-0.308c0.264,-0.183 0.42,-0.487 0.413,-0.808l-0,0.001Zm10.889,1.846c-0.71,0.854 -1.782,1.326 -2.891,1.273c-0.965,0.065 -1.911,-0.291 -2.593,-0.977c-0.649,-0.807 -0.975,-1.827 -0.913,-2.861l-0,-6.924l2.822,-0l-0,6.834c-0,1.101 0.5,1.652 1.5,1.652c0.796,0.083 1.57,-0.309 1.973,-1l-0,-7.489l2.832,-0l-0,10.565l-2.656,-0l-0.074,-1.073Zm10.986,1.073c-0.144,-0.299 -0.239,-0.618 -0.283,-0.947c-0.674,0.759 -1.652,1.18 -2.666,1.147c-0.941,0.034 -1.86,-0.288 -2.575,-0.9c-0.664,-0.563 -1.039,-1.396 -1.021,-2.266c-0.051,-1.014 0.419,-1.987 1.245,-2.578c1.077,-0.667 2.335,-0.984 3.6,-0.908l1.3,-0l-0,-0.605c0.022,-0.423 -0.112,-0.84 -0.376,-1.172c-0.31,-0.317 -0.746,-0.478 -1.187,-0.439c-0.401,-0.023 -0.798,0.098 -1.118,0.342c-0.273,0.233 -0.422,0.58 -0.405,0.938l-2.822,-0c-0,-0.613 0.199,-1.21 0.566,-1.7c0.411,-0.547 0.965,-0.971 1.6,-1.226c0.736,-0.305 1.527,-0.456 2.324,-0.444c1.118,-0.06 2.22,0.289 3.1,0.981c0.783,0.696 1.206,1.713 1.147,2.759l-0,4.58c-0.038,0.781 0.106,1.559 0.42,2.275l-0,0.163l-2.849,-0Zm-2.334,-1.963c0.401,0.004 0.797,-0.092 1.152,-0.278c0.33,-0.165 0.602,-0.425 0.781,-0.747l-0,-1.812l-1.055,-0c-1.413,-0 -2.165,0.488 -2.256,1.465l-0.01,0.166c-0.009,0.33 0.126,0.648 0.371,0.869c0.283,0.239 0.647,0.36 1.017,0.337Zm12.872,-5.957c-0.337,-0.049 -0.676,-0.076 -1.016,-0.08c-0.856,-0.114 -1.697,0.32 -2.1,1.084l-0,6.916l-2.822,-0l-0,-10.566l2.666,-0l0.078,1.26c0.442,-0.893 1.358,-1.459 2.354,-1.455c0.298,-0.002 0.594,0.041 0.879,0.127l-0.039,2.714Zm4.338,7.92l-2.835,-0l-0,-10.566l2.835,-0l-0,10.566Zm-3,-13.3c-0.012,-0.393 0.142,-0.773 0.425,-1.045c0.316,-0.285 0.732,-0.433 1.157,-0.41c0.423,-0.021 0.838,0.126 1.152,0.41c0.285,0.271 0.441,0.652 0.429,1.045c0.013,0.398 -0.145,0.782 -0.435,1.055c-0.313,0.282 -0.726,0.43 -1.147,0.41c-0.421,0.02 -0.834,-0.128 -1.147,-0.41c-0.289,-0.273 -0.447,-0.658 -0.434,-1.055Zm4.883,7.92c-0.017,-0.967 0.19,-1.926 0.605,-2.8c0.38,-0.792 0.987,-1.453 1.743,-1.9c0.803,-0.461 1.716,-0.694 2.642,-0.674c1.292,-0.05 2.551,0.422 3.491,1.309c0.933,0.948 1.473,2.215 1.508,3.545l0.02,0.723c0.069,1.426 -0.418,2.825 -1.357,3.9c-0.941,0.998 -2.272,1.538 -3.643,1.477c-1.37,0.061 -2.702,-0.476 -3.647,-1.47c-0.953,-1.101 -1.442,-2.53 -1.363,-3.984l0.001,-0.126Zm2.822,0.2c-0.051,0.806 0.147,1.609 0.566,2.3c0.366,0.527 0.98,0.83 1.621,0.8c0.631,0.025 1.234,-0.272 1.6,-0.787c0.445,-0.761 0.647,-1.64 0.578,-2.519c0.048,-0.804 -0.153,-1.604 -0.576,-2.289c-0.364,-0.531 -0.978,-0.838 -1.621,-0.812c-0.636,-0.026 -1.243,0.28 -1.6,0.807c-0.435,0.757 -0.635,1.628 -0.573,2.499l0.005,0.001Zm14.589,5.18l0,-8.5l-1.572,-0l0,-2.07l1.572,-0l0,-0.488c-0.058,-1.153 0.39,-2.275 1.226,-3.071c0.959,-0.771 2.172,-1.156 3.4,-1.079c1.089,0.037 2.167,0.231 3.2,0.576l-0.41,2.334c-0.487,-0.152 -0.982,-0.274 -1.484,-0.366c-0.373,-0.056 -0.749,-0.082 -1.126,-0.08c-1.315,-0 -1.973,0.583 -1.973,1.748l0,0.43l2.08,-0l0,2.066l-2.08,-0l0,8.5l-2.833,-0Zm9.15,-0l-2.831,-0l0,-10.566l2.832,-0l-0.001,10.566Zm4.932,-10.566l0.088,1.221c0.726,-0.93 1.856,-1.458 3.036,-1.417c0.94,-0.073 1.863,0.291 2.5,0.986c0.609,0.858 0.905,1.899 0.84,2.949l0,6.827l-2.821,-0l0,-6.773c0.042,-0.47 -0.098,-0.938 -0.391,-1.307c-0.36,-0.306 -0.83,-0.452 -1.3,-0.406c-0.74,-0.03 -1.435,0.366 -1.787,1.018l0,7.468l-2.821,-0l0,-10.566l2.656,-0Zm14.724,10.566c-0.144,-0.299 -0.239,-0.618 -0.283,-0.947c-0.673,0.758 -1.65,1.179 -2.663,1.147c-0.94,0.033 -1.859,-0.288 -2.574,-0.9c-0.664,-0.563 -1.04,-1.398 -1.02,-2.269c-0.051,-1.014 0.419,-1.987 1.245,-2.578c1.077,-0.667 2.335,-0.984 3.6,-0.908l1.3,-0l0,-0.605c0.022,-0.423 -0.112,-0.84 -0.376,-1.172c-0.31,-0.317 -0.746,-0.478 -1.187,-0.439c-0.401,-0.023 -0.798,0.098 -1.118,0.342c-0.273,0.233 -0.422,0.58 -0.405,0.938l-2.825,-0c-0,-0.613 0.199,-1.21 0.566,-1.7c0.411,-0.547 0.965,-0.971 1.6,-1.226c0.736,-0.305 1.527,-0.456 2.324,-0.444c1.118,-0.06 2.22,0.289 3.1,0.981c0.783,0.696 1.206,1.713 1.147,2.759l0,4.58c-0.038,0.781 0.106,1.559 0.42,2.275l0,0.166l-2.851,-0Zm-2.331,-1.963c0.401,0.004 0.797,-0.092 1.152,-0.278c0.33,-0.165 0.602,-0.425 0.781,-0.747l0,-1.812l-1.054,-0c-1.413,-0 -2.165,0.488 -2.256,1.465l-0.01,0.166c-0.009,0.33 0.126,0.648 0.371,0.869c0.283,0.239 0.647,0.359 1.016,0.337Zm9.912,1.963l-2.832,-0l0,-15l2.832,-0l0,15Z" style="fill:#97181a;fill-rule:nonzero;"/><path id="Trazado_32390" d="M315.522,228.39l7.465,-0l0,2.824l-10.98,-0l0,-17.062l3.516,-0l-0.001,14.238Zm8.73,-3.633c-0.021,-1.162 0.228,-2.313 0.727,-3.363c0.455,-0.952 1.183,-1.748 2.092,-2.285c0.963,-0.553 2.059,-0.833 3.17,-0.809c1.55,-0.061 3.061,0.505 4.189,1.57c1.123,1.14 1.771,2.666 1.811,4.266l0.023,0.867c0.083,1.712 -0.501,3.391 -1.629,4.682c-1.131,1.194 -2.727,1.838 -4.37,1.763c-1.644,0.075 -3.242,-0.567 -4.377,-1.758c-1.142,-1.32 -1.729,-3.033 -1.635,-4.776l-0.001,-0.157Zm3.387,0.24c-0.062,0.969 0.176,1.934 0.68,2.764c0.44,0.631 1.176,0.993 1.945,0.957c0.758,0.03 1.483,-0.326 1.922,-0.945c0.533,-0.913 0.774,-1.968 0.691,-3.022c0.058,-0.965 -0.183,-1.924 -0.691,-2.746c-0.437,-0.637 -1.173,-1.005 -1.945,-0.974c-0.764,-0.032 -1.493,0.335 -1.922,0.968c-0.519,0.91 -0.755,1.954 -0.679,2.998l-0.001,-0Zm10.219,-0.217c-0.082,-1.678 0.408,-3.336 1.389,-4.7c0.883,-1.166 2.282,-1.832 3.744,-1.781c1.246,-0.064 2.452,0.467 3.246,1.43l0.141,-1.2l3.07,-0l-0,12.263c0.025,1.017 -0.237,2.02 -0.756,2.895c-0.507,0.823 -1.247,1.476 -2.127,1.875c-1.009,0.45 -2.106,0.67 -3.211,0.645c-0.935,-0.001 -1.859,-0.19 -2.719,-0.557c-0.78,-0.298 -1.469,-0.792 -2,-1.436l1.5,-2.062c0.759,0.905 1.885,1.425 3.066,1.417c0.768,0.048 1.524,-0.212 2.1,-0.721c0.526,-0.546 0.798,-1.289 0.75,-2.045l-0,-0.68c-0.776,0.881 -1.909,1.368 -3.083,1.325c-1.448,0.037 -2.829,-0.63 -3.7,-1.787c-0.998,-1.372 -1.497,-3.045 -1.412,-4.74l0.002,-0.141Zm3.387,0.241c-0.054,0.954 0.187,1.902 0.691,2.714c0.42,0.634 1.14,1.006 1.9,0.983c0.899,0.07 1.763,-0.384 2.215,-1.165l-0,-5.357c-0.447,-0.773 -1.3,-1.226 -2.191,-1.165c-0.768,-0.023 -1.495,0.357 -1.916,1c-0.526,0.904 -0.77,1.946 -0.699,2.99Zm14.461,6.193l-3.387,-0l-0,-12.68l3.387,-0l-0,12.68Zm-1,-17.824l3.695,-0l-3.246,3.633l-2.754,-0l2.305,-3.633Zm10.785,14.324c-0.001,-0.416 -0.24,-0.797 -0.615,-0.979c-0.623,-0.311 -1.288,-0.528 -1.975,-0.642c-3.015,-0.633 -4.523,-1.914 -4.523,-3.844c-0.008,-1.108 0.512,-2.155 1.4,-2.818c1.051,-0.792 2.347,-1.192 3.662,-1.131c1.378,-0.07 2.741,0.331 3.861,1.137c0.932,0.691 1.472,1.793 1.448,2.953l-3.387,-0c0.014,-0.447 -0.156,-0.881 -0.469,-1.2c-0.404,-0.349 -0.932,-0.521 -1.464,-0.476c-0.473,-0.03 -0.942,0.107 -1.324,0.387c-0.302,0.236 -0.476,0.601 -0.469,0.984c0.001,0.376 0.205,0.724 0.533,0.908c0.561,0.303 1.17,0.506 1.8,0.6c0.724,0.135 1.437,0.324 2.132,0.566c1.789,0.656 2.684,1.793 2.684,3.41c0.015,1.127 -0.547,2.187 -1.489,2.807c-1.135,0.756 -2.482,1.132 -3.844,1.072c-0.973,0.018 -1.939,-0.176 -2.83,-0.568c-0.773,-0.338 -1.443,-0.876 -1.939,-1.559c-0.455,-0.62 -0.7,-1.37 -0.7,-2.139l3.207,-0c0,0.538 0.247,1.048 0.668,1.383c0.485,0.342 1.071,0.511 1.664,0.48c0.517,0.036 1.032,-0.094 1.471,-0.369c0.316,-0.217 0.503,-0.579 0.498,-0.962Zm9.528,-12.3l-0,3.117l2.168,-0l-0,2.483l-2.168,-0l-0,6.328c-0.033,0.357 0.063,0.715 0.27,1.008c0.288,0.238 0.661,0.346 1.031,0.3c0.335,0.004 0.67,-0.024 1,-0.082l-0,2.576c-0.665,0.202 -1.356,0.303 -2.051,0.3c-2.375,-0 -3.586,-1.2 -3.633,-3.6l-0,-6.83l-1.856,-0l-0,-2.48l1.852,-0l-0,-3.12l3.387,-0Zm7.628,15.8l-3.4,-0l-0,-12.68l3.4,-0l-0,12.68Zm-3.6,-15.961c-0.015,-0.471 0.171,-0.927 0.51,-1.254c0.379,-0.343 0.879,-0.52 1.389,-0.492c0.508,-0.026 1.006,0.151 1.383,0.492c0.343,0.325 0.531,0.782 0.516,1.254c0.016,0.477 -0.174,0.939 -0.521,1.266c-0.376,0.339 -0.871,0.516 -1.377,0.492c-0.506,0.022 -1.001,-0.157 -1.376,-0.497c-0.346,-0.326 -0.536,-0.786 -0.521,-1.261l-0.003,-0Zm11.663,13.461c0.554,0.024 1.098,-0.16 1.523,-0.516c0.392,-0.347 0.614,-0.848 0.609,-1.371l3.176,-0c-0.001,0.838 -0.244,1.658 -0.7,2.361c-0.465,0.721 -1.121,1.299 -1.895,1.669c-0.827,0.4 -1.735,0.603 -2.654,0.592c-1.613,0.082 -3.183,-0.551 -4.289,-1.729c-1.11,-1.334 -1.672,-3.042 -1.57,-4.775l-0,-0.223c-0.087,-1.699 0.47,-3.369 1.559,-4.676c1.095,-1.188 2.664,-1.828 4.277,-1.746c1.399,-0.067 2.77,0.419 3.814,1.354c0.972,0.94 1.503,2.249 1.459,3.6l-3.176,-0c0.01,-0.594 -0.208,-1.17 -0.609,-1.608c-0.403,-0.418 -0.967,-0.643 -1.547,-0.619c-0.704,-0.041 -1.381,0.286 -1.787,0.863c-0.469,0.855 -0.677,1.828 -0.6,2.8l-0,0.352c-0.077,0.977 0.132,1.956 0.6,2.817c0.415,0.577 1.1,0.901 1.81,0.855Zm14.591,2.5c-0.173,-0.359 -0.288,-0.742 -0.34,-1.137c-0.81,0.909 -1.983,1.412 -3.2,1.371c-1.128,0.041 -2.231,-0.344 -3.088,-1.078c-0.797,-0.675 -1.247,-1.675 -1.225,-2.719c-0.061,-1.217 0.503,-2.385 1.494,-3.094c1.292,-0.8 2.801,-1.18 4.318,-1.09l1.559,-0l-0,-0.727c0.026,-0.508 -0.135,-1.008 -0.451,-1.406c-0.372,-0.38 -0.895,-0.573 -1.424,-0.527c-0.482,-0.029 -0.959,0.115 -1.343,0.407c-0.327,0.28 -0.506,0.695 -0.486,1.125l-3.385,-0c0,-0.735 0.239,-1.451 0.68,-2.039c0.494,-0.657 1.159,-1.166 1.922,-1.471c0.883,-0.366 1.833,-0.548 2.789,-0.533c1.342,-0.072 2.665,0.347 3.721,1.178c0.94,0.835 1.448,2.056 1.377,3.311l-0,5.5c-0.047,0.936 0.124,1.871 0.5,2.73l-0,0.199l-3.418,-0Zm-2.8,-2.355c0.481,0.005 0.957,-0.11 1.383,-0.334c0.396,-0.198 0.723,-0.512 0.938,-0.9l-0,-2.18l-1.268,-0c-1.695,-0 -2.598,0.586 -2.707,1.758l-0.012,0.2c-0.011,0.396 0.152,0.777 0.445,1.043c0.338,0.29 0.776,0.438 1.221,0.413Zm-76.982,31.155l-3.4,-0l-0,-12.68l3.4,-0l-0,12.68Zm-3.6,-15.961c-0.015,-0.471 0.171,-0.927 0.51,-1.254c0.379,-0.343 0.879,-0.52 1.389,-0.492c0.508,-0.026 1.006,0.151 1.383,0.492c0.343,0.325 0.531,0.782 0.516,1.254c0.016,0.474 -0.172,0.934 -0.516,1.261c-0.376,0.339 -0.871,0.516 -1.377,0.492c-0.506,0.024 -1.001,-0.153 -1.377,-0.492c-0.348,-0.325 -0.539,-0.785 -0.526,-1.261l-0.002,-0Zm9.5,3.281l0.105,1.465c0.872,-1.117 2.229,-1.75 3.645,-1.7c1.128,-0.088 2.236,0.349 3,1.184c0.731,1.03 1.086,2.279 1.008,3.539l-0,8.192l-3.387,-0l-0,-8.128c0.05,-0.563 -0.118,-1.125 -0.469,-1.568c-0.432,-0.366 -0.995,-0.542 -1.559,-0.487c-0.888,-0.036 -1.723,0.439 -2.145,1.221l-0,8.962l-3.387,-0l-0,-12.68l3.189,-0Zm15.07,8.543l2.355,-8.543l3.539,-0l-4.271,12.68l-3.234,-0l-4.277,-12.68l3.539,-0l2.349,8.543Zm13.073,4.371c-1.682,0.067 -3.322,-0.55 -4.541,-1.711c-1.195,-1.208 -1.831,-2.862 -1.752,-4.559l-0,-0.328c-0.021,-1.18 0.232,-2.349 0.738,-3.416c0.455,-0.962 1.183,-1.769 2.094,-2.32c0.934,-0.551 2.003,-0.833 3.088,-0.814c1.54,-0.081 3.041,0.52 4.1,1.641c1.068,1.305 1.603,2.969 1.494,4.652l-0,1.383l-8.082,-0c0.076,0.762 0.429,1.471 0.99,1.992c0.575,0.509 1.325,0.778 2.092,0.75c1.189,0.054 2.332,-0.476 3.059,-1.418l1.664,1.863c-0.526,0.734 -1.238,1.314 -2.062,1.682c-0.905,0.41 -1.889,0.616 -2.882,0.603Zm-0.387,-10.418c-0.618,-0.022 -1.216,0.227 -1.635,0.683c-0.459,0.555 -0.739,1.236 -0.8,1.954l4.708,-0l-0,-0.271c0.026,-0.639 -0.192,-1.264 -0.609,-1.748c-0.442,-0.432 -1.047,-0.657 -1.664,-0.618Zm14.648,0.68c-0.405,-0.059 -0.813,-0.091 -1.222,-0.096c-1.027,-0.136 -2.036,0.384 -2.52,1.3l-0,8.3l-3.38,-0l-0,-12.68l3.2,-0l0.094,1.512c0.53,-1.071 1.629,-1.75 2.824,-1.746c0.357,-0.003 0.713,0.049 1.055,0.152l-0.051,3.258Zm8.5,6c-0.001,-0.416 -0.24,-0.797 -0.615,-0.979c-0.623,-0.31 -1.289,-0.525 -1.975,-0.639c-3.015,-0.633 -4.523,-1.914 -4.523,-3.844c-0.008,-1.108 0.512,-2.155 1.4,-2.818c1.051,-0.792 2.347,-1.192 3.662,-1.131c1.378,-0.07 2.741,0.331 3.861,1.137c0.932,0.691 1.472,1.793 1.447,2.953l-3.39,-0c0.014,-0.447 -0.156,-0.881 -0.469,-1.2c-0.404,-0.349 -0.933,-0.52 -1.465,-0.475c-0.473,-0.03 -0.942,0.107 -1.324,0.387c-0.302,0.236 -0.476,0.601 -0.469,0.984c0.001,0.376 0.205,0.724 0.533,0.908c0.561,0.303 1.17,0.506 1.8,0.6c0.724,0.136 1.437,0.325 2.133,0.568c1.789,0.656 2.684,1.793 2.684,3.41c0.015,1.127 -0.547,2.187 -1.488,2.807c-1.135,0.756 -2.482,1.132 -3.844,1.072c-0.973,0.018 -1.939,-0.176 -2.83,-0.568c-0.773,-0.338 -1.443,-0.876 -1.939,-1.559c-0.455,-0.62 -0.7,-1.37 -0.7,-2.139l3.211,-0c0,0.538 0.247,1.048 0.668,1.383c0.485,0.342 1.071,0.511 1.664,0.48c0.517,0.036 1.032,-0.094 1.471,-0.369c0.315,-0.219 0.5,-0.581 0.493,-0.964l0.004,-0.004Zm12.82,3.5c-0.173,-0.359 -0.288,-0.742 -0.34,-1.137c-0.81,0.909 -1.983,1.412 -3.2,1.371c-1.128,0.041 -2.231,-0.344 -3.088,-1.078c-0.797,-0.675 -1.247,-1.675 -1.225,-2.719c-0.061,-1.217 0.503,-2.385 1.494,-3.094c1.292,-0.8 2.801,-1.18 4.318,-1.09l1.559,-0l-0,-0.727c0.026,-0.508 -0.135,-1.008 -0.451,-1.406c-0.372,-0.38 -0.895,-0.573 -1.424,-0.527c-0.482,-0.028 -0.958,0.117 -1.342,0.41c-0.327,0.28 -0.506,0.695 -0.486,1.125l-3.389,-0c0,-0.735 0.239,-1.451 0.68,-2.039c0.494,-0.657 1.159,-1.166 1.922,-1.471c0.883,-0.366 1.833,-0.548 2.789,-0.533c1.342,-0.072 2.665,0.347 3.721,1.178c0.94,0.835 1.448,2.056 1.377,3.311l-0,5.5c-0.047,0.936 0.124,1.871 0.5,2.73l-0,0.2l-3.415,-0.004Zm-2.8,-2.355c0.481,0.005 0.957,-0.11 1.383,-0.334c0.396,-0.198 0.723,-0.512 0.938,-0.9l-0,-2.18l-1.27,-0c-1.695,-0 -2.598,0.586 -2.707,1.758l-0.012,0.2c-0.011,0.396 0.152,0.777 0.445,1.043c0.337,0.291 0.774,0.44 1.219,0.417l0.004,-0.004Z" style="fill:#d64626;fill-rule:nonzero;"/><path id="Trazado_32393" d="M528.931,348.351l3.223,-10.693l3.257,-0l-4.947,14.218l-3.053,-0l-4.932,-14.219l3.252,-0l3.2,10.694Zm12.07,3.725c-1.402,0.055 -2.769,-0.461 -3.784,-1.43c-0.996,-1.006 -1.526,-2.386 -1.46,-3.8l0,-0.27c-0.017,-0.984 0.193,-1.958 0.615,-2.847c0.377,-0.802 0.982,-1.475 1.739,-1.936c0.778,-0.46 1.669,-0.695 2.573,-0.679c1.282,-0.066 2.531,0.434 3.413,1.367c0.89,1.088 1.336,2.474 1.245,3.877l0,1.152l-6.729,-0c0.064,0.635 0.357,1.226 0.825,1.66c0.479,0.424 1.104,0.647 1.743,0.625c0.991,0.045 1.943,-0.397 2.549,-1.182l1.387,1.553c-0.439,0.611 -1.032,1.094 -1.719,1.4c-0.752,0.344 -1.57,0.518 -2.397,0.51Zm-0.322,-8.682c-0.515,-0.019 -1.013,0.19 -1.362,0.569c-0.384,0.462 -0.617,1.03 -0.669,1.628l3.926,-0l0,-0.226c0.022,-0.532 -0.16,-1.054 -0.508,-1.457c-0.368,-0.361 -0.872,-0.55 -1.387,-0.518l0,0.004Zm8.867,-2.08l0.088,1.221c0.727,-0.93 1.857,-1.457 3.037,-1.416c0.94,-0.073 1.863,0.291 2.5,0.986c0.609,0.858 0.905,1.899 0.84,2.949l0,6.822l-2.822,-0l0,-6.773c0.042,-0.47 -0.098,-0.938 -0.391,-1.307c-0.36,-0.306 -0.83,-0.452 -1.3,-0.406c-0.74,-0.03 -1.435,0.366 -1.787,1.018l0,7.468l-2.822,-0l0,-10.566l2.657,0.004Zm11.982,-2.6l0,2.6l1.807,-0l0,2.062l-1.807,-0l0,5.273c-0.027,0.298 0.053,0.596 0.225,0.84c0.239,0.2 0.55,0.292 0.859,0.254c0.278,0.003 0.556,-0.02 0.83,-0.068l-0,2.142c-0.554,0.171 -1.13,0.258 -1.709,0.259c-1.979,-0 -2.986,-1 -3.022,-3l-0,-5.7l-1.543,-0l-0,-2.07l1.543,-0l-0,-2.6l2.817,0.008Zm9.502,13.162c-0.144,-0.299 -0.239,-0.618 -0.283,-0.947c-0.674,0.759 -1.652,1.18 -2.666,1.147c-0.939,0.032 -1.856,-0.289 -2.57,-0.9c-0.664,-0.563 -1.039,-1.396 -1.021,-2.266c-0.051,-1.014 0.419,-1.987 1.245,-2.578c1.077,-0.667 2.335,-0.984 3.6,-0.908l1.3,-0l0,-0.605c0.022,-0.423 -0.112,-0.84 -0.376,-1.172c-0.31,-0.317 -0.746,-0.478 -1.187,-0.439c-0.401,-0.023 -0.798,0.098 -1.118,0.342c-0.273,0.233 -0.422,0.58 -0.405,0.938l-2.822,-0c-0,-0.613 0.199,-1.21 0.566,-1.7c0.411,-0.547 0.965,-0.971 1.6,-1.226c0.736,-0.305 1.527,-0.456 2.324,-0.444c1.118,-0.06 2.22,0.289 3.1,0.981c0.783,0.696 1.206,1.713 1.147,2.759l0,4.58c-0.038,0.781 0.106,1.559 0.42,2.275l0,0.163l-2.854,-0Zm-2.334,-1.963c0.401,0.004 0.797,-0.092 1.152,-0.278c0.33,-0.165 0.602,-0.425 0.781,-0.747l0,-1.812l-1.055,-0c-1.413,-0 -2.165,0.488 -2.256,1.465l-0.01,0.166c-0.009,0.33 0.126,0.648 0.371,0.869c0.283,0.239 0.647,0.36 1.017,0.337Zm14.561,-8.6l0.088,1.182c0.737,-0.913 1.865,-1.424 3.037,-1.377c1.176,-0.104 2.299,0.542 2.8,1.611c0.703,-1.054 1.909,-1.666 3.174,-1.611c0.96,-0.075 1.904,0.293 2.559,1c0.623,0.875 0.921,1.942 0.84,3.013l-0,6.745l-2.83,-0l0,-6.754c0.039,-0.466 -0.086,-0.931 -0.352,-1.316c-0.332,-0.314 -0.786,-0.466 -1.24,-0.416c-0.79,-0.037 -1.513,0.461 -1.758,1.213l0.01,7.273l-2.822,-0l0,-6.744c0.041,-0.472 -0.087,-0.944 -0.362,-1.331c-0.332,-0.308 -0.78,-0.457 -1.23,-0.411c-0.725,-0.042 -1.41,0.352 -1.738,1l0,7.486l-2.822,-0l0,-10.566l2.646,0.003Zm17.646,10.563l-2.832,-0l0,-10.566l2.832,-0l0,10.566Zm-3,-13.3c-0.012,-0.393 0.142,-0.773 0.425,-1.045c0.316,-0.285 0.732,-0.433 1.157,-0.41c0.423,-0.021 0.838,0.126 1.152,0.41c0.286,0.271 0.442,0.652 0.43,1.045c0.013,0.398 -0.145,0.782 -0.435,1.055c-0.313,0.282 -0.726,0.43 -1.147,0.41c-0.421,0.02 -0.834,-0.128 -1.147,-0.41c-0.289,-0.273 -0.447,-0.658 -0.433,-1.055l-0.002,-0Zm7.92,2.734l0.088,1.22c0.727,-0.93 1.857,-1.457 3.037,-1.416c0.94,-0.073 1.863,0.291 2.5,0.986c0.609,0.858 0.905,1.899 0.84,2.949l0,6.827l-2.82,-0l0,-6.773c0.042,-0.47 -0.098,-0.938 -0.391,-1.307c-0.36,-0.306 -0.83,-0.452 -1.3,-0.406c-0.74,-0.03 -1.435,0.366 -1.786,1.018l0,7.468l-2.822,-0l0,-10.566l2.654,-0Zm8.164,5.186c-0.017,-0.967 0.19,-1.926 0.605,-2.8c0.38,-0.792 0.987,-1.453 1.743,-1.9c0.803,-0.461 1.716,-0.694 2.642,-0.674c1.292,-0.053 2.552,0.416 3.494,1.301c0.935,0.95 1.475,2.22 1.509,3.553l0.02,0.723c0.069,1.426 -0.418,2.825 -1.357,3.9c-0.941,0.999 -2.273,1.538 -3.644,1.477c-1.37,0.061 -2.702,-0.476 -3.647,-1.47c-0.953,-1.101 -1.441,-2.53 -1.362,-3.984l-0.003,-0.126Zm2.822,0.2c-0.051,0.806 0.147,1.609 0.566,2.3c0.366,0.527 0.98,0.83 1.621,0.8c0.631,0.025 1.234,-0.272 1.6,-0.787c0.444,-0.761 0.645,-1.64 0.576,-2.518c0.048,-0.804 -0.153,-1.604 -0.576,-2.289c-0.364,-0.531 -0.978,-0.838 -1.621,-0.812c-0.636,-0.026 -1.243,0.28 -1.6,0.807c-0.432,0.758 -0.628,1.628 -0.564,2.498l-0.002,0.001Zm14.866,-2.74c-0.337,-0.049 -0.676,-0.076 -1.016,-0.08c-0.856,-0.114 -1.697,0.32 -2.1,1.084l-0,6.916l-2.822,-0l-0,-10.566l2.666,-0l0.078,1.26c0.442,-0.893 1.358,-1.459 2.354,-1.455c0.298,-0.002 0.594,0.041 0.879,0.127l-0.039,2.714Zm4.336,7.92l-2.832,-0l-0,-10.566l2.832,-0l-0,10.566Zm-3,-13.3c-0.012,-0.393 0.142,-0.773 0.425,-1.045c0.316,-0.285 0.732,-0.433 1.157,-0.41c0.423,-0.021 0.838,0.126 1.152,0.41c0.286,0.271 0.442,0.652 0.43,1.045c0.013,0.398 -0.145,0.782 -0.435,1.055c-0.313,0.282 -0.726,0.43 -1.147,0.41c-0.421,0.02 -0.834,-0.128 -1.147,-0.41c-0.29,-0.273 -0.448,-0.657 -0.435,-1.055Zm11.047,10.38c-0.001,-0.347 -0.201,-0.664 -0.513,-0.815c-0.519,-0.258 -1.074,-0.438 -1.646,-0.532c-2.513,-0.527 -3.77,-1.594 -3.77,-3.2c-0.008,-0.923 0.426,-1.797 1.167,-2.349c0.876,-0.66 1.956,-0.993 3.052,-0.942c1.149,-0.059 2.284,0.275 3.218,0.947c0.776,0.576 1.227,1.495 1.206,2.461l-2.822,-0c0.012,-0.373 -0.13,-0.734 -0.391,-1c-0.336,-0.292 -0.777,-0.437 -1.221,-0.4c-0.393,-0.024 -0.782,0.09 -1.1,0.322c-0.252,0.197 -0.397,0.501 -0.391,0.82c0.001,0.314 0.171,0.603 0.444,0.757c0.467,0.253 0.975,0.422 1.5,0.5c0.603,0.113 1.197,0.272 1.777,0.474c1.308,0.315 2.237,1.496 2.236,2.842c0.011,0.938 -0.458,1.82 -1.242,2.335c-0.945,0.63 -2.066,0.943 -3.2,0.894c-0.811,0.015 -1.616,-0.147 -2.358,-0.474c-0.645,-0.282 -1.203,-0.731 -1.616,-1.3c-0.38,-0.517 -0.585,-1.141 -0.586,-1.782l2.676,-0c0,0.449 0.206,0.873 0.557,1.152c0.404,0.285 0.893,0.426 1.387,0.4c0.431,0.029 0.86,-0.078 1.226,-0.308c0.262,-0.182 0.416,-0.483 0.41,-0.802Zm7.939,-10.244l-0,2.6l1.807,-0l-0,2.064l-1.807,-0l-0,5.273c-0.027,0.298 0.053,0.596 0.225,0.84c0.239,0.2 0.55,0.292 0.859,0.254c0.278,0.003 0.556,-0.019 0.83,-0.067l-0,2.141c-0.554,0.171 -1.13,0.258 -1.709,0.259c-1.979,-0 -2.988,-1 -3.027,-3l-0,-5.7l-1.543,-0l-0,-2.07l1.543,-0l-0,-2.6l2.822,0.006Zm9.502,13.164c-0.146,-0.298 -0.243,-0.618 -0.288,-0.947c-0.672,0.758 -1.648,1.179 -2.661,1.147c-0.94,0.033 -1.859,-0.288 -2.573,-0.9c-0.664,-0.563 -1.039,-1.396 -1.021,-2.266c-0.052,-1.015 0.418,-1.99 1.245,-2.581c1.077,-0.667 2.335,-0.984 3.6,-0.908l1.3,-0l-0,-0.605c0.022,-0.423 -0.112,-0.84 -0.376,-1.172c-0.31,-0.317 -0.746,-0.478 -1.187,-0.439c-0.401,-0.023 -0.798,0.098 -1.118,0.342c-0.273,0.233 -0.422,0.58 -0.405,0.938l-2.825,-0c-0,-0.613 0.199,-1.21 0.566,-1.7c0.411,-0.547 0.965,-0.971 1.6,-1.226c0.736,-0.305 1.527,-0.456 2.324,-0.444c1.118,-0.06 2.22,0.289 3.1,0.981c0.784,0.695 1.209,1.712 1.151,2.759l-0,4.58c-0.038,0.781 0.106,1.559 0.42,2.275l-0,0.166l-2.852,-0Zm-2.334,-1.963c0.401,0.004 0.797,-0.092 1.152,-0.278c0.33,-0.165 0.602,-0.425 0.781,-0.747l-0,-1.812l-1.054,-0c-1.413,-0 -2.165,0.488 -2.256,1.465l-0.01,0.166c-0.009,0.33 0.126,0.648 0.371,0.869c0.283,0.239 0.647,0.359 1.016,0.337Z" style="fill:#97181a;fill-rule:nonzero;"/><path id="Trazado_32387" d="M534.483,157.903l0,-14.219l4.375,-0c1.173,-0.019 2.33,0.272 3.354,0.845c0.985,0.561 1.787,1.395 2.31,2.4c0.566,1.093 0.852,2.309 0.83,3.54l0,0.654c0.023,1.224 -0.257,2.435 -0.815,3.525c-0.519,1.003 -1.318,1.835 -2.3,2.393c-1.021,0.576 -2.177,0.873 -3.349,0.862l-4.405,-0Zm2.93,-11.846l0,9.492l1.416,-0c1.003,0.062 1.979,-0.355 2.627,-1.123c0.663,-0.935 0.991,-2.068 0.928,-3.213l0,-0.752c0.081,-1.165 -0.236,-2.324 -0.9,-3.286c-0.648,-0.767 -1.624,-1.183 -2.627,-1.118l-1.444,-0Zm12.861,11.846l-2.832,-0l0,-10.566l2.832,-0l0,10.566Zm-3,-13.3c-0.012,-0.393 0.142,-0.773 0.425,-1.045c0.316,-0.285 0.732,-0.433 1.157,-0.41c0.423,-0.021 0.838,0.126 1.152,0.41c0.286,0.271 0.442,0.652 0.43,1.045c0.013,0.398 -0.145,0.782 -0.435,1.055c-0.313,0.282 -0.726,0.43 -1.147,0.41c-0.421,0.02 -0.834,-0.128 -1.147,-0.41c-0.289,-0.273 -0.447,-0.658 -0.433,-1.055l-0.002,-0Zm11.047,10.38c-0.001,-0.347 -0.201,-0.664 -0.513,-0.815c-0.519,-0.258 -1.074,-0.438 -1.646,-0.532c-2.513,-0.527 -3.77,-1.594 -3.77,-3.2c-0.008,-0.923 0.426,-1.797 1.167,-2.349c0.876,-0.66 1.956,-0.993 3.052,-0.942c1.149,-0.059 2.284,0.275 3.218,0.947c0.776,0.576 1.227,1.495 1.206,2.461l-2.822,-0c0.012,-0.373 -0.13,-0.734 -0.391,-1c-0.336,-0.292 -0.777,-0.437 -1.221,-0.4c-0.393,-0.024 -0.782,0.09 -1.1,0.322c-0.252,0.197 -0.397,0.501 -0.391,0.82c0.001,0.314 0.171,0.603 0.444,0.757c0.467,0.253 0.975,0.422 1.5,0.5c0.603,0.113 1.197,0.272 1.777,0.474c1.308,0.315 2.237,1.496 2.236,2.842c0.011,0.938 -0.458,1.82 -1.242,2.335c-0.945,0.63 -2.066,0.943 -3.2,0.894c-0.811,0.015 -1.616,-0.147 -2.358,-0.474c-0.645,-0.282 -1.203,-0.731 -1.616,-1.3c-0.38,-0.517 -0.585,-1.141 -0.586,-1.782l2.676,-0c-0.001,0.449 0.204,0.875 0.556,1.155c0.404,0.285 0.893,0.426 1.387,0.4c0.431,0.029 0.86,-0.078 1.226,-0.308c0.263,-0.182 0.417,-0.485 0.411,-0.805Zm7.939,-10.244l-0,2.6l1.807,-0l-0,2.064l-1.807,-0l-0,5.273c-0.027,0.298 0.053,0.596 0.225,0.84c0.239,0.2 0.55,0.292 0.859,0.254c0.278,0.003 0.556,-0.02 0.83,-0.068l-0,2.142c-0.553,0.171 -1.129,0.258 -1.708,0.259c-1.979,-0 -2.988,-1 -3.027,-3l-0,-5.7l-1.542,-0l-0,-2.07l1.543,-0l-0,-2.6l2.82,0.006Zm9.317,5.244c-0.337,-0.049 -0.676,-0.076 -1.016,-0.08c-0.856,-0.114 -1.697,0.32 -2.1,1.084l-0,6.916l-2.822,-0l-0,-10.566l2.666,-0l0.078,1.26c0.442,-0.893 1.358,-1.459 2.354,-1.455c0.298,-0.002 0.594,0.041 0.879,0.127l-0.039,2.714Zm4.336,7.92l-2.832,-0l-0,-10.566l2.832,-0l-0,10.566Zm-3,-13.3c-0.012,-0.393 0.142,-0.773 0.425,-1.045c0.316,-0.285 0.732,-0.433 1.157,-0.41c0.423,-0.021 0.838,0.126 1.152,0.41c0.286,0.271 0.442,0.652 0.43,1.045c0.013,0.398 -0.145,0.782 -0.435,1.055c-0.313,0.282 -0.726,0.43 -1.147,0.41c-0.421,0.02 -0.834,-0.128 -1.147,-0.41c-0.289,-0.273 -0.447,-0.658 -0.433,-1.055l-0.002,-0Zm14.846,8.114c0.083,1.403 -0.298,2.795 -1.084,3.96c-0.712,0.945 -1.846,1.479 -3.028,1.426c-1.075,0.033 -2.1,-0.462 -2.744,-1.323l-0.127,1.123l-2.539,-0l-0,-15l2.823,-0l-0,5.381c0.635,-0.754 1.583,-1.176 2.568,-1.143c1.181,-0.05 2.315,0.481 3.032,1.421c0.8,1.174 1.187,2.582 1.1,4l-0.001,0.155Zm-2.823,-0.214c0.061,-0.815 -0.116,-1.63 -0.508,-2.346c-0.34,-0.494 -0.915,-0.775 -1.514,-0.74c-0.789,-0.064 -1.536,0.382 -1.854,1.107l-0,4.179c0.322,0.732 1.077,1.183 1.875,1.12c0.846,0.049 1.611,-0.526 1.8,-1.352c0.16,-0.643 0.228,-1.306 0.201,-1.968Zm10.889,4.326c-0.709,0.854 -1.781,1.327 -2.89,1.274c-0.965,0.064 -1.912,-0.294 -2.593,-0.981c-0.649,-0.807 -0.975,-1.827 -0.913,-2.861l-0,-6.924l2.822,-0l-0,6.834c-0,1.101 0.5,1.652 1.5,1.652c0.796,0.083 1.57,-0.309 1.973,-1l-0,-7.489l2.832,-0l-0,10.569l-2.653,-0l-0.078,-1.074Zm7.842,1.074l-2.832,-0l-0,-10.566l2.832,-0l-0,10.566Zm-3,-13.3c-0.012,-0.393 0.142,-0.773 0.425,-1.045c0.316,-0.285 0.732,-0.433 1.157,-0.41c0.423,-0.021 0.838,0.126 1.152,0.41c0.286,0.271 0.442,0.652 0.43,1.045c0.013,0.398 -0.145,0.782 -0.435,1.055c-0.313,0.282 -0.726,0.43 -1.147,0.41c-0.421,0.02 -0.834,-0.128 -1.147,-0.41c-0.289,-0.273 -0.447,-0.658 -0.433,-1.055l-0.002,-0Zm4.883,7.939c-0.073,-1.399 0.317,-2.784 1.11,-3.939c0.707,-0.96 1.846,-1.508 3.037,-1.462c0.98,-0.022 1.918,0.402 2.549,1.152l-0,-5.39l2.832,-0l-0,15l-2.554,-0l-0.137,-1.123c-0.64,0.85 -1.65,1.342 -2.714,1.323c-1.178,0.032 -2.298,-0.519 -2.993,-1.47c-0.818,-1.201 -1.215,-2.64 -1.128,-4.091l-0.002,-0Zm2.822,0.2c-0.048,0.796 0.132,1.589 0.518,2.286c0.32,0.515 0.894,0.82 1.5,0.795c0.785,0.052 1.523,-0.392 1.846,-1.109l-0,-4.189c-0.314,-0.715 -1.046,-1.16 -1.826,-1.109c-1.357,0.001 -2.036,1.109 -2.036,3.326l-0.002,-0Zm8.447,-0.22c-0.017,-0.967 0.19,-1.926 0.605,-2.8c0.38,-0.792 0.987,-1.453 1.743,-1.9c0.803,-0.461 1.716,-0.694 2.642,-0.674c1.292,-0.05 2.551,0.422 3.491,1.309c0.935,0.947 1.475,2.216 1.511,3.546l0.02,0.723c0.069,1.426 -0.418,2.825 -1.357,3.9c-0.941,0.998 -2.272,1.538 -3.643,1.477c-1.37,0.061 -2.702,-0.476 -3.647,-1.47c-0.953,-1.101 -1.441,-2.53 -1.362,-3.984l-0.003,-0.127Zm2.822,0.2c-0.051,0.806 0.147,1.609 0.566,2.3c0.366,0.527 0.98,0.83 1.621,0.8c0.631,0.025 1.234,-0.272 1.6,-0.787c0.444,-0.761 0.645,-1.64 0.576,-2.518c0.048,-0.804 -0.153,-1.604 -0.576,-2.289c-0.364,-0.531 -0.978,-0.838 -1.621,-0.812c-0.636,-0.026 -1.243,0.28 -1.6,0.807c-0.432,0.758 -0.628,1.629 -0.564,2.499l-0.002,-0Zm14.866,-2.739c-0.337,-0.049 -0.676,-0.076 -1.016,-0.08c-0.856,-0.114 -1.697,0.32 -2.1,1.084l-0,6.916l-2.822,-0l-0,-10.566l2.666,-0l0.078,1.26c0.442,-0.893 1.358,-1.459 2.354,-1.455c0.298,-0.002 0.594,0.041 0.879,0.127l-0.039,2.714Z" style="fill:#97181a;fill-rule:nonzero;"/><path id="Trazado_32391" d="M107.782,352.671l-2.334,-0l0,5.205l-2.93,-0l0,-14.219l5.283,-0c1.386,-0.09 2.761,0.305 3.887,1.119c0.928,0.784 1.434,1.961 1.367,3.174c0.031,0.853 -0.188,1.697 -0.63,2.427c-0.472,0.691 -1.136,1.229 -1.909,1.548l3.077,5.814l0,0.137l-3.145,-0l-2.666,-5.205Zm-2.334,-2.373l2.363,-0c0.621,0.039 1.233,-0.162 1.709,-0.562c0.416,-0.404 0.636,-0.969 0.605,-1.548c0.033,-0.583 -0.174,-1.154 -0.571,-1.582c-0.483,-0.42 -1.115,-0.628 -1.753,-0.576l-2.354,-0l0.001,4.268Zm14.512,7.778c-1.402,0.055 -2.769,-0.461 -3.784,-1.43c-0.996,-1.006 -1.526,-2.386 -1.46,-3.8l0,-0.27c-0.017,-0.985 0.194,-1.96 0.617,-2.849c0.378,-0.802 0.985,-1.475 1.743,-1.934c0.778,-0.46 1.669,-0.695 2.573,-0.679c1.282,-0.066 2.531,0.434 3.413,1.367c0.89,1.088 1.336,2.474 1.245,3.877l0,1.152l-6.729,-0c0.064,0.635 0.357,1.226 0.825,1.66c0.479,0.424 1.104,0.647 1.743,0.625c0.991,0.045 1.943,-0.397 2.549,-1.182l1.387,1.553c-0.439,0.611 -1.032,1.094 -1.719,1.4c-0.754,0.345 -1.574,0.519 -2.403,0.51Zm-0.327,-8.686c-0.515,-0.019 -1.013,0.19 -1.362,0.569c-0.384,0.462 -0.617,1.03 -0.669,1.628l3.931,-0l0,-0.226c0.022,-0.532 -0.16,-1.054 -0.508,-1.457c-0.37,-0.361 -0.876,-0.548 -1.392,-0.514Zm10.669,6.406c0.462,0.02 0.915,-0.133 1.27,-0.43c0.327,-0.289 0.512,-0.707 0.508,-1.143l2.646,-0c-0.001,0.699 -0.205,1.382 -0.586,1.968c-0.388,0.598 -0.934,1.078 -1.578,1.385c-0.689,0.336 -1.446,0.507 -2.212,0.5c-1.344,0.068 -2.652,-0.459 -3.574,-1.44c-0.925,-1.112 -1.393,-2.535 -1.309,-3.979l0,-0.191c-0.073,-1.417 0.391,-2.81 1.3,-3.9c0.913,-0.989 2.221,-1.522 3.566,-1.452c1.166,-0.056 2.309,0.349 3.179,1.128c0.81,0.783 1.252,1.874 1.216,3l-2.646,-0c0.008,-0.495 -0.174,-0.975 -0.508,-1.34c-0.336,-0.348 -0.806,-0.535 -1.289,-0.515c-0.587,-0.034 -1.151,0.238 -1.489,0.719c-0.391,0.712 -0.564,1.523 -0.5,2.333l0,0.293c-0.064,0.814 0.11,1.63 0.5,2.347c0.345,0.482 0.915,0.753 1.506,0.717Zm5.6,-3.3c-0.017,-0.967 0.19,-1.926 0.605,-2.8c0.38,-0.792 0.987,-1.453 1.743,-1.9c0.803,-0.461 1.716,-0.694 2.642,-0.674c1.292,-0.05 2.551,0.422 3.491,1.309c0.932,0.948 1.47,2.216 1.504,3.545l0.02,0.723c0.069,1.426 -0.418,2.825 -1.357,3.9c-0.941,0.998 -2.272,1.538 -3.643,1.477c-1.37,0.061 -2.702,-0.476 -3.647,-1.47c-0.953,-1.101 -1.441,-2.53 -1.362,-3.984l0.004,-0.126Zm2.822,0.2c-0.051,0.806 0.147,1.609 0.566,2.3c0.366,0.527 0.98,0.83 1.621,0.8c0.631,0.025 1.234,-0.272 1.6,-0.787c0.444,-0.761 0.645,-1.64 0.576,-2.518c0.048,-0.804 -0.153,-1.604 -0.576,-2.289c-0.364,-0.531 -0.978,-0.838 -1.621,-0.812c-0.636,-0.026 -1.243,0.28 -1.6,0.807c-0.434,0.757 -0.632,1.627 -0.57,2.498l0.004,0.001Zm11.9,5.18l-2.832,-0l0,-15l2.832,-0l0,15Zm7.188,0.2c-1.403,0.055 -2.769,-0.461 -3.785,-1.43c-0.996,-1.006 -1.526,-2.386 -1.46,-3.8l0,-0.27c-0.017,-0.984 0.193,-1.958 0.615,-2.847c0.378,-0.802 0.985,-1.475 1.743,-1.934c0.778,-0.46 1.669,-0.695 2.573,-0.679c1.282,-0.067 2.531,0.432 3.414,1.365c0.89,1.088 1.336,2.474 1.245,3.877l0,1.152l-6.724,-0c0.064,0.635 0.357,1.226 0.825,1.66c0.479,0.424 1.104,0.647 1.743,0.625c0.989,0.044 1.94,-0.397 2.545,-1.181l1.387,1.553c-0.438,0.611 -1.032,1.095 -1.719,1.401c-0.754,0.344 -1.574,0.517 -2.403,0.508l0.001,-0Zm-0.322,-8.682c-0.515,-0.019 -1.013,0.19 -1.362,0.569c-0.384,0.462 -0.617,1.03 -0.669,1.628l3.925,-0l0,-0.226c0.022,-0.532 -0.16,-1.054 -0.508,-1.457c-0.368,-0.361 -0.872,-0.55 -1.387,-0.518l0.001,0.004Zm10.663,6.402c0.462,0.02 0.915,-0.133 1.27,-0.43c0.327,-0.289 0.514,-0.706 0.51,-1.142l2.646,-0c-0.001,0.699 -0.205,1.382 -0.586,1.968c-0.389,0.598 -0.935,1.077 -1.579,1.384c-0.689,0.336 -1.446,0.507 -2.212,0.5c-1.344,0.068 -2.652,-0.459 -3.574,-1.44c-0.927,-1.113 -1.395,-2.539 -1.309,-3.985l0,-0.185c-0.073,-1.417 0.391,-2.81 1.3,-3.9c0.912,-0.99 2.22,-1.523 3.564,-1.455c1.166,-0.056 2.309,0.349 3.179,1.128c0.81,0.783 1.252,1.874 1.216,3l-2.645,-0c0.008,-0.495 -0.174,-0.975 -0.508,-1.34c-0.338,-0.346 -0.809,-0.532 -1.292,-0.509c-0.587,-0.034 -1.151,0.238 -1.489,0.719c-0.391,0.712 -0.564,1.523 -0.5,2.333l0,0.293c-0.064,0.814 0.11,1.63 0.5,2.347c0.346,0.482 0.917,0.752 1.509,0.714Zm10.43,-0c0.462,0.02 0.915,-0.133 1.27,-0.43c0.327,-0.289 0.512,-0.707 0.508,-1.143l2.646,-0c-0.001,0.699 -0.205,1.382 -0.586,1.968c-0.388,0.598 -0.934,1.078 -1.577,1.385c-0.688,0.336 -1.445,0.507 -2.211,0.5c-1.344,0.068 -2.652,-0.459 -3.574,-1.44c-0.925,-1.112 -1.393,-2.535 -1.309,-3.979l0,-0.191c-0.073,-1.417 0.391,-2.81 1.3,-3.9c0.912,-0.99 2.22,-1.523 3.564,-1.455c1.166,-0.056 2.309,0.349 3.179,1.128c0.81,0.783 1.252,1.874 1.216,3l-2.649,-0c0.008,-0.495 -0.174,-0.975 -0.508,-1.34c-0.336,-0.348 -0.806,-0.535 -1.289,-0.515c-0.587,-0.034 -1.151,0.238 -1.489,0.719c-0.391,0.712 -0.564,1.523 -0.5,2.333l0,0.293c-0.064,0.814 0.11,1.63 0.5,2.347c0.344,0.484 0.916,0.757 1.509,0.72Zm9.013,2.08l-2.832,-0l0,-10.566l2.832,-0l0,10.566Zm-3,-13.3c-0.012,-0.393 0.142,-0.773 0.425,-1.045c0.316,-0.285 0.732,-0.433 1.157,-0.41c0.423,-0.021 0.838,0.126 1.152,0.41c0.286,0.271 0.442,0.652 0.43,1.045c0.013,0.398 -0.145,0.782 -0.435,1.055c-0.313,0.282 -0.726,0.43 -1.147,0.41c-0.421,0.019 -0.832,-0.129 -1.145,-0.411c-0.289,-0.273 -0.448,-0.657 -0.435,-1.054l-0.002,-0Zm4.883,7.92c-0.017,-0.967 0.19,-1.926 0.605,-2.8c0.38,-0.792 0.987,-1.453 1.743,-1.9c0.803,-0.461 1.716,-0.694 2.642,-0.674c1.292,-0.053 2.552,0.416 3.494,1.301c0.935,0.95 1.475,2.221 1.508,3.553l0.02,0.723c0.069,1.426 -0.418,2.825 -1.357,3.9c-0.941,0.998 -2.272,1.538 -3.643,1.477c-1.37,0.061 -2.702,-0.476 -3.647,-1.47c-0.953,-1.101 -1.441,-2.53 -1.362,-3.984l-0.003,-0.126Zm2.822,0.2c-0.051,0.806 0.147,1.609 0.566,2.3c0.366,0.527 0.98,0.83 1.621,0.8c0.631,0.025 1.234,-0.272 1.6,-0.787c0.444,-0.761 0.645,-1.64 0.576,-2.518c0.048,-0.804 -0.153,-1.604 -0.576,-2.289c-0.364,-0.531 -0.978,-0.838 -1.621,-0.812c-0.636,-0.026 -1.243,0.28 -1.6,0.807c-0.431,0.758 -0.627,1.628 -0.563,2.498l-0.003,0.001Zm2.732,-9.82l3.076,-0l-2.705,3.027l-2.3,-0l1.929,-3.027Zm8.8,4.434l0.088,1.221c0.727,-0.93 1.857,-1.457 3.037,-1.416c0.94,-0.073 1.863,0.291 2.5,0.986c0.609,0.858 0.905,1.899 0.84,2.949l0,6.826l-2.828,-0l0,-6.773c0.042,-0.47 -0.098,-0.938 -0.391,-1.307c-0.36,-0.306 -0.83,-0.452 -1.3,-0.406c-0.74,-0.03 -1.435,0.366 -1.786,1.018l0,7.468l-2.822,-0l0,-10.566l2.662,-0Z" style="fill:#97181a;fill-rule:nonzero;"/><path id="Trazado_32389" d="M112.03,152.698l-2.334,-0l-0,5.205l-2.93,-0l-0,-14.219l5.283,-0c1.388,-0.092 2.765,0.304 3.892,1.119c0.928,0.784 1.434,1.961 1.367,3.174c0.031,0.853 -0.188,1.697 -0.63,2.427c-0.472,0.691 -1.136,1.229 -1.909,1.548l3.076,5.811l-0,0.14l-3.145,-0l-2.67,-5.205Zm-2.334,-2.373l2.363,-0c0.621,0.039 1.233,-0.162 1.709,-0.562c0.416,-0.404 0.636,-0.969 0.605,-1.548c0.033,-0.583 -0.174,-1.154 -0.571,-1.582c-0.483,-0.42 -1.115,-0.628 -1.753,-0.576l-2.354,-0l0.001,4.268Zm14.517,7.778c-1.402,0.055 -2.768,-0.462 -3.783,-1.43c-0.996,-1.006 -1.526,-2.386 -1.46,-3.8l-0,-0.27c-0.017,-0.984 0.193,-1.958 0.615,-2.847c0.379,-0.803 0.986,-1.476 1.745,-1.936c0.778,-0.46 1.669,-0.695 2.573,-0.679c1.282,-0.066 2.531,0.434 3.413,1.367c0.89,1.088 1.336,2.474 1.245,3.877l0,1.152l-6.731,-0c0.064,0.635 0.357,1.226 0.825,1.66c0.479,0.424 1.104,0.647 1.743,0.625c0.991,0.045 1.943,-0.397 2.549,-1.182l1.383,1.554c-0.439,0.611 -1.032,1.094 -1.719,1.4c-0.752,0.343 -1.571,0.517 -2.398,0.509Zm-0.322,-8.682c-0.515,-0.019 -1.013,0.19 -1.362,0.569c-0.384,0.462 -0.617,1.03 -0.669,1.628l3.926,-0l-0,-0.226c0.022,-0.532 -0.16,-1.054 -0.508,-1.457c-0.368,-0.362 -0.873,-0.55 -1.388,-0.518l0.001,0.004Zm10.663,6.402c0.462,0.02 0.915,-0.133 1.27,-0.43c0.326,-0.289 0.511,-0.706 0.506,-1.142l2.646,-0c-0.001,0.699 -0.205,1.382 -0.586,1.968c-0.387,0.598 -0.933,1.077 -1.575,1.384c-0.689,0.336 -1.446,0.507 -2.212,0.5c-1.345,0.066 -2.652,-0.463 -3.573,-1.445c-0.926,-1.112 -1.394,-2.536 -1.31,-3.98l-0,-0.185c-0.073,-1.417 0.391,-2.81 1.3,-3.9c0.912,-0.99 2.22,-1.523 3.564,-1.455c1.166,-0.055 2.309,0.351 3.178,1.131c0.81,0.783 1.252,1.874 1.216,3l-2.648,-0c0.008,-0.495 -0.174,-0.975 -0.508,-1.34c-0.337,-0.348 -0.808,-0.534 -1.292,-0.512c-0.587,-0.034 -1.151,0.238 -1.489,0.719c-0.391,0.712 -0.564,1.523 -0.5,2.333l-0,0.293c-0.064,0.814 0.11,1.63 0.5,2.347c0.347,0.483 0.92,0.754 1.513,0.714Zm9.014,2.08l-2.832,-0l-0,-10.566l2.832,-0l-0,10.566Zm-3,-13.3c-0.012,-0.393 0.142,-0.773 0.425,-1.045c0.316,-0.285 0.732,-0.433 1.157,-0.41c0.423,-0.021 0.838,0.126 1.152,0.41c0.285,0.271 0.441,0.652 0.428,1.045c0.013,0.398 -0.145,0.782 -0.435,1.055c-0.313,0.282 -0.726,0.43 -1.147,0.41c-0.421,0.02 -0.834,-0.128 -1.147,-0.41c-0.288,-0.273 -0.445,-0.658 -0.431,-1.055l-0.002,-0Zm9.719,11.22c0.462,0.02 0.915,-0.133 1.27,-0.43c0.327,-0.289 0.512,-0.707 0.508,-1.143l2.646,-0c-0.001,0.699 -0.205,1.382 -0.586,1.968c-0.388,0.598 -0.934,1.078 -1.577,1.385c-0.689,0.336 -1.446,0.507 -2.212,0.5c-1.344,0.068 -2.652,-0.459 -3.574,-1.44c-0.927,-1.113 -1.395,-2.539 -1.309,-3.985l-0,-0.185c-0.073,-1.417 0.391,-2.81 1.3,-3.9c0.912,-0.99 2.22,-1.523 3.564,-1.455c1.166,-0.056 2.309,0.349 3.179,1.128c0.81,0.783 1.252,1.874 1.216,3l-2.648,-0c0.008,-0.495 -0.174,-0.975 -0.508,-1.34c-0.336,-0.348 -0.806,-0.535 -1.289,-0.515c-0.587,-0.034 -1.151,0.238 -1.489,0.719c-0.391,0.712 -0.564,1.523 -0.5,2.333l-0,0.293c-0.064,0.814 0.11,1.63 0.5,2.347c0.344,0.484 0.916,0.757 1.509,0.72Zm9.014,2.08l-2.833,-0l-0,-15l2.832,-0l0.001,15Zm8.447,-0c-0.144,-0.299 -0.239,-0.618 -0.283,-0.947c-0.674,0.759 -1.652,1.18 -2.666,1.147c-0.939,0.032 -1.856,-0.289 -2.569,-0.9c-0.664,-0.563 -1.039,-1.396 -1.021,-2.266c-0.053,-1.014 0.416,-1.989 1.241,-2.581c1.077,-0.667 2.335,-0.984 3.6,-0.908l1.3,-0l-0,-0.605c0.022,-0.423 -0.112,-0.84 -0.376,-1.172c-0.31,-0.317 -0.746,-0.478 -1.187,-0.439c-0.401,-0.023 -0.798,0.098 -1.118,0.342c-0.273,0.233 -0.422,0.58 -0.405,0.938l-2.825,-0c-0,-0.613 0.199,-1.21 0.566,-1.7c0.411,-0.547 0.965,-0.971 1.6,-1.226c0.736,-0.305 1.527,-0.456 2.324,-0.444c1.118,-0.061 2.221,0.288 3.101,0.981c0.783,0.696 1.206,1.713 1.147,2.759l-0,4.58c-0.038,0.781 0.106,1.559 0.42,2.275l-0,0.166l-2.849,-0Zm-2.334,-1.963c0.401,0.004 0.797,-0.092 1.152,-0.278c0.33,-0.165 0.602,-0.425 0.781,-0.747l-0,-1.812l-1.054,-0c-1.413,-0 -2.165,0.488 -2.256,1.465l-0.007,0.161c-0.009,0.33 0.126,0.648 0.371,0.869c0.281,0.24 0.644,0.362 1.013,0.342Zm12.871,-5.957c-0.337,-0.049 -0.676,-0.076 -1.016,-0.08c-0.856,-0.114 -1.697,0.32 -2.1,1.084l-0,6.916l-2.822,-0l-0,-10.566l2.666,-0l0.078,1.26c0.442,-0.893 1.358,-1.459 2.354,-1.455c0.298,-0.002 0.594,0.041 0.879,0.127l-0.039,2.714Z" style="fill:#97181a;fill-rule:nonzero;"/><path id="Trazado_32388" d="M324.459,43.108l-2.93,-0l0,-14.219l2.93,-0l-0,14.219Zm5.127,-10.566l0.088,1.221c0.727,-0.93 1.857,-1.457 3.037,-1.416c0.94,-0.073 1.863,0.291 2.5,0.986c0.609,0.858 0.905,1.899 0.84,2.949l0,6.826l-2.822,-0l0,-6.773c0.042,-0.47 -0.098,-0.938 -0.391,-1.307c-0.36,-0.306 -0.83,-0.452 -1.3,-0.406c-0.74,-0.03 -1.435,0.366 -1.787,1.018l0,7.468l-2.822,-0l0,-10.566l2.657,-0Zm8.164,5.205c-0.074,-1.399 0.316,-2.784 1.108,-3.939c0.705,-0.959 1.842,-1.509 3.032,-1.465c0.98,-0.022 1.918,0.402 2.549,1.152l0,-5.387l2.832,-0l0,15l-2.549,-0l-0.137,-1.123c-0.64,0.85 -1.65,1.342 -2.714,1.323c-1.178,0.032 -2.298,-0.519 -2.993,-1.47c-0.818,-1.201 -1.215,-2.64 -1.128,-4.091Zm2.822,0.2c-0.048,0.796 0.132,1.589 0.518,2.286c0.32,0.515 0.894,0.82 1.5,0.795c0.785,0.052 1.523,-0.392 1.846,-1.109l0,-4.189c-0.314,-0.715 -1.046,-1.16 -1.826,-1.109c-1.359,0.001 -2.038,1.109 -2.038,3.326Zm15.215,4.087c-0.709,0.853 -1.778,1.325 -2.886,1.274c-0.968,0.066 -1.917,-0.292 -2.6,-0.981c-0.649,-0.807 -0.975,-1.827 -0.913,-2.861l0,-6.924l2.822,-0l0,6.834c0,1.101 0.5,1.652 1.5,1.652c0.796,0.083 1.57,-0.309 1.973,-1l0,-7.489l2.832,-0l0,10.569l-2.65,-0l-0.078,-1.074Zm10.586,-1.846c-0.001,-0.347 -0.201,-0.664 -0.513,-0.815c-0.519,-0.258 -1.074,-0.438 -1.646,-0.532c-2.513,-0.527 -3.77,-1.594 -3.77,-3.2c-0.008,-0.925 0.426,-1.8 1.168,-2.352c0.876,-0.66 1.956,-0.993 3.052,-0.942c1.149,-0.059 2.284,0.275 3.218,0.947c0.776,0.576 1.226,1.494 1.206,2.46l-2.822,-0c0.012,-0.373 -0.13,-0.734 -0.391,-1c-0.336,-0.292 -0.777,-0.437 -1.221,-0.4c-0.393,-0.024 -0.782,0.09 -1.1,0.322c-0.252,0.197 -0.397,0.501 -0.391,0.82c0.001,0.314 0.171,0.603 0.444,0.757c0.467,0.253 0.975,0.422 1.5,0.5c0.603,0.113 1.197,0.272 1.777,0.474c1.308,0.317 2.236,1.498 2.233,2.844c0.012,0.938 -0.456,1.821 -1.24,2.337c-0.945,0.633 -2.067,0.948 -3.203,0.9c-0.812,0.014 -1.617,-0.149 -2.359,-0.478c-0.644,-0.282 -1.201,-0.73 -1.614,-1.299c-0.38,-0.516 -0.586,-1.141 -0.588,-1.782l2.676,-0c0,0.449 0.206,0.873 0.557,1.152c0.404,0.285 0.893,0.426 1.387,0.4c0.431,0.029 0.86,-0.078 1.226,-0.308c0.264,-0.182 0.42,-0.485 0.414,-0.805Zm7.939,-10.244l0,2.6l1.807,-0l0,2.064l-1.806,-0l0,5.273c-0.027,0.298 0.053,0.596 0.225,0.84c0.239,0.2 0.55,0.292 0.859,0.254c0.278,0.003 0.556,-0.02 0.83,-0.068l0,2.142c-0.554,0.171 -1.13,0.258 -1.709,0.259c-1.979,-0 -2.988,-1 -3.027,-3l0,-5.7l-1.544,-0l0,-2.07l1.543,-0l-0,-2.6l2.822,0.006Zm9.317,5.244c-0.337,-0.049 -0.676,-0.076 -1.016,-0.08c-0.856,-0.114 -1.697,0.32 -2.1,1.084l0,6.916l-2.822,-0l0,-10.566l2.666,-0l0.078,1.26c0.442,-0.893 1.358,-1.459 2.354,-1.455c0.298,-0.002 0.594,0.041 0.879,0.127l-0.039,2.714Zm4.336,7.92l-2.832,-0l0,-10.566l2.832,-0l0,10.566Zm-3,-13.3c-0.012,-0.393 0.142,-0.773 0.425,-1.045c0.316,-0.285 0.732,-0.433 1.157,-0.41c0.423,-0.021 0.838,0.126 1.152,0.41c0.286,0.271 0.442,0.652 0.43,1.045c0.013,0.398 -0.145,0.782 -0.435,1.055c-0.313,0.282 -0.726,0.43 -1.147,0.41c-0.421,0.02 -0.834,-0.128 -1.147,-0.41c-0.289,-0.273 -0.447,-0.658 -0.433,-1.055l-0.002,-0Zm11.447,13.3c-0.144,-0.299 -0.239,-0.618 -0.283,-0.947c-0.674,0.759 -1.652,1.18 -2.666,1.147c-0.94,0.033 -1.859,-0.288 -2.573,-0.9c-0.664,-0.563 -1.039,-1.396 -1.021,-2.266c-0.051,-1.014 0.419,-1.987 1.245,-2.578c1.077,-0.667 2.335,-0.984 3.6,-0.908l1.3,-0l-0,-0.605c0.022,-0.423 -0.112,-0.84 -0.376,-1.172c-0.31,-0.317 -0.746,-0.478 -1.187,-0.439c-0.401,-0.023 -0.798,0.098 -1.118,0.342c-0.273,0.233 -0.422,0.58 -0.405,0.938l-2.827,-0c-0,-0.613 0.199,-1.21 0.566,-1.7c0.411,-0.547 0.965,-0.971 1.6,-1.226c0.736,-0.305 1.527,-0.456 2.324,-0.444c1.118,-0.06 2.22,0.289 3.1,0.981c0.783,0.696 1.206,1.713 1.147,2.759l-0,4.58c-0.038,0.781 0.106,1.559 0.42,2.275l-0,0.163l-2.846,-0Zm-2.334,-1.963c0.401,0.004 0.797,-0.092 1.152,-0.278c0.33,-0.165 0.602,-0.425 0.781,-0.747l-0,-1.812l-1.054,-0c-1.413,-0 -2.165,0.487 -2.256,1.46l-0.01,0.166c-0.009,0.33 0.126,0.648 0.371,0.869c0.282,0.24 0.646,0.363 1.016,0.342Z" style="fill:#97181a;fill-rule:nonzero;"/></g></g></svg>