<svg xmlns="http://www.w3.org/2000/svg" width="200" height="120" viewBox="0 0 200 120">
  <g id="Grupo_55879" data-name="Grupo 55879" transform="translate(-179 -5904)">
    <rect id="Rectángulo_5486" data-name="Rectángulo 5486" width="200" height="120" rx="5" transform="translate(179 5904)" fill="#e1eafe"/>
    <g id="cross" transform="translate(225.664 5924.759)">
      <path id="Trazado_26447" data-name="Trazado 26447" d="M193.976,360.149a3.768,3.768,0,0,0,2.486.932c.09,0,.18,0,.27-.01a3.8,3.8,0,0,0,3.523-4.053l-.786-11.24a3.8,3.8,0,0,0-7.576.53l.786,11.24A3.774,3.774,0,0,0,193.976,360.149Zm1.6-15.622c.036,0,.072,0,.108,0a1.521,1.521,0,0,1,1.515,1.415l.786,11.24a1.521,1.521,0,0,1-3.034.212l-.786-11.24A1.522,1.522,0,0,1,195.575,344.527Z" transform="translate(-148.58 -290.307)" fill="#20287a"/>
      <path id="Trazado_26448" data-name="Trazado 26448" d="M121.881,343.281a3.8,3.8,0,0,0-6.045,3.561L117.4,358a3.8,3.8,0,0,0,3.752,3.269,3.86,3.86,0,0,0,.536-.038,3.8,3.8,0,0,0,3.232-4.289l-1.568-11.157A3.771,3.771,0,0,0,121.881,343.281Zm.5,15.105a1.521,1.521,0,0,1-2.72-.7l-1.568-11.158a1.521,1.521,0,0,1,1.294-1.718,1.552,1.552,0,0,1,.215-.015,1.522,1.522,0,0,1,1.5,1.31l1.568,11.157a1.513,1.513,0,0,1-.292,1.127Z" transform="translate(-84.042 -290.535)" fill="#20287a"/>
      <path id="Trazado_26449" data-name="Trazado 26449" d="M269.328,361.073q.136.01.27.01a3.8,3.8,0,0,0,3.782-3.533l.786-11.24a3.8,3.8,0,1,0-7.576-.53l-.786,11.24a3.8,3.8,0,0,0,3.523,4.053Zm-1.252-3.894.786-11.24a1.521,1.521,0,0,1,1.515-1.415c.036,0,.072,0,.109,0a1.521,1.521,0,0,1,1.411,1.623l-.786,11.24a1.521,1.521,0,0,1-3.034-.212Z" transform="translate(-211.275 -290.308)" fill="#20287a"/>
      <path id="Trazado_26450" data-name="Trazado 26450" d="M339.991,361.23A3.794,3.794,0,0,0,344.28,358l1.568-11.158a3.8,3.8,0,1,0-7.52-1.057l-1.568,11.157a3.8,3.8,0,0,0,3.232,4.289Zm-.978-3.972,1.568-11.157a1.521,1.521,0,0,1,1.5-1.31,1.528,1.528,0,0,1,.215.015,1.521,1.521,0,0,1,1.294,1.718l-1.568,11.157a1.521,1.521,0,0,1-3.012-.423Z" transform="translate(-271.438 -290.534)" fill="#20287a"/>
      <path id="Trazado_26451" data-name="Trazado 26451" d="M89.051,37.222A2.618,2.618,0,0,0,86.718,35.8H84.428V22a14.4,14.4,0,0,0-26.9-7.169,4.854,4.854,0,0,0-7.185-2.2,14.407,14.407,0,0,0-28.7,1.777v3.184H19.349A2.627,2.627,0,0,0,17.2,21.734l7.523,10.65a2.627,2.627,0,0,0,4.292,0l7.523-10.65a2.627,2.627,0,0,0-2.146-4.143H32.1V14.407a3.941,3.941,0,0,1,7.882,0V23.69a1.138,1.138,0,1,0,2.276,0V14.407a6.217,6.217,0,0,0-12.435,0v4.322a1.138,1.138,0,0,0,1.138,1.138h3.428a.351.351,0,0,1,.287.553l-7.522,10.65a.351.351,0,0,1-.573,0l-7.522-10.65a.351.351,0,0,1,.287-.553h3.428a1.138,1.138,0,0,0,1.138-1.138V14.407a12.131,12.131,0,0,1,24.261,0V36.371H42.263v-7.31a1.138,1.138,0,1,0-2.276,0v7.31H24.224a4.976,4.976,0,1,0,0,9.952h.188L27.83,74.091A4.118,4.118,0,0,0,31.912,77.7h7.372a1.138,1.138,0,1,0,0-2.276H31.912a1.839,1.839,0,0,1-1.823-1.612l-3.384-27.49H48.258a4.857,4.857,0,0,0,9.553,0h3.254a1.138,1.138,0,1,0,0-2.276H57.893v-5.4H69.054a2.623,2.623,0,0,0,.473,1.3l2.9,4.1H66.437a1.138,1.138,0,0,0,0,2.276h7.6L77.049,50.6a2.631,2.631,0,0,0,1.657,1.065L75.979,73.813a1.839,1.839,0,0,1-1.823,1.612h-29.5a1.138,1.138,0,0,0,0,2.276h29.5a4.118,4.118,0,0,0,4.082-3.611l2.856-23.2a2.616,2.616,0,0,0,.247-.3l7.522-10.65a2.617,2.617,0,0,0,.187-2.724Zm-19.011-.85H66.081V22a3.941,3.941,0,1,1,7.882,0V35.8H71.673A2.618,2.618,0,0,0,70.04,36.371ZM21.525,41.347a2.7,2.7,0,0,1,2.7-2.7H48.176v5.4H24.224A2.7,2.7,0,0,1,21.525,41.347Zm31.51,6.673a2.585,2.585,0,0,1-2.582-2.582V16.673a2.582,2.582,0,0,1,5.164,0V45.438A2.585,2.585,0,0,1,53.034,48.02ZM87,38.632l-7.522,10.65a.351.351,0,0,1-.573,0l-7.522-10.65a.351.351,0,0,1,.287-.553H75.1a1.138,1.138,0,0,0,1.138-1.138V22A6.217,6.217,0,1,0,63.8,22V36.371H57.893V21.908A12.13,12.13,0,0,1,82.152,22V36.941a1.138,1.138,0,0,0,1.138,1.138h3.428a.351.351,0,0,1,.287.553Z" transform="translate(0 0)" fill="#20287a"/>
    </g>
  </g>
</svg>
