<svg id="_009-marketplace" data-name="009-marketplace" xmlns="http://www.w3.org/2000/svg" width="150" height="132.799" viewBox="0 0 150 132.799">
  <g id="Grupo_55829" data-name="Grupo 55829" transform="translate(0 0)">
    <path id="Trazado_27274" data-name="Trazado 27274" d="M146.924,148.741h-3.033V133.172a3.08,3.08,0,0,0-3.076-3.076h-4.667V90.623a9.291,9.291,0,0,0,4.832-8.145V76.087a5.13,5.13,0,0,0,4.4-5.07v-6.09h0a2.192,2.192,0,0,0-.2-.922L134.406,40.7a3.672,3.672,0,0,0-3.324-2.126H109.894V33.018a3.666,3.666,0,0,0-3.662-3.662H97.266a2.2,2.2,0,1,0,0,4.395H105.5V47.4h-61V33.751H87.012a2.2,2.2,0,0,0,0-4.395H43.768a3.666,3.666,0,0,0-3.662,3.662V38.57H18.918A3.673,3.673,0,0,0,15.594,40.7L4.82,64.005a2.187,2.187,0,0,0-.2.922h0v6.09a5.13,5.13,0,0,0,4.4,5.07v6.391a9.291,9.291,0,0,0,4.832,8.145v19.861H9.185a3.08,3.08,0,0,0-3.076,3.076V148.74H3.076A3.08,3.08,0,0,0,0,151.817v7.262a3.08,3.08,0,0,0,3.076,3.076H26.367a2.2,2.2,0,1,0,0-4.394H4.395v-4.625H145.605v4.625H36.621a2.2,2.2,0,1,0,0,4.394h110.3A3.08,3.08,0,0,0,150,159.079v-7.262A3.08,3.08,0,0,0,146.924,148.741ZM136.586,82.478a4.889,4.889,0,1,1-9.779,0V76.145h9.779v6.333ZM19.387,42.965H40.106v5.164a3.666,3.666,0,0,0,3.662,3.662h62.464a3.666,3.666,0,0,0,3.662-3.662V42.965h20.719l9.136,19.766H10.251ZM9.744,71.75a.733.733,0,0,1-.732-.732V67.125H140.988v3.893a.733.733,0,0,1-.732.732Zm112.667,4.395v6.333a4.89,4.89,0,1,1-9.779,0V76.145Zm-14.174,0v6.333a4.89,4.89,0,1,1-9.779,0V76.145Zm-14.174,0v6.333a4.89,4.89,0,1,1-9.779,0V76.145Zm-14.174,0v6.333a4.89,4.89,0,0,1-9.779,0V76.145Zm-14.174,0v6.333a4.89,4.89,0,1,1-9.779,0V76.145Zm-14.174,0v6.333a4.89,4.89,0,1,1-9.779,0V76.145Zm-14.174,0v6.333a4.89,4.89,0,0,1-9.779,0V76.145ZM13.414,82.478V76.145h9.779v6.333a4.89,4.89,0,0,1-9.779,0Zm12.35,66.262H10.5V134.49H25.765v14.251Zm0-18.645H10.5V114.878H25.765V130.1Zm1.318-19.612h-.57v-4.7H41.455V130.1h-11.3V113.56A3.08,3.08,0,0,0,27.083,110.484Zm18.338,38.257H30.159V134.49H45.421Zm27.381,0H60.768v-35H72.8Zm16.429,0H77.2v-35H89.232Zm3.493-39.4H57.275v-3.562H92.725Zm27.116,39.4H104.579V134.49h15.262Zm3.646-26.032V130.1H108.545V105.781h14.941v6.674a2.2,2.2,0,1,0,4.395,0v-7.992a3.08,3.08,0,0,0-3.076-3.076H107.227a3.08,3.08,0,0,0-3.076,3.076V130.1h-.89a3.08,3.08,0,0,0-3.076,3.076v15.569H93.626v-35h.417a3.08,3.08,0,0,0,3.076-3.076v-6.2a3.08,3.08,0,0,0-3.076-3.076H55.957a3.08,3.08,0,0,0-3.076,3.076v6.2a3.08,3.08,0,0,0,3.076,3.076h.417v35H49.816V133.172A3.08,3.08,0,0,0,46.74,130.1h-.89V104.463a3.08,3.08,0,0,0-3.076-3.076H25.2a3.08,3.08,0,0,0-3.076,3.076v6.021H18.246V91.761H18.3a9.266,9.266,0,0,0,7.087-3.293,9.272,9.272,0,0,0,14.174,0,9.273,9.273,0,0,0,14.174,0,9.272,9.272,0,0,0,14.174,0,9.272,9.272,0,0,0,14.174,0,9.272,9.272,0,0,0,14.174,0,9.273,9.273,0,0,0,14.174,0,9.272,9.272,0,0,0,14.174,0,9.266,9.266,0,0,0,7.087,3.293h.057V130.1h-3.87v-7.387a2.2,2.2,0,1,0-4.395,0Zm16.01,26.032H124.235V134.49H139.5Z" transform="translate(0 -29.356)" fill="#20287a"/>
    <path id="Trazado_27275" data-name="Trazado 27275" d="M204.2,60.144a2.2,2.2,0,0,0,0,4.395h27.246a2.2,2.2,0,1,0,0-4.395Z" transform="translate(-142.82 -51.124)" fill="#20287a"/>
    <path id="Trazado_27276" data-name="Trazado 27276" d="M75.143,116.381H68.7a2.2,2.2,0,0,0,0,4.395h6.445a2.2,2.2,0,1,0,0-4.395Z" transform="translate(-47.018 -90.885)" fill="#20287a"/>
    <path id="Trazado_27277" data-name="Trazado 27277" d="M132.143,116.381H125.7a2.2,2.2,0,1,0,0,4.395h6.445a2.2,2.2,0,1,0,0-4.395Z" transform="translate(-87.318 -90.885)" fill="#20287a"/>
    <path id="Trazado_27278" data-name="Trazado 27278" d="M189.143,116.381H182.7a2.2,2.2,0,0,0,0,4.395h6.445a2.2,2.2,0,0,0,0-4.395Z" transform="translate(-127.619 -90.885)" fill="#20287a"/>
    <path id="Trazado_27279" data-name="Trazado 27279" d="M246.143,116.381H239.7a2.2,2.2,0,0,0,0,4.395h6.445a2.2,2.2,0,0,0,0-4.395Z" transform="translate(-167.92 -90.885)" fill="#20287a"/>
    <path id="Trazado_27280" data-name="Trazado 27280" d="M303.143,116.381H296.7a2.2,2.2,0,0,0,0,4.395h6.445a2.2,2.2,0,0,0,0-4.395Z" transform="translate(-208.221 -90.885)" fill="#20287a"/>
    <path id="Trazado_27281" data-name="Trazado 27281" d="M360.143,116.381H353.7a2.2,2.2,0,0,0,0,4.395h6.445a2.2,2.2,0,0,0,0-4.395Z" transform="translate(-248.522 -90.885)" fill="#20287a"/>
    <path id="Trazado_27282" data-name="Trazado 27282" d="M417.143,116.381H410.7a2.2,2.2,0,1,0,0,4.395h6.445a2.2,2.2,0,1,0,0-4.395Z" transform="translate(-288.822 -90.885)" fill="#20287a"/>
    <path id="Trazado_27283" data-name="Trazado 27283" d="M89.143,89.381H82.7a2.2,2.2,0,1,0,0,4.395h6.445a2.2,2.2,0,1,0,0-4.395Z" transform="translate(-56.916 -71.796)" fill="#20287a"/>
    <path id="Trazado_27284" data-name="Trazado 27284" d="M405.34,91.578a2.2,2.2,0,0,0-2.2-2.2H396.7a2.2,2.2,0,1,0,0,4.395h6.445A2.2,2.2,0,0,0,405.34,91.578Z" transform="translate(-278.924 -71.796)" fill="#20287a"/>
  </g>
</svg>
