<svg xmlns="http://www.w3.org/2000/svg" width="200" height="120" viewBox="0 0 200 120">
  <g id="Grupo_56813" data-name="Grupo 56813" transform="translate(-179 -12982)">
    <rect id="Rectángulo_5553" data-name="Rectángulo 5553" width="200" height="120" rx="5" transform="translate(179 12982)" fill="#e1eafe"/>
    <g id="_028-conveyor_belt" data-name="028-conveyor belt" transform="translate(237 13004)">
      <g id="Grupo_55847" data-name="Grupo 55847" transform="translate(0 0)">
        <path id="Trazado_27444" data-name="Trazado 27444" d="M81.624,47.963V33.03a4.8,4.8,0,1,0-6.789-6.789H38.128a3.329,3.329,0,0,0,0,6.658h.193V43.961h-1.3a2.056,2.056,0,0,0-2.054,2.054v4.9a2.056,2.056,0,0,0,2.054,2.054h10.1a2.056,2.056,0,0,0,2.054-2.054v-4.9a2.056,2.056,0,0,0-2.054-2.054h-1.3V32.9H59.982a1.233,1.233,0,1,0,0-2.465H38.129a.864.864,0,1,1,0-1.728h35.44a4.741,4.741,0,0,0,0,1.728H65.734a1.233,1.233,0,1,0,0,2.465h9.1c.043.045.086.089.13.132V47.963a2.878,2.878,0,0,0-2.516,2.851v8.41H57.813a1.727,1.727,0,0,0-1.726,1.726V76.162H52.107V60.948a1.727,1.727,0,0,0-1.726-1.726H33.758a1.727,1.727,0,0,0-1.726,1.726V76.162H28.051V70.652a1.233,1.233,0,1,0-2.465,0v5.509H10.442V61.688H25.586V64.9a1.233,1.233,0,0,0,2.465,0V60.948a1.727,1.727,0,0,0-1.726-1.726H9.7a1.727,1.727,0,0,0-1.726,1.726V76.2A8.747,8.747,0,0,0,0,84.9V85.99a8.751,8.751,0,0,0,6.289,8.385V98.71a2.056,2.056,0,0,0,2.054,2.054H57.681a1.233,1.233,0,1,0,0-2.465H8.754V94.727H75.385V98.3H63.433a1.233,1.233,0,1,0,0,2.465H75.8A2.056,2.056,0,0,0,77.85,98.71V94.375a8.751,8.751,0,0,0,6.289-8.385V50.813a2.878,2.878,0,0,0-2.516-2.851ZM46.707,50.5H37.432V46.426h9.275Zm-3.354-6.541H40.787V32.9h2.566Zm35.806,3.976H77.431V34.3a4.751,4.751,0,0,0,1.728,0Zm1.477-18.368a2.34,2.34,0,1,1-2.34-2.34,2.343,2.343,0,0,1,2.34,2.34ZM64.685,61.688h2.881v5.255H64.685Zm-6.132,0H62.22v5.995a1.727,1.727,0,0,0,1.726,1.726h4.36a1.727,1.727,0,0,0,1.726-1.726V61.688H73.7V76.162H58.553V61.688Zm-17.924,0H43.51v5.255H40.629Zm-6.132,0h3.667v5.995a1.727,1.727,0,0,0,1.726,1.726h4.36a1.727,1.727,0,0,0,1.726-1.726V61.688h3.667V76.162H34.5V61.688Zm47.177,24.3A6.279,6.279,0,0,1,75.4,92.262H8.737A6.279,6.279,0,0,1,2.465,85.99V84.9a6.279,6.279,0,0,1,6.272-6.272H75.4A6.279,6.279,0,0,1,81.674,84.9Zm0-7.163a8.717,8.717,0,0,0-5.512-2.63V60.948a1.727,1.727,0,0,0-1.247-1.657V50.813a.411.411,0,0,1,.411-.411h5.937a.411.411,0,0,1,.411.411Z" transform="translate(0 -24.764)" fill="#20287a"/>
        <path id="Trazado_27445" data-name="Trazado 27445" d="M35.421,364.771a4.805,4.805,0,1,0,4.805,4.805A4.811,4.811,0,0,0,35.421,364.771Zm0,7.146a2.34,2.34,0,1,1,2.34-2.34A2.343,2.343,0,0,1,35.421,371.917Z" transform="translate(-25.585 -308.896)" fill="#20287a"/>
        <path id="Trazado_27446" data-name="Trazado 27446" d="M192.335,364.771a4.805,4.805,0,1,0,4.805,4.805A4.811,4.811,0,0,0,192.335,364.771Zm0,7.146a2.34,2.34,0,1,1,2.34-2.34A2.343,2.343,0,0,1,192.335,371.917Z" transform="translate(-156.712 -308.896)" fill="#20287a"/>
        <path id="Trazado_27447" data-name="Trazado 27447" d="M270.793,364.771a4.805,4.805,0,1,0,4.805,4.805A4.811,4.811,0,0,0,270.793,364.771Zm0,7.146a2.34,2.34,0,1,1,2.34-2.34A2.343,2.343,0,0,1,270.793,371.917Z" transform="translate(-222.277 -308.896)" fill="#20287a"/>
        <path id="Trazado_27448" data-name="Trazado 27448" d="M349.25,364.771a4.805,4.805,0,1,0,4.805,4.805A4.811,4.811,0,0,0,349.25,364.771Zm0,7.146a2.34,2.34,0,1,1,2.34-2.34A2.343,2.343,0,0,1,349.25,371.917Z" transform="translate(-287.841 -308.896)" fill="#20287a"/>
        <path id="Trazado_27449" data-name="Trazado 27449" d="M113.878,364.771a4.805,4.805,0,1,0,4.805,4.805A4.811,4.811,0,0,0,113.878,364.771Zm0,7.146a2.34,2.34,0,1,1,2.34-2.34A2.343,2.343,0,0,1,113.878,371.917Z" transform="translate(-91.149 -308.896)" fill="#20287a"/>
        <path id="Trazado_27450" data-name="Trazado 27450" d="M427.707,364.771a4.805,4.805,0,1,0,4.805,4.805A4.811,4.811,0,0,0,427.707,364.771Zm0,7.146a2.34,2.34,0,1,1,2.34-2.34A2.343,2.343,0,0,1,427.707,371.917Z" transform="translate(-353.405 -308.896)" fill="#20287a"/>
      </g>
    </g>
  </g>
</svg>
