<svg xmlns="http://www.w3.org/2000/svg" width="45.371" height="34.56" viewBox="0 0 45.371 34.56">
  <g id="_011-youtube" data-name="011-youtube" opacity="0.5">
    <path id="Trazado_26487" data-name="Trazado 26487" d="M6.646,34.56H38.725a6.654,6.654,0,0,0,6.646-6.646V6.646A6.654,6.654,0,0,0,38.725,0H6.646A6.654,6.654,0,0,0,0,6.646V27.914A6.654,6.654,0,0,0,6.646,34.56ZM2.658,6.646A3.992,3.992,0,0,1,6.646,2.658H38.725a3.992,3.992,0,0,1,3.988,3.988V27.914A3.992,3.992,0,0,1,38.725,31.9H6.646a3.992,3.992,0,0,1-3.988-3.988Zm0,0" fill="#2a94ee"/>
    <path id="Trazado_26488" data-name="Trazado 26488" d="M181,94.508v18.068l16-9.182Zm2.658,4.518,7.931,4.406-7.931,4.553Zm0,0" transform="translate(-164.961 -86.133)" fill="#2a94ee"/>
  </g>
</svg>
