<svg xmlns="http://www.w3.org/2000/svg" width="200" height="120" viewBox="0 0 200 120">
  <g id="Grupo_56814" data-name="Grupo 56814" transform="translate(-179 -12808)">
    <rect id="Rectángulo_5552" data-name="Rectángulo 5552" width="200" height="120" rx="5" transform="translate(179 12808)" fill="#e1eafe"/>
    <g id="_026-barcode_scanner" data-name="026-barcode scanner" transform="translate(238 12830)">
      <g id="Grupo_55845" data-name="Grupo 55845" transform="translate(0 0)">
        <path id="Trazado_27404" data-name="Trazado 27404" d="M77.006,56.457a2.023,2.023,0,0,0,2.021-2.021V36.021A2.023,2.023,0,0,0,77.006,34H70.161a1.212,1.212,0,0,0,0,2.425H76.6V54.032h-38V36.425H64.5A1.212,1.212,0,0,0,64.5,34h-25.9V26.2a5.26,5.26,0,0,0-5.254-5.254H6.613A5.26,5.26,0,0,0,1.359,26.2V60.651a3.657,3.657,0,0,0,.744,2.2L3.963,65.3a1.22,1.22,0,0,1,.248.735v.859l-2.256.733A2.822,2.822,0,0,0,0,70.315V75.2A2.822,2.822,0,0,0,1.955,77.9l2.256.733V92.5a4.451,4.451,0,0,0,4.446,4.446H31.208A4.451,4.451,0,0,0,35.654,92.5V66.054a1.217,1.217,0,0,1,.26-.751l1.911-2.424a3.652,3.652,0,0,0,.781-2.252V56.457h38.4ZM2.7,75.589a.4.4,0,0,1-.279-.384v-4.89A.4.4,0,0,1,2.7,69.93l1.507-.49v6.638ZM36.181,60.629a1.218,1.218,0,0,1-.26.751L34.01,63.8a3.652,3.652,0,0,0-.781,2.252V92.5a2.023,2.023,0,0,1-2.021,2.021H8.657A2.023,2.023,0,0,1,6.636,92.5V66.032a3.658,3.658,0,0,0-.744-2.2l-1.86-2.443a1.219,1.219,0,0,1-.248-.734V26.2a2.832,2.832,0,0,1,2.829-2.829H33.352A2.832,2.832,0,0,1,36.181,26.2Z" transform="translate(0 -20.942)" fill="#20287a"/>
        <path id="Trazado_27405" data-name="Trazado 27405" d="M256.125,135.934V145.3a1.212,1.212,0,1,0,2.425,0v-9.361a1.212,1.212,0,1,0-2.425,0Z" transform="translate(-214.719 -116.328)" fill="#20287a"/>
        <path id="Trazado_27406" data-name="Trazado 27406" d="M280.444,135.934V145.3a1.212,1.212,0,0,0,2.425,0v-9.361a1.212,1.212,0,1,0-2.425,0Z" transform="translate(-235.107 -116.328)" fill="#20287a"/>
        <path id="Trazado_27407" data-name="Trazado 27407" d="M316.633,135.934V145.3a1.212,1.212,0,0,0,2.425,0v-9.361a1.212,1.212,0,1,0-2.425,0Z" transform="translate(-265.445 -116.328)" fill="#20287a"/>
        <path id="Trazado_27408" data-name="Trazado 27408" d="M340.953,135.934V145.3a1.212,1.212,0,1,0,2.425,0v-9.361a1.212,1.212,0,1,0-2.425,0Z" transform="translate(-285.834 -116.328)" fill="#20287a"/>
        <path id="Trazado_27409" data-name="Trazado 27409" d="M365.271,135.934V145.3a1.212,1.212,0,0,0,2.425,0v-9.361a1.212,1.212,0,1,0-2.425,0Z" transform="translate(-306.22 -116.328)" fill="#20287a"/>
        <path id="Trazado_27410" data-name="Trazado 27410" d="M390.8,134.722a1.212,1.212,0,0,0-1.212,1.212V145.3a1.212,1.212,0,1,0,2.425,0v-9.361A1.212,1.212,0,0,0,390.8,134.722Z" transform="translate(-326.609 -116.328)" fill="#20287a"/>
        <path id="Trazado_27411" data-name="Trazado 27411" d="M415.122,146.507a1.212,1.212,0,0,0,1.212-1.212v-9.361a1.212,1.212,0,1,0-2.425,0V145.3A1.212,1.212,0,0,0,415.122,146.507Z" transform="translate(-346.996 -116.328)" fill="#20287a"/>
        <path id="Trazado_27412" data-name="Trazado 27412" d="M440.654,145.3v-9.361a1.212,1.212,0,1,0-2.425,0V145.3a1.212,1.212,0,0,0,2.425,0Z" transform="translate(-367.384 -116.328)" fill="#20287a"/>
        <path id="Trazado_27413" data-name="Trazado 27413" d="M468.117,77.688h-5.8a1.212,1.212,0,0,0,0,2.425H466.9V84.7a1.212,1.212,0,1,0,2.425,0V78.9A1.212,1.212,0,0,0,468.117,77.688Z" transform="translate(-386.558 -68.514)" fill="#20287a"/>
        <path id="Trazado_27414" data-name="Trazado 27414" d="M468.117,213.18a1.212,1.212,0,0,0-1.212,1.212v4.591h-4.591a1.212,1.212,0,0,0,0,2.425h5.8a1.212,1.212,0,0,0,1.212-1.212v-5.8A1.212,1.212,0,0,0,468.117,213.18Z" transform="translate(-386.558 -182.102)" fill="#20287a"/>
        <path id="Trazado_27415" data-name="Trazado 27415" d="M96.383,315.088h-8.8a1.7,1.7,0,0,0-1.7,1.7v5.521a1.7,1.7,0,0,0,1.7,1.7h8.8a1.7,1.7,0,0,0,1.7-1.7v-5.521A1.7,1.7,0,0,0,96.383,315.088Zm-.727,6.491H88.309v-4.066h7.347Z" transform="translate(-72 -267.536)" fill="#20287a"/>
        <path id="Trazado_27416" data-name="Trazado 27416" d="M60.3,318.811a1.212,1.212,0,0,0,1.212-1.212v-1.3a1.212,1.212,0,0,0-2.425,0v1.3A1.212,1.212,0,0,0,60.3,318.811Z" transform="translate(-49.539 -267.536)" fill="#20287a"/>
        <path id="Trazado_27417" data-name="Trazado 27417" d="M59.092,349.721a1.212,1.212,0,0,0,2.425,0v-1.3a1.212,1.212,0,0,0-2.425,0Z" transform="translate(-49.539 -294.465)" fill="#20287a"/>
        <path id="Trazado_27418" data-name="Trazado 27418" d="M174.333,315.088a1.212,1.212,0,0,0-1.212,1.212v1.3a1.212,1.212,0,1,0,2.425,0v-1.3A1.212,1.212,0,0,0,174.333,315.088Z" transform="translate(-145.134 -267.536)" fill="#20287a"/>
        <path id="Trazado_27419" data-name="Trazado 27419" d="M174.333,347.21a1.212,1.212,0,0,0-1.212,1.212v1.3a1.212,1.212,0,0,0,2.425,0v-1.3A1.212,1.212,0,0,0,174.333,347.21Z" transform="translate(-145.134 -294.465)" fill="#20287a"/>
        <path id="Trazado_27420" data-name="Trazado 27420" d="M61.617,385.069H60.3a1.212,1.212,0,1,0,0,2.425h1.312a1.212,1.212,0,1,0,0-2.425Z" transform="translate(-49.539 -326.203)" fill="#20287a"/>
        <path id="Trazado_27421" data-name="Trazado 27421" d="M96.921,385.069H95.609a1.212,1.212,0,1,0,0,2.425h1.312a1.212,1.212,0,1,0,0-2.425Z" transform="translate(-79.137 -326.203)" fill="#20287a"/>
        <path id="Trazado_27422" data-name="Trazado 27422" d="M132.225,385.069h-1.312a1.212,1.212,0,0,0,0,2.425h1.312a1.212,1.212,0,0,0,0-2.425Z" transform="translate(-108.732 -326.203)" fill="#20287a"/>
        <path id="Trazado_27423" data-name="Trazado 27423" d="M167.53,385.069h-1.312a1.212,1.212,0,0,0,0,2.425h1.312a1.212,1.212,0,0,0,0-2.425Z" transform="translate(-138.33 -326.203)" fill="#20287a"/>
        <path id="Trazado_27424" data-name="Trazado 27424" d="M61.617,411.455H60.3a1.212,1.212,0,1,0,0,2.425h1.312a1.212,1.212,0,1,0,0-2.425Z" transform="translate(-49.539 -348.324)" fill="#20287a"/>
        <path id="Trazado_27425" data-name="Trazado 27425" d="M96.921,411.455H95.609a1.212,1.212,0,1,0,0,2.425h1.312a1.212,1.212,0,1,0,0-2.425Z" transform="translate(-79.137 -348.324)" fill="#20287a"/>
        <path id="Trazado_27426" data-name="Trazado 27426" d="M132.225,411.455h-1.312a1.212,1.212,0,1,0,0,2.425h1.312a1.212,1.212,0,1,0,0-2.425Z" transform="translate(-108.732 -348.324)" fill="#20287a"/>
        <path id="Trazado_27427" data-name="Trazado 27427" d="M167.53,411.455h-1.312a1.212,1.212,0,0,0,0,2.425h1.312a1.212,1.212,0,1,0,0-2.425Z" transform="translate(-138.33 -348.324)" fill="#20287a"/>
        <path id="Trazado_27428" data-name="Trazado 27428" d="M61.617,437.842H60.3a1.212,1.212,0,1,0,0,2.425h1.312a1.212,1.212,0,1,0,0-2.425Z" transform="translate(-49.539 -370.445)" fill="#20287a"/>
        <path id="Trazado_27429" data-name="Trazado 27429" d="M96.921,437.842H95.609a1.212,1.212,0,1,0,0,2.425h1.312a1.212,1.212,0,1,0,0-2.425Z" transform="translate(-79.137 -370.445)" fill="#20287a"/>
        <path id="Trazado_27430" data-name="Trazado 27430" d="M132.225,437.842h-1.312a1.212,1.212,0,1,0,0,2.425h1.312a1.212,1.212,0,1,0,0-2.425Z" transform="translate(-108.732 -370.445)" fill="#20287a"/>
        <path id="Trazado_27431" data-name="Trazado 27431" d="M167.53,437.842h-1.312a1.212,1.212,0,0,0,0,2.425h1.312a1.212,1.212,0,1,0,0-2.425Z" transform="translate(-138.33 -370.445)" fill="#20287a"/>
        <path id="Trazado_27432" data-name="Trazado 27432" d="M286.829,287.49H257.962a2.023,2.023,0,0,0-2.021,2.021v28.868a2.023,2.023,0,0,0,2.021,2.021h28.868a2.023,2.023,0,0,0,2.021-2.021v-9.466a1.212,1.212,0,0,0-2.425,0v9.062H258.366V289.915h8.795v4.995a1.735,1.735,0,0,0,1.733,1.733h7a1.735,1.735,0,0,0,1.733-1.733v-4.995h8.795v13.339a1.212,1.212,0,1,0,2.425,0V289.511A2.023,2.023,0,0,0,286.829,287.49Zm-11.624,6.728h-5.62v-4.3h5.62Z" transform="translate(-214.565 -244.399)" fill="#20287a"/>
        <path id="Trazado_27433" data-name="Trazado 27433" d="M333.816,368.055a1.212,1.212,0,0,0,1.212-1.212v-5.373l1.268,1.469a1.212,1.212,0,1,0,1.836-1.584l-3.4-3.939a1.213,1.213,0,0,0-1.836,0l-3.4,3.939a1.213,1.213,0,0,0,1.836,1.584l1.267-1.469v5.374A1.212,1.212,0,0,0,333.816,368.055Z" transform="translate(-275.985 -302.668)" fill="#20287a"/>
        <path id="Trazado_27434" data-name="Trazado 27434" d="M328.643,439.867h7.37a1.212,1.212,0,0,0,0-2.425h-7.37a1.212,1.212,0,0,0,0,2.425Z" transform="translate(-274.498 -370.11)" fill="#20287a"/>
        <path id="Trazado_27435" data-name="Trazado 27435" d="M67.142,55.921H62.254v-2.4A2.023,2.023,0,0,0,60.233,51.5H52.078a2.023,2.023,0,0,0-2.021,2.021v2.4H45.17a2.023,2.023,0,0,0-2.021,2.021V84.407a2.023,2.023,0,0,0,2.021,2.021h4.386l.7,3.046a2.816,2.816,0,0,0,2.757,2.2h6.233A2.819,2.819,0,0,0,62,89.493l.727-3.065h4.417a2.023,2.023,0,0,0,2.021-2.021V73.729a1.212,1.212,0,0,0-2.425,0v6.224H45.574V58.346H66.738V68.07a1.212,1.212,0,0,0,2.425,0V57.942a2.023,2.023,0,0,0-2.021-2.021Zm-7.5,33.013a.4.4,0,0,1-.393.311H53.013a.4.4,0,0,1-.394-.314l-.575-2.5h8.189Zm7.1-6.556V84H45.574V82.377ZM52.483,53.925h7.347v2H52.483Z" transform="translate(-36.173 -46.56)" fill="#20287a"/>
        <path id="Trazado_27436" data-name="Trazado 27436" d="M75.275,105.2a1.7,1.7,0,0,0-1.7-1.7H69.7a1.7,1.7,0,0,0-1.7,1.7v3.88a1.7,1.7,0,0,0,1.7,1.7h3.88a1.7,1.7,0,0,0,1.7-1.7ZM72.85,108.35H70.425v-2.425H72.85Z" transform="translate(-57.007 -90.153)" fill="#20287a"/>
        <path id="Trazado_27437" data-name="Trazado 27437" d="M73.577,157.5H69.7a1.7,1.7,0,0,0-1.7,1.7v3.88a1.7,1.7,0,0,0,1.7,1.7h3.88a1.7,1.7,0,0,0,1.7-1.7V159.2A1.7,1.7,0,0,0,73.577,157.5Zm-.727,4.85H70.425v-2.425H72.85Z" transform="translate(-57.007 -135.424)" fill="#20287a"/>
        <circle id="Elipse_1802" data-name="Elipse 1802" cx="1.212" cy="1.212" r="1.212" transform="translate(30.473 5.506)" fill="#20287a"/>
        <circle id="Elipse_1803" data-name="Elipse 1803" cx="1.212" cy="1.212" r="1.212" transform="translate(27.24 5.506)" fill="#20287a"/>
      </g>
    </g>
  </g>
</svg>
