<svg xmlns="http://www.w3.org/2000/svg" width="80" height="80" viewBox="0 0 80 80">
  <g id="Grupo_22462" data-name="Grupo 22462" transform="translate(-297 -2470)">
    <circle id="Base" cx="40" cy="40" r="40" transform="translate(297 2470)" fill="#fff"/>
    <g id="_015-bar-chart" data-name="015-bar-chart" transform="translate(308.926 2481.927)">
      <path id="Trazado_20556" data-name="Trazado 20556" d="M122,367.084A1.084,1.084,0,1,0,123.084,366,1.084,1.084,0,0,0,122,367.084Zm0,0" transform="translate(-81.89 -326.324)"/>
      <path id="Trazado_20557" data-name="Trazado 20557" d="M1.084,51.167H4.336V34.256A1.084,1.084,0,0,1,5.42,33.172h9.106a1.084,1.084,0,0,1,1.084,1.084V51.167h4.336V23.415a1.084,1.084,0,0,1,1.084-1.084h9.106a1.084,1.084,0,0,1,1.084,1.084V51.167h4.336V12.575a1.084,1.084,0,0,1,1.084-1.084h9.106a1.084,1.084,0,0,1,1.084,1.084V51.167h4.336V1.084a1.084,1.084,0,0,1,2.168,0V9.323H54.42a1.084,1.084,0,1,1,0,2.168H53.336V18H54.42a1.084,1.084,0,1,1,0,2.168H53.336v6.5H54.42a1.084,1.084,0,1,1,0,2.168H53.336v6.5H54.42a1.084,1.084,0,1,1,0,2.168H53.336v6.5H54.42a1.084,1.084,0,1,1,0,2.168H53.336v6.071a1.084,1.084,0,0,1-1.084,1.084h-5.42v1.084a1.084,1.084,0,0,1-2.168,0V53.335H37.725v1.084a1.084,1.084,0,0,1-2.168,0V53.335H28.836v1.084a1.084,1.084,0,0,1-2.168,0V53.335H19.947v1.084a1.084,1.084,0,0,1-2.168,0V53.335H11.057v1.084a1.084,1.084,0,0,1-2.168,0V53.335H1.084a1.084,1.084,0,1,1,0-2.168ZM13.442,35.34H6.5V51.167h6.938ZM29.053,24.5H22.115V51.167h6.938Zm8.672-10.84V51.167h6.938V13.659Zm0,0" transform="translate(0)"/>
      <path id="Trazado_20558" data-name="Trazado 20558" d="M123.084,221.177A1.084,1.084,0,0,1,122,220.093V207.084a1.084,1.084,0,0,1,2.168,0v13.008A1.084,1.084,0,0,1,123.084,221.177Zm0,0" transform="translate(-81.89 -183.669)"/>
    </g>
  </g>
</svg>
