<svg id="_006-schedule" data-name="006-schedule" xmlns="http://www.w3.org/2000/svg" width="150" height="140.03" viewBox="0 0 150 140.03">
  <g id="Grupo_55826" data-name="Grupo 55826" transform="translate(0 0)">
    <path id="Trazado_27250" data-name="Trazado 27250" d="M95.521,246.316H62.252a2.2,2.2,0,1,0,0,4.395H95.522a2.2,2.2,0,1,0,0-4.395Z" transform="translate(-42.461 -179.138)" fill="#20287a"/>
    <path id="Trazado_27251" data-name="Trazado 27251" d="M95.521,282.349H62.252a2.2,2.2,0,1,0,0,4.395H95.522a2.2,2.2,0,1,0,0-4.395Z" transform="translate(-42.461 -204.615)" fill="#20287a"/>
    <path id="Trazado_27252" data-name="Trazado 27252" d="M95.521,318.382H62.252a2.2,2.2,0,0,0,0,4.395H95.522a2.2,2.2,0,1,0,0-4.395Z" transform="translate(-42.461 -230.091)" fill="#20287a"/>
    <path id="Trazado_27253" data-name="Trazado 27253" d="M210.751,246.316a2.2,2.2,0,0,0,0,4.395h19.833a2.2,2.2,0,1,0,0-4.395Z" transform="translate(-147.454 -179.138)" fill="#20287a"/>
    <path id="Trazado_27254" data-name="Trazado 27254" d="M341.276,246.316H312.3a2.2,2.2,0,1,0,0,4.395h28.977a2.2,2.2,0,1,0,0-4.395Z" transform="translate(-219.251 -179.138)" fill="#20287a"/>
    <path id="Trazado_27255" data-name="Trazado 27255" d="M232.782,284.546a2.2,2.2,0,0,0-2.2-2.2H210.751a2.2,2.2,0,1,0,0,4.395h19.833A2.2,2.2,0,0,0,232.782,284.546Z" transform="translate(-147.454 -204.615)" fill="#20287a"/>
    <path id="Trazado_27256" data-name="Trazado 27256" d="M64.12,184.71a7.808,7.808,0,0,0,7.478-5.6H82.966a6.185,6.185,0,0,0,11.572,0H107.6a6.186,6.186,0,0,0,11.572,0h29.6a7.8,7.8,0,1,0,0-4.394h-29.6a6.186,6.186,0,0,0-11.572,0H94.538a6.185,6.185,0,0,0-11.572,0H71.6a7.795,7.795,0,1,0-7.478,9.993Zm92.13-11.2a3.4,3.4,0,1,1-3.4,3.4A3.4,3.4,0,0,1,156.25,173.513Zm-42.866,1.6a1.8,1.8,0,1,1-1.8,1.8A1.8,1.8,0,0,1,113.384,175.113Zm-24.632,0a1.8,1.8,0,1,1-1.8,1.8A1.8,1.8,0,0,1,88.752,175.113Zm-24.632-1.6a3.4,3.4,0,1,1-3.4,3.4A3.4,3.4,0,0,1,64.12,173.513Z" transform="translate(-39.824 -124.558)" fill="#20287a"/>
    <path id="Trazado_27257" data-name="Trazado 27257" d="M440.221,405.748a2.2,2.2,0,0,0,2.2,2.2h8a2.2,2.2,0,1,0,0-4.394h-8A2.2,2.2,0,0,0,440.221,405.748Z" transform="translate(-311.25 -290.308)" fill="#20287a"/>
    <path id="Trazado_27258" data-name="Trazado 27258" d="M450.416,428.665h-8a2.2,2.2,0,0,0,0,4.394h8a2.2,2.2,0,0,0,0-4.394Z" transform="translate(-311.25 -308.065)" fill="#20287a"/>
    <path id="Trazado_27259" data-name="Trazado 27259" d="M146.2,94.75h-5.48V77.07a2.2,2.2,0,1,0-4.395,0V94.75h-3.6V49.042a3.08,3.08,0,0,0-3.076-3.076h-28.3v-3.6h34.979V66.816a2.2,2.2,0,1,0,4.395,0V41.631a3.666,3.666,0,0,0-3.662-3.662H101.349v-.657a3.666,3.666,0,0,0-3.662-3.662H89.9a19.787,19.787,0,0,0-39.068,0H43.036a3.666,3.666,0,0,0-3.662,3.662v.657H3.662A3.666,3.666,0,0,0,0,41.631v92.4a3.666,3.666,0,0,0,3.662,3.662H62.183a24.535,24.535,0,0,0,40.5,12.956H146.2a3.8,3.8,0,0,0,3.8-3.8v-48.3a3.8,3.8,0,0,0-3.8-3.8ZM70.361,21.411A15.421,15.421,0,0,1,85.431,33.65H55.292A15.421,15.421,0,0,1,70.361,21.411ZM43.768,38.045H96.955V51.564H43.768Zm-4.8,87.255a2.2,2.2,0,1,0,0,4.395H61.8a24.652,24.652,0,0,0-.17,2.841c0,.255.011.508.019.762H4.395V42.364H39.374v3.6h-28.3A3.08,3.08,0,0,0,8,49.042v77.576a3.08,3.08,0,0,0,3.076,3.076H28.711a2.2,2.2,0,1,0,0-4.395H12.392V50.361H39.374V52.3a3.666,3.666,0,0,0,3.662,3.662H97.687a3.666,3.666,0,0,0,3.662-3.662V50.361h26.982V94.75H97.9a3.8,3.8,0,0,0-3.8,3.8v10.815A24.486,24.486,0,0,0,62.724,125.3H38.965Zm87.685-26.155v9.912h-9.2V99.145Zm18.956,47.109H106.471a24.562,24.562,0,0,0,3.512-8.031,2.2,2.2,0,1,0-4.275-1.016,20.117,20.117,0,1,1,.021-9.248,2.2,2.2,0,1,0,4.28-1,24.623,24.623,0,0,0-8.522-13.536,24.274,24.274,0,0,0-2.991-2.05V99.144h14.561v11.15a3.161,3.161,0,0,0,3.157,3.157h11.672a3.161,3.161,0,0,0,3.157-3.157V99.144h14.562Z" transform="translate(0 -17.016)" fill="#20287a"/>
    <path id="Trazado_27260" data-name="Trazado 27260" d="M301.643,366.571H290.93V353.332a2.2,2.2,0,0,0-4.395,0v15.436a2.2,2.2,0,0,0,2.2,2.2h12.91a2.2,2.2,0,1,0,0-4.395Z" transform="translate(-202.589 -253.249)" fill="#20287a"/>
  </g>
</svg>
