<svg xmlns="http://www.w3.org/2000/svg" width="720" height="480" viewBox="0 0 720 480">
  <g id="Grupo_22461" data-name="Grupo 22461" transform="translate(-323 -3296)">
    <rect id="Rectángulo_5006" data-name="Rectángulo 5006" width="720" height="480" transform="translate(323 3296)" fill="#f6f6f6"/>
    <path id="Trazado_20555" data-name="Trazado 20555" d="M742.64,331.014c59.45-36.6,132.8-35.4,188.585-3.3l10.949-15.067c7.619,31.94,4.308,18.052,15.824,66.332-38.919,2.307-23.386,1.389-66.906,3.952l12.618-17.368c-38.025-20.024-86.992-21.612-128.71.408,6.565-25.191,4.745-18.221,8.275-31.707C769.09,333.14,777.4,333.8,742.64,331.014Zm226.935,56.572c-13.972.821-6.952.408-32.729,1.928a138.9,138.9,0,0,1,40.209,122.31l-20.429-6.644c16.083,41.083,10.556,26.953,24.417,62.4l58.206-35.549-17.683-5.752a185.371,185.371,0,0,0-61.434-178.286C968.218,381.857,966.287,373.762,969.576,387.586Zm6.865,193.667c-5.079-12.993-2.531-6.484-11.93-30.484a139.218,139.218,0,0,1-103.9,75.979V605.262c-34.722,28.5-22.593,18.542-51.8,42.525,37.777,32.357,26.729,22.893,51.8,44.365V673.522c64.8-6.944,124.239-49.6,150.642-113.514C980.821,578.6,988.362,573.992,976.441,581.253ZM674.991,494.975c11.738,7.529,5.685,3.652,27.574,17.665-7.751-44.965,7.343-91.23,39.425-122.514l12.6,17.351c11.01-42.2,7.084-27.134,16.9-64.847-51.076-4.1-35.263-2.828-67.981-5.455l10.963,15.1a185.442,185.442,0,0,0-55.142,180.365C673.421,498.761,669.673,507.779,674.991,494.975ZM794.369,647.641c10.8-8.881,5.362-4.413,25.308-20.782-46.116-6.658-85.02-36.181-104.348-75.35l20.412-6.623c-37.824-24.2-24.688-15.8-56.444-36.125-20.167,48.484-13.255,31.867-26.2,62.974l17.7-5.753A185.6,185.6,0,0,0,825.318,674.134C798.837,651.447,805.166,656.862,794.369,647.641Z" transform="translate(-163.1 3038.404)" fill="#d64626"/>
    <path id="Trazado_27604" data-name="Trazado 27604" d="M-34.707-2.764h-4.229L-39.756,0h-3.477l4.639-14.219h1.768v.01l.01-.01h1.768L-30.4,0h-3.477ZM-38.174-5.3h2.705L-36.8-9.717h-.059Zm13.115,2.969A1.291,1.291,0,0,0-24.053-2.7a1.526,1.526,0,0,0,.332-1.06h3.008l.02.059a3.469,3.469,0,0,1-1.2,2.817A4.616,4.616,0,0,1-25.059.205a4.675,4.675,0,0,1-3.716-1.489,5.679,5.679,0,0,1-1.3-3.882v-.225a5.7,5.7,0,0,1,1.3-3.877,4.64,4.64,0,0,1,3.7-1.494A4.545,4.545,0,0,1-21.86-9.644a3.857,3.857,0,0,1,1.167,3.062l-.02.059h-3.008a2.045,2.045,0,0,0-.342-1.226,1.172,1.172,0,0,0-1.016-.474,1.357,1.357,0,0,0-1.333.767,4.741,4.741,0,0,0-.376,2.065v.225a4.723,4.723,0,0,0,.376,2.08A1.378,1.378,0,0,0-25.059-2.334Zm10.234,0A1.291,1.291,0,0,0-13.818-2.7a1.526,1.526,0,0,0,.332-1.06h3.008l.02.059a3.469,3.469,0,0,1-1.2,2.817A4.616,4.616,0,0,1-14.824.205,4.675,4.675,0,0,1-18.54-1.284a5.679,5.679,0,0,1-1.3-3.882v-.225a5.7,5.7,0,0,1,1.3-3.877,4.64,4.64,0,0,1,3.7-1.494,4.545,4.545,0,0,1,3.218,1.118,3.857,3.857,0,0,1,1.167,3.062l-.02.059h-3.008a2.045,2.045,0,0,0-.342-1.226,1.172,1.172,0,0,0-1.016-.474,1.357,1.357,0,0,0-1.333.767,4.741,4.741,0,0,0-.376,2.065v.225a4.723,4.723,0,0,0,.376,2.08A1.378,1.378,0,0,0-14.824-2.334ZM-4.424.205A4.906,4.906,0,0,1-8.188-1.25,5.174,5.174,0,0,1-9.551-4.932V-5.3A5.912,5.912,0,0,1-8.267-9.248a4.562,4.562,0,0,1,3.716-1.514A4.279,4.279,0,0,1-1.235-9.482,4.98,4.98,0,0,1-.059-5.977v1.729H-6.113l-.02.059a2.052,2.052,0,0,0,.615,1.343,2.148,2.148,0,0,0,1.543.513A6.687,6.687,0,0,0-2.4-2.49a9.942,9.942,0,0,0,1.44-.5L-.166-.977A6.04,6.04,0,0,1-2-.137,8.473,8.473,0,0,1-4.424.205Zm-.127-8.428a1.362,1.362,0,0,0-1.167.5,2.523,2.523,0,0,0-.435,1.362l.02.049h2.852v-.254A2.2,2.2,0,0,0-3.569-7.8,1.1,1.1,0,0,0-4.551-8.223Zm11.4,5.254a.862.862,0,0,0-.444-.7,4.792,4.792,0,0,0-1.616-.552A6.38,6.38,0,0,1,2-5.337a2.533,2.533,0,0,1-.937-2.085A2.971,2.971,0,0,1,2.236-9.79a4.82,4.82,0,0,1,3.174-.972,5.45,5.45,0,0,1,3.359.942A2.771,2.771,0,0,1,9.961-7.383l-.02.059h-3.2a1.309,1.309,0,0,0-.312-.947A1.383,1.383,0,0,0,5.4-8.594a1.341,1.341,0,0,0-.869.283.888.888,0,0,0-.352.723.86.86,0,0,0,.405.713,4.584,4.584,0,0,0,1.636.527A6.571,6.571,0,0,1,9.092-5.21a2.609,2.609,0,0,1,.928,2.144A2.8,2.8,0,0,1,8.755-.718,5.547,5.547,0,0,1,5.41.205,5.016,5.016,0,0,1,2-.889,3.013,3.013,0,0,1,.8-3.33l.02-.059H3.809A1.325,1.325,0,0,0,4.263-2.3,2,2,0,0,0,5.5-1.973,1.649,1.649,0,0,0,6.5-2.231.87.87,0,0,0,6.846-2.969ZM15.029,0H11.719V-10.566h3.311Zm0-13.018H11.719v-2.217h3.311ZM26.836-5.059A6.4,6.4,0,0,1,25.8-1.221,3.546,3.546,0,0,1,22.734.205a2.961,2.961,0,0,1-1.5-.371,3.271,3.271,0,0,1-1.1-1.074L19.932,0H17.051V-15.234h3.3v5.693a3.183,3.183,0,0,1,1.021-.9,2.756,2.756,0,0,1,1.343-.317A3.51,3.51,0,0,1,25.8-9.268a6.889,6.889,0,0,1,1.04,4Zm-3.291-.205a5.432,5.432,0,0,0-.352-2.183,1.306,1.306,0,0,0-1.309-.776,1.98,1.98,0,0,0-.923.2,1.5,1.5,0,0,0-.61.581V-3a1.439,1.439,0,0,0,.62.5,2.354,2.354,0,0,0,.933.166,1.313,1.313,0,0,0,1.309-.679,4.849,4.849,0,0,0,.332-2.046ZM31.748,0H28.438V-15.234h3.311Zm6.709.205A4.906,4.906,0,0,1,34.692-1.25,5.174,5.174,0,0,1,33.33-4.932V-5.3a5.912,5.912,0,0,1,1.284-3.945,4.562,4.562,0,0,1,3.716-1.514,4.279,4.279,0,0,1,3.315,1.279,4.98,4.98,0,0,1,1.177,3.506v1.729H36.768l-.02.059a2.052,2.052,0,0,0,.615,1.343,2.148,2.148,0,0,0,1.543.513,6.687,6.687,0,0,0,1.577-.156,9.942,9.942,0,0,0,1.44-.5l.791,2.012a6.04,6.04,0,0,1-1.836.84A8.473,8.473,0,0,1,38.457.205ZM38.33-8.223a1.362,1.362,0,0,0-1.167.5,2.523,2.523,0,0,0-.435,1.362l.02.049H39.6v-.254a2.2,2.2,0,0,0-.288-1.24A1.1,1.1,0,0,0,38.33-8.223Z" transform="translate(631.5 3737.556)" fill="#97181a"/>
    <path id="Trazado_27603" data-name="Trazado 27603" d="M-38.838-3.77a1.418,1.418,0,0,0-.5-1.167A6.46,6.46,0,0,0-41.143-5.8a13.713,13.713,0,0,1-3.931-1.831,3.3,3.3,0,0,1-1.284-2.8,3.43,3.43,0,0,1,1.494-2.891,6.225,6.225,0,0,1,3.8-1.1,6.267,6.267,0,0,1,3.916,1.138,3.688,3.688,0,0,1,1.436,3.208l-.02.059h-3.2a1.794,1.794,0,0,0-.547-1.46,2.54,2.54,0,0,0-1.65-.454,2.118,2.118,0,0,0-1.416.439,1.368,1.368,0,0,0-.518,1.084,1.168,1.168,0,0,0,.532,1,10.391,10.391,0,0,0,1.987.942,10.591,10.591,0,0,1,3.74,1.787,3.557,3.557,0,0,1,1.27,2.891A3.421,3.421,0,0,1-37-.854,6.49,6.49,0,0,1-40.889.205,7.1,7.1,0,0,1-44.976-.933,3.917,3.917,0,0,1-46.6-4.512l.02-.059h3.213a2.213,2.213,0,0,0,.61,1.763,2.825,2.825,0,0,0,1.87.522,2.426,2.426,0,0,0,1.543-.41A1.315,1.315,0,0,0-38.838-3.77Zm11.27,2.188A3.473,3.473,0,0,1-28.784-.259a3.2,3.2,0,0,1-1.724.464A3.129,3.129,0,0,1-33.081-.947a5.618,5.618,0,0,1-.933-3.564v-6.055h3.291v6.074a3.2,3.2,0,0,0,.317,1.7,1.111,1.111,0,0,0,.981.459A2.694,2.694,0,0,0-28.5-2.48a1.793,1.793,0,0,0,.684-.439v-7.646h3.3V0h-2.656Zm10.381-1.387a.862.862,0,0,0-.444-.7,4.792,4.792,0,0,0-1.616-.552,6.38,6.38,0,0,1-2.783-1.118,2.533,2.533,0,0,1-.937-2.085A2.971,2.971,0,0,1-21.8-9.79a4.82,4.82,0,0,1,3.174-.972,5.45,5.45,0,0,1,3.359.942,2.771,2.771,0,0,1,1.191,2.437l-.02.059h-3.2a1.309,1.309,0,0,0-.312-.947,1.383,1.383,0,0,0-1.025-.322,1.341,1.341,0,0,0-.869.283.888.888,0,0,0-.352.723.86.86,0,0,0,.405.713,4.584,4.584,0,0,0,1.636.527A6.571,6.571,0,0,1-14.941-5.21a2.609,2.609,0,0,1,.928,2.144A2.8,2.8,0,0,1-15.278-.718a5.547,5.547,0,0,1-3.345.923A5.016,5.016,0,0,1-22.036-.889a3.013,3.013,0,0,1-1.2-2.441l.02-.059h2.988A1.325,1.325,0,0,0-19.771-2.3a2,2,0,0,0,1.235.332,1.649,1.649,0,0,0,1.006-.259A.87.87,0,0,0-17.187-2.969Zm8.516-10.225v2.627H-7v2.285h-1.67v4.844a1.185,1.185,0,0,0,.229.815.8.8,0,0,0,.62.249,3.318,3.318,0,0,0,.405-.02,3.509,3.509,0,0,0,.386-.078l.225,2.441a7.968,7.968,0,0,1-.9.181,7.236,7.236,0,0,1-.947.054,3.3,3.3,0,0,1-2.476-.869,3.836,3.836,0,0,1-.845-2.754V-8.281h-1.475v-2.285h1.475v-2.627ZM.7-.01A3.986,3.986,0,0,1,.386-.762a5.765,5.765,0,0,1-.2-.879A4.038,4.038,0,0,1-.874-.3a2.558,2.558,0,0,1-1.646.5A3.659,3.659,0,0,1-5.1-.649a3.019,3.019,0,0,1-.923-2.329A2.817,2.817,0,0,1-4.844-5.405,6.126,6.126,0,0,1-1.26-6.26H.1v-.752A1.505,1.505,0,0,0-.225-8.047a1.255,1.255,0,0,0-.986-.361,1.19,1.19,0,0,0-.854.269,1.114,1.114,0,0,0-.278.835l-3.2-.01-.02-.059A2.756,2.756,0,0,1-4.36-9.79,5.4,5.4,0,0,1-1-10.762a4.921,4.921,0,0,1,3.179.977A3.375,3.375,0,0,1,3.4-6.992v3.984A8.128,8.128,0,0,0,3.54-1.445,8.368,8.368,0,0,0,3.965,0ZM-1.621-2.148A2.011,2.011,0,0,0-.552-2.432,1.621,1.621,0,0,0,.1-3.105V-4.5H-1.23a1.492,1.492,0,0,0-1.143.381,1.37,1.37,0,0,0-.352.967.935.935,0,0,0,.308.728A1.141,1.141,0,0,0-1.621-2.148Zm9.863-8.418.127,1.484a3.825,3.825,0,0,1,1.279-1.235,3.31,3.31,0,0,1,1.7-.444,2.979,2.979,0,0,1,2.427,1.055,5.218,5.218,0,0,1,.874,3.35V0h-3.3V-6.367A2.421,2.421,0,0,0,11.025-7.8a1.1,1.1,0,0,0-.937-.425,2.32,2.32,0,0,0-.947.186,1.891,1.891,0,0,0-.7.527V0H5.146V-10.566ZM20.967-2.334A1.291,1.291,0,0,0,21.973-2.7,1.526,1.526,0,0,0,22.3-3.76h3.008l.02.059a3.469,3.469,0,0,1-1.2,2.817A4.616,4.616,0,0,1,20.967.205a4.675,4.675,0,0,1-3.716-1.489,5.679,5.679,0,0,1-1.3-3.882v-.225a5.7,5.7,0,0,1,1.3-3.877,4.64,4.64,0,0,1,3.7-1.494,4.545,4.545,0,0,1,3.218,1.118,3.857,3.857,0,0,1,1.167,3.062l-.02.059H22.3a2.045,2.045,0,0,0-.342-1.226,1.172,1.172,0,0,0-1.016-.474,1.357,1.357,0,0,0-1.333.767,4.741,4.741,0,0,0-.376,2.065v.225a4.723,4.723,0,0,0,.376,2.08A1.378,1.378,0,0,0,20.967-2.334ZM30.137,0H26.826V-10.566h3.311Zm0-13.018H26.826v-2.217h3.311ZM38.262-.01a3.986,3.986,0,0,1-.317-.752,5.765,5.765,0,0,1-.2-.879A4.038,4.038,0,0,1,36.685-.3a2.558,2.558,0,0,1-1.646.5,3.659,3.659,0,0,1-2.583-.854,3.019,3.019,0,0,1-.923-2.329,2.817,2.817,0,0,1,1.182-2.427A6.126,6.126,0,0,1,36.3-6.26h1.357v-.752a1.505,1.505,0,0,0-.322-1.035,1.255,1.255,0,0,0-.986-.361,1.19,1.19,0,0,0-.854.269,1.114,1.114,0,0,0-.278.835l-3.2-.01-.02-.059A2.756,2.756,0,0,1,33.2-9.79a5.4,5.4,0,0,1,3.364-.972,4.921,4.921,0,0,1,3.179.977,3.375,3.375,0,0,1,1.216,2.793v3.984A8.128,8.128,0,0,0,41.1-1.445,8.368,8.368,0,0,0,41.523,0ZM35.938-2.148a2.011,2.011,0,0,0,1.069-.283,1.621,1.621,0,0,0,.649-.674V-4.5H36.328a1.492,1.492,0,0,0-1.143.381,1.37,1.37,0,0,0-.352.967.935.935,0,0,0,.308.728A1.141,1.141,0,0,0,35.938-2.148ZM46.221,0H42.91V-15.234h3.311Z" transform="translate(907 3608.498)" fill="#97181a"/>
    <path id="Trazado_27600" data-name="Trazado 27600" d="M-27.231-4.268h.059l3.213-9.951h4.365V0h-3.3V-9.16l-.059-.01L-26.089,0h-2.217l-3.076-9.033-.059.01V0h-3.3V-14.219h4.326ZM-12.837.205A4.906,4.906,0,0,1-16.6-1.25a5.174,5.174,0,0,1-1.362-3.682V-5.3A5.912,5.912,0,0,1-16.68-9.248a4.562,4.562,0,0,1,3.716-1.514A4.279,4.279,0,0,1-9.648-9.482,4.98,4.98,0,0,1-8.472-5.977v1.729h-6.055l-.02.059a2.052,2.052,0,0,0,.615,1.343,2.148,2.148,0,0,0,1.543.513,6.687,6.687,0,0,0,1.577-.156,9.942,9.942,0,0,0,1.44-.5l.791,2.012a6.04,6.04,0,0,1-1.836.84A8.473,8.473,0,0,1-12.837.205Zm-.127-8.428a1.362,1.362,0,0,0-1.167.5,2.523,2.523,0,0,0-.435,1.362l.02.049h2.852v-.254a2.2,2.2,0,0,0-.288-1.24A1.1,1.1,0,0,0-12.964-8.223Zm5.449,2.959A6.719,6.719,0,0,1-6.436-9.248a3.518,3.518,0,0,1,3.042-1.514,2.623,2.623,0,0,1,1.323.337,3.5,3.5,0,0,1,1.06.962v-5.771h3.3V0H-.6L-.825-1.289A3.553,3.553,0,0,1-1.943-.181a2.79,2.79,0,0,1-1.47.386A3.552,3.552,0,0,1-6.44-1.24,6.248,6.248,0,0,1-7.515-5.059Zm3.3.205a4.388,4.388,0,0,0,.376,2.007,1.314,1.314,0,0,0,1.265.718,2.081,2.081,0,0,0,.913-.19,1.636,1.636,0,0,0,.649-.562V-7.354A1.8,1.8,0,0,0-1.655-8a1.77,1.77,0,0,0-.9-.225,1.317,1.317,0,0,0-1.27.811,4.989,4.989,0,0,0-.391,2.148ZM7.622,0H4.312V-10.566H7.622Zm0-13.018H4.312v-2.217H7.622ZM19.429-5.059a6.4,6.4,0,0,1-1.035,3.838A3.546,3.546,0,0,1,15.327.205a2.961,2.961,0,0,1-1.5-.371,3.271,3.271,0,0,1-1.1-1.074L12.524,0H9.644V-15.234h3.3v5.693a3.183,3.183,0,0,1,1.021-.9,2.756,2.756,0,0,1,1.343-.317,3.51,3.51,0,0,1,3.081,1.494,6.889,6.889,0,0,1,1.04,4Zm-3.291-.205a5.432,5.432,0,0,0-.352-2.183,1.306,1.306,0,0,0-1.309-.776,1.98,1.98,0,0,0-.923.2,1.5,1.5,0,0,0-.61.581V-3a1.439,1.439,0,0,0,.62.5,2.354,2.354,0,0,0,.933.166,1.313,1.313,0,0,0,1.309-.679,4.849,4.849,0,0,0,.332-2.046ZM24.341,0H21.03V-15.234h3.311ZM31.05.205A4.906,4.906,0,0,1,27.285-1.25a5.174,5.174,0,0,1-1.362-3.682V-5.3a5.912,5.912,0,0,1,1.284-3.945,4.562,4.562,0,0,1,3.716-1.514,4.279,4.279,0,0,1,3.315,1.279,4.98,4.98,0,0,1,1.177,3.506v1.729H29.36l-.02.059a2.052,2.052,0,0,0,.615,1.343,2.148,2.148,0,0,0,1.543.513,6.687,6.687,0,0,0,1.577-.156,9.942,9.942,0,0,0,1.44-.5l.791,2.012a6.04,6.04,0,0,1-1.836.84A8.473,8.473,0,0,1,31.05.205Zm-.127-8.428a1.362,1.362,0,0,0-1.167.5,2.523,2.523,0,0,0-.435,1.362l.02.049h2.852v-.254A2.2,2.2,0,0,0,31.9-7.8,1.1,1.1,0,0,0,30.923-8.223Z" transform="translate(830 3369)" fill="#97181a"/>
    <path id="Trazado_27602" data-name="Trazado 27602" d="M-57.852,0V-14.219h5.205a5.8,5.8,0,0,1,4.2,1.636,5.583,5.583,0,0,1,1.689,4.194V-5.83a5.579,5.579,0,0,1-1.689,4.2A5.809,5.809,0,0,1-52.646,0Zm3.3-11.68v9.141h1.9A2.262,2.262,0,0,0-50.8-3.457a3.705,3.705,0,0,0,.728-2.373V-8.408a3.673,3.673,0,0,0-.728-2.354,2.262,2.262,0,0,0-1.851-.918ZM-41.523,0h-3.311V-10.566h3.311Zm0-13.018h-3.311v-2.217h3.311ZM-38.789,0V-8.281h-1.523v-2.285h1.523V-11.66a3.564,3.564,0,0,1,1.094-2.8,4.478,4.478,0,0,1,3.1-.981,5.553,5.553,0,0,1,.767.054q.386.054.864.151l-.244,2.432q-.273-.049-.479-.073a4.3,4.3,0,0,0-.5-.024,1.319,1.319,0,0,0-.957.322,1.221,1.221,0,0,0-.332.918v1.094h2.09v2.285h-2.09V0Zm10.908.205A4.906,4.906,0,0,1-31.646-1.25a5.174,5.174,0,0,1-1.362-3.682V-5.3a5.912,5.912,0,0,1,1.284-3.945,4.562,4.562,0,0,1,3.716-1.514,4.279,4.279,0,0,1,3.315,1.279,4.98,4.98,0,0,1,1.177,3.506v1.729H-29.57l-.02.059a2.052,2.052,0,0,0,.615,1.343,2.148,2.148,0,0,0,1.543.513,6.687,6.687,0,0,0,1.577-.156,9.942,9.942,0,0,0,1.44-.5l.791,2.012a6.04,6.04,0,0,1-1.836.84A8.473,8.473,0,0,1-27.881.205Zm-.127-8.428a1.362,1.362,0,0,0-1.167.5,2.523,2.523,0,0,0-.435,1.362l.02.049h2.852v-.254a2.2,2.2,0,0,0-.288-1.24A1.1,1.1,0,0,0-28.008-8.223Zm11.729.469-1.074-.01a1.829,1.829,0,0,0-.928.21,1.3,1.3,0,0,0-.537.591V0h-3.3V-10.566h3.105l.117,1.553a3.186,3.186,0,0,1,.879-1.289,1.929,1.929,0,0,1,1.279-.459,2.454,2.454,0,0,1,.4.029,3.029,3.029,0,0,1,.371.088ZM-10.566.205A4.906,4.906,0,0,1-14.331-1.25a5.174,5.174,0,0,1-1.362-3.682V-5.3a5.912,5.912,0,0,1,1.284-3.945,4.562,4.562,0,0,1,3.716-1.514A4.279,4.279,0,0,1-7.378-9.482,4.98,4.98,0,0,1-6.2-5.977v1.729h-6.055l-.02.059a2.052,2.052,0,0,0,.615,1.343,2.148,2.148,0,0,0,1.543.513A6.687,6.687,0,0,0-8.54-2.49a9.942,9.942,0,0,0,1.44-.5l.791,2.012a6.04,6.04,0,0,1-1.836.84A8.473,8.473,0,0,1-10.566.205Zm-.127-8.428a1.362,1.362,0,0,0-1.167.5,2.523,2.523,0,0,0-.435,1.362l.02.049h2.852v-.254A2.2,2.2,0,0,0-9.712-7.8,1.1,1.1,0,0,0-10.693-8.223Zm8.926-2.344.127,1.484A3.825,3.825,0,0,1-.361-10.317a3.31,3.31,0,0,1,1.7-.444A2.979,2.979,0,0,1,3.765-9.707a5.218,5.218,0,0,1,.874,3.35V0h-3.3V-6.367A2.421,2.421,0,0,0,1.016-7.8a1.1,1.1,0,0,0-.937-.425,2.32,2.32,0,0,0-.947.186,1.891,1.891,0,0,0-.7.527V0H-4.863V-10.566ZM10.957-2.334A1.291,1.291,0,0,0,11.963-2.7a1.526,1.526,0,0,0,.332-1.06H15.3l.02.059a3.469,3.469,0,0,1-1.2,2.817A4.616,4.616,0,0,1,10.957.205,4.675,4.675,0,0,1,7.241-1.284a5.679,5.679,0,0,1-1.3-3.882v-.225a5.7,5.7,0,0,1,1.3-3.877,4.64,4.64,0,0,1,3.7-1.494,4.545,4.545,0,0,1,3.218,1.118,3.857,3.857,0,0,1,1.167,3.062l-.02.059H12.295a2.045,2.045,0,0,0-.342-1.226,1.172,1.172,0,0,0-1.016-.474A1.357,1.357,0,0,0,9.6-7.456a4.74,4.74,0,0,0-.376,2.065v.225A4.723,4.723,0,0,0,9.6-3.086,1.378,1.378,0,0,0,10.957-2.334ZM20.127,0H16.816V-10.566h3.311Zm0-13.018H16.816v-2.217h3.311ZM28.252-.01a3.986,3.986,0,0,1-.317-.752,5.765,5.765,0,0,1-.2-.879A4.038,4.038,0,0,1,26.675-.3a2.558,2.558,0,0,1-1.646.5,3.659,3.659,0,0,1-2.583-.854,3.019,3.019,0,0,1-.923-2.329,2.817,2.817,0,0,1,1.182-2.427,6.126,6.126,0,0,1,3.584-.854h1.357v-.752a1.505,1.505,0,0,0-.322-1.035,1.255,1.255,0,0,0-.986-.361,1.19,1.19,0,0,0-.854.269,1.114,1.114,0,0,0-.278.835L22-7.314l-.02-.059A2.756,2.756,0,0,1,23.188-9.79a5.4,5.4,0,0,1,3.364-.972,4.921,4.921,0,0,1,3.179.977,3.375,3.375,0,0,1,1.216,2.793v3.984a8.128,8.128,0,0,0,.142,1.563A8.368,8.368,0,0,0,31.514,0ZM25.928-2.148A2.011,2.011,0,0,0,27-2.432a1.621,1.621,0,0,0,.649-.674V-4.5H26.318a1.492,1.492,0,0,0-1.143.381,1.37,1.37,0,0,0-.352.967.935.935,0,0,0,.308.728A1.141,1.141,0,0,0,25.928-2.148Zm16.611-2.91A6.4,6.4,0,0,1,41.5-1.221,3.546,3.546,0,0,1,38.438.205a2.961,2.961,0,0,1-1.5-.371,3.271,3.271,0,0,1-1.1-1.074L35.635,0H32.754V-15.234h3.3v5.693a3.183,3.183,0,0,1,1.021-.9,2.756,2.756,0,0,1,1.343-.317A3.51,3.51,0,0,1,41.5-9.268a6.889,6.889,0,0,1,1.04,4Zm-3.291-.205A5.432,5.432,0,0,0,38.9-7.446a1.306,1.306,0,0,0-1.309-.776,1.98,1.98,0,0,0-.923.2,1.5,1.5,0,0,0-.61.581V-3a1.439,1.439,0,0,0,.62.5,2.354,2.354,0,0,0,.933.166,1.313,1.313,0,0,0,1.309-.679,4.849,4.849,0,0,0,.332-2.046ZM47.451,0H44.141V-15.234h3.311ZM54.16.205A4.906,4.906,0,0,1,50.4-1.25a5.174,5.174,0,0,1-1.362-3.682V-5.3a5.912,5.912,0,0,1,1.284-3.945,4.562,4.562,0,0,1,3.716-1.514,4.279,4.279,0,0,1,3.315,1.279,4.98,4.98,0,0,1,1.177,3.506v1.729H52.471l-.02.059a2.052,2.052,0,0,0,.615,1.343,2.148,2.148,0,0,0,1.543.513,6.687,6.687,0,0,0,1.577-.156,9.942,9.942,0,0,0,1.44-.5l.791,2.012a6.04,6.04,0,0,1-1.836.84A8.473,8.473,0,0,1,54.16.205Zm-.127-8.428a1.362,1.362,0,0,0-1.167.5,2.523,2.523,0,0,0-.435,1.362l.02.049H55.3v-.254a2.2,2.2,0,0,0-.288-1.24A1.1,1.1,0,0,0,54.033-8.223Z" transform="translate(423 3589.498)" fill="#97181a"/>
    <path id="Trazado_27601" data-name="Trazado 27601" d="M-45.337-4.873V0h-3.3V-14.219h5.43a5.91,5.91,0,0,1,4.014,1.289A4.271,4.271,0,0,1-37.71-9.541a4.256,4.256,0,0,1-1.484,3.384,5.925,5.925,0,0,1-4.014,1.284Zm0-2.539h2.129A2.167,2.167,0,0,0-41.567-8,2.1,2.1,0,0,0-41-9.521a2.193,2.193,0,0,0-.562-1.553,2.135,2.135,0,0,0-1.646-.605h-2.129Zm15.1-.342-1.074-.01a1.829,1.829,0,0,0-.928.21,1.3,1.3,0,0,0-.537.591V0h-3.3V-10.566h3.105l.117,1.553a3.186,3.186,0,0,1,.879-1.289,1.929,1.929,0,0,1,1.279-.459,2.454,2.454,0,0,1,.4.029,3.029,3.029,0,0,1,.371.088Zm.576,2.373a5.585,5.585,0,0,1,1.348-3.882,4.8,4.8,0,0,1,3.76-1.5,4.808,4.808,0,0,1,3.77,1.5,5.585,5.585,0,0,1,1.348,3.882v.205a5.581,5.581,0,0,1-1.348,3.887A4.792,4.792,0,0,1-24.536.205a4.829,4.829,0,0,1-3.779-1.494,5.581,5.581,0,0,1-1.348-3.887Zm3.3.205a4.368,4.368,0,0,0,.415,2.085,1.477,1.477,0,0,0,1.411.757A1.459,1.459,0,0,0-23.149-3.1a4.331,4.331,0,0,0,.42-2.08v-.205a4.347,4.347,0,0,0-.42-2.065,1.471,1.471,0,0,0-1.406-.776,1.45,1.45,0,0,0-1.392.781,4.4,4.4,0,0,0-.415,2.061Zm12.9,2.842A1.291,1.291,0,0,0-12.456-2.7a1.526,1.526,0,0,0,.332-1.06h3.008l.02.059a3.469,3.469,0,0,1-1.2,2.817A4.616,4.616,0,0,1-13.462.205a4.675,4.675,0,0,1-3.716-1.489,5.679,5.679,0,0,1-1.3-3.882v-.225a5.7,5.7,0,0,1,1.3-3.877,4.64,4.64,0,0,1,3.7-1.494,4.545,4.545,0,0,1,3.218,1.118A3.857,3.857,0,0,1-9.1-6.582l-.02.059h-3.008a2.045,2.045,0,0,0-.342-1.226,1.172,1.172,0,0,0-1.016-.474,1.357,1.357,0,0,0-1.333.767,4.74,4.74,0,0,0-.376,2.065v.225a4.723,4.723,0,0,0,.376,2.08A1.378,1.378,0,0,0-13.462-2.334ZM-3.062.205A4.906,4.906,0,0,1-6.826-1.25,5.174,5.174,0,0,1-8.188-4.932V-5.3A5.912,5.912,0,0,1-6.9-9.248a4.562,4.562,0,0,1,3.716-1.514A4.279,4.279,0,0,1,.127-9.482,4.98,4.98,0,0,1,1.3-5.977v1.729H-4.751l-.02.059a2.052,2.052,0,0,0,.615,1.343,2.148,2.148,0,0,0,1.543.513A6.687,6.687,0,0,0-1.035-2.49a9.942,9.942,0,0,0,1.44-.5L1.2-.977A6.04,6.04,0,0,1-.64-.137,8.473,8.473,0,0,1-3.062.205Zm-.127-8.428a1.362,1.362,0,0,0-1.167.5A2.523,2.523,0,0,0-4.79-6.357l.02.049h2.852v-.254A2.2,2.2,0,0,0-2.207-7.8,1.1,1.1,0,0,0-3.188-8.223Zm11.4,5.254a.862.862,0,0,0-.444-.7,4.792,4.792,0,0,0-1.616-.552A6.38,6.38,0,0,1,3.364-5.337a2.533,2.533,0,0,1-.937-2.085A2.971,2.971,0,0,1,3.6-9.79a4.82,4.82,0,0,1,3.174-.972,5.45,5.45,0,0,1,3.359.942,2.771,2.771,0,0,1,1.191,2.437l-.02.059H8.1a1.309,1.309,0,0,0-.312-.947,1.383,1.383,0,0,0-1.025-.322,1.341,1.341,0,0,0-.869.283.888.888,0,0,0-.352.723.86.86,0,0,0,.405.713,4.584,4.584,0,0,0,1.636.527A6.571,6.571,0,0,1,10.454-5.21a2.609,2.609,0,0,1,.928,2.144A2.8,2.8,0,0,1,10.117-.718,5.547,5.547,0,0,1,6.772.205,5.016,5.016,0,0,1,3.359-.889a3.013,3.013,0,0,1-1.2-2.441l.02-.059H5.171A1.325,1.325,0,0,0,5.625-2.3a2,2,0,0,0,1.235.332,1.649,1.649,0,0,0,1.006-.259A.87.87,0,0,0,8.208-2.969ZM19.038-.01a3.986,3.986,0,0,1-.317-.752,5.765,5.765,0,0,1-.2-.879A4.038,4.038,0,0,1,17.461-.3a2.558,2.558,0,0,1-1.646.5,3.659,3.659,0,0,1-2.583-.854,3.019,3.019,0,0,1-.923-2.329,2.817,2.817,0,0,1,1.182-2.427,6.126,6.126,0,0,1,3.584-.854h1.357v-.752a1.505,1.505,0,0,0-.322-1.035,1.255,1.255,0,0,0-.986-.361,1.19,1.19,0,0,0-.854.269,1.114,1.114,0,0,0-.278.835l-3.2-.01-.02-.059A2.756,2.756,0,0,1,13.975-9.79a5.4,5.4,0,0,1,3.364-.972,4.921,4.921,0,0,1,3.179.977,3.375,3.375,0,0,1,1.216,2.793v3.984a8.128,8.128,0,0,0,.142,1.563A8.368,8.368,0,0,0,22.3,0ZM16.714-2.148a2.011,2.011,0,0,0,1.069-.283,1.621,1.621,0,0,0,.649-.674V-4.5H17.1a1.492,1.492,0,0,0-1.143.381,1.37,1.37,0,0,0-.352.967.935.935,0,0,0,.308.728A1.141,1.141,0,0,0,16.714-2.148Zm16.611-2.91A6.4,6.4,0,0,1,32.29-1.221,3.546,3.546,0,0,1,29.224.205a2.961,2.961,0,0,1-1.5-.371,3.271,3.271,0,0,1-1.1-1.074L26.421,0H23.54V-15.234h3.3v5.693a3.183,3.183,0,0,1,1.021-.9,2.756,2.756,0,0,1,1.343-.317,3.51,3.51,0,0,1,3.081,1.494,6.889,6.889,0,0,1,1.04,4Zm-3.291-.205a5.432,5.432,0,0,0-.352-2.183,1.306,1.306,0,0,0-1.309-.776,1.98,1.98,0,0,0-.923.2,1.5,1.5,0,0,0-.61.581V-3a1.439,1.439,0,0,0,.62.5,2.354,2.354,0,0,0,.933.166A1.313,1.313,0,0,0,29.7-3.013a4.849,4.849,0,0,0,.332-2.046ZM38.237,0H34.927V-15.234h3.311Zm6.709.205A4.906,4.906,0,0,1,41.182-1.25a5.174,5.174,0,0,1-1.362-3.682V-5.3A5.912,5.912,0,0,1,41.1-9.248a4.562,4.562,0,0,1,3.716-1.514,4.279,4.279,0,0,1,3.315,1.279,4.98,4.98,0,0,1,1.177,3.506v1.729H43.257l-.02.059a2.052,2.052,0,0,0,.615,1.343,2.148,2.148,0,0,0,1.543.513,6.687,6.687,0,0,0,1.577-.156,9.942,9.942,0,0,0,1.44-.5L49.2-.977a6.04,6.04,0,0,1-1.836.84A8.473,8.473,0,0,1,44.946.205Zm-.127-8.428a1.362,1.362,0,0,0-1.167.5,2.523,2.523,0,0,0-.435,1.362l.02.049h2.852v-.254A2.2,2.2,0,0,0,45.8-7.8,1.1,1.1,0,0,0,44.819-8.223Z" transform="translate(510.5 3361)" fill="#97181a"/>
    <g id="Grupo_22467" data-name="Grupo 22467" transform="translate(-2 31)">
      <g id="Grupo_22470" data-name="Grupo 22470" transform="translate(574.617 3484.324)">
        <ellipse id="Base" cx="27.5" cy="28" rx="27.5" ry="28" transform="translate(0.382 -0.324)" fill="#fff"/>
        <g id="_008-rating" data-name="008-rating" transform="translate(7.587 8.967)">
          <path id="Trazado_20573" data-name="Trazado 20573" d="M247.545,380.773a.773.773,0,1,1-.773-.773A.773.773,0,0,1,247.545,380.773Zm0,0" transform="translate(-226.992 -350.638)"/>
          <path id="Trazado_20574" data-name="Trazado 20574" d="M368.272,244.636a4.636,4.636,0,1,0-4.636,4.636A4.641,4.641,0,0,0,368.272,244.636Zm-4.636,3.091a3.091,3.091,0,1,1,3.091-3.091A3.094,3.094,0,0,1,363.636,247.727Zm0,0" transform="translate(-331.261 -221.456)"/>
          <path id="Trazado_20575" data-name="Trazado 20575" d="M32.375,341.545a7.55,7.55,0,0,0-5.211,2.119,9.271,9.271,0,0,0-14.766,0,7.552,7.552,0,0,0-5.212-2.119A7.168,7.168,0,0,0,0,348.5v1.545a.773.773,0,0,0,.773.773H38.789a.773.773,0,0,0,.773-.773V348.5A7.168,7.168,0,0,0,32.375,341.545ZM1.545,348.5a5.6,5.6,0,0,1,5.641-5.409,5.9,5.9,0,0,1,4.359,1.92,9.272,9.272,0,0,0-1.037,4.262H1.545Zm18.235-6.954a7.725,7.725,0,0,1,7.727,7.727H12.054A7.734,7.734,0,0,1,19.781,341.545Zm18.235,7.727H29.053a9.272,9.272,0,0,0-1.037-4.262,5.9,5.9,0,0,1,4.359-1.92,5.6,5.6,0,0,1,5.641,5.409Zm0,0" transform="translate(0 -313.729)"/>
          <path id="Trazado_20576" data-name="Trazado 20576" d="M42.272,244.636a4.636,4.636,0,1,0-4.636,4.636A4.641,4.641,0,0,0,42.272,244.636Zm-4.636,3.091a3.091,3.091,0,1,1,3.091-3.091A3.094,3.094,0,0,1,37.636,247.727Zm0,0" transform="translate(-30.45 -221.456)"/>
          <path id="Trazado_20577" data-name="Trazado 20577" d="M188.363,186.181a6.181,6.181,0,1,0-6.181,6.181A6.188,6.188,0,0,0,188.363,186.181Zm-6.181,4.636a4.636,4.636,0,1,1,4.636-4.636A4.641,4.641,0,0,1,182.181,190.818Zm0,0" transform="translate(-162.401 -166.092)"/>
          <path id="Trazado_20578" data-name="Trazado 20578" d="M187.975,4.494a.772.772,0,0,0-.624-.526l-3.333-.484L182.526.433a.773.773,0,0,0-1.388,0l-1.492,3.051-3.333.484a.773.773,0,0,0-.428,1.318L178.3,7.638l-.57,3.322a.773.773,0,0,0,1.121.814l2.982-1.568,2.983,1.568a.773.773,0,0,0,1.121-.815l-.57-3.321,2.413-2.352a.772.772,0,0,0,.2-.792ZM184,6.815a.773.773,0,0,0-.222.684l.374,2.179-1.956-1.029a.773.773,0,0,0-.719,0l-1.956,1.029L179.89,7.5a.773.773,0,0,0-.222-.684l-1.583-1.543,2.187-.318a.772.772,0,0,0,.583-.425l.977-2,.977,2a.772.772,0,0,0,.583.425l2.187.318Zm0,0" transform="translate(-162.079 0)"/>
          <path id="Trazado_20579" data-name="Trazado 20579" d="M374.656,93.331a.772.772,0,0,0-.624-.526l-2.258-.328-1.01-2.046a.772.772,0,0,0-.693-.431h0a.772.772,0,0,0-.693.431l-1.01,2.046-2.258.328a.773.773,0,0,0-.428,1.318l1.634,1.593-.386,2.249a.773.773,0,0,0,1.121.815l2.02-1.062,2.02,1.062a.773.773,0,0,0,1.121-.815l-.386-2.249,1.634-1.593A.772.772,0,0,0,374.656,93.331Zm-3.2,1.563a.771.771,0,0,0-.222.684l.19,1.106-.993-.522a.772.772,0,0,0-.719,0l-.994.522.19-1.106a.773.773,0,0,0-.222-.684l-.8-.784,1.111-.161a.773.773,0,0,0,.582-.423l.5-1.007.5,1.006a.773.773,0,0,0,.582.423l1.111.161Zm0,0" transform="translate(-337.211 -83.045)"/>
          <path id="Trazado_20580" data-name="Trazado 20580" d="M34.656,93.331a.772.772,0,0,0-.624-.526l-2.258-.328-1.01-2.046a.773.773,0,0,0-1.386,0l-1.01,2.046-2.258.328a.773.773,0,0,0-.428,1.318l1.634,1.593-.385,2.249a.773.773,0,0,0,1.121.815l2.02-1.062,2.02,1.062a.773.773,0,0,0,1.121-.815l-.386-2.249,1.634-1.593a.772.772,0,0,0,.2-.792Zm-3.2,1.563a.773.773,0,0,0-.222.684l.19,1.106-.994-.522a.772.772,0,0,0-.719,0l-.995.522.19-1.106a.772.772,0,0,0-.222-.684l-.8-.784,1.111-.161a.773.773,0,0,0,.582-.423l.5-1.007.5,1.006a.773.773,0,0,0,.582.423l1.111.161Zm0,0" transform="translate(-23.483 -83.045)"/>
          <path id="Trazado_20581" data-name="Trazado 20581" d="M285.525,391.576a.773.773,0,0,0-.848,1.292,4.664,4.664,0,0,1,1.651,1.892.773.773,0,0,0,1.4-.664,6.206,6.206,0,0,0-2.2-2.52Zm0,0" transform="translate(-262.358 -361.202)"/>
        </g>
      </g>
      <g id="Grupo_22469" data-name="Grupo 22469" transform="translate(655.908 3554.496)">
        <ellipse id="Base-2" data-name="Base" cx="27.5" cy="28" rx="27.5" ry="28" transform="translate(0.091 -0.496)" fill="#fff"/>
        <g id="_037-flag" data-name="037-flag" transform="translate(7.587 7.587)">
          <path id="Trazado_20559" data-name="Trazado 20559" d="M91.545,320.773a.773.773,0,1,1-.773-.773A.773.773,0,0,1,91.545,320.773Zm0,0" transform="translate(-83.046 -295.274)"/>
          <path id="Trazado_20560" data-name="Trazado 20560" d="M.773,130.289a.773.773,0,0,0,0,1.545h33.38a.773.773,0,0,0,0-1.545H28.744v-.773c0-1.305-1.5-2.318-2.782-2.318H23.644V109.272h6.645v2.318a.773.773,0,0,0,.773.773h7.727a.773.773,0,0,0,.6-1.255l-2.7-3.381,2.7-3.381a.773.773,0,0,0-.6-1.255H31.835v-2.318a.773.773,0,0,0-.773-.773h-8.19a.773.773,0,0,0-.773.773V127.2H19.317A2.321,2.321,0,0,0,17,129.517v.773H12.363V118.545h2.318a.773.773,0,0,0,.773-.773v-8.5a7.727,7.727,0,1,0-15.454,0v8.5a.773.773,0,0,0,.773.773H3.091v11.745Zm36.409-25.653-2.087,2.608a.772.772,0,0,0,0,.965l2.087,2.608H31.835v-6.181Zm-13.537-3.091h6.645v6.181H23.644Zm-5.1,27.971a.773.773,0,0,1,.773-.773h6.645c.561,0,1.236.474,1.236.773v.773H18.544ZM1.545,117v-7.727a6.181,6.181,0,1,1,12.363,0V117H11.59a.773.773,0,0,0-.773.773v12.518H8.5v-9.427a.773.773,0,0,0-1.545,0v9.427H4.636V117.772A.773.773,0,0,0,3.863,117Zm0,0" transform="translate(0 -92.273)"/>
          <path id="Trazado_20561" data-name="Trazado 20561" d="M49.272,4.636a4.636,4.636,0,1,0-4.636,4.636A4.641,4.641,0,0,0,49.272,4.636ZM44.636,7.727a3.091,3.091,0,1,1,3.091-3.091A3.094,3.094,0,0,1,44.636,7.727Zm0,0" transform="translate(-36.909)"/>
        </g>
      </g>
      <g id="Grupo_22471" data-name="Grupo 22471" transform="translate(606.1 3401.324)">
        <ellipse id="Base-3" data-name="Base" cx="27.5" cy="28" rx="27.5" ry="28" transform="translate(-0.1 -0.324)" fill="#fff"/>
        <g id="_027-puzzle" data-name="027-puzzle" transform="translate(7.587 7.587)">
          <path id="Trazado_20567" data-name="Trazado 20567" d="M327.833,412.626a.772.772,0,1,0,1.092,0A.772.772,0,0,0,327.833,412.626Zm0,0" transform="translate(-302.293 -380.535)"/>
          <path id="Trazado_20568" data-name="Trazado 20568" d="M108.057,192.9a.773.773,0,1,0,1.092,0A.774.774,0,0,0,108.057,192.9Zm0,0" transform="translate(-99.499 -177.79)"/>
          <path id="Trazado_20569" data-name="Trazado 20569" d="M237.458,225.454a.773.773,0,0,0-1.279.3,5.048,5.048,0,0,1-1.007,1.784,1.545,1.545,0,0,1-2.185-2.186,5.054,5.054,0,0,1,1.784-1.006.773.773,0,0,0,.3-1.279L231.6,219.6a2.321,2.321,0,0,0-3.278,0l-2.375,2.375a5.516,5.516,0,0,0-.9-1.282,3.091,3.091,0,1,0-4.371,4.371,5.515,5.515,0,0,0,1.283.9l-2.375,2.375a2.317,2.317,0,0,0,0,3.279l2.672,2.668a5.5,5.5,0,0,0-1.282.9,3.091,3.091,0,0,0,4.37,4.371,5.508,5.508,0,0,0,.9-1.283l2.607,2.607a2.317,2.317,0,0,0,3.279,0l2.375-2.375a5.509,5.509,0,0,0,.9,1.282,3.091,3.091,0,0,0,4.371-4.371,5.519,5.519,0,0,0-1.282-.9l2.375-2.375a2.322,2.322,0,0,0,0-3.278Zm2.317,5.6-3.178,3.178a.773.773,0,0,0,.3,1.279,5.049,5.049,0,0,1,1.784,1.006A1.545,1.545,0,1,1,236.5,238.7a5.059,5.059,0,0,1-1.006-1.785.773.773,0,0,0-1.279-.3l-3.178,3.178a.773.773,0,0,1-1.093,0l-3.41-3.409a.773.773,0,0,0-1.279.3,5.051,5.051,0,0,1-1.007,1.785,1.545,1.545,0,0,1-2.185-2.186,5.05,5.05,0,0,1,1.784-1.006.773.773,0,0,0,.3-1.279l-3.476-3.471a.773.773,0,0,1,0-1.093l3.178-3.178a.773.773,0,0,0-.3-1.279,5.06,5.06,0,0,1-1.784-1.006,1.546,1.546,0,0,1,2.186-2.186,5.059,5.059,0,0,1,1.006,1.784.773.773,0,0,0,1.279.3l3.178-3.178a.774.774,0,0,1,1.094,0l2.672,2.668a5.5,5.5,0,0,0-1.282.9,3.09,3.09,0,0,0,4.37,4.371,5.5,5.5,0,0,0,.9-1.283l2.607,2.607A.775.775,0,0,1,239.775,231.05Zm0,0" transform="translate(-201.983 -202.004)"/>
          <path id="Trazado_20570" data-name="Trazado 20570" d="M16.5,14.317A5.046,5.046,0,0,1,17.507,16.1a.773.773,0,0,0,1.279.3l3.178-3.178a2.317,2.317,0,0,0,0-3.278L19.3,7.277a5.509,5.509,0,0,0,1.282-.9A3.091,3.091,0,1,0,16.208,2a5.522,5.522,0,0,0-.9,1.282L12.7.679a2.322,2.322,0,0,0-3.278,0L7.044,3.054a5.527,5.527,0,0,0-.9-1.282A3.091,3.091,0,0,0,1.771,6.143a5.514,5.514,0,0,0,1.282.9L.678,9.42a2.322,2.322,0,0,0,0,3.278l2.607,2.607a5.516,5.516,0,0,0-1.282.9,3.091,3.091,0,0,0,4.371,4.371,5.506,5.506,0,0,0,.9-1.282l2.668,2.668a2.321,2.321,0,0,0,3.278,0L16.4,18.787a.772.772,0,0,0-.3-1.279A5.047,5.047,0,0,1,14.315,16.5,1.545,1.545,0,1,1,16.5,14.317Zm-3.278,3.277A5.441,5.441,0,0,0,14.5,18.5L12.13,20.872a.774.774,0,0,1-1.093,0L7.566,17.4a.773.773,0,0,0-1.279.3,5.05,5.05,0,0,1-1.006,1.784A1.545,1.545,0,1,1,3.1,17.3,5.055,5.055,0,0,1,4.88,16.295a.773.773,0,0,0,.3-1.279l-3.41-3.41a.774.774,0,0,1,0-1.093L4.949,7.335a.773.773,0,0,0-.3-1.279A5.056,5.056,0,0,1,2.863,5.05,1.545,1.545,0,0,1,5.049,2.864,5.062,5.062,0,0,1,6.055,4.649a.773.773,0,0,0,1.279.3l3.178-3.178a.774.774,0,0,1,1.094,0l3.41,3.41a.773.773,0,0,0,1.279-.3A5.059,5.059,0,0,1,17.3,3.1a1.545,1.545,0,0,1,2.185,2.186A5.055,5.055,0,0,1,17.7,6.288a.773.773,0,0,0-.3,1.279l3.472,3.472a.773.773,0,0,1,0,1.093L18.5,14.506a5.5,5.5,0,0,0-.9-1.282,3.09,3.09,0,0,0-4.371,4.37Zm0,0" transform="translate(-0.001 -0.001)"/>
          <path id="Trazado_20571" data-name="Trazado 20571" d="M49.578,133.341a.773.773,0,1,0-1.093,1.093l2.418,2.417A.773.773,0,0,0,52,135.758Zm0,0" transform="translate(-44.53 -122.829)"/>
          <path id="Trazado_20572" data-name="Trazado 20572" d="M268.5,352.264a.773.773,0,1,0-1.091,1.094l2.484,2.479a.773.773,0,0,0,1.091-1.094Zm0,0" transform="translate(-246.535 -324.837)"/>
        </g>
      </g>
      <g id="Grupo_22468" data-name="Grupo 22468" transform="translate(732.566 3484.496)">
        <ellipse id="Base-4" data-name="Base" cx="27.5" cy="28" rx="27.5" ry="28" transform="translate(0.433 -0.496)" fill="#fff"/>
        <g id="_023-startup" data-name="023-startup" transform="translate(7.808 7.81)">
          <path id="Trazado_20562" data-name="Trazado 20562" d="M274.513,217.94a.773.773,0,1,0,1.093,0A.774.774,0,0,0,274.513,217.94Zm0,0" transform="translate(-253.093 -200.892)"/>
          <path id="Trazado_20563" data-name="Trazado 20563" d="M105.366,11.049A29.95,29.95,0,0,0,107.723.787.773.773,0,0,0,106.951,0h-.014A29.94,29.94,0,0,0,96.6,2.391a21.185,21.185,0,0,0-6.552,4.36C89.009,7.787,87.986,8.919,87,10.12c-5.519-.95-7.559,2.14-9.715,5.407A25.484,25.484,0,0,1,74.1,19.687.773.773,0,0,0,74.73,21l5.316-.6-.676,1.132a.772.772,0,0,0-.075.623c.062.2.132.405.209.605l-2.495,2.495a.773.773,0,0,0-.117.942,13.294,13.294,0,0,0,4.64,4.639.773.773,0,0,0,.942-.117l2.494-2.495c.2.076.4.147.605.209a.772.772,0,0,0,.623-.075l1.132-.676-.6,5.316a.773.773,0,0,0,1.314.634,23.206,23.206,0,0,1,3.873-2.917c3.277-2.125,6.661-4.322,5.693-9.987,1.2-.986,2.334-2.009,3.371-3.045a21.24,21.24,0,0,0,4.393-6.629Zm-1.374-.718a10.057,10.057,0,0,1-6.6-6.6A29.415,29.415,0,0,1,106.127,1.6a29.317,29.317,0,0,1-2.136,8.735ZM78.575,16.379c1.966-2.978,3.437-5.206,7.309-4.85a81,81,0,0,0-4.832,7.2l-4.5.511C77.326,18.271,77.976,17.286,78.575,16.379Zm3.241,12.807a11.724,11.724,0,0,1-3.278-3.278l1.68-1.68A9.435,9.435,0,0,0,83.5,27.505Zm9.253.228c-.862.559-1.742,1.13-2.586,1.78L89,26.671a81.065,81.065,0,0,0,7.195-4.83C96.547,25.86,94.1,27.45,91.068,29.414Zm-5.363-2.568a7.929,7.929,0,0,1-4.828-4.828c2.99-5.008,5.924-9.838,10.261-14.175a18.941,18.941,0,0,1,4.843-3.455,11.6,11.6,0,0,0,7.353,7.353,18.941,18.941,0,0,1-3.455,4.843c-4.328,4.328-9.176,7.277-14.175,10.261Zm0,0" transform="translate(-68.162 0.001)"/>
          <path id="Trazado_20564" data-name="Trazado 20564" d="M207.075,246.227l-3.278,3.278a.773.773,0,0,0,1.093,1.093l3.278-3.279a.773.773,0,0,0-1.093-1.093Zm0,0" transform="translate(-187.841 -226.992)"/>
          <path id="Trazado_20565" data-name="Trazado 20565" d="M307.776,126.072a3.091,3.091,0,1,0,4.371,0A3.094,3.094,0,0,0,307.776,126.072Zm3.279,3.278a1.546,1.546,0,1,1,0-2.186A1.547,1.547,0,0,1,311.054,129.351Zm0,0" transform="translate(-283.16 -115.497)"/>
          <path id="Trazado_20566" data-name="Trazado 20566" d="M5.028,379.563c-.488.488-.218.231-4.923,8.238a.773.773,0,0,0,1.057,1.057c8.023-4.715,7.749-4.435,8.238-4.923a3.091,3.091,0,1,0-4.371-4.371Zm3.278,1.092a1.549,1.549,0,0,1,0,2.186c-.246.246.058.008-5.387,3.2,3.163-5.393,2.954-5.139,3.2-5.387a1.548,1.548,0,0,1,2.186,0Zm0,0" transform="translate(0 -349.401)"/>
        </g>
      </g>
      <g id="Grupo_22467-2" data-name="Grupo 22467" transform="translate(703.912 3401.496)">
        <ellipse id="Base-5" data-name="Base" cx="27.5" cy="28" rx="27.5" ry="28" transform="translate(0.087 -0.496)" fill="#fff"/>
        <g id="_015-bar-chart" data-name="015-bar-chart" transform="translate(8.226 8.226)">
          <path id="Trazado_20556" data-name="Trazado 20556" d="M122,366.748a.748.748,0,1,0,.748-.748A.748.748,0,0,0,122,366.748Zm0,0" transform="translate(-94.334 -338.634)"/>
          <path id="Trazado_20557" data-name="Trazado 20557" d="M.748,35.292H2.991V23.628a.748.748,0,0,1,.748-.748H10.02a.748.748,0,0,1,.748.748V35.292h2.991V16.151a.748.748,0,0,1,.748-.748h6.281a.748.748,0,0,1,.748.748V35.292h2.991V8.674a.748.748,0,0,1,.748-.748h6.281a.748.748,0,0,1,.748.748V35.292h2.991V.748a.748.748,0,0,1,1.5,0V6.43h.748a.748.748,0,1,1,0,1.5h-.748v4.486h.748a.748.748,0,1,1,0,1.5h-.748v4.486h.748a.748.748,0,1,1,0,1.5h-.748v4.486h.748a.748.748,0,1,1,0,1.5h-.748v4.486h.748a.748.748,0,1,1,0,1.5h-.748V36.04a.748.748,0,0,1-.748.748H32.3v.748a.748.748,0,0,1-1.5,0v-.748H26.021v.748a.748.748,0,0,1-1.5,0v-.748H19.89v.748a.748.748,0,0,1-1.5,0v-.748H13.758v.748a.748.748,0,0,1-1.5,0v-.748H7.627v.748a.748.748,0,0,1-1.5,0v-.748H.748a.748.748,0,1,1,0-1.5ZM9.272,24.376H4.486V35.292H9.272ZM20.039,16.9H15.254V35.292h4.785Zm5.982-7.477V35.292h4.785V9.421Zm0,0" transform="translate(0)"/>
          <path id="Trazado_20558" data-name="Trazado 20558" d="M122.748,216.468a.748.748,0,0,1-.748-.748v-8.973a.748.748,0,0,1,1.5,0v8.973A.748.748,0,0,1,122.748,216.468Zm0,0" transform="translate(-94.334 -190.597)"/>
        </g>
      </g>
    </g>
  </g>
</svg>
