<svg xmlns="http://www.w3.org/2000/svg" width="720" height="420" viewBox="0 0 720 420">
  <g id="Grupo_55865" data-name="Grupo 55865" transform="translate(-323 -4749)">
    <g id="Grupo_22661" data-name="Grupo 22661">
      <rect id="Rectángulo_5006" data-name="Rectángulo 5006" width="720" height="420" transform="translate(323 4749)" fill="#f6f6f6"/>
      <g id="Grupo_22480" data-name="Grupo 22480" transform="translate(0 -34)">
        <rect id="Rectángulo_5021" data-name="Rectángulo 5021" width="200" height="320" rx="10" transform="translate(363 4833)" fill="#d64626"/>
        <path id="Rectángulo_5024" data-name="Rectángulo 5024" d="M10,0H50a0,0,0,0,1,0,0V10a0,0,0,0,1,0,0H0a0,0,0,0,1,0,0v0A10,10,0,0,1,10,0Z" transform="translate(363 4833)" fill="#97181a"/>
        <rect id="Rectángulo_5022" data-name="Rectángulo 5022" width="200" height="320" rx="10" transform="translate(583 4833)" fill="#d64626"/>
        <path id="Rectángulo_5025" data-name="Rectángulo 5025" d="M10,0H50a0,0,0,0,1,0,0V10a0,0,0,0,1,0,0H0a0,0,0,0,1,0,0v0A10,10,0,0,1,10,0Z" transform="translate(583 4833)" fill="#97181a"/>
        <rect id="Rectángulo_5023" data-name="Rectángulo 5023" width="200" height="320" rx="10" transform="translate(803 4833)" fill="#d64626"/>
        <path id="Rectángulo_5026" data-name="Rectángulo 5026" d="M10,0H50a0,0,0,0,1,0,0V10a0,0,0,0,1,0,0H0a0,0,0,0,1,0,0v0A10,10,0,0,1,10,0Z" transform="translate(803 4833)" fill="#97181a"/>
        <text id="Identificar_necesidades" data-name="Identificar necesidades" transform="translate(383 4855)" fill="#fff" font-size="20" font-family="Roboto-Black, Roboto" font-weight="800"><tspan x="0" y="19">Identificar </tspan><tspan x="0" y="40">necesidades</tspan></text>
        <path id="Trazado_27605" data-name="Trazado 27605" d="M8.574,16.236H4.346L3.525,19H.049L4.688,4.781H6.455v.01l.01-.01H8.232L12.881,19H9.4ZM5.107,13.7H7.813L6.484,9.283H6.426Zm13.115,2.969a1.291,1.291,0,0,0,1.006-.366,1.526,1.526,0,0,0,.332-1.06h3.008l.02.059a3.469,3.469,0,0,1-1.2,2.817,4.616,4.616,0,0,1-3.169,1.089,4.675,4.675,0,0,1-3.716-1.489,5.679,5.679,0,0,1-1.3-3.882v-.225a5.7,5.7,0,0,1,1.3-3.877,4.64,4.64,0,0,1,3.7-1.494,4.545,4.545,0,0,1,3.218,1.118,3.857,3.857,0,0,1,1.167,3.062l-.02.059H19.561a2.045,2.045,0,0,0-.342-1.226,1.172,1.172,0,0,0-1.016-.474,1.357,1.357,0,0,0-1.333.767,4.74,4.74,0,0,0-.376,2.065v.225a4.723,4.723,0,0,0,.376,2.08A1.378,1.378,0,0,0,18.223,16.666Zm10.234,0a1.291,1.291,0,0,0,1.006-.366,1.526,1.526,0,0,0,.332-1.06H32.8l.02.059a3.469,3.469,0,0,1-1.2,2.817,4.616,4.616,0,0,1-3.169,1.089,4.675,4.675,0,0,1-3.716-1.489,5.679,5.679,0,0,1-1.3-3.882v-.225a5.7,5.7,0,0,1,1.3-3.877,4.64,4.64,0,0,1,3.7-1.494,4.545,4.545,0,0,1,3.218,1.118,3.857,3.857,0,0,1,1.167,3.062l-.02.059H29.795a2.045,2.045,0,0,0-.342-1.226,1.172,1.172,0,0,0-1.016-.474,1.357,1.357,0,0,0-1.333.767,4.74,4.74,0,0,0-.376,2.065v.225a4.723,4.723,0,0,0,.376,2.08A1.378,1.378,0,0,0,28.457,16.666ZM37.627,19H34.316V8.434h3.311Zm0-13.018H34.316V3.766h3.311Zm1.582,7.637a5.585,5.585,0,0,1,1.348-3.882,4.8,4.8,0,0,1,3.76-1.5,4.808,4.808,0,0,1,3.77,1.5,5.585,5.585,0,0,1,1.348,3.882v.205a5.581,5.581,0,0,1-1.348,3.887,4.792,4.792,0,0,1-3.75,1.494,4.829,4.829,0,0,1-3.779-1.494,5.581,5.581,0,0,1-1.348-3.887Zm3.3.205a4.368,4.368,0,0,0,.415,2.085,1.477,1.477,0,0,0,1.411.757,1.459,1.459,0,0,0,1.387-.762,4.331,4.331,0,0,0,.42-2.08v-.205a4.347,4.347,0,0,0-.42-2.065,1.471,1.471,0,0,0-1.406-.776,1.45,1.45,0,0,0-1.392.781,4.4,4.4,0,0,0-.415,2.061ZM53.926,8.434l.127,1.484a3.825,3.825,0,0,1,1.279-1.235,3.31,3.31,0,0,1,1.7-.444,2.979,2.979,0,0,1,2.427,1.055,5.218,5.218,0,0,1,.874,3.35V19h-3.3V12.633a2.421,2.421,0,0,0-.322-1.431,1.1,1.1,0,0,0-.937-.425,2.32,2.32,0,0,0-.947.186,1.891,1.891,0,0,0-.7.527V19H50.83V8.434ZM66.816,19.205a4.906,4.906,0,0,1-3.765-1.455,5.174,5.174,0,0,1-1.362-3.682V13.7a5.912,5.912,0,0,1,1.284-3.945,4.562,4.562,0,0,1,3.716-1.514A4.279,4.279,0,0,1,70,9.518a4.98,4.98,0,0,1,1.177,3.506v1.729H65.127l-.02.059a2.052,2.052,0,0,0,.615,1.343,2.148,2.148,0,0,0,1.543.513,6.687,6.687,0,0,0,1.577-.156,9.942,9.942,0,0,0,1.44-.5l.791,2.012a6.04,6.04,0,0,1-1.836.84A8.473,8.473,0,0,1,66.816,19.205Zm-.127-8.428a1.362,1.362,0,0,0-1.167.5,2.523,2.523,0,0,0-.435,1.362l.02.049h2.852v-.254a2.2,2.2,0,0,0-.288-1.24A1.1,1.1,0,0,0,66.689,10.777Zm11.4,5.254a.862.862,0,0,0-.444-.7,4.792,4.792,0,0,0-1.616-.552,6.38,6.38,0,0,1-2.783-1.118,2.533,2.533,0,0,1-.937-2.085A2.971,2.971,0,0,1,73.477,9.21a4.82,4.82,0,0,1,3.174-.972,5.45,5.45,0,0,1,3.359.942A2.771,2.771,0,0,1,81.2,11.617l-.02.059h-3.2a1.309,1.309,0,0,0-.312-.947,1.383,1.383,0,0,0-1.025-.322,1.341,1.341,0,0,0-.869.283.888.888,0,0,0-.352.723.86.86,0,0,0,.405.713,4.584,4.584,0,0,0,1.636.527,6.571,6.571,0,0,1,2.871,1.138,2.609,2.609,0,0,1,.928,2.144A2.8,2.8,0,0,1,80,18.282a5.547,5.547,0,0,1-3.345.923,5.016,5.016,0,0,1-3.413-1.094,3.013,3.013,0,0,1-1.2-2.441l.02-.059h2.988A1.325,1.325,0,0,0,75.5,16.7a2,2,0,0,0,1.235.332,1.649,1.649,0,0,0,1.006-.259A.87.87,0,0,0,78.086,16.031Z" transform="translate(603 4855)" fill="#fff"/>
        <path id="Trazado_27606" data-name="Trazado 27606" d="M9.443,12.916H4.434v3.545h6.006V19H1.133V4.781h9.316V7.32H4.434v3.057h5.01ZM15.6,8.434V19.146a4.155,4.155,0,0,1-1.06,3.047,3.948,3.948,0,0,1-2.944,1.074,7.254,7.254,0,0,1-.786-.039,7.656,7.656,0,0,1-.767-.127l.137-2.49q.283.059.483.088a3.573,3.573,0,0,0,.5.029.965.965,0,0,0,.835-.4,2.015,2.015,0,0,0,.288-1.182V8.434Zm-.059-2.461H12.227V3.766h3.311Zm6.6,13.232a4.906,4.906,0,0,1-3.765-1.455,5.174,5.174,0,0,1-1.362-3.682V13.7A5.912,5.912,0,0,1,18.3,9.752a4.562,4.562,0,0,1,3.716-1.514,4.279,4.279,0,0,1,3.315,1.279A4.98,4.98,0,0,1,26.5,13.023v1.729H20.449l-.02.059a2.052,2.052,0,0,0,.615,1.343,2.148,2.148,0,0,0,1.543.513,6.687,6.687,0,0,0,1.577-.156,9.942,9.942,0,0,0,1.44-.5l.791,2.012a6.04,6.04,0,0,1-1.836.84A8.473,8.473,0,0,1,22.139,19.205Zm-.127-8.428a1.362,1.362,0,0,0-1.167.5,2.523,2.523,0,0,0-.435,1.362l.02.049h2.852v-.254a2.2,2.2,0,0,0-.288-1.24A1.1,1.1,0,0,0,22.012,10.777Zm10.41,5.889a1.291,1.291,0,0,0,1.006-.366,1.526,1.526,0,0,0,.332-1.06h3.008l.02.059a3.469,3.469,0,0,1-1.2,2.817,4.616,4.616,0,0,1-3.169,1.089,4.675,4.675,0,0,1-3.716-1.489,5.679,5.679,0,0,1-1.3-3.882v-.225a5.7,5.7,0,0,1,1.3-3.877,4.64,4.64,0,0,1,3.7-1.494A4.545,4.545,0,0,1,35.62,9.356a3.857,3.857,0,0,1,1.167,3.062l-.02.059H33.76a2.045,2.045,0,0,0-.342-1.226,1.172,1.172,0,0,0-1.016-.474,1.357,1.357,0,0,0-1.333.767,4.74,4.74,0,0,0-.376,2.065v.225a4.723,4.723,0,0,0,.376,2.08A1.378,1.378,0,0,0,32.422,16.666Zm12.08.752a3.473,3.473,0,0,1-1.216,1.323,3.2,3.2,0,0,1-1.724.464,3.129,3.129,0,0,1-2.573-1.152,5.618,5.618,0,0,1-.933-3.564V8.434h3.291v6.074a3.2,3.2,0,0,0,.317,1.7,1.111,1.111,0,0,0,.981.459,2.694,2.694,0,0,0,.928-.146,1.793,1.793,0,0,0,.684-.439V8.434h3.3V19H44.9Zm9.395-.752A1.291,1.291,0,0,0,54.9,16.3a1.526,1.526,0,0,0,.332-1.06h3.008l.02.059a3.469,3.469,0,0,1-1.2,2.817A4.616,4.616,0,0,1,53.9,19.205a4.675,4.675,0,0,1-3.716-1.489,5.679,5.679,0,0,1-1.3-3.882v-.225a5.7,5.7,0,0,1,1.3-3.877,4.64,4.64,0,0,1,3.7-1.494,4.545,4.545,0,0,1,3.218,1.118,3.857,3.857,0,0,1,1.167,3.062l-.02.059H55.234a2.045,2.045,0,0,0-.342-1.226,1.172,1.172,0,0,0-1.016-.474,1.357,1.357,0,0,0-1.333.767,4.74,4.74,0,0,0-.376,2.065v.225a4.723,4.723,0,0,0,.376,2.08A1.378,1.378,0,0,0,53.9,16.666ZM63.066,19H59.756V8.434h3.311Zm0-13.018H59.756V3.766h3.311Zm1.582,7.637A5.585,5.585,0,0,1,66,9.737a5.477,5.477,0,0,1,7.529,0,5.585,5.585,0,0,1,1.348,3.882v.205a5.581,5.581,0,0,1-1.348,3.887,5.49,5.49,0,0,1-7.529,0,5.581,5.581,0,0,1-1.348-3.887Zm3.3.205a4.368,4.368,0,0,0,.415,2.085,1.477,1.477,0,0,0,1.411.757,1.459,1.459,0,0,0,1.387-.762,4.331,4.331,0,0,0,.42-2.08v-.205a4.347,4.347,0,0,0-.42-2.065,1.471,1.471,0,0,0-1.406-.776,1.45,1.45,0,0,0-1.392.781,4.4,4.4,0,0,0-.415,2.061Zm2.207-9.912h3.623l.02.059L71.055,6.51h-2.91Zm9.209,4.521.127,1.484a3.825,3.825,0,0,1,1.279-1.235,3.31,3.31,0,0,1,1.7-.444A2.979,2.979,0,0,1,84.9,9.293a5.218,5.218,0,0,1,.874,3.35V19h-3.3V12.633a2.421,2.421,0,0,0-.322-1.431,1.1,1.1,0,0,0-.937-.425,2.32,2.32,0,0,0-.947.186,1.891,1.891,0,0,0-.7.527V19H76.27V8.434Z" transform="translate(823 4855)" fill="#fff"/>
        <text id="_-_Producto:_Atributos_costo_calidad_y_conveniencia_-_Servicio:_Experiencia_y_características" data-name="- Producto: Atributos, costo, calidad y conveniencia

- Servicio: Experiencia y características" transform="translate(383 4938)" fill="#fff" font-size="16" font-family="Roboto-Regular, Roboto"><tspan x="0" y="15">- Producto: Atributos, </tspan><tspan x="0" y="35">costo, calidad y </tspan><tspan x="0" y="55">conveniencia</tspan><tspan x="0" y="75"></tspan><tspan x="0" y="95">- Servicio: Experiencia </tspan><tspan x="0" y="115">y características</tspan></text>
        <text id="_-_Agrupar_los_compradores_y_los_productos_-_Calcular_el_tamaño_segmento_-_Seleccionar_mercado_meta" data-name="- Agrupar los compradores y los productos

- Calcular el tamaño segmento

- Seleccionar mercado meta" transform="translate(600 4938)" fill="#fff" font-size="16" font-family="Roboto-Regular, Roboto"><tspan x="0" y="15">- Agrupar los </tspan><tspan x="0" y="35">compradores y los </tspan><tspan x="0" y="55">productos</tspan><tspan x="0" y="75"></tspan><tspan x="0" y="95">- Calcular el tamaño </tspan><tspan x="0" y="115">segmento</tspan><tspan x="0" y="135"></tspan><tspan x="0" y="155">- Seleccionar mercado </tspan><tspan x="0" y="175">meta</tspan></text>
        <path id="Trazado_27607" data-name="Trazado 27607" d="M5.914,10.8H1.3v-1.2H5.914Zm12.813-1.07H14.055V13.8h5.469V15H12.516V3.625h6.922V4.836H14.055v3.68h4.672Zm7.32,3a1.026,1.026,0,0,0-.387-.828,3.732,3.732,0,0,0-1.465-.562,6.146,6.146,0,0,1-2.293-.9,1.814,1.814,0,0,1-.8-1.547,2.229,2.229,0,0,1,.879-1.766,3.433,3.433,0,0,1,2.277-.734,3.4,3.4,0,0,1,2.328.781,2.239,2.239,0,0,1,.852,1.82l-.016.047H25.953a1.331,1.331,0,0,0-.48-.992A1.717,1.717,0,0,0,24.258,7.6a1.751,1.751,0,0,0-1.215.367,1.146,1.146,0,0,0-.4.875.927.927,0,0,0,.348.773,3.848,3.848,0,0,0,1.434.5,6.058,6.058,0,0,1,2.359.93,1.872,1.872,0,0,1,.8,1.57,2.226,2.226,0,0,1-.91,1.836,3.754,3.754,0,0,1-2.379.711,3.715,3.715,0,0,1-2.547-.82,2.341,2.341,0,0,1-.883-1.914l.016-.047h1.469a1.424,1.424,0,0,0,.609,1.2,2.358,2.358,0,0,0,1.336.379,2.1,2.1,0,0,0,1.285-.348A1.063,1.063,0,0,0,26.047,12.727Zm5.594-8.219V6.547h1.6V7.688h-1.6V12.82a1.149,1.149,0,0,0,.246.836.89.89,0,0,0,.652.242,1.429,1.429,0,0,0,.3-.035,2.2,2.2,0,0,0,.273-.074l.211,1.055a1.36,1.36,0,0,1-.508.23,2.562,2.562,0,0,1-.664.09,1.993,1.993,0,0,1-1.492-.566A2.46,2.46,0,0,1,30.1,12.82V7.688H28.758V6.547H30.1V4.508Zm7.25,3.4L38.1,7.859a1.762,1.762,0,0,0-1.027.289,1.855,1.855,0,0,0-.645.813V15H34.891V6.547h1.375l.148,1.234A2.934,2.934,0,0,1,37.3,6.758a2.073,2.073,0,0,1,1.215-.367,1.9,1.9,0,0,1,.328.027,2.174,2.174,0,0,1,.258.059ZM45.688,15q-.078-.383-.121-.676a4.96,4.96,0,0,1-.051-.59,3.589,3.589,0,0,1-1.121,1.02,2.867,2.867,0,0,1-1.488.41,2.763,2.763,0,0,1-2.012-.676,2.486,2.486,0,0,1-.691-1.863,2.183,2.183,0,0,1,.98-1.895,4.579,4.579,0,0,1,2.66-.684h1.672V9.211a1.551,1.551,0,0,0-.453-1.176A1.779,1.779,0,0,0,43.781,7.6a1.859,1.859,0,0,0-1.211.375,1.125,1.125,0,0,0-.461.9l-1.461.016-.016-.047A2.023,2.023,0,0,1,41.5,7.156a3.578,3.578,0,0,1,2.371-.766,3.49,3.49,0,0,1,2.313.73,2.588,2.588,0,0,1,.875,2.105V13.3a7.923,7.923,0,0,0,.047.875,4.5,4.5,0,0,0,.172.828Zm-2.555-1.125a2.739,2.739,0,0,0,1.508-.43,2.042,2.042,0,0,0,.875-.984V11.086H43.789a2.24,2.24,0,0,0-1.488.469,1.4,1.4,0,0,0-.559,1.1,1.159,1.159,0,0,0,.352.891A1.472,1.472,0,0,0,43.133,13.875Zm8.3-9.367V6.547h1.6V7.688h-1.6V12.82a1.149,1.149,0,0,0,.246.836.89.89,0,0,0,.652.242,1.429,1.429,0,0,0,.3-.035,2.2,2.2,0,0,0,.273-.074l.211,1.055a1.36,1.36,0,0,1-.508.23,2.562,2.562,0,0,1-.664.09,1.993,1.993,0,0,1-1.492-.566,2.46,2.46,0,0,1-.555-1.777V7.688H48.547V6.547h1.344V4.508Zm6.75,10.656A3.576,3.576,0,0,1,55.34,14a4.48,4.48,0,0,1-1.02-3.062v-.344a4.386,4.386,0,0,1,1.051-3.012,3.3,3.3,0,0,1,2.566-1.191A3.067,3.067,0,0,1,60.48,7.445a4.345,4.345,0,0,1,.848,2.8v.813H55.922L55.9,11.1a3.494,3.494,0,0,0,.563,2.066,1.965,1.965,0,0,0,1.719.793,3.872,3.872,0,0,0,1.371-.223,3.061,3.061,0,0,0,1.012-.613l.6,1a3.7,3.7,0,0,1-1.2.738A4.762,4.762,0,0,1,58.18,15.164ZM57.938,7.6a1.673,1.673,0,0,0-1.332.621,2.938,2.938,0,0,0-.645,1.59l.016.039h3.813V9.727A2.462,2.462,0,0,0,59.336,8.2,1.638,1.638,0,0,0,57.938,7.6Zm4.844,3.328a5.641,5.641,0,0,1,.871-3.289,2.8,2.8,0,0,1,2.434-1.25,2.966,2.966,0,0,1,1.414.324,2.845,2.845,0,0,1,1.023.934l.188-1.1h1.227v8.5a3.225,3.225,0,0,1-.945,2.5,3.884,3.884,0,0,1-2.727.871,5.717,5.717,0,0,1-1.316-.168,5.147,5.147,0,0,1-1.246-.457l.234-1.2a4.45,4.45,0,0,0,1.074.379,5.517,5.517,0,0,0,1.238.145,2.242,2.242,0,0,0,1.637-.512,2.12,2.12,0,0,0,.512-1.559v-.961a2.725,2.725,0,0,1-.992.8,3.091,3.091,0,0,1-1.336.273,2.89,2.89,0,0,1-2.418-1.121,4.674,4.674,0,0,1-.871-2.949Zm1.539.164a3.592,3.592,0,0,0,.523,2.047,1.817,1.817,0,0,0,1.617.773,2.034,2.034,0,0,0,1.164-.316A2.4,2.4,0,0,0,68.4,12.7V8.813a2.388,2.388,0,0,0-.773-.855,2.029,2.029,0,0,0-1.148-.316,1.752,1.752,0,0,0-1.629.914,4.718,4.718,0,0,0-.527,2.375ZM73.813,15H72.273V6.547h1.539Zm0-10.617H72.273V2.813h1.539ZM81.375,15q-.078-.383-.121-.676a4.96,4.96,0,0,1-.051-.59,3.589,3.589,0,0,1-1.121,1.02,2.867,2.867,0,0,1-1.488.41,2.763,2.763,0,0,1-2.012-.676,2.486,2.486,0,0,1-.691-1.863,2.183,2.183,0,0,1,.98-1.895,4.579,4.579,0,0,1,2.66-.684H81.2V9.211a1.551,1.551,0,0,0-.453-1.176A1.779,1.779,0,0,0,79.469,7.6a1.859,1.859,0,0,0-1.211.375,1.125,1.125,0,0,0-.461.9l-1.461.016-.016-.047a2.023,2.023,0,0,1,.863-1.687,3.578,3.578,0,0,1,2.371-.766,3.49,3.49,0,0,1,2.313.73,2.588,2.588,0,0,1,.875,2.105V13.3a7.923,7.923,0,0,0,.047.875,4.5,4.5,0,0,0,.172.828ZM78.82,13.875a2.739,2.739,0,0,0,1.508-.43,2.042,2.042,0,0,0,.875-.984V11.086H79.477a2.24,2.24,0,0,0-1.488.469,1.4,1.4,0,0,0-.559,1.1,1.159,1.159,0,0,0,.352.891A1.472,1.472,0,0,0,78.82,13.875Zm11.07-1.148A1.026,1.026,0,0,0,89.5,11.9a3.732,3.732,0,0,0-1.465-.562,6.146,6.146,0,0,1-2.293-.9,1.814,1.814,0,0,1-.8-1.547,2.229,2.229,0,0,1,.879-1.766,3.879,3.879,0,0,1,4.605.047,2.239,2.239,0,0,1,.852,1.82l-.016.047H89.8a1.331,1.331,0,0,0-.48-.992A1.717,1.717,0,0,0,88.1,7.6a1.751,1.751,0,0,0-1.215.367,1.146,1.146,0,0,0-.4.875.927.927,0,0,0,.348.773,3.848,3.848,0,0,0,1.434.5,6.058,6.058,0,0,1,2.359.93,1.872,1.872,0,0,1,.8,1.57,2.226,2.226,0,0,1-.91,1.836,3.754,3.754,0,0,1-2.379.711,3.715,3.715,0,0,1-2.547-.82,2.341,2.341,0,0,1-.883-1.914l.016-.047H86.2a1.424,1.424,0,0,0,.609,1.2,2.358,2.358,0,0,0,1.336.379,2.1,2.1,0,0,0,1.285-.348A1.063,1.063,0,0,0,89.891,12.727Zm14.633-1.633a4.659,4.659,0,0,1-.875,2.949,2.893,2.893,0,0,1-2.414,1.121,3.354,3.354,0,0,1-1.371-.262,2.622,2.622,0,0,1-1-.785V18.25H97.32V6.547H98.5l.242,1.094a2.792,2.792,0,0,1,1.031-.93,3.078,3.078,0,0,1,1.438-.32,2.809,2.809,0,0,1,2.441,1.246,5.638,5.638,0,0,1,.871,3.293Zm-1.539-.164a4.467,4.467,0,0,0-.566-2.363,1.835,1.835,0,0,0-1.668-.926,2.054,2.054,0,0,0-1.133.3,2.25,2.25,0,0,0-.758.824v4.086a2.186,2.186,0,0,0,.758.816,2.126,2.126,0,0,0,1.148.293,1.894,1.894,0,0,0,1.656-.8,3.516,3.516,0,0,0,.563-2.066ZM111.609,15q-.078-.383-.121-.676a4.96,4.96,0,0,1-.051-.59,3.589,3.589,0,0,1-1.121,1.02,2.867,2.867,0,0,1-1.488.41,2.763,2.763,0,0,1-2.012-.676,2.486,2.486,0,0,1-.691-1.863,2.183,2.183,0,0,1,.98-1.895,4.579,4.579,0,0,1,2.66-.684h1.672V9.211a1.551,1.551,0,0,0-.453-1.176A1.779,1.779,0,0,0,109.7,7.6a1.859,1.859,0,0,0-1.211.375,1.125,1.125,0,0,0-.461.9l-1.461.016-.016-.047a2.023,2.023,0,0,1,.863-1.687,3.578,3.578,0,0,1,2.371-.766,3.49,3.49,0,0,1,2.313.73,2.588,2.588,0,0,1,.875,2.105V13.3a7.923,7.923,0,0,0,.047.875A4.5,4.5,0,0,0,113.2,15Zm-2.555-1.125a2.739,2.739,0,0,0,1.508-.43,2.042,2.042,0,0,0,.875-.984V11.086h-1.727a2.24,2.24,0,0,0-1.488.469,1.4,1.4,0,0,0-.559,1.1,1.159,1.159,0,0,0,.352.891A1.472,1.472,0,0,0,109.055,13.875Zm10.156-5.969-.789-.047a1.762,1.762,0,0,0-1.027.289,1.854,1.854,0,0,0-.645.813V15h-1.539V6.547h1.375l.148,1.234a2.934,2.934,0,0,1,.887-1.023,2.073,2.073,0,0,1,1.215-.367,1.9,1.9,0,0,1,.328.027,2.175,2.175,0,0,1,.258.059Zm6.8,7.094q-.078-.383-.121-.676a4.96,4.96,0,0,1-.051-.59,3.589,3.589,0,0,1-1.121,1.02,2.867,2.867,0,0,1-1.488.41,2.763,2.763,0,0,1-2.012-.676,2.486,2.486,0,0,1-.691-1.863,2.183,2.183,0,0,1,.98-1.895,4.579,4.579,0,0,1,2.66-.684h1.672V9.211a1.551,1.551,0,0,0-.453-1.176A1.779,1.779,0,0,0,124.1,7.6a1.859,1.859,0,0,0-1.211.375,1.125,1.125,0,0,0-.461.9l-1.461.016-.016-.047a2.023,2.023,0,0,1,.863-1.687,3.578,3.578,0,0,1,2.371-.766,3.49,3.49,0,0,1,2.313.73,2.588,2.588,0,0,1,.875,2.105V13.3a7.923,7.923,0,0,0,.047.875,4.5,4.5,0,0,0,.172.828Zm-2.555-1.125a2.739,2.739,0,0,0,1.508-.43,2.042,2.042,0,0,0,.875-.984V11.086h-1.727a2.24,2.24,0,0,0-1.488.469,1.4,1.4,0,0,0-.559,1.1,1.159,1.159,0,0,0,.352.891A1.472,1.472,0,0,0,123.453,13.875ZM135.25,15h-1.539V2.813h1.539Zm7.563,0q-.078-.383-.121-.676a4.96,4.96,0,0,1-.051-.59,3.588,3.588,0,0,1-1.121,1.02,2.867,2.867,0,0,1-1.488.41,2.763,2.763,0,0,1-2.012-.676,2.486,2.486,0,0,1-.691-1.863,2.183,2.183,0,0,1,.98-1.895,4.579,4.579,0,0,1,2.66-.684h1.672V9.211a1.551,1.551,0,0,0-.453-1.176,1.779,1.779,0,0,0-1.281-.434,1.859,1.859,0,0,0-1.211.375,1.125,1.125,0,0,0-.461.9l-1.461.016-.016-.047a2.023,2.023,0,0,1,.863-1.687,3.578,3.578,0,0,1,2.371-.766,3.49,3.49,0,0,1,2.313.73,2.588,2.588,0,0,1,.875,2.105V13.3a7.923,7.923,0,0,0,.047.875A4.5,4.5,0,0,0,144.4,15Zm-2.555-1.125a2.739,2.739,0,0,0,1.508-.43,2.042,2.042,0,0,0,.875-.984V11.086h-1.727a2.24,2.24,0,0,0-1.488.469,1.4,1.4,0,0,0-.559,1.1,1.159,1.159,0,0,0,.352.891A1.472,1.472,0,0,0,140.258,13.875ZM2.492,26.547,2.6,27.656a2.871,2.871,0,0,1,1.051-.934,3.158,3.158,0,0,1,1.48-.332,2.615,2.615,0,0,1,1.449.391,2.363,2.363,0,0,1,.91,1.172,3.162,3.162,0,0,1,1.059-1.145,2.769,2.769,0,0,1,1.527-.418,2.531,2.531,0,0,1,2.039.887,4.051,4.051,0,0,1,.75,2.668V35H11.328V29.93a2.81,2.81,0,0,0-.43-1.77,1.567,1.567,0,0,0-1.281-.52,1.631,1.631,0,0,0-1.277.547,2.381,2.381,0,0,0-.574,1.383V35H6.219V29.93a2.772,2.772,0,0,0-.441-1.738,1.532,1.532,0,0,0-1.27-.551,2.115,2.115,0,0,0-1.156.289,1.867,1.867,0,0,0-.7.813V35H1.117V26.547ZM18.6,35.164A3.576,3.576,0,0,1,15.762,34a4.48,4.48,0,0,1-1.02-3.062v-.344a4.386,4.386,0,0,1,1.051-3.012,3.3,3.3,0,0,1,2.566-1.191A3.067,3.067,0,0,1,20.9,27.445a4.345,4.345,0,0,1,.848,2.8v.813H16.344l-.023.039a3.494,3.494,0,0,0,.563,2.066,1.965,1.965,0,0,0,1.719.793,3.872,3.872,0,0,0,1.371-.223,3.061,3.061,0,0,0,1.012-.613l.6,1a3.7,3.7,0,0,1-1.2.738A4.762,4.762,0,0,1,18.6,35.164ZM18.359,27.6a1.673,1.673,0,0,0-1.332.621,2.938,2.938,0,0,0-.645,1.59l.016.039h3.813v-.125a2.462,2.462,0,0,0-.453-1.523A1.638,1.638,0,0,0,18.359,27.6Zm6.57,6.2h4.883V35H23.094V33.922l4.57-6.156H23.148V26.547h6.4v1.047Zm9.828.164A1.81,1.81,0,0,0,36,33.488a1.494,1.494,0,0,0,.531-1.16h1.391l.023.047a2.428,2.428,0,0,1-.937,1.941,3.582,3.582,0,0,1-5-.363,4.674,4.674,0,0,1-.969-3.016v-.328a4.654,4.654,0,0,1,.973-3,3.317,3.317,0,0,1,2.746-1.215,3.189,3.189,0,0,1,2.316.875,2.775,2.775,0,0,1,.871,2.148l-.016.047h-1.4a1.865,1.865,0,0,0-.5-1.316,1.658,1.658,0,0,0-1.27-.543,1.777,1.777,0,0,0-1.652.879,4.114,4.114,0,0,0-.52,2.129v.328a4.192,4.192,0,0,0,.512,2.148A1.776,1.776,0,0,0,34.758,33.961ZM41.438,35H39.9V22.813h1.539ZM49,35q-.078-.383-.121-.676a4.96,4.96,0,0,1-.051-.59,3.589,3.589,0,0,1-1.121,1.02,2.867,2.867,0,0,1-1.488.41,2.763,2.763,0,0,1-2.012-.676,2.486,2.486,0,0,1-.691-1.863,2.183,2.183,0,0,1,.98-1.895,4.579,4.579,0,0,1,2.66-.684h1.672v-.836a1.551,1.551,0,0,0-.453-1.176,1.779,1.779,0,0,0-1.281-.434,1.859,1.859,0,0,0-1.211.375,1.125,1.125,0,0,0-.461.9l-1.461.016-.016-.047a2.023,2.023,0,0,1,.863-1.687,3.578,3.578,0,0,1,2.371-.766,3.49,3.49,0,0,1,2.313.73,2.588,2.588,0,0,1,.875,2.105V33.3a7.923,7.923,0,0,0,.047.875,4.5,4.5,0,0,0,.172.828Zm-2.555-1.125a2.739,2.739,0,0,0,1.508-.43,2.042,2.042,0,0,0,.875-.984V31.086H47.1a2.24,2.24,0,0,0-1.488.469,1.4,1.4,0,0,0-.559,1.1,1.159,1.159,0,0,0,.352.891A1.472,1.472,0,0,0,46.445,33.875Zm9.781-2.945a5.641,5.641,0,0,1,.871-3.289,2.807,2.807,0,0,1,2.441-1.25,3.027,3.027,0,0,1,1.316.273,2.7,2.7,0,0,1,.98.8V22.813h1.539V35H62.2l-.234-1.07a2.743,2.743,0,0,1-1.023.922,3.058,3.058,0,0,1-1.414.313A2.9,2.9,0,0,1,57.1,34.043a4.659,4.659,0,0,1-.875-2.949Zm1.539.164a3.588,3.588,0,0,0,.523,2.051,1.828,1.828,0,0,0,1.625.77A2.039,2.039,0,0,0,61.07,33.6a2.334,2.334,0,0,0,.766-.875V28.781a2.37,2.37,0,0,0-.77-.832,2.033,2.033,0,0,0-1.137-.309,1.759,1.759,0,0,0-1.637.914,4.718,4.718,0,0,0-.527,2.375Zm11.406,4.07A3.576,3.576,0,0,1,66.332,34a4.48,4.48,0,0,1-1.02-3.062v-.344a4.386,4.386,0,0,1,1.051-3.012,3.3,3.3,0,0,1,2.566-1.191,3.067,3.067,0,0,1,2.543,1.055,4.345,4.345,0,0,1,.848,2.8v.813H66.914l-.023.039a3.494,3.494,0,0,0,.563,2.066,1.965,1.965,0,0,0,1.719.793,3.872,3.872,0,0,0,1.371-.223,3.061,3.061,0,0,0,1.012-.613l.6,1a3.7,3.7,0,0,1-1.2.738A4.762,4.762,0,0,1,69.172,35.164ZM68.93,27.6a1.673,1.673,0,0,0-1.332.621,2.938,2.938,0,0,0-.645,1.59l.016.039h3.813v-.125a2.462,2.462,0,0,0-.453-1.523A1.638,1.638,0,0,0,68.93,27.6ZM79.4,26.547l.109,1.109a2.871,2.871,0,0,1,1.051-.934,3.158,3.158,0,0,1,1.48-.332,2.615,2.615,0,0,1,1.449.391,2.363,2.363,0,0,1,.91,1.172,3.162,3.162,0,0,1,1.059-1.145,2.769,2.769,0,0,1,1.527-.418,2.531,2.531,0,0,1,2.039.887,4.051,4.051,0,0,1,.75,2.668V35H88.234V29.93a2.81,2.81,0,0,0-.43-1.77,1.567,1.567,0,0,0-1.281-.52,1.631,1.631,0,0,0-1.277.547,2.381,2.381,0,0,0-.574,1.383V35H83.125V29.93a2.772,2.772,0,0,0-.441-1.738,1.532,1.532,0,0,0-1.27-.551,2.115,2.115,0,0,0-1.156.289,1.867,1.867,0,0,0-.7.813V35H78.023V26.547Zm16.109,8.617A3.576,3.576,0,0,1,92.668,34a4.48,4.48,0,0,1-1.02-3.062v-.344A4.386,4.386,0,0,1,92.7,27.582a3.3,3.3,0,0,1,2.566-1.191,3.067,3.067,0,0,1,2.543,1.055,4.345,4.345,0,0,1,.848,2.8v.813H93.25l-.023.039a3.494,3.494,0,0,0,.563,2.066,1.965,1.965,0,0,0,1.719.793,3.872,3.872,0,0,0,1.371-.223,3.061,3.061,0,0,0,1.012-.613l.6,1a3.7,3.7,0,0,1-1.2.738A4.762,4.762,0,0,1,95.508,35.164ZM95.266,27.6a1.673,1.673,0,0,0-1.332.621,2.938,2.938,0,0,0-.645,1.59l.016.039h3.813v-.125a2.462,2.462,0,0,0-.453-1.523A1.638,1.638,0,0,0,95.266,27.6Zm9.117.3-.789-.047a1.762,1.762,0,0,0-1.027.289,1.854,1.854,0,0,0-.645.813V35h-1.539V26.547h1.375l.148,1.234a2.934,2.934,0,0,1,.887-1.023,2.073,2.073,0,0,1,1.215-.367,1.9,1.9,0,0,1,.328.027,2.175,2.175,0,0,1,.258.059Zm4.813,6.055a1.81,1.81,0,0,0,1.242-.473,1.494,1.494,0,0,0,.531-1.16h1.391l.023.047a2.428,2.428,0,0,1-.937,1.941,3.582,3.582,0,0,1-5-.363,4.674,4.674,0,0,1-.969-3.016v-.328a4.654,4.654,0,0,1,.973-3,3.317,3.317,0,0,1,2.746-1.215,3.189,3.189,0,0,1,2.316.875,2.775,2.775,0,0,1,.871,2.148l-.016.047h-1.4a1.865,1.865,0,0,0-.5-1.316,1.658,1.658,0,0,0-1.27-.543,1.777,1.777,0,0,0-1.652.879,4.114,4.114,0,0,0-.52,2.129v.328a4.192,4.192,0,0,0,.512,2.148A1.776,1.776,0,0,0,109.2,33.961ZM119.406,35q-.078-.383-.121-.676a4.96,4.96,0,0,1-.051-.59,3.589,3.589,0,0,1-1.121,1.02,2.867,2.867,0,0,1-1.488.41,2.763,2.763,0,0,1-2.012-.676,2.486,2.486,0,0,1-.691-1.863,2.183,2.183,0,0,1,.98-1.895,4.579,4.579,0,0,1,2.66-.684h1.672v-.836a1.551,1.551,0,0,0-.453-1.176A1.779,1.779,0,0,0,117.5,27.6a1.859,1.859,0,0,0-1.211.375,1.125,1.125,0,0,0-.461.9l-1.461.016-.016-.047a2.023,2.023,0,0,1,.863-1.687,3.578,3.578,0,0,1,2.371-.766,3.49,3.49,0,0,1,2.313.73,2.588,2.588,0,0,1,.875,2.105V33.3a7.923,7.923,0,0,0,.047.875,4.5,4.5,0,0,0,.172.828Zm-2.555-1.125a2.739,2.739,0,0,0,1.508-.43,2.042,2.042,0,0,0,.875-.984V31.086h-1.727a2.24,2.24,0,0,0-1.488.469,1.4,1.4,0,0,0-.559,1.1,1.159,1.159,0,0,0,.352.891A1.472,1.472,0,0,0,116.852,33.875Zm5.8-2.945a5.641,5.641,0,0,1,.871-3.289,2.807,2.807,0,0,1,2.441-1.25,3.027,3.027,0,0,1,1.316.273,2.7,2.7,0,0,1,.98.8V22.813H129.8V35h-1.18l-.234-1.07a2.743,2.743,0,0,1-1.023.922,3.058,3.058,0,0,1-1.414.313,2.9,2.9,0,0,1-2.422-1.121,4.659,4.659,0,0,1-.875-2.949Zm1.539.164a3.588,3.588,0,0,0,.523,2.051,1.828,1.828,0,0,0,1.625.77A2.039,2.039,0,0,0,127.5,33.6a2.334,2.334,0,0,0,.766-.875V28.781a2.37,2.37,0,0,0-.77-.832,2.033,2.033,0,0,0-1.137-.309,1.759,1.759,0,0,0-1.637.914,4.718,4.718,0,0,0-.527,2.375Zm11.406,4.07A3.576,3.576,0,0,1,132.762,34a4.48,4.48,0,0,1-1.02-3.062v-.344a4.386,4.386,0,0,1,1.051-3.012,3.3,3.3,0,0,1,2.566-1.191,3.067,3.067,0,0,1,2.543,1.055,4.345,4.345,0,0,1,.848,2.8v.813h-5.406l-.023.039a3.494,3.494,0,0,0,.563,2.066,1.965,1.965,0,0,0,1.719.793,3.872,3.872,0,0,0,1.371-.223,3.061,3.061,0,0,0,1.012-.613l.6,1a3.7,3.7,0,0,1-1.2.738A4.762,4.762,0,0,1,135.6,35.164Zm-.242-7.562a1.673,1.673,0,0,0-1.332.621,2.938,2.938,0,0,0-.645,1.59l.016.039h3.813v-.125a2.462,2.462,0,0,0-.453-1.523A1.638,1.638,0,0,0,135.359,27.6Zm4.758,3.094a4.654,4.654,0,0,1,1.016-3.09,3.764,3.764,0,0,1,5.535,0,4.639,4.639,0,0,1,1.02,3.094v.172a4.631,4.631,0,0,1-1.016,3.094,3.781,3.781,0,0,1-5.535,0,4.623,4.623,0,0,1-1.02-3.09Zm1.539.172a4.009,4.009,0,0,0,.566,2.219,2.046,2.046,0,0,0,3.355,0,3.988,3.988,0,0,0,.57-2.219V30.7a3.976,3.976,0,0,0-.574-2.211,1.882,1.882,0,0,0-1.684-.883,1.856,1.856,0,0,0-1.668.883,4.018,4.018,0,0,0-.566,2.211ZM151.25,35h-1.539V33.422h1.539Zm0-6.844h-1.539V26.578h1.539ZM8.32,51.094a4.659,4.659,0,0,1-.875,2.949,2.893,2.893,0,0,1-2.414,1.121A3.354,3.354,0,0,1,3.66,54.9a2.622,2.622,0,0,1-1-.785V58.25H1.117v-11.7H2.3l.242,1.094a2.792,2.792,0,0,1,1.031-.93,3.078,3.078,0,0,1,1.438-.32,2.809,2.809,0,0,1,2.441,1.246A5.638,5.638,0,0,1,8.32,50.93ZM6.781,50.93a4.467,4.467,0,0,0-.566-2.363,1.835,1.835,0,0,0-1.668-.926,2.054,2.054,0,0,0-1.133.3,2.25,2.25,0,0,0-.758.824v4.086a2.186,2.186,0,0,0,.758.816,2.126,2.126,0,0,0,1.148.293,1.894,1.894,0,0,0,1.656-.8,3.516,3.516,0,0,0,.563-2.066Zm7.43-3.023-.789-.047a1.762,1.762,0,0,0-1.027.289,1.854,1.854,0,0,0-.645.813V55H10.211V46.547h1.375l.148,1.234a2.934,2.934,0,0,1,.887-1.023,2.073,2.073,0,0,1,1.215-.367,1.9,1.9,0,0,1,.328.027,2.175,2.175,0,0,1,.258.059ZM15.3,50.7a4.654,4.654,0,0,1,1.016-3.09,3.406,3.406,0,0,1,2.758-1.215A3.439,3.439,0,0,1,21.848,47.6a4.639,4.639,0,0,1,1.02,3.094v.172a4.631,4.631,0,0,1-1.016,3.094,3.429,3.429,0,0,1-2.766,1.2,3.436,3.436,0,0,1-2.77-1.207,4.623,4.623,0,0,1-1.02-3.09Zm1.539.172a4.009,4.009,0,0,0,.566,2.219,2.046,2.046,0,0,0,3.355,0,3.988,3.988,0,0,0,.57-2.219V50.7a3.976,3.976,0,0,0-.574-2.211A1.882,1.882,0,0,0,19.07,47.6a1.856,1.856,0,0,0-1.668.883,4.018,4.018,0,0,0-.566,2.211Zm7.563.063a5.641,5.641,0,0,1,.871-3.289,2.807,2.807,0,0,1,2.441-1.25,3.027,3.027,0,0,1,1.316.273,2.7,2.7,0,0,1,.98.8V42.813h1.539V55h-1.18l-.234-1.07a2.743,2.743,0,0,1-1.023.922,3.058,3.058,0,0,1-1.414.313,2.9,2.9,0,0,1-2.422-1.121,4.659,4.659,0,0,1-.875-2.949Zm1.539.164a3.588,3.588,0,0,0,.523,2.051,1.828,1.828,0,0,0,1.625.77,2.039,2.039,0,0,0,1.156-.312,2.334,2.334,0,0,0,.766-.875V48.781a2.37,2.37,0,0,0-.77-.832,2.033,2.033,0,0,0-1.137-.309,1.759,1.759,0,0,0-1.637.914,4.718,4.718,0,0,0-.527,2.375ZM39.211,53.75A2.863,2.863,0,0,1,38.188,54.8a2.8,2.8,0,0,1-1.445.367,2.716,2.716,0,0,1-2.156-.883,4.1,4.1,0,0,1-.773-2.75V46.547h1.539v5a3.147,3.147,0,0,0,.4,1.859,1.481,1.481,0,0,0,1.242.508,2.531,2.531,0,0,0,1.355-.332,2.077,2.077,0,0,0,.809-.941V46.547H40.7V55H39.313Zm7.086.211a1.81,1.81,0,0,0,1.242-.473,1.494,1.494,0,0,0,.531-1.16h1.391l.023.047a2.428,2.428,0,0,1-.937,1.941,3.582,3.582,0,0,1-5-.363,4.674,4.674,0,0,1-.969-3.016v-.328a4.654,4.654,0,0,1,.973-3A3.317,3.317,0,0,1,46.3,46.391a3.189,3.189,0,0,1,2.316.875,2.775,2.775,0,0,1,.871,2.148l-.016.047h-1.4a1.865,1.865,0,0,0-.5-1.316A1.658,1.658,0,0,0,46.3,47.6a1.777,1.777,0,0,0-1.652.879,4.114,4.114,0,0,0-.52,2.129v.328a4.192,4.192,0,0,0,.512,2.148A1.776,1.776,0,0,0,46.3,53.961Zm7.156-9.453v2.039h1.6v1.141h-1.6V52.82a1.149,1.149,0,0,0,.246.836.89.89,0,0,0,.652.242,1.429,1.429,0,0,0,.3-.035,2.2,2.2,0,0,0,.273-.074l.211,1.055a1.36,1.36,0,0,1-.508.23,2.562,2.562,0,0,1-.664.09,1.993,1.993,0,0,1-1.492-.566,2.46,2.46,0,0,1-.555-1.777V47.688H50.57V46.547h1.344V44.508ZM56.344,50.7a4.654,4.654,0,0,1,1.016-3.09,3.764,3.764,0,0,1,5.535,0,4.639,4.639,0,0,1,1.02,3.094v.172A4.631,4.631,0,0,1,62.9,53.961a3.781,3.781,0,0,1-5.535,0,4.623,4.623,0,0,1-1.02-3.09Zm1.539.172a4.009,4.009,0,0,0,.566,2.219,2.046,2.046,0,0,0,3.355,0,3.988,3.988,0,0,0,.57-2.219V50.7a3.976,3.976,0,0,0-.574-2.211,1.882,1.882,0,0,0-1.684-.883,1.856,1.856,0,0,0-1.668.883,4.018,4.018,0,0,0-.566,2.211Zm9.258,3.758-1.172,2.391h-.914l.547-2.469V53.273h1.539Zm12.992-3.531a4.659,4.659,0,0,1-.875,2.949,2.893,2.893,0,0,1-2.414,1.121,3.354,3.354,0,0,1-1.371-.262,2.622,2.622,0,0,1-1-.785V58.25H72.93v-11.7h1.18l.242,1.094a2.792,2.792,0,0,1,1.031-.93,3.078,3.078,0,0,1,1.438-.32,2.809,2.809,0,0,1,2.441,1.246,5.638,5.638,0,0,1,.871,3.293Zm-1.539-.164a4.467,4.467,0,0,0-.566-2.363,1.835,1.835,0,0,0-1.668-.926,2.054,2.054,0,0,0-1.133.3,2.25,2.25,0,0,0-.758.824v4.086a2.186,2.186,0,0,0,.758.816,2.126,2.126,0,0,0,1.148.293,1.894,1.894,0,0,0,1.656-.8,3.516,3.516,0,0,0,.563-2.066Zm7.43-3.023-.789-.047a1.762,1.762,0,0,0-1.027.289,1.854,1.854,0,0,0-.645.813V55H82.023V46.547H83.4l.148,1.234a2.934,2.934,0,0,1,.887-1.023,2.073,2.073,0,0,1,1.215-.367,1.9,1.9,0,0,1,.328.027,2.175,2.175,0,0,1,.258.059Zm4.953,7.258A3.576,3.576,0,0,1,88.137,54a4.48,4.48,0,0,1-1.02-3.062v-.344a4.386,4.386,0,0,1,1.051-3.012,3.3,3.3,0,0,1,2.566-1.191,3.067,3.067,0,0,1,2.543,1.055,4.345,4.345,0,0,1,.848,2.8v.813H88.719L88.7,51.1a3.494,3.494,0,0,0,.563,2.066,1.965,1.965,0,0,0,1.719.793,3.872,3.872,0,0,0,1.371-.223,3.061,3.061,0,0,0,1.012-.613l.6,1a3.7,3.7,0,0,1-1.2.738A4.762,4.762,0,0,1,90.977,55.164ZM90.734,47.6a1.673,1.673,0,0,0-1.332.621,2.938,2.938,0,0,0-.645,1.59l.016.039h3.813v-.125a2.462,2.462,0,0,0-.453-1.523A1.638,1.638,0,0,0,90.734,47.6Zm8.477,6.359a1.81,1.81,0,0,0,1.242-.473,1.494,1.494,0,0,0,.531-1.16h1.391l.023.047a2.428,2.428,0,0,1-.937,1.941,3.582,3.582,0,0,1-5-.363,4.674,4.674,0,0,1-.969-3.016v-.328a4.654,4.654,0,0,1,.973-3,3.317,3.317,0,0,1,2.746-1.215,3.189,3.189,0,0,1,2.316.875,2.775,2.775,0,0,1,.871,2.148l-.016.047h-1.4a1.865,1.865,0,0,0-.5-1.316,1.658,1.658,0,0,0-1.27-.543,1.777,1.777,0,0,0-1.652.879,4.114,4.114,0,0,0-.52,2.129v.328a4.192,4.192,0,0,0,.512,2.148A1.776,1.776,0,0,0,99.211,53.961ZM105.891,55h-1.539V46.547h1.539Zm0-10.617h-1.539v-1.57h1.539ZM107.9,50.7a4.654,4.654,0,0,1,1.016-3.09,3.764,3.764,0,0,1,5.535,0,4.639,4.639,0,0,1,1.02,3.094v.172a4.631,4.631,0,0,1-1.016,3.094,3.781,3.781,0,0,1-5.535,0,4.623,4.623,0,0,1-1.02-3.09Zm1.539.172A4.009,4.009,0,0,0,110,53.086a2.046,2.046,0,0,0,3.355,0,3.988,3.988,0,0,0,.57-2.219V50.7a3.976,3.976,0,0,0-.574-2.211,1.882,1.882,0,0,0-1.684-.883,1.856,1.856,0,0,0-1.668.883,4.018,4.018,0,0,0-.566,2.211Zm9.258,3.758-1.172,2.391h-.914l.547-2.469V53.273H118.7ZM8.32,71.094a4.659,4.659,0,0,1-.875,2.949,2.893,2.893,0,0,1-2.414,1.121A3.354,3.354,0,0,1,3.66,74.9a2.622,2.622,0,0,1-1-.785V78.25H1.117v-11.7H2.3l.242,1.094a2.792,2.792,0,0,1,1.031-.93,3.078,3.078,0,0,1,1.438-.32,2.809,2.809,0,0,1,2.441,1.246A5.638,5.638,0,0,1,8.32,70.93ZM6.781,70.93a4.467,4.467,0,0,0-.566-2.363,1.835,1.835,0,0,0-1.668-.926,2.053,2.053,0,0,0-1.133.3,2.25,2.25,0,0,0-.758.824v4.086a2.186,2.186,0,0,0,.758.816,2.126,2.126,0,0,0,1.148.293,1.894,1.894,0,0,0,1.656-.8,3.516,3.516,0,0,0,.563-2.066Zm7.43-3.023-.789-.047a1.762,1.762,0,0,0-1.027.289,1.854,1.854,0,0,0-.645.813V75H10.211V66.547h1.375l.148,1.234a2.934,2.934,0,0,1,.887-1.023,2.073,2.073,0,0,1,1.215-.367,1.9,1.9,0,0,1,.328.027,2.174,2.174,0,0,1,.258.059ZM15.3,70.7a4.654,4.654,0,0,1,1.016-3.09,3.406,3.406,0,0,1,2.758-1.215A3.439,3.439,0,0,1,21.848,67.6a4.639,4.639,0,0,1,1.02,3.094v.172a4.631,4.631,0,0,1-1.016,3.094,3.429,3.429,0,0,1-2.766,1.2,3.436,3.436,0,0,1-2.77-1.207,4.623,4.623,0,0,1-1.02-3.09Zm1.539.172a4.009,4.009,0,0,0,.566,2.219,2.046,2.046,0,0,0,3.355,0,3.988,3.988,0,0,0,.57-2.219V70.7a3.976,3.976,0,0,0-.574-2.211A1.882,1.882,0,0,0,19.07,67.6a1.856,1.856,0,0,0-1.668.883,4.018,4.018,0,0,0-.566,2.211Zm9.289-4.32.109,1.109a2.871,2.871,0,0,1,1.051-.934,3.158,3.158,0,0,1,1.48-.332,2.615,2.615,0,0,1,1.449.391,2.363,2.363,0,0,1,.91,1.172,3.162,3.162,0,0,1,1.059-1.145,2.769,2.769,0,0,1,1.527-.418,2.531,2.531,0,0,1,2.039.887,4.051,4.051,0,0,1,.75,2.668V75H34.961V69.93a2.81,2.81,0,0,0-.43-1.77,1.567,1.567,0,0,0-1.281-.52,1.631,1.631,0,0,0-1.277.547A2.381,2.381,0,0,0,31.4,69.57V75H29.852V69.93a2.772,2.772,0,0,0-.441-1.738,1.532,1.532,0,0,0-1.27-.551,2.115,2.115,0,0,0-1.156.289,1.867,1.867,0,0,0-.7.813V75H24.75V66.547ZM38.375,70.7a4.654,4.654,0,0,1,1.016-3.09,3.764,3.764,0,0,1,5.535,0,4.639,4.639,0,0,1,1.02,3.094v.172a4.631,4.631,0,0,1-1.016,3.094,3.781,3.781,0,0,1-5.535,0,4.623,4.623,0,0,1-1.02-3.09Zm1.539.172a4.009,4.009,0,0,0,.566,2.219,2.046,2.046,0,0,0,3.355,0,3.988,3.988,0,0,0,.57-2.219V70.7a3.976,3.976,0,0,0-.574-2.211,1.882,1.882,0,0,0-1.684-.883,1.856,1.856,0,0,0-1.668.883,4.018,4.018,0,0,0-.566,2.211Zm11.273,3.094a1.81,1.81,0,0,0,1.242-.473,1.494,1.494,0,0,0,.531-1.16h1.391l.023.047a2.428,2.428,0,0,1-.937,1.941,3.582,3.582,0,0,1-5-.363,4.674,4.674,0,0,1-.969-3.016v-.328a4.654,4.654,0,0,1,.973-3,3.317,3.317,0,0,1,2.746-1.215,3.189,3.189,0,0,1,2.316.875,2.775,2.775,0,0,1,.871,2.148l-.016.047h-1.4a1.865,1.865,0,0,0-.5-1.316,1.658,1.658,0,0,0-1.27-.543,1.777,1.777,0,0,0-1.652.879,4.114,4.114,0,0,0-.52,2.129v.328a4.192,4.192,0,0,0,.512,2.148A1.776,1.776,0,0,0,51.188,73.961ZM57.867,75H56.328V66.547h1.539Zm0-10.617H56.328v-1.57h1.539ZM59.875,70.7a4.654,4.654,0,0,1,1.016-3.09,3.764,3.764,0,0,1,5.535,0,4.639,4.639,0,0,1,1.02,3.094v.172a4.631,4.631,0,0,1-1.016,3.094,3.781,3.781,0,0,1-5.535,0,4.623,4.623,0,0,1-1.02-3.09Zm1.539.172a4.009,4.009,0,0,0,.566,2.219,2.046,2.046,0,0,0,3.355,0,3.988,3.988,0,0,0,.57-2.219V70.7a3.976,3.976,0,0,0-.574-2.211,1.882,1.882,0,0,0-1.684-.883,1.856,1.856,0,0,0-1.668.883,4.018,4.018,0,0,0-.566,2.211Zm2.992-7.906h1.8l.016.047-2.1,2.031H62.961Zm6.3,3.586.109,1.258a3.069,3.069,0,0,1,1.059-1.043,2.824,2.824,0,0,1,1.449-.371,2.759,2.759,0,0,1,2.117.8,3.515,3.515,0,0,1,.75,2.473V75H74.648V69.7a2.287,2.287,0,0,0-.441-1.586,1.768,1.768,0,0,0-1.348-.469,2.386,2.386,0,0,0-1.207.285,2.072,2.072,0,0,0-.785.8V75H69.328V66.547Zm14.281,5.32.273,1.063H85.3l2.078-6.383h1.711L85.539,76.3a4.383,4.383,0,0,1-.918,1.484,2.113,2.113,0,0,1-1.613.633,3.363,3.363,0,0,1-.477-.043q-.289-.043-.445-.082l.156-1.211a2.061,2.061,0,0,1,.277.016q.324.023.41.023a.95.95,0,0,0,.8-.437,4.542,4.542,0,0,0,.523-.969l.367-.883-3.141-8.281H83.2Zm16.641-.773a4.659,4.659,0,0,1-.875,2.949,2.893,2.893,0,0,1-2.414,1.121,3.354,3.354,0,0,1-1.371-.262,2.622,2.622,0,0,1-1-.785V78.25H94.422v-11.7H95.6l.242,1.094a2.792,2.792,0,0,1,1.031-.93,3.078,3.078,0,0,1,1.438-.32,2.809,2.809,0,0,1,2.441,1.246,5.638,5.638,0,0,1,.871,3.293Zm-1.539-.164a4.467,4.467,0,0,0-.566-2.363,1.835,1.835,0,0,0-1.668-.926,2.053,2.053,0,0,0-1.133.3,2.25,2.25,0,0,0-.758.824v4.086a2.186,2.186,0,0,0,.758.816,2.126,2.126,0,0,0,1.148.293,1.894,1.894,0,0,0,1.656-.8,3.516,3.516,0,0,0,.563-2.066Zm8.8,2.82a2.863,2.863,0,0,1-1.023,1.047,2.8,2.8,0,0,1-1.445.367,2.716,2.716,0,0,1-2.156-.883,4.1,4.1,0,0,1-.773-2.75V66.547h1.539v5a3.147,3.147,0,0,0,.4,1.859,1.481,1.481,0,0,0,1.242.508,2.531,2.531,0,0,0,1.355-.332,2.077,2.077,0,0,0,.809-.941V66.547h1.539V75h-1.383Zm5.1-7.2.109,1.258a3.069,3.069,0,0,1,1.059-1.043,2.824,2.824,0,0,1,1.449-.371,2.759,2.759,0,0,1,2.117.8,3.515,3.515,0,0,1,.75,2.473V75H117.93V69.7a2.287,2.287,0,0,0-.441-1.586,1.768,1.768,0,0,0-1.348-.469,2.386,2.386,0,0,0-1.207.285,2.072,2.072,0,0,0-.785.8V75h-1.539V66.547Zm9.859-2.039v2.039h1.6v1.141h-1.6V72.82a1.149,1.149,0,0,0,.246.836.89.89,0,0,0,.652.242,1.43,1.43,0,0,0,.3-.035,2.2,2.2,0,0,0,.273-.074l.211,1.055a1.36,1.36,0,0,1-.508.23,2.562,2.562,0,0,1-.664.09,1.993,1.993,0,0,1-1.492-.566,2.46,2.46,0,0,1-.555-1.777V67.688h-1.344V66.547H122.3V64.508Zm2.891,6.188a4.654,4.654,0,0,1,1.016-3.09,3.764,3.764,0,0,1,5.535,0A4.639,4.639,0,0,1,134.3,70.7v.172a4.631,4.631,0,0,1-1.016,3.094,3.781,3.781,0,0,1-5.535,0,4.623,4.623,0,0,1-1.02-3.09Zm1.539.172a4.009,4.009,0,0,0,.566,2.219,2.046,2.046,0,0,0,3.355,0,3.988,3.988,0,0,0,.57-2.219V70.7a3.976,3.976,0,0,0-.574-2.211,1.882,1.882,0,0,0-1.684-.883,1.856,1.856,0,0,0-1.668.883,4.018,4.018,0,0,0-.566,2.211Zm11.539.063a5.641,5.641,0,0,1,.871-3.289,2.807,2.807,0,0,1,2.441-1.25,3.027,3.027,0,0,1,1.316.273,2.7,2.7,0,0,1,.98.8V62.813h1.539V75h-1.18l-.234-1.07a2.743,2.743,0,0,1-1.023.922,3.058,3.058,0,0,1-1.414.313,2.9,2.9,0,0,1-2.422-1.121,4.659,4.659,0,0,1-.875-2.949Zm1.539.164a3.588,3.588,0,0,0,.523,2.051,1.828,1.828,0,0,0,1.625.77,2.039,2.039,0,0,0,1.156-.312,2.334,2.334,0,0,0,.766-.875V68.781a2.37,2.37,0,0,0-.77-.832,2.033,2.033,0,0,0-1.137-.309,1.759,1.759,0,0,0-1.637.914,4.718,4.718,0,0,0-.527,2.375Zm11.406,4.07A3.576,3.576,0,0,1,149.918,74a4.48,4.48,0,0,1-1.02-3.062v-.344a4.386,4.386,0,0,1,1.051-3.012,3.3,3.3,0,0,1,2.566-1.191,3.067,3.067,0,0,1,2.543,1.055,4.345,4.345,0,0,1,.848,2.8v.813H150.5l-.023.039a3.494,3.494,0,0,0,.563,2.066,1.965,1.965,0,0,0,1.719.793,3.872,3.872,0,0,0,1.371-.223,3.061,3.061,0,0,0,1.012-.613l.6,1a3.7,3.7,0,0,1-1.2.738A4.762,4.762,0,0,1,152.758,75.164Zm-.242-7.562a1.673,1.673,0,0,0-1.332.621,2.938,2.938,0,0,0-.645,1.59l.016.039h3.813v-.125a2.462,2.462,0,0,0-.453-1.523A1.638,1.638,0,0,0,152.516,67.6ZM3.938,92.508l.133.594h.047l.148-.594,1.945-5.961h1.57L4.672,95H3.508L.359,86.547H1.938Zm8.625,2.656A3.576,3.576,0,0,1,9.723,94,4.48,4.48,0,0,1,8.7,90.938v-.344a4.386,4.386,0,0,1,1.051-3.012,3.3,3.3,0,0,1,2.566-1.191,3.067,3.067,0,0,1,2.543,1.055,4.345,4.345,0,0,1,.848,2.8v.813H10.3l-.023.039a3.494,3.494,0,0,0,.563,2.066,1.965,1.965,0,0,0,1.719.793,3.872,3.872,0,0,0,1.371-.223,3.061,3.061,0,0,0,1.012-.613l.6,1a3.7,3.7,0,0,1-1.2.738A4.762,4.762,0,0,1,12.563,95.164ZM12.32,87.6a1.673,1.673,0,0,0-1.332.621,2.938,2.938,0,0,0-.645,1.59l.016.039h3.813v-.125a2.462,2.462,0,0,0-.453-1.523A1.638,1.638,0,0,0,12.32,87.6Zm6.492-1.055.109,1.258a3.069,3.069,0,0,1,1.059-1.043,2.824,2.824,0,0,1,1.449-.371,2.759,2.759,0,0,1,2.117.8,3.515,3.515,0,0,1,.75,2.473V95H22.758V89.7a2.287,2.287,0,0,0-.441-1.586,1.768,1.768,0,0,0-1.348-.469,2.386,2.386,0,0,0-1.207.285,2.072,2.072,0,0,0-.785.8V95H17.438V86.547Zm9.859-2.039v2.039h1.6v1.141h-1.6V92.82a1.149,1.149,0,0,0,.246.836.89.89,0,0,0,.652.242,1.429,1.429,0,0,0,.3-.035,2.2,2.2,0,0,0,.273-.074l.211,1.055a1.36,1.36,0,0,1-.508.23,2.562,2.562,0,0,1-.664.09,1.993,1.993,0,0,1-1.492-.566,2.46,2.46,0,0,1-.555-1.777V87.688H25.789V86.547h1.344V84.508ZM37.117,95q-.078-.383-.121-.676a4.96,4.96,0,0,1-.051-.59,3.589,3.589,0,0,1-1.121,1.02,2.867,2.867,0,0,1-1.488.41,2.763,2.763,0,0,1-2.012-.676,2.486,2.486,0,0,1-.691-1.863,2.183,2.183,0,0,1,.98-1.895,4.579,4.579,0,0,1,2.66-.684h1.672v-.836a1.551,1.551,0,0,0-.453-1.176,1.779,1.779,0,0,0-1.281-.434A1.859,1.859,0,0,0,34,87.977a1.125,1.125,0,0,0-.461.9l-1.461.016-.016-.047a2.023,2.023,0,0,1,.863-1.687,3.578,3.578,0,0,1,2.371-.766,3.49,3.49,0,0,1,2.313.73,2.588,2.588,0,0,1,.875,2.105V93.3a7.923,7.923,0,0,0,.047.875A4.5,4.5,0,0,0,38.7,95Zm-2.555-1.125a2.739,2.739,0,0,0,1.508-.43,2.042,2.042,0,0,0,.875-.984V91.086H35.219a2.24,2.24,0,0,0-1.488.469,1.4,1.4,0,0,0-.559,1.1,1.159,1.159,0,0,0,.352.891A1.472,1.472,0,0,0,34.563,93.875ZM42.4,95H40.859V93.422H42.4Z" transform="translate(820 4938)" fill="#fff"/>
        <path id="Icon_material-play-arrow" data-name="Icon material-play-arrow" d="M12,7.5v21L28.5,18Z" transform="translate(551 4975.5)" fill="#97181a"/>
        <path id="Icon_material-play-arrow-2" data-name="Icon material-play-arrow" d="M12,7.5v21L28.5,18Z" transform="translate(771 4975.5)" fill="#97181a"/>
      </g>
    </g>
  </g>
</svg>
