<svg xmlns="http://www.w3.org/2000/svg" width="130" height="130" viewBox="0 0 130 130">
  <g id="Grupo_23273" data-name="Grupo 23273" transform="translate(19562 2569)">
    <circle id="Elipse_1364" data-name="Elipse 1364" cx="65" cy="65" r="65" transform="translate(-19562 -2569)" fill="#fff"/>
    <g id="Grupo_23272" data-name="Grupo 23272" transform="translate(-22087.451 -4466.612)">
      <g id="Grupo_23251" data-name="Grupo 23251" transform="translate(2555.451 1937.358)">
        <path id="Trazado_23073" data-name="Trazado 23073" d="M2574.137,2013.242l-2.452-.086v-2.6a7.333,7.333,0,1,0-7.108,0v2.6l-2.427.083a6.924,6.924,0,0,0-6.7,7.113v10.716c0,2.937,1.57,4.933,3.93,5.111v24.543a5.309,5.309,0,0,0,1.362,3.575,4.568,4.568,0,0,0,3.372,1.5,4.543,4.543,0,0,1,8.033,0,4.572,4.572,0,0,0,3.377-1.51,5.3,5.3,0,0,0,1.357-3.569v-24.543c2.36-.179,3.93-2.174,3.93-5.111v-10.716A6.919,6.919,0,0,0,2574.137,2013.242Zm-11.9-9.088a5.9,5.9,0,1,1,8.46,5.283l-.023.011c-.148.071-.291.151-.447.209a5.805,5.805,0,0,1-4.2-.006c-.15-.056-.287-.134-.429-.2l-.029-.014A5.889,5.889,0,0,1,2562.236,2004.153Zm17.137,26.917c0,1.611-.671,3.454-2.491,3.666v-7.705a.719.719,0,1,0-1.438,0v33.693a3.86,3.86,0,0,1-.98,2.6,3.14,3.14,0,0,1-2.316,1.043,3.486,3.486,0,0,1-3.3-3.64v-26.389a.719.719,0,1,0-1.438,0v26.389a3.486,3.486,0,0,1-3.3,3.64,3.136,3.136,0,0,1-2.31-1.037,3.864,3.864,0,0,1-.986-2.6v-33.693a.719.719,0,1,0-1.438,0v7.705c-1.82-.212-2.492-2.055-2.492-3.666v-10.716a5.49,5.49,0,0,1,5.286-5.676l3.146-.108a.7.7,0,0,0,.121-.029.718.718,0,0,0,.145-.034.7.7,0,0,0,.108-.073.687.687,0,0,0,.117-.085.726.726,0,0,0,.072-.106.711.711,0,0,0,.077-.124.7.7,0,0,0,.029-.143.687.687,0,0,0,.025-.124v-2.712a6.652,6.652,0,0,0,4.232,0v2.711a.719.719,0,0,0,.719.719c.02,0,.036-.01.055-.011s.035.012.055.013l3.036.106a5.485,5.485,0,0,1,5.261,5.675Z" transform="translate(-2555.451 -1996.82)"/>
      </g>
      <g id="Grupo_23252" data-name="Grupo 23252" transform="translate(2585.178 1937.358)">
        <path id="Trazado_23074" data-name="Trazado 23074" d="M2698.159,2013.242l-2.454-.086v-2.6a7.332,7.332,0,1,0-7.106,0v2.6l-2.427.083a6.924,6.924,0,0,0-6.7,7.113v10.716c0,2.937,1.571,4.933,3.931,5.111v24.543a5.309,5.309,0,0,0,1.363,3.575,4.568,4.568,0,0,0,3.372,1.5,4.542,4.542,0,0,1,8.031,0,4.569,4.569,0,0,0,3.376-1.509,5.3,5.3,0,0,0,1.36-3.569v-24.543c2.359-.179,3.929-2.175,3.929-5.111v-10.716A6.919,6.919,0,0,0,2698.159,2013.242Zm-11.9-9.088a5.895,5.895,0,1,1,8.459,5.283l-.023.011c-.148.071-.291.151-.447.209a5.8,5.8,0,0,1-4.2-.006c-.148-.056-.284-.132-.425-.2l-.034-.016A5.888,5.888,0,0,1,2686.257,2004.153Zm17.137,26.917c0,1.611-.671,3.454-2.491,3.666v-7.7a.719.719,0,1,0-1.438,0v33.693a3.851,3.851,0,0,1-.982,2.6,3.14,3.14,0,0,1-2.316,1.043,3.486,3.486,0,0,1-3.3-3.64v-26.389a.719.719,0,1,0-1.438,0v26.389a3.486,3.486,0,0,1-3.3,3.64,3.135,3.135,0,0,1-2.31-1.037,3.863,3.863,0,0,1-.986-2.6v-33.693a.719.719,0,1,0-1.438,0v7.705c-1.821-.212-2.493-2.055-2.493-3.666v-10.716a5.491,5.491,0,0,1,5.288-5.676l3.146-.108a.7.7,0,0,0,.121-.029.723.723,0,0,0,.144-.034,4.194,4.194,0,0,0,.225-.158.767.767,0,0,0,.072-.106.711.711,0,0,0,.077-.124.757.757,0,0,0,.029-.143.687.687,0,0,0,.025-.124v-2.712a6.65,6.65,0,0,0,4.23,0v2.711a.719.719,0,0,0,.719.719c.02,0,.036-.01.055-.011s.036.012.056.013l3.036.106a5.485,5.485,0,0,1,5.261,5.675Z" transform="translate(-2679.471 -1996.82)"/>
      </g>
      <g id="Grupo_23253" data-name="Grupo 23253" transform="translate(2578.219 1923.687)">
        <path id="Trazado_23075" data-name="Trazado 23075" d="M2658.59,1955.709v1.233a.719.719,0,0,0,1.438,0v-1.233h.827a.719.719,0,0,0,0-1.438h-.827v-1.159h.827a.719.719,0,0,0,0-1.438h-.827v-.923a5.991,5.991,0,0,0,2.525-4.907,6.058,6.058,0,1,0-12.116,0,5.99,5.99,0,0,0,2.525,4.907v.923h-.827a.719.719,0,1,0,0,1.438h.827v1.159h-.827a.719.719,0,1,0,0,1.438h.827v1.233a.719.719,0,1,0,1.438,0v-1.233Zm-4.206-5.409a.686.686,0,0,0-.028-.141.653.653,0,0,0-.058-.126.677.677,0,0,0-.073-.109.7.7,0,0,0-.111-.1.683.683,0,0,0-.057-.053,4.575,4.575,0,0,1-2.183-3.925,4.62,4.62,0,1,1,9.24,0,4.574,4.574,0,0,1-2.183,3.925,30.84,30.84,0,0,1-.167.156.677.677,0,0,0-.073.109.653.653,0,0,0-.058.126.686.686,0,0,0-.028.141.641.641,0,0,0-.017.081v1.293H2654.4v-1.293A.741.741,0,0,0,2654.384,1950.3Zm.016,2.812h4.189v1.159H2654.4Z" transform="translate(-2650.437 -1939.785)"/>
      </g>
      <g id="Grupo_23254" data-name="Grupo 23254" transform="translate(2583.562 1918.612)">
        <path id="Trazado_23076" data-name="Trazado 23076" d="M2673.445,1922.991a.719.719,0,0,0,.719-.719v-2.941a.719.719,0,0,0-1.438,0v2.941A.719.719,0,0,0,2673.445,1922.991Z" transform="translate(-2672.726 -1918.612)"/>
      </g>
      <g id="Grupo_23255" data-name="Grupo 23255" transform="translate(2575.753 1921.817)">
        <path id="Trazado_23077" data-name="Trazado 23077" d="M2642.438,1935.29a.719.719,0,1,0,1.017-1.017l-2.08-2.079a.719.719,0,1,0-1.017,1.017Z" transform="translate(-2640.148 -1931.984)"/>
      </g>
      <g id="Grupo_23256" data-name="Grupo 23256" transform="translate(2572.499 1929.605)">
        <path id="Trazado_23078" data-name="Trazado 23078" d="M2627.291,1965.912h2.941a.719.719,0,1,0,0-1.438h-2.941a.719.719,0,1,0,0,1.438Z" transform="translate(-2626.572 -1964.474)"/>
      </g>
      <g id="Grupo_23257" data-name="Grupo 23257" transform="translate(2591.613 1929.675)">
        <path id="Trazado_23079" data-name="Trazado 23079" d="M2706.318,1965.486a.719.719,0,0,0,.719.719h2.941a.719.719,0,1,0,0-1.438h-2.941A.719.719,0,0,0,2706.318,1965.486Z" transform="translate(-2706.318 -1964.767)"/>
      </g>
      <g id="Grupo_23258" data-name="Grupo 23258" transform="translate(2589.269 1921.867)">
        <path id="Trazado_23080" data-name="Trazado 23080" d="M2697.258,1935.708a.718.718,0,0,0,.508-.211l2.08-2.079a.719.719,0,0,0-1.017-1.017l-2.08,2.079a.719.719,0,0,0,.508,1.227Z" transform="translate(-2696.539 -1932.191)"/>
      </g>
      <g id="Grupo_23259" data-name="Grupo 23259" transform="translate(2607.909 1927.836)">
        <path id="Trazado_23081" data-name="Trazado 23081" d="M2790.416,1957.094h-15.391a.718.718,0,0,0-.719.719v10.662a.718.718,0,0,0,.719.719h.387l-.846,2.985a.719.719,0,0,0,1.135.763l4.8-3.748h9.913a.718.718,0,0,0,.719-.719v-10.662A.718.718,0,0,0,2790.416,1957.094Zm-.719,10.662h-9.448a.662.662,0,0,0-.105.021.573.573,0,0,0-.283.108c-.017.011-.036.013-.051.026l-3.26,2.543.506-1.781a.681.681,0,0,0,.01-.13.65.65,0,0,0,.014-.069c0-.011-.006-.02-.007-.031a.693.693,0,0,0-.035-.176.735.735,0,0,0-.033-.1.7.7,0,0,0-.083-.124.712.712,0,0,0-.084-.1,1.194,1.194,0,0,0-.246-.143c-.011,0-.02-.013-.031-.016a.725.725,0,0,0-.086-.007.706.706,0,0,0-.114-.023h-.616v-9.224H2789.7Z" transform="translate(-2774.305 -1957.094)"/>
      </g>
      <g id="Grupo_23260" data-name="Grupo 23260" transform="translate(2616.091 1935.882)">
        <rect id="Rectángulo_5077" data-name="Rectángulo 5077" width="1.062" height="1.298" transform="translate(0)"/>
      </g>
      <g id="Grupo_23261" data-name="Grupo 23261" transform="translate(2614.613 1930.342)">
        <path id="Trazado_23082" data-name="Trazado 23082" d="M2804.3,1968.538a.887.887,0,0,1,.918.918.876.876,0,0,1-.1.429,4.14,4.14,0,0,1-.605.684,2.689,2.689,0,0,0-.61.812,2.513,2.513,0,0,0-.156.965l0,.3h.965a2.243,2.243,0,0,1,.072-.744,1.874,1.874,0,0,1,.418-.549,5.038,5.038,0,0,0,.854-1.041,1.726,1.726,0,0,0,.2-.806,1.88,1.88,0,0,0-.567-1.395,1.947,1.947,0,0,0-1.423-.558,1.894,1.894,0,0,0-1.4.555,2.076,2.076,0,0,0-.6,1.421l.975.147Q2803.444,1968.538,2804.3,1968.538Z" transform="translate(-2802.271 -1967.55)"/>
      </g>
    </g>
  </g>
</svg>
