<svg xmlns="http://www.w3.org/2000/svg" width="130" height="130" viewBox="0 0 130 130">
  <g id="Grupo_23275" data-name="Grupo 23275" transform="translate(19562 2236)">
    <circle id="Elipse_1364" data-name="Elipse 1364" cx="65" cy="65" r="65" transform="translate(-19562 -2236)" fill="#fff"/>
    <g id="Grupo_23274" data-name="Grupo 23274" transform="translate(35.162 -985.5)">
      <path id="Icon_awesome-church" data-name="Icon awesome-church" d="M157.762,40.976,139.081,29.767v-8.5h7.973a2.657,2.657,0,0,0,2.658-2.658V13.289a2.657,2.657,0,0,0-2.658-2.658h-7.973V2.658A2.657,2.657,0,0,0,136.423,0h-5.316a2.657,2.657,0,0,0-2.658,2.658v7.973h-7.973a2.657,2.657,0,0,0-2.658,2.658V18.6a2.657,2.657,0,0,0,2.658,2.658h7.973v8.5L109.769,40.976a5.315,5.315,0,0,0-2.581,4.558V85.049h15.947V69.1a10.631,10.631,0,1,1,21.262,0V85.049h15.947V45.535A5.315,5.315,0,0,0,157.762,40.976Z" transform="translate(-19666.35 -1228.5)" fill="none" stroke="#000" stroke-width="1.6"/>
    </g>
  </g>
</svg>
