<svg xmlns="http://www.w3.org/2000/svg" width="130" height="130" viewBox="0 0 130 130">
  <g id="Grupo_25584" data-name="Grupo 25584" transform="translate(-454 -16916)">
    <circle id="Elipse_1364" data-name="Elipse 1364" cx="65" cy="65" r="65" transform="translate(454 16916)" fill="#fff"/>
    <g id="_025-shopping_basket" data-name="025-shopping basket" transform="translate(483 16945)">
      <path id="Trazado_24638" data-name="Trazado 24638" d="M19.658,17.473a9.032,9.032,0,1,0-10.22,0A12.433,12.433,0,0,0,1,29.226v3.387a5.652,5.652,0,0,0,5.645,5.645V66.484a4.5,4.5,0,0,0,7.9,2.956,4.5,4.5,0,0,0,7.9-2.956V46.161h1.129A4.521,4.521,0,0,0,28.1,41.645V29.226a12.433,12.433,0,0,0-8.438-11.753ZM7.774,10.032a6.774,6.774,0,1,1,6.774,6.774,6.781,6.781,0,0,1-6.774-6.774ZM25.839,41.645A2.26,2.26,0,0,1,23.581,43.9H22.452V25.839H20.194V66.484a2.258,2.258,0,0,1-4.516,0V45.307a2.247,2.247,0,0,1,.662-1.6L17.6,42.443l-1.6-1.6-1.266,1.266a4.488,4.488,0,0,0-1.323,3.194V66.484a2.258,2.258,0,1,1-4.516,0V38.258h5.081a3.952,3.952,0,0,0,0-7.9H5.516v2.258h8.468a1.694,1.694,0,1,1,0,3.387H6.645a3.391,3.391,0,0,1-3.387-3.387V29.226A10.173,10.173,0,0,1,13.419,19.065h2.258A10.173,10.173,0,0,1,25.839,29.226Z" transform="translate(0 0)"/>
      <path id="Trazado_24639" data-name="Trazado 24639" d="M45.516,20.806a2.26,2.26,0,0,1-2.258-2.258H41A4.511,4.511,0,0,0,44.387,22.9v2.418h2.258V23.065h3.387V18.548a4.521,4.521,0,0,0-4.516-4.516,2.26,2.26,0,0,1-2.258-2.258V9.516h2.258a2.26,2.26,0,0,1,2.258,2.258h2.258a4.511,4.511,0,0,0-3.387-4.356V5H44.387V7.258H41v4.516a4.521,4.521,0,0,0,4.516,4.516,2.26,2.26,0,0,1,2.258,2.258v2.258Z" transform="translate(5.161 0.516)"/>
      <path id="Trazado_24640" data-name="Trazado 24640" d="M46.677,30.355A14.677,14.677,0,1,0,32,15.677,14.694,14.694,0,0,0,46.677,30.355Zm0-27.1A12.419,12.419,0,1,1,34.258,15.677,12.434,12.434,0,0,1,46.677,3.258Z" transform="translate(4 0)"/>
      <path id="Trazado_24641" data-name="Trazado 24641" d="M64.258,39.129H50.676a5.541,5.541,0,0,0-6.7,0H30.387A3.391,3.391,0,0,0,27,42.516v2.258a3.391,3.391,0,0,0,3.387,3.387h.132l.954,7.632-.344.414a3.374,3.374,0,0,0,1.032,5.09l.246,1.962a3.392,3.392,0,0,0,3.361,2.966h23.11a3.392,3.392,0,0,0,3.361-2.966l.246-1.961a3.37,3.37,0,0,0,1.02-5.108l-.332-.4.953-7.631h.132a3.391,3.391,0,0,0,3.387-3.387V42.516a3.391,3.391,0,0,0-3.387-3.387Zm-2.5,18.488A1.13,1.13,0,0,1,61.58,59.2a1.155,1.155,0,0,1-1.6-.191L50.829,48.034a5.661,5.661,0,0,0,1.464-1.769ZM47.324,40.258a3.387,3.387,0,1,1-3.387,3.387A3.391,3.391,0,0,1,47.324,40.258ZM33.07,59.2a1.125,1.125,0,0,1-.191-1.569l9.475-11.369a5.646,5.646,0,0,0,1.464,1.769L34.659,59.028A1.163,1.163,0,0,1,33.07,59.2Zm-3.812-14.43V42.516a1.13,1.13,0,0,1,1.129-1.129h11.77a5.611,5.611,0,0,0-.467,2.147L39.715,45.9H30.387a1.13,1.13,0,0,1-1.129-1.129ZM32.8,48.161h5.039l-4.382,5.258ZM58.877,63.968H55.226V57.194H52.968v6.774H50.71V57.194H48.452v6.774H46.194V57.194H43.935v6.774H41.677V57.194H39.419v6.774H35.768a1.13,1.13,0,0,1-1.12-.989l-.168-1.347a3.347,3.347,0,0,0,1.927-1.174l9.479-11.376a5.053,5.053,0,0,0,2.876,0l9.467,11.36a3.376,3.376,0,0,0,1.937,1.189L60,62.979a1.13,1.13,0,0,1-1.12.989Zm2.317-10.551-4.381-5.256h5.038Zm4.193-8.643A1.13,1.13,0,0,1,64.258,45.9H54.931l-1.974-2.368a5.6,5.6,0,0,0-.467-2.149H64.258a1.13,1.13,0,0,1,1.129,1.129Z" transform="translate(3.355 4.774)"/>
      <path id="Trazado_24642" data-name="Trazado 24642" d="M47,29h2.258v4.516H47Z" transform="translate(5.935 3.613)"/>
      <path id="Trazado_24643" data-name="Trazado 24643" d="M47,35h2.258v2.258H47Z" transform="translate(5.935 4.387)"/>
      <path id="Trazado_24644" data-name="Trazado 24644" d="M41,33h2.258v4.516H41Z" transform="translate(5.161 4.129)"/>
      <path id="Trazado_24645" data-name="Trazado 24645" d="M41,29h2.258v2.258H41Z" transform="translate(5.161 3.613)"/>
      <path id="Trazado_24646" data-name="Trazado 24646" d="M51,27v7.9a3.391,3.391,0,0,0,3.387,3.387h1.129V36.032H54.387A1.13,1.13,0,0,1,53.258,34.9V27Z" transform="translate(6.452 3.355)"/>
      <path id="Trazado_24647" data-name="Trazado 24647" d="M57,35h2.258v2.258H57Z" transform="translate(7.226 4.387)"/>
      <path id="Trazado_24648" data-name="Trazado 24648" d="M36.129,36.032H35V38.29h1.129A3.391,3.391,0,0,0,39.516,34.9V27H37.258v7.9A1.13,1.13,0,0,1,36.129,36.032Z" transform="translate(4.387 3.355)"/>
      <path id="Trazado_24649" data-name="Trazado 24649" d="M31,35h2.258v2.258H31Z" transform="translate(3.871 4.387)"/>
    </g>
  </g>
</svg>
