<?xml version="1.0" encoding="UTF-8" standalone="no"?><!DOCTYPE svg PUBLIC "-//W3C//DTD SVG 1.1//EN" "http://www.w3.org/Graphics/SVG/1.1/DTD/svg11.dtd"><svg width="100%" height="100%" viewBox="0 0 255 195" version="1.1" xmlns="http://www.w3.org/2000/svg" xmlns:xlink="http://www.w3.org/1999/xlink" xml:space="preserve" xmlns:serif="http://www.serif.com/" style="fill-rule:evenodd;clip-rule:evenodd;stroke-miterlimit:10;"><g id="Grupo_25563"><g id="Grupo_25559"><g id="Grupo_25558"><g><path id="Trazado_24695-2" d="M243.848,47.258c0,-0.075 -0.015,-0.15 -0.022,-0.225c-0.016,-0.165 -0.036,-0.329 -0.068,-0.493c-0.016,-0.085 -0.036,-0.17 -0.056,-0.256c-0.037,-0.156 -0.082,-0.312 -0.132,-0.466c-0.028,-0.084 -0.055,-0.167 -0.085,-0.25c-0.065,-0.169 -0.14,-0.339 -0.221,-0.508c-0.032,-0.065 -0.057,-0.13 -0.091,-0.195c-0.121,-0.24 -0.255,-0.474 -0.4,-0.7c-0.023,-0.035 -0.052,-0.071 -0.076,-0.107c-0.132,-0.195 -0.272,-0.389 -0.425,-0.582c-0.06,-0.075 -0.126,-0.151 -0.189,-0.226c-0.13,-0.155 -0.263,-0.308 -0.406,-0.462c-0.077,-0.082 -0.155,-0.165 -0.237,-0.246c-0.148,-0.151 -0.3,-0.3 -0.464,-0.449c-0.083,-0.078 -0.165,-0.155 -0.251,-0.232c-0.195,-0.173 -0.4,-0.346 -0.613,-0.518c-0.062,-0.05 -0.119,-0.1 -0.182,-0.15c-0.282,-0.221 -0.577,-0.441 -0.885,-0.66c-0.075,-0.052 -0.153,-0.1 -0.229,-0.155c-0.24,-0.167 -0.487,-0.333 -0.745,-0.5c-0.117,-0.075 -0.239,-0.149 -0.357,-0.224c-0.232,-0.143 -0.467,-0.286 -0.71,-0.428c-0.133,-0.078 -0.267,-0.155 -0.4,-0.232c-0.254,-0.145 -0.516,-0.287 -0.782,-0.43c-0.129,-0.069 -0.256,-0.139 -0.389,-0.209c-0.347,-0.18 -0.703,-0.36 -1.07,-0.539c-0.058,-0.028 -0.113,-0.058 -0.172,-0.086c-0.429,-0.207 -0.871,-0.413 -1.327,-0.616l-0.4,-0.175c-0.333,-0.145 -0.67,-0.29 -1.009,-0.434c-0.068,-0.028 -0.132,-0.058 -0.2,-0.086c-0.122,-0.05 -0.251,-0.1 -0.374,-0.15c-0.256,-0.1 -0.514,-0.209 -0.777,-0.312c-0.207,-0.082 -0.419,-0.164 -0.63,-0.245c-0.267,-0.101 -0.536,-0.201 -0.808,-0.3l-0.66,-0.242c-0.28,-0.101 -0.563,-0.201 -0.848,-0.3c-0.225,-0.079 -0.451,-0.157 -0.68,-0.235c-0.297,-0.101 -0.597,-0.201 -0.9,-0.3c-0.152,-0.05 -0.3,-0.1 -0.454,-0.152c-0.091,-0.03 -0.187,-0.059 -0.278,-0.089c-0.189,-0.062 -0.381,-0.122 -0.571,-0.182c-0.31,-0.1 -0.62,-0.194 -0.934,-0.29l-0.582,-0.177c-0.333,-0.1 -0.671,-0.2 -1.011,-0.3c-0.181,-0.053 -0.36,-0.106 -0.543,-0.158c-0.389,-0.112 -0.785,-0.223 -1.184,-0.333l-0.425,-0.118l-0.084,-0.024l-0.226,-0.058c-0.667,-0.182 -1.349,-0.361 -2.04,-0.538l-0.64,-0.162c-0.783,-0.2 -1.574,-0.393 -2.386,-0.585l-0.023,-0.006l-0.165,-0.038c-0.688,-0.162 -1.39,-0.322 -2.1,-0.481c-0.244,-0.055 -0.491,-0.108 -0.737,-0.163c-0.557,-0.121 -1.12,-0.242 -1.688,-0.363l-0.466,-0.1c-0.1,-0.022 -0.213,-0.043 -0.316,-0.065c-0.556,-0.115 -1.12,-0.229 -1.686,-0.342c-0.2,-0.04 -0.4,-0.082 -0.609,-0.122c-0.783,-0.154 -1.576,-0.306 -2.38,-0.456l-0.059,-0.011l-0.476,-0.086c-0.576,-0.106 -1.154,-0.211 -1.74,-0.315c-0.295,-0.052 -0.595,-0.1 -0.893,-0.155c-0.486,-0.085 -0.972,-0.169 -1.464,-0.252l-0.318,-0.054c-0.226,-0.038 -0.456,-0.074 -0.683,-0.111c-0.444,-0.074 -0.89,-0.147 -1.338,-0.218l-1.052,-0.165l-1.317,-0.2c-0.174,-0.025 -0.346,-0.053 -0.52,-0.079c-0.209,-0.032 -0.421,-0.061 -0.63,-0.092c-0.412,-0.061 -0.826,-0.121 -1.243,-0.181c-0.377,-0.055 -0.754,-0.109 -1.135,-0.162l-1.3,-0.18l-0.619,-0.085l-0.58,-0.076l-1.146,-0.15c-0.425,-0.055 -0.852,-0.11 -1.282,-0.164l-1.177,-0.147l-0.632,-0.079l-0.646,-0.075l-1.176,-0.139l-1.277,-0.146c-0.413,-0.047 -0.827,-0.093 -1.242,-0.139l-0.509,-0.057l-0.348,-0.035c-1.385,-0.149 -2.785,-0.293 -4.2,-0.431l-0.22,-0.023l-0.43,-0.039c-1.329,-0.127 -2.668,-0.251 -4.023,-0.368l-0.122,-0.012l-0.038,-0c-1.302,-0.113 -2.618,-0.22 -3.947,-0.322c-0.157,-0.012 -0.31,-0.026 -0.469,-0.038l-0.41,-0.03c-1.161,-0.089 -2.331,-0.173 -3.508,-0.254l-0.063,-0.005l-0.362,-0.023c-0.971,-0.067 -1.948,-0.13 -2.931,-0.189l-0.431,-0.028c-0.226,-0.013 -0.454,-0.025 -0.68,-0.038c-0.749,-0.045 -1.5,-0.088 -2.254,-0.129l-0.613,-0.035c-0.171,-0.01 -0.343,-0.018 -0.516,-0.027l-1.433,-0.074l-0.83,-0.042l-0.623,-0.028l-1.34,-0.062l-0.842,-0.038l-0.694,-0.028c-0.457,-0.019 -0.917,-0.038 -1.375,-0.056c-0.254,-0.01 -0.506,-0.022 -0.761,-0.031c-0.309,-0.012 -0.62,-0.023 -0.93,-0.034l-0.827,-0.03l-0.339,-0.012c-0.676,-0.023 -1.353,-0.045 -2.032,-0.066l-0.142,-0l-0.573,-0.016c-0.443,-0.013 -0.884,-0.027 -1.329,-0.038l-0.788,-0.02l-0.764,-0.019c-0.167,-0 -0.333,-0.009 -0.5,-0.012c-0.649,-0.015 -1.3,-0.029 -1.953,-0.042l-0.125,-0l-0.366,-0.006l-1.1,-0.02l-1.593,-0.025l-0.249,-0c-0.451,-0.007 -0.9,-0.012 -1.354,-0.018l-1.358,-0.014l-0.322,-0l-1.536,-0.012l-1.425,-0.007l-4.527,-0l-1.442,0.008l-0.342,-0l-1.1,0.009l-1.434,0.014l-0.544,-0c-0.322,-0 -0.643,0.004 -0.964,0.012l-1.669,0.025l-0.355,-0l-1.308,0.024l-1.3,0.029l-0.337,0.006l-0.015,-0c-0.551,0.012 -1.101,0.025 -1.649,0.04l-1.031,0.029l-0.3,0.008l-0.31,0.008c-0.8,0.023 -1.596,0.048 -2.387,0.074l-0.082,-0c-0.681,0.022 -1.358,0.048 -2.036,0.073c-0.3,0.012 -0.609,0.021 -0.912,0.033l-0.034,-0c-0.989,0.039 -1.974,0.08 -2.956,0.123l-0.047,-0c-1.763,0.079 -3.511,0.166 -5.244,0.259l-0.268,0.014c-1.674,0.093 -3.333,0.193 -4.977,0.3l-0.319,0.019l-0.268,0.018l-0.987,0.066l-1.188,0.081l-0.471,0.035l-1.017,0.074l-0.931,0.068l-0.658,0.051l-1.071,0.084c-0.222,0.018 -0.446,0.034 -0.667,0.052l-0.977,0.081c-0.255,0.021 -0.51,0.041 -0.764,0.063l-0.378,0.031c-0.56,0.048 -1.118,0.097 -1.675,0.146l-0.233,0.021l-0.424,0.039l-1.006,0.091l-1.083,0.1l-0.416,0.038l-0.151,0.015c-0.547,0.053 -1.093,0.106 -1.636,0.161l-0.475,0.048l-0.506,0.052l-0.648,0.066c-0.547,0.058 -1.091,0.115 -1.633,0.174l-0.035,-0l-1.583,0.174l-0.673,0.078l-0.467,0.053l-0.463,0.053c-0.533,0.063 -1.063,0.126 -1.589,0.189l-0.16,0.02l-0.366,0.045l-1.135,0.139l-0.6,0.078c-0.285,0.035 -0.568,0.072 -0.851,0.109c-0.172,0.022 -0.347,0.043 -0.52,0.066c-0.349,0.045 -0.694,0.092 -1.041,0.139l-0.643,0.086l-0.263,0.035c-0.645,0.089 -1.285,0.178 -1.921,0.269l-0.024,-0l-0.209,0.031c-0.625,0.089 -1.246,0.18 -1.863,0.271l-0.132,0.021c-0.857,0.128 -1.705,0.258 -2.544,0.39l-0.032,-0l-0.245,0.04c-0.739,0.118 -1.472,0.237 -2.2,0.358l-0.206,0.033c-0.132,0.022 -0.26,0.045 -0.393,0.068c-0.8,0.133 -1.594,0.271 -2.382,0.413l-0.446,0.077l-0.386,0.071l-0.782,0.144c-0.416,0.077 -0.832,0.154 -1.244,0.232c-0.264,0.051 -0.527,0.1 -0.789,0.152l-0.519,0.1c-0.185,0.036 -0.365,0.074 -0.549,0.11c-0.394,0.078 -0.785,0.157 -1.174,0.236c-0.32,0.067 -0.638,0.133 -0.955,0.2c-0.379,0.079 -0.755,0.158 -1.129,0.238c-0.181,0.038 -0.366,0.076 -0.547,0.115c-0.126,0.027 -0.248,0.055 -0.373,0.083c-0.48,0.1 -0.954,0.211 -1.425,0.318l-0.738,0.166c-0.583,0.135 -1.157,0.27 -1.726,0.407l-0.336,0.079l-0.043,0.011c-0.714,0.173 -1.415,0.349 -2.106,0.527c-0.2,0.051 -0.393,0.1 -0.59,0.155c-0.504,0.133 -1.002,0.267 -1.493,0.4c-0.107,0.029 -0.22,0.058 -0.327,0.088c-0.107,0.03 -0.226,0.064 -0.342,0.1c-0.433,0.12 -0.862,0.241 -1.285,0.363l-0.653,0.189c-0.494,0.145 -0.979,0.292 -1.458,0.439c-0.1,0.032 -0.212,0.064 -0.315,0.1l-0.056,0.018c-0.573,0.179 -1.136,0.359 -1.689,0.541c-0.14,0.046 -0.274,0.093 -0.412,0.139c-0.407,0.137 -0.811,0.273 -1.206,0.412l-0.154,0.052c-0.162,0.057 -0.316,0.115 -0.476,0.172c-0.3,0.108 -0.6,0.215 -0.893,0.324c-0.2,0.075 -0.4,0.152 -0.6,0.228c-0.289,0.11 -0.576,0.219 -0.857,0.33c-0.081,0.032 -0.167,0.064 -0.247,0.1c-0.123,0.049 -0.239,0.1 -0.362,0.149c-0.242,0.1 -0.483,0.2 -0.72,0.3c-0.206,0.085 -0.408,0.172 -0.609,0.259c-0.225,0.097 -0.448,0.194 -0.668,0.292c-0.1,0.043 -0.2,0.085 -0.291,0.128c-0.091,0.043 -0.208,0.1 -0.313,0.147c-0.195,0.089 -0.387,0.179 -0.576,0.269c-0.2,0.094 -0.389,0.187 -0.58,0.281c-0.191,0.094 -0.375,0.186 -0.558,0.279c-0.085,0.043 -0.174,0.085 -0.258,0.129c-0.084,0.044 -0.186,0.1 -0.282,0.15c-0.173,0.092 -0.345,0.184 -0.514,0.276c-0.169,0.092 -0.344,0.191 -0.513,0.287c-0.169,0.096 -0.322,0.184 -0.478,0.276c-0.068,0.04 -0.141,0.08 -0.209,0.12c-0.1,0.059 -0.189,0.119 -0.286,0.179c-0.14,0.087 -0.281,0.173 -0.417,0.261c-0.161,0.1 -0.316,0.206 -0.47,0.309c-0.129,0.085 -0.257,0.172 -0.382,0.258c-0.044,0.031 -0.092,0.062 -0.136,0.092c-0.107,0.075 -0.2,0.152 -0.309,0.228c-0.109,0.076 -0.232,0.169 -0.345,0.253c-0.142,0.109 -0.276,0.217 -0.411,0.326c-0.1,0.085 -0.212,0.169 -0.312,0.253c-0.021,0.018 -0.045,0.035 -0.065,0.052c-0.115,0.1 -0.22,0.2 -0.329,0.294c-0.087,0.078 -0.179,0.156 -0.262,0.235c-0.144,0.135 -0.279,0.272 -0.412,0.409c-0.058,0.058 -0.121,0.118 -0.177,0.177l-0.007,0.007c-0.181,0.193 -0.352,0.387 -0.512,0.58c-0.046,0.057 -0.086,0.113 -0.131,0.17c-0.1,0.132 -0.209,0.263 -0.3,0.395c-0.008,0.011 -0.013,0.022 -0.022,0.033c-0.054,0.077 -0.1,0.154 -0.151,0.232c-0.081,0.123 -0.162,0.246 -0.235,0.37c-0.049,0.085 -0.092,0.169 -0.137,0.255c-0.045,0.086 -0.1,0.183 -0.148,0.275c-0.012,0.025 -0.02,0.052 -0.032,0.077c-0.044,0.095 -0.081,0.19 -0.12,0.285c-0.045,0.112 -0.092,0.222 -0.13,0.334c-0.038,0.112 -0.059,0.193 -0.088,0.29c-0.022,0.077 -0.051,0.153 -0.07,0.231c-0.006,0.027 -0.007,0.054 -0.013,0.081c-0.059,0.25 -0.101,0.504 -0.125,0.76c-0.011,0.138 -0.017,0.275 -0.018,0.411c-0,0.055 0.008,0.11 0.009,0.165c-0,0.1 0.008,0.2 0.016,0.295c0.011,0.129 0.027,0.259 0.047,0.389c0.015,0.1 0.032,0.194 0.052,0.292c0.011,0.051 0.015,0.1 0.028,0.152c0.022,0.094 0.055,0.188 0.082,0.281c0.02,0.067 0.037,0.133 0.06,0.2c0.071,0.217 0.154,0.43 0.249,0.638c9.2,20.048 18.4,40.095 27.6,60.14c0.022,0.048 0.051,0.1 0.074,0.144c0.034,0.068 0.068,0.136 0.106,0.2c0.038,0.064 0.06,0.11 0.093,0.165c0.033,0.055 0.052,0.085 0.078,0.128c0.026,0.043 0.07,0.112 0.107,0.167c0.049,0.075 0.1,0.149 0.156,0.222c0.032,0.045 0.062,0.089 0.1,0.132c0.038,0.043 0.052,0.069 0.079,0.1c0.071,0.091 0.148,0.182 0.226,0.272c0.029,0.034 0.055,0.069 0.086,0.1l0.032,0.039c0.012,0.015 0.026,0.028 0.038,0.041c0.088,0.1 0.182,0.192 0.276,0.286c0.053,0.055 0.1,0.109 0.159,0.163l0.042,0.042c0.028,0.027 0.058,0.053 0.088,0.079c0.079,0.075 0.161,0.149 0.244,0.224c0.038,0.034 0.072,0.067 0.11,0.1c0.038,0.033 0.075,0.062 0.111,0.092l0.192,0.159c0.079,0.064 0.152,0.129 0.233,0.192c0.044,0.035 0.092,0.068 0.136,0.1l0.064,0.048c0.071,0.055 0.142,0.109 0.216,0.163c0.056,0.042 0.111,0.083 0.169,0.124c0.075,0.054 0.155,0.107 0.232,0.16l0.126,0.088c0.056,0.037 0.109,0.075 0.166,0.114l0.109,0.072c0.089,0.058 0.184,0.117 0.277,0.175c0.119,0.077 0.237,0.153 0.362,0.228l0.079,0.048c0.089,0.054 0.183,0.107 0.274,0.16c0.139,0.081 0.276,0.162 0.419,0.242c0.047,0.027 0.091,0.054 0.138,0.079c0.047,0.025 0.118,0.062 0.176,0.095l0.022,0.011c0.146,0.078 0.292,0.159 0.443,0.237l0.256,0.132l0.2,0.1c0.121,0.061 0.244,0.121 0.367,0.182l0.38,0.183l0.047,0.023l0.149,0.072l0.291,0.132c0.133,0.062 0.267,0.122 0.4,0.183c0.1,0.044 0.2,0.09 0.3,0.135l0.248,0.105l0.379,0.162l0.439,0.182l0.277,0.113l0.258,0.1c0.192,0.075 0.388,0.151 0.584,0.226c0.038,0.015 0.076,0.031 0.116,0.044c0.062,0.025 0.122,0.049 0.185,0.072c0.045,0.018 0.091,0.034 0.135,0.052c0.208,0.077 0.421,0.155 0.634,0.231l0.425,0.155l0.074,0.027l0.008,0c0.215,0.075 0.436,0.151 0.656,0.226c0.122,0.041 0.24,0.084 0.364,0.125c0.066,0.022 0.134,0.043 0.2,0.067l0.406,0.132c0.177,0.058 0.35,0.117 0.531,0.174l0.2,0.062l0.168,0.052l0.46,0.144c0.121,0.037 0.239,0.075 0.36,0.111c0.146,0.045 0.3,0.089 0.443,0.132l0.155,0.046l0.4,0.12l0.227,0.066l0.519,0.148c0.211,0.059 0.42,0.12 0.634,0.179l0.142,0.038l0.538,0.145c0.242,0.065 0.484,0.131 0.73,0.195c0.068,0.019 0.135,0.038 0.205,0.055l0.2,0.052l0.193,0.048c0.245,0.063 0.491,0.126 0.74,0.189l0.395,0.1l0.37,0.091l0.612,0.148l0.6,0.143l0.339,0.08l0.479,0.109l0.657,0.149l0.433,0.1l0.4,0.087l0.635,0.138l0.606,0.129l0.458,0.1l0.438,0.089c0.275,0.055 0.553,0.112 0.831,0.167l0.466,0.093l0.236,0.046l0.9,0.172l0.615,0.117l0.146,0.028l0.882,0.159l0.632,0.114l0.22,0.038c0.206,0.037 0.416,0.072 0.624,0.109l0.419,0.072l0.367,0.064l0.422,0.069c0.239,0.041 0.478,0.08 0.717,0.119c0.172,0.028 0.342,0.058 0.516,0.085c0.2,0.032 0.4,0.063 0.6,0.094l0.092,0.015l0.688,0.109l0.319,0.049c0.237,0.037 0.479,0.072 0.718,0.108l0.585,0.089l0.446,0.066l0.763,0.11l0.954,0.135l0.492,0.069l0.338,0.045l0.988,0.134l0.43,0.057l0.182,0.024c0.115,0.016 0.233,0.029 0.349,0.044c0.285,0.038 0.57,0.075 0.857,0.11l0.84,0.1c0.072,0.009 0.143,0.019 0.216,0.027l0.29,0.036l0.5,0.06l0.86,0.1l0.864,0.1l0.443,0.05l0.584,0.065l1.033,0.111c0.235,0.025 0.468,0.052 0.7,0.075l0.276,0.028l0.974,0.1l0.859,0.085l0.514,0.051l0.141,0.013l0.161,0.015l0.32,0.03l0.823,0.078l1.2,0.107c0.263,0.022 0.526,0.048 0.791,0.069c0.322,0.029 0.647,0.054 0.971,0.082c0.145,0.012 0.289,0.025 0.435,0.035l0.6,0.051c0.671,0.053 1.346,0.105 2.024,0.156l0.548,0.039l1.157,0.083l0.08,0.006l0.041,0l0.229,0.016c0.269,0.019 0.54,0.036 0.81,0.054l1.276,0.084l0.874,0.054l1.073,0.065l0.158,0.009l0.916,0.051c0.4,0.023 0.8,0.045 1.208,0.066c0.316,0.018 0.634,0.032 0.952,0.049l1.14,0.055c0.04,0 0.079,0.005 0.119,0.006l0.078,0l0.828,0.038c0.4,0.017 0.791,0.035 1.188,0.052c0.333,0.015 0.665,0.028 0.994,0.041l1.186,0.045l0.279,0.011l0.727,0.025c0.4,0.015 0.811,0.027 1.218,0.04l0.987,0.03l1.255,0.035l0.068,0c0.062,0 0.123,0 0.186,0.006l0.092,0l0.623,0.015c0.429,0.011 0.859,0.019 1.29,0.028l0.957,0.021l1.334,0.022l0.34,0.005l0.225,0l0.362,0.005l1.505,0.018c0.253,0 0.506,0.006 0.759,0.008c0.704,0.007 1.411,0.011 2.12,0.013l3.197,0c0.529,0 1.058,-0.002 1.586,-0.007c0.249,0 0.5,0 0.746,-0.006l0.425,0l1.115,-0.011c0.312,0 0.621,-0.009 0.932,-0.012l1.345,-0.021l0.932,-0.017c0.281,-0.005 0.563,-0.01 0.844,-0.017l0.145,0l0.344,-0.008c0.31,-0.006 0.62,-0.015 0.931,-0.022c0.439,-0.011 0.876,-0.022 1.313,-0.034c0.267,-0.007 0.534,-0.015 0.8,-0.024l0.529,-0.015l0.883,-0.028c0.326,-0.01 0.653,-0.022 0.979,-0.033c0.412,-0.015 0.822,-0.029 1.233,-0.045l0.241,-0.008l0.14,0l0.584,-0.024l1.231,-0.051l0.954,-0.043l0.767,-0.035l0.267,-0.013l0.189,-0.01c0.315,-0.015 0.63,-0.03 0.944,-0.047c0.4,-0.02 0.81,-0.042 1.211,-0.063c0.285,-0.015 0.569,-0.03 0.853,-0.047l0.192,-0.009l0.175,-0.011c0.3,-0.017 0.609,-0.036 0.914,-0.054l0.917,-0.055l0.373,-0.023l0.824,-0.053l0.924,-0.061l0.458,-0.03c0.143,-0.01 0.285,-0.022 0.428,-0.03l0.288,-0.022l0.906,-0.064l0.536,-0.038l0.693,-0.054l0.827,-0.062l0.622,-0.05l0.73,-0.058l0.682,-0.058l0.7,-0.06l0.767,-0.067l0.54,-0.048c0.265,-0.023 0.528,-0.048 0.792,-0.072l0.793,-0.075l0.4,-0.037l0.874,-0.087l0.824,-0.081c0.087,-0.01 0.176,-0.018 0.264,-0.026l1.005,-0.106l0.771,-0.081l0.171,-0.018l0.036,0c0.426,-0.045 0.847,-0.092 1.27,-0.14l0.514,-0.058l0.088,-0.01l0.61,-0.072c0.41,-0.048 0.821,-0.1 1.227,-0.145l0.134,-0.015l0.662,-0.082l1.1,-0.137l0.167,-0.022c0.234,-0.029 0.463,-0.061 0.695,-0.092c0.324,-0.041 0.648,-0.084 0.968,-0.127l0.268,-0.035l0.691,-0.1c0.277,-0.038 0.553,-0.076 0.827,-0.115l0.385,-0.054c0.22,-0.031 0.439,-0.064 0.657,-0.1c0.242,-0.035 0.486,-0.07 0.726,-0.106l0.48,-0.072l1.25,-0.2l0.585,-0.092l0.571,-0.091l0.553,-0.091c0.226,-0.037 0.453,-0.074 0.677,-0.112l0.38,-0.062l0.1,-0.017l0.511,-0.089c0.267,-0.045 0.529,-0.09 0.787,-0.137l0.85,-0.151l0.521,-0.094l0.277,-0.052l0.811,-0.151c0.253,-0.048 0.506,-0.1 0.757,-0.145l0.788,-0.155c0.1,-0.019 0.207,-0.04 0.309,-0.061l0.461,-0.092l0.8,-0.166l0.717,-0.149l0.462,-0.1c0.1,-0.024 0.2,-0.046 0.309,-0.068l0.018,0l0.7,-0.153l0.767,-0.174l0.68,-0.155c0.257,-0.06 0.512,-0.12 0.763,-0.181l0.652,-0.156l0.371,-0.092c0.145,-0.035 0.288,-0.072 0.432,-0.108l0.573,-0.145c0.2,-0.05 0.393,-0.1 0.59,-0.153l0.435,-0.114l0.314,-0.084c0.272,-0.072 0.539,-0.147 0.807,-0.22l0.2,-0.055c0.067,-0.019 0.138,-0.037 0.2,-0.055l0.089,-0.025c0.422,-0.119 0.837,-0.239 1.246,-0.36l0.144,-0.044l0.078,-0.022l0.308,-0.094c0.232,-0.071 0.464,-0.14 0.69,-0.212l0.222,-0.07l0.413,-0.132c0.18,-0.058 0.363,-0.115 0.54,-0.174c0.1,-0.032 0.2,-0.065 0.3,-0.1c0.138,-0.047 0.275,-0.092 0.411,-0.14c0.136,-0.048 0.286,-0.1 0.427,-0.144l0.365,-0.129c0.133,-0.045 0.263,-0.092 0.389,-0.139c0.112,-0.04 0.227,-0.08 0.337,-0.121c0.149,-0.054 0.292,-0.109 0.437,-0.162c0.08,-0.031 0.166,-0.06 0.246,-0.09l0.1,-0.042l0.262,-0.1l0.436,-0.172l0.332,-0.131l0.239,-0.1c0.152,-0.062 0.3,-0.124 0.449,-0.187c0.1,-0.041 0.2,-0.082 0.3,-0.124l0.219,-0.1c0.146,-0.063 0.287,-0.126 0.429,-0.19c0.083,-0.037 0.17,-0.073 0.252,-0.111l0.037,-0.017l0.2,-0.092l0.409,-0.194c0.1,-0.045 0.195,-0.09 0.288,-0.136l0.022,-0.01l0.163,-0.083c0.127,-0.062 0.252,-0.126 0.376,-0.189c0.093,-0.047 0.188,-0.094 0.279,-0.142l0.194,-0.1c0.112,-0.058 0.222,-0.118 0.33,-0.178c0.091,-0.049 0.182,-0.1 0.272,-0.149c0.066,-0.038 0.13,-0.075 0.2,-0.112l0.289,-0.168l0.264,-0.159c0.065,-0.039 0.129,-0.079 0.192,-0.119c0.085,-0.052 0.168,-0.1 0.251,-0.157c0.083,-0.057 0.172,-0.11 0.256,-0.166c0.031,-0.021 0.065,-0.04 0.1,-0.062l0.089,-0.063c0.073,-0.048 0.145,-0.1 0.215,-0.147l0.266,-0.189c0.063,-0.046 0.127,-0.091 0.189,-0.138c0.062,-0.047 0.1,-0.076 0.154,-0.115c0.094,-0.072 0.182,-0.143 0.271,-0.214c0.062,-0.049 0.126,-0.1 0.185,-0.148l0.1,-0.085c0.1,-0.082 0.186,-0.162 0.277,-0.246c0.055,-0.048 0.115,-0.1 0.171,-0.149c0.02,-0.018 0.039,-0.038 0.059,-0.056c0.1,-0.092 0.187,-0.183 0.278,-0.276l0.058,-0.058c0.029,-0.03 0.063,-0.06 0.092,-0.09l0.028,-0.03c0.09,-0.1 0.172,-0.193 0.256,-0.289c0.042,-0.048 0.089,-0.1 0.13,-0.146c0.006,-0.008 0.012,-0.016 0.018,-0.023c0.081,-0.1 0.155,-0.2 0.229,-0.3c0.036,-0.048 0.076,-0.1 0.109,-0.145c0.004,-0.005 0.008,-0.01 0.012,-0.016c0.078,-0.111 0.146,-0.222 0.214,-0.334c0.025,-0.04 0.052,-0.078 0.075,-0.119l0.01,-0.016c0.015,-0.027 0.026,-0.054 0.042,-0.082c0.068,-0.123 0.135,-0.246 0.192,-0.37l27.6,-60.141c0.289,-0.615 0.468,-1.276 0.529,-1.952c0.026,-0.234 0.036,-0.47 0.031,-0.705Z" style="fill:url(#_Linear1);fill-rule:nonzero;"/></g><g id="Grupo_25557"><path id="Trazado_24696" d="M243.838,47.979c-1.152,13.71 -55.54,24.63 -121.48,24.39c-65.94,-0.24 -118.462,-11.547 -117.31,-25.257c1.152,-13.71 55.54,-24.629 121.48,-24.39c65.94,0.239 118.461,11.548 117.31,25.257Z" style="fill:url(#_Linear2);fill-rule:nonzero;"/></g></g></g><g id="Grupo_25562" opacity="0.5"><g id="Grupo_25561"><g><path id="Trazado_24697-2" d="M243.434,47.258c-0,-0.075 -0.015,-0.15 -0.022,-0.225c-0.016,-0.165 -0.036,-0.329 -0.068,-0.493c-0.016,-0.085 -0.036,-0.17 -0.056,-0.256c-0.037,-0.156 -0.082,-0.312 -0.132,-0.466c-0.028,-0.084 -0.055,-0.167 -0.085,-0.25c-0.065,-0.169 -0.14,-0.339 -0.221,-0.508c-0.032,-0.065 -0.057,-0.13 -0.091,-0.195c-0.121,-0.24 -0.255,-0.474 -0.4,-0.7c-0.023,-0.035 -0.052,-0.071 -0.076,-0.107c-0.132,-0.195 -0.272,-0.389 -0.425,-0.582c-0.06,-0.075 -0.126,-0.151 -0.189,-0.226c-0.13,-0.155 -0.263,-0.308 -0.406,-0.462c-0.077,-0.082 -0.155,-0.165 -0.237,-0.246c-0.148,-0.151 -0.3,-0.3 -0.464,-0.449c-0.083,-0.078 -0.165,-0.155 -0.251,-0.232c-0.195,-0.173 -0.4,-0.346 -0.613,-0.518c-0.062,-0.05 -0.119,-0.1 -0.182,-0.15c-0.282,-0.221 -0.577,-0.441 -0.885,-0.66c-0.075,-0.052 -0.153,-0.1 -0.229,-0.155c-0.24,-0.167 -0.487,-0.333 -0.745,-0.5c-0.117,-0.075 -0.239,-0.149 -0.357,-0.224c-0.232,-0.143 -0.467,-0.286 -0.71,-0.428c-0.133,-0.078 -0.267,-0.155 -0.4,-0.232c-0.254,-0.145 -0.516,-0.287 -0.782,-0.43c-0.129,-0.069 -0.256,-0.139 -0.389,-0.209c-0.347,-0.18 -0.703,-0.36 -1.07,-0.539c-0.058,-0.028 -0.113,-0.058 -0.172,-0.086c-0.429,-0.207 -0.871,-0.413 -1.327,-0.616l-0.4,-0.175c-0.333,-0.145 -0.67,-0.29 -1.009,-0.434c-0.068,-0.028 -0.132,-0.058 -0.2,-0.086c-0.122,-0.05 -0.251,-0.1 -0.374,-0.15c-0.256,-0.1 -0.514,-0.209 -0.777,-0.312c-0.207,-0.082 -0.419,-0.164 -0.63,-0.245c-0.267,-0.101 -0.536,-0.201 -0.808,-0.3l-0.66,-0.242c-0.28,-0.101 -0.563,-0.201 -0.848,-0.3c-0.225,-0.079 -0.451,-0.157 -0.68,-0.235c-0.297,-0.101 -0.597,-0.201 -0.9,-0.3c-0.152,-0.05 -0.3,-0.1 -0.454,-0.152c-0.091,-0.03 -0.187,-0.059 -0.278,-0.089c-0.189,-0.062 -0.381,-0.122 -0.571,-0.182c-0.31,-0.1 -0.62,-0.194 -0.934,-0.29l-0.582,-0.177c-0.333,-0.1 -0.671,-0.2 -1.011,-0.3c-0.181,-0.053 -0.36,-0.106 -0.543,-0.158c-0.389,-0.112 -0.785,-0.223 -1.184,-0.333l-0.425,-0.118l-0.084,-0.024l-0.226,-0.058c-0.667,-0.182 -1.349,-0.361 -2.04,-0.538l-0.64,-0.162c-0.783,-0.2 -1.574,-0.393 -2.386,-0.585l-0.023,-0.006l-0.165,-0.038c-0.688,-0.162 -1.39,-0.322 -2.1,-0.481c-0.244,-0.055 -0.491,-0.108 -0.737,-0.163c-0.557,-0.121 -1.12,-0.242 -1.688,-0.363l-0.466,-0.1c-0.1,-0.022 -0.213,-0.043 -0.316,-0.065c-0.556,-0.115 -1.12,-0.229 -1.686,-0.342c-0.2,-0.04 -0.4,-0.082 -0.609,-0.122c-0.783,-0.154 -1.576,-0.306 -2.38,-0.456l-0.059,-0.011l-0.476,-0.086c-0.576,-0.106 -1.154,-0.211 -1.74,-0.315c-0.295,-0.052 -0.595,-0.1 -0.893,-0.155c-0.486,-0.085 -0.972,-0.169 -1.464,-0.252l-0.318,-0.054c-0.226,-0.038 -0.456,-0.074 -0.683,-0.111c-0.444,-0.074 -0.89,-0.147 -1.338,-0.218l-1.052,-0.165l-1.317,-0.2c-0.174,-0.025 -0.346,-0.053 -0.52,-0.079c-0.209,-0.032 -0.421,-0.061 -0.63,-0.092c-0.412,-0.061 -0.826,-0.121 -1.243,-0.181c-0.377,-0.055 -0.754,-0.109 -1.135,-0.162l-1.3,-0.18l-0.619,-0.085l-0.58,-0.076l-1.146,-0.15c-0.425,-0.055 -0.852,-0.11 -1.282,-0.164l-1.177,-0.147l-0.632,-0.079l-0.646,-0.075l-1.176,-0.139l-1.277,-0.146c-0.413,-0.047 -0.827,-0.093 -1.242,-0.139l-0.509,-0.057l-0.348,-0.035c-1.385,-0.149 -2.785,-0.293 -4.2,-0.431l-0.22,-0.023l-0.43,-0.039c-1.329,-0.127 -2.668,-0.251 -4.023,-0.368l-0.122,-0.012l-0.038,-0c-1.302,-0.113 -2.618,-0.22 -3.947,-0.322c-0.157,-0.012 -0.31,-0.026 -0.469,-0.038l-0.41,-0.03c-1.161,-0.089 -2.331,-0.173 -3.508,-0.254l-0.063,-0.005l-0.362,-0.023c-0.971,-0.067 -1.948,-0.13 -2.931,-0.189l-0.431,-0.028c-0.226,-0.013 -0.454,-0.025 -0.68,-0.038c-0.749,-0.045 -1.5,-0.088 -2.254,-0.129l-0.613,-0.035c-0.171,-0.01 -0.343,-0.018 -0.516,-0.027l-1.433,-0.074l-0.83,-0.042l-0.623,-0.028l-1.34,-0.062l-0.842,-0.038l-0.694,-0.028c-0.457,-0.019 -0.917,-0.038 -1.375,-0.056c-0.254,-0.01 -0.506,-0.022 -0.761,-0.031c-0.309,-0.012 -0.62,-0.023 -0.93,-0.034l-0.827,-0.03l-0.339,-0.012c-0.676,-0.023 -1.353,-0.045 -2.032,-0.066l-0.142,-0l-0.573,-0.016c-0.443,-0.013 -0.884,-0.027 -1.329,-0.038l-0.788,-0.02l-0.764,-0.019c-0.167,-0 -0.333,-0.009 -0.5,-0.012c-0.649,-0.015 -1.3,-0.029 -1.953,-0.042l-0.125,-0l-0.366,-0.006l-1.1,-0.02l-1.593,-0.025l-0.249,-0c-0.451,-0.007 -0.9,-0.012 -1.354,-0.018l-1.358,-0.014l-0.322,-0l-1.536,-0.012l-1.425,-0.007l-4.527,-0l-1.442,0.008l-0.342,-0l-1.1,0.009l-1.434,0.014l-0.544,-0c-0.322,-0 -0.643,0.004 -0.964,0.012l-1.669,0.025l-0.355,-0l-1.308,0.024l-1.3,0.029l-0.337,0.006l-0.015,-0c-0.551,0.012 -1.101,0.025 -1.649,0.04l-1.031,0.029l-0.3,0.008l-0.31,0.008c-0.8,0.023 -1.596,0.048 -2.387,0.074l-0.082,-0c-0.681,0.022 -1.358,0.048 -2.036,0.073c-0.3,0.012 -0.609,0.021 -0.912,0.033l-0.034,-0c-0.989,0.039 -1.974,0.08 -2.956,0.123l-0.047,-0c-1.763,0.079 -3.511,0.166 -5.244,0.259l-0.268,0.014c-1.674,0.093 -3.333,0.193 -4.977,0.3l-0.319,0.019l-0.268,0.018l-0.987,0.066l-1.188,0.081l-0.471,0.035l-1.017,0.074l-0.931,0.068l-0.658,0.051l-1.071,0.084c-0.222,0.018 -0.446,0.034 -0.667,0.052l-0.977,0.081c-0.255,0.021 -0.51,0.041 -0.764,0.063l-0.378,0.031c-0.56,0.048 -1.118,0.097 -1.675,0.146l-0.233,0.021l-0.424,0.039l-1.006,0.091l-1.083,0.1l-0.416,0.038l-0.151,0.015c-0.547,0.053 -1.093,0.106 -1.636,0.161l-0.475,0.048l-0.506,0.052l-0.648,0.066c-0.547,0.058 -1.091,0.115 -1.633,0.174l-0.035,-0l-1.583,0.174l-0.673,0.078l-0.467,0.053l-0.463,0.053c-0.533,0.063 -1.063,0.126 -1.589,0.189l-0.16,0.02l-0.366,0.045l-1.135,0.139l-0.6,0.078c-0.285,0.035 -0.568,0.072 -0.851,0.109c-0.172,0.022 -0.347,0.043 -0.52,0.066c-0.349,0.045 -0.694,0.092 -1.041,0.139l-0.643,0.086l-0.263,0.035c-0.645,0.089 -1.285,0.178 -1.921,0.269l-0.024,-0l-0.209,0.031c-0.625,0.089 -1.246,0.18 -1.863,0.271l-0.132,0.021c-0.857,0.128 -1.705,0.258 -2.544,0.39l-0.032,-0l-0.245,0.04c-0.739,0.118 -1.472,0.237 -2.2,0.358l-0.206,0.033c-0.132,0.022 -0.26,0.045 -0.393,0.068c-0.8,0.133 -1.594,0.271 -2.382,0.413l-0.446,0.077l-0.386,0.071l-0.782,0.144c-0.416,0.077 -0.832,0.154 -1.244,0.232c-0.264,0.051 -0.527,0.1 -0.789,0.152l-0.519,0.1c-0.185,0.036 -0.365,0.074 -0.549,0.11c-0.394,0.078 -0.785,0.157 -1.174,0.236c-0.32,0.067 -0.638,0.133 -0.955,0.2c-0.379,0.079 -0.755,0.158 -1.129,0.238c-0.181,0.038 -0.366,0.076 -0.547,0.115c-0.126,0.027 -0.248,0.055 -0.373,0.083c-0.48,0.1 -0.954,0.211 -1.425,0.318l-0.738,0.166c-0.583,0.135 -1.157,0.27 -1.726,0.407l-0.336,0.079l-0.043,0.011c-0.714,0.173 -1.415,0.349 -2.106,0.527c-0.2,0.051 -0.393,0.1 -0.59,0.155c-0.504,0.133 -1.002,0.267 -1.493,0.4c-0.107,0.029 -0.22,0.058 -0.327,0.088c-0.107,0.03 -0.226,0.064 -0.342,0.1c-0.433,0.12 -0.862,0.241 -1.285,0.363l-0.653,0.189c-0.494,0.145 -0.979,0.292 -1.458,0.439c-0.1,0.032 -0.212,0.064 -0.315,0.1l-0.056,0.018c-0.573,0.179 -1.136,0.359 -1.689,0.541c-0.14,0.046 -0.274,0.093 -0.412,0.139c-0.407,0.137 -0.811,0.273 -1.206,0.412l-0.154,0.052c-0.162,0.057 -0.316,0.115 -0.476,0.172c-0.3,0.108 -0.6,0.215 -0.893,0.324c-0.2,0.075 -0.4,0.152 -0.6,0.228c-0.289,0.11 -0.576,0.219 -0.857,0.33c-0.081,0.032 -0.167,0.064 -0.247,0.1c-0.123,0.049 -0.239,0.1 -0.362,0.149c-0.242,0.1 -0.483,0.2 -0.72,0.3c-0.206,0.085 -0.408,0.172 -0.609,0.259c-0.225,0.097 -0.448,0.194 -0.668,0.292c-0.1,0.043 -0.2,0.085 -0.291,0.128c-0.091,0.043 -0.208,0.1 -0.313,0.147c-0.195,0.089 -0.387,0.179 -0.576,0.269c-0.2,0.094 -0.389,0.187 -0.58,0.281c-0.191,0.094 -0.375,0.186 -0.558,0.279c-0.085,0.043 -0.174,0.085 -0.258,0.129c-0.084,0.044 -0.186,0.1 -0.282,0.15c-0.173,0.092 -0.345,0.184 -0.514,0.276c-0.169,0.092 -0.344,0.191 -0.513,0.287c-0.169,0.096 -0.322,0.184 -0.478,0.276c-0.068,0.04 -0.141,0.08 -0.209,0.12c-0.1,0.059 -0.189,0.119 -0.286,0.179c-0.14,0.087 -0.281,0.173 -0.417,0.261c-0.161,0.1 -0.316,0.206 -0.47,0.309c-0.129,0.085 -0.257,0.172 -0.382,0.258c-0.044,0.031 -0.092,0.062 -0.136,0.092c-0.107,0.075 -0.2,0.152 -0.309,0.228c-0.109,0.076 -0.232,0.169 -0.345,0.253c-0.142,0.109 -0.276,0.217 -0.411,0.326c-0.1,0.085 -0.212,0.169 -0.312,0.253c-0.021,0.018 -0.045,0.035 -0.065,0.052c-0.115,0.1 -0.22,0.2 -0.329,0.294c-0.087,0.078 -0.179,0.156 -0.262,0.235c-0.144,0.135 -0.279,0.272 -0.412,0.409c-0.058,0.058 -0.121,0.118 -0.177,0.177l-0.007,0.007c-0.181,0.193 -0.352,0.387 -0.512,0.58c-0.046,0.057 -0.086,0.113 -0.131,0.17c-0.1,0.132 -0.209,0.263 -0.3,0.395c-0.008,0.011 -0.013,0.022 -0.022,0.033c-0.054,0.077 -0.1,0.154 -0.151,0.232c-0.081,0.123 -0.162,0.246 -0.235,0.37c-0.049,0.085 -0.092,0.169 -0.137,0.255c-0.045,0.086 -0.1,0.183 -0.148,0.275c-0.012,0.025 -0.02,0.052 -0.032,0.077c-0.044,0.095 -0.081,0.19 -0.12,0.285c-0.045,0.112 -0.092,0.222 -0.13,0.334c-0.038,0.112 -0.059,0.193 -0.088,0.29c-0.022,0.077 -0.051,0.153 -0.07,0.231c-0.006,0.027 -0.007,0.054 -0.013,0.081c-0.059,0.25 -0.101,0.504 -0.125,0.76c-0.011,0.138 -0.017,0.275 -0.018,0.411c-0,0.055 0.008,0.11 0.009,0.165c-0,0.1 0.008,0.2 0.016,0.295c0.011,0.129 0.027,0.259 0.047,0.389c0.015,0.1 0.032,0.194 0.052,0.292c0.011,0.051 0.015,0.1 0.028,0.152c0.022,0.094 0.055,0.188 0.082,0.281c0.02,0.067 0.037,0.133 0.06,0.2c0.071,0.217 0.154,0.43 0.249,0.638c9.2,20.048 18.4,40.095 27.6,60.14c0.022,0.048 0.051,0.1 0.074,0.144c0.034,0.068 0.068,0.136 0.106,0.2c0.038,0.064 0.06,0.11 0.093,0.165c0.033,0.055 0.052,0.085 0.078,0.128c0.026,0.043 0.07,0.112 0.107,0.167c0.049,0.075 0.1,0.149 0.156,0.222c0.032,0.045 0.062,0.089 0.1,0.132c0.038,0.043 0.052,0.069 0.079,0.1c0.071,0.091 0.148,0.182 0.226,0.272c0.029,0.034 0.055,0.069 0.086,0.1l0.032,0.039c0.012,0.015 0.026,0.028 0.038,0.041c0.088,0.1 0.182,0.192 0.276,0.286c0.053,0.055 0.1,0.109 0.159,0.163l0.042,0.042c0.028,0.027 0.058,0.053 0.088,0.079c0.079,0.075 0.161,0.149 0.244,0.224c0.038,0.034 0.072,0.067 0.11,0.1c0.038,0.033 0.075,0.062 0.111,0.092l0.192,0.159c0.079,0.064 0.152,0.129 0.233,0.192c0.044,0.035 0.092,0.068 0.136,0.1l0.064,0.048c0.071,0.055 0.142,0.109 0.216,0.163c0.056,0.042 0.111,0.083 0.169,0.124c0.075,0.054 0.155,0.107 0.232,0.16l0.126,0.088c0.056,0.037 0.109,0.075 0.166,0.114l0.109,0.072c0.089,0.058 0.184,0.117 0.277,0.175c0.119,0.077 0.237,0.153 0.362,0.228l0.079,0.048c0.089,0.054 0.183,0.107 0.274,0.16c0.139,0.081 0.276,0.162 0.419,0.242c0.047,0.027 0.091,0.054 0.138,0.079c0.047,0.025 0.118,0.062 0.176,0.095l0.022,0.011c0.146,0.078 0.292,0.159 0.443,0.237l0.256,0.132l0.2,0.1c0.121,0.061 0.244,0.121 0.367,0.182l0.38,0.183l0.047,0.023l0.149,0.072l0.291,0.132c0.133,0.062 0.267,0.122 0.4,0.183c0.1,0.044 0.2,0.09 0.3,0.135l0.248,0.105l0.379,0.162l0.439,0.182l0.277,0.113l0.258,0.1c0.192,0.075 0.388,0.151 0.584,0.226c0.038,0.015 0.076,0.031 0.116,0.044c0.062,0.025 0.122,0.049 0.185,0.072c0.045,0.018 0.091,0.034 0.135,0.052c0.208,0.077 0.421,0.155 0.634,0.231l0.425,0.155l0.074,0.027l0.008,0c0.215,0.075 0.436,0.151 0.656,0.226c0.122,0.041 0.24,0.084 0.364,0.125c0.066,0.022 0.134,0.043 0.2,0.067l0.406,0.132c0.177,0.058 0.35,0.117 0.531,0.174l0.2,0.062l0.168,0.052l0.46,0.144c0.121,0.037 0.239,0.075 0.36,0.111c0.146,0.045 0.3,0.089 0.443,0.132l0.155,0.046l0.4,0.12l0.227,0.066l0.519,0.148c0.211,0.059 0.42,0.12 0.634,0.179l0.142,0.038l0.538,0.145c0.242,0.065 0.484,0.131 0.73,0.195c0.068,0.019 0.135,0.038 0.205,0.055l0.2,0.052l0.193,0.048c0.245,0.063 0.491,0.126 0.74,0.189l0.395,0.1l0.37,0.091l0.612,0.148l0.6,0.143l0.339,0.08l0.479,0.109l0.657,0.149l0.433,0.1l0.4,0.087l0.635,0.138l0.606,0.129l0.458,0.1l0.438,0.089c0.275,0.055 0.553,0.112 0.831,0.167l0.466,0.093l0.236,0.046l0.9,0.172l0.615,0.117l0.146,0.028l0.882,0.159l0.632,0.114l0.22,0.038c0.206,0.037 0.416,0.072 0.624,0.109l0.419,0.072l0.367,0.064l0.422,0.069c0.239,0.041 0.478,0.08 0.717,0.119c0.172,0.028 0.342,0.058 0.516,0.085c0.2,0.032 0.4,0.063 0.6,0.094l0.092,0.015l0.688,0.109l0.319,0.049c0.237,0.037 0.479,0.072 0.718,0.108l0.585,0.089l0.446,0.066l0.763,0.11l0.954,0.135l0.492,0.069l0.338,0.045l0.988,0.134l0.43,0.057l0.182,0.024c0.115,0.016 0.233,0.029 0.349,0.044c0.285,0.038 0.57,0.075 0.857,0.11l0.84,0.1c0.072,0.009 0.143,0.019 0.216,0.027l0.29,0.036l0.5,0.06l0.86,0.1l0.864,0.1l0.443,0.05l0.584,0.065l1.033,0.111c0.235,0.025 0.468,0.052 0.7,0.075l0.276,0.028l0.974,0.1l0.859,0.085l0.514,0.051l0.141,0.013l0.161,0.015l0.32,0.03l0.823,0.078l1.2,0.107c0.263,0.022 0.526,0.048 0.791,0.069c0.322,0.029 0.647,0.054 0.971,0.082c0.145,0.012 0.289,0.025 0.435,0.035l0.6,0.051c0.671,0.053 1.346,0.105 2.024,0.156l0.548,0.039l1.157,0.083l0.08,0.006l0.041,0l0.229,0.016c0.269,0.019 0.54,0.036 0.81,0.054l1.276,0.084l0.874,0.054l1.073,0.065l0.158,0.009l0.916,0.051c0.4,0.023 0.8,0.045 1.208,0.066c0.316,0.018 0.634,0.032 0.952,0.049l1.14,0.055c0.04,0 0.079,0.005 0.119,0.006l0.078,0l0.828,0.038c0.4,0.017 0.791,0.035 1.188,0.052c0.333,0.015 0.665,0.028 0.994,0.041l1.186,0.045l0.279,0.011l0.727,0.025c0.4,0.015 0.811,0.027 1.218,0.04l0.987,0.03l1.255,0.035l0.068,0c0.062,0 0.123,0 0.186,0.006l0.092,0l0.623,0.015c0.429,0.011 0.859,0.019 1.29,0.028l0.957,0.021l1.334,0.022l0.34,0.005l0.225,0l0.362,0.005l1.505,0.018c0.253,0 0.506,0.006 0.759,0.008c0.704,0.007 1.411,0.011 2.12,0.013l3.197,0c0.529,0 1.058,-0.002 1.586,-0.007c0.249,0 0.5,0 0.746,-0.006l0.425,0l1.115,-0.011c0.312,0 0.621,-0.009 0.932,-0.012l1.345,-0.021l0.932,-0.017c0.281,-0.005 0.563,-0.01 0.844,-0.017l0.145,0l0.344,-0.008c0.31,-0.006 0.62,-0.015 0.931,-0.022c0.439,-0.011 0.876,-0.022 1.313,-0.034c0.267,-0.007 0.534,-0.015 0.8,-0.024l0.529,-0.015l0.883,-0.028c0.326,-0.01 0.653,-0.022 0.979,-0.033c0.412,-0.015 0.822,-0.029 1.233,-0.045l0.241,-0.008l0.14,0l0.584,-0.024l1.231,-0.051l0.954,-0.043l0.767,-0.035l0.267,-0.013l0.189,-0.01c0.315,-0.015 0.63,-0.03 0.944,-0.047c0.4,-0.02 0.81,-0.042 1.211,-0.063c0.285,-0.015 0.569,-0.03 0.853,-0.047l0.192,-0.009l0.175,-0.011c0.3,-0.017 0.609,-0.036 0.914,-0.054l0.917,-0.055l0.373,-0.023l0.824,-0.053l0.924,-0.061l0.458,-0.03c0.143,-0.01 0.285,-0.022 0.428,-0.03l0.288,-0.022l0.906,-0.064l0.536,-0.038l0.693,-0.054l0.827,-0.062l0.622,-0.05l0.73,-0.058l0.682,-0.058l0.7,-0.06l0.767,-0.067l0.54,-0.048c0.265,-0.023 0.528,-0.048 0.792,-0.072l0.793,-0.075l0.4,-0.037l0.874,-0.087l0.824,-0.081c0.087,-0.01 0.176,-0.018 0.264,-0.026l1.005,-0.106l0.771,-0.081l0.171,-0.018l0.036,0c0.426,-0.045 0.847,-0.092 1.27,-0.14l0.514,-0.058l0.088,-0.01l0.61,-0.072c0.41,-0.048 0.821,-0.1 1.227,-0.145l0.134,-0.015l0.662,-0.082l1.1,-0.137l0.167,-0.022c0.234,-0.029 0.463,-0.061 0.695,-0.092c0.324,-0.041 0.648,-0.084 0.968,-0.127l0.268,-0.035l0.691,-0.1c0.277,-0.038 0.553,-0.076 0.827,-0.115l0.385,-0.054c0.22,-0.031 0.439,-0.064 0.657,-0.1c0.242,-0.035 0.486,-0.07 0.726,-0.106l0.48,-0.072l1.25,-0.2l0.585,-0.092l0.571,-0.091l0.553,-0.091c0.226,-0.037 0.453,-0.074 0.677,-0.112l0.38,-0.062l0.1,-0.017l0.511,-0.089c0.267,-0.045 0.529,-0.09 0.787,-0.137l0.85,-0.151l0.521,-0.094l0.277,-0.052l0.811,-0.151c0.253,-0.048 0.506,-0.1 0.757,-0.145l0.788,-0.155c0.1,-0.019 0.207,-0.04 0.309,-0.061l0.461,-0.092l0.8,-0.166l0.717,-0.149l0.462,-0.1c0.1,-0.024 0.2,-0.046 0.309,-0.068l0.018,0l0.7,-0.153l0.767,-0.174l0.68,-0.155c0.257,-0.06 0.512,-0.12 0.763,-0.181l0.652,-0.156l0.371,-0.092c0.145,-0.035 0.288,-0.072 0.432,-0.108l0.573,-0.145c0.2,-0.05 0.393,-0.1 0.59,-0.153l0.435,-0.114l0.314,-0.084c0.272,-0.072 0.539,-0.147 0.807,-0.22l0.2,-0.055c0.067,-0.019 0.138,-0.037 0.2,-0.055l0.089,-0.025c0.422,-0.119 0.837,-0.239 1.246,-0.36l0.144,-0.044l0.078,-0.022l0.308,-0.094c0.232,-0.071 0.464,-0.14 0.69,-0.212l0.222,-0.07l0.413,-0.132c0.18,-0.058 0.363,-0.115 0.54,-0.174c0.1,-0.032 0.2,-0.065 0.3,-0.1c0.138,-0.047 0.275,-0.092 0.411,-0.14c0.136,-0.048 0.286,-0.1 0.427,-0.144l0.365,-0.129c0.133,-0.045 0.263,-0.092 0.389,-0.139c0.112,-0.04 0.227,-0.08 0.337,-0.121c0.149,-0.054 0.292,-0.109 0.437,-0.162c0.08,-0.031 0.166,-0.06 0.246,-0.09l0.1,-0.042l0.262,-0.1l0.436,-0.172l0.332,-0.131l0.239,-0.1c0.152,-0.062 0.3,-0.124 0.449,-0.187c0.1,-0.041 0.2,-0.082 0.3,-0.124l0.219,-0.1c0.146,-0.063 0.287,-0.126 0.429,-0.19c0.083,-0.037 0.17,-0.073 0.252,-0.111l0.037,-0.017l0.2,-0.092l0.409,-0.194c0.1,-0.045 0.195,-0.09 0.288,-0.136l0.022,-0.01l0.163,-0.083c0.127,-0.062 0.252,-0.126 0.376,-0.189c0.093,-0.047 0.188,-0.094 0.279,-0.142l0.194,-0.1c0.112,-0.058 0.222,-0.118 0.33,-0.178c0.091,-0.049 0.182,-0.1 0.272,-0.149c0.066,-0.038 0.13,-0.075 0.2,-0.112l0.289,-0.168l0.264,-0.159c0.065,-0.039 0.129,-0.079 0.192,-0.119c0.085,-0.052 0.168,-0.1 0.251,-0.157c0.083,-0.057 0.172,-0.11 0.256,-0.166c0.031,-0.021 0.065,-0.04 0.1,-0.062l0.089,-0.063c0.073,-0.048 0.145,-0.1 0.215,-0.147l0.266,-0.189c0.063,-0.046 0.127,-0.091 0.189,-0.138c0.062,-0.047 0.1,-0.076 0.154,-0.115c0.094,-0.072 0.182,-0.143 0.271,-0.214c0.062,-0.049 0.126,-0.1 0.185,-0.148l0.1,-0.085c0.1,-0.082 0.186,-0.162 0.277,-0.246c0.055,-0.048 0.115,-0.1 0.171,-0.149c0.02,-0.018 0.039,-0.038 0.059,-0.056c0.1,-0.092 0.187,-0.183 0.278,-0.276l0.058,-0.058c0.029,-0.03 0.063,-0.06 0.092,-0.09l0.028,-0.03c0.09,-0.1 0.172,-0.193 0.256,-0.289c0.042,-0.048 0.089,-0.1 0.13,-0.146c0.006,-0.008 0.012,-0.016 0.018,-0.023c0.081,-0.1 0.155,-0.2 0.229,-0.3c0.036,-0.048 0.076,-0.1 0.109,-0.145c0.004,-0.005 0.008,-0.01 0.012,-0.016c0.078,-0.111 0.146,-0.222 0.214,-0.334c0.025,-0.04 0.052,-0.078 0.075,-0.119l0.01,-0.016c0.015,-0.027 0.026,-0.054 0.042,-0.082c0.068,-0.123 0.135,-0.246 0.192,-0.37l27.6,-60.141c0.289,-0.615 0.468,-1.276 0.529,-1.952c0.026,-0.234 0.036,-0.47 0.031,-0.705Z" style="fill:none;fill-rule:nonzero;stroke:#fff;stroke-width:0.3px;"/></g><g id="Grupo_25560"><path id="Trazado_24698" d="M243.424,47.979c-1.152,13.71 -55.54,24.63 -121.48,24.39c-65.94,-0.24 -118.462,-11.547 -117.31,-25.257c1.152,-13.71 55.54,-24.629 121.48,-24.39c65.94,0.239 118.461,11.548 117.31,25.257Z" style="fill:none;fill-rule:nonzero;stroke:#fff;stroke-width:0.3px;"/></g></g></g><circle id="Elipse_1371" cx="53.426" cy="30.786" r="30.786" style="fill:#d64626;"/><g id="Mercado_Meta"><g><path d="M34.46,20.811l2.008,5.672l1.999,-5.672l2.116,-0l-0,7.82l-1.617,-0l0,-2.138l0.161,-3.69l-2.111,5.828l-1.106,-0l-2.106,-5.822l0.162,3.684l-0,2.138l-1.612,-0l0,-7.82l2.106,-0Z" style="fill:#fff;fill-rule:nonzero;"/><path d="M44.563,28.738c-0.852,0 -1.546,-0.261 -2.082,-0.784c-0.535,-0.523 -0.803,-1.219 -0.803,-2.089l0,-0.151c0,-0.583 0.113,-1.105 0.339,-1.565c0.225,-0.46 0.545,-0.815 0.959,-1.064c0.413,-0.249 0.885,-0.373 1.415,-0.373c0.795,0 1.421,0.251 1.877,0.752c0.457,0.501 0.685,1.212 0.685,2.132l-0,0.634l-3.701,0c0.05,0.38 0.202,0.684 0.454,0.913c0.252,0.229 0.572,0.344 0.959,0.344c0.598,-0 1.065,-0.217 1.402,-0.65l0.762,0.854c-0.232,0.329 -0.548,0.586 -0.945,0.771c-0.397,0.184 -0.838,0.276 -1.321,0.276Zm-0.178,-4.774c-0.307,-0 -0.557,0.104 -0.749,0.312c-0.191,0.209 -0.314,0.508 -0.368,0.896l2.159,0l0,-0.124c-0.007,-0.345 -0.1,-0.612 -0.279,-0.801c-0.179,-0.189 -0.433,-0.283 -0.763,-0.283Z" style="fill:#fff;fill-rule:nonzero;"/><path d="M51.099,24.275c-0.211,-0.029 -0.397,-0.043 -0.558,-0.043c-0.587,0 -0.972,0.199 -1.155,0.596l-0,3.803l-1.552,-0l-0,-5.812l1.466,0l0.043,0.693c0.312,-0.533 0.743,-0.8 1.294,-0.8c0.172,0 0.333,0.023 0.484,0.07l-0.022,1.493Z" style="fill:#fff;fill-rule:nonzero;"/><path d="M54.161,27.487c0.286,-0 0.519,-0.079 0.698,-0.236c0.179,-0.158 0.272,-0.367 0.279,-0.629l1.456,0c-0.004,0.394 -0.111,0.755 -0.322,1.082c-0.212,0.328 -0.501,0.582 -0.868,0.763c-0.367,0.181 -0.772,0.271 -1.216,0.271c-0.831,0 -1.486,-0.264 -1.966,-0.792c-0.48,-0.528 -0.72,-1.258 -0.72,-2.189l0,-0.102c0,-0.895 0.238,-1.609 0.715,-2.143c0.476,-0.533 1.129,-0.8 1.96,-0.8c0.727,0 1.31,0.207 1.748,0.62c0.439,0.414 0.662,0.965 0.669,1.652l-1.456,0c-0.007,-0.302 -0.1,-0.548 -0.279,-0.737c-0.179,-0.189 -0.415,-0.283 -0.709,-0.283c-0.362,-0 -0.635,0.131 -0.819,0.395c-0.184,0.263 -0.277,0.691 -0.277,1.283l0,0.161c0,0.599 0.092,1.029 0.274,1.291c0.183,0.262 0.46,0.393 0.833,0.393Z" style="fill:#fff;fill-rule:nonzero;"/><path d="M60.848,28.631c-0.072,-0.14 -0.124,-0.313 -0.156,-0.521c-0.376,0.419 -0.865,0.628 -1.466,0.628c-0.57,0 -1.041,-0.164 -1.415,-0.494c-0.375,-0.329 -0.562,-0.745 -0.562,-1.246c0,-0.616 0.229,-1.088 0.685,-1.418c0.457,-0.329 1.116,-0.496 1.979,-0.499l0.715,-0l-0,-0.333c-0,-0.269 -0.069,-0.484 -0.207,-0.645c-0.138,-0.161 -0.355,-0.242 -0.653,-0.242c-0.261,0 -0.466,0.063 -0.615,0.188c-0.148,0.126 -0.223,0.298 -0.223,0.516l-1.552,0c0,-0.337 0.104,-0.648 0.312,-0.934c0.207,-0.287 0.501,-0.512 0.881,-0.675c0.379,-0.162 0.805,-0.244 1.278,-0.244c0.716,0 1.284,0.18 1.705,0.54c0.421,0.36 0.631,0.865 0.631,1.517l0,2.519c0.004,0.552 0.081,0.969 0.231,1.252l0,0.091l-1.568,-0Zm-1.284,-1.08c0.229,0 0.441,-0.051 0.634,-0.153c0.193,-0.102 0.337,-0.239 0.43,-0.411l-0,-0.999l-0.58,0c-0.777,0 -1.191,0.269 -1.241,0.806l-0.005,0.091c-0,0.194 0.068,0.353 0.204,0.478c0.136,0.126 0.322,0.188 0.558,0.188Z" style="fill:#fff;fill-rule:nonzero;"/><path d="M63.136,25.682c-0,-0.906 0.203,-1.627 0.61,-2.164c0.406,-0.537 0.962,-0.806 1.667,-0.806c0.566,0 1.033,0.211 1.402,0.634l0,-2.965l1.558,-0l-0,8.25l-1.402,-0l-0.075,-0.618c-0.387,0.484 -0.885,0.725 -1.493,0.725c-0.684,0 -1.233,-0.269 -1.647,-0.808c-0.413,-0.539 -0.62,-1.288 -0.62,-2.248Zm1.552,0.111c0,0.546 0.095,0.966 0.285,1.257c0.19,0.291 0.465,0.437 0.827,0.437c0.48,-0 0.818,-0.203 1.015,-0.61l0,-2.304c-0.193,-0.406 -0.528,-0.609 -1.004,-0.609c-0.749,-0 -1.123,0.609 -1.123,1.829Z" style="fill:#fff;fill-rule:nonzero;"/><path d="M69.334,25.672c0,-0.577 0.111,-1.091 0.333,-1.542c0.222,-0.451 0.542,-0.8 0.959,-1.047c0.417,-0.247 0.901,-0.371 1.453,-0.371c0.784,0 1.424,0.24 1.92,0.72c0.496,0.48 0.773,1.131 0.83,1.955l0.011,0.397c-0,0.892 -0.249,1.607 -0.747,2.146c-0.498,0.539 -1.166,0.808 -2.003,0.808c-0.838,0 -1.507,-0.268 -2.007,-0.805c-0.499,-0.537 -0.749,-1.268 -0.749,-2.192l0,-0.069Zm1.552,0.11c0,0.552 0.104,0.974 0.312,1.267c0.208,0.292 0.505,0.438 0.892,0.438c0.376,-0 0.669,-0.144 0.88,-0.433c0.212,-0.289 0.317,-0.751 0.317,-1.385c0,-0.542 -0.105,-0.961 -0.317,-1.259c-0.211,-0.298 -0.508,-0.446 -0.891,-0.446c-0.38,-0 -0.673,0.147 -0.881,0.443c-0.208,0.296 -0.312,0.754 -0.312,1.375Z" style="fill:#fff;fill-rule:nonzero;"/></g><g><path d="M43.634,31.811l2.008,5.672l1.999,-5.672l2.116,-0l-0,7.82l-1.617,-0l0,-2.138l0.161,-3.69l-2.111,5.828l-1.106,-0l-2.106,-5.822l0.162,3.684l-0,2.138l-1.612,-0l0,-7.82l2.106,-0Z" style="fill:#fff;fill-rule:nonzero;"/><path d="M53.737,39.738c-0.852,0 -1.546,-0.261 -2.082,-0.784c-0.535,-0.523 -0.803,-1.219 -0.803,-2.089l0,-0.151c0,-0.583 0.113,-1.105 0.339,-1.565c0.225,-0.46 0.545,-0.815 0.959,-1.064c0.413,-0.249 0.885,-0.373 1.415,-0.373c0.795,0 1.421,0.251 1.877,0.752c0.457,0.501 0.685,1.212 0.685,2.132l-0,0.634l-3.701,0c0.05,0.38 0.202,0.684 0.454,0.913c0.252,0.229 0.572,0.344 0.959,0.344c0.598,-0 1.065,-0.217 1.402,-0.65l0.762,0.854c-0.232,0.329 -0.548,0.586 -0.945,0.771c-0.397,0.184 -0.838,0.276 -1.321,0.276Zm-0.178,-4.774c-0.307,-0 -0.557,0.104 -0.749,0.312c-0.191,0.209 -0.314,0.508 -0.368,0.896l2.159,0l0,-0.124c-0.007,-0.345 -0.1,-0.612 -0.279,-0.801c-0.179,-0.189 -0.433,-0.283 -0.763,-0.283Z" style="fill:#fff;fill-rule:nonzero;"/><path d="M58.866,32.391l0,1.428l0.994,0l-0,1.139l-0.994,0l0,2.901c0,0.214 0.041,0.368 0.124,0.461c0.082,0.094 0.24,0.14 0.472,0.14c0.172,0 0.324,-0.012 0.457,-0.037l-0,1.176c-0.304,0.093 -0.618,0.139 -0.94,0.139c-1.089,0 -1.644,-0.549 -1.665,-1.649l-0,-3.131l-0.849,0l0,-1.139l0.849,0l-0,-1.428l1.552,-0Z" style="fill:#fff;fill-rule:nonzero;"/><path d="M64.092,39.631c-0.071,-0.14 -0.123,-0.313 -0.156,-0.521c-0.376,0.419 -0.864,0.628 -1.466,0.628c-0.569,0 -1.041,-0.164 -1.415,-0.494c-0.374,-0.329 -0.561,-0.745 -0.561,-1.246c-0,-0.616 0.228,-1.088 0.684,-1.418c0.457,-0.329 1.117,-0.496 1.98,-0.499l0.714,-0l-0,-0.333c-0,-0.269 -0.069,-0.484 -0.207,-0.645c-0.138,-0.161 -0.355,-0.242 -0.652,-0.242c-0.262,0 -0.467,0.063 -0.615,0.188c-0.149,0.126 -0.223,0.298 -0.223,0.516l-1.553,0c0,-0.337 0.104,-0.648 0.312,-0.934c0.208,-0.287 0.501,-0.512 0.881,-0.675c0.379,-0.162 0.806,-0.244 1.278,-0.244c0.716,0 1.285,0.18 1.706,0.54c0.42,0.36 0.631,0.865 0.631,1.517l-0,2.519c0.003,0.552 0.08,0.969 0.231,1.252l-0,0.091l-1.569,-0Zm-1.283,-1.08c0.229,0 0.44,-0.051 0.633,-0.153c0.194,-0.102 0.337,-0.239 0.43,-0.411l-0,-0.999l-0.58,0c-0.777,0 -1.191,0.269 -1.241,0.806l-0.005,0.091c-0,0.194 0.068,0.353 0.204,0.478c0.136,0.126 0.322,0.188 0.559,0.188Z" style="fill:#fff;fill-rule:nonzero;"/></g></g><circle id="Elipse_1372" cx="126.506" cy="30.786" r="30.786" style="fill:#d64626;"/><g id="Mercado_Potencial"><g><path d="M107.54,20.811l2.008,5.672l1.999,-5.672l2.116,-0l-0,7.82l-1.617,-0l0,-2.138l0.161,-3.69l-2.111,5.828l-1.106,-0l-2.106,-5.822l0.162,3.684l-0,2.138l-1.612,-0l0,-7.82l2.106,-0Z" style="fill:#fff;fill-rule:nonzero;"/><path d="M117.643,28.738c-0.852,0 -1.546,-0.261 -2.082,-0.784c-0.535,-0.523 -0.803,-1.219 -0.803,-2.089l0,-0.151c0,-0.583 0.113,-1.105 0.339,-1.565c0.225,-0.46 0.545,-0.815 0.959,-1.064c0.413,-0.249 0.885,-0.373 1.415,-0.373c0.795,0 1.421,0.251 1.877,0.752c0.457,0.501 0.685,1.212 0.685,2.132l-0,0.634l-3.701,0c0.05,0.38 0.202,0.684 0.454,0.913c0.252,0.229 0.572,0.344 0.959,0.344c0.598,-0 1.065,-0.217 1.402,-0.65l0.762,0.854c-0.232,0.329 -0.548,0.586 -0.945,0.771c-0.397,0.184 -0.838,0.276 -1.321,0.276Zm-0.178,-4.774c-0.307,-0 -0.557,0.104 -0.749,0.312c-0.191,0.209 -0.314,0.508 -0.368,0.896l2.159,0l0,-0.124c-0.007,-0.345 -0.1,-0.612 -0.279,-0.801c-0.179,-0.189 -0.433,-0.283 -0.763,-0.283Z" style="fill:#fff;fill-rule:nonzero;"/><path d="M124.179,24.275c-0.211,-0.029 -0.397,-0.043 -0.558,-0.043c-0.587,0 -0.972,0.199 -1.155,0.596l-0,3.803l-1.552,-0l-0,-5.812l1.466,0l0.043,0.693c0.312,-0.533 0.743,-0.8 1.294,-0.8c0.172,0 0.333,0.023 0.484,0.07l-0.022,1.493Z" style="fill:#fff;fill-rule:nonzero;"/><path d="M127.241,27.487c0.286,-0 0.519,-0.079 0.698,-0.236c0.179,-0.158 0.272,-0.367 0.279,-0.629l1.456,0c-0.004,0.394 -0.111,0.755 -0.322,1.082c-0.212,0.328 -0.501,0.582 -0.868,0.763c-0.367,0.181 -0.772,0.271 -1.216,0.271c-0.831,0 -1.486,-0.264 -1.966,-0.792c-0.48,-0.528 -0.72,-1.258 -0.72,-2.189l0,-0.102c0,-0.895 0.238,-1.609 0.715,-2.143c0.476,-0.533 1.129,-0.8 1.96,-0.8c0.727,0 1.31,0.207 1.748,0.62c0.439,0.414 0.662,0.965 0.669,1.652l-1.456,0c-0.007,-0.302 -0.1,-0.548 -0.279,-0.737c-0.179,-0.189 -0.415,-0.283 -0.709,-0.283c-0.362,-0 -0.635,0.131 -0.819,0.395c-0.184,0.263 -0.277,0.691 -0.277,1.283l0,0.161c0,0.599 0.092,1.029 0.274,1.291c0.183,0.262 0.46,0.393 0.833,0.393Z" style="fill:#fff;fill-rule:nonzero;"/><path d="M133.928,28.631c-0.072,-0.14 -0.124,-0.313 -0.156,-0.521c-0.376,0.419 -0.865,0.628 -1.466,0.628c-0.57,0 -1.041,-0.164 -1.415,-0.494c-0.375,-0.329 -0.562,-0.745 -0.562,-1.246c0,-0.616 0.229,-1.088 0.685,-1.418c0.457,-0.329 1.116,-0.496 1.979,-0.499l0.715,-0l-0,-0.333c-0,-0.269 -0.069,-0.484 -0.207,-0.645c-0.138,-0.161 -0.355,-0.242 -0.653,-0.242c-0.261,0 -0.466,0.063 -0.615,0.188c-0.148,0.126 -0.223,0.298 -0.223,0.516l-1.552,0c0,-0.337 0.104,-0.648 0.312,-0.934c0.207,-0.287 0.501,-0.512 0.881,-0.675c0.379,-0.162 0.805,-0.244 1.278,-0.244c0.716,0 1.284,0.18 1.705,0.54c0.421,0.36 0.631,0.865 0.631,1.517l0,2.519c0.004,0.552 0.081,0.969 0.231,1.252l0,0.091l-1.568,-0Zm-1.284,-1.08c0.229,0 0.441,-0.051 0.634,-0.153c0.193,-0.102 0.337,-0.239 0.43,-0.411l-0,-0.999l-0.58,0c-0.777,0 -1.191,0.269 -1.241,0.806l-0.005,0.091c-0,0.194 0.068,0.353 0.204,0.478c0.136,0.126 0.322,0.188 0.558,0.188Z" style="fill:#fff;fill-rule:nonzero;"/><path d="M136.216,25.682c-0,-0.906 0.203,-1.627 0.61,-2.164c0.406,-0.537 0.962,-0.806 1.667,-0.806c0.566,0 1.033,0.211 1.402,0.634l0,-2.965l1.558,-0l-0,8.25l-1.402,-0l-0.075,-0.618c-0.387,0.484 -0.885,0.725 -1.493,0.725c-0.684,0 -1.233,-0.269 -1.647,-0.808c-0.413,-0.539 -0.62,-1.288 -0.62,-2.248Zm1.552,0.111c0,0.546 0.095,0.966 0.285,1.257c0.19,0.291 0.465,0.437 0.827,0.437c0.48,-0 0.818,-0.203 1.015,-0.61l0,-2.304c-0.193,-0.406 -0.528,-0.609 -1.004,-0.609c-0.749,-0 -1.123,0.609 -1.123,1.829Z" style="fill:#fff;fill-rule:nonzero;"/><path d="M142.414,25.672c0,-0.577 0.111,-1.091 0.333,-1.542c0.222,-0.451 0.542,-0.8 0.959,-1.047c0.417,-0.247 0.901,-0.371 1.453,-0.371c0.784,0 1.424,0.24 1.92,0.72c0.496,0.48 0.773,1.131 0.83,1.955l0.011,0.397c-0,0.892 -0.249,1.607 -0.747,2.146c-0.498,0.539 -1.166,0.808 -2.003,0.808c-0.838,0 -1.507,-0.268 -2.007,-0.805c-0.499,-0.537 -0.749,-1.268 -0.749,-2.192l0,-0.069Zm1.552,0.11c0,0.552 0.104,0.974 0.312,1.267c0.208,0.292 0.505,0.438 0.892,0.438c0.376,-0 0.669,-0.144 0.88,-0.433c0.212,-0.289 0.317,-0.751 0.317,-1.385c0,-0.542 -0.105,-0.961 -0.317,-1.259c-0.211,-0.298 -0.508,-0.446 -0.891,-0.446c-0.38,-0 -0.673,0.147 -0.881,0.443c-0.208,0.296 -0.312,0.754 -0.312,1.375Z" style="fill:#fff;fill-rule:nonzero;"/></g><g><path d="M105.55,36.876l-0,2.755l-1.612,-0l0,-7.82l3.051,-0c0.587,-0 1.104,0.107 1.55,0.322c0.445,0.215 0.788,0.52 1.028,0.916c0.24,0.395 0.36,0.846 0.36,1.351c0,0.766 -0.262,1.37 -0.787,1.812c-0.524,0.443 -1.25,0.664 -2.178,0.664l-1.412,-0Zm-0,-1.306l1.439,0c0.426,0 0.751,-0.1 0.975,-0.3c0.224,-0.201 0.336,-0.487 0.336,-0.86c-0,-0.383 -0.113,-0.693 -0.339,-0.929c-0.225,-0.236 -0.537,-0.358 -0.934,-0.365l-1.477,-0l-0,2.454Z" style="fill:#fff;fill-rule:nonzero;"/><path d="M110.62,36.672c-0,-0.577 0.111,-1.091 0.333,-1.542c0.222,-0.451 0.541,-0.8 0.959,-1.047c0.417,-0.247 0.901,-0.371 1.453,-0.371c0.784,0 1.424,0.24 1.92,0.72c0.496,0.48 0.772,1.131 0.83,1.955l0.01,0.397c0,0.892 -0.249,1.607 -0.746,2.146c-0.498,0.539 -1.166,0.808 -2.004,0.808c-0.838,0 -1.506,-0.268 -2.006,-0.805c-0.499,-0.537 -0.749,-1.268 -0.749,-2.192l-0,-0.069Zm1.552,0.11c0,0.552 0.104,0.974 0.312,1.267c0.207,0.292 0.505,0.438 0.891,0.438c0.376,-0 0.67,-0.144 0.881,-0.433c0.211,-0.289 0.317,-0.751 0.317,-1.385c0,-0.542 -0.106,-0.961 -0.317,-1.259c-0.211,-0.298 -0.508,-0.446 -0.891,-0.446c-0.38,-0 -0.674,0.147 -0.881,0.443c-0.208,0.296 -0.312,0.754 -0.312,1.375Z" style="fill:#fff;fill-rule:nonzero;"/><path d="M118.94,32.391l-0,1.428l0.993,0l0,1.139l-0.993,0l-0,2.901c-0,0.214 0.041,0.368 0.123,0.461c0.083,0.094 0.24,0.14 0.473,0.14c0.172,0 0.324,-0.012 0.456,-0.037l0,1.176c-0.304,0.093 -0.617,0.139 -0.94,0.139c-1.088,0 -1.643,-0.549 -1.665,-1.649l0,-3.131l-0.848,0l-0,-1.139l0.848,0l0,-1.428l1.553,-0Z" style="fill:#fff;fill-rule:nonzero;"/><path d="M123.473,39.738c-0.852,0 -1.546,-0.261 -2.081,-0.784c-0.536,-0.523 -0.803,-1.219 -0.803,-2.089l-0,-0.151c-0,-0.583 0.112,-1.105 0.338,-1.565c0.226,-0.46 0.545,-0.815 0.959,-1.064c0.413,-0.249 0.885,-0.373 1.415,-0.373c0.795,0 1.421,0.251 1.877,0.752c0.457,0.501 0.685,1.212 0.685,2.132l0,0.634l-3.701,0c0.05,0.38 0.202,0.684 0.454,0.913c0.253,0.229 0.572,0.344 0.959,0.344c0.598,-0 1.065,-0.217 1.402,-0.65l0.763,0.854c-0.233,0.329 -0.548,0.586 -0.946,0.771c-0.397,0.184 -0.838,0.276 -1.321,0.276Zm-0.177,-4.774c-0.308,-0 -0.558,0.104 -0.75,0.312c-0.191,0.209 -0.314,0.508 -0.368,0.896l2.16,0l-0,-0.124c-0.008,-0.345 -0.101,-0.612 -0.28,-0.801c-0.179,-0.189 -0.433,-0.283 -0.762,-0.283Z" style="fill:#fff;fill-rule:nonzero;"/><path d="M128.173,33.819l0.048,0.672c0.415,-0.519 0.972,-0.779 1.67,-0.779c0.616,0 1.075,0.181 1.375,0.543c0.301,0.361 0.455,0.902 0.462,1.622l0,3.754l-1.552,-0l0,-3.725c0,-0.331 -0.072,-0.57 -0.215,-0.719c-0.143,-0.149 -0.381,-0.223 -0.714,-0.223c-0.437,-0 -0.765,0.186 -0.983,0.559l-0,4.108l-1.552,-0l-0,-5.812l1.461,0Z" style="fill:#fff;fill-rule:nonzero;"/><path d="M135.322,38.487c0.286,-0 0.519,-0.079 0.698,-0.236c0.179,-0.158 0.272,-0.367 0.279,-0.629l1.456,0c-0.004,0.394 -0.111,0.755 -0.323,1.082c-0.211,0.328 -0.5,0.582 -0.867,0.763c-0.367,0.181 -0.773,0.271 -1.217,0.271c-0.83,0 -1.486,-0.264 -1.965,-0.792c-0.48,-0.528 -0.72,-1.258 -0.72,-2.189l-0,-0.102c-0,-0.895 0.238,-1.609 0.714,-2.143c0.476,-0.533 1.13,-0.8 1.961,-0.8c0.727,0 1.309,0.207 1.748,0.62c0.439,0.414 0.661,0.965 0.669,1.652l-1.456,0c-0.007,-0.302 -0.1,-0.548 -0.279,-0.737c-0.179,-0.189 -0.416,-0.283 -0.709,-0.283c-0.362,-0 -0.635,0.131 -0.819,0.395c-0.185,0.263 -0.277,0.691 -0.277,1.283l0,0.161c0,0.599 0.091,1.029 0.274,1.291c0.183,0.262 0.46,0.393 0.833,0.393Z" style="fill:#fff;fill-rule:nonzero;"/><path d="M140.279,39.631l-1.558,-0l0,-5.812l1.558,0l0,5.812Zm-1.649,-7.315c0,-0.233 0.078,-0.425 0.234,-0.575c0.156,-0.151 0.368,-0.226 0.636,-0.226c0.265,0 0.476,0.075 0.634,0.226c0.158,0.15 0.236,0.342 0.236,0.575c0,0.236 -0.079,0.429 -0.239,0.58c-0.159,0.15 -0.369,0.225 -0.631,0.225c-0.261,0 -0.472,-0.075 -0.631,-0.225c-0.159,-0.151 -0.239,-0.344 -0.239,-0.58Z" style="fill:#fff;fill-rule:nonzero;"/><path d="M144.925,39.631c-0.072,-0.14 -0.123,-0.313 -0.156,-0.521c-0.376,0.419 -0.864,0.628 -1.466,0.628c-0.569,0 -1.041,-0.164 -1.415,-0.494c-0.374,-0.329 -0.562,-0.745 -0.562,-1.246c0,-0.616 0.229,-1.088 0.685,-1.418c0.457,-0.329 1.117,-0.496 1.979,-0.499l0.715,-0l-0,-0.333c-0,-0.269 -0.069,-0.484 -0.207,-0.645c-0.138,-0.161 -0.355,-0.242 -0.653,-0.242c-0.261,0 -0.466,0.063 -0.615,0.188c-0.148,0.126 -0.222,0.298 -0.222,0.516l-1.553,0c0,-0.337 0.104,-0.648 0.312,-0.934c0.208,-0.287 0.501,-0.512 0.881,-0.675c0.379,-0.162 0.805,-0.244 1.278,-0.244c0.716,0 1.285,0.18 1.705,0.54c0.421,0.36 0.631,0.865 0.631,1.517l0,2.519c0.004,0.552 0.081,0.969 0.231,1.252l0,0.091l-1.568,-0Zm-1.284,-1.08c0.23,0 0.441,-0.051 0.634,-0.153c0.194,-0.102 0.337,-0.239 0.43,-0.411l-0,-0.999l-0.58,0c-0.777,0 -1.191,0.269 -1.241,0.806l-0.005,0.091c-0,0.194 0.068,0.353 0.204,0.478c0.136,0.126 0.322,0.188 0.558,0.188Z" style="fill:#fff;fill-rule:nonzero;"/><rect x="147.535" y="31.381" width="1.558" height="8.25" style="fill:#fff;fill-rule:nonzero;"/></g></g><circle id="Elipse_1373" cx="199.81" cy="30.786" r="30.786" style="fill:#d64626;"/><g id="Mercado_Real"><g><path d="M180.842,20.811l2.008,5.672l1.999,-5.672l2.116,-0l-0,7.82l-1.617,-0l0,-2.138l0.161,-3.69l-2.111,5.828l-1.106,-0l-2.106,-5.822l0.162,3.684l-0,2.138l-1.612,-0l0,-7.82l2.106,-0Z" style="fill:#fff;fill-rule:nonzero;"/><path d="M190.945,28.738c-0.852,0 -1.546,-0.261 -2.082,-0.784c-0.535,-0.523 -0.803,-1.219 -0.803,-2.089l0,-0.151c0,-0.583 0.113,-1.105 0.339,-1.565c0.225,-0.46 0.545,-0.815 0.959,-1.064c0.413,-0.249 0.885,-0.373 1.415,-0.373c0.795,0 1.421,0.251 1.877,0.752c0.457,0.501 0.685,1.212 0.685,2.132l-0,0.634l-3.701,0c0.05,0.38 0.202,0.684 0.454,0.913c0.252,0.229 0.572,0.344 0.959,0.344c0.598,-0 1.065,-0.217 1.402,-0.65l0.762,0.854c-0.232,0.329 -0.548,0.586 -0.945,0.771c-0.397,0.184 -0.838,0.276 -1.321,0.276Zm-0.178,-4.774c-0.307,-0 -0.557,0.104 -0.749,0.312c-0.191,0.209 -0.314,0.508 -0.368,0.896l2.159,0l0,-0.124c-0.007,-0.345 -0.1,-0.612 -0.279,-0.801c-0.179,-0.189 -0.433,-0.283 -0.763,-0.283Z" style="fill:#fff;fill-rule:nonzero;"/><path d="M197.481,24.275c-0.211,-0.029 -0.397,-0.043 -0.558,-0.043c-0.587,0 -0.972,0.199 -1.155,0.596l-0,3.803l-1.552,-0l-0,-5.812l1.466,0l0.043,0.693c0.312,-0.533 0.743,-0.8 1.294,-0.8c0.172,0 0.333,0.023 0.484,0.07l-0.022,1.493Z" style="fill:#fff;fill-rule:nonzero;"/><path d="M200.543,27.487c0.286,-0 0.519,-0.079 0.698,-0.236c0.179,-0.158 0.272,-0.367 0.279,-0.629l1.456,0c-0.004,0.394 -0.111,0.755 -0.322,1.082c-0.212,0.328 -0.501,0.582 -0.868,0.763c-0.367,0.181 -0.772,0.271 -1.216,0.271c-0.831,0 -1.486,-0.264 -1.966,-0.792c-0.48,-0.528 -0.72,-1.258 -0.72,-2.189l0,-0.102c0,-0.895 0.238,-1.609 0.715,-2.143c0.476,-0.533 1.129,-0.8 1.96,-0.8c0.727,0 1.31,0.207 1.748,0.62c0.439,0.414 0.662,0.965 0.669,1.652l-1.456,0c-0.007,-0.302 -0.1,-0.548 -0.279,-0.737c-0.179,-0.189 -0.415,-0.283 -0.709,-0.283c-0.362,-0 -0.635,0.131 -0.819,0.395c-0.184,0.263 -0.277,0.691 -0.277,1.283l0,0.161c0,0.599 0.092,1.029 0.274,1.291c0.183,0.262 0.46,0.393 0.833,0.393Z" style="fill:#fff;fill-rule:nonzero;"/><path d="M207.23,28.631c-0.072,-0.14 -0.124,-0.313 -0.156,-0.521c-0.376,0.419 -0.865,0.628 -1.466,0.628c-0.57,0 -1.041,-0.164 -1.415,-0.494c-0.375,-0.329 -0.562,-0.745 -0.562,-1.246c0,-0.616 0.229,-1.088 0.685,-1.418c0.457,-0.329 1.116,-0.496 1.979,-0.499l0.715,-0l-0,-0.333c-0,-0.269 -0.069,-0.484 -0.207,-0.645c-0.138,-0.161 -0.355,-0.242 -0.653,-0.242c-0.261,0 -0.466,0.063 -0.615,0.188c-0.148,0.126 -0.223,0.298 -0.223,0.516l-1.552,0c0,-0.337 0.104,-0.648 0.312,-0.934c0.207,-0.287 0.501,-0.512 0.881,-0.675c0.379,-0.162 0.805,-0.244 1.278,-0.244c0.716,0 1.284,0.18 1.705,0.54c0.421,0.36 0.631,0.865 0.631,1.517l0,2.519c0.004,0.552 0.081,0.969 0.231,1.252l0,0.091l-1.568,-0Zm-1.284,-1.08c0.229,0 0.441,-0.051 0.634,-0.153c0.193,-0.102 0.337,-0.239 0.43,-0.411l-0,-0.999l-0.58,0c-0.777,0 -1.191,0.269 -1.241,0.806l-0.005,0.091c-0,0.194 0.068,0.353 0.204,0.478c0.136,0.126 0.322,0.188 0.558,0.188Z" style="fill:#fff;fill-rule:nonzero;"/><path d="M209.518,25.682c-0,-0.906 0.203,-1.627 0.61,-2.164c0.406,-0.537 0.962,-0.806 1.667,-0.806c0.566,0 1.033,0.211 1.402,0.634l0,-2.965l1.558,-0l-0,8.25l-1.402,-0l-0.075,-0.618c-0.387,0.484 -0.885,0.725 -1.493,0.725c-0.684,0 -1.233,-0.269 -1.647,-0.808c-0.413,-0.539 -0.62,-1.288 -0.62,-2.248Zm1.552,0.111c0,0.546 0.095,0.966 0.285,1.257c0.19,0.291 0.465,0.437 0.827,0.437c0.48,-0 0.818,-0.203 1.015,-0.61l0,-2.304c-0.193,-0.406 -0.528,-0.609 -1.004,-0.609c-0.749,-0 -1.123,0.609 -1.123,1.829Z" style="fill:#fff;fill-rule:nonzero;"/><path d="M215.716,25.672c0,-0.577 0.111,-1.091 0.333,-1.542c0.222,-0.451 0.542,-0.8 0.959,-1.047c0.417,-0.247 0.901,-0.371 1.453,-0.371c0.784,0 1.424,0.24 1.92,0.72c0.496,0.48 0.773,1.131 0.83,1.955l0.011,0.397c-0,0.892 -0.249,1.607 -0.747,2.146c-0.498,0.539 -1.166,0.808 -2.003,0.808c-0.838,0 -1.507,-0.268 -2.007,-0.805c-0.499,-0.537 -0.749,-1.268 -0.749,-2.192l0,-0.069Zm1.552,0.11c0,0.552 0.104,0.974 0.312,1.267c0.208,0.292 0.505,0.438 0.892,0.438c0.376,-0 0.669,-0.144 0.88,-0.433c0.212,-0.289 0.317,-0.751 0.317,-1.385c0,-0.542 -0.105,-0.961 -0.317,-1.259c-0.211,-0.298 -0.508,-0.446 -0.891,-0.446c-0.38,-0 -0.673,0.147 -0.881,0.443c-0.208,0.296 -0.312,0.754 -0.312,1.375Z" style="fill:#fff;fill-rule:nonzero;"/></g><g><path d="M192.513,36.768l-1.283,0l-0,2.863l-1.612,-0l0,-7.82l2.906,-0c0.924,-0 1.636,0.206 2.138,0.617c0.501,0.412 0.752,0.994 0.752,1.746c-0,0.533 -0.116,0.978 -0.347,1.335c-0.231,0.356 -0.581,0.64 -1.05,0.851l1.692,3.196l0,0.075l-1.729,-0l-1.467,-2.863Zm-1.283,-1.305l1.299,0c0.405,0 0.718,-0.103 0.94,-0.309c0.222,-0.206 0.333,-0.489 0.333,-0.851c0,-0.369 -0.104,-0.659 -0.314,-0.87c-0.209,-0.212 -0.531,-0.317 -0.964,-0.317l-1.294,-0l-0,2.347Z" style="fill:#fff;fill-rule:nonzero;"/><path d="M199.211,39.738c-0.852,0 -1.546,-0.261 -2.081,-0.784c-0.536,-0.523 -0.803,-1.219 -0.803,-2.089l-0,-0.151c-0,-0.583 0.113,-1.105 0.338,-1.565c0.226,-0.46 0.545,-0.815 0.959,-1.064c0.413,-0.249 0.885,-0.373 1.415,-0.373c0.795,0 1.421,0.251 1.877,0.752c0.457,0.501 0.685,1.212 0.685,2.132l0,0.634l-3.701,0c0.051,0.38 0.202,0.684 0.454,0.913c0.253,0.229 0.572,0.344 0.959,0.344c0.598,-0 1.065,-0.217 1.402,-0.65l0.763,0.854c-0.233,0.329 -0.548,0.586 -0.946,0.771c-0.397,0.184 -0.838,0.276 -1.321,0.276Zm-0.177,-4.774c-0.308,-0 -0.558,0.104 -0.749,0.312c-0.192,0.209 -0.315,0.508 -0.368,0.896l2.159,0l-0,-0.124c-0.007,-0.345 -0.1,-0.612 -0.28,-0.801c-0.179,-0.189 -0.433,-0.283 -0.762,-0.283Z" style="fill:#fff;fill-rule:nonzero;"/><path d="M205.85,39.631c-0.072,-0.14 -0.124,-0.313 -0.156,-0.521c-0.376,0.419 -0.865,0.628 -1.466,0.628c-0.57,0 -1.041,-0.164 -1.416,-0.494c-0.374,-0.329 -0.561,-0.745 -0.561,-1.246c0,-0.616 0.228,-1.088 0.685,-1.418c0.456,-0.329 1.116,-0.496 1.979,-0.499l0.714,-0l0,-0.333c0,-0.269 -0.068,-0.484 -0.206,-0.645c-0.138,-0.161 -0.356,-0.242 -0.653,-0.242c-0.261,0 -0.466,0.063 -0.615,0.188c-0.148,0.126 -0.223,0.298 -0.223,0.516l-1.552,0c-0,-0.337 0.104,-0.648 0.311,-0.934c0.208,-0.287 0.502,-0.512 0.881,-0.675c0.38,-0.162 0.806,-0.244 1.279,-0.244c0.716,0 1.284,0.18 1.705,0.54c0.421,0.36 0.631,0.865 0.631,1.517l0,2.519c0.004,0.552 0.081,0.969 0.231,1.252l0,0.091l-1.568,-0Zm-1.284,-1.08c0.229,0 0.44,-0.051 0.634,-0.153c0.193,-0.102 0.336,-0.239 0.429,-0.411l0,-0.999l-0.58,0c-0.777,0 -1.19,0.269 -1.24,0.806l-0.006,0.091c0,0.194 0.068,0.353 0.204,0.478c0.136,0.126 0.323,0.188 0.559,0.188Z" style="fill:#fff;fill-rule:nonzero;"/><rect x="208.46" y="31.381" width="1.558" height="8.25" style="fill:#fff;fill-rule:nonzero;"/></g></g><g id="Mercado_total"><g><path d="M78.106,178.928l2.922,8.25l2.906,-8.25l3.078,0l0,11.375l-2.351,0l-0,-3.109l0.234,-5.368l-3.07,8.477l-1.609,0l-3.063,-8.469l0.234,5.36l0,3.109l-2.343,-0l-0,-11.375l3.062,-0Z" style="fill:#d64626;fill-rule:nonzero;"/><path d="M92.801,190.459c-1.239,0 -2.248,-0.38 -3.027,-1.14c-0.779,-0.761 -1.168,-1.774 -1.168,-3.039l0,-0.219c0,-0.849 0.164,-1.608 0.492,-2.278c0.328,-0.669 0.793,-1.184 1.395,-1.546c0.601,-0.362 1.288,-0.543 2.058,-0.543c1.157,-0 2.067,0.364 2.731,1.093c0.664,0.73 0.996,1.763 0.996,3.102l0,0.922l-5.383,-0c0.073,0.552 0.293,0.995 0.66,1.328c0.368,0.333 0.832,0.5 1.395,0.5c0.87,-0 1.549,-0.315 2.039,-0.945l1.109,1.242c-0.338,0.479 -0.797,0.853 -1.375,1.121c-0.578,0.268 -1.218,0.402 -1.922,0.402Zm-0.257,-6.945c-0.448,-0 -0.812,0.152 -1.09,0.455c-0.279,0.304 -0.457,0.738 -0.535,1.303l3.14,-0l0,-0.181c-0.01,-0.502 -0.146,-0.89 -0.406,-1.165c-0.26,-0.275 -0.63,-0.412 -1.109,-0.412Z" style="fill:#d64626;fill-rule:nonzero;"/><path d="M102.309,183.967c-0.307,-0.042 -0.578,-0.062 -0.812,-0.062c-0.854,-0 -1.414,0.289 -1.68,0.867l0,5.531l-2.258,0l0,-8.453l2.133,-0l0.063,1.008c0.453,-0.776 1.08,-1.164 1.882,-1.164c0.25,-0 0.485,0.033 0.704,0.101l-0.032,2.172Z" style="fill:#d64626;fill-rule:nonzero;"/><path d="M106.762,188.639c0.417,-0 0.756,-0.115 1.016,-0.344c0.26,-0.229 0.396,-0.534 0.406,-0.914l2.117,0c-0.005,0.573 -0.161,1.098 -0.468,1.574c-0.308,0.477 -0.728,0.847 -1.262,1.11c-0.534,0.263 -1.124,0.394 -1.77,0.394c-1.208,0 -2.161,-0.384 -2.859,-1.152c-0.698,-0.768 -1.047,-1.83 -1.047,-3.184l0,-0.148c0,-1.302 0.347,-2.341 1.039,-3.117c0.693,-0.776 1.643,-1.164 2.852,-1.164c1.057,-0 1.905,0.3 2.543,0.902c0.638,0.602 0.962,1.402 0.972,2.402l-2.117,0c-0.01,-0.439 -0.146,-0.797 -0.406,-1.072c-0.26,-0.275 -0.604,-0.412 -1.031,-0.412c-0.526,-0 -0.923,0.192 -1.192,0.575c-0.268,0.383 -0.402,1.005 -0.402,1.866l0,0.235c0,0.871 0.133,1.497 0.398,1.878c0.266,0.381 0.67,0.571 1.211,0.571Z" style="fill:#d64626;fill-rule:nonzero;"/><path d="M116.489,190.303c-0.104,-0.203 -0.18,-0.456 -0.227,-0.758c-0.546,0.61 -1.257,0.914 -2.132,0.914c-0.829,0 -1.515,-0.239 -2.059,-0.718c-0.544,-0.48 -0.816,-1.084 -0.816,-1.813c-0,-0.896 0.332,-1.583 0.996,-2.063c0.664,-0.479 1.623,-0.721 2.879,-0.726l1.039,-0l-0,-0.484c-0,-0.391 -0.101,-0.704 -0.301,-0.938c-0.201,-0.234 -0.517,-0.352 -0.949,-0.352c-0.381,0 -0.679,0.092 -0.895,0.274c-0.216,0.182 -0.324,0.432 -0.324,0.75l-2.258,-0c0,-0.49 0.151,-0.943 0.453,-1.359c0.302,-0.417 0.729,-0.744 1.281,-0.981c0.553,-0.237 1.172,-0.355 1.86,-0.355c1.041,-0 1.868,0.261 2.48,0.785c0.612,0.523 0.918,1.259 0.918,2.207l0,3.664c0.005,0.802 0.117,1.409 0.336,1.82l0,0.133l-2.281,0Zm-1.867,-1.57c0.333,-0 0.64,-0.075 0.922,-0.223c0.281,-0.148 0.489,-0.348 0.625,-0.598l-0,-1.453l-0.844,0c-1.13,0 -1.732,0.391 -1.805,1.172l-0.008,0.133c0,0.281 0.099,0.513 0.297,0.695c0.198,0.183 0.469,0.274 0.813,0.274Z" style="fill:#d64626;fill-rule:nonzero;"/><path d="M119.817,186.014c0,-1.318 0.296,-2.367 0.887,-3.149c0.591,-0.781 1.4,-1.171 2.426,-1.171c0.822,-0 1.502,0.307 2.039,0.921l-0,-4.312l2.265,0l0,12l-2.039,0l-0.109,-0.898c-0.563,0.703 -1.287,1.054 -2.172,1.054c-0.995,0 -1.793,-0.392 -2.395,-1.176c-0.601,-0.783 -0.902,-1.873 -0.902,-3.269Zm2.258,0.161c-0,0.795 0.138,1.404 0.414,1.828c0.276,0.424 0.677,0.636 1.203,0.636c0.698,-0 1.19,-0.296 1.477,-0.887l-0,-3.351c-0.282,-0.591 -0.769,-0.887 -1.461,-0.887c-1.089,-0 -1.633,0.887 -1.633,2.661Z" style="fill:#d64626;fill-rule:nonzero;"/><path d="M128.833,185.998c-0,-0.838 0.161,-1.586 0.484,-2.242c0.323,-0.656 0.788,-1.164 1.395,-1.523c0.606,-0.36 1.311,-0.539 2.113,-0.539c1.141,-0 2.071,0.349 2.793,1.046c0.721,0.698 1.124,1.646 1.207,2.844l0.016,0.578c-0,1.297 -0.362,2.338 -1.086,3.121c-0.724,0.784 -1.696,1.176 -2.914,1.176c-1.219,0 -2.192,-0.39 -2.918,-1.172c-0.727,-0.781 -1.09,-1.843 -1.09,-3.187l-0,-0.102Zm2.258,0.161c-0,0.803 0.151,1.417 0.453,1.842c0.302,0.425 0.734,0.638 1.297,0.638c0.546,-0 0.973,-0.21 1.281,-0.63c0.307,-0.42 0.461,-1.091 0.461,-2.015c-0,-0.787 -0.154,-1.398 -0.461,-1.831c-0.308,-0.433 -0.74,-0.649 -1.297,-0.649c-0.552,-0 -0.979,0.215 -1.281,0.645c-0.302,0.431 -0.453,1.097 -0.453,2Z" style="fill:#d64626;fill-rule:nonzero;"/><path d="M144.919,179.772l-0,2.078l1.445,-0l-0,1.656l-1.445,0l-0,4.219c-0,0.312 0.06,0.536 0.179,0.672c0.12,0.135 0.349,0.203 0.688,0.203c0.25,-0 0.471,-0.018 0.664,-0.055l-0,1.711c-0.443,0.136 -0.899,0.203 -1.367,0.203c-1.584,0 -2.391,-0.799 -2.422,-2.398l-0,-4.555l-1.235,0l0,-1.656l1.235,-0l-0,-2.078l2.258,-0Z" style="fill:#d64626;fill-rule:nonzero;"/><path d="M147.036,185.998c-0,-0.838 0.161,-1.586 0.484,-2.242c0.323,-0.656 0.788,-1.164 1.395,-1.523c0.606,-0.36 1.311,-0.539 2.113,-0.539c1.141,-0 2.072,0.349 2.793,1.046c0.721,0.698 1.124,1.646 1.207,2.844l0.016,0.578c-0,1.297 -0.362,2.338 -1.086,3.121c-0.724,0.784 -1.696,1.176 -2.914,1.176c-1.219,0 -2.192,-0.39 -2.918,-1.172c-0.727,-0.781 -1.09,-1.843 -1.09,-3.187l-0,-0.102Zm2.258,0.161c-0,0.803 0.151,1.417 0.453,1.842c0.302,0.425 0.734,0.638 1.297,0.638c0.547,-0 0.974,-0.21 1.281,-0.63c0.307,-0.42 0.461,-1.091 0.461,-2.015c-0,-0.787 -0.154,-1.398 -0.461,-1.831c-0.307,-0.433 -0.74,-0.649 -1.297,-0.649c-0.552,-0 -0.979,0.215 -1.281,0.645c-0.302,0.431 -0.453,1.097 -0.453,2Z" style="fill:#d64626;fill-rule:nonzero;"/><path d="M159.137,179.772l0,2.078l1.446,-0l-0,1.656l-1.446,0l0,4.219c0,0.312 0.06,0.536 0.18,0.672c0.12,0.135 0.349,0.203 0.688,0.203c0.25,-0 0.471,-0.018 0.664,-0.055l-0,1.711c-0.443,0.136 -0.899,0.203 -1.368,0.203c-1.583,0 -2.39,-0.799 -2.421,-2.398l-0,-4.555l-1.235,0l0,-1.656l1.235,-0l-0,-2.078l2.257,-0Z" style="fill:#d64626;fill-rule:nonzero;"/><path d="M166.739,190.303c-0.104,-0.203 -0.18,-0.456 -0.227,-0.758c-0.546,0.61 -1.257,0.914 -2.132,0.914c-0.829,0 -1.515,-0.239 -2.059,-0.718c-0.544,-0.48 -0.816,-1.084 -0.816,-1.813c-0,-0.896 0.332,-1.583 0.996,-2.063c0.664,-0.479 1.623,-0.721 2.879,-0.726l1.039,-0l-0,-0.484c-0,-0.391 -0.101,-0.704 -0.301,-0.938c-0.201,-0.234 -0.517,-0.352 -0.949,-0.352c-0.381,0 -0.679,0.092 -0.895,0.274c-0.216,0.182 -0.324,0.432 -0.324,0.75l-2.258,-0c0,-0.49 0.151,-0.943 0.453,-1.359c0.302,-0.417 0.729,-0.744 1.281,-0.981c0.553,-0.237 1.172,-0.355 1.86,-0.355c1.041,-0 1.868,0.261 2.48,0.785c0.612,0.523 0.918,1.259 0.918,2.207l0,3.664c0.005,0.802 0.117,1.409 0.336,1.82l0,0.133l-2.281,0Zm-1.867,-1.57c0.333,-0 0.64,-0.075 0.922,-0.223c0.281,-0.148 0.489,-0.348 0.625,-0.598l-0,-1.453l-0.844,0c-1.13,0 -1.732,0.391 -1.805,1.172l-0.008,0.133c0,0.281 0.099,0.513 0.297,0.695c0.198,0.183 0.469,0.274 0.813,0.274Z" style="fill:#d64626;fill-rule:nonzero;"/><rect x="170.536" y="178.303" width="2.266" height="12" style="fill:#d64626;fill-rule:nonzero;"/></g></g><path id="Icon_awesome-arrow-alt-circle-down" d="M141.903,154.862l0,0.004c0,9.566 -7.872,17.438 -17.438,17.438c-9.566,-0 -17.438,-7.872 -17.438,-17.438c0,-9.566 7.872,-17.438 17.438,-17.438c0.001,-0 0.003,-0 0.004,-0c9.564,-0 17.434,7.87 17.434,17.434Zm-20.532,-8.153l-0,8.156l-4.985,-0c-0.001,-0 -0.002,-0 -0.003,-0c-0.463,-0 -0.844,0.381 -0.844,0.844c-0,0.224 0.089,0.439 0.247,0.597l8.079,8.037c0.157,0.158 0.371,0.248 0.594,0.248c0.223,-0 0.437,-0.09 0.594,-0.248l8.079,-8.037c0.158,-0.158 0.247,-0.373 0.247,-0.597c0,-0.463 -0.381,-0.844 -0.844,-0.844c-0.001,-0 -0.002,-0 -0.003,-0l-4.973,-0l-0,-8.156c-0.001,-0.463 -0.381,-0.843 -0.844,-0.844l-4.5,-0c-0.463,0.001 -0.843,0.381 -0.844,0.844Z" style="fill:#d64626;fill-rule:nonzero;"/></g><defs><linearGradient id="_Linear1" x1="0" y1="0" x2="1" y2="0" gradientUnits="userSpaceOnUse" gradientTransform="matrix(-382.999,4.69038e-14,-4.69038e-14,-382.999,626.848,75.01)"><stop offset="0" style="stop-color:#e4636c;stop-opacity:1"/><stop offset="1" style="stop-color:#af2e38;stop-opacity:1"/></linearGradient><linearGradient id="_Linear2" x1="0" y1="0" x2="1" y2="0" gradientUnits="userSpaceOnUse" gradientTransform="matrix(-382.991,4.69029e-14,-4.69029e-14,-382.991,626.848,47.5455)"><stop offset="0" style="stop-color:#af2e38;stop-opacity:1"/><stop offset="1" style="stop-color:#e4636c;stop-opacity:1"/></linearGradient></defs></svg>