<svg xmlns="http://www.w3.org/2000/svg" xmlns:xlink="http://www.w3.org/1999/xlink" width="254.266" height="194.303" viewBox="0 0 254.266 194.303">
  <defs>
    <linearGradient id="linear-gradient" y1="0.5" x2="1" y2="0.5" gradientUnits="objectBoundingBox">
      <stop offset="0" stop-color="#e4636c"/>
      <stop offset="1" stop-color="#af2e38"/>
    </linearGradient>
    <filter id="Trazado_24695" x="0.564" y="20.239" width="253.701" height="119.458" filterUnits="userSpaceOnUse">
      <feOffset dx="2.975" dy="4.958" input="SourceAlpha"/>
      <feGaussianBlur stdDeviation="2.479" result="blur"/>
      <feFlood flood-opacity="0.4"/>
      <feComposite operator="in" in2="blur"/>
      <feComposite in="SourceGraphic"/>
    </filter>
    <linearGradient id="linear-gradient-2" y1="0.5" x2="1" y2="0.5" gradientUnits="objectBoundingBox">
      <stop offset="0" stop-color="#af2e38"/>
      <stop offset="1" stop-color="#e4636c"/>
    </linearGradient>
    <filter id="Trazado_24697" x="0" y="20.088" width="254.002" height="119.758" filterUnits="userSpaceOnUse">
      <feOffset dx="2.975" dy="4.958" input="SourceAlpha"/>
      <feGaussianBlur stdDeviation="2.479" result="blur-2"/>
      <feFlood flood-color="#fff" flood-opacity="0.4"/>
      <feComposite operator="in" in2="blur-2"/>
      <feComposite in="SourceGraphic"/>
    </filter>
  </defs>
  <g id="Grupo_25563" data-name="Grupo 25563" transform="translate(626.434 -302.141)">
    <g id="Grupo_25559" data-name="Grupo 25559" transform="translate(-621.406 324.859)">
      <g id="Grupo_25558" data-name="Grupo 25558" transform="translate(0 0)" style="isolation: isolate">
        <g transform="matrix(1, 0, 0, 1, -5.03, -22.72)" filter="url(#Trazado_24695)">
          <path id="Trazado_24695-2" data-name="Trazado 24695" d="M-383,357.1c0-.075-.015-.15-.022-.225-.016-.165-.036-.329-.068-.493-.016-.085-.036-.17-.056-.256-.037-.156-.082-.312-.132-.466-.028-.084-.055-.167-.085-.25-.065-.169-.14-.339-.221-.508-.032-.065-.057-.13-.091-.195a7.769,7.769,0,0,0-.4-.7c-.023-.035-.052-.071-.076-.107-.132-.195-.272-.389-.425-.582-.06-.075-.126-.151-.189-.226-.13-.155-.263-.308-.406-.462-.077-.082-.155-.165-.237-.246-.148-.151-.3-.3-.464-.449-.083-.078-.165-.155-.251-.232-.195-.173-.4-.346-.613-.518-.062-.05-.119-.1-.182-.15q-.423-.331-.885-.66c-.075-.052-.153-.1-.229-.155-.24-.167-.487-.333-.745-.5-.117-.075-.239-.149-.357-.224-.232-.143-.467-.286-.71-.428q-.2-.117-.4-.232c-.254-.145-.516-.287-.782-.43-.129-.069-.256-.139-.389-.209q-.52-.27-1.07-.539c-.058-.028-.113-.058-.172-.086q-.643-.311-1.327-.616l-.4-.175q-.5-.218-1.009-.434c-.068-.028-.132-.058-.2-.086-.122-.05-.251-.1-.374-.15-.256-.1-.514-.209-.777-.312-.207-.082-.419-.164-.63-.245q-.4-.152-.808-.3l-.66-.242q-.42-.151-.848-.3c-.225-.079-.451-.157-.68-.235q-.446-.151-.9-.3c-.152-.05-.3-.1-.454-.152-.091-.03-.187-.059-.278-.089-.189-.062-.381-.122-.571-.182-.31-.1-.62-.194-.934-.29l-.582-.177c-.333-.1-.671-.2-1.011-.3-.181-.053-.36-.106-.543-.158-.389-.112-.785-.223-1.184-.333l-.425-.118-.084-.024-.226-.058c-.667-.182-1.349-.361-2.04-.538l-.64-.162c-.783-.2-1.574-.393-2.386-.585l-.023-.006-.165-.038c-.688-.162-1.39-.322-2.1-.481-.244-.055-.491-.108-.737-.163q-.836-.182-1.688-.363l-.466-.1c-.1-.022-.213-.043-.316-.065-.556-.115-1.12-.229-1.686-.342-.2-.04-.4-.082-.609-.122q-1.174-.231-2.38-.456l-.059-.011-.476-.086c-.576-.106-1.154-.211-1.74-.315-.295-.052-.595-.1-.893-.155-.486-.085-.972-.169-1.464-.252l-.318-.054c-.226-.038-.456-.074-.683-.111q-.666-.111-1.338-.218l-1.052-.165-1.317-.2c-.174-.025-.346-.053-.52-.079-.209-.032-.421-.061-.63-.092q-.618-.091-1.243-.181c-.377-.055-.754-.109-1.135-.162l-1.3-.18-.619-.085-.58-.076-1.146-.15q-.637-.083-1.282-.164l-1.177-.147-.632-.079-.646-.075-1.176-.139-1.277-.146q-.619-.07-1.242-.139l-.509-.057-.348-.035q-2.077-.224-4.2-.431l-.22-.023-.43-.039c-1.329-.127-2.668-.251-4.023-.368l-.122-.012-.038,0q-1.953-.169-3.947-.322c-.157-.012-.31-.026-.469-.038l-.41-.03q-1.742-.133-3.508-.254l-.063-.005-.362-.023q-1.457-.1-2.931-.189l-.431-.028c-.226-.013-.454-.025-.68-.038q-1.123-.067-2.254-.129l-.613-.035c-.171-.01-.343-.018-.516-.027l-1.433-.074-.83-.042-.623-.028-1.34-.062-.842-.038-.694-.028c-.457-.019-.917-.038-1.375-.056-.254-.01-.506-.022-.761-.031-.309-.012-.62-.023-.93-.034l-.827-.03-.339-.012q-1.014-.035-2.032-.066l-.142,0-.573-.016c-.443-.013-.884-.027-1.329-.038l-.788-.02-.764-.019c-.167,0-.333-.009-.5-.012q-.973-.023-1.953-.042h0l-.125,0-.366-.006-1.1-.02-1.593-.025h-.049l-.2,0c-.451-.007-.9-.012-1.354-.018l-1.358-.014-.322,0-1.536-.012-1.425-.007h-.172l-1.455,0h-1.5l-1.4,0-1.442.008h-.117l-.225,0-1.1.009-1.434.014-.244,0-.3,0q-.483,0-.964.012l-1.669.025-.144,0-.211,0-1.308.024-1.3.029-.337.006h-.015q-.827.018-1.649.04l-1.031.029-.3.008-.31.008q-1.2.035-2.387.074l-.082,0c-.681.022-1.358.048-2.036.073-.3.012-.609.021-.912.033h-.034q-1.483.058-2.956.123h-.047q-2.645.119-5.244.259l-.268.014q-2.511.139-4.977.3l-.319.019-.268.018-.987.066-1.188.081-.471.035-1.017.074-.931.068-.658.051-1.071.084c-.222.018-.446.034-.667.052l-.977.081c-.255.021-.51.041-.764.063l-.378.031q-.84.072-1.675.146l-.233.021-.424.039-1.006.091-1.083.1-.416.038-.151.015q-.821.079-1.636.161l-.475.048-.506.052-.648.066c-.547.058-1.091.115-1.633.174h-.008l-.027,0-1.583.174-.673.078-.467.053-.463.053q-.8.094-1.589.189l-.16.02-.366.045-1.135.139-.6.078q-.427.053-.851.109c-.172.022-.347.043-.52.066-.349.045-.694.092-1.041.139l-.643.086-.263.035q-.967.133-1.921.269l-.024,0-.209.031q-.937.134-1.863.271l-.132.021q-1.285.192-2.544.39l-.032,0-.245.04q-1.108.177-2.2.358l-.206.033c-.132.022-.26.045-.393.068q-1.2.2-2.382.413l-.446.077-.386.071-.782.144c-.416.077-.832.154-1.244.232-.264.051-.527.1-.789.152l-.519.1c-.185.036-.365.074-.549.11q-.591.117-1.174.236-.48.1-.955.2-.568.118-1.129.238c-.181.038-.366.076-.547.115-.126.027-.248.055-.373.083-.48.1-.954.211-1.425.318l-.738.166c-.583.135-1.157.27-1.726.407l-.336.079-.043.011c-.714.173-1.415.349-2.106.527-.2.051-.393.1-.59.155q-.756.2-1.493.4c-.107.029-.22.058-.327.088s-.226.064-.342.1q-.65.18-1.285.363l-.653.189c-.494.145-.979.292-1.458.439-.1.032-.212.064-.315.1l-.056.018q-.86.268-1.689.541c-.14.046-.274.093-.412.139-.407.137-.811.273-1.206.412l-.154.052c-.162.057-.316.115-.476.172-.3.108-.6.215-.893.324-.2.075-.4.152-.6.228-.289.11-.576.219-.857.33-.081.032-.167.064-.247.1-.123.049-.239.1-.362.149-.242.1-.483.2-.72.3-.206.085-.408.172-.609.259q-.338.145-.668.292c-.1.043-.2.085-.291.128s-.208.1-.313.147q-.292.134-.576.269c-.2.094-.389.187-.58.281s-.375.186-.558.279c-.085.043-.174.085-.258.129s-.186.1-.282.15c-.173.092-.345.184-.514.276s-.344.191-.513.287-.322.184-.478.276c-.068.04-.141.08-.209.12-.1.059-.189.119-.286.179-.14.087-.281.173-.417.261-.161.1-.316.206-.47.309-.129.085-.257.172-.382.258-.044.031-.092.062-.136.092-.107.075-.2.152-.309.228s-.232.169-.345.253c-.142.109-.276.217-.411.326-.1.085-.212.169-.312.253-.021.018-.045.035-.065.052-.115.1-.22.2-.329.294-.087.078-.179.156-.262.235-.144.135-.279.272-.412.409-.058.058-.121.118-.177.177l-.007.007h0q-.272.29-.512.58c-.046.057-.086.113-.131.17-.1.132-.209.263-.3.395-.008.011-.013.022-.022.033-.054.077-.1.154-.151.232-.081.123-.162.246-.235.37-.049.085-.092.169-.137.255s-.1.183-.148.275c-.012.025-.02.052-.032.077-.044.095-.081.19-.12.285-.045.112-.092.222-.13.334s-.059.193-.088.29c-.022.077-.051.153-.07.231-.006.027-.007.054-.013.081a5.509,5.509,0,0,0-.125.76q-.017.207-.018.411c0,.055.008.11.009.165,0,.1.008.2.016.295.011.129.027.259.047.389.015.1.032.194.052.292.011.051.015.1.028.152.022.094.055.188.082.281.02.067.037.133.06.2a6.19,6.19,0,0,0,.249.638q13.8,30.072,27.6,60.14c.022.048.051.1.074.144.034.068.068.136.106.2s.06.11.093.165.052.085.078.128.07.112.107.167c.049.075.1.149.156.222.032.045.062.089.1.132s.052.069.079.1c.071.091.148.182.226.272.029.034.055.069.086.1l.032.039c.012.015.026.028.038.041.088.1.182.192.276.286.053.055.1.109.159.163l.042.042c.028.027.058.053.088.079.079.075.161.149.244.224.038.034.072.067.11.1s.075.062.111.092l.192.159c.079.064.152.129.233.192.044.035.092.068.136.1l.064.048c.071.055.142.109.216.163.056.042.111.083.169.124.075.054.155.107.232.16l.126.088c.056.037.109.075.166.114l.109.072c.089.058.184.117.277.175.119.077.237.153.362.228l.079.048c.089.054.183.107.274.16.139.081.276.162.419.242.047.027.091.054.138.079s.118.062.176.095l.022.011c.146.078.292.159.443.237l.256.132.2.1c.121.061.244.121.367.182l.38.183.047.023.149.072.291.132c.133.062.267.122.4.183.1.044.2.09.3.135l.248.105.379.162.439.182.277.113.258.1c.192.075.388.151.584.226.038.015.076.031.116.044.062.025.122.049.185.072.045.018.091.034.135.052.208.077.421.155.634.231l.425.155.074.027.008,0c.215.075.436.151.656.226.122.041.24.084.364.125.066.022.134.043.2.067l.406.132c.177.058.35.117.531.174l.2.062.168.052.46.144c.121.037.239.075.36.111.146.045.3.089.443.132l.155.046.4.12.227.066.519.148c.211.059.42.12.634.179l.142.038.538.145c.242.065.484.131.73.195.068.019.135.038.205.055l.2.052.193.048c.245.063.491.126.74.189l.395.1.37.091.612.148.6.143.339.08.479.109.657.149.433.1.4.087.635.138.606.129.458.1.438.089c.275.055.553.112.831.167l.466.093.236.046.9.172.615.117.146.028.882.159.632.114.22.038c.206.037.416.072.624.109l.419.072.367.064.422.069c.239.041.478.08.717.119.172.028.342.058.516.085.2.032.4.063.6.094l.092.015.688.109.319.049c.237.037.479.072.718.108l.585.089.446.066.763.11.954.135.492.069.338.045.988.134.43.057.182.024c.115.016.233.029.349.044q.427.057.857.11l.84.1c.072.009.143.019.216.027l.29.036.5.06.86.1.864.1.443.05.584.065,1.033.111c.235.025.468.052.7.075l.276.028.974.1.859.085.514.051.141.013.161.015.32.03.823.078,1.2.107c.263.022.526.048.791.069.322.029.647.054.971.082.145.012.289.025.435.035l.6.051q1.007.08,2.024.156l.548.039,1.157.083.08.006.041,0,.229.016c.269.019.54.036.81.054l1.276.084.874.054,1.073.065.158.009.916.051c.4.023.8.045,1.208.066.316.018.634.032.952.049l1.14.055c.04,0,.079.005.119.006l.078,0,.828.038c.4.017.791.035,1.188.052q.5.022.994.041l1.186.045.279.011.727.025c.4.015.811.027,1.218.04l.987.03,1.255.035.068,0c.062,0,.123,0,.186.006l.092,0,.623.015c.429.011.859.019,1.29.028l.957.021,1.334.022.34.005.225,0,.362.005,1.505.018c.253,0,.506.006.759.008q1.056.01,2.12.013h.169q1.161,0,2.315,0l.713,0q.794,0,1.586-.007c.249,0,.5,0,.746-.006l.425,0,1.115-.011c.312,0,.621-.009.932-.012l1.345-.021.932-.017c.281-.005.563-.01.844-.017h.091l.054,0,.344-.008c.31-.006.62-.015.931-.022q.658-.016,1.313-.034c.267-.007.534-.015.8-.024l.529-.015.883-.028c.326-.01.653-.022.979-.033.412-.015.822-.029,1.233-.045l.241-.008.14,0,.584-.024,1.231-.051.954-.043.767-.035.267-.013.189-.01c.315-.015.63-.03.944-.047.4-.02.81-.042,1.211-.063q.427-.022.853-.047l.192-.009.175-.011c.3-.017.609-.036.914-.054l.917-.055.373-.023.824-.053.924-.061.458-.03c.143-.01.285-.022.428-.03l.288-.022.906-.064.536-.038.693-.054.827-.062.622-.05.73-.058.682-.058.7-.06.767-.067.54-.048c.265-.023.528-.048.792-.072l.793-.075.4-.037.874-.087.824-.081c.087-.01.176-.018.264-.026l1.005-.106.771-.081.171-.018.036,0c.426-.045.847-.092,1.27-.14l.514-.058.088-.01.61-.072c.41-.048.821-.1,1.227-.145l.134-.015.662-.082,1.1-.137.167-.022c.234-.029.463-.061.695-.092.324-.041.648-.084.968-.127l.268-.035.691-.1q.416-.057.827-.115l.385-.054c.22-.031.439-.064.657-.1.242-.035.486-.07.726-.106l.48-.072.625-.1.625-.1.585-.092.571-.091.553-.091c.226-.037.453-.074.677-.112l.38-.062.1-.017.511-.089q.4-.067.787-.137l.85-.151.521-.094.277-.052.811-.151c.253-.048.506-.1.757-.145l.788-.155c.1-.019.207-.04.309-.061l.461-.092.8-.166.717-.149.462-.1c.1-.024.2-.046.309-.068l.018,0,.7-.153.767-.174.68-.155q.386-.09.763-.181l.652-.156.371-.092c.145-.035.288-.072.432-.108l.573-.145c.2-.05.393-.1.59-.153l.435-.114.314-.084c.272-.072.539-.147.807-.22l.2-.055c.067-.019.138-.037.2-.055l.089-.025q.633-.179,1.246-.36l.144-.044.078-.022.308-.094c.232-.071.464-.14.69-.212l.222-.07.413-.132c.18-.058.363-.115.54-.174.1-.032.2-.065.3-.1.138-.047.275-.092.411-.14s.286-.1.427-.144l.365-.129q.2-.068.389-.139c.112-.04.227-.08.337-.121.149-.054.292-.109.437-.162.08-.031.166-.06.246-.09l.1-.042.262-.1.436-.172.332-.131.239-.1c.152-.062.3-.124.449-.187.1-.041.2-.082.3-.124l.219-.1c.146-.063.287-.126.429-.19.083-.037.17-.073.252-.111l.037-.017.2-.092.409-.194c.1-.045.195-.09.288-.136l.022-.01.163-.083c.127-.062.252-.126.376-.189.093-.047.188-.094.279-.142l.194-.1c.112-.058.222-.118.33-.178.091-.049.182-.1.272-.149.066-.038.13-.075.2-.112l.289-.168.264-.159c.065-.039.129-.079.192-.119.085-.052.168-.1.251-.157s.172-.11.256-.166c.031-.021.065-.04.1-.062l.089-.063c.073-.048.145-.1.215-.147l.266-.189c.063-.046.127-.091.189-.138s.1-.076.154-.115c.094-.072.182-.143.271-.214.062-.049.126-.1.185-.148l.1-.085c.1-.082.186-.162.277-.246.055-.048.115-.1.171-.149.02-.018.039-.038.059-.056.1-.092.187-.183.278-.276l.058-.058c.029-.03.063-.06.092-.09v0l.028-.03c.09-.1.172-.193.256-.289.042-.048.089-.1.13-.146a.262.262,0,0,1,.018-.023c.081-.1.155-.2.229-.3.036-.048.076-.1.109-.145a.124.124,0,0,0,.012-.016c.078-.111.146-.222.214-.334.025-.04.052-.078.075-.119l.01-.016c.015-.027.026-.054.042-.082.068-.123.135-.246.192-.37l27.6-60.141a5.832,5.832,0,0,0,.529-1.952A5.439,5.439,0,0,0-383,357.1Z" transform="translate(626.85 -309.84)" fill="url(#linear-gradient)"/>
        </g>
        <g id="Grupo_25557" data-name="Grupo 25557">
          <path id="Trazado_24696" data-name="Trazado 24696" d="M-383.01,357.817c-1.152,13.71-55.54,24.63-121.48,24.39S-622.952,370.66-621.8,356.95s55.54-24.629,121.48-24.39S-381.859,344.108-383.01,357.817Z" transform="translate(621.82 -332.556)" fill="url(#linear-gradient-2)"/>
        </g>
      </g>
    </g>
    <g id="Grupo_25562" data-name="Grupo 25562" transform="translate(-621.82 324.859)" opacity="0.5" style="mix-blend-mode: overlay;isolation: isolate">
      <g id="Grupo_25561" data-name="Grupo 25561" transform="translate(0 0)" style="isolation: isolate">
        <g transform="matrix(1, 0, 0, 1, -4.61, -22.72)" filter="url(#Trazado_24697)">
          <path id="Trazado_24697-2" data-name="Trazado 24697" d="M-383,357.1c0-.075-.015-.15-.022-.225-.016-.165-.036-.329-.068-.493-.016-.085-.036-.17-.056-.256-.037-.156-.082-.312-.132-.466-.028-.084-.055-.167-.085-.25-.065-.169-.14-.339-.221-.508-.032-.065-.057-.13-.091-.195a7.769,7.769,0,0,0-.4-.7c-.023-.035-.052-.071-.076-.107-.132-.195-.272-.389-.425-.582-.06-.075-.126-.151-.189-.226-.13-.155-.263-.308-.406-.462-.077-.082-.155-.165-.237-.246-.148-.151-.3-.3-.464-.449-.083-.078-.165-.155-.251-.232-.195-.173-.4-.346-.613-.518-.062-.05-.119-.1-.182-.15q-.423-.331-.885-.66c-.075-.052-.153-.1-.229-.155-.24-.167-.487-.333-.745-.5-.117-.075-.239-.149-.357-.224-.232-.143-.467-.286-.71-.428q-.2-.117-.4-.232c-.254-.145-.516-.287-.782-.43-.129-.069-.256-.139-.389-.209q-.52-.27-1.07-.539c-.058-.028-.113-.058-.172-.086q-.643-.311-1.327-.616l-.4-.175q-.5-.218-1.009-.434c-.068-.028-.132-.058-.2-.086-.122-.05-.251-.1-.374-.15-.256-.1-.514-.209-.777-.312-.207-.082-.419-.164-.63-.245q-.4-.152-.808-.3l-.66-.242q-.42-.151-.848-.3c-.225-.079-.451-.157-.68-.235q-.446-.151-.9-.3c-.152-.05-.3-.1-.454-.152-.091-.03-.187-.059-.278-.089-.189-.062-.381-.122-.571-.182-.31-.1-.62-.194-.934-.29l-.582-.177c-.333-.1-.671-.2-1.011-.3-.181-.053-.36-.106-.543-.158-.389-.112-.785-.223-1.184-.333l-.425-.118-.084-.024-.226-.058c-.667-.182-1.349-.361-2.04-.538l-.64-.162c-.783-.2-1.574-.393-2.386-.585l-.023-.006-.165-.038c-.688-.162-1.39-.322-2.1-.481-.244-.055-.491-.108-.737-.163q-.836-.182-1.688-.363l-.466-.1c-.1-.022-.213-.043-.316-.065-.556-.115-1.12-.229-1.686-.342-.2-.04-.4-.082-.609-.122q-1.174-.231-2.38-.456l-.059-.011-.476-.086c-.576-.106-1.154-.211-1.74-.315-.295-.052-.595-.1-.893-.155-.486-.085-.972-.169-1.464-.252l-.318-.054c-.226-.038-.456-.074-.683-.111q-.666-.111-1.338-.218l-1.052-.165-1.317-.2c-.174-.025-.346-.053-.52-.079-.209-.032-.421-.061-.63-.092q-.618-.091-1.243-.181c-.377-.055-.754-.109-1.135-.162l-1.3-.18-.619-.085-.58-.076-1.146-.15q-.637-.083-1.282-.164l-1.177-.147-.632-.079-.646-.075-1.176-.139-1.277-.146q-.619-.07-1.242-.139l-.509-.057-.348-.035q-2.077-.224-4.2-.431l-.22-.023-.43-.039c-1.329-.127-2.668-.251-4.023-.368l-.122-.012-.038,0q-1.953-.169-3.947-.322c-.157-.012-.31-.026-.469-.038l-.41-.03q-1.742-.133-3.508-.254l-.063-.005-.362-.023q-1.457-.1-2.931-.189l-.431-.028c-.226-.013-.454-.025-.68-.038q-1.123-.067-2.254-.129l-.613-.035c-.171-.01-.343-.018-.516-.027l-1.433-.074-.83-.042-.623-.028-1.34-.062-.842-.038-.694-.028c-.457-.019-.917-.038-1.375-.056-.254-.01-.506-.022-.761-.031-.309-.012-.62-.023-.93-.034l-.827-.03-.339-.012q-1.014-.035-2.032-.066l-.142,0-.573-.016c-.443-.013-.884-.027-1.329-.038l-.788-.02-.764-.019c-.167,0-.333-.009-.5-.012q-.973-.023-1.953-.042h0l-.125,0-.366-.006-1.1-.02-1.593-.025h-.049l-.2,0c-.451-.007-.9-.012-1.354-.018l-1.358-.014-.322,0-1.536-.012-1.425-.007h-.172l-1.455,0h-1.5l-1.4,0-1.442.008h-.117l-.225,0-1.1.009-1.434.014-.244,0-.3,0q-.483,0-.964.012l-1.669.025-.144,0-.211,0-1.308.024-1.3.029-.337.006h-.015q-.827.018-1.649.04l-1.031.029-.3.008-.31.008q-1.2.035-2.387.074l-.082,0c-.681.022-1.358.048-2.036.073-.3.012-.609.021-.912.033h-.034q-1.483.058-2.956.123h-.047q-2.645.119-5.244.259l-.268.014q-2.511.139-4.977.3l-.319.019-.268.018-.987.066-1.188.081-.471.035-1.017.074-.931.068-.658.051-1.071.084c-.222.018-.446.034-.667.052l-.977.081c-.255.021-.51.041-.764.063l-.378.031q-.84.072-1.675.146l-.233.021-.424.039-1.006.091-1.083.1-.416.038-.151.015q-.821.079-1.636.161l-.475.048-.506.052-.648.066c-.547.058-1.091.115-1.633.174h-.008l-.027,0-1.583.174-.673.078-.467.053-.463.053q-.8.094-1.589.189l-.16.02-.366.045-1.135.139-.6.078q-.427.053-.851.109c-.172.022-.347.043-.52.066-.349.045-.694.092-1.041.139l-.643.086-.263.035q-.967.133-1.921.269l-.024,0-.209.031q-.937.134-1.863.271l-.132.021q-1.285.192-2.544.39l-.032,0-.245.04q-1.108.177-2.2.358l-.206.033c-.132.022-.26.045-.393.068q-1.2.2-2.382.413l-.446.077-.386.071-.782.144c-.416.077-.832.154-1.244.232-.264.051-.527.1-.789.152l-.519.1c-.185.036-.365.074-.549.11q-.591.117-1.174.236-.48.1-.955.2-.568.118-1.129.238c-.181.038-.366.076-.547.115-.126.027-.248.055-.373.083-.48.1-.954.211-1.425.318l-.738.166c-.583.135-1.157.27-1.726.407l-.336.079-.043.011c-.714.173-1.415.349-2.106.527-.2.051-.393.1-.59.155q-.756.2-1.493.4c-.107.029-.22.058-.327.088s-.226.064-.342.1q-.65.18-1.285.363l-.653.189c-.494.145-.979.292-1.458.439-.1.032-.212.064-.315.1l-.056.018q-.86.268-1.689.541c-.14.046-.274.093-.412.139-.407.137-.811.273-1.206.412l-.154.052c-.162.057-.316.115-.476.172-.3.108-.6.215-.893.324-.2.075-.4.152-.6.228-.289.11-.576.219-.857.33-.081.032-.167.064-.247.1-.123.049-.239.1-.362.149-.242.1-.483.2-.72.3-.206.085-.408.172-.609.259q-.338.145-.668.292c-.1.043-.2.085-.291.128s-.208.1-.313.147q-.292.134-.576.269c-.2.094-.389.187-.58.281s-.375.186-.558.279c-.085.043-.174.085-.258.129s-.186.1-.282.15c-.173.092-.345.184-.514.276s-.344.191-.513.287-.322.184-.478.276c-.068.04-.141.08-.209.12-.1.059-.189.119-.286.179-.14.087-.281.173-.417.261-.161.1-.316.206-.47.309-.129.085-.257.172-.382.258-.044.031-.092.062-.136.092-.107.075-.2.152-.309.228s-.232.169-.345.253c-.142.109-.276.217-.411.326-.1.085-.212.169-.312.253-.021.018-.045.035-.065.052-.115.1-.22.2-.329.294-.087.078-.179.156-.262.235-.144.135-.279.272-.412.409-.058.058-.121.118-.177.177l-.007.007h0q-.272.29-.512.58c-.046.057-.086.113-.131.17-.1.132-.209.263-.3.395-.008.011-.013.022-.022.033-.054.077-.1.154-.151.232-.081.123-.162.246-.235.37-.049.085-.092.169-.137.255s-.1.183-.148.275c-.012.025-.02.052-.032.077-.044.095-.081.19-.12.285-.045.112-.092.222-.13.334s-.059.193-.088.29c-.022.077-.051.153-.07.231-.006.027-.007.054-.013.081a5.509,5.509,0,0,0-.125.76q-.017.207-.018.411c0,.055.008.11.009.165,0,.1.008.2.016.295.011.129.027.259.047.389.015.1.032.194.052.292.011.051.015.1.028.152.022.094.055.188.082.281.02.067.037.133.06.2a6.19,6.19,0,0,0,.249.638q13.8,30.072,27.6,60.14c.022.048.051.1.074.144.034.068.068.136.106.2s.06.11.093.165.052.085.078.128.07.112.107.167c.049.075.1.149.156.222.032.045.062.089.1.132s.052.069.079.1c.071.091.148.182.226.272.029.034.055.069.086.1l.032.039c.012.015.026.028.038.041.088.1.182.192.276.286.053.055.1.109.159.163l.042.042c.028.027.058.053.088.079.079.075.161.149.244.224.038.034.072.067.11.1s.075.062.111.092l.192.159c.079.064.152.129.233.192.044.035.092.068.136.1l.064.048c.071.055.142.109.216.163.056.042.111.083.169.124.075.054.155.107.232.16l.126.088c.056.037.109.075.166.114l.109.072c.089.058.184.117.277.175.119.077.237.153.362.228l.079.048c.089.054.183.107.274.16.139.081.276.162.419.242.047.027.091.054.138.079s.118.062.176.095l.022.011c.146.078.292.159.443.237l.256.132.2.1c.121.061.244.121.367.182l.38.183.047.023.149.072.291.132c.133.062.267.122.4.183.1.044.2.09.3.135l.248.105.379.162.439.182.277.113.258.1c.192.075.388.151.584.226.038.015.076.031.116.044.062.025.122.049.185.072.045.018.091.034.135.052.208.077.421.155.634.231l.425.155.074.027.008,0c.215.075.436.151.656.226.122.041.24.084.364.125.066.022.134.043.2.067l.406.132c.177.058.35.117.531.174l.2.062.168.052.46.144c.121.037.239.075.36.111.146.045.3.089.443.132l.155.046.4.12.227.066.519.148c.211.059.42.12.634.179l.142.038.538.145c.242.065.484.131.73.195.068.019.135.038.205.055l.2.052.193.048c.245.063.491.126.74.189l.395.1.37.091.612.148.6.143.339.08.479.109.657.149.433.1.4.087.635.138.606.129.458.1.438.089c.275.055.553.112.831.167l.466.093.236.046.9.172.615.117.146.028.882.159.632.114.22.038c.206.037.416.072.624.109l.419.072.367.064.422.069c.239.041.478.08.717.119.172.028.342.058.516.085.2.032.4.063.6.094l.092.015.688.109.319.049c.237.037.479.072.718.108l.585.089.446.066.763.11.954.135.492.069.338.045.988.134.43.057.182.024c.115.016.233.029.349.044q.427.057.857.11l.84.1c.072.009.143.019.216.027l.29.036.5.06.86.1.864.1.443.05.584.065,1.033.111c.235.025.468.052.7.075l.276.028.974.1.859.085.514.051.141.013.161.015.32.03.823.078,1.2.107c.263.022.526.048.791.069.322.029.647.054.971.082.145.012.289.025.435.035l.6.051q1.007.08,2.024.156l.548.039,1.157.083.08.006.041,0,.229.016c.269.019.54.036.81.054l1.276.084.874.054,1.073.065.158.009.916.051c.4.023.8.045,1.208.066.316.018.634.032.952.049l1.14.055c.04,0,.079.005.119.006l.078,0,.828.038c.4.017.791.035,1.188.052q.5.022.994.041l1.186.045.279.011.727.025c.4.015.811.027,1.218.04l.987.03,1.255.035.068,0c.062,0,.123,0,.186.006l.092,0,.623.015c.429.011.859.019,1.29.028l.957.021,1.334.022.34.005.225,0,.362.005,1.505.018c.253,0,.506.006.759.008q1.056.01,2.12.013h.169q1.161,0,2.315,0l.713,0q.794,0,1.586-.007c.249,0,.5,0,.746-.006l.425,0,1.115-.011c.312,0,.621-.009.932-.012l1.345-.021.932-.017c.281-.005.563-.01.844-.017h.091l.054,0,.344-.008c.31-.006.62-.015.931-.022q.658-.016,1.313-.034c.267-.007.534-.015.8-.024l.529-.015.883-.028c.326-.01.653-.022.979-.033.412-.015.822-.029,1.233-.045l.241-.008.14,0,.584-.024,1.231-.051.954-.043.767-.035.267-.013.189-.01c.315-.015.63-.03.944-.047.4-.02.81-.042,1.211-.063q.427-.022.853-.047l.192-.009.175-.011c.3-.017.609-.036.914-.054l.917-.055.373-.023.824-.053.924-.061.458-.03c.143-.01.285-.022.428-.03l.288-.022.906-.064.536-.038.693-.054.827-.062.622-.05.73-.058.682-.058.7-.06.767-.067.54-.048c.265-.023.528-.048.792-.072l.793-.075.4-.037.874-.087.824-.081c.087-.01.176-.018.264-.026l1.005-.106.771-.081.171-.018.036,0c.426-.045.847-.092,1.27-.14l.514-.058.088-.01.61-.072c.41-.048.821-.1,1.227-.145l.134-.015.662-.082,1.1-.137.167-.022c.234-.029.463-.061.695-.092.324-.041.648-.084.968-.127l.268-.035.691-.1q.416-.057.827-.115l.385-.054c.22-.031.439-.064.657-.1.242-.035.486-.07.726-.106l.48-.072.625-.1.625-.1.585-.092.571-.091.553-.091c.226-.037.453-.074.677-.112l.38-.062.1-.017.511-.089q.4-.067.787-.137l.85-.151.521-.094.277-.052.811-.151c.253-.048.506-.1.757-.145l.788-.155c.1-.019.207-.04.309-.061l.461-.092.8-.166.717-.149.462-.1c.1-.024.2-.046.309-.068l.018,0,.7-.153.767-.174.68-.155q.386-.09.763-.181l.652-.156.371-.092c.145-.035.288-.072.432-.108l.573-.145c.2-.05.393-.1.59-.153l.435-.114.314-.084c.272-.072.539-.147.807-.22l.2-.055c.067-.019.138-.037.2-.055l.089-.025q.633-.179,1.246-.36l.144-.044.078-.022.308-.094c.232-.071.464-.14.69-.212l.222-.07.413-.132c.18-.058.363-.115.54-.174.1-.032.2-.065.3-.1.138-.047.275-.092.411-.14s.286-.1.427-.144l.365-.129q.2-.068.389-.139c.112-.04.227-.08.337-.121.149-.054.292-.109.437-.162.08-.031.166-.06.246-.09l.1-.042.262-.1.436-.172.332-.131.239-.1c.152-.062.3-.124.449-.187.1-.041.2-.082.3-.124l.219-.1c.146-.063.287-.126.429-.19.083-.037.17-.073.252-.111l.037-.017.2-.092.409-.194c.1-.045.195-.09.288-.136l.022-.01.163-.083c.127-.062.252-.126.376-.189.093-.047.188-.094.279-.142l.194-.1c.112-.058.222-.118.33-.178.091-.049.182-.1.272-.149.066-.038.13-.075.2-.112l.289-.168.264-.159c.065-.039.129-.079.192-.119.085-.052.168-.1.251-.157s.172-.11.256-.166c.031-.021.065-.04.1-.062l.089-.063c.073-.048.145-.1.215-.147l.266-.189c.063-.046.127-.091.189-.138s.1-.076.154-.115c.094-.072.182-.143.271-.214.062-.049.126-.1.185-.148l.1-.085c.1-.082.186-.162.277-.246.055-.048.115-.1.171-.149.02-.018.039-.038.059-.056.1-.092.187-.183.278-.276l.058-.058c.029-.03.063-.06.092-.09v0l.028-.03c.09-.1.172-.193.256-.289.042-.048.089-.1.13-.146a.262.262,0,0,1,.018-.023c.081-.1.155-.2.229-.3.036-.048.076-.1.109-.145a.124.124,0,0,0,.012-.016c.078-.111.146-.222.214-.334.025-.04.052-.078.075-.119l.01-.016c.015-.027.026-.054.042-.082.068-.123.135-.246.192-.37l27.6-60.141a5.832,5.832,0,0,0,.529-1.952A5.439,5.439,0,0,0-383,357.1Z" transform="translate(626.43 -309.84)" fill="none" stroke="#fff" stroke-miterlimit="10" stroke-width="0.3"/>
        </g>
        <g id="Grupo_25560" data-name="Grupo 25560">
          <path id="Trazado_24698" data-name="Trazado 24698" d="M-383.01,357.817c-1.152,13.71-55.54,24.63-121.48,24.39S-622.952,370.66-621.8,356.95s55.54-24.629,121.48-24.39S-381.859,344.108-383.01,357.817Z" transform="translate(621.82 -332.556)" fill="none" stroke="#fff" stroke-miterlimit="10" stroke-width="0.3"/>
        </g>
      </g>
    </g>
    <circle id="Elipse_1371" data-name="Elipse 1371" cx="30.786" cy="30.786" r="30.786" transform="translate(-603.794 302.141)" fill="#d64626"/>
    <text id="Mercado_Meta" data-name="Mercado
Meta" transform="translate(-573.006 330.772)" fill="#fff" font-size="11" font-family="Roboto-Bold, Roboto" font-weight="700"><tspan x="-21.772" y="0">Mercado</tspan><tspan x="-12.598" y="11">Meta</tspan></text>
    <circle id="Elipse_1372" data-name="Elipse 1372" cx="30.786" cy="30.786" r="30.786" transform="translate(-530.714 302.141)" fill="#d64626"/>
    <text id="Mercado_Potencial" data-name="Mercado
Potencial" transform="translate(-499.926 330.772)" fill="#fff" font-size="11" font-family="Roboto-Bold, Roboto" font-weight="700"><tspan x="-21.772" y="0">Mercado</tspan><tspan x="-23.268" y="11">Potencial</tspan></text>
    <circle id="Elipse_1373" data-name="Elipse 1373" cx="30.786" cy="30.786" r="30.786" transform="translate(-457.41 302.141)" fill="#d64626"/>
    <text id="Mercado_Real" data-name="Mercado
Real" transform="translate(-426.624 330.772)" fill="#fff" font-size="11" font-family="Roboto-Bold, Roboto" font-weight="700"><tspan x="-21.772" y="0">Mercado</tspan><tspan x="-10.89" y="11">Real</tspan></text>
    <text id="Mercado_total" data-name="Mercado total" transform="translate(-552.406 492.444)" fill="#d64626" font-size="16" font-family="Roboto-Bold, Roboto" font-weight="700"><tspan x="0" y="0">Mercado total</tspan></text>
    <path id="Icon_awesome-arrow-alt-circle-down" data-name="Icon awesome-arrow-alt-circle-down" d="M35.438,18A17.438,17.438,0,1,1,18,.563,17.434,17.434,0,0,1,35.438,18ZM14.906,9.844V18H9.921a.844.844,0,0,0-.6,1.441L17.4,27.478a.836.836,0,0,0,1.188,0l8.079-8.037a.844.844,0,0,0-.6-1.441H21.094V9.844A.846.846,0,0,0,20.25,9h-4.5A.846.846,0,0,0,14.906,9.844Z" transform="translate(-519.969 439.006)" fill="#d64626"/>
  </g>
</svg>
