<svg xmlns="http://www.w3.org/2000/svg" width="79" height="79" viewBox="0 0 79 79">
  <g id="Grupo_25658" data-name="Grupo 25658" transform="translate(-514 -24879)">
    <circle id="Base" cx="39.5" cy="39.5" r="39.5" transform="translate(514 24879)" fill="#fff"/>
    <g id="Grupo_25656" data-name="Grupo 25656" transform="translate(530 24894)">
      <g id="Grupo_23120" data-name="Grupo 23120" transform="translate(0 0)">
        <path id="Trazado_22958" data-name="Trazado 22958" d="M1965.841,161.625v-6.789a1.838,1.838,0,0,0,1.435-1.993v-3.912a2.666,2.666,0,0,0-2.573-2.738h0l-.758-.026v-.753a2.817,2.817,0,1,0-2.878,0v.751l-.744.026a2.669,2.669,0,0,0-2.588,2.739v3.912a1.838,1.838,0,0,0,1.435,1.993v6.789a11.818,11.818,0,0,0-4.292,1.32l-13.835-5.914a1.571,1.571,0,0,0,.419-1.031c0-.908-.867-1.608-2.1-2.119l7.842-7.814c.5.03,1,.047,1.5.047,4.271,0,8.811-1.123,8.811-3.2,0-1.625-2.764-2.59-5.474-2.976v-6.789a1.838,1.838,0,0,0,1.434-1.993V127.24a2.666,2.666,0,0,0-2.573-2.738h0l-.758-.026v-.753a2.817,2.817,0,1,0-2.878,0v.751l-.744.026a2.669,2.669,0,0,0-2.587,2.738v3.912a1.838,1.838,0,0,0,1.435,1.993v6.789c-2.708.385-5.47,1.35-5.47,2.976,0,1.664,2.9,2.714,6.247,3.068l-7.627,7.6a16.348,16.348,0,0,0-2.531-.554v-6.79a1.837,1.837,0,0,0,1.435-1.992V140.33a2.666,2.666,0,0,0-2.573-2.738h0l-.759-.026v-.752a2.817,2.817,0,1,0-2.878,0v.751l-.744.026a2.669,2.669,0,0,0-2.587,2.738v3.912a1.837,1.837,0,0,0,1.435,1.992v6.79c-2.708.385-5.469,1.35-5.469,2.976,0,2.082,4.536,3.2,8.8,3.2,2.984,0,6.093-.55,7.7-1.59l13.814,5.905a1.593,1.593,0,0,0-.465,1.081c0,2.081,4.536,3.2,8.8,3.2s8.811-1.123,8.811-3.2C1971.315,162.976,1968.551,162.011,1965.841,161.625Zm-19.146-40.319a2.01,2.01,0,1,1,2.721,1.877,1.961,1.961,0,0,1-1.432,0A2.009,2.009,0,0,1,1946.695,121.306Zm-1.952,9.846V127.24a1.864,1.864,0,0,1,1.793-1.93l1.1-.038c.006,0,.012,0,.018,0s.011,0,.017,0a.4.4,0,0,0,.4-.4v-.822a2.538,2.538,0,0,0,1.261,0v.822a.4.4,0,0,0,.4.4c.006,0,.011,0,.017,0s.011,0,.018,0l1.113.039a1.861,1.861,0,0,1,1.779,1.93v3.912a1.159,1.159,0,0,1-.626,1.167v-2.641a.4.4,0,0,0-.809,0v12.3a1.268,1.268,0,0,1-.32.852,1.009,1.009,0,0,1-.742.335,1.131,1.131,0,0,1-1.062-1.187v-9.633a.4.4,0,0,0-.809,0v9.633a1.131,1.131,0,0,1-1.062,1.187,1,1,0,0,1-.739-.332,1.271,1.271,0,0,1-.323-.856v-12.3a.4.4,0,0,0-.809,0v2.641A1.158,1.158,0,0,1,1944.742,131.152Zm-4.035,11.758c0-.751,1.61-1.7,4.661-2.153v1.219a2.079,2.079,0,0,0,.536,1.4,4.135,4.135,0,0,1,4.266.594,1.834,1.834,0,0,0,1.338-.6,2.077,2.077,0,0,0,.532-1.4v-1.219c3.054.451,4.666,1.4,4.666,2.152,0,1.131-3.422,2.4-8,2.4S1940.707,144.041,1940.707,142.91Zm19.787.087a2.01,2.01,0,1,1,2.722,1.877,1.96,1.96,0,0,1-1.431,0A2.009,2.009,0,0,1,1960.494,143Zm-1.952,9.846v-3.912a1.864,1.864,0,0,1,1.793-1.93l1.1-.038c.006,0,.012,0,.018,0s.011,0,.017,0a.4.4,0,0,0,.4-.4v-.822a2.54,2.54,0,0,0,1.261,0v.822a.4.4,0,0,0,.4.4c.006,0,.011,0,.017,0s.011,0,.018,0l1.114.039a1.861,1.861,0,0,1,1.779,1.93v3.912a1.158,1.158,0,0,1-.626,1.167v-2.641a.4.4,0,0,0-.809,0v12.3a1.266,1.266,0,0,1-.32.852,1.008,1.008,0,0,1-.742.335,1.131,1.131,0,0,1-1.062-1.187v-9.633a.4.4,0,0,0-.809,0v9.633a1.131,1.131,0,0,1-1.062,1.187,1,1,0,0,1-.739-.332,1.268,1.268,0,0,1-.323-.855v-12.3a.4.4,0,0,0-.809,0v2.641A1.158,1.158,0,0,1,1958.542,152.843Zm-27.9-18.447a2.01,2.01,0,1,1,2.722,1.877,1.973,1.973,0,0,1-1.431,0A2.009,2.009,0,0,1,1930.641,134.4Zm-1.952,9.847V140.33a1.864,1.864,0,0,1,1.793-1.93l1.1-.038c.006,0,.011,0,.018,0s.011,0,.017,0a.4.4,0,0,0,.4-.4v-.823a2.546,2.546,0,0,0,1.261,0v.822a.4.4,0,0,0,.4.4c.006,0,.011,0,.017,0s.011,0,.018,0l1.114.039a1.861,1.861,0,0,1,1.779,1.93v3.912a1.158,1.158,0,0,1-.626,1.166v-2.641a.4.4,0,0,0-.809,0v12.3a1.269,1.269,0,0,1-.32.852,1.008,1.008,0,0,1-.741.335,1.131,1.131,0,0,1-1.062-1.187v-9.633a.4.4,0,1,0-.808,0v9.633a1.131,1.131,0,0,1-1.062,1.187,1.006,1.006,0,0,1-.738-.332,1.27,1.27,0,0,1-.323-.855v-12.3a.4.4,0,1,0-.808,0v2.641A1.158,1.158,0,0,1,1928.689,144.242ZM1924.655,156c0-.751,1.61-1.7,4.661-2.152v1.219a2.081,2.081,0,0,0,.536,1.4,4.136,4.136,0,0,1,4.266.594,1.833,1.833,0,0,0,1.337-.6,2.076,2.076,0,0,0,.533-1.4v-1.219c3.053.45,4.665,1.4,4.665,2.152a1.148,1.148,0,0,1-.588.837.387.387,0,0,0-.045.032c-1.191.826-3.958,1.528-7.369,1.528C1928.074,158.4,1924.655,157.13,1924.655,156Zm37.849,11c-4.577,0-8-1.265-8-2.4,0-.751,1.611-1.7,4.661-2.153v1.219a2.078,2.078,0,0,0,.535,1.4,4.136,4.136,0,0,1,4.266.594,1.834,1.834,0,0,0,1.338-.6,2.075,2.075,0,0,0,.532-1.4v-1.219c3.053.451,4.666,1.4,4.666,2.152C1970.506,165.732,1967.084,167,1962.5,167Z" transform="translate(-1923.846 -118.487)"/>
      </g>
    </g>
  </g>
</svg>
