<svg xmlns="http://www.w3.org/2000/svg" width="500" height="300.168" viewBox="0 0 500 300.168">
  <g id="Grupo_55665" data-name="Grupo 55665" transform="translate(-223.202 -145.916)">
    <path id="Trazado_25182" data-name="Trazado 25182" d="M301.621,720.288s-59.208-54.652-10.013-113.822c43.649-52.5,89.369-31.132,132-19.247,30.915,8.619,61.633-7.24,100.657-60.66,53.217-72.85,237.688-28.666,204.053,83.415-16.277,54.239,49.537,56.211,16,110.428Z" transform="translate(-40.619 -274.781)" fill="#ebf3fa"/>
    <path id="Trazado_25183" data-name="Trazado 25183" d="M1888.929,1772.024a1.491,1.491,0,0,0,.143.059h28.28c-.265-1.006-1.19-2.84-4.425-3.366-4.388-.713-11.993-3.262-13.69-8.876-.053-.179-.1-.365-.145-.552-1.347-6-11.142,1.838-11.142,1.838s-.03.238-.071.646C1887.65,1763.973,1887.069,1771.093,1888.929,1772.024Z" transform="translate(-1336.357 -1327.236)" fill="#2c3a64"/>
    <path id="Trazado_25184" data-name="Trazado 25184" d="M1921.484,1243.006s-18.391,65.33-23.932,90.594c0,0-13.651,2.739-15.773-1.551,0,0,4.4-71.143,12.489-80.18C1904.334,1240.627,1921.484,1243.006,1921.484,1243.006Z" transform="translate(-1330.483 -899.785)" fill="#2c3a64"/>
    <g id="Grupo_55629" data-name="Grupo 55629" transform="translate(506.209 232.842)">
      <path id="Trazado_25185" data-name="Trazado 25185" d="M2096.067,730.24a13.575,13.575,0,0,1,.27-5.356c.753-2.434,3.9-8.853,2.905-11.084s-4.6-8.232-6.828-8.214,2.339,6.423,1.712,8.423-.834,2.163-1.607,1.987-1.95-4.007-2.341-3.113-.164,6.822.572,8.3-.773,9.824-.773,9.824Z" transform="translate(-1990.337 -686.078)" fill="#ed975d"/>
      <path id="Trazado_25186" data-name="Trazado 25186" d="M1905.423,828.107s-4.924-2.8-8.733-1.618c0,0-7.558,21.768-11.72,37.776a336.313,336.313,0,0,1-12.906-39.378s-9.687,13.378-13.185,22.274,17.4,40.105,25.512,42.554c8.464,2.556,6.923,0,11.7-2.737C1897.627,884.985,1902.54,875.063,1905.423,828.107Z" transform="translate(-1797.914 -785.246)" fill="#ffa412"/>
      <path id="Trazado_25187" data-name="Trazado 25187" d="M2262.109,1778.062a1.437,1.437,0,0,0,.143.059h28.28c-.265-1.006-1.19-2.84-4.425-3.365-4.388-.713-11.994-3.262-13.69-8.876-.053-.179-.1-.365-.145-.552-1.347-6-11.142,1.838-11.142,1.838s-.031.238-.071.646C2260.83,1770.011,2260.249,1777.131,2262.109,1778.062Z" transform="translate(-2132.323 -1565.097)" fill="#2c3a64"/>
      <path id="Trazado_25188" data-name="Trazado 25188" d="M1622.795,1208.38a36.781,36.781,0,0,0-6.155,3.733,17.218,17.218,0,0,0-.944-3.249c-24.269-6.321-89.23-5.806-89.23-5.806s-13.966,3.5-9.865,23.829c3.774,18.709,66.146,10.046,86.293,4.433q.707-.2,1.369-.412c-1.6,11.92,9.622,28.925,19.45,44.575,8.1,12.9,15,25.959,15,25.959,4.068,2.523,17.727,1.064,17.727,1.064C1647.8,1278.124,1622.795,1208.38,1622.795,1208.38Z" transform="translate(-1513.097 -1099.588)" fill="#35488b"/>
      <g id="Grupo_55628" data-name="Grupo 55628" transform="translate(56.14)">
        <path id="Trazado_25189" data-name="Trazado 25189" d="M1832.213,733.327s6.967,22.3,17.432,27.293c0,0,.99-6.767-.7-11.913,1.382-1.058,2.606-2.04,3.674-2.924a68.082,68.082,0,0,0,5.343-4.844l-1.556-10.876-1.055-7.379a33.612,33.612,0,0,1-5.211,4.855C1841.1,734.278,1832.213,733.327,1832.213,733.327Z" transform="translate(-1832.213 -700.291)" fill="#ffb27d"/>
        <path id="Trazado_25190" data-name="Trazado 25190" d="M1933.385,751.455s-3.509,9.655,2.479,18.244a68.094,68.094,0,0,0,5.343-4.844l-1.556-10.876A21.88,21.88,0,0,0,1933.385,751.455Z" transform="translate(-1915.462 -724.206)" fill="#ed975d"/>
        <path id="Trazado_25191" data-name="Trazado 25191" d="M1948.707,680.636s-15.429-10.237-8.906-19.747,8.924-17.236,19.051-11.1,9.532,11.062,8.127,14.765S1952.889,683.054,1948.707,680.636Z" transform="translate(-1920.308 -637.875)" fill="#ffb27d"/>
        <path id="Trazado_25192" data-name="Trazado 25192" d="M1930.037,593.1c-.068-.259-.356-.583-1.138-1.021a3.59,3.59,0,0,1,1.711.306c.724-1.052,2.3-2.769,4.463-2.315a2.72,2.72,0,0,0-2.033,1.193c3.365-1.232,8.964-.584,21.656,6.948,16.727,9.927,5.442,18.436,2.526,18.682s-6.776-6.235-11.142-7.954-8.184,4.052-10.023,4.2-.546-1.073-2.04-2.9-3.267,1.325-3.743,3.707-4.488,3.866-4.488,3.866l-1.242-4.239c-1.242-4.239,2.311-17.874,4.823-19.921C1929.588,593.463,1929.81,593.279,1930.037,593.1Z" transform="translate(-1908.749 -589.991)" fill="#2b478b"/>
      </g>
      <path id="Trazado_25193" data-name="Trazado 25193" d="M1574.467,814.819a151.321,151.321,0,0,1-9.425,18.9c-2,3.3-4.141,6.331-6.1,8.976l-.185.252c-3.862,5.195-9.767,6.625-9.583,7.928.369,2.613-6.232,8.884-17.116,11.664-12.63,3.227-27.266,4.78-30.965.511-1.237-1.434-1.649-4.07-1.512-7.348.27-6.9,8.96-34.705,8.96-34.705,14.865-44.986,57.435-44.986,57.435-44.986s-.834,10.777,9.615,14.517C1575.6,790.553,1578.043,806.349,1574.467,814.819Z" transform="translate(-1499.553 -744.62)" fill="#ffb93e"/>
      <path id="Trazado_25194" data-name="Trazado 25194" d="M2091.6,1195.635a72.526,72.526,0,0,1,8.146,3.357c1.753,1.1,5.789,6.621,6.243,8.558s.987,7.627.656,8.58-5.225-2.7-6.312-6.135-3.882-4.361-3.775-4.177,1.538,4.585,1.236,4.774-1.6.519-2.784-1.937-3.518-4.25-3.077-6.788A20.618,20.618,0,0,0,2091.6,1195.635Z" transform="translate(-1991.687 -1093.426)" fill="#ffb27d"/>
      <path id="Trazado_25195" data-name="Trazado 25195" d="M1696.472,984.8c.369,2.613-6.444,8.521-17.328,11.3-9.079-18.062,8.184-59.412,8.184-59.412l18.7,39.567C1702.083,981.585,1696.287,983.477,1696.472,984.8Z" transform="translate(-1646.643 -878.181)" fill="#ffa412"/>
      <path id="Trazado_25196" data-name="Trazado 25196" d="M1809.436,996.241c-2,3.3-4.141,6.331-6.1,8.976l-.185.252a15.1,15.1,0,0,1-6.4-4.776c-2.946-4.159-3.188-29.164-3.188-29.164S1805.625,986.426,1809.436,996.241Z" transform="translate(-1743.948 -907.14)" fill="#ffa412"/>
      <path id="Trazado_25197" data-name="Trazado 25197" d="M1781.965,871.906s-29.168-8.165-44.139-11.738c1.319-17.664,5.643-71.069-21.559-49.691,0,0-2.055,57.233,11.125,68.826,0,0,42.312.9,50.369.4a12.315,12.315,0,0,0,2.955-2.043A8.054,8.054,0,0,0,1781.965,871.906Z" transform="translate(-1679.597 -769.135)" fill="#ffb93e"/>
    </g>
    <g id="Grupo_55632" data-name="Grupo 55632" transform="translate(333.385 344.344)">
      <path id="Trazado_25198" data-name="Trazado 25198" d="M861.337,1524.57l1.076-.1a17.343,17.343,0,0,0-6.34-12.219,19.976,19.976,0,0,1-5.5-7.719s7.005-8.173.432-13.364c0,0-4.8-2.907-8.716-2.671,0,0,5.547,9.3,3.753,10.228s-5.434-10.811-5.434-10.811-10.927-1.059-14.442.631c0,0,9.341,7.644,7.374,8.1s-12.056-7.048-12.056-7.048-10.17,1.731-9.627,7.934,4.046,8.119,5.586,7.954,10.549-3.6,10.745-2.342-5.227,5.386-9.024,5.579c0,0,7.17,7.907,11.935,5.625s5.172-5.9,8.142-7.256,5.506-1.353,4.279.03-6.6,2.729-8.3,5.733-3.223,5.031,1.707,4.289,12.944-4.349,13.3-8.48l.044-.516a1.984,1.984,0,0,1-.044.516c1.028.183,3.164,2.076,4.708,3.559.238.26.588.609,1.091,1.074.188.19.346.351.463.472C859.613,1517.2,861.337,1524.57,861.337,1524.57Z" transform="translate(-803.456 -1447.612)" fill="#82b378"/>
      <g id="Grupo_55630" data-name="Grupo 55630" transform="translate(64.284 17.789)">
        <path id="Trazado_25199" data-name="Trazado 25199" d="M1150.432,1384.963s-11.144-6.24-5.944-14.71c0,0,4.16-5.2,8.618-6.538,0,0-2.377,12.63,0,12.927s1.634-14.264,1.634-14.264,11.738-5.646,16.344-5.2c0,0-7.281,12.332-4.9,12.035s10.549-12.778,10.549-12.778,12.035-2.229,13.967,4.9-1.189,10.7-2.972,11.144-13.224.3-12.927,1.783,8.023,3.863,12.332,2.526c0,0-4.754,11.738-10.995,11.144s-8.172-4.458-12.035-4.755-6.686.743-4.755,1.783,8.469.341,11.589,2.993,5.646,4.287-.148,5.476-16.2.446-18.276-4.012Z" transform="translate(-1143.106 -1356.106)" fill="#a8d29f"/>
        <path id="Trazado_25200" data-name="Trazado 25200" d="M1192.3,1400.32s-31.2,10.1-34.768,21.4a23.7,23.7,0,0,1-2.972,10.846,20.58,20.58,0,0,0-2.069,16.2l1.238-.333s-1.082-8.825.96-13.936c.083-.188.205-.46.357-.792.37-.724.618-1.256.776-1.643,1.113-2.283,2.718-5.264,3.789-5.888C1159.607,1426.173,1152.624,1416.367,1192.3,1400.32Z" transform="translate(-1150.201 -1392.858)" fill="#82b378"/>
      </g>
      <g id="Grupo_55631" data-name="Grupo 55631" transform="translate(0)">
        <path id="Trazado_25201" data-name="Trazado 25201" d="M816.069,1288.738s14.689-8.226,7.834-19.39c0,0-5.484-6.855-11.36-8.618,0,0,3.134,16.648,0,17.04s-2.155-18.8-2.155-18.8-15.473-7.443-21.545-6.855c0,0,9.6,16.256,6.463,15.865s-13.906-16.844-13.906-16.844-15.865-2.938-18.411,6.463,1.567,14.1,3.917,14.689,17.432.392,17.04,2.35-10.577,5.092-16.256,3.329c0,0,6.267,15.473,14.494,14.69s10.772-5.876,15.865-6.267,8.814.979,6.268,2.35-11.164.449-15.277,3.946-7.443,5.651.2,7.218,21.349.588,24.091-5.288Z" transform="translate(-762.188 -1250.699)" fill="#a8d29f"/>
        <path id="Trazado_25202" data-name="Trazado 25202" d="M859.638,1351.483a31.243,31.243,0,0,1-3.917-14.3c-4.7-14.885-45.831-28.2-45.831-28.2,52.294,21.153,43.089,34.08,43.089,34.08,1.409.822,3.522,4.742,4.989,7.75.209.512.539,1.22,1.031,2.181.2.435.358.791.468,1.039,2.692,6.737,1.266,18.371,1.266,18.371l1.632.438C865.981,1361.115,859.638,1351.483,859.638,1351.483Z" transform="translate(-801.84 -1299.145)" fill="#82b378"/>
      </g>
      <path id="Trazado_25203" data-name="Trazado 25203" d="M913.9,1667.541a28.774,28.774,0,1,0,57.548,0Z" transform="translate(-888.294 -1597.194)" fill="#ed7d2b"/>
      <path id="Trazado_25204" data-name="Trazado 25204" d="M1026.126,1667.541c0,10.781,2.583,21.76,11.358,26.688,1.459.819,6.344-.068,7.945.49a28.785,28.785,0,0,0,19.3-27.179Z" transform="translate(-981.584 -1597.194)" fill="#f99746"/>
      <path id="Trazado_25205" data-name="Trazado 25205" d="M1066.317,1696.313c1.17.146-4.717,0-3.505,0a28.774,28.774,0,0,0,28.773-28.775h-7.148C1084.436,1682.22,1080.522,1694.553,1066.317,1696.313Z" transform="translate(-1011.941 -1597.193)" fill="#ffb176"/>
      <path id="Trazado_25206" data-name="Trazado 25206" d="M911.539,1829.235h58.344a3.55,3.55,0,0,0-3.551-3.551H915.088A3.55,3.55,0,0,0,911.539,1829.235Z" transform="translate(-886.334 -1728.649)" fill="#ed7d2b"/>
      <path id="Trazado_25207" data-name="Trazado 25207" d="M1073.521,1829.235h31.007a3.55,3.55,0,0,0-3.551-3.551h-23.907A3.55,3.55,0,0,0,1073.521,1829.235Z" transform="translate(-1020.98 -1728.649)" fill="#f99746"/>
      <rect id="Rectángulo_5365" data-name="Rectángulo 5365" width="59.149" height="0.883" transform="translate(84.097 71.229) rotate(180)" fill="#db6a1f"/>
    </g>
    <g id="Grupo_55635" data-name="Grupo 55635" transform="translate(481.466 366.526)">
      <rect id="Rectángulo_5366" data-name="Rectángulo 5366" width="74.961" height="19.697" rx="9.849" transform="translate(0.785)" fill="#f99746"/>
      <path id="Trazado_25208" data-name="Trazado 25208" d="M1589.292,1460.868v2.048a4.236,4.236,0,0,1-4.223,4.223h-66.515a4.235,4.235,0,0,1-4.223-4.223V1460.7h73.75A4.442,4.442,0,0,1,1589.292,1460.868Z" transform="translate(-1513.546 -1447.442)" fill="#ed7d2b"/>
      <g id="Grupo_55633" data-name="Grupo 55633" transform="translate(0 19.595)">
        <path id="Trazado_25209" data-name="Trazado 25209" d="M1526.478,1498.359l-3,11.357,0,0-12.483,47.268h-1.312l7.215-39.216c.007-.039.018-.077.024-.12l3.569-19.4Z" transform="translate(-1509.68 -1498.257)" fill="#e8c6a7"/>
      </g>
      <path id="Trazado_25210" data-name="Trazado 25210" d="M1562.135,1498.359l-3,11.357,0,0c-.173.084-5.631,2.907-6.557,7.932l3.569-19.4Z" transform="translate(-1545.337 -1478.661)" fill="#c69d7b"/>
      <g id="Grupo_55634" data-name="Grupo 55634" transform="translate(58.948 19.595)">
        <path id="Trazado_25211" data-name="Trazado 25211" d="M1875.777,1556.987h-1.313l-10.171-38.5v-.007l-2.312-8.756,0,0-3-11.357,5.99-.1,2.041,11.089,1.527,8.306c.007.042.018.081.025.12Z" transform="translate(-1858.979 -1498.257)" fill="#e8c6a7"/>
      </g>
      <path id="Trazado_25212" data-name="Trazado 25212" d="M1838.189,1586.764c-.007,0-.014,0-.021-.014C1838.14,1586.7,1838.147,1586.711,1838.189,1586.764Z" transform="translate(-1782.718 -1552.194)" fill="#e8c6a7"/>
      <path id="Trazado_25213" data-name="Trazado 25213" d="M1867.01,1509.346a16.534,16.534,0,0,0-2.717,9.129l-2.312-8.756,0,0-3-11.357,5.99-.1Z" transform="translate(-1800.031 -1478.661)" fill="#c69d7b"/>
    </g>
    <g id="Grupo_55664" data-name="Grupo 55664" transform="translate(294.923 145.916)">
      <path id="Trazado_25214" data-name="Trazado 25214" d="M701.575,178.946a110.735,110.735,0,0,1-8.028,24.418c-.157.336-.317.668-.481,1-.081.169-.162.336-.246.5q-.311.63-.633,1.251c-.113.223-.228.444-.346.665-.208.4-.42.793-.635,1.185s-.435.79-.658,1.18q-.572,1.013-1.171,2c-.076.127-.152.253-.231.378-.208.341-.417.678-.633,1.014-.079.13-.162.26-.246.388q-.311.489-.633.97c-.113.174-.229.344-.346.516q-.311.466-.633.923v0h0q-.172.248-.349.5v0a.427.427,0,0,1-.035.047q-.309.443-.633.878c-.079.113-.162.226-.246.338q-.314.425-.633.844c-.113.15-.228.3-.346.447-.208.272-.419.54-.635.808s-.442.554-.668.825q-.311.382-.633.759c-.155.186-.312.37-.473.552a.422.422,0,0,1-.037.044c-.029.034-.057.067-.088.1-.208.241-.419.479-.633.717q-.689.777-1.407,1.529-.311.332-.633.658-.739.765-1.509,1.5-.314.306-.635.6c-.368.348-.743.69-1.119,1.028l-.012.01c-.214.192-.432.385-.65.574s-.42.366-.633.543q-1.716,1.463-3.532,2.8-.314.235-.633.462-1.3.934-2.646,1.8-.666.433-1.345.849-1.468.9-2.994,1.728-1.17.635-2.369,1.225-1.82.894-3.713,1.686-.314.134-.633.263-.552.225-1.11.44-.807.314-1.627.609-1.815.656-3.7,1.218c-.444.135-.891.263-1.34.388q-2.592.729-5.3,1.286-2.073.428-4.217.754a92.238,92.238,0,0,1-10.222.977c-.575.025-1.156.044-1.738.057q-1.273.033-2.57.032-1.557,0-3.13-.035a144.8,144.8,0,0,1-26.732-3.1q-1-.213-1.99-.439a112.615,112.615,0,0,1-22.16-7.419c-.174-.079-.346-.16-.516-.241q-2.572-1.213-5-2.562c-17.944-9.977-29.267-25.474-24.322-46.828,7.682-33.177,54.051-68.7,95.46-77.409C697.094,94.459,710.89,135.012,701.575,178.946Z" transform="translate(-539.945 -104.819)" fill="#ebf3fa"/>
      <g id="Grupo_55654" data-name="Grupo 55654" transform="translate(88.153 79.719)">
        <g id="Grupo_55637" data-name="Grupo 55637" transform="translate(2.879 49.173)">
          <path id="Trazado_25215" data-name="Trazado 25215" d="M1116.219,868.58q-.666.433-1.345.849-1.468.9-2.994,1.728-1.169.635-2.369,1.225-1.82.894-3.713,1.686-.314.134-.633.263-.552.225-1.111.44h-23.348a1.331,1.331,0,0,1-.621-.152,1.354,1.354,0,0,1-.721-1.065l-.005-.061v-3.637a1.354,1.354,0,0,1,1.347-1.278Z" transform="translate(-1079.36 -868.58)" fill="#ffb93e"/>
          <g id="Grupo_55636" data-name="Grupo 55636" transform="translate(20.466)">
            <path id="Trazado_25216" data-name="Trazado 25216" d="M1232.9,868.58v5.488q-.314.134-.633.263V868.58Z" transform="translate(-1226.931 -868.58)" fill="#ffa412"/>
            <rect id="Rectángulo_5367" data-name="Rectángulo 5367" width="0.633" height="6.193" fill="#ffa412"/>
          </g>
        </g>
        <g id="Grupo_55639" data-name="Grupo 55639" transform="translate(4.212 42.98)">
          <path id="Trazado_25217" data-name="Trazado 25217" d="M1130.891,831.88a.065.065,0,0,1-.012.01c-.214.192-.432.385-.65.574s-.42.366-.633.543q-1.716,1.463-3.532,2.8-.314.235-.633.462-1.3.934-2.646,1.8h-34.177a1.352,1.352,0,0,1-1.347-1.279c0-.022,0-.046,0-.069v-3.5c0-.024,0-.046,0-.069a1.353,1.353,0,0,1,1.186-1.269,1.251,1.251,0,0,1,.16-.01Z" transform="translate(-1087.26 -831.88)" fill="#ffb93e"/>
          <g id="Grupo_55638" data-name="Grupo 55638" transform="translate(20.467)">
            <path id="Trazado_25218" data-name="Trazado 25218" d="M1338.763,831.88v.584c-.209.184-.42.366-.633.543V831.88Z" transform="translate(-1316.26 -831.88)" fill="#ffa412"/>
            <path id="Trazado_25219" data-name="Trazado 25219" d="M1314.083,831.88v3.927q-.314.235-.633.462V831.88Z" transform="translate(-1295.745 -831.88)" fill="#ffa412"/>
            <rect id="Rectángulo_5368" data-name="Rectángulo 5368" width="0.633" height="6.193" transform="translate(11.318 0)" fill="#ffa412"/>
            <rect id="Rectángulo_5369" data-name="Rectángulo 5369" width="0.633" height="6.193" transform="translate(5.339 0)" fill="#ffa412"/>
            <rect id="Rectángulo_5370" data-name="Rectángulo 5370" width="0.633" height="6.193" transform="translate(0 0)" fill="#ffa412"/>
          </g>
        </g>
        <g id="Grupo_55641" data-name="Grupo 55641" transform="translate(0.116 36.798)">
          <path id="Trazado_25220" data-name="Trazado 25220" d="M1114.612,795.25v2.391q.719-.752,1.407-1.529v-.862Zm0,0v2.391q.719-.752,1.407-1.529c.214-.238.425-.476.633-.717.03-.034.059-.068.088-.1a.439.439,0,0,0,.037-.044Zm0,0v2.391q.719-.752,1.407-1.529c.214-.238.425-.476.633-.717.03-.034.059-.068.088-.1a.439.439,0,0,0,.037-.044Zm0,0v2.391q.719-.752,1.407-1.529c.214-.238.425-.476.633-.717.03-.034.059-.068.088-.1a.439.439,0,0,0,.037-.044Zm0,0v2.391q.719-.752,1.407-1.529c.214-.238.425-.476.633-.717.03-.034.059-.068.088-.1a.439.439,0,0,0,.037-.044Zm0,0v2.391q.719-.752,1.407-1.529c.214-.238.425-.476.633-.717.03-.034.059-.068.088-.1a.439.439,0,0,0,.037-.044Zm0,0v2.391q.719-.752,1.407-1.529v-.862Zm-50.274,0a1.288,1.288,0,0,0-.292.032.335.335,0,0,0-.041.008,1.357,1.357,0,0,0-1,1.073,1.027,1.027,0,0,0-.013.108l-.005.056c0,.024,0,.046,0,.069v3.5c0,.024,0,.047,0,.069a.873.873,0,0,0,.008.093,1.588,1.588,0,0,0,.036.181,1.35,1.35,0,0,0,1.3,1.006h46.367l.012-.01c.376-.338.751-.68,1.119-1.028q.322-.3.635-.6.767-.734,1.509-1.5.321-.326.633-.658.719-.752,1.407-1.529c.214-.238.425-.476.633-.717.03-.034.059-.068.088-.1a.439.439,0,0,0,.037-.044Z" transform="translate(-1062.99 -795.249)" fill="#ffb93e"/>
          <path id="Trazado_25221" data-name="Trazado 25221" d="M1094.041,801.438H1064.2a1.277,1.277,0,0,1-1.2-1.278c0-.023,0-.046,0-.069v-3.5c0-.023,0-.046,0-.069s0-.038,0-.057a1.312,1.312,0,0,1,.934-1.188.445.445,0,0,1,.051-.012,1.073,1.073,0,0,1,.213-.022h26.178c0,.015.007.029.01.044a11.083,11.083,0,0,0,3.643,6.139Z" transform="translate(-1062.993 -795.245)" fill="#ffa412"/>
          <g id="Grupo_55640" data-name="Grupo 55640" transform="translate(20.468 0)">
            <path id="Trazado_25222" data-name="Trazado 25222" d="M1365.763,795.25v2.391q-.311.332-.633.658V795.25Z" transform="translate(-1334.608 -795.249)" fill="#ffa412"/>
            <path id="Trazado_25223" data-name="Trazado 25223" d="M1353.065,795.25v4.55q-.314.306-.635.6V795.25Z" transform="translate(-1324.052 -795.249)" fill="#ffa412"/>
            <rect id="Rectángulo_5371" data-name="Rectángulo 5371" width="0.633" height="6.193" transform="translate(25.809)" fill="#ffa412"/>
            <rect id="Rectángulo_5372" data-name="Rectángulo 5372" width="0.633" height="6.193" transform="translate(21.87)" fill="#ffa412"/>
            <rect id="Rectángulo_5373" data-name="Rectángulo 5373" width="0.633" height="6.193" transform="translate(17.704)" fill="#ffa412"/>
            <rect id="Rectángulo_5374" data-name="Rectángulo 5374" width="0.633" height="6.193" transform="translate(11.318)" fill="#ffa412"/>
            <rect id="Rectángulo_5375" data-name="Rectángulo 5375" width="0.633" height="6.193" transform="translate(5.339)" fill="#ffa412"/>
            <rect id="Rectángulo_5376" data-name="Rectángulo 5376" width="0.633" height="6.193" fill="#ffa412"/>
            <path id="Trazado_25224" data-name="Trazado 25224" d="M1377.853,795.25v.145c-.208.241-.419.479-.633.717v-.862Z" transform="translate(-1344.658 -795.249)" fill="#ffa412"/>
          </g>
        </g>
        <g id="Grupo_55643" data-name="Grupo 55643" transform="translate(0 30.649)">
          <path id="Trazado_25225" data-name="Trazado 25225" d="M1116.167,758.964v-.154h-.2v6.15h.241q.24-.273.472-.552.322-.377.633-.759v-4.685Zm4.3.442a1.5,1.5,0,0,0-.121-.154l-.012-.012a.073.073,0,0,0-.01-.012c-.01-.012-.022-.022-.032-.032l-.044-.04c-.015-.014-.029-.027-.044-.039-.031-.025-.062-.049-.1-.073a1.131,1.131,0,0,0-.137-.081h0c-.022-.012-.044-.024-.066-.034l-.034-.015-.036-.014a1.243,1.243,0,0,0-.246-.069l-.019,0-.017,0a.128.128,0,0,1-.025,0,.113.113,0,0,0-.025,0l-.017,0h-.005a.134.134,0,0,0-.027,0,1.014,1.014,0,0,0-.1-.005h-55.7a1.353,1.353,0,0,0-1.347,1.279c0,.022,0,.046,0,.069v3.5c0,.024,0,.046,0,.069,0,.04.005.081.01.121a1.357,1.357,0,0,0,1.1,1.134c.022.005.044.008.066.012a1.516,1.516,0,0,0,.176.012h52.518a.44.44,0,0,0,.037-.044q.24-.273.472-.552.322-.377.633-.759c.226-.272.449-.548.668-.825s.427-.537.635-.808c.118-.149.233-.3.346-.447q.319-.418.633-.844c.084-.111.167-.224.246-.338q.324-.435.633-.878a.412.412,0,0,0,.036-.047v0C1120.494,759.441,1120.482,759.423,1120.47,759.406Zm-4.3-.442v-.154h-.2v6.15h.241q.24-.273.472-.552.322-.377.633-.759v-4.685Z" transform="translate(-1062.3 -758.81)" fill="#ffb93e"/>
          <path id="Trazado_25226" data-name="Trazado 25226" d="M1093.348,765H1063.5l-.071,0c-.026,0-.052,0-.077-.008a1.3,1.3,0,0,1-1.054-1.268c0-.023,0-.046,0-.069v-3.5c0-.023,0-.046,0-.069a1.277,1.277,0,0,1,1.2-1.279h26.178c.012.051.024.1.036.153a11.059,11.059,0,0,0,3.575,6Z" transform="translate(-1062.301 -758.81)" fill="#ffa412"/>
          <g id="Grupo_55642" data-name="Grupo 55642" transform="translate(20.467)">
            <rect id="Rectángulo_5377" data-name="Rectángulo 5377" width="0.633" height="6.193" transform="translate(30.522 0)" fill="#ffa412"/>
            <rect id="Rectángulo_5378" data-name="Rectángulo 5378" width="0.633" height="6.193" transform="translate(28.379 0)" fill="#ffa412"/>
            <rect id="Rectángulo_5379" data-name="Rectángulo 5379" width="0.633" height="6.193" transform="translate(25.809 0)" fill="#ffa412"/>
            <rect id="Rectángulo_5380" data-name="Rectángulo 5380" width="0.633" height="6.193" transform="translate(21.87 0)" fill="#ffa412"/>
            <rect id="Rectángulo_5381" data-name="Rectángulo 5381" width="0.633" height="6.193" transform="translate(17.704 0)" fill="#ffa412"/>
            <rect id="Rectángulo_5382" data-name="Rectángulo 5382" width="0.633" height="6.193" transform="translate(11.318 0)" fill="#ffa412"/>
            <rect id="Rectángulo_5383" data-name="Rectángulo 5383" width="0.633" height="6.193" transform="translate(5.339 0)" fill="#ffa412"/>
            <rect id="Rectángulo_5384" data-name="Rectángulo 5384" width="0.633" height="6.193" transform="translate(0 0)" fill="#ffa412"/>
            <rect id="Rectángulo_5385" data-name="Rectángulo 5385" width="0.633" height="6.193" transform="translate(32.562 0)" fill="#ffa412"/>
            <path id="Trazado_25227" data-name="Trazado 25227" d="M1385.143,758.81v4.838q-.311.382-.633.759v-5.6Z" transform="translate(-1350.6 -758.81)" fill="#ffa412"/>
            <path id="Trazado_25228" data-name="Trazado 25228" d="M1392.854,758.81v3.2c-.208.272-.418.54-.635.808V758.81Z" transform="translate(-1357.009 -758.81)" fill="#ffa412"/>
            <path id="Trazado_25229" data-name="Trazado 25229" d="M1398.663,758.832v1.892q-.314.425-.633.844V758.81h.395a1.01,1.01,0,0,1,.1.005.136.136,0,0,1,.027,0h.005l.017,0a.114.114,0,0,1,.025,0l.025.005.017,0Z" transform="translate(-1361.839 -758.81)" fill="#ffa412"/>
          </g>
        </g>
        <g id="Grupo_55645" data-name="Grupo 55645" transform="translate(2.878 24.609)">
          <path id="Trazado_25230" data-name="Trazado 25230" d="M1137.76,724.368v.651c-.076.127-.152.253-.231.378-.208.341-.417.678-.633,1.014-.079.13-.162.26-.246.388q-.312.489-.633.97c-.113.174-.23.344-.346.516q-.311.466-.633.923v0h-54.331a1.352,1.352,0,0,1-1.244-.834,1.278,1.278,0,0,1-.1-.385l-.005-.061V724.3a1.321,1.321,0,0,1,.1-.447,1.352,1.352,0,0,1,1.244-.832h55.7a1.22,1.22,0,0,1,.238.022,1.182,1.182,0,0,1,.246.069,1.352,1.352,0,0,1,.633.5A1.325,1.325,0,0,1,1137.76,724.368Z" transform="translate(-1079.359 -723.02)" fill="#ffb93e"/>
          <path id="Trazado_25231" data-name="Trazado 25231" d="M1110.4,729.213h-29.843a1.088,1.088,0,0,1-.554-.153,1.362,1.362,0,0,1-.643-1.065c0-.02,0-.04,0-.06s0-.046,0-.069v-3.5c0-.023,0-.046,0-.069a1.278,1.278,0,0,1,1.2-1.279h26.178a11.17,11.17,0,0,0,3.482,6.04C1110.279,729.111,1110.34,729.162,1110.4,729.213Z" transform="translate(-1079.355 -723.02)" fill="#ffa412"/>
          <g id="Grupo_55644" data-name="Grupo 55644" transform="translate(20.467)">
            <rect id="Rectángulo_5386" data-name="Rectángulo 5386" width="0.633" height="6.193" transform="translate(30.522 0)" fill="#ffa412"/>
            <rect id="Rectángulo_5387" data-name="Rectángulo 5387" width="0.633" height="6.193" transform="translate(28.379 0)" fill="#ffa412"/>
            <rect id="Rectángulo_5388" data-name="Rectángulo 5388" width="0.633" height="6.193" transform="translate(25.809 0)" fill="#ffa412"/>
            <rect id="Rectángulo_5389" data-name="Rectángulo 5389" width="0.633" height="6.193" transform="translate(21.87 0)" fill="#ffa412"/>
            <rect id="Rectángulo_5390" data-name="Rectángulo 5390" width="0.633" height="6.193" transform="translate(17.704 0)" fill="#ffa412"/>
            <rect id="Rectángulo_5391" data-name="Rectángulo 5391" width="0.633" height="6.193" transform="translate(11.318 0)" fill="#ffa412"/>
            <rect id="Rectángulo_5392" data-name="Rectángulo 5392" width="0.633" height="6.193" transform="translate(5.339 0)" fill="#ffa412"/>
            <rect id="Rectángulo_5393" data-name="Rectángulo 5393" width="0.633" height="6.193" transform="translate(0 0)" fill="#ffa412"/>
            <rect id="Rectángulo_5394" data-name="Rectángulo 5394" width="0.633" height="6.193" transform="translate(32.562 0)" fill="#ffa412"/>
            <rect id="Rectángulo_5395" data-name="Rectángulo 5395" width="0.633" height="6.193" transform="translate(33.91 0)" fill="#ffa412"/>
            <path id="Trazado_25232" data-name="Trazado 25232" d="M1409.913,723.02v5.267q-.311.466-.633.923v-6.19Z" transform="translate(-1374.069 -723.02)" fill="#ffa412"/>
            <path id="Trazado_25233" data-name="Trazado 25233" d="M1415.713,723.042V726.8q-.311.489-.633.97V723.02h.395A1.217,1.217,0,0,1,1415.713,723.042Z" transform="translate(-1378.89 -723.02)" fill="#ffa412"/>
            <path id="Trazado_25234" data-name="Trazado 25234" d="M1420.923,724.065v1.782c-.208.341-.417.678-.633,1.014v-3.3A1.352,1.352,0,0,1,1420.923,724.065Z" transform="translate(-1383.22 -723.469)" fill="#ffa412"/>
          </g>
        </g>
        <g id="Grupo_55647" data-name="Grupo 55647" transform="translate(7.431 18.415)">
          <path id="Trazado_25235" data-name="Trazado 25235" d="M1164.348,686.73c-.157.336-.317.668-.481,1-.081.169-.162.336-.246.5q-.311.63-.633,1.25c-.113.223-.228.444-.346.665-.208.4-.42.793-.635,1.185s-.435.79-.658,1.18h-53.671a1.351,1.351,0,0,1-1.347-1.279c0-.022,0-.046,0-.069v-3.5c0-.024,0-.046,0-.069a1.355,1.355,0,0,1,1.186-1.269,1.264,1.264,0,0,1,.16-.01h48.546s0,0,.005,0h7.154a1.382,1.382,0,0,1,.238.022,1.356,1.356,0,0,1,.246.069c.024.01.047.019.071.03a.35.35,0,0,1,.051.025.928.928,0,0,1,.137.079c.018.012.037.025.056.039a.128.128,0,0,1,.019.014c.015.012.029.022.042.034A1.143,1.143,0,0,1,1164.348,686.73Z" transform="translate(-1106.33 -686.32)" fill="#ffb93e"/>
          <path id="Trazado_25236" data-name="Trazado 25236" d="M1137.376,692.517h-29.843a1.278,1.278,0,0,1-1.2-1.279c0-.023,0-.046,0-.069v-3.5c0-.023,0-.046,0-.069a1.3,1.3,0,0,1,1.059-1.269.992.992,0,0,1,.142-.01h26.178l0,.01A11.092,11.092,0,0,0,1137.376,692.517Z" transform="translate(-1106.33 -686.323)" fill="#ffa412"/>
          <g id="Grupo_55646" data-name="Grupo 55646" transform="translate(20.467)">
            <rect id="Rectángulo_5396" data-name="Rectángulo 5396" width="0.633" height="6.193" transform="translate(30.522 0.001)" fill="#ffa412"/>
            <rect id="Rectángulo_5397" data-name="Rectángulo 5397" width="0.633" height="6.193" transform="translate(28.379 0.001)" fill="#ffa412"/>
            <rect id="Rectángulo_5398" data-name="Rectángulo 5398" width="0.633" height="6.193" transform="translate(25.809 0.001)" fill="#ffa412"/>
            <rect id="Rectángulo_5399" data-name="Rectángulo 5399" width="0.633" height="6.193" transform="translate(21.87 0.001)" fill="#ffa412"/>
            <rect id="Rectángulo_5400" data-name="Rectángulo 5400" width="0.633" height="6.193" transform="translate(17.704 0.001)" fill="#ffa412"/>
            <rect id="Rectángulo_5401" data-name="Rectángulo 5401" width="0.633" height="6.193" transform="translate(11.318 0.001)" fill="#ffa412"/>
            <rect id="Rectángulo_5402" data-name="Rectángulo 5402" width="0.633" height="6.193" transform="translate(5.339 0.001)" fill="#ffa412"/>
            <rect id="Rectángulo_5403" data-name="Rectángulo 5403" width="0.633" height="6.193" transform="translate(0 0.001)" fill="#ffa412"/>
            <rect id="Rectángulo_5404" data-name="Rectángulo 5404" width="0.633" height="6.193" transform="translate(32.562 0.001)" fill="#ffa412"/>
            <rect id="Rectángulo_5405" data-name="Rectángulo 5405" width="0.633" height="6.193" transform="translate(33.91 0.001)" fill="#ffa412"/>
            <path id="Trazado_25237" data-name="Trazado 25237" d="M1436.885,686.33v3.827c-.208.4-.42.793-.635,1.185V686.33Z" transform="translate(-1401.04 -686.328)" fill="#ffa412"/>
            <path id="Trazado_25238" data-name="Trazado 25238" d="M1442.693,686.342v1.892q-.311.63-.633,1.25V686.32h.395A1.382,1.382,0,0,1,1442.693,686.342Z" transform="translate(-1405.869 -686.32)" fill="#ffa412"/>
            <path id="Trazado_25239" data-name="Trazado 25239" d="M1447.751,687.179c-.157.336-.317.668-.481,1v-1.32c.024.01.047.019.071.03a.345.345,0,0,1,.051.025.933.933,0,0,1,.137.079c.019.012.037.025.056.039a.123.123,0,0,1,.019.014l.042.034A1.152,1.152,0,0,1,1447.751,687.179Z" transform="translate(-1410.2 -686.769)" fill="#ffa412"/>
          </g>
        </g>
        <g id="Grupo_55649" data-name="Grupo 55649" transform="translate(0.117 12.233)">
          <path id="Trazado_25240" data-name="Trazado 25240" d="M1121.395,651.034v3.5a1.336,1.336,0,0,1-.231.753,1.359,1.359,0,0,1-.633.5,1.263,1.263,0,0,1-.247.069c-.026,0-.052.009-.078.012l-.063.006-.031,0-.065,0h-55.705A1.352,1.352,0,0,1,1063,654.6c0-.023,0-.046,0-.069v-3.5c0-.023,0-.046,0-.069a1.352,1.352,0,0,1,1.346-1.279h55.705l.072,0a1.329,1.329,0,0,1,.166.02,1.246,1.246,0,0,1,.247.069,1.147,1.147,0,0,1,.117.052c.024.012.047.024.069.037l.007,0c.023.013.045.027.068.043l.011.007a.7.7,0,0,1,.06.044,1.182,1.182,0,0,1,.134.117c.014.013.026.026.038.04l.007.007.023.025,0,.005c.013.016.027.032.04.049s.036.048.054.073A1.335,1.335,0,0,1,1121.395,651.034Z" transform="translate(-1062.994 -649.686)" fill="#ffb93e"/>
          <path id="Trazado_25241" data-name="Trazado 25241" d="M1094.041,655.879H1064.2a1.277,1.277,0,0,1-1.2-1.279c0-.023,0-.046,0-.069v-3.5c0-.023,0-.046,0-.069a1.277,1.277,0,0,1,1.2-1.279h26.178c.01.047.021.095.034.143a11.042,11.042,0,0,0,3.619,6.04Z" transform="translate(-1062.994 -649.686)" fill="#ffa412"/>
          <g id="Grupo_55648" data-name="Grupo 55648" transform="translate(20.467)">
            <rect id="Rectángulo_5406" data-name="Rectángulo 5406" width="0.633" height="6.193" transform="translate(30.522 0)" fill="#ffa412"/>
            <rect id="Rectángulo_5407" data-name="Rectángulo 5407" width="0.633" height="6.193" transform="translate(28.379 0)" fill="#ffa412"/>
            <rect id="Rectángulo_5408" data-name="Rectángulo 5408" width="0.633" height="6.193" transform="translate(25.809 0)" fill="#ffa412"/>
            <rect id="Rectángulo_5409" data-name="Rectángulo 5409" width="0.633" height="6.193" transform="translate(21.87 0)" fill="#ffa412"/>
            <rect id="Rectángulo_5410" data-name="Rectángulo 5410" width="0.633" height="6.193" transform="translate(17.704 0)" fill="#ffa412"/>
            <rect id="Rectángulo_5411" data-name="Rectángulo 5411" width="0.633" height="6.193" transform="translate(11.318 0)" fill="#ffa412"/>
            <rect id="Rectángulo_5412" data-name="Rectángulo 5412" width="0.633" height="6.193" transform="translate(5.339 0)" fill="#ffa412"/>
            <rect id="Rectángulo_5413" data-name="Rectángulo 5413" width="0.633" height="6.193" transform="translate(0 0)" fill="#ffa412"/>
            <rect id="Rectángulo_5414" data-name="Rectángulo 5414" width="0.633" height="6.193" transform="translate(32.562 0)" fill="#ffa412"/>
            <rect id="Rectángulo_5415" data-name="Rectángulo 5415" width="0.633" height="6.193" transform="translate(33.91 0)" fill="#ffa412"/>
            <rect id="Rectángulo_5416" data-name="Rectángulo 5416" width="0.633" height="6.193" transform="translate(35.211 0)" fill="#ffa412"/>
            <path id="Trazado_25242" data-name="Trazado 25242" d="M1399.352,649.708v6.149a1.328,1.328,0,0,1-.238.022h-.4v-6.193h.4A1.3,1.3,0,0,1,1399.352,649.708Z" transform="translate(-1362.529 -649.686)" fill="#ffa412"/>
            <path id="Trazado_25243" data-name="Trazado 25243" d="M1404.565,650.729v5a1.358,1.358,0,0,1-.632.5v-6.011A1.357,1.357,0,0,1,1404.565,650.729Z" transform="translate(-1366.863 -650.134)" fill="#ffa412"/>
          </g>
        </g>
        <g id="Grupo_55651" data-name="Grupo 55651" transform="translate(4.213 6.183)">
          <path id="Trazado_25244" data-name="Trazado 25244" d="M1145.662,615.186v3.5a1.335,1.335,0,0,1-.231.753,1.356,1.356,0,0,1-.633.5,1.257,1.257,0,0,1-.246.069,1.318,1.318,0,0,1-.238.022H1088.61a1.329,1.329,0,0,1-.6-.143,1.353,1.353,0,0,1-.74-1.08c0-.018,0-.037,0-.055s0-.046,0-.069v-3.5c0-.023,0-.046,0-.069a1.353,1.353,0,0,1,1.187-1.269,1.243,1.243,0,0,1,.159-.01h55.705a1.329,1.329,0,0,1,.238.022,1.274,1.274,0,0,1,.246.069,1.357,1.357,0,0,1,.633.5A1.335,1.335,0,0,1,1145.662,615.186Z" transform="translate(-1087.262 -613.838)" fill="#ffb93e"/>
          <path id="Trazado_25245" data-name="Trazado 25245" d="M1118.309,620.031h-29.843a1.082,1.082,0,0,1-.537-.143,1.36,1.36,0,0,1-.661-1.08c0-.018,0-.037,0-.055s0-.046,0-.069v-3.5c0-.023,0-.046,0-.069a1.3,1.3,0,0,1,1.06-1.269.989.989,0,0,1,.142-.01h26.178l0,.01a11.159,11.159,0,0,0,3.491,6.04C1118.193,619.936,1118.25,619.984,1118.309,620.031Z" transform="translate(-1087.262 -613.838)" fill="#ffa412"/>
          <g id="Grupo_55650" data-name="Grupo 55650" transform="translate(20.467)">
            <rect id="Rectángulo_5417" data-name="Rectángulo 5417" width="0.633" height="6.193" transform="translate(30.522 0)" fill="#ffa412"/>
            <rect id="Rectángulo_5418" data-name="Rectángulo 5418" width="0.633" height="6.193" transform="translate(28.379 0)" fill="#ffa412"/>
            <rect id="Rectángulo_5419" data-name="Rectángulo 5419" width="0.633" height="6.193" transform="translate(25.809 0)" fill="#ffa412"/>
            <rect id="Rectángulo_5420" data-name="Rectángulo 5420" width="0.633" height="6.193" transform="translate(21.87 0)" fill="#ffa412"/>
            <rect id="Rectángulo_5421" data-name="Rectángulo 5421" width="0.633" height="6.193" transform="translate(17.704 0)" fill="#ffa412"/>
            <rect id="Rectángulo_5422" data-name="Rectángulo 5422" width="0.633" height="6.193" transform="translate(11.318 0)" fill="#ffa412"/>
            <rect id="Rectángulo_5423" data-name="Rectángulo 5423" width="0.633" height="6.193" transform="translate(5.339 0)" fill="#ffa412"/>
            <rect id="Rectángulo_5424" data-name="Rectángulo 5424" width="0.633" height="6.193" transform="translate(0 0)" fill="#ffa412"/>
            <rect id="Rectángulo_5425" data-name="Rectángulo 5425" width="0.633" height="6.193" transform="translate(32.562 0)" fill="#ffa412"/>
            <rect id="Rectángulo_5426" data-name="Rectángulo 5426" width="0.633" height="6.193" transform="translate(33.91 0)" fill="#ffa412"/>
            <rect id="Rectángulo_5427" data-name="Rectángulo 5427" width="0.633" height="6.193" transform="translate(35.211 0)" fill="#ffa412"/>
            <path id="Trazado_25246" data-name="Trazado 25246" d="M1423.619,613.859v6.15a1.321,1.321,0,0,1-.238.022h-.4v-6.193h.4A1.31,1.31,0,0,1,1423.619,613.859Z" transform="translate(-1386.796 -613.837)" fill="#ffa412"/>
            <path id="Trazado_25247" data-name="Trazado 25247" d="M1428.833,614.88v5a1.356,1.356,0,0,1-.633.5v-6.011A1.358,1.358,0,0,1,1428.833,614.88Z" transform="translate(-1391.13 -614.285)" fill="#ffa412"/>
          </g>
        </g>
        <g id="Grupo_55653" data-name="Grupo 55653" transform="translate(0.117)">
          <path id="Trazado_25248" data-name="Trazado 25248" d="M1121.395,578.548v3.5a1.336,1.336,0,0,1-.231.753,1.36,1.36,0,0,1-.633.5,1.267,1.267,0,0,1-.247.069c-.026,0-.052.009-.078.012l-.044,0-.044,0-.072,0h-55.705a1.352,1.352,0,0,1-1.346-1.279c0-.023,0-.046,0-.069v-3.5c0-.023,0-.046,0-.069a1.352,1.352,0,0,1,1.346-1.279h55.705a1.31,1.31,0,0,1,.238.022,1.258,1.258,0,0,1,.247.069,1.36,1.36,0,0,1,.633.5A1.335,1.335,0,0,1,1121.395,578.548Z" transform="translate(-1062.994 -577.2)" fill="#ffb93e"/>
          <path id="Trazado_25249" data-name="Trazado 25249" d="M1094.041,583.393H1064.2a1.277,1.277,0,0,1-1.2-1.279c0-.023,0-.046,0-.069v-3.5c0-.023,0-.046,0-.069a1.277,1.277,0,0,1,1.2-1.279h26.178a11.1,11.1,0,0,0,3.653,6.183Z" transform="translate(-1062.994 -577.2)" fill="#ffa412"/>
          <g id="Grupo_55652" data-name="Grupo 55652" transform="translate(20.467)">
            <rect id="Rectángulo_5428" data-name="Rectángulo 5428" width="0.633" height="6.193" transform="translate(30.522 0)" fill="#ffa412"/>
            <rect id="Rectángulo_5429" data-name="Rectángulo 5429" width="0.633" height="6.193" transform="translate(28.379 0)" fill="#ffa412"/>
            <rect id="Rectángulo_5430" data-name="Rectángulo 5430" width="0.633" height="6.193" transform="translate(25.809 0)" fill="#ffa412"/>
            <rect id="Rectángulo_5431" data-name="Rectángulo 5431" width="0.633" height="6.193" transform="translate(21.87 0)" fill="#ffa412"/>
            <rect id="Rectángulo_5432" data-name="Rectángulo 5432" width="0.633" height="6.193" transform="translate(17.704 0)" fill="#ffa412"/>
            <rect id="Rectángulo_5433" data-name="Rectángulo 5433" width="0.633" height="6.193" transform="translate(11.318 0)" fill="#ffa412"/>
            <rect id="Rectángulo_5434" data-name="Rectángulo 5434" width="0.633" height="6.193" transform="translate(5.339 0)" fill="#ffa412"/>
            <rect id="Rectángulo_5435" data-name="Rectángulo 5435" width="0.633" height="6.193" transform="translate(0 0)" fill="#ffa412"/>
            <rect id="Rectángulo_5436" data-name="Rectángulo 5436" width="0.633" height="6.193" transform="translate(32.562 0)" fill="#ffa412"/>
            <rect id="Rectángulo_5437" data-name="Rectángulo 5437" width="0.633" height="6.193" transform="translate(33.91 0)" fill="#ffa412"/>
            <rect id="Rectángulo_5438" data-name="Rectángulo 5438" width="0.633" height="6.193" transform="translate(35.211 0)" fill="#ffa412"/>
            <path id="Trazado_25250" data-name="Trazado 25250" d="M1399.352,577.222v6.149a1.317,1.317,0,0,1-.238.022h-.4V577.2h.4A1.311,1.311,0,0,1,1399.352,577.222Z" transform="translate(-1362.529 -577.2)" fill="#ffa412"/>
            <path id="Trazado_25251" data-name="Trazado 25251" d="M1404.565,578.242v5a1.357,1.357,0,0,1-.632.5v-6.011A1.359,1.359,0,0,1,1404.565,578.242Z" transform="translate(-1366.863 -577.647)" fill="#ffa412"/>
          </g>
        </g>
      </g>
      <g id="Grupo_55663" data-name="Grupo 55663" transform="translate(14.794 25.097)">
        <path id="Trazado_25252" data-name="Trazado 25252" d="M1115.384,352.109l-27.093-30.237a4.767,4.767,0,0,0-8.317,3.181v76.191s35.41,4.911,35.41,0Z" transform="translate(-1003.632 -309.013)" fill="#ed7d2b"/>
        <g id="Grupo_55662" data-name="Grupo 55662">
          <g id="Grupo_55657" data-name="Grupo 55657" transform="translate(12.002)">
            <g id="Grupo_55655" data-name="Grupo 55655">
              <path id="Trazado_25253" data-name="Trazado 25253" d="M1005.852,426.081l11.865-1.516a62.59,62.59,0,0,1,.7-17.191,60.322,60.322,0,0,1,9.609-24.177c9.638-13.956,39.616-22.779,39.616-22.779l-.072-1.752-1.094-.073a4.342,4.342,0,0,1,1.068-.562l-.171-4.142a14.65,14.65,0,0,0-3.429.48,23.539,23.539,0,0,1,3.417-.761l-.09-2.178c-43.83,2.987-57.046,30.082-60.683,50.78A82.2,82.2,0,0,0,1005.852,426.081Z" transform="translate(-953.579 -334.908)" fill="#82b378"/>
              <path id="Trazado_25254" data-name="Trazado 25254" d="M698.728,343.008l52.273,1.7c-.062-8.038,1.69-16.426,3.456-22.8a106.8,106.8,0,0,1,3.549-10.745c14.179-34.8,54.413-41.1,54.413-41.1l-45.628-16.521c-21.608,2.527-36.384,13.565-46.48,27.076C700.538,307.07,698.728,343.008,698.728,343.008Z" transform="translate(-698.728 -253.534)" fill="#a8d29f"/>
            </g>
            <path id="Trazado_25255" data-name="Trazado 25255" d="M698.728,476.371,751,478.07l11.865-1.516a62.591,62.591,0,0,1,.7-17.191,70.781,70.781,0,0,0-9.108-4.1q-1.4-.525-2.721-1.07c-33.814-13.944-31.709-37.927-31.425-40.225C700.538,440.433,698.728,476.371,698.728,476.371Z" transform="translate(-698.728 -386.897)" fill="#82b378" opacity="0.5"/>
            <g id="Grupo_55656" data-name="Grupo 55656" transform="translate(3.315 2.672)">
              <path id="Trazado_25256" data-name="Trazado 25256" d="M782.927,269.37l-.138,0c-.393.007-9.734.251-21.5,6.423a67.462,67.462,0,0,0-18.677,14.613,77.66,77.66,0,0,0-6.026,7.581,89.149,89.149,0,0,0-5.9,9.736q-1.433,2.731-2.731,5.63c-.076.172-.154.344-.228.516q-.982,2.225-1.883,4.543a138.324,138.324,0,0,0-6.145,20.076c-.221,1.041-.42,2.084-.594,3.12-.12.7-.226,1.4-.319,2.091a42.991,42.991,0,0,0-.4,5.129c-.012.856.012,1.683.076,2.472l0,.013.41,4.1.088.879.13,1.308.133,1.33.047.473.061.608L752.435,358l2.734-.165.316-.019,1.792-.11,1.789-.108h.008l6.654-.405-.2-.886a61.675,61.675,0,0,1,.376-23.238c.062-.311.128-.621.2-.935q.311-1.433.709-2.9c.2-.756.425-1.521.667-2.288q.387-1.233.825-2.442c.035-.1.071-.2.108-.3a57.768,57.768,0,0,1,5.007-10.333c.106-.174.214-.346.322-.518a58.119,58.119,0,0,1,4.027-5.63q.79-.98,1.63-1.932,1.392-1.585,2.913-3.087,1.9-1.876,3.988-3.625l.019-.015a74.648,74.648,0,0,1,11.734-7.976c.363-.2.731-.4,1.1-.6l.008-.005.01-.005a102.126,102.126,0,0,1,18.348-7.495l2.256-.689Zm27.867,14.243a96.76,96.76,0,0,0-13.8,6.3,72.757,72.757,0,0,0-15.8,11.731q-.919.911-1.792,1.85-1.911,2.05-3.6,4.236a59.4,59.4,0,0,0-9.479,17.8c-.079.231-.154.464-.226.7-.037.11-.073.219-.106.331-.462,1.482-.857,2.942-1.19,4.369q-.177.752-.329,1.49v0c-.12.572-.229,1.136-.332,1.7a67.3,67.3,0,0,0-1.041,13.575,55.525,55.525,0,0,0,.758,8.079l-6.788.412-1.784.108-.381.024-2.675.162-9.753.594h-.012l-21.74,1.32-.2-2.034-.516-5.176q-.089-1.089-.069-2.341a54.19,54.19,0,0,1,1.362-10.34c.518-2.4,1.181-4.994,1.988-7.741,1.921-6.548,3.979-11.717,4-11.768q1.015-2.615,2.135-5.108.1-.228.208-.456,1.332-2.934,2.812-5.692,2.066-3.863,4.408-7.368a77.031,77.031,0,0,1,6.879-8.867,65.911,65.911,0,0,1,18.214-14.284,56.851,56.851,0,0,1,17.467-5.92,12.037,12.037,0,0,1,5.842.535l25.537,8.96A1.5,1.5,0,0,1,810.794,283.613Z" transform="translate(-718.373 -269.37)" fill="#82b378"/>
            </g>
            <path id="Trazado_25257" data-name="Trazado 25257" d="M858.961,420.639c.316,7.651,4.99,12.089,12.641,11.773s15.382-5.267,15.066-12.918-4.743-12.052-12.394-11.736S858.645,412.988,858.961,420.639Z" transform="translate(-831.912 -381.718)" fill="#82b378"/>
          </g>
          <g id="Grupo_55659" data-name="Grupo 55659" transform="translate(0 41.029)">
            <path id="Trazado_25258" data-name="Trazado 25258" d="M792.021,498.717v61.549q-1.468.9-2.994,1.728-1.169.635-2.369,1.225-1.82.894-3.713,1.686-.314.134-.633.263-.552.225-1.11.44-.807.314-1.627.609-1.815.656-3.7,1.219c-.444.135-.891.263-1.34.388q-2.592.729-5.3,1.286a27.6,27.6,0,0,1-4.217.754,92.222,92.222,0,0,1-10.222.977c-.575.025-1.156.044-1.738.057q-1.273.033-2.57.032-1.557,0-3.131-.035a144.808,144.808,0,0,1-26.732-3.1q-1-.213-1.99-.439a112.62,112.62,0,0,1-22.16-7.419c-.174-.079-.346-.16-.516-.241q-2.572-1.213-5-2.562v-58.42a2.073,2.073,0,0,1,2.067-2.067h96.924c.078,0,.154.005.228.012A2.077,2.077,0,0,1,792.021,498.717Z" transform="translate(-680.269 -496.65)" fill="#f99746"/>
            <g id="Grupo_55658" data-name="Grupo 55658" transform="translate(15.69 5.63)">
              <path id="Trazado_25259" data-name="Trazado 25259" d="M724.394,530.01h-1.723a.259.259,0,0,0,0,.518h1.723a.259.259,0,0,0,0-.518Zm3.446,0h-1.723a.259.259,0,0,0,0,.518h1.723a.259.259,0,1,0,0-.518Zm3.613.062a.254.254,0,0,0-.165-.062h-1.723a.258.258,0,0,0-.01.516.021.021,0,0,0,.01,0h1.723a.26.26,0,0,0,.258-.26A.248.248,0,0,0,731.453,530.072Zm3.281-.062h-1.723a.259.259,0,0,0,0,.518h1.723a.259.259,0,0,0,0-.518Zm3.446,0h-1.723a.259.259,0,0,0,0,.518h1.723a.259.259,0,0,0,0-.518Zm3.446,0H739.9a.259.259,0,0,0,0,.518h1.723a.259.259,0,0,0,0-.518Zm3.446,0h-1.723a.259.259,0,0,0,0,.518h1.723a.259.259,0,1,0,0-.518Zm3.448,0H746.8a.261.261,0,0,0-.258.258.26.26,0,0,0,.258.26h1.725a.259.259,0,0,0,0-.518Zm3.446,0h-1.723a.259.259,0,0,0,0,.518h1.723a.259.259,0,0,0,0-.518Zm3.446,0h-1.723a.259.259,0,0,0,0,.518h1.723a.259.259,0,0,0,0-.518Zm3.446,0h-1.723a.259.259,0,0,0,0,.518h1.723a.259.259,0,0,0,0-.518Zm3.446,0h-1.723a.259.259,0,0,0,0,.518H762.3a.259.259,0,1,0,0-.518Zm3.448,0h-1.725a.259.259,0,0,0,0,.518h1.725a.259.259,0,0,0,0-.518Zm3.446,0h-1.723a.259.259,0,0,0-.258.235v0a.1.1,0,0,0,0,.022.26.26,0,0,0,.26.26H769.2a.259.259,0,0,0,0-.518Zm3.446,0h-1.723a.259.259,0,0,0,0,.518h1.723a.259.259,0,0,0,0-.518Zm3.446,0h-1.723a.259.259,0,0,0,0,.518h1.723a.259.259,0,0,0,0-.518Zm3.446,0h-1.723a.259.259,0,0,0,0,.518h1.723a.259.259,0,0,0,0-.518Zm3.446,0H781.26a.084.084,0,0,0-.029,0,.257.257,0,0,0,0,.511.083.083,0,0,0,.029,0h1.723a.259.259,0,1,0,0-.518Zm3.448,0h-1.723a.259.259,0,1,0,0,.518h1.723a.259.259,0,0,0,0-.518Zm3.446,0h-1.723a.259.259,0,0,0,0,.518h1.723a.259.259,0,0,0,0-.518Zm3.446,0H791.6a.259.259,0,0,0,0,.518h1.723a.259.259,0,0,0,0-.518Zm3.446,0h-1.723a.259.259,0,0,0,0,.518h1.723a.259.259,0,0,0,0-.518Zm3.446,0h-1.723a.259.259,0,0,0,0,.518h1.723a.259.259,0,1,0,0-.518Zm3.448,0H801.94a.259.259,0,1,0,0,.518h1.723a.259.259,0,0,0,0-.518Zm3.446,0h-1.723a.259.259,0,0,0,0,.518h1.723a.259.259,0,0,0,0-.518Zm1.7.818a.258.258,0,0,0-.412.312,1.529,1.529,0,0,1,.316.932v.554a.258.258,0,1,0,.516,0v-.554A2.037,2.037,0,0,0,808.81,530.828Zm-87.469-.029a.261.261,0,0,0-.363.056,2.051,2.051,0,0,0-.4,1.217v.584a.258.258,0,1,0,.516,0v-.584a1.522,1.522,0,0,1,.3-.91A.26.26,0,0,0,721.341,530.8Zm87.631,3.291a.259.259,0,0,0-.258.26v1.723a.258.258,0,1,0,.516,0v-1.723A.259.259,0,0,0,808.972,534.091Zm-88.134.03a.258.258,0,0,0-.258.258V536.1a.258.258,0,1,0,.516,0v-1.725A.259.259,0,0,0,720.838,534.121Zm88.134,3.417a.257.257,0,0,0-.258.258v1.723a.258.258,0,0,0,.516,0V537.8A.257.257,0,0,0,808.972,537.538Zm-88.134.03a.257.257,0,0,0-.258.258v1.723a.258.258,0,0,0,.516,0v-1.723A.258.258,0,0,0,720.838,537.569Zm88.134,3.416a.257.257,0,0,0-.258.258v1.723a.258.258,0,0,0,.516,0v-1.723A.257.257,0,0,0,808.972,540.985Zm-88.134.03a.257.257,0,0,0-.258.258V543a.258.258,0,0,0,.516,0v-1.723A.258.258,0,0,0,720.838,541.015Zm88.134,3.416a.239.239,0,0,0-.071.01.258.258,0,0,0-.187.248v1.723a.258.258,0,0,0,.187.248.239.239,0,0,0,.071.01.257.257,0,0,0,.258-.258v-1.723A.258.258,0,0,0,808.972,544.431Zm-88.134.03a.257.257,0,0,0-.258.258v1.723a.258.258,0,0,0,.516,0v-1.723A.258.258,0,0,0,720.838,544.461Zm88.134,3.416a.241.241,0,0,0-.071.01.258.258,0,0,0-.187.248v1.723a.26.26,0,0,0,.187.25.239.239,0,0,0,.071.01.259.259,0,0,0,.258-.26v-1.723A.258.258,0,0,0,808.972,547.877Zm-88.134.03a.258.258,0,0,0-.258.258v1.723a.263.263,0,0,0,.258.26.26.26,0,0,0,.258-.26v-1.723A.259.259,0,0,0,720.838,547.907Zm88.134,3.416a.258.258,0,0,0-.258.258v1.725a.258.258,0,0,0,.516,0v-1.725A.258.258,0,0,0,808.972,551.323Zm-88.134.03a.258.258,0,0,0-.258.258v1.725a.258.258,0,0,0,.516,0v-1.725A.259.259,0,0,0,720.838,551.353Zm88.134,3.417a.257.257,0,0,0-.258.258v1.723a.258.258,0,0,0,.516,0v-1.723A.257.257,0,0,0,808.972,554.771Zm-88.134.029a.259.259,0,0,0-.258.26v1.723a.258.258,0,0,0,.516,0v-1.723A.26.26,0,0,0,720.838,554.8Zm88.134,3.417a.257.257,0,0,0-.258.258V560.2a.258.258,0,1,0,.516,0v-1.723A.257.257,0,0,0,808.972,558.217Zm-88.039.049a.249.249,0,0,0-.095-.018.257.257,0,0,0-.258.258v1.723a.251.251,0,0,0,.034.128.258.258,0,0,0,.483-.128v-1.723A.256.256,0,0,0,720.933,558.266Zm88.039,3.4a.257.257,0,0,0-.258.258v1.723a.254.254,0,0,0,.164.24h0a.247.247,0,0,0,.093.019.257.257,0,0,0,.258-.258v-1.723A.257.257,0,0,0,808.972,561.663Zm-88.134.03a.257.257,0,0,0-.258.258v1.723a.258.258,0,0,0,.516,0v-1.723A.258.258,0,0,0,720.838,561.693Zm88.134,3.416a.258.258,0,0,0-.258.258v1.723a.258.258,0,1,0,.516,0v-1.723A.258.258,0,0,0,808.972,565.109Zm-88.134.03a.258.258,0,0,0-.258.258v1.723a.258.258,0,1,0,.516,0V565.4A.259.259,0,0,0,720.838,565.139Zm88.389,3.637a.247.247,0,0,0-.083-.154.253.253,0,0,0-.344,0,.247.247,0,0,0-.083.154.273.273,0,0,0,0,.037v1.725a.258.258,0,1,0,.516,0v-1.725A.283.283,0,0,0,809.227,568.776Zm-88.389-.191a.258.258,0,0,0-.258.258v1.725a.258.258,0,0,0,.516,0v-1.725A.259.259,0,0,0,720.838,568.585ZM808.972,572a.259.259,0,0,0-.258.26v1.723a.258.258,0,1,0,.516,0v-1.723A.259.259,0,0,0,808.972,572Zm-88.134.03a.256.256,0,0,0-.258.26v1.723a.258.258,0,0,0,.258.258.235.235,0,0,0,.078-.013.256.256,0,0,0,.181-.245v-1.723A.26.26,0,0,0,720.838,572.031Zm88.134,3.417a.257.257,0,0,0-.258.258v1.723a.258.258,0,0,0,.516,0v-1.723A.257.257,0,0,0,808.972,575.449Zm-87.923.14a.258.258,0,0,0-.469.148v1.723a.258.258,0,1,0,.516,0v-1.723A.251.251,0,0,0,721.049,575.589Zm87.923,3.306a.257.257,0,0,0-.258.258v1.723a.2.2,0,0,0,.014.078.013.013,0,0,0,0,.01.247.247,0,0,0,.171.16.241.241,0,0,0,.071.01.253.253,0,0,0,.241-.17.012.012,0,0,0,0-.01.2.2,0,0,0,.013-.078v-1.723A.257.257,0,0,0,808.972,578.895Zm-88.134.03a.257.257,0,0,0-.258.258v1.723a.258.258,0,1,0,.516,0v-1.723A.258.258,0,0,0,720.838,578.925Zm88.134,3.416a.241.241,0,0,0-.071.01.258.258,0,0,0-.187.248v1.723a.258.258,0,0,0,.187.248.241.241,0,0,0,.071.01.257.257,0,0,0,.258-.258V582.6A.258.258,0,0,0,808.972,582.341Zm-88.134.03a.258.258,0,0,0-.258.258v1.723a.258.258,0,0,0,.516,0V582.63A.259.259,0,0,0,720.838,582.371Zm88.134,3.416a.239.239,0,0,0-.071.01.258.258,0,0,0-.187.248v1.723a.258.258,0,1,0,.516,0v-1.723A.258.258,0,0,0,808.972,585.787Zm-88.134.03a.258.258,0,0,0-.258.258v1.353c.17.081.343.162.516.241v-1.595A.259.259,0,0,0,720.838,585.818Zm88.385,3.618a.258.258,0,0,0-.51.057v1.723a.258.258,0,0,0,.516,0v-1.723A.216.216,0,0,0,809.223,589.436Zm-64.09,5.6H743.41a.254.254,0,0,0-.154.051q.992.228,1.99.439a.254.254,0,0,0,.145-.231A.257.257,0,0,0,745.133,595.039Zm3.446,0h-1.723a.258.258,0,1,0,0,.516h1.723a.258.258,0,1,0,0-.516Zm3.446,0H750.3a.258.258,0,1,0,0,.516h1.723a.258.258,0,1,0,0-.516Zm3.448,0h-1.725a.258.258,0,0,0,0,.516h1.725a.258.258,0,1,0,0-.516Zm3.446,0H757.2a.258.258,0,1,0,0,.516h1.723a.258.258,0,1,0,0-.516Zm3.446,0h-1.723a.258.258,0,1,0,0,.516h1.723a.258.258,0,1,0,0-.516Zm3.446,0h-1.723a.258.258,0,1,0,0,.516h1.723a.258.258,0,0,0,0-.516Zm3.446,0h-1.723a.258.258,0,0,0,0,.516h1.723a.258.258,0,0,0,0-.516Zm3.448,0H770.98a.255.255,0,0,0-.17.066.25.25,0,0,0-.088.192.258.258,0,0,0,.258.258h1.725a.258.258,0,1,0,0-.516Zm3.446,0h-1.723a.258.258,0,1,0,0,.516h1.723a.258.258,0,1,0,0-.516Zm3.446,0h-1.723a.258.258,0,1,0,0,.516H779.6a.258.258,0,0,0,0-.516Zm3.446,0H781.32a.258.258,0,0,0,0,.516h1.723a.258.258,0,0,0,0-.516Zm3.446,0h-1.723a.258.258,0,0,0,0,.516h1.723a.258.258,0,1,0,0-.516Zm3.446,0h-1.723a.258.258,0,0,0,0,.516h1.723a.258.258,0,1,0,0-.516Zm3.448,0H791.66a.258.258,0,1,0,0,.516h1.723a.258.258,0,0,0,0-.516Zm3.446,0h-1.723a.258.258,0,0,0,0,.516h1.723a.258.258,0,0,0,0-.516Zm3.446,0h-1.723a.255.255,0,0,0-.256.24.065.065,0,0,0,0,.019.257.257,0,0,0,.258.258h.606c.449-.125.9-.253,1.34-.388A.253.253,0,0,0,800.276,595.039Z" transform="translate(-720.58 -530.01)" fill="#ed7d2b"/>
            </g>
            <path id="Rectángulo_5439" data-name="Rectángulo 5439" d="M5.17,0h13.1a5.17,5.17,0,0,1,5.17,5.17v0a5.17,5.17,0,0,1-5.17,5.17H5.17A5.17,5.17,0,0,1,0,5.17v0A5.17,5.17,0,0,1,5.17,0Z" transform="translate(0 30.765)" fill="#ed7d2b"/>
          </g>
          <g id="Grupo_55661" data-name="Grupo 55661" transform="translate(48.938 51.73)">
            <path id="Trazado_25260" data-name="Trazado 25260" d="M998.068,593.6c0,.052,0,.1,0,.154a32.748,32.748,0,0,1-.722,6c0,.012-.005.024-.007.035s0,.005,0,.008q-.223,1.035-.515,2.052a32.5,32.5,0,0,1-1.46,4.086.012.012,0,0,1,0,.01,32.575,32.575,0,0,1-2.6,4.84q-.443.683-.923,1.343a31.973,31.973,0,0,1-2.071,2.577q-1.169.635-2.369,1.225-1.82.894-3.713,1.686-.314.134-.633.263-.552.225-1.11.44-.807.314-1.627.609-1.815.656-3.7,1.219c-.444.135-.891.263-1.34.388q-2.592.729-5.3,1.286a27.61,27.61,0,0,1-4.217.754,92.211,92.211,0,0,1-10.222.977c-.575.025-1.156.044-1.738.057a32.7,32.7,0,0,1-6.178-3.075c-.233-.145-.463-.3-.69-.451a32.911,32.911,0,0,1-13.806-20.612c-.025-.121-.051-.243-.073-.366q-.114-.582-.2-1.166a32.9,32.9,0,0,1,6.629-25.351,32.393,32.393,0,0,1,4.565-4.734q1.063-.9,2.216-1.718.939-.671,1.937-1.276s.005,0,.008,0q.337-.208.682-.405.271-.157.547-.309a32.856,32.856,0,0,1,4.621-2.1,32.22,32.22,0,0,1,3.3-1.013,32.8,32.8,0,0,1,21.374,1.926q.792.354,1.568.753.319.162.633.334.8.43,1.569.908,1.2.737,2.339,1.583c.174.127.346.258.516.39.311.24.618.488.921.741q.319.263.633.54.519.456,1.023.935l.01.01a32.487,32.487,0,0,1,2.43,2.592c.216.255.427.516.633.78q.931,1.177,1.762,2.455c.046.071.091.142.135.213.032.047.062.094.089.142.1.162.206.324.3.488q.367.6.709,1.22a33.182,33.182,0,0,1,2,4.332.026.026,0,0,1,0,.01,32.544,32.544,0,0,1,2.072,12.223Z" transform="translate(-929.945 -560.06)" fill="#e2810e"/>
            <path id="Trazado_25261" data-name="Trazado 25261" d="M982.751,606.563c0,.015-.005.03-.007.044a32.883,32.883,0,0,1-1.681,6.138.024.024,0,0,1,0,.01q-.3.8-.651,1.588a32.387,32.387,0,0,1-1.762,3.429q-.306.521-.633,1.028c-.029.047-.059.093-.089.138a32.332,32.332,0,0,1-2.879,3.8q-1.82.894-3.713,1.686-.314.134-.633.263-.552.225-1.11.44-.807.314-1.627.609-1.815.656-3.7,1.219c-.444.135-.891.263-1.34.388q-2.592.729-5.3,1.286a27.607,27.607,0,0,1-4.217.754,92.222,92.222,0,0,1-10.222.977c-.575.025-1.156.044-1.738.057q-1.273.033-2.57.032-1.557,0-3.13-.035a32.868,32.868,0,0,1-17.708-23.969c-.035-.206-.068-.413-.1-.621-.046-.3-.086-.609-.121-.915a32.778,32.778,0,0,1,13.4-30.461q.342-.245.69-.483,1.015-.694,2.1-1.316c.184-.108.371-.213.559-.316.42-.233.845-.454,1.271-.665,0,0,.005,0,.008,0,.216-.108.432-.213.65-.316.2-.091.395-.182.592-.27a32.576,32.576,0,0,1,3.907-1.45c.125-.037.25-.074.375-.11A32.164,32.164,0,0,1,945,568.7q.97-.165,1.941-.265a32.811,32.811,0,0,1,13.287,1.328q1.2.377,2.375.845c.213.084.424.17.633.262q.818.344,1.617.736a32.429,32.429,0,0,1,3.09,1.725q.319.2.633.41a32.03,32.03,0,0,1,2.952,2.206l.012.01c.167.14.334.284.5.429.148.13.3.263.445.4.062.057.125.115.187.174.11.1.219.2.329.307q.924.876,1.785,1.834a32.563,32.563,0,0,1,2.326,2.9.031.031,0,0,1,.007.009v0l0,0c.03.044.063.086.091.13a32.941,32.941,0,0,1,1.932,3.09q.633,1.149,1.164,2.326c.035.078.071.155.1.233.057.13.115.262.17.391l.005.01q.347.813.648,1.634c.233.633.442,1.269.633,1.909q.392,1.314.668,2.641a32.437,32.437,0,0,1,.532,3.488c.084.851.133,1.7.148,2.552,0,.052,0,.1,0,.154A32.787,32.787,0,0,1,982.751,606.563Z" transform="translate(-917.595 -566.872)" fill="#ffb93e"/>
            <path id="Trazado_25262" data-name="Trazado 25262" d="M995.74,616.564c0-.052,0-.1-.005-.154-.012-.461-.039-.92-.074-1.379a29.69,29.69,0,0,0-.748-4.661c-.088-.358-.182-.712-.282-1.067a29.987,29.987,0,0,0-1.974-5.117l-.005-.01c-.2-.405-.408-.8-.628-1.2a30.271,30.271,0,0,0-2.221-3.455c-.206-.277-.419-.552-.633-.82-.152-.189-.305-.378-.461-.562l-.12-.142c-.113-.133-.226-.265-.341-.395s-.218-.246-.329-.368c-.061-.069-.125-.137-.187-.2-.147-.157-.294-.314-.445-.467a29.285,29.285,0,0,0-4.707-3.942q-.314-.213-.633-.415c-.132-.083-.262-.165-.395-.248l-.017-.01a29.861,29.861,0,0,0-3.051-1.635q-.314-.147-.633-.285a30.366,30.366,0,0,0-3.7-1.333,30.034,30.034,0,0,0-8.423-1.191,29.582,29.582,0,0,0-8.347,1.227q-1.276.377-2.521.874h0a30.266,30.266,0,0,0-3.443,1.627c-.349.192-.7.391-1.034.6a30.065,30.065,0,0,0-2.72,1.85q-1.051.8-2.02,1.688-.59.534-1.144,1.1a30.04,30.04,0,0,0-8.372,24.259q.066.6.159,1.2c.017.111.034.224.052.336A30.064,30.064,0,0,0,950.1,642.826q.43.266.871.516a30.051,30.051,0,0,0,6.566,2.774q.446.129.894.243a92.21,92.21,0,0,0,10.222-.977,28.34,28.34,0,0,1-13.643-2.04q-.592-.245-1.169-.516a28.212,28.212,0,0,1-15.715-20.675c-.01-.056-.019-.111-.027-.167-.076-.454-.14-.911-.192-1.369a28.265,28.265,0,0,1,7.071-22.066q.6-.658,1.235-1.279.362-.352.737-.692a28.455,28.455,0,0,1,5.324-3.79q.861-.473,1.742-.884a27.978,27.978,0,0,1,6.229-2.059,27.734,27.734,0,0,1,4.675-.548,28.149,28.149,0,0,1,8.733,1.107,28.507,28.507,0,0,1,4.116,1.541l.022.01a27.85,27.85,0,0,1,4.151,2.391q.319.223.633.454a27.862,27.862,0,0,1,3.613,3.195c.046.047.091.095.135.142q.732.78,1.4,1.617c.176.218.346.439.516.663q.478.633.921,1.3c.218.324.43.653.633.989q.344.557.66,1.132c.062.113.125.228.186.343v0a.037.037,0,0,1,.005.008c.169.314.329.631.484.952a28,28,0,0,1,1.932,5.232,27.612,27.612,0,0,1,.879,6.04c0,.051,0,.1.005.154a27.951,27.951,0,0,1-.474,6c0,.013-.005.029-.008.044q-.238,1.258-.594,2.5l-.03.106a28.645,28.645,0,0,1-1.276,3.527l-.005.01a27.8,27.8,0,0,1-3.318,5.654c-.108.142-.218.284-.329.424-.027.035-.056.071-.084.106s-.068.086-.1.13q-.552.681-1.148,1.328c-.2.228-.417.451-.633.672a28.025,28.025,0,0,1-4.707,3.853c-.108.073-.218.143-.327.209q-.734.468-1.5.891t-1.58.808c-.172.083-.346.162-.521.24a27.873,27.873,0,0,1-4.44,1.563q2.711-.557,5.3-1.286c.449-.125.9-.253,1.34-.388q1.881-.565,3.7-1.219.418-.3.825-.609.992-.757,1.912-1.59c.214-.194.425-.39.633-.591q.59-.565,1.148-1.161.258-.278.51-.562.972-1.1,1.833-2.288a29.556,29.556,0,0,0,3.191-5.62c.081-.186.16-.375.238-.564,0,0,0-.007,0-.01a30.6,30.6,0,0,0,1.053-3.031c.121-.422.235-.845.336-1.269q.223-.916.388-1.838c0-.015.005-.03.008-.044.054-.305.1-.613.147-.918q.144-.987.221-1.978A29.281,29.281,0,0,0,995.74,616.564Z" transform="translate(-932.846 -582.869)" fill="#ffa412"/>
            <g id="Grupo_55660" data-name="Grupo 55660" transform="translate(19.224 12.961)">
              <path id="Trazado_25263" data-name="Trazado 25263" d="M1060.389,663.634a.419.419,0,0,0-.007-.044,9.77,9.77,0,0,0-.64-2.3c-.064-.162-.133-.319-.2-.473a8.865,8.865,0,0,0-1.733-2.6c-.084-.084-.169-.167-.257-.246-.123-.111-.248-.219-.376-.324l-.071-.057c-.066-.052-.132-.1-.2-.154a8.968,8.968,0,0,0-2.486-1.308,14.943,14.943,0,0,0-3.981-.748q-2.195-.137-4.779-.062a22.937,22.937,0,0,1-2.729-.056,6.867,6.867,0,0,1-1.922-.42,3.365,3.365,0,0,1-1.283-.869c-.012-.013-.025-.029-.035-.042-.035-.04-.071-.083-.1-.125a3.9,3.9,0,0,1-.326-.467,5.277,5.277,0,0,1-.351-.711,4.955,4.955,0,0,1-.37-1.576,3.362,3.362,0,0,1,.233-1.483,3.592,3.592,0,0,1,.888-1.269.218.218,0,0,1,.027-.027l0,0a5.37,5.37,0,0,1,1.671-1.016,4.391,4.391,0,0,1,2.778-.262,4.113,4.113,0,0,1,.807.3,6.076,6.076,0,0,1,2.709,3.39l6.685-2.714a13.353,13.353,0,0,0-1.492-2.752.032.032,0,0,1-.007-.01,10.44,10.44,0,0,0-.69-.864,9.372,9.372,0,0,0-6.552-3.233,12.352,12.352,0,0,0-4.033.413l-.491-1.21-.523-1.288-.861-2.12-.019-.046-3.7,1.5.852,2.1,1.014,2.5c-.154.079-.3.16-.451.245-.192.106-.38.216-.564.329a12.954,12.954,0,0,0-2.383,1.844,10.357,10.357,0,0,0-2.14,2.984,8.289,8.289,0,0,0-.788,3.372,9.884,9.884,0,0,0,2.908,6.926,8.65,8.65,0,0,0,2.287,1.5c.272.123.554.233.842.331a13.155,13.155,0,0,0,1.848.476c.1.019.194.035.292.051a16.466,16.466,0,0,0,1.843.2,47.271,47.271,0,0,0,4.791-.005,17.58,17.58,0,0,1,2.607.017,6.777,6.777,0,0,1,1.91.425,3.6,3.6,0,0,1,1.338.908,4.486,4.486,0,0,1,.7,1.031c.007.015.013.029.022.044q.1.195.182.41a4.107,4.107,0,0,1,.319,1.585,2.858,2.858,0,0,1-.015.3,3.346,3.346,0,0,1-.341,1.213,4.287,4.287,0,0,1-1.062,1.333,6.423,6.423,0,0,1-1.8,1.053q-.349.142-.709.248l-.034.01a7.8,7.8,0,0,1-1.219.251,4.5,4.5,0,0,1-1.979-.2c-.049-.017-.1-.034-.147-.052l-.027-.01a4.684,4.684,0,0,1-1.632-1.105,7.1,7.1,0,0,1-1.463-2.371l-6.106,2.481h0l-.572.233a11.534,11.534,0,0,0,2.628,4.086,10.019,10.019,0,0,0,2,1.5,8.826,8.826,0,0,0,1.465.661,10.572,10.572,0,0,0,3.934.567,16.646,16.646,0,0,0,4.052-.67l.331.813,1.4,3.441,3.677-1.494-.792-1.948-.945-2.326a14.948,14.948,0,0,0,3.433-2.4,10.843,10.843,0,0,0,1.3-1.462.034.034,0,0,0,.007-.01,9.36,9.36,0,0,0,.766-1.232c.041-.078.079-.155.116-.236a8.274,8.274,0,0,0,.807-3.353A8.067,8.067,0,0,0,1060.389,663.634Z" transform="translate(-1031.51 -636.86)" fill="#ffa412"/>
            </g>
          </g>
        </g>
      </g>
      <path id="Trazado_25264" data-name="Trazado 25264" d="M639.207,696.8a2.442,2.442,0,1,1,2.442,2.442A2.442,2.442,0,0,1,639.207,696.8Z" transform="translate(-622.455 -594.868)" fill="#ffb93e"/>
    </g>
    <path id="Rectángulo_5440" data-name="Rectángulo 5440" d="M.616,0H499.384A.616.616,0,0,1,500,.616v0a.616.616,0,0,1-.616.616H.616A.616.616,0,0,1,0,.616v0A.616.616,0,0,1,.616,0Z" transform="translate(223.202 444.852)" fill="#2e3552"/>
  </g>
</svg>
