<?xml version="1.0" encoding="UTF-8" standalone="no"?><!DOCTYPE svg PUBLIC "-//W3C//DTD SVG 1.1//EN" "http://www.w3.org/Graphics/SVG/1.1/DTD/svg11.dtd"><svg width="100%" height="100%" viewBox="0 0 60 60" version="1.1" xmlns="http://www.w3.org/2000/svg" xmlns:xlink="http://www.w3.org/1999/xlink" xml:space="preserve" xmlns:serif="http://www.serif.com/" style="fill-rule:evenodd;clip-rule:evenodd;stroke-linejoin:round;stroke-miterlimit:2;"><g id="Grupo_55868"><circle id="Elipse_1377" cx="30" cy="30" r="30" style="fill:#2a94ee;"/><g id="_2"><path d="M37.187,41l-14.883,0l-0,-3.223l6.855,-7.207c1.69,-1.924 2.534,-3.452 2.534,-4.585c0,-0.918 -0.2,-1.616 -0.6,-2.094c-0.401,-0.479 -0.982,-0.718 -1.743,-0.718c-0.752,-0 -1.363,0.32 -1.831,0.959c-0.469,0.64 -0.704,1.438 -0.704,2.395l-4.951,0c0,-1.308 0.327,-2.517 0.982,-3.625c0.654,-1.109 1.562,-1.975 2.724,-2.6c1.162,-0.625 2.461,-0.938 3.897,-0.938c2.304,0 4.079,0.532 5.325,1.597c1.245,1.064 1.867,2.593 1.867,4.585c0,0.84 -0.156,1.658 -0.469,2.454c-0.312,0.795 -0.798,1.63 -1.457,2.504c-0.659,0.874 -1.721,2.044 -3.186,3.509l-2.754,3.178l8.394,0l-0,3.809Z" style="fill:#fff;fill-rule:nonzero;"/></g></g></svg>