<?xml version="1.0" encoding="UTF-8" standalone="no"?><!DOCTYPE svg PUBLIC "-//W3C//DTD SVG 1.1//EN" "http://www.w3.org/Graphics/SVG/1.1/DTD/svg11.dtd"><svg width="100%" height="100%" viewBox="0 0 60 60" version="1.1" xmlns="http://www.w3.org/2000/svg" xmlns:xlink="http://www.w3.org/1999/xlink" xml:space="preserve" xmlns:serif="http://www.serif.com/" style="fill-rule:evenodd;clip-rule:evenodd;stroke-linejoin:round;stroke-miterlimit:2;"><g id="Grupo_55871"><circle id="Elipse_1380" cx="30" cy="30" r="30" style="fill:#2a94ee;"/><g id="_5"><path d="M22.597,30.582l1.303,-10.91l12.466,-0l0,3.808l-8.452,0l-0.483,4.267c0.351,-0.206 0.813,-0.388 1.384,-0.545c0.571,-0.157 1.13,-0.235 1.677,-0.235c2.119,-0 3.748,0.627 4.885,1.882c1.138,1.255 1.707,3.015 1.707,5.281c-0,1.367 -0.305,2.605 -0.916,3.713c-0.61,1.109 -1.467,1.961 -2.57,2.556c-1.104,0.596 -2.408,0.894 -3.911,0.894c-1.338,-0 -2.593,-0.276 -3.765,-0.827c-1.172,-0.551 -2.09,-1.308 -2.754,-2.269c-0.664,-0.961 -0.991,-2.046 -0.981,-3.256l4.951,-0c0.049,0.779 0.298,1.398 0.747,1.856c0.449,0.458 1.04,0.687 1.772,0.687c1.66,0 2.49,-1.228 2.49,-3.683c0,-2.271 -1.015,-3.406 -3.046,-3.406c-1.153,-0 -2.012,0.37 -2.579,1.111l-3.925,-0.924Z" style="fill:#fff;fill-rule:nonzero;"/></g></g></svg>