<svg xmlns="http://www.w3.org/2000/svg" width="79" height="79" viewBox="0 0 79 79">
  <g id="Icon" transform="translate(0.308 -0.346)">
    <circle id="Base" cx="39.5" cy="39.5" r="39.5" transform="translate(-0.308 0.345)" fill="#fff"/>
    <g id="governance" transform="translate(-14.007 18.346)">
      <g id="Grupo_55673" data-name="Grupo 55673" transform="translate(34.7 0)">
        <path id="Trazado_25286" data-name="Trazado 25286" d="M70.27,37.492h-.754V36.14A2.724,2.724,0,0,0,69.335,35a.922.922,0,0,0-.853-.56H67.6V21.792h.881a1.035,1.035,0,0,0,1.034-1.034V19.192h.747a.786.786,0,0,0,.4-1.462l-7.629-4.5A.62.62,0,1,0,62.4,14.3l6.192,3.65H37.409L53,8.761l6.9,4.069a.62.62,0,0,0,.63-1.069L53.622,7.687V6.147h2.23V8.119a.62.62,0,0,0,.62.62H63.75a.869.869,0,0,0,.868-.868V4.2a.869.869,0,0,0-.868-.868H61.242V1.609a.869.869,0,0,0-.868-.868H53.622V.62a.62.62,0,0,0-1.241,0V7.687L35.343,17.73a.786.786,0,0,0,.4,1.463h.747v1.566a1.035,1.035,0,0,0,1.034,1.034H38.4V34.437h-.881a1.035,1.035,0,0,0-1.034,1.034v2.021h-.754A1.035,1.035,0,0,0,34.7,38.526v2.783a1.035,1.035,0,0,0,1.034,1.034H70.27A1.035,1.035,0,0,0,71.3,41.309V38.526A1.035,1.035,0,0,0,70.27,37.492ZM57.092,7V6.147h1.366Zm3.861-.949a.619.619,0,0,0,.289-.524V4.573h2.136V7.5H58.635ZM53.622,1.981H60V4.906H53.622Zm7.793,32.456V21.792h1.728V34.437ZM48.425,31.385a.62.62,0,0,0-.62.62v2.339H45.829V21.792H47.8v7.319a.62.62,0,1,0,1.241,0V21.792h1.728V34.437H49.045V32.005A.62.62,0,0,0,48.425,31.385Zm3.589,2.96V21.792H53.99V34.344ZM55.23,21.792h1.728V34.437H55.23ZM58.2,34.344V21.792h1.976V34.344Zm8.161,0H64.384V21.792H66.36ZM37.729,19.192H68.275v1.359H37.729Zm3.891,2.6V34.344H39.643V21.792Zm1.241,0h1.728V34.437H42.86ZM70.063,41.1H35.941v-2.37H61.272a.62.62,0,1,0,0-1.241H37.729V35.678h30.52a3.243,3.243,0,0,1,.027.463v1.352H64.166a.62.62,0,1,0,0,1.241h5.9Z" transform="translate(-34.7 0)"/>
        <path id="Trazado_25287" data-name="Trazado 25287" d="M222.754,138.752A2.749,2.749,0,1,0,225.5,136,2.752,2.752,0,0,0,222.754,138.752Zm4.258,0a1.509,1.509,0,1,1-1.509-1.509A1.511,1.511,0,0,1,227.012,138.752Z" transform="translate(-207.202 -124.755)"/>
      </g>
    </g>
  </g>
</svg>
