<svg xmlns="http://www.w3.org/2000/svg" xmlns:xlink="http://www.w3.org/1999/xlink" width="90" height="90" viewBox="0 0 90 90">
  <defs>
    <clipPath id="clip-path">
      <rect id="Rectángulo_4995" data-name="Rectángulo 4995" width="90" height="90" fill="none"/>
    </clipPath>
  </defs>
  <g id="Grupo_22455" data-name="Grupo 22455" transform="translate(-50 -140)">
    <g id="Grupo_22454" data-name="Grupo 22454" transform="translate(50 140)">
      <g id="Grupo_22453" data-name="Grupo 22453" clip-path="url(#clip-path)">
        <path id="Trazado_20496" data-name="Trazado 20496" d="M62.333,215.948a45,45,0,1,1,65.782-.48,1.2,1.2,0,0,1-1.093.365,190.551,190.551,0,0,0-64.689.115Zm0,0" transform="translate(-50 -140)" fill="#d64626"/>
      </g>
    </g>
    <path id="Trazado_20497" data-name="Trazado 20497" d="M116.371,263.769A45.265,45.265,0,0,1,106,254.3V193.516A3.515,3.515,0,0,1,109.516,190h6.855Zm0,0" transform="translate(-46.156 -41.211)" fill="#df3d9b"/>
    <path id="Trazado_20498" data-name="Trazado 20498" d="M194.336,193.516v62.853a45.241,45.241,0,0,1-6.449,5.878H184.41a5.015,5.015,0,0,0-5.015,5.015A45.031,45.031,0,0,1,130,258.887V193.516A3.515,3.515,0,0,1,133.516,190h57.3a3.515,3.515,0,0,1,3.516,3.516Zm0,0" transform="translate(-65.937 -41.211)" fill="#e659a9"/>
    <path id="Trazado_20499" data-name="Trazado 20499" d="M196.25,230.879v64.249a44.922,44.922,0,0,1-8.8,5.185H150.907A45.013,45.013,0,0,1,140,293.434V230.879a.879.879,0,0,1,.879-.879h54.492a.879.879,0,0,1,.879.879Zm0,0" transform="translate(-74.18 -74.18)" fill="#cff09a"/>
    <path id="Trazado_20500" data-name="Trazado 20500" d="M251.4,210H237.334a4.839,4.839,0,0,0-4.834,4.834v1.758a4.839,4.839,0,0,0,4.834,4.834H251.4a4.839,4.839,0,0,0,4.834-4.834v-1.758A4.839,4.839,0,0,0,251.4,210Zm2.2,6.592a2.2,2.2,0,0,1-2.2,2.2H237.334a2.2,2.2,0,0,1-2.2-2.2v-1.758a2.2,2.2,0,0,1,2.2-2.2H251.4a2.2,2.2,0,0,1,2.2,2.2Zm0,0" transform="translate(-150.42 -57.695)" fill="#024c67"/>
    <path id="Trazado_20501" data-name="Trazado 20501" d="M246.367,190.547H221.758A1.758,1.758,0,0,1,220,188.789v-7.91a.879.879,0,0,1,.879-.879h26.367a.879.879,0,0,1,.879.879v7.91a1.758,1.758,0,0,1-1.758,1.758ZM274.106,228.4l-2.563-2.563a.454.454,0,0,0-.641,0l-17.9,17.9a.453.453,0,0,1-.641,0l-6.178-6.179a.454.454,0,0,0-.641,0l-2.563,2.563a.453.453,0,0,0,0,.641l9.062,9.06a.907.907,0,0,0,1.281,0l20.778-20.777a.454.454,0,0,0,0-.641Zm0,0" transform="translate(-140.117 -32.969)" fill="#025f80"/>
    <path id="Trazado_20502" data-name="Trazado 20502" d="M264.609,156.152v7.91a1.758,1.758,0,0,1-1.758,1.758H241.758A1.758,1.758,0,0,1,240,164.063v-7.91a.879.879,0,0,1,.879-.879h6.152v-1.758a3.516,3.516,0,0,1,7.031,0v1.758h9.668a.879.879,0,0,1,.879.879Zm0,0" transform="translate(-156.602 -8.242)" fill="#017296"/>
    <path id="Trazado_20503" data-name="Trazado 20503" d="M293.516,161.758A1.758,1.758,0,1,1,291.758,160a1.758,1.758,0,0,1,1.758,1.758Zm0,0" transform="translate(-197.812 -16.484)" fill="#025f80"/>
    <path id="Trazado_20504" data-name="Trazado 20504" d="M173.184,300.137a6.6,6.6,0,0,1-5.273,6.459v3.956a1.318,1.318,0,0,1-2.637,0V306.6a6.592,6.592,0,1,1,7.91-6.459Zm-6.68,12.788a1.318,1.318,0,1,0,1.318,1.318,1.319,1.319,0,0,0-1.318-1.318Zm0-23.019a1.318,1.318,0,1,0,1.318,1.318,1.319,1.319,0,0,0-1.318-1.318Zm-1.23-10.226v3.956a1.318,1.318,0,0,0,2.637,0V279.68a6.592,6.592,0,1,0-2.637,0Zm1.23,6.33a1.318,1.318,0,1,0,1.318,1.318,1.318,1.318,0,0,0-1.318-1.318Zm0,0" transform="translate(-90.664 -104.37)" fill="#b8eb6a"/>
    <path id="Trazado_20505" data-name="Trazado 20505" d="M182.91,312.5a3.955,3.955,0,1,1-3.955-3.955,3.96,3.96,0,0,1,3.955,3.955Zm-3.955-22.96A3.955,3.955,0,1,0,175,285.588a3.96,3.96,0,0,0,3.955,3.955Zm0,0" transform="translate(-103.027 -116.737)" fill="#7ecd00"/>
    <path id="Trazado_20506" data-name="Trazado 20506" d="M286.586,296.953v1.23a.7.7,0,0,1-.7.7H256.7a.7.7,0,0,1-.7-.7v-1.23a.7.7,0,0,1,.7-.7h29.18a.7.7,0,0,1,.7.7ZM256.7,303.94h22.148a.7.7,0,0,0,.7-.7v-1.23a.7.7,0,0,0-.7-.7H256.7a.7.7,0,0,0-.7.7v1.23a.7.7,0,0,0,.7.7Zm29.18,2.856H256.7a.7.7,0,0,0-.7.7v1.23a.7.7,0,0,0,.7.7h29.18a.7.7,0,0,0,.7-.7V307.5a.7.7,0,0,0-.7-.7Zm-29.18,7.69h22.148a.7.7,0,0,0,.7-.7v-1.23a.7.7,0,0,0-.7-.7H256.7a.7.7,0,0,0-.7.7v1.23a.7.7,0,0,0,.7.7Zm29.18,6.372H256.7a.7.7,0,0,0-.7.7v1.23a.7.7,0,0,0,.7.7h29.18a.7.7,0,0,0,.7-.7v-1.23a.7.7,0,0,0-.7-.7Zm-7.031,5.054H256.7a.7.7,0,0,0-.7.7v1.23a.7.7,0,0,0,.7.7h22.148a.7.7,0,0,0,.7-.7v-1.23a.7.7,0,0,0-.7-.7Zm0,0" transform="translate(-169.789 -128.784)" fill="#a1e52e"/>
    <path id="Trazado_20507" data-name="Trazado 20507" d="M139.456,555.533c-.21.1-.421.194-.632.288h-50A7.822,7.822,0,0,1,81,548v-7.119a.879.879,0,0,1,.879-.879h50.977a.879.879,0,0,1,.879.879V548a7.824,7.824,0,0,0,5.721,7.534Zm0,0" transform="translate(-25.551 -329.688)" fill="#ecf8d9"/>
    <path id="Trazado_20508" data-name="Trazado 20508" d="M93.217,555.82H88.822A7.822,7.822,0,0,1,81,548v-7.119a.879.879,0,0,1,.879-.879h3.516v8a7.822,7.822,0,0,0,7.822,7.822Zm0,0" transform="translate(-25.551 -329.688)" fill="#ddf4ba"/>
  </g>
</svg>
