<svg xmlns="http://www.w3.org/2000/svg" width="79" height="79" viewBox="0 0 79 79">
  <g id="Grupo_55872" data-name="Grupo 55872" transform="translate(-986 -31994)">
    <circle id="Base" cx="39.5" cy="39.5" r="39.5" transform="translate(986 31994)" fill="#fff"/>
    <g id="press" transform="translate(1008 32016)">
      <g id="Grupo_55674" data-name="Grupo 55674" transform="translate(0)">
        <path id="Trazado_25288" data-name="Trazado 25288" d="M113.663,195h7.206a.525.525,0,0,0,0-1.049h-7.206a.525.525,0,0,0,0,1.049Z" transform="translate(-105.225 -180.386)"/>
        <path id="Trazado_25289" data-name="Trazado 25289" d="M113.663,227.325h7.206a.525.525,0,0,0,0-1.049h-7.206a.525.525,0,0,0,0,1.049Z" transform="translate(-105.225 -210.451)"/>
        <path id="Trazado_25290" data-name="Trazado 25290" d="M113.663,259.651h7.206a.525.525,0,0,0,0-1.049h-7.206a.525.525,0,0,0,0,1.049Z" transform="translate(-105.225 -240.516)"/>
        <path id="Trazado_25291" data-name="Trazado 25291" d="M113.663,291.976h7.206a.525.525,0,0,0,0-1.049h-7.206a.525.525,0,0,0,0,1.049Z" transform="translate(-105.225 -270.58)"/>
        <path id="Trazado_25292" data-name="Trazado 25292" d="M113.663,324.3h5.087a.525.525,0,1,0,0-1.049h-5.087a.525.525,0,1,0,0,1.049Z" transform="translate(-105.225 -300.644)"/>
        <path id="Trazado_25293" data-name="Trazado 25293" d="M33.871,2.261H29.309V.525A.525.525,0,0,0,28.785,0H6.176a.525.525,0,0,0-.525.525V5.793H1.929A1.94,1.94,0,0,0,0,7.731V32.4A3.451,3.451,0,0,0,1.031,34.85a3.3,3.3,0,0,0,2.319.959H25.958a3.355,3.355,0,0,0,3.351-3.351V24.216a.525.525,0,0,0-1.049,0v8.242a2.3,2.3,0,0,1-2.3,2.3H5.783a3.339,3.339,0,0,0,.918-2.3V15.313a.525.525,0,0,0-1.049,0V29.531H3.875V25.58a.525.525,0,1,0-1.049,0v4.476a.525.525,0,0,0,.525.525h2.3v1.877a2.3,2.3,0,0,1-2.279,2.3A2.249,2.249,0,0,1,1.766,34.1a2.4,2.4,0,0,1-.717-1.7V7.731a.889.889,0,0,1,.888-.888h0a.89.89,0,0,1,.887.889v15.4a.525.525,0,0,0,1.049,0V7.731a1.927,1.927,0,0,0-.216-.889H5.652v6.023a.525.525,0,0,0,1.049,0V1.049H28.26V2.261H19.317A1.94,1.94,0,0,0,17.38,4.2V18.045a1.94,1.94,0,0,0,1.938,1.938h.465v2.584a.525.525,0,0,0,.849.412l3.814-3H28.26v1.785a.525.525,0,1,0,1.049,0V19.983h4.562a1.94,1.94,0,0,0,1.937-1.937V4.2a1.94,1.94,0,0,0-1.938-1.938Zm.888,15.785a.889.889,0,0,1-.888.888H24.263a.524.524,0,0,0-.324.112l-3.108,2.442V19.459a.525.525,0,0,0-.525-.525h-.989a.889.889,0,0,1-.888-.888V4.2a.889.889,0,0,1,.888-.888H33.871a.889.889,0,0,1,.888.888Z" transform="translate(0)"/>
        <path id="Trazado_25294" data-name="Trazado 25294" d="M294.365,68.205l-1.893-.591v-2.44a.525.525,0,0,0-.663-.506l-7.7,2.1h-1.625a1.657,1.657,0,0,0-1.655,1.655v3.391a1.658,1.658,0,0,0,1.217,1.6l.725,3.461a1.237,1.237,0,0,0,1.205.979h.991a1.09,1.09,0,0,0,1.067-1.313l-.565-2.7,6.344,1.73a.525.525,0,0,0,.663-.506v-2.44l1.893-.591a.525.525,0,0,0,.368-.5V68.706A.525.525,0,0,0,294.365,68.205Zm-12.49.218a.607.607,0,0,1,.606-.606h1.171v4.6h-1.171a.607.607,0,0,1-.606-.606ZM285,76.751a.041.041,0,0,1-.04.049h-.991a.183.183,0,0,1-.178-.145l-.668-3.186h.98l.222.061Zm6.419-2.374-6.495-1.771-.009,0-.218-.06V67.694l6.722-1.833v8.517Zm2.261-3.231-1.212.379V68.713l1.212.379Z" transform="translate(-261.185 -60.127)"/>
        <path id="Trazado_25295" data-name="Trazado 25295" d="M113.138,363.024a1.232,1.232,0,0,0,1.231,1.231h16.673a1.232,1.232,0,0,0,1.231-1.231v-6.217a1.232,1.232,0,0,0-1.231-1.231H114.369a1.232,1.232,0,0,0-1.231,1.231Zm1.049-6.217a.182.182,0,0,1,.182-.182h16.673a.182.182,0,0,1,.182.182v6.217a.182.182,0,0,1-.182.182H114.369a.182.182,0,0,1-.182-.182Z" transform="translate(-105.225 -330.708)"/>
        <path id="Trazado_25296" data-name="Trazado 25296" d="M114.369,42.417h5.793a1.232,1.232,0,0,0,1.231-1.231v-7.63a1.232,1.232,0,0,0-1.231-1.231h-5.793a1.232,1.232,0,0,0-1.231,1.231v7.63A1.232,1.232,0,0,0,114.369,42.417Zm-.182-8.861a.182.182,0,0,1,.182-.182h5.793a.182.182,0,0,1,.182.182v7.63a.182.182,0,0,1-.182.182h-5.793a.182.182,0,0,1-.182-.182Z" transform="translate(-105.225 -30.064)"/>
      </g>
    </g>
  </g>
</svg>
