<svg xmlns="http://www.w3.org/2000/svg" xmlns:xlink="http://www.w3.org/1999/xlink" width="90" height="90" viewBox="0 0 90 90">
  <defs>
    <clipPath id="clip-path">
      <rect id="Rectángulo_4994" data-name="Rectángulo 4994" width="90" height="90" fill="none"/>
    </clipPath>
  </defs>
  <g id="Grupo_22451" data-name="Grupo 22451" transform="translate(-50 -140)">
    <g id="Grupo_22450" data-name="Grupo 22450" transform="translate(50 140)">
      <g id="Grupo_22449" data-name="Grupo 22449" clip-path="url(#clip-path)">
        <path id="Trazado_20473" data-name="Trazado 20473" d="M140,184.962a45,45,0,1,1-87.01-16.115,1.12,1.12,0,0,1,1.043-.721,3,3,0,0,0,3-3v-3.935a1.191,1.191,0,0,1,.191-.65A45,45,0,0,1,140,184.962Zm0,0" transform="translate(-49.999 -140.001)" fill="#d64626"/>
        <path id="Trazado_20474" data-name="Trazado 20474" d="M131.738,314.214v7.223q-.565.8-1.163,1.566H96.939a11.468,11.468,0,0,1-7.138-2.5l-7.484-5.987-2.3,3.523a11.389,11.389,0,0,1-9.57,5.184H59.591a45,45,0,0,1-5.4-8.789H71.328a2.635,2.635,0,0,0,2.208-1.2L76,309.457l-8.713-6.971a2.636,2.636,0,0,0-1.647-.577H50.464A45.275,45.275,0,0,1,50,295.445q0-1.17.059-2.326h15.58a11.467,11.467,0,0,1,7.138,2.5l8.046,6.437,5.508-8.444-12.811-10.25a2.64,2.64,0,0,0-1.647-.577H51.807q.535-1.827,1.217-3.589a8.132,8.132,0,0,1,7.583-5.2H70.993a11.467,11.467,0,0,1,7.138,2.5l12.722,10.178,4.89-7.5a11.388,11.388,0,0,1,9.57-5.184h16.866q.542,1,1.034,2.028v6.761H104.434a2.635,2.635,0,0,0-2.208,1.2l-5.055,7.751,3.475,2.78a2.641,2.641,0,0,0,1.647.577h24.956v8.789H103.172a11.424,11.424,0,0,1-7.137-2.5l-3.387-2.709-5.508,8.444,8.151,6.521a2.648,2.648,0,0,0,1.647.578Zm0,0" transform="translate(-50 -250.445)" fill="#97181a"/>
        <path id="Trazado_20475" data-name="Trazado 20475" d="M139.744,391.972l-8.135,6.7a.7.7,0,0,1-1.149-.543v-2.243H98.17a11.468,11.468,0,0,1-7.138-2.5L68.517,375.366a2.648,2.648,0,0,0-1.647-.577H50.136Q50,373.048,50,371.273A45.454,45.454,0,0,1,50.309,366H66.87a11.469,11.469,0,0,1,7.138,2.5l22.515,18.013a2.648,2.648,0,0,0,1.647.577h32.29v-2.36a.7.7,0,0,1,1.149-.543l8.135,6.7a.7.7,0,0,1,0,1.086Zm0,0" transform="translate(-50 -326.273)" fill="#fc6930"/>
      </g>
    </g>
    <path id="Trazado_20476" data-name="Trazado 20476" d="M218.634,423.988l-4.824,7.4-6.318-5.054,4.824-7.4Zm0,0" transform="translate(-129.808 -229.903)" fill="#fc5426"/>
    <path id="Trazado_20477" data-name="Trazado 20477" d="M145.185,247.841l-8.134,6.7a.7.7,0,0,1-1.15-.543v-2.478H115.747a2.626,2.626,0,0,0-2.208,1.2L91.332,286.762a11.389,11.389,0,0,1-9.57,5.184H70.745a44.84,44.84,0,0,1-4.46-8.789H81.762a2.626,2.626,0,0,0,2.208-1.2l22.206-34.049a11.388,11.388,0,0,1,9.57-5.184H135.9V240.6a.7.7,0,0,1,1.15-.543l8.134,6.7a.7.7,0,0,1,0,1.086Zm0,0" transform="translate(-13.422 -82.337)" fill="#0ed1b2"/>
    <path id="Trazado_20478" data-name="Trazado 20478" d="M242.574,328.473l6.9,5.516-4.824,7.4-6.9-5.516Zm0,0" transform="translate(-154.747 -155.343)" fill="#0ab59e"/>
    <path id="Trazado_20479" data-name="Trazado 20479" d="M149.3,282.207l-8.135,6.7a.7.7,0,0,1-1.149-.543v-2.477h-22.1a11.468,11.468,0,0,1-7.138-2.5L88.267,265.366a2.648,2.648,0,0,0-1.647-.577H66.285A44.843,44.843,0,0,1,70.745,256H86.62a11.468,11.468,0,0,1,7.138,2.5l22.515,18.013a2.649,2.649,0,0,0,1.647.577h22.1v-2.126a.7.7,0,0,1,1.149-.543l8.135,6.7a.7.7,0,0,1,0,1.086Zm0,0" transform="translate(-13.422 -95.609)" fill="#fdbf43"/>
  </g>
</svg>
