<svg xmlns="http://www.w3.org/2000/svg" width="79" height="79" viewBox="0 0 79 79">
  <g id="Grupo_55752" data-name="Grupo 55752" transform="translate(-770 -1504)">
    <circle id="Base" cx="39.5" cy="39.5" r="39.5" transform="translate(770 1504)" fill="#fff"/>
    <g id="_029-website" data-name="029-website" transform="translate(787.734 1521.734)">
      <path id="Trazado_24674" data-name="Trazado 24674" d="M27,45h1.325v1.325H27Z" transform="translate(-8.769 -14.839)"/>
      <path id="Trazado_24675" data-name="Trazado 24675" d="M31,45h1.325v1.325H31Z" transform="translate(-10.118 -14.839)"/>
      <path id="Trazado_24676" data-name="Trazado 24676" d="M23,45h1.325v1.325H23Z" transform="translate(-7.42 -14.839)"/>
      <path id="Trazado_24677" data-name="Trazado 24677" d="M18.255,15H5V28.255H8.976v2.651H22.231V17.651H18.255ZM6.325,26.929v-10.6h10.6v1.325H8.976v9.278Zm7.953-3.976A1.325,1.325,0,1,1,15.6,24.278,1.327,1.327,0,0,1,14.278,22.953ZM15.6,25.6a3.317,3.317,0,0,1,3.314,3.314v.663H12.29v-.663A3.317,3.317,0,0,1,15.6,25.6Zm5.3,3.976h-.663v-.663a4.641,4.641,0,0,0-2.677-4.2,2.651,2.651,0,1,0-3.923,0,4.641,4.641,0,0,0-2.677,4.2v.663H10.3v-10.6h10.6Z" transform="translate(-1.349 -4.722)"/>
      <path id="Trazado_24678" data-name="Trazado 24678" d="M42.09,10.941a9.934,9.934,0,0,0-19.3-3.314H2.988A1.991,1.991,0,0,0,1,9.616V32.149a1.991,1.991,0,0,0,1.988,1.988H14.069l-.994,3.976H8.953A1.991,1.991,0,0,0,6.965,40.1V42.09H30.823V40.1a1.991,1.991,0,0,0-1.988-1.988H24.713l-.994-3.976H34.8a1.991,1.991,0,0,0,1.988-1.988V19.727A9.947,9.947,0,0,0,42.09,10.941Zm-9.941,8.616c-.928,0-1.916-1.247-2.57-3.314h5.14C34.065,18.309,33.077,19.557,32.149,19.557Zm0-17.231c.928,0,1.916,1.247,2.57,3.314h-5.14C30.233,3.573,31.22,2.325,32.149,2.325Zm2.917,4.639a18.806,18.806,0,0,1,.383,3.314h-6.6a18.806,18.806,0,0,1,.383-3.314Zm5.665,3.314H36.773a20.735,20.735,0,0,0-.345-3.314h3.356A8.544,8.544,0,0,1,40.731,10.278Zm-13.206,0H23.567a8.544,8.544,0,0,1,.946-3.314h3.356A20.735,20.735,0,0,0,27.524,10.278Zm0,1.325a20.735,20.735,0,0,0,.345,3.314H24.513a8.544,8.544,0,0,1-.946-3.314Zm.663,4.639a10.121,10.121,0,0,0,1.259,2.873,8.641,8.641,0,0,1-4.074-2.873Zm1.044-1.325a18.806,18.806,0,0,1-.383-3.314h6.6a18.806,18.806,0,0,1-.383,3.314ZM36.773,11.6h3.957a8.544,8.544,0,0,1-.946,3.314H36.428A20.736,20.736,0,0,0,36.773,11.6Zm2.152-5.965H36.11a10.121,10.121,0,0,0-1.259-2.873A8.635,8.635,0,0,1,38.925,5.639ZM29.446,2.766a10.121,10.121,0,0,0-1.259,2.873H25.372A8.635,8.635,0,0,1,29.446,2.766ZM29.5,40.1v.663H8.29V40.1a.663.663,0,0,1,.663-.663H28.835A.663.663,0,0,1,29.5,40.1Zm-6.15-1.988H14.44l.994-3.976h6.919Zm11.452-5.3H2.988a.663.663,0,0,1-.663-.663V28.835H35.462v3.314A.663.663,0,0,1,34.8,32.811Zm.663-5.3H2.325V9.616a.663.663,0,0,1,.663-.663h19.42A9.919,9.919,0,0,0,35.462,20.3Zm-.611-8.394a10.14,10.14,0,0,0,1.259-2.873h2.815A8.635,8.635,0,0,1,34.851,19.116Z" transform="translate(0 0)"/>
      <path id="Trazado_24679" data-name="Trazado 24679" d="M33,33H44.929v1.325H33Z" transform="translate(-10.792 -10.792)"/>
      <path id="Trazado_24680" data-name="Trazado 24680" d="M49,37h1.325v1.325H49Z" transform="translate(-16.189 -12.141)"/>
      <path id="Trazado_24681" data-name="Trazado 24681" d="M33,37h9.278v1.325H33Z" transform="translate(-10.792 -12.141)"/>
    </g>
  </g>
</svg>
