<svg xmlns="http://www.w3.org/2000/svg" width="200" height="120" viewBox="0 0 200 120">
  <g id="Grupo_55875" data-name="Grupo 55875" transform="translate(-179 -3096)">
    <rect id="Rectángulo_5007" data-name="Rectángulo 5007" width="200" height="120" rx="5" transform="translate(179 3096)" fill="#e1eafe"/>
    <g id="handshake" transform="translate(239 3116.5)">
      <path id="Trazado_25790" data-name="Trazado 25790" d="M79.218,117.528,65.9,100.233a1.56,1.56,0,0,0-2.073-.364l-8.6,5.467H44.026a1.546,1.546,0,0,0-.429.072l-8.692,2.5-9.019-2.467-8.764-5.573a1.559,1.559,0,0,0-2.051.336L.345,118.445a1.559,1.559,0,0,0,.2,2.162l7.718,6.642,6.924,9.331a5.507,5.507,0,0,0,3.465,9.251,5.548,5.548,0,0,0-.064.843,5.512,5.512,0,0,0,5.512,5.512l.059,0c0,.038,0,.075,0,.112a5.511,5.511,0,0,0,5.512,5.512,5.625,5.625,0,0,0,.861-.067,5.512,5.512,0,0,0,9.38,3.356l.843-.843.354.285a5.509,5.509,0,0,0,9.341-4.048,5.5,5.5,0,0,0,5.6-5.592,5.508,5.508,0,0,0,5.595-5.6,5.509,5.509,0,0,0,4.709-8.511L71.4,126.2l7.6-6.541a1.559,1.559,0,0,0,.218-2.134Zm-62.6-14.279,6.3,4.007-13.708,16.7-5.493-4.728Zm.889,35.409,1.9-1.9c.058-.058.118-.112.18-.163a2.387,2.387,0,0,1,1.3-.527l.041,0c.068-.005.136-.009.2-.008a2.378,2.378,0,0,1,1.707.749,2.452,2.452,0,0,1-.106,3.393l-1.844,1.844a2.393,2.393,0,1,1-3.383-3.384Zm4.893,9.707a2.392,2.392,0,0,1,0-3.383l3.688-3.688a2.418,2.418,0,0,1,2.72-.47,2.385,2.385,0,0,1,1.318,2.471,2.525,2.525,0,0,1-.712,1.441l-3.63,3.629a2.392,2.392,0,0,1-3.384,0Zm5.569,5.623a2.392,2.392,0,0,1,0-3.383l3.687-3.688a2.419,2.419,0,0,1,2.892-.379,2.381,2.381,0,0,1,1.142,2.418,2.528,2.528,0,0,1-.709,1.4l-3.629,3.629a2.392,2.392,0,0,1-3.384,0Zm6.343,4.9a2.4,2.4,0,0,1,0-3.383l1.9-1.9c.058-.058.118-.112.18-.163l0,0a2.384,2.384,0,0,1,1.061-.493l.027,0c.067-.012.135-.022.2-.028.027,0,.055,0,.083,0,.056,0,.111-.007.167-.006a2.377,2.377,0,0,1,1.707.749,2.158,2.158,0,0,1,.154.181,2.469,2.469,0,0,1-.269,3.221L37.7,158.892a2.4,2.4,0,0,1-3.383,0Zm29.1-17.407a2.4,2.4,0,0,1-3.383,0,1.424,1.424,0,0,0-.106-.1L49.894,131.255a1.56,1.56,0,0,0-2.217,2.194l10.138,10.243,0,0a2.393,2.393,0,1,1-3.384,3.384l-6.782-6.852a1.56,1.56,0,1,0-2.217,2.194l6.678,6.747a1.48,1.48,0,0,0,.109.122,2.393,2.393,0,1,1-3.384,3.383l-3.7-3.74a1.56,1.56,0,1,0-2.217,2.194l3.6,3.635a1.39,1.39,0,0,0,.11.123,2.393,2.393,0,0,1-3.383,3.384,3.449,3.449,0,0,0-.354-.282c-.1-.078-.129-.132-.078-.255s.129-.239.18-.365.1-.286.148-.431a5.623,5.623,0,0,0,.2-2.4,5.456,5.456,0,0,0-4.65-4.7,5.563,5.563,0,0,0-1.336-5.019,5.471,5.471,0,0,0-3.929-1.724h-.164a5.459,5.459,0,0,0-5.4-5.623,5.609,5.609,0,0,0-1.331.141,5.459,5.459,0,0,0-5.348-4.68,5.525,5.525,0,0,0-3.766,1.416l-6.029-8.124,14.424-17.572,4.6,1.257-6,10.594a5.513,5.513,0,0,0,2.079,7.513q.12.068.243.13l.019.009a5.55,5.55,0,0,0,.661.277A5.512,5.512,0,0,0,34,125.942l3.9-6.885,6.966.494L63.413,138.1a2.4,2.4,0,0,1,0,3.384Zm.646-7.149-17.4-17.4a1.376,1.376,0,0,0-.1-.095,1.561,1.561,0,0,0-.889-.358l-8.529-.605a1.585,1.585,0,0,0-1.467.787L31.281,124.4a2.393,2.393,0,1,1-4.163-2.359l5.856-10.334,2.373-.683.047-.016,8.856-2.557h10.7l13.358,16.981Zm6.293-11.347L58,107.276l6.3-4.01L75.846,118.26Zm0,0" transform="translate(0 -83.725)" fill="#20287a"/>
      <path id="Trazado_25791" data-name="Trazado 25791" d="M301.7,42.645a1.555,1.555,0,0,0,1.1-.457l10.654-10.654a1.56,1.56,0,0,0-2.206-2.206L300.6,39.982a1.56,1.56,0,0,0,1.1,2.663Zm0,0" transform="translate(-253.516 -23.963)" fill="#20287a"/>
      <path id="Trazado_25792" data-name="Trazado 25792" d="M134.307,42.188a1.56,1.56,0,1,0,2.206-2.206L125.858,29.328a1.56,1.56,0,0,0-2.206,2.206Zm0,0" transform="translate(-104.057 -23.964)" fill="#20287a"/>
      <path id="Trazado_25793" data-name="Trazado 25793" d="M247.521,52.635a1.56,1.56,0,0,0,1.56-1.56V42.259a1.56,1.56,0,1,0-3.119,0v8.817A1.56,1.56,0,0,0,247.521,52.635Zm0,0" transform="translate(-207.75 -33.954)" fill="#20287a"/>
      <path id="Trazado_25794" data-name="Trazado 25794" d="M246.1,2.652A1.559,1.559,0,1,0,248.491.818,1.559,1.559,0,0,0,246.1,2.652Zm0,0" transform="translate(-207.771 0)" fill="#20287a"/>
    </g>
  </g>
</svg>
