<svg xmlns="http://www.w3.org/2000/svg" width="80" height="80" viewBox="0 0 80 80">
  <g id="Grupo_55878" data-name="Grupo 55878" transform="translate(-990 -4158)">
    <circle id="Base" cx="40" cy="40" r="40" transform="translate(990 4158)" fill="#fff"/>
    <g id="_050-web" data-name="050-web" transform="translate(1003 4143)">
      <path id="Trazado_26434" data-name="Trazado 26434" d="M35.222,59.583a.8.8,0,0,0,0,1.6A.8.8,0,0,0,35.222,59.583Z" transform="translate(-30.749 -25.533)"/>
      <path id="Trazado_26435" data-name="Trazado 26435" d="M62.055,59.583a.8.8,0,0,0,0,1.6A.8.8,0,1,0,62.055,59.583Z" transform="translate(-54.72 -25.533)"/>
      <path id="Trazado_26436" data-name="Trazado 26436" d="M88.889,59.583a.8.8,0,0,0,0,1.6A.8.8,0,0,0,88.889,59.583Z" transform="translate(-78.802 -25.533)"/>
      <path id="Trazado_26437" data-name="Trazado 26437" d="M53.209,31H.791A.791.791,0,0,0,0,31.791V77.67a.791.791,0,0,0,.791.791H53.209A.791.791,0,0,0,54,77.67V31.791A.791.791,0,0,0,53.209,31ZM1.582,38.611H34.914v18.6h-24.6A.791.791,0,0,0,9.526,58v7.91c0,1.123,1.83.933,1.582-.173V58.791H42.892V76.858H11.108V70.3c.23-1.031-1.582-1.408-1.582-.174v6.751H1.582ZM44.474,76.879V58a.791.791,0,0,0-.791-.791H36.5v-18.6h5.637a.791.791,0,0,0,0-1.582H1.582V32.582H52.418v4.447H46.906a.791.791,0,0,0,0,1.582h5.512V76.879Z"/>
      <path id="Trazado_26438" data-name="Trazado 26438" d="M134.947,338.718h5.045a.8.8,0,0,0,0-1.6h-5.045A.8.8,0,0,0,134.947,338.718Z" transform="translate(-120.043 -273.845)"/>
      <path id="Trazado_26439" data-name="Trazado 26439" d="M134.947,374.252H146.96a.8.8,0,0,0,0-1.6H134.947A.8.8,0,0,0,134.947,374.252Z" transform="translate(-120.075 -305.633)"/>
      <path id="Trazado_26440" data-name="Trazado 26440" d="M134.947,409.787h8.695a.8.8,0,0,0,0-1.6h-8.695A.8.8,0,0,0,134.947,409.787Z" transform="translate(-120.058 -337.495)"/>
      <path id="Trazado_26441" data-name="Trazado 26441" d="M295.514,340.834l1.61,1.569-.38,2.215a.808.808,0,0,0,1.161.844l1.989-1.046,1.989,1.046a.807.807,0,0,0,1.161-.844l-.38-2.215,1.609-1.569a.807.807,0,0,0-.444-1.365l-2.224-.323-.995-2.016a.807.807,0,0,0-1.435,0l-.995,2.016-2.224.323A.807.807,0,0,0,295.514,340.834Zm3.314-.165a.8.8,0,0,0,.6-.438l.463-.939.463.939a.8.8,0,0,0,.6.438l1.036.151-.75.731a.8.8,0,0,0-.23.708l.177,1.032-.927-.487a.8.8,0,0,0-.745,0l-.927.487.177-1.032a.8.8,0,0,0-.23-.708l-.75-.731Z" transform="translate(-264.21 -273.628)"/>
      <path id="Trazado_26442" data-name="Trazado 26442" d="M62,171.594H83.292a.8.8,0,0,0,0-1.6H62A.8.8,0,0,0,62,171.594Z" transform="translate(-54.695 -124.34)"/>
      <path id="Trazado_26443" data-name="Trazado 26443" d="M75.211,212.592a.8.8,0,0,0,0-1.6H62a.8.8,0,0,0,0,1.6Z" transform="translate(-54.695 -161.016)"/>
    </g>
  </g>
</svg>
