<svg xmlns="http://www.w3.org/2000/svg" width="80" height="79" viewBox="0 0 80 79">
  <g id="Grupo_55751" data-name="Grupo 55751" transform="translate(-1025 -1504)">
    <ellipse id="Base" cx="40" cy="39.5" rx="40" ry="39.5" transform="translate(1025 1504)" fill="#fff"/>
    <g id="_004-best_seller" data-name="004-best seller" transform="translate(1041.913 1520.913)">
      <path id="Trazado_24417" data-name="Trazado 24417" d="M18.573,29a5.573,5.573,0,1,0,5.573,5.573A5.58,5.58,0,0,0,18.573,29Zm0,9.753a4.18,4.18,0,1,1,4.18-4.18A4.184,4.184,0,0,1,18.573,38.753Z" transform="translate(-3.64 -8.493)"/>
      <path id="Trazado_24418" data-name="Trazado 24418" d="M16.813,25a8.356,8.356,0,0,0-5.908,14.269L7.2,45.2h4.268l1.865,4.662,3.263-8.157c.074,0,.146.011.22.011a8.387,8.387,0,0,0,.9-.051l3.279,8.2L22.858,45.2h4.268l-3.993-6.388A8.348,8.348,0,0,0,16.813,25ZM13.329,46.115l-.922-2.3H9.71l2.274-3.638a8.3,8.3,0,0,0,3.17,1.381ZM9.846,33.36a6.967,6.967,0,1,1,6.967,6.967A6.975,6.975,0,0,1,9.846,33.36ZM21.914,43.81l-.922,2.3L19.1,41.393a8.349,8.349,0,0,0,3.012-1.577l2.5,3.993Z" transform="translate(-1.879 -7.28)"/>
      <path id="Trazado_24419" data-name="Trazado 24419" d="M31.617,10.762l.262.295a3.5,3.5,0,0,0,1.113.842l.382.183,1.092-.823,1.093.823.382-.183a3.5,3.5,0,0,0,1.113-.842l.262-.295L36.9,9.427l.7-.53.7.53-.419,1.336.262.295a3.5,3.5,0,0,0,1.113.842l.382.183,1.092-.823,1.093.823.382-.183a3.5,3.5,0,0,0,1.113-.842l.262-.295-.419-1.336.7-.53.7.53-.419,1.336.262.295a3.5,3.5,0,0,0,1.113.842l.382.183,1.092-.823,1.093.823.382-.183a3.5,3.5,0,0,0,1.113-.842l.262-.295-.419-1.336L50.529,8.6l-.044-.394a4.138,4.138,0,0,0-.523-1.453l-.2-.367L48.509,6.4,48.09,5.153,47.7,5.073a3.369,3.369,0,0,0-1.381,0l-.4.081L45.51,6.4l-1.334-.006-.2.365c-.049.091-.1.191-.139.293-.047-.1-.093-.192-.147-.293l-.2-.367L42.238,6.4l-.419-1.246-.392-.081a3.369,3.369,0,0,0-1.381,0l-.4.082L39.24,6.4l-1.334-.006-.2.365c-.049.091-.1.191-.139.293-.047-.1-.093-.192-.147-.293l-.2-.367L35.968,6.4l-.419-1.246-.392-.081a3.369,3.369,0,0,0-1.381,0l-.4.082L32.97,6.4l-1.334-.006-.2.365a4.213,4.213,0,0,0-.451,1.453l-.044.394,1.092.823ZM45.046,7.788l1.471.006.462-1.4h.058L47.508,7.8l1.411-.01q.05.114.088.217l-1.193.9.465,1.487c-.017.015-.036.028-.054.041l-1.219-.92-1.22.919-.054-.041L46.2,8.9,44.984,7.99C45,7.922,45.023,7.854,45.046,7.788Zm-6.27,0,1.471.006.462-1.4h.058L41.238,7.8l1.411-.01q.05.114.088.217l-1.193.9.465,1.487c-.017.015-.036.028-.054.041l-1.219-.92-1.22.919-.054-.041L39.928,8.9,38.714,7.99C38.732,7.922,38.753,7.854,38.776,7.788Zm-6.27,0,1.471.006.462-1.4H34.5L34.968,7.8l1.411-.01q.05.114.088.217l-1.193.9.465,1.487c-.017.015-.036.028-.054.041l-1.219-.92-1.22.919-.054-.041L33.658,8.9,32.444,7.99C32.462,7.922,32.483,7.854,32.506,7.788Z" transform="translate(-9.083 -1.213)"/>
      <path id="Trazado_24420" data-name="Trazado 24420" d="M42.1,13.54a2.093,2.093,0,0,0,2.09-2.09V3.09A2.093,2.093,0,0,0,42.1,1H21.2a2.093,2.093,0,0,0-2.09,2.09v2.1a6.953,6.953,0,0,0-11.147,5.56v4.181a4.645,4.645,0,0,0-4.585,4.1L1.032,39.005A4.717,4.717,0,0,0,1,39.548a4.65,4.65,0,0,0,4.645,4.645H24.221a4.65,4.65,0,0,0,4.645-4.645,4.707,4.707,0,0,0-.032-.543l-.373-3.172H29.4l.364.182a4.9,4.9,0,0,0,2.182.515H42.1a2.081,2.081,0,0,0,1.547-3.483,2.058,2.058,0,0,0,0-2.787,2.058,2.058,0,0,0,0-2.787A2.081,2.081,0,0,0,42.1,23.99H38.62a.7.7,0,0,1-.7-.7V18.586a4.44,4.44,0,0,0-1.309-3.16,1.682,1.682,0,0,0-2.871,1.189V19.81a7.1,7.1,0,0,1-3.168,5.919,2.083,2.083,0,0,1-1.159.351h-2.1l-.829-7.044a4.645,4.645,0,0,0-4.585-4.1V13.54ZM21.2,2.393H42.1a.7.7,0,0,1,.7.7v8.36a.7.7,0,0,1-.7.7H21.9V10.753a6.923,6.923,0,0,0-1.393-4.163V3.09a.7.7,0,0,1,.7-.7ZM14.933,5.18a5.58,5.58,0,0,1,5.573,5.573v4.18H19.113v-4.18a4.18,4.18,0,1,0-8.36,0v4.18H9.36v-4.18A5.58,5.58,0,0,1,14.933,5.18Zm2.787,9.753H12.147v-4.18a2.787,2.787,0,1,1,5.573,0Zm11.7,12.54a3.474,3.474,0,0,0,1.932-.585,8.49,8.49,0,0,0,3.788-7.078V16.615a.3.3,0,0,1,.493-.2,3.055,3.055,0,0,1,.9,2.175v4.707a2.093,2.093,0,0,0,2.09,2.09H42.1a.7.7,0,1,1,0,1.393h-.7V28.17h.7a.7.7,0,1,1,0,1.393h-.7v1.393h.7a.7.7,0,1,1,0,1.393h-.7v1.393h.7a.7.7,0,1,1,0,1.393H31.944a3.505,3.505,0,0,1-1.558-.368l-.658-.329H28.3l-.819-6.967ZM25.1,19.2l2.349,19.97a3.3,3.3,0,0,1,.022.38A3.256,3.256,0,0,1,24.221,42.8H5.645a3.256,3.256,0,0,1-3.252-3.252,3.3,3.3,0,0,1,.022-.38L4.765,19.2a3.253,3.253,0,0,1,3.23-2.872H21.872A3.253,3.253,0,0,1,25.1,19.2Z"/>
    </g>
  </g>
</svg>
