<svg xmlns="http://www.w3.org/2000/svg" width="79" height="79" viewBox="0 0 79 79">
  <g id="Grupo_55874" data-name="Grupo 55874" transform="translate(-514 -1504)">
    <circle id="Base" cx="39.5" cy="39.5" r="39.5" transform="translate(514 1504)" fill="#fff"/>
    <g id="_024-search_engine" data-name="024-search engine" transform="translate(532 1522)">
      <path id="Trazado_24619" data-name="Trazado 24619" d="M23,7.774A11.511,11.511,0,1,0,8.425,23.268l-.651,14.99a4.742,4.742,0,1,0,9.483-.029l-.65-14.944A11.457,11.457,0,0,0,23,17.258H43V7.774Zm-4.758,9.484a7.452,7.452,0,1,1,0-9.484H9.129v9.484ZM10.484,15.9V9.129H32.161V15.9ZM15.9,38.258a3.387,3.387,0,0,1-6.775.029l.635-14.6a11.306,11.306,0,0,0,5.507.012ZM12.516,22.677A10.161,10.161,0,1,1,21.5,7.774H19.933a8.806,8.806,0,1,0,0,9.484H21.5A10.114,10.114,0,0,1,12.516,22.677ZM41.645,15.9H33.516V9.129h8.129Z"/>
      <path id="Trazado_24620" data-name="Trazado 24620" d="M56.774,18.849l-3.387-4.516L50,18.849Zm-2.71-1.355H52.71l.677-.9Z" transform="translate(-15.806 -4.301)"/>
      <path id="Trazado_24621" data-name="Trazado 24621" d="M17,37h1.355v1.355H17Z" transform="translate(-5.161 -11.613)"/>
      <path id="Trazado_24622" data-name="Trazado 24622" d="M17,41h1.355v1.355H17Z" transform="translate(-5.161 -12.903)"/>
      <path id="Trazado_24623" data-name="Trazado 24623" d="M17,45h1.355v1.355H17Z" transform="translate(-5.161 -14.194)"/>
      <path id="Trazado_24624" data-name="Trazado 24624" d="M30.032,15a2.032,2.032,0,1,0,2.032,2.032A2.035,2.035,0,0,0,30.032,15Zm0,2.71a.677.677,0,1,1,.677-.677A.678.678,0,0,1,30.032,17.71Z" transform="translate(-8.71 -4.516)"/>
      <path id="Trazado_24625" data-name="Trazado 24625" d="M22.032,15a2.032,2.032,0,1,0,2.032,2.032A2.035,2.035,0,0,0,22.032,15Zm0,2.71a.677.677,0,1,1,.677-.677A.678.678,0,0,1,22.032,17.71Z" transform="translate(-6.129 -4.516)"/>
      <path id="Trazado_24626" data-name="Trazado 24626" d="M38.032,15a2.032,2.032,0,1,0,2.032,2.032A2.035,2.035,0,0,0,38.032,15Zm0,2.71a.677.677,0,1,1,.677-.677A.678.678,0,0,1,38.032,17.71Z" transform="translate(-11.29 -4.516)"/>
      <path id="Trazado_24627" data-name="Trazado 24627" d="M27,53.323H51.387V33H27Zm1.355-1.355V39.774H50.032V51.968ZM50.032,34.355v4.065H28.355V34.355Z" transform="translate(-8.387 -10.323)"/>
      <path id="Trazado_24628" data-name="Trazado 24628" d="M31,37h1.355v1.355H31Z" transform="translate(-9.677 -11.613)"/>
      <path id="Trazado_24629" data-name="Trazado 24629" d="M35,37h1.355v1.355H35Z" transform="translate(-10.968 -11.613)"/>
      <path id="Trazado_24630" data-name="Trazado 24630" d="M39,37h1.355v1.355H39Z" transform="translate(-12.258 -11.613)"/>
      <path id="Trazado_24631" data-name="Trazado 24631" d="M31,54.484h9.484V45H31Zm1.355-8.129h6.774v6.774H32.355Z" transform="translate(-9.677 -14.194)"/>
      <path id="Trazado_24632" data-name="Trazado 24632" d="M47,45h8.129v1.355H47Z" transform="translate(-14.839 -14.194)"/>
      <path id="Trazado_24633" data-name="Trazado 24633" d="M51,49h5.419v1.355H51Z" transform="translate(-16.129 -15.484)"/>
      <path id="Trazado_24634" data-name="Trazado 24634" d="M47,49h1.355v1.355H47Z" transform="translate(-14.839 -15.484)"/>
      <path id="Trazado_24635" data-name="Trazado 24635" d="M47,53h8.129v1.355H47Z" transform="translate(-14.839 -16.774)"/>
      <path id="Trazado_24636" data-name="Trazado 24636" d="M57,57h1.355v1.355H57Z" transform="translate(-18.065 -18.065)"/>
      <path id="Trazado_24637" data-name="Trazado 24637" d="M47,57h5.419v1.355H47Z" transform="translate(-14.839 -18.065)"/>
    </g>
  </g>
</svg>
