<svg xmlns="http://www.w3.org/2000/svg" width="46" height="37.649" viewBox="0 0 46 37.649">
  <path id="_043-twitter" data-name="043-twitter" d="M46,5.028c-2.894.133-2.83.122-3.158.15L44.556.284S39.207,2.252,37.851,2.6a10.732,10.732,0,0,0-12.64-1.016,8.754,8.754,0,0,0-4.208,9A23.349,23.349,0,0,1,5.876,2.073L4.607.549,3.659,2.29A10.523,10.523,0,0,0,2.538,9.374a10.178,10.178,0,0,0,.986,2.766l-1.089-.422-.129,1.819a9.705,9.705,0,0,0,1.646,5.769,10.259,10.259,0,0,0,1.282,1.581L4.672,20.8l.686,2.084a10.132,10.132,0,0,0,5.208,6.035c-2.429,1.031-4.391,1.688-7.616,2.749L0,32.64l2.725,1.49a28.608,28.608,0,0,0,8.339,3.035c8.065,1.265,17.145.235,23.258-5.271,5.149-4.637,6.838-11.233,6.487-18.1a4.289,4.289,0,0,1,.8-2.792C42.753,9.48,45.993,5.038,46,5.028ZM39.456,9.39a6.984,6.984,0,0,0-1.336,4.544c.354,6.924-1.53,12.293-5.6,15.959C27.766,34.175,20.1,35.856,11.482,34.5a20.864,20.864,0,0,1-4.508-1.34,71.477,71.477,0,0,0,8.165-3.356l4.708-2.228-5.2-.333a7.351,7.351,0,0,1-5.837-3.325,9.322,9.322,0,0,0,1.979-.33l4.957-1.381-5-1.224A7.445,7.445,0,0,1,6.2,17.826a7.625,7.625,0,0,1-.985-2.174,12.479,12.479,0,0,0,2.028.324l4.627.458-3.666-2.86A7.716,7.716,0,0,1,5.281,5.442a26.815,26.815,0,0,0,18.9,8.133A15.958,15.958,0,0,0,23.9,11.29a6.188,6.188,0,0,1,2.72-7.408,8.05,8.05,0,0,1,9.5.786,2.412,2.412,0,0,0,2.213.592,18.627,18.627,0,0,0,1.824-.555L38.992,8.025h1.484c-.28.376-.616.825-1.02,1.364Zm0,0" transform="translate(0)" fill="#2a94ee" opacity="0.5"/>
</svg>
