<svg id="_032-presentation" data-name="032-presentation" xmlns="http://www.w3.org/2000/svg" width="200" height="199.999" viewBox="0 0 200 199.999">
  <path id="Trazado_21012" data-name="Trazado 21012" d="M178.385,145.595V160a5.936,5.936,0,0,1-1.366,3.783,99.591,99.591,0,1,1,18.593-34.4,3.979,3.979,0,0,1-3.81,2.8A13.417,13.417,0,0,0,178.385,145.6Zm0,0" transform="translate(0 -0.001)" fill="#d64626"/>
  <path id="Trazado_21013" data-name="Trazado 21013" d="M245.937,437.5a18,18,0,0,1-.639,4.75q-4.47.78-9.071,1.158a10.156,10.156,0,1,0-16.516,0q-4.6-.375-9.071-1.158a17.969,17.969,0,0,1,13.033-22.2V400h7.812v19.878A17.973,17.973,0,0,1,245.937,437.5Zm0,0" transform="translate(-127.969 -243.751)" fill="#97181a"/>
  <path id="Trazado_21014" data-name="Trazado 21014" d="M202.656,100.023H33.906A3.906,3.906,0,0,1,30,96.117V86.156a3.906,3.906,0,0,1,3.906-3.906h168.75a3.906,3.906,0,0,1,3.906,3.906v9.961A3.906,3.906,0,0,1,202.656,100.023Zm0,0" transform="translate(-18.281 -50.121)" fill="#3691bb"/>
  <path id="Trazado_21015" data-name="Trazado 21015" d="M202.656,93.09H33.906A3.906,3.906,0,0,1,30,89.184V86.156a3.906,3.906,0,0,1,3.906-3.906h168.75a3.906,3.906,0,0,1,3.906,3.906v3.027A3.906,3.906,0,0,1,202.656,93.09Zm0,0" transform="translate(-18.281 -50.121)" fill="#6caac9"/>
  <path id="Trazado_21016" data-name="Trazado 21016" d="M215.531,237.187H88.383A17.382,17.382,0,0,1,71,219.8V120H215.531Zm0,0" transform="translate(-43.266 -73.125)" fill="#2ed0e1"/>
  <path id="Trazado_21017" data-name="Trazado 21017" d="M230.563,237.187H113.051A17.382,17.382,0,0,1,95.668,219.8V120H230.563Zm0,0" transform="translate(-58.298 -73.125)" fill="#84deea"/>
  <path id="Trazado_21018" data-name="Trazado 21018" d="M224.375,197.344a9.374,9.374,0,0,1,9.375,9.375V222.93H227.89v-15.82a3.906,3.906,0,0,0-3.906-3.906H189.8v20.312h-5.859V203.2h-34.18a3.906,3.906,0,0,0-3.906,3.906v15.82H140V206.719a9.375,9.375,0,0,1,9.375-9.375h34.57V170H189.8v27.344Zm0,0" transform="translate(-85.313 -103.594)" fill="#02c6dc"/>
  <path id="Trazado_21019" data-name="Trazado 21019" d="M186.6,163.906v15.625a3.906,3.906,0,0,1-3.906,3.906h-31.25a3.906,3.906,0,0,1-3.906-3.906V163.906A3.906,3.906,0,0,1,151.445,160H182.7A3.906,3.906,0,0,1,186.6,163.906Zm-51.758,46.875H111.406a3.906,3.906,0,0,0-3.906,3.906v23.437a3.906,3.906,0,0,0,3.906,3.906h23.437a3.906,3.906,0,0,0,3.906-3.906V214.687A3.906,3.906,0,0,0,134.844,210.781Zm0,0" transform="translate(-65.508 -97.5)" fill="#e659a9"/>
  <path id="Trazado_21020" data-name="Trazado 21020" d="M186.6,163.906v7.812a3.906,3.906,0,0,1-3.906,3.906h-31.25a3.906,3.906,0,0,1-3.906-3.906v-7.812A3.906,3.906,0,0,1,151.445,160H182.7A3.906,3.906,0,0,1,186.6,163.906Zm36.133,46.875H199.3a3.906,3.906,0,0,0-3.906,3.906v15.625a3.906,3.906,0,0,0,3.906,3.906h23.437a3.906,3.906,0,0,0,3.906-3.906V214.687A3.906,3.906,0,0,0,222.734,210.781Zm-87.89,0H111.406a3.906,3.906,0,0,0-3.906,3.906v15.625a3.906,3.906,0,0,0,3.906,3.906h23.437a3.906,3.906,0,0,0,3.906-3.906V214.687A3.906,3.906,0,0,0,134.844,210.781Zm43.945,0H155.351a3.906,3.906,0,0,0-3.906,3.906v15.625a3.906,3.906,0,0,0,3.906,3.906h23.437a3.906,3.906,0,0,0,3.906-3.906V214.687A3.906,3.906,0,0,0,178.789,210.781Zm0,0" transform="translate(-65.508 -97.5)" fill="#ec74b6"/>
  <path id="Trazado_21021" data-name="Trazado 21021" d="M233.359,177.93a2.93,2.93,0,1,1-2.93-2.93A2.93,2.93,0,0,1,233.359,177.93Zm16.6-2.93a2.93,2.93,0,1,0,2.93,2.93A2.93,2.93,0,0,0,249.961,175Zm-9.766,0a2.93,2.93,0,1,0,2.93,2.93A2.93,2.93,0,0,0,240.2,175Zm0,0" transform="translate(-138.633 -106.641)" fill="#df3d9b"/>
  <path id="Trazado_21022" data-name="Trazado 21022" d="M203.343,97.344H58.812A7.812,7.812,0,0,1,51,89.531V77.812A7.812,7.812,0,0,1,58.812,70H203.343a7.812,7.812,0,0,1,7.812,7.812V89.531A7.812,7.812,0,0,1,203.343,97.344Zm22.851,74.219H95.531a1.953,1.953,0,0,0-1.953,1.953v15.82A17.382,17.382,0,0,1,76.2,206.718H207.86A99.778,99.778,0,0,0,226.8,171.667a1.923,1.923,0,0,0-.6-.105Zm0,0" transform="translate(-31.078 -42.657)" fill="#ade8f0"/>
  <path id="Trazado_21023" data-name="Trazado 21023" d="M218.882,87.773H84.312A7.812,7.812,0,0,1,76.5,79.961V77.812A7.812,7.812,0,0,1,84.312,70h134.57a7.812,7.812,0,0,1,7.813,7.812v2.148A7.812,7.812,0,0,1,218.882,87.773Zm22.852,83.789H120.055v17.773a17.382,17.382,0,0,1-17.383,17.383H223.4a99.778,99.778,0,0,0,18.938-35.051,1.923,1.923,0,0,0-.6-.105Zm0,0" transform="translate(-46.617 -42.657)" fill="#d3f1f5"/>
</svg>
