<svg xmlns="http://www.w3.org/2000/svg" width="200" height="120" viewBox="0 0 200 120">
  <g id="Grupo_56809" data-name="Grupo 56809" transform="translate(-179 -13727)">
    <rect id="Rectángulo_5557" data-name="Rectángulo 5557" width="200" height="120" rx="5" transform="translate(179 13727)" fill="#e1eafe"/>
    <g id="_001-warehouse" data-name="001-warehouse" transform="translate(232 13749)">
      <g id="Grupo_55821" data-name="Grupo 55821" transform="translate(0 0)">
        <path id="Trazado_27216" data-name="Trazado 27216" d="M92.4,75.167,58.93,53.418a1.363,1.363,0,0,0-1.485,0L52.65,56.533,38.082,47.067a1.363,1.363,0,0,0-1.485,0L3.451,68.6A1.363,1.363,0,0,0,4.935,70.89L6.72,69.73V98H1.908A1.91,1.91,0,0,0,0,99.908V120.94a1.91,1.91,0,0,0,1.908,1.908H86.824a2.274,2.274,0,0,0,2.271-2.271V114.1a1.363,1.363,0,1,0-2.725,0v6.023H83.213V94.891a1.91,1.91,0,0,0-1.908-1.908H35.07a1.91,1.91,0,0,0-1.908,1.908v25.232H30.006V74.5L58.188,56.186,86.369,74.5V107.74a1.363,1.363,0,1,0,2.725,0V76.268l1.823,1.185A1.363,1.363,0,1,0,92.4,75.167ZM59.55,95.708H80.488v2.2H59.55Zm0,5.111H80.488V103.2H59.55Zm0,5.111H80.488v14.193H59.55ZM35.887,95.708H56.825v2.2H35.887Zm0,10.221h8.625a1.363,1.363,0,1,0,0-2.725H35.887v-2.386H56.825V103.2H50.872a1.363,1.363,0,0,0,0,2.725h5.953v14.193H35.887Zm-24.8,14.193H2.725v-8.336h8.361Zm0-11.061H2.725v-8.336h8.361ZM23.973,75.167a1.363,1.363,0,0,0,1.485,2.285l1.823-1.185v43.855H24.9v-.936a1.363,1.363,0,0,0-2.725,0v.936H13.811v-8.336h8.361v1.041a1.363,1.363,0,0,0,2.725,0v-1.858a1.91,1.91,0,0,0-1.908-1.908H13.811V99.908A1.91,1.91,0,0,0,11.9,98H9.446V67.959L37.339,49.835l12.81,8.323Z" transform="translate(0 -46.848)" fill="#20287a"/>
        <path id="Trazado_27217" data-name="Trazado 27217" d="M288.395,165.225h9.351a1.363,1.363,0,0,0,0-2.725h-9.351a1.363,1.363,0,1,0,0,2.725Z" transform="translate(-234.882 -141.488)" fill="#20287a"/>
        <path id="Trazado_27218" data-name="Trazado 27218" d="M184.433,221.034a1.91,1.91,0,0,0-1.908,1.908v3.568a1.91,1.91,0,0,0,1.908,1.908H196.2a1.91,1.91,0,0,0,1.908-1.908v-3.568a1.91,1.91,0,0,0-1.908-1.908Zm10.953,4.658H185.25v-1.933h10.135Z" transform="translate(-149.363 -189.387)" fill="#20287a"/>
        <path id="Trazado_27219" data-name="Trazado 27219" d="M277.374,222.942v3.568a1.91,1.91,0,0,0,1.908,1.908h11.77a1.91,1.91,0,0,0,1.908-1.908v-3.568a1.91,1.91,0,0,0-1.908-1.908h-11.77A1.91,1.91,0,0,0,277.374,222.942Zm2.725.818h10.135v1.933H280.1Z" transform="translate(-226.979 -189.387)" fill="#20287a"/>
        <path id="Trazado_27220" data-name="Trazado 27220" d="M374.131,221.034a1.91,1.91,0,0,0-1.908,1.908v3.568a1.91,1.91,0,0,0,1.908,1.908H385.9a1.91,1.91,0,0,0,1.908-1.908v-3.568a1.91,1.91,0,0,0-1.908-1.908Zm10.953,4.658H374.948v-1.933h10.135Z" transform="translate(-304.595 -189.387)" fill="#20287a"/>
      </g>
    </g>
  </g>
</svg>
