<svg xmlns="http://www.w3.org/2000/svg" width="200" height="120" viewBox="0 0 200 120">
  <g id="Grupo_56806" data-name="Grupo 56806" transform="translate(-179 -14808)">
    <rect id="Rectángulo_5560" data-name="Rectángulo 5560" width="200" height="120" rx="5" transform="translate(179 14808)" fill="#e1eafe"/>
    <g id="_027-global_distribution" data-name="027-global distribution" transform="translate(239 14830)">
      <g id="Grupo_55846" data-name="Grupo 55846" transform="translate(0 0)">
        <path id="Trazado_27438" data-name="Trazado 27438" d="M221,238.141a1.185,1.185,0,0,0,1.671-.123l1.287-1.492V241.9a1.185,1.185,0,1,0,2.369,0v-5.373l1.287,1.492a1.184,1.184,0,1,0,1.794-1.547l-3.368-3.9a1.185,1.185,0,0,0-1.794,0l-3.368,3.9A1.184,1.184,0,0,0,221,238.141Z" transform="translate(-185.753 -197.921)" fill="#20287a"/>
        <path id="Trazado_27439" data-name="Trazado 27439" d="M227.282,313.778h-7.3a1.184,1.184,0,1,0,0,2.369h7.3a1.184,1.184,0,1,0,0-2.369Z" transform="translate(-184.238 -266.653)" fill="#20287a"/>
        <path id="Trazado_27440" data-name="Trazado 27440" d="M403.888,59.851a4.4,4.4,0,1,0,4.4-4.4A4.405,4.405,0,0,0,403.888,59.851Zm6.431,0a2.031,2.031,0,1,1-2.031-2.031A2.033,2.033,0,0,1,410.319,59.851Z" transform="translate(-340.101 -49.124)" fill="#20287a"/>
        <path id="Trazado_27441" data-name="Trazado 27441" d="M30.7,182.419a4,4,0,1,0-4-4A4.009,4.009,0,0,0,30.7,182.419Zm0-5.64a1.635,1.635,0,1,1-1.636,1.636A1.637,1.637,0,0,1,30.7,176.779Z" transform="translate(-22.477 -149.296)" fill="#20287a"/>
        <path id="Trazado_27442" data-name="Trazado 27442" d="M79.75,58.222A8.15,8.15,0,0,0,76,54.825c0-.014,0-.029,0-.043a36.43,36.43,0,0,0-4.145-16.954L76.149,30.4a9.514,9.514,0,0,0,.654-1.38,1.185,1.185,0,0,0-2.216-.839,7.119,7.119,0,0,1-.49,1.034L68.189,39.447,62.28,29.212a6.824,6.824,0,1,1,12.326-5.735,1.184,1.184,0,1,0,2.224-.815,9.193,9.193,0,0,0-16.6-1.457,9.3,9.3,0,0,0-1.055,2.757A36.228,36.228,0,0,0,43.76,18.431a4.657,4.657,0,0,0-8.734,0A36.33,36.33,0,0,0,13.505,28.895,36.824,36.824,0,0,0,7.936,36.03,8.207,8.207,0,0,0,1.114,48.336l1.816,3.145q-.146,1.637-.147,3.3A36.415,36.415,0,0,0,7.2,72.238a4.655,4.655,0,0,0,5.344,7.427q.473.51.967,1a36.611,36.611,0,0,0,51.775,0,36.9,36.9,0,0,0,4.94-6.125L71.3,76.41a1.559,1.559,0,0,0,1.346.777h0a1.558,1.558,0,0,0,1.345-.777l5.762-9.98a8.125,8.125,0,0,0,0-8.208Zm-14.215,0a8.312,8.312,0,0,0-.9,2.264H63.313a56,56,0,0,0,.291-5.7c0-.824-.02-1.644-.056-2.459a4.675,4.675,0,0,0,2.779-3.245h6.833a34.585,34.585,0,0,1,.466,5.1,8.455,8.455,0,0,0-.982-.058A8.124,8.124,0,0,0,65.535,58.222Zm-4.3-3.44a53.424,53.424,0,0,1-.3,5.7H55.686V57.341a1.185,1.185,0,1,0-2.369,0V68.706H25.469V40.859h8.752v5.2a1.473,1.473,0,0,0,1.471,1.471h7.4a1.473,1.473,0,0,0,1.471-1.471v-5.2h8.752V51.814a1.185,1.185,0,1,0,2.369,0V49.078h1.577a4.668,4.668,0,0,0,3.928,3.548c.029.713.046,1.431.046,2.155ZM58.62,71.009a4.651,4.651,0,0,0-5.1,3.254H47.993c.168-1.032.321-2.1.461-3.188h5.569a1.665,1.665,0,0,0,1.663-1.663V62.855h4.935a47.19,47.19,0,0,1-2,8.154Zm1.642,4.612a2.289,2.289,0,1,1-2.289-2.289A2.291,2.291,0,0,1,60.263,75.621Zm-42.455-4.2q.493,1.466,1.063,2.842h-3.8A4.657,4.657,0,0,0,9.215,70.99,33.831,33.831,0,0,1,6.1,62.855h9.667q.232,1.563.553,3.094a1.184,1.184,0,1,0,2.318-.488q-.271-1.29-.476-2.606H23.1v6.557a1.664,1.664,0,0,0,1.663,1.663h5.569c.139,1.091.293,2.155.461,3.188h-9.34c-.511-1.151-.98-2.35-1.4-3.6a1.184,1.184,0,0,0-2.245.755ZM11.228,35.3h4.607a4.679,4.679,0,0,0,2.041,2.624,48.017,48.017,0,0,0-1.491,5.391,8.242,8.242,0,0,0-1.057-3.188,8.118,8.118,0,0,0-4.8-3.78Q10.867,35.819,11.228,35.3Zm50.567,15a2.289,2.289,0,1,1,2.289-2.289A2.291,2.291,0,0,1,61.795,50.3Zm-4.472-3.589H55.685V40.152a1.665,1.665,0,0,0-1.663-1.663H48.453c-.139-1.091-.293-2.155-.461-3.188h9.354a43.966,43.966,0,0,1,2.709,8.389A4.678,4.678,0,0,0,57.323,46.709ZM47.572,32.932c-.235-1.216-.491-2.382-.767-3.488a30.176,30.176,0,0,0-2.976-7.976q.031-.1.058-.2c4.908,1.616,9.216,5.82,12.311,11.659ZM32.72,38.49c.143-1.093.3-2.158.473-3.188h12.4c.173,1.03.33,2.1.473,3.188ZM42.2,40.859v4.3h-5.6v-4.3ZM44.506,30.02c.232.929.449,1.9.651,2.913H33.628c.2-1.011.419-1.984.651-2.913a32.058,32.058,0,0,1,2.188-6.348,4.645,4.645,0,0,0,5.852,0A32.069,32.069,0,0,1,44.506,30.02Zm-9.549-8.55a30.181,30.181,0,0,0-2.976,7.976c-.276,1.106-.532,2.271-.767,3.488H24.836a4.647,4.647,0,0,0-1.056-2.069c2.968-4.76,6.812-8.172,11.119-9.59q.027.1.058.2ZM18.165,46.709A47.21,47.21,0,0,1,20.151,38.6c.046,0,.093,0,.139,0a4.666,4.666,0,0,0,4.455-3.3h6.047c-.168,1.032-.321,2.1-.461,3.188H24.763A1.664,1.664,0,0,0,23.1,40.152v6.557ZM23.1,49.078V60.486H17.858a53.327,53.327,0,0,1,0-11.408Zm-.521-15.135a2.289,2.289,0,1,1-2.289-2.289A2.291,2.291,0,0,1,22.579,33.943Zm8.635,42.689c.235,1.216.491,2.382.767,3.488a29.147,29.147,0,0,0,3.134,8.236,18.159,18.159,0,0,1-7.039-4.317A29.07,29.07,0,0,1,22.6,76.632h8.61Zm1.506-5.557H46.066c-.143,1.093-.3,2.158-.473,3.188h-12.4C33.02,73.233,32.863,72.168,32.72,71.075Zm1.56,8.47c-.232-.929-.449-1.9-.651-2.913h11.53c-.2,1.011-.419,1.984-.651,2.913-1.749,7-3.848,9.479-5.113,9.479S36.029,86.541,34.279,79.545ZM46.8,80.12c.276-1.106.532-2.271.767-3.488h5.857A4.657,4.657,0,0,0,54.8,79.025c-2.991,4.671-6.837,8-11.135,9.339A29.122,29.122,0,0,0,46.8,80.12ZM68.189,42.579a1.61,1.61,0,0,0,1.391-.8l.854-1.479a33.851,33.851,0,0,1,2.247,6.412H66.266a4.669,4.669,0,0,0-3.847-3.314,46.587,46.587,0,0,0-2.5-8.094H63.06L66.8,41.776a1.61,1.61,0,0,0,1.391.8Zm-6.5-9.647H58.845a37.117,37.117,0,0,0-2.177-3.846,28.275,28.275,0,0,0-5.791-6.58,33.877,33.877,0,0,1,8.152,4.216,9.231,9.231,0,0,0,1.2,3.674Zm-22.3-15.17A2.289,2.289,0,1,1,37.1,20.051,2.291,2.291,0,0,1,39.393,17.762ZM15.18,30.57a34.12,34.12,0,0,1,12.727-8.063,28.279,28.279,0,0,0-5.79,6.58c-.1.151-.194.307-.29.461a4.654,4.654,0,0,0-6.083,3.385H13.027Q14.043,31.71,15.18,30.57ZM3.165,41.313a5.838,5.838,0,0,1,10.112,0,5.779,5.779,0,0,1,0,5.838L8.221,55.909,3.165,47.151A5.778,5.778,0,0,1,3.165,41.313Zm3.71,17a1.554,1.554,0,0,0,2.692,0L14.9,49.078h.572a56,56,0,0,0,0,11.408H5.622a34.6,34.6,0,0,1-.466-5.149Zm1.4,17.132a2.289,2.289,0,1,1,2.289,2.289A2.291,2.291,0,0,1,8.277,75.448Zm6.083,2.7a4.639,4.639,0,0,0,.711-1.512h4.868a30.554,30.554,0,0,0,7.976,10.429A34.119,34.119,0,0,1,15.18,78.995q-.419-.419-.821-.85Zm49.246.85a34.121,34.121,0,0,1-12.729,8.064,28.278,28.278,0,0,0,5.793-6.581c.071-.109.139-.221.208-.331a4.654,4.654,0,0,0,5.643-3.515h3.24Q64.744,77.855,63.605,78.995Zm3.957-4.732H62.429a4.672,4.672,0,0,0-1.621-2.334,49.267,49.267,0,0,0,2.211-9.074H64.44a8.22,8.22,0,0,0,1.1,3.574l3.342,5.788Q68.258,73.261,67.562,74.263ZM77.7,65.245,72.643,74l-5.056-8.757a5.838,5.838,0,1,1,10.112,0Z" transform="translate(-0.001 -15.393)" fill="#20287a"/>
        <path id="Trazado_27443" data-name="Trazado 27443" d="M438.6,288.975a4,4,0,1,0,4,4A4.009,4.009,0,0,0,438.6,288.975Zm0,5.64a1.635,1.635,0,1,1,1.636-1.635A1.637,1.637,0,0,1,438.6,294.615Z" transform="translate(-365.959 -245.767)" fill="#20287a"/>
      </g>
    </g>
  </g>
</svg>
