<svg id="_002-package" data-name="002-package" xmlns="http://www.w3.org/2000/svg" width="146.29" height="155" viewBox="0 0 146.29 155">
  <g id="Grupo_55822" data-name="Grupo 55822" transform="translate(0 0)">
    <path id="Trazado_27221" data-name="Trazado 27221" d="M189.269,461a2.271,2.271,0,0,0,0-4.541H178.182a2.271,2.271,0,0,0,0,4.541Z" transform="translate(-127.013 -318.27)" fill="#20287a"/>
    <path id="Trazado_27222" data-name="Trazado 27222" d="M52.625,456.455a2.271,2.271,0,0,0,0,4.541h3.563a2.271,2.271,0,0,0,0-4.541Z" transform="translate(-39.466 -318.27)" fill="#20287a"/>
    <path id="Trazado_27223" data-name="Trazado 27223" d="M412.3,456.455a2.271,2.271,0,0,0,0,4.541h11.086a2.271,2.271,0,0,0,0-4.541Z" transform="translate(-290.252 -318.27)" fill="#20287a"/>
    <path id="Trazado_27224" data-name="Trazado 27224" d="M286.737,456.455a2.271,2.271,0,0,0,0,4.541H290.3a2.271,2.271,0,0,0,0-4.541Z" transform="translate(-202.705 -318.27)" fill="#20287a"/>
    <path id="Trazado_27225" data-name="Trazado 27225" d="M302.3,170.031H288.679a3.182,3.182,0,0,0-3.179,3.179V190a3.182,3.182,0,0,0,3.179,3.179H302.3A3.182,3.182,0,0,0,305.483,190V173.21A3.182,3.182,0,0,0,302.3,170.031Zm-1.362,18.609h-10.9V174.572h10.9Z" transform="translate(-203.425 -118.557)" fill="#20287a"/>
    <path id="Trazado_27226" data-name="Trazado 27226" d="M173.245,222.344h-3.564a2.271,2.271,0,1,0,0,4.541h3.564a2.271,2.271,0,0,0,0-4.541Z" transform="translate(-121.085 -155.033)" fill="#20287a"/>
    <path id="Trazado_27227" data-name="Trazado 27227" d="M158.406,123.274a2.271,2.271,0,0,0,2.27-2.271V83.369a3.788,3.788,0,0,0-3.784-3.784H125.239V31.233l11.7-28.089A2.271,2.271,0,1,0,132.751,1.4l-11.3,27.111H117.32V23.614a2.271,2.271,0,1,0-4.541,0v4.895h-9.317V22.79a3.788,3.788,0,0,0-3.784-3.784H94.751V10.48h18.028v2.538a2.271,2.271,0,1,0,4.541,0V9.724a3.788,3.788,0,0,0-3.784-3.784H93.995A3.788,3.788,0,0,0,90.21,9.724v9.282H84.853V15.663a3.788,3.788,0,0,0-3.784-3.784H61.527a3.788,3.788,0,0,0-3.784,3.784V28.508H53.608L42.312,1.4A2.271,2.271,0,1,0,38.12,3.144l11.7,28.089V79.585H40.608a2.271,2.271,0,1,0,0,4.541h1.5V99.556a3.182,3.182,0,0,0,3.179,3.179H58.907a3.182,3.182,0,0,0,3.179-3.179V84.126H85.261v66.333H18.928V84.126H30.012a2.271,2.271,0,1,0,0-4.541H18.171a3.788,3.788,0,0,0-3.784,3.784v67.847A3.788,3.788,0,0,0,18.171,155H156.892a3.788,3.788,0,0,0,3.784-3.784V131.6a2.271,2.271,0,0,0-4.541,0v18.86H89.8V84.126h23.175V99.556a3.182,3.182,0,0,0,3.179,3.179h13.625a3.182,3.182,0,0,0,3.179-3.179V84.126h23.175V121a2.27,2.27,0,0,0,2.27,2.271ZM84.853,23.547H98.921v4.962H84.853ZM62.284,16.42H80.312V28.508H62.284ZM57.545,98.194h-10.9V84.126h10.9Zm-3.18-18.609V33.049H120.7V79.584H54.365Zm74.054,18.609h-10.9V84.126h10.9Z" transform="translate(-14.387 0)" fill="#20287a"/>
  </g>
</svg>
