<svg xmlns="http://www.w3.org/2000/svg" width="200" height="120" viewBox="0 0 200 120">
  <g id="Grupo_56807" data-name="Grupo 56807" transform="translate(-179 -14289)">
    <rect id="Rectángulo_5559" data-name="Rectángulo 5559" width="200" height="120" rx="5" transform="translate(179 14289)" fill="#e1eafe"/>
    <g id="_003-delivery_van" data-name="003-delivery van" transform="translate(225 14311)">
      <g id="Grupo_55823" data-name="Grupo 55823" transform="translate(0 0)">
        <path id="Trazado_27228" data-name="Trazado 27228" d="M399.5,368.09a4.418,4.418,0,1,0,4.418,4.418A4.423,4.423,0,0,0,399.5,368.09Zm0,5.645a1.227,1.227,0,1,1,1.227-1.227A1.228,1.228,0,0,1,399.5,373.735Z" transform="translate(-311.037 -306.245)" fill="#20287a"/>
        <path id="Trazado_27229" data-name="Trazado 27229" d="M198.918,376.926a4.418,4.418,0,1,0-4.418-4.418A4.423,4.423,0,0,0,198.918,376.926Zm0-5.645a1.227,1.227,0,1,1-1.227,1.227A1.228,1.228,0,0,1,198.918,371.281Z" transform="translate(-153.123 -306.245)" fill="#20287a"/>
        <path id="Trazado_27230" data-name="Trazado 27230" d="M94.407,376.926a4.418,4.418,0,1,0-4.418-4.418A4.423,4.423,0,0,0,94.407,376.926Zm0-5.645a1.227,1.227,0,1,1-1.227,1.227A1.228,1.228,0,0,1,94.407,371.281Z" transform="translate(-70.845 -306.245)" fill="#20287a"/>
        <path id="Trazado_27231" data-name="Trazado 27231" d="M120.954,195.589H144.8a2.236,2.236,0,0,0,2.234-2.234V189.1a2.236,2.236,0,0,0-2.234-2.234h-23.85a2.236,2.236,0,0,0-2.234,2.234v4.255A2.236,2.236,0,0,0,120.954,195.589Zm.957-5.531h21.936v2.34H121.911Z" transform="translate(-93.464 -163.574)" fill="#20287a"/>
        <path id="Trazado_27232" data-name="Trazado 27232" d="M416.517,194.181a2.652,2.652,0,0,0-2.357-1.429h-7.639a2.023,2.023,0,0,0-2.021,2.021v8.273a3.727,3.727,0,0,0,3.723,3.723h11.53a2.021,2.021,0,0,0,1.791-2.956Zm-8.294,9.4a.532.532,0,0,1-.532-.532v-7.1h6.147l3.985,7.634Z" transform="translate(-318.449 -168.207)" fill="#20287a"/>
        <path id="Trazado_27233" data-name="Trazado 27233" d="M108.135,111.141l-5.651-10.825A6.892,6.892,0,0,0,96.356,96.6H78.83V80.033a2.662,2.662,0,0,0-2.659-2.659H2.659A2.662,2.662,0,0,0,0,80.033v49.99a2.662,2.662,0,0,0,2.659,2.659H4.841l2.925,6.525a3.728,3.728,0,0,0,3.4,2.2h2.923a9.735,9.735,0,1,0,18.993,4.28h3.2a9.736,9.736,0,0,0,19.035,0h4.04a1.6,1.6,0,1,0,0-3.191H55.462a9.734,9.734,0,0,0-19.335,0h-2.9a9.728,9.728,0,0,0-14.189-7.477v-2.337h86.689v9.282a.532.532,0,0,1-.532.532H98.134a9.734,9.734,0,0,0-19.335,0h-12a1.6,1.6,0,1,0,0,3.191h12.15a9.735,9.735,0,0,0,19.035,0H105.2a3.727,3.727,0,0,0,3.723-3.723V114.34a6.939,6.939,0,0,0-.785-3.2ZM45.8,137.092a6.545,6.545,0,1,1-6.545,6.545A6.553,6.553,0,0,1,45.8,137.092Zm-22.233,0a6.545,6.545,0,1,1-6.545,6.545,6.553,6.553,0,0,1,6.545-6.545Zm-7.713.614c-.128.166-.253.336-.37.51H11.163a.532.532,0,0,1-.485-.314l-2.34-5.22h7.511Zm59.79-8.215H3.191v-5.106H75.639Zm0-43.82H22.975a1.6,1.6,0,0,0,0,3.191H75.639v32.333H3.191V88.862H15.53a1.6,1.6,0,1,0,0-3.191H3.191V80.565H75.639Zm12.828,64.512a6.545,6.545,0,1,1,6.546-6.545A6.553,6.553,0,0,1,88.467,150.183ZM78.83,99.792h2.541v7.365H78.83Zm26.9,29.7H84.562v-3.906a1.6,1.6,0,0,0-3.191,0v3.906H78.83V110.348h2.541v7.792a1.6,1.6,0,1,0,3.191,0V99.792H96.356a3.712,3.712,0,0,1,3.3,2l5.651,10.825a3.737,3.737,0,0,1,.422,1.723Z" transform="translate(0 -77.374)" fill="#20287a"/>
        <path id="Trazado_27234" data-name="Trazado 27234" d="M406.1,266.374a1.6,1.6,0,0,0-1.6,1.6v4.893a1.6,1.6,0,1,0,3.191,0V267.97A1.6,1.6,0,0,0,406.1,266.374Z" transform="translate(-318.449 -226.167)" fill="#20287a"/>
      </g>
    </g>
  </g>
</svg>
