<svg id="_012-fast_delivery" data-name="012-fast delivery" xmlns="http://www.w3.org/2000/svg" width="150.633" height="123.662" viewBox="0 0 150.633 123.662">
  <g id="Grupo_55832" data-name="Grupo 55832" transform="translate(0 0)">
    <path id="Trazado_27300" data-name="Trazado 27300" d="M146.955,45.837H41.1a3.682,3.682,0,0,0-3.678,3.678v10.24H2.207a2.207,2.207,0,0,0,0,4.413H37.423v7.142H11.1a2.207,2.207,0,0,0,0,4.413H37.423v7.142H19.984a2.207,2.207,0,1,0,0,4.413H37.423V95.9c-.207,0-.414-.008-.622-.008a36.8,36.8,0,1,0,25.663,63.151h66.4a2.207,2.207,0,1,0,0-4.413H66.332a36.781,36.781,0,0,0-24.5-58.392V87.278H64.431a2.207,2.207,0,0,0,0-4.413H41.836V75.723H58.547a2.207,2.207,0,1,0,0-4.413H41.836V64.167H52.428a2.207,2.207,0,1,0,0-4.413H41.836v-9.5H81.995V72.615A3.093,3.093,0,0,0,85.084,75.7h17.888a3.093,3.093,0,0,0,3.089-3.089V65.891a2.207,2.207,0,0,0-4.413,0v5.4H86.408V50.25h15.24v5.344a2.207,2.207,0,0,0,4.413,0V50.25H146.22V154.634h-7.061a2.207,2.207,0,1,0,0,4.413h7.8a3.682,3.682,0,0,0,3.678-3.678V49.515A3.682,3.682,0,0,0,146.955,45.837ZM69.189,132.7A32.388,32.388,0,1,1,36.8,100.31,32.425,32.425,0,0,1,69.189,132.7Z" transform="translate(0 -45.837)" fill="#20287a"/>
    <path id="Trazado_27301" data-name="Trazado 27301" d="M357.343,344.5a2.207,2.207,0,1,0,0,4.413h30.41a2.207,2.207,0,0,0,0-4.413Z" transform="translate(-250.653 -256.632)" fill="#20287a"/>
    <path id="Trazado_27302" data-name="Trazado 27302" d="M356.707,379.034h30.41a2.207,2.207,0,0,0,0-4.413h-30.41a2.207,2.207,0,1,0,0,4.413Z" transform="translate(-250.204 -277.891)" fill="#20287a"/>
    <path id="Trazado_27303" data-name="Trazado 27303" d="M29.512,273.618a28.151,28.151,0,0,0,28.119,28.119,27.856,27.856,0,0,0,16.846-5.618A28.4,28.4,0,0,0,84.505,281.9a2.207,2.207,0,1,0-4.217-1.3,23.954,23.954,0,0,1-8.46,11.995,23.477,23.477,0,0,1-14.2,4.734,23.693,23.693,0,1,1,23.58-26.15,2.207,2.207,0,1,0,4.39-.452,28.119,28.119,0,0,0-56.089,2.9Z" transform="translate(-20.829 -186.758)" fill="#20287a"/>
    <path id="Trazado_27304" data-name="Trazado 27304" d="M119.794,267.866a2.207,2.207,0,0,0-2.207,2.207V289.4a2.207,2.207,0,0,0,3.4,1.859l12.29-7.858a2.207,2.207,0,0,0-2.377-3.718L122,285.375v-15.3A2.207,2.207,0,0,0,119.794,267.866Z" transform="translate(-82.992 -202.544)" fill="#20287a"/>
    <path id="Trazado_27305" data-name="Trazado 27305" d="M389.51,182.589a3.093,3.093,0,0,0-3.089-3.089H357.589a3.093,3.093,0,0,0-3.089,3.089v37.658a3.092,3.092,0,0,0,3.089,3.089h28.832a3.093,3.093,0,0,0,3.089-3.089ZM385.1,218.923H358.913v-35.01H385.1Z" transform="translate(-250.204 -140.176)" fill="#20287a"/>
    <path id="Trazado_27306" data-name="Trazado 27306" d="M385.254,215.763a2.207,2.207,0,0,0,3.112-.229l2.6-3.012v10.521a2.207,2.207,0,0,0,4.413,0V212.521l2.6,3.012a2.207,2.207,0,0,0,3.342-2.883l-6.476-7.506a2.207,2.207,0,0,0-3.342,0l-6.476,7.506a2.207,2.207,0,0,0,.23,3.112Z" transform="translate(-271.371 -157.735)" fill="#20287a"/>
    <path id="Trazado_27307" data-name="Trazado 27307" d="M384.838,293.034h14.044a2.206,2.206,0,1,0,0-4.413H384.838a2.206,2.206,0,1,0,0,4.413Z" transform="translate(-270.059 -217.193)" fill="#20287a"/>
  </g>
</svg>
