<svg xmlns="http://www.w3.org/2000/svg" width="90" height="90" viewBox="0 0 90 90">
  <g id="Grupo_55854" data-name="Grupo 55854" transform="translate(-231 -4243)">
    <circle id="Elipse_1806" data-name="Elipse 1806" cx="45" cy="45" r="45" transform="translate(231 4243)" fill="#2a94ee"/>
    <g id="_008-tracking" data-name="008-tracking" transform="translate(250 4269)">
      <g id="Grupo_55828" data-name="Grupo 55828" transform="translate(0 0)">
        <path id="Trazado_27270" data-name="Trazado 27270" d="M120.447,247.519a.766.766,0,0,0,.766-.766v-6.6l2.061,2.389a.766.766,0,0,0,1.16-1l-3.407-3.95a.766.766,0,0,0-1.16,0l-3.407,3.95a.766.766,0,0,0,1.16,1l2.061-2.389v6.6A.766.766,0,0,0,120.447,247.519Z" transform="translate(-104.397 -220.29)" fill="#fff"/>
        <path id="Trazado_27271" data-name="Trazado 27271" d="M113.457,365.767a.766.766,0,0,0,.766.766h7.39a.766.766,0,1,0,0-1.532h-7.39A.766.766,0,0,0,113.457,365.767Z" transform="translate(-101.868 -334.922)" fill="#fff"/>
        <path id="Trazado_27272" data-name="Trazado 27272" d="M51.917,104.027l-5.384-5.384a1.3,1.3,0,0,0-1.314-.318l-2.489-2.489a10.283,10.283,0,0,0-1.35-12.871,10.375,10.375,0,0,0-1.522-1.256l.356-.617a7.044,7.044,0,0,0-12.2-7.044,7.117,7.117,0,0,0-.836,2.248H1.25A1.251,1.251,0,0,0,0,77.546v29.6a1.251,1.251,0,0,0,1.25,1.25H22.471a.766.766,0,1,0,0-1.532H9.1L1.532,99.293V77.828h9.718v5.69a1.057,1.057,0,0,0,1.056,1.056h7.486a1.057,1.057,0,0,0,1.056-1.056v-1.2a.766.766,0,1,0-1.532,0v.722H12.783V77.828h6.534v.917a.766.766,0,0,0,1.532,0v-.917h6.214a7.043,7.043,0,0,0,.95,3.264l.356.617A10.284,10.284,0,0,0,26.847,97.5a10.214,10.214,0,0,0,3.721,2.377v6.989H26.046a.766.766,0,0,0,0,1.532h4.8a1.251,1.251,0,0,0,1.25-1.25V100.3a10.313,10.313,0,0,0,7.617-1.459l2.49,2.49a1.3,1.3,0,0,0,.319,1.315l5.384,5.384a1.3,1.3,0,0,0,1.839,0l2.168-2.168A1.3,1.3,0,0,0,51.917,104.027ZM6.936,106.863h-5.4v-5.4Zm22.4-32.05a5.512,5.512,0,1,1,9.547,5.512l-4.774,8.268-4.774-8.268A5.456,5.456,0,0,1,29.339,74.813Zm-1.409,21.6a8.741,8.741,0,0,1,1.208-13.373l.841,1.457A7.069,7.069,0,1,0,40.92,92.126a.766.766,0,0,0-1.477-.409,5.537,5.537,0,1,1-8.693-5.884l2.282,3.952a1.249,1.249,0,0,0,2.162,0h0l2.282-3.952a5.5,5.5,0,0,1,1.918,2.741.766.766,0,1,0,1.463-.456,7.028,7.028,0,0,0-2.61-3.62l.841-1.457A8.744,8.744,0,1,1,27.93,96.414Zm13.014,1.493q.222-.2.435-.41t.41-.435l2.243,2.243-.844.844Zm7.885,8.88-5.056-5.056,1.84-1.84,5.056,5.056Z" transform="translate(0 -70.525)" fill="#fff"/>
        <path id="Trazado_27273" data-name="Trazado 27273" d="M307.471,118.45a3.015,3.015,0,1,0-3.015-3.015A3.019,3.019,0,0,0,307.471,118.45Zm0-4.5a1.483,1.483,0,1,1-1.483,1.483A1.485,1.485,0,0,1,307.471,113.952Z" transform="translate(-273.358 -108.141)" fill="#fff"/>
      </g>
    </g>
  </g>
</svg>
