<svg xmlns="http://www.w3.org/2000/svg" width="90" height="90" viewBox="0 0 90 90">
  <g id="Grupo_55853" data-name="Grupo 55853" transform="translate(-179 -3740)">
    <circle id="Elipse_1805" data-name="Elipse 1805" cx="45" cy="45" r="45" transform="translate(179 3740)" fill="#2a94ee"/>
    <g id="_001-warehouse" data-name="001-warehouse" transform="translate(198 3764)">
      <g id="Grupo_55821" data-name="Grupo 55821" transform="translate(0 0)">
        <path id="Trazado_27216" data-name="Trazado 27216" d="M51.948,62.769,33.13,50.541a.766.766,0,0,0-.835,0l-2.7,1.752-8.19-5.322a.766.766,0,0,0-.835,0L1.94,59.079a.766.766,0,0,0,.835,1.285l1-.652V75.605H1.072A1.074,1.074,0,0,0,0,76.678V88.5a1.074,1.074,0,0,0,1.072,1.072H48.812A1.278,1.278,0,0,0,50.088,88.3V84.656a.766.766,0,1,0-1.532,0v3.386H46.782V73.857a1.074,1.074,0,0,0-1.072-1.073H19.716a1.074,1.074,0,0,0-1.072,1.073V88.042H16.869V62.392L32.713,52.1,48.556,62.392V81.081a.766.766,0,1,0,1.532,0V63.387l1.025.666a.766.766,0,1,0,.835-1.285ZM33.479,74.317H45.25v1.239H33.479Zm0,2.873H45.25v1.341H33.479Zm0,2.873H45.25v7.979H33.479Zm-13.3-5.746H31.947v1.239H20.176Zm0,5.746h4.849a.766.766,0,0,0,0-1.532H20.176V77.19H31.947v1.341H28.6a.766.766,0,0,0,0,1.532h3.347v7.979H20.176ZM6.233,88.042h-4.7V83.356h4.7Zm0-6.219h-4.7V77.137h4.7Zm7.245-19.055a.766.766,0,0,0,.835,1.285l1.025-.666V88.042H14v-.526a.766.766,0,0,0-1.532,0v.526h-4.7V83.356h4.7v.585a.766.766,0,0,0,1.532,0V82.9a1.074,1.074,0,0,0-1.072-1.073H7.765V76.678a1.074,1.074,0,0,0-1.072-1.072H5.31V58.716L20.992,48.527l7.2,4.679Z" transform="translate(0 -46.848)" fill="#fff"/>
        <path id="Trazado_27217" data-name="Trazado 27217" d="M287.8,164.032h5.257a.766.766,0,0,0,0-1.532H287.8a.766.766,0,1,0,0,1.532Z" transform="translate(-257.714 -150.687)" fill="#fff"/>
        <path id="Trazado_27218" data-name="Trazado 27218" d="M183.6,221.034a1.074,1.074,0,0,0-1.072,1.073v2.006a1.074,1.074,0,0,0,1.072,1.072h6.617a1.074,1.074,0,0,0,1.072-1.072v-2.006a1.074,1.074,0,0,0-1.072-1.073Zm6.157,2.619h-5.7v-1.087h5.7Z" transform="translate(-163.881 -203.242)" fill="#fff"/>
        <path id="Trazado_27219" data-name="Trazado 27219" d="M277.374,222.107v2.006a1.074,1.074,0,0,0,1.073,1.072h6.617a1.074,1.074,0,0,0,1.072-1.072v-2.006a1.074,1.074,0,0,0-1.072-1.073h-6.617A1.074,1.074,0,0,0,277.374,222.107Zm1.532.46h5.7v1.087h-5.7Z" transform="translate(-249.042 -203.242)" fill="#fff"/>
        <path id="Trazado_27220" data-name="Trazado 27220" d="M373.3,221.034a1.074,1.074,0,0,0-1.072,1.073v2.006a1.074,1.074,0,0,0,1.072,1.072h6.617a1.074,1.074,0,0,0,1.072-1.072v-2.006a1.074,1.074,0,0,0-1.072-1.073Zm6.157,2.619h-5.7v-1.087h5.7Z" transform="translate(-334.203 -203.242)" fill="#fff"/>
      </g>
    </g>
  </g>
</svg>
