<svg xmlns="http://www.w3.org/2000/svg" width="90" height="90" viewBox="0 0 90 90">
  <g id="Grupo_56818" data-name="Grupo 56818" transform="translate(13363 -11404)">
    <g id="Grupo_55895" data-name="Grupo 55895" transform="translate(-13594 -13060)">
      <g id="Grupo_55890" data-name="Grupo 55890">
        <g id="Grupo_55870" data-name="Grupo 55870" transform="translate(52 20724)">
          <circle id="Elipse_1805" data-name="Elipse 1805" cx="45" cy="45" r="45" transform="translate(179 3740)" fill="#2a94ee"/>
        </g>
      </g>
    </g>
    <g id="_012-fast_delivery" data-name="012-fast delivery" transform="translate(-13350 11424)">
      <g id="Grupo_55832" data-name="Grupo 55832" transform="translate(0 0)">
        <path id="Trazado_27300" data-name="Trazado 27300" d="M58.535,45.837H16.371A1.466,1.466,0,0,0,14.906,47.3V65.78c-.083,0-.165,0-.248,0A14.659,14.659,0,1,0,24.881,90.931H51.328a.879.879,0,0,0,0-1.758H26.421a14.651,14.651,0,0,0-9.757-23.259V47.595h16V56.5a1.232,1.232,0,0,0,1.23,1.23h7.125a1.232,1.232,0,0,0,1.23-1.23V53.825a.879.879,0,0,0-1.758,0v2.151h-6.07V47.595h6.07v2.128a.879.879,0,0,0,1.758,0V47.595h16V89.173H55.43a.879.879,0,1,0,0,1.758h3.105A1.466,1.466,0,0,0,60,89.466V47.3A1.467,1.467,0,0,0,58.535,45.837Zm-30.976,34.6a12.9,12.9,0,1,1-12.9-12.9A12.915,12.915,0,0,1,27.559,80.435Z" transform="translate(0 -45.837)" fill="#fff"/>
        <path id="Trazado_27303" data-name="Trazado 27303" d="M29.512,256.7a11.213,11.213,0,0,0,11.2,11.2,11.1,11.1,0,0,0,6.71-2.238A11.312,11.312,0,0,0,51.417,260a.879.879,0,0,0-1.68-.518,9.542,9.542,0,0,1-3.37,4.778,9.352,9.352,0,0,1-5.655,1.886A9.437,9.437,0,1,1,50.1,255.726a.879.879,0,1,0,1.749-.18A11.2,11.2,0,0,0,29.512,256.7Z" transform="translate(-26.054 -222.101)" fill="#fff"/>
        <path id="Trazado_27304" data-name="Trazado 27304" d="M118.466,267.866a.879.879,0,0,0-.879.879v7.7a.879.879,0,0,0,1.352.741l4.9-3.13a.879.879,0,1,0-.947-1.481l-3.543,2.265v-6.1A.879.879,0,0,0,118.466,267.866Z" transform="translate(-103.807 -241.847)" fill="#fff"/>
        <path id="Trazado_27305" data-name="Trazado 27305" d="M368.445,180.73a1.232,1.232,0,0,0-1.23-1.23H355.731a1.232,1.232,0,0,0-1.23,1.23v15a1.232,1.232,0,0,0,1.23,1.23h11.484a1.232,1.232,0,0,0,1.23-1.23ZM366.688,195.2h-10.43V181.258h10.43Z" transform="translate(-312.957 -158.135)" fill="#fff"/>
        <path id="Trazado_27306" data-name="Trazado 27306" d="M384.794,208.913a.879.879,0,0,0,1.24-.091l1.035-1.2v4.19a.879.879,0,1,0,1.758,0v-4.19l1.035,1.2a.879.879,0,0,0,1.331-1.148l-2.579-2.99a.879.879,0,0,0-1.331,0l-2.579,2.99a.879.879,0,0,0,.091,1.24Z" transform="translate(-339.432 -180.099)" fill="#fff"/>
        <path id="Trazado_27307" data-name="Trazado 27307" d="M383.51,290.379H389.1a.879.879,0,1,0,0-1.758H383.51a.879.879,0,1,0,0,1.758Z" transform="translate(-337.791 -254.469)" fill="#fff"/>
      </g>
    </g>
  </g>
</svg>
