<svg xmlns="http://www.w3.org/2000/svg" width="80" height="80" viewBox="0 0 80 80">
  <g id="Grupo_22466" data-name="Grupo 22466" transform="translate(-825 -2838)">
    <circle id="Base" cx="40" cy="40" r="40" transform="translate(825 2838)" fill="#fff"/>
    <g id="_027-puzzle" data-name="027-puzzle" transform="translate(836 2849)">
      <path id="Trazado_20567" data-name="Trazado 20567" d="M327.935,412.728a1.12,1.12,0,1,0,1.584,0A1.119,1.119,0,0,0,327.935,412.728Zm0,0" transform="translate(-290.907 -366.202)"/>
      <path id="Trazado_20568" data-name="Trazado 20568" d="M108.159,193.006a1.12,1.12,0,1,0,1.584,0A1.122,1.122,0,0,0,108.159,193.006Zm0,0" transform="translate(-95.752 -171.094)"/>
      <path id="Trazado_20569" data-name="Trazado 20569" d="M245.806,228.393a1.121,1.121,0,0,0-1.854.436,7.318,7.318,0,0,1-1.46,2.587,2.24,2.24,0,0,1-3.167-3.169,7.328,7.328,0,0,1,2.587-1.458,1.121,1.121,0,0,0,.436-1.855l-5.039-5.032a3.365,3.365,0,0,0-4.753,0l-3.443,3.443a8,8,0,0,0-1.309-1.859,4.481,4.481,0,1,0-6.337,6.337,8,8,0,0,0,1.859,1.309l-3.443,3.443a3.36,3.36,0,0,0,0,4.754l3.874,3.868a7.976,7.976,0,0,0-1.858,1.308,4.481,4.481,0,0,0,6.335,6.338,7.986,7.986,0,0,0,1.31-1.86l3.779,3.779a3.359,3.359,0,0,0,4.753,0l3.443-3.443a7.986,7.986,0,0,0,1.308,1.859,4.481,4.481,0,1,0,6.337-6.337,8,8,0,0,0-1.859-1.309l3.444-3.443a3.366,3.366,0,0,0,0-4.753Zm3.359,8.113-4.607,4.607a1.12,1.12,0,0,0,.436,1.855,7.32,7.32,0,0,1,2.587,1.458,2.241,2.241,0,1,1-3.169,3.169,7.335,7.335,0,0,1-1.458-2.587,1.12,1.12,0,0,0-1.854-.436l-4.607,4.607a1.12,1.12,0,0,1-1.585,0l-4.943-4.943a1.12,1.12,0,0,0-1.854.436,7.323,7.323,0,0,1-1.46,2.588,2.24,2.24,0,0,1-3.167-3.169,7.322,7.322,0,0,1,2.587-1.458,1.121,1.121,0,0,0,.436-1.855l-5.039-5.032a1.121,1.121,0,0,1,0-1.585l4.607-4.607a1.121,1.121,0,0,0-.437-1.854,7.335,7.335,0,0,1-2.587-1.458,2.241,2.241,0,0,1,3.169-3.169,7.336,7.336,0,0,1,1.458,2.587,1.121,1.121,0,0,0,1.854.437l4.607-4.607a1.122,1.122,0,0,1,1.585,0l3.874,3.869a7.976,7.976,0,0,0-1.858,1.308A4.48,4.48,0,0,0,244.076,233a7.979,7.979,0,0,0,1.311-1.86l3.779,3.779A1.123,1.123,0,0,1,249.165,236.506Zm0,0" transform="translate(-194.376 -194.396)"/>
      <path id="Trazado_20570" data-name="Trazado 20570" d="M23.923,20.756a7.316,7.316,0,0,1,1.459,2.587,1.121,1.121,0,0,0,1.854.436l4.607-4.607a3.359,3.359,0,0,0,0-4.753l-3.869-3.869a7.986,7.986,0,0,0,1.859-1.308A4.481,4.481,0,0,0,23.5,2.9a8.006,8.006,0,0,0-1.309,1.859L18.409.984a3.366,3.366,0,0,0-4.753,0L10.213,4.427A8.013,8.013,0,0,0,8.9,2.567,4.481,4.481,0,0,0,2.567,8.9a7.994,7.994,0,0,0,1.859,1.308L.982,13.657a3.367,3.367,0,0,0,0,4.753l3.779,3.779A8,8,0,0,0,2.9,23.5,4.481,4.481,0,0,0,9.24,29.835a7.983,7.983,0,0,0,1.309-1.859l3.869,3.869a3.365,3.365,0,0,0,4.753,0l4.607-4.607a1.12,1.12,0,0,0-.437-1.854,7.317,7.317,0,0,1-2.587-1.46,2.24,2.24,0,1,1,3.169-3.167ZM19.17,25.506a7.888,7.888,0,0,0,1.858,1.313L17.587,30.26a1.122,1.122,0,0,1-1.585,0l-5.033-5.033a1.121,1.121,0,0,0-1.855.437A7.322,7.322,0,0,1,7.656,28.25a2.24,2.24,0,1,1-3.169-3.167,7.329,7.329,0,0,1,2.587-1.459,1.121,1.121,0,0,0,.436-1.855L2.567,16.825a1.122,1.122,0,0,1,0-1.585l4.607-4.607a1.121,1.121,0,0,0-.436-1.854A7.33,7.33,0,0,1,4.151,7.32,2.241,2.241,0,0,1,7.32,4.152,7.339,7.339,0,0,1,8.778,6.739a1.121,1.121,0,0,0,1.854.436l4.607-4.607a1.123,1.123,0,0,1,1.585,0l4.943,4.944a1.121,1.121,0,0,0,1.854-.436,7.334,7.334,0,0,1,1.46-2.588,2.24,2.24,0,0,1,3.167,3.169,7.329,7.329,0,0,1-2.587,1.458,1.121,1.121,0,0,0-.436,1.855L30.259,16a1.12,1.12,0,0,1,0,1.585L26.816,21.03a7.975,7.975,0,0,0-1.309-1.859,4.48,4.48,0,0,0-6.337,6.335Zm0,0" transform="translate(-0.001 -0.001)"/>
      <path id="Trazado_20571" data-name="Trazado 20571" d="M50.171,133.443a1.12,1.12,0,0,0-1.584,1.585l3.505,3.5a1.12,1.12,0,0,0,1.584-1.585Zm0,0" transform="translate(-42.853 -118.203)"/>
      <path id="Trazado_20572" data-name="Trazado 20572" d="M269.091,352.365a1.12,1.12,0,1,0-1.582,1.586l3.6,3.594a1.12,1.12,0,0,0,1.582-1.586Zm0,0" transform="translate(-237.249 -312.601)"/>
    </g>
  </g>
</svg>
