<svg xmlns="http://www.w3.org/2000/svg" width="90" height="90" viewBox="0 0 90 90">
  <g id="Grupo_55852" data-name="Grupo 55852" transform="translate(-179 -3913)">
    <g id="Grupo_55850" data-name="Grupo 55850" transform="translate(0 21)">
      <circle id="Elipse_1806" data-name="Elipse 1806" cx="45" cy="45" r="45" transform="translate(179 3892)" fill="#2a94ee"/>
      <g id="_003-delivery_van" data-name="003-delivery van" transform="translate(198 3919)">
        <g id="Grupo_55823" data-name="Grupo 55823" transform="translate(0 0)">
          <path id="Trazado_27228" data-name="Trazado 27228" d="M397.207,368.09a2.121,2.121,0,1,0,2.121,2.121A2.124,2.124,0,0,0,397.207,368.09Zm0,2.71a.589.589,0,1,1,.589-.589A.59.59,0,0,1,397.207,370.8Z" transform="translate(-354.731 -338.396)" fill="#fff"/>
          <path id="Trazado_27229" data-name="Trazado 27229" d="M196.621,372.333a2.121,2.121,0,1,0-2.121-2.121A2.124,2.124,0,0,0,196.621,372.333Zm0-2.71a.589.589,0,1,1-.589.589A.59.59,0,0,1,196.621,369.622Z" transform="translate(-174.633 -338.396)" fill="#fff"/>
          <path id="Trazado_27230" data-name="Trazado 27230" d="M92.11,372.333a2.121,2.121,0,1,0-2.121-2.121A2.124,2.124,0,0,0,92.11,372.333Zm0-2.71a.589.589,0,1,1-.589.589A.59.59,0,0,1,92.11,369.622Z" transform="translate(-80.797 -338.396)" fill="#fff"/>
          <path id="Trazado_27231" data-name="Trazado 27231" d="M119.793,191.055h11.451a1.074,1.074,0,0,0,1.072-1.072V187.94a1.074,1.074,0,0,0-1.072-1.073H119.793a1.074,1.074,0,0,0-1.073,1.073v2.043A1.074,1.074,0,0,0,119.793,191.055Zm.46-2.656h10.532v1.124H120.252Z" transform="translate(-106.594 -175.683)" fill="#fff"/>
          <path id="Trazado_27232" data-name="Trazado 27232" d="M410.27,193.438a1.273,1.273,0,0,0-1.132-.686H405.47a.971.971,0,0,0-.97.97v3.972a1.79,1.79,0,0,0,1.787,1.787h5.536a.97.97,0,0,0,.86-1.419Zm-3.982,4.512a.256.256,0,0,1-.255-.255v-3.41h2.951l1.913,3.666Z" transform="translate(-363.183 -180.967)" fill="#fff"/>
          <path id="Trazado_27233" data-name="Trazado 27233" d="M51.92,93.587l-2.713-5.2a3.309,3.309,0,0,0-2.943-1.784H37.849V78.651a1.278,1.278,0,0,0-1.277-1.277H1.277A1.278,1.278,0,0,0,0,78.651v24a1.278,1.278,0,0,0,1.277,1.277H2.325l1.4,3.133a1.79,1.79,0,0,0,1.631,1.056h1.4a4.674,4.674,0,1,0,9.119,2.055h1.536a4.674,4.674,0,0,0,9.139,0H28.5a.766.766,0,0,0,0-1.532H26.63a4.674,4.674,0,0,0-9.283,0H15.955a4.671,4.671,0,0,0-6.813-3.59V103.93H50.765v4.457a.256.256,0,0,1-.255.255H47.118a4.674,4.674,0,0,0-9.283,0H32.073a.766.766,0,0,0,0,1.532h5.834a4.674,4.674,0,0,0,9.139,0h3.463a1.79,1.79,0,0,0,1.787-1.787V95.123a3.332,3.332,0,0,0-.377-1.536Zm-29.932,12.46a3.143,3.143,0,1,1-3.143,3.143A3.146,3.146,0,0,1,21.988,106.047Zm-10.675,0A3.143,3.143,0,1,1,8.17,109.19a3.146,3.146,0,0,1,3.143-3.143Zm-3.7.295c-.062.08-.121.161-.178.245H5.36a.256.256,0,0,1-.233-.151L4,103.93H7.61ZM36.317,102.4H1.532V99.946H36.317Zm0-21.04H11.031a.766.766,0,0,0,0,1.532H36.317V98.414H1.532V82.89H7.456a.766.766,0,0,0,0-1.532H1.532V78.906H36.317Zm6.159,30.975a3.143,3.143,0,1,1,3.143-3.143A3.146,3.146,0,0,1,42.476,112.333ZM37.849,88.138h1.22v3.536h-1.22ZM50.765,102.4H40.6v-1.875a.766.766,0,1,0-1.532,0V102.4h-1.22V93.206h1.22v3.741a.766.766,0,0,0,1.532,0v-8.81h5.663a1.782,1.782,0,0,1,1.585.96l2.713,5.2a1.794,1.794,0,0,1,.2.827Z" transform="translate(0 -77.374)" fill="#fff"/>
          <path id="Trazado_27234" data-name="Trazado 27234" d="M405.266,266.374a.766.766,0,0,0-.766.766v2.349a.766.766,0,0,0,1.532,0V267.14A.766.766,0,0,0,405.266,266.374Z" transform="translate(-363.183 -247.069)" fill="#fff"/>
        </g>
      </g>
    </g>
  </g>
</svg>
