<svg xmlns="http://www.w3.org/2000/svg" width="200" height="120" viewBox="0 0 200 120">
  <g id="Grupo_56808" data-name="Grupo 56808" transform="translate(-179 -13949)">
    <rect id="Rectángulo_5558" data-name="Rectángulo 5558" width="200" height="120" rx="5" transform="translate(179 13949)" fill="#e1eafe"/>
    <g id="_022-retailer" data-name="022-retailer" transform="translate(233 13971)">
      <g id="Grupo_55841" data-name="Grupo 55841" transform="translate(0 0)">
        <path id="Trazado_27360" data-name="Trazado 27360" d="M316.755,150.827V148.92a1.34,1.34,0,0,0-2.68,0v1.907a1.34,1.34,0,0,0,2.68,0Z" transform="translate(-257.961 -128.951)" fill="#20287a"/>
        <path id="Trazado_27361" data-name="Trazado 27361" d="M369.265,152.167a1.34,1.34,0,0,0,1.34-1.34V148.92a1.34,1.34,0,0,0-2.68,0v1.907A1.34,1.34,0,0,0,369.265,152.167Z" transform="translate(-302.19 -128.951)" fill="#20287a"/>
        <path id="Trazado_27362" data-name="Trazado 27362" d="M330.475,198.507a1.34,1.34,0,0,0-1.895-1.895,3.7,3.7,0,0,1-5.229,0,1.34,1.34,0,0,0-1.895,1.895,6.385,6.385,0,0,0,9.019,0Z" transform="translate(-263.7 -168.9)" fill="#20287a"/>
        <path id="Trazado_27363" data-name="Trazado 27363" d="M339.493,165.543h1.527a1.34,1.34,0,0,0,0-2.68h-.187v-1.374a1.34,1.34,0,0,0-2.68,0V164.2A1.34,1.34,0,0,0,339.493,165.543Z" transform="translate(-277.737 -139.274)" fill="#20287a"/>
        <path id="Trazado_27364" data-name="Trazado 27364" d="M162.991,95.249h-4.7a1.34,1.34,0,1,0,0,2.68h4.7a1.34,1.34,0,1,0,0-2.68Z" transform="translate(-128.91 -85.97)" fill="#20287a"/>
        <path id="Trazado_27365" data-name="Trazado 27365" d="M153.34,398.962a1.34,1.34,0,0,0,1.34-1.34v-.782a1.34,1.34,0,0,0-2.68,0v.782A1.34,1.34,0,0,0,153.34,398.962Z" transform="translate(-124.843 -332.576)" fill="#20287a"/>
        <path id="Trazado_27366" data-name="Trazado 27366" d="M172.34,398.962a1.34,1.34,0,0,0,1.34-1.34v-.782a1.34,1.34,0,0,0-2.68,0v.782A1.34,1.34,0,0,0,172.34,398.962Z" transform="translate(-140.448 -332.576)" fill="#20287a"/>
        <path id="Trazado_27367" data-name="Trazado 27367" d="M191.34,398.962a1.34,1.34,0,0,0,1.34-1.34v-.782a1.34,1.34,0,0,0-2.68,0v.782A1.34,1.34,0,0,0,191.34,398.962Z" transform="translate(-156.054 -332.576)" fill="#20287a"/>
        <path id="Trazado_27368" data-name="Trazado 27368" d="M210.34,398.962a1.34,1.34,0,0,0,1.34-1.34v-.782a1.34,1.34,0,0,0-2.68,0v.782A1.34,1.34,0,0,0,210.34,398.962Z" transform="translate(-171.659 -332.576)" fill="#20287a"/>
        <path id="Trazado_27369" data-name="Trazado 27369" d="M420.991,379.624h-4.7a1.34,1.34,0,0,0,0,2.68h4.7a1.34,1.34,0,0,0,0-2.68Z" transform="translate(-340.814 -319.537)" fill="#20287a"/>
        <path id="Trazado_27370" data-name="Trazado 27370" d="M327.269,397.453h4.492a1.34,1.34,0,1,0,0-2.68h-4.492a1.34,1.34,0,1,0,0,2.68Z" transform="translate(-267.697 -331.979)" fill="#20287a"/>
        <path id="Trazado_27371" data-name="Trazado 27371" d="M89.243,111.273h-.357V107.4a1.34,1.34,0,1,0-2.68,0v3.875H72.449v-7.866a1.878,1.878,0,0,0-1.876-1.876H69.448V96.8h4.474v2.948a1.878,1.878,0,0,0,1.876,1.876h4.057a1.878,1.878,0,0,0,1.876-1.876V96.8h4.474v4.344a1.34,1.34,0,1,0,2.68,0V96a1.878,1.878,0,0,0-1.876-1.876H84.6v-7.39a5.813,5.813,0,0,0-5.807-5.807H70.459l-1.828-2.1a9.26,9.26,0,0,0,5.554-5.969H74.5a5.018,5.018,0,0,0,5.013-5.013V66.479a5,5,0,0,0-1.558-3.627V55.3a8.534,8.534,0,0,0-8.525-8.525H64.276a7.778,7.778,0,0,0-5-1.816H48.8a2.236,2.236,0,0,0-2.233,2.233v15.66a5,5,0,0,0-1.558,3.627v1.368a5.018,5.018,0,0,0,5.013,5.013h.319A9.261,9.261,0,0,0,55.9,78.828l-1.828,2.1H38.493V77.918a1.34,1.34,0,0,0-2.68,0v3.453A2.236,2.236,0,0,0,38.046,83.6H49.231V95.371H47.713A2.236,2.236,0,0,0,45.479,97.6v13.668H44.4V91.009a3.13,3.13,0,0,0-3.127-3.127h-8.4a1.342,1.342,0,0,1-1.34-1.34V69.9h4.279v1.768a1.34,1.34,0,0,0,2.68,0V65.431h2.421a1.878,1.878,0,0,0,1.876-1.876V45.189a1.878,1.878,0,0,0-1.876-1.876H22.549a1.878,1.878,0,0,0-1.876,1.876V63.555a1.878,1.878,0,0,0,1.876,1.876h3.616v.447a4.026,4.026,0,0,0,2.689,3.793V86.543a4.024,4.024,0,0,0,4.02,4.02h8.4a.447.447,0,0,1,.447.447v11.152H40.557v-4.6a1.878,1.878,0,0,0-1.876-1.876H28.14a1.861,1.861,0,0,0-.8.184v-9.88a1.878,1.878,0,0,0-1.876-1.876H5.271a1.878,1.878,0,0,0-1.876,1.876V98.32A1.878,1.878,0,0,0,5.271,100.2h6.164v1.965H5.628a2.236,2.236,0,0,0-2.233,2.233v6.879H2.233A2.236,2.236,0,0,0,0,113.506v3.573a2.236,2.236,0,0,0,2.233,2.233H18.4a1.34,1.34,0,1,0,0-2.68H2.68v-2.68H88.8v2.68H24.656a1.34,1.34,0,1,0,0,2.68H89.243a2.236,2.236,0,0,0,2.233-2.233v-3.573A2.236,2.236,0,0,0,89.243,111.273ZM79.052,98.945H76.6V96.8h2.449ZM75.3,83.6h3.493a3.13,3.13,0,0,1,3.127,3.127v7.39H75.3ZM30.507,45.993h2.449v2.144H30.507ZM23.353,62.751V45.993h4.474v2.948A1.878,1.878,0,0,0,29.7,50.817H33.76a1.878,1.878,0,0,0,1.876-1.876V45.993H40.11V62.751Zm5.492,3.127v-.447h6.968v1.787H30.185A1.341,1.341,0,0,1,28.845,65.877Zm.1,32.49h8.933v3.793H28.944Zm-2.68,1.644v2.149H19.3V100.2H25.46A1.861,1.861,0,0,0,26.264,100.012Zm-20.189-2.5V86.8H24.656v10.72H19.3V93.853a1.878,1.878,0,0,0-1.876-1.876H13.311a1.878,1.878,0,0,0-1.876,1.876v3.663Zm10.541-2.859v7.5h-2.5v-7.5Zm25.1,16.616H6.075v-6.432H41.718ZM76.837,66.479v1.368a2.334,2.334,0,0,1-2.263,2.329V64.15A2.334,2.334,0,0,1,76.837,66.479Zm-7.4-17.024A5.851,5.851,0,0,1,75.279,55.3v6.227a5.041,5.041,0,0,0-.706-.058V60.443a4.919,4.919,0,0,0-4.913-4.913H67.089V52.774a7.767,7.767,0,0,0-.742-3.319ZM49.956,70.176a2.334,2.334,0,0,1-2.263-2.329V66.479a2.334,2.334,0,0,1,2.263-2.329Zm0-9.734v1.025a5.018,5.018,0,0,0-.706.058V47.639H59.274a5.14,5.14,0,0,1,5.135,5.135v2.756h-9.54A4.919,4.919,0,0,0,49.956,60.443Zm2.68,9.771V60.443a2.236,2.236,0,0,1,2.233-2.233H69.66a2.236,2.236,0,0,1,2.233,2.233v9.771a6.544,6.544,0,0,1-6.537,6.537H59.173A6.545,6.545,0,0,1,52.636,70.213Zm6.38,11.53a.1.1,0,0,1-.028-.067v-2.25c.061,0,.123,0,.184,0h6.184c.062,0,.123,0,.184,0v2.25a.1.1,0,0,1-.028.067l-3.249,3.3Zm.334,4.162-3.329,2.5V82.766l.371-.426a2.757,2.757,0,0,0,.713,1.282Zm8.075-2.283a2.758,2.758,0,0,0,.714-1.282l.371.426V88.4l-3.329-2.5ZM51.911,83.6h1.429V90.01a1.874,1.874,0,0,0,3,1.5L61.293,87.8a1.866,1.866,0,0,0,1.943,0l4.951,3.714a1.876,1.876,0,0,0,3-1.5V83.6h1.429V94.121H68.645a1.878,1.878,0,0,0-1.766,1.251H51.911Zm-.724,19.8v7.866H48.159V98.052h1.072v.983a1.34,1.34,0,0,0,2.68,0v-.983H66.768v3.479h-13.7A1.878,1.878,0,0,0,51.188,103.407Zm18.581,7.866h-15.9v-7.062h15.9Z" transform="translate(0 -43.313)" fill="#20287a"/>
      </g>
    </g>
  </g>
</svg>
