<svg xmlns="http://www.w3.org/2000/svg" width="80" height="80" viewBox="0 0 80 80">
  <g id="Grupo_22465" data-name="Grupo 22465" transform="translate(-472 -2838)">
    <circle id="Base" cx="40" cy="40" r="40" transform="translate(472 2838)" fill="#fff"/>
    <g id="_008-rating" data-name="008-rating" transform="translate(483 2851)">
      <path id="Trazado_20573" data-name="Trazado 20573" d="M248.24,381.12a1.12,1.12,0,1,1-1.12-1.12A1.12,1.12,0,0,1,248.24,381.12Zm0,0" transform="translate(-218.442 -337.431)"/>
      <path id="Trazado_20574" data-name="Trazado 20574" d="M372.443,246.721a6.721,6.721,0,1,0-6.721,6.721A6.729,6.729,0,0,0,372.443,246.721Zm-6.721,4.481a4.481,4.481,0,1,1,4.481-4.481A4.486,4.486,0,0,1,365.721,251.2Zm0,0" transform="translate(-318.783 -213.114)"/>
      <path id="Trazado_20575" data-name="Trazado 20575" d="M46.938,342.24a10.946,10.946,0,0,0-7.555,3.072,13.44,13.44,0,0,0-21.408,0,10.949,10.949,0,0,0-7.556-3.072A10.392,10.392,0,0,0,0,352.323v2.24a1.12,1.12,0,0,0,1.12,1.12H56.236a1.12,1.12,0,0,0,1.12-1.12v-2.24A10.392,10.392,0,0,0,46.938,342.24ZM2.24,352.323a8.122,8.122,0,0,1,8.178-7.842,8.552,8.552,0,0,1,6.32,2.783,13.443,13.443,0,0,0-1.5,6.179H2.24ZM28.678,342.24a11.2,11.2,0,0,1,11.2,11.2h-22.4A11.212,11.212,0,0,1,28.678,342.24Zm26.438,11.2H42.121a13.443,13.443,0,0,0-1.5-6.179,8.552,8.552,0,0,1,6.32-2.783,8.122,8.122,0,0,1,8.178,7.842Zm0,0" transform="translate(0 -301.912)"/>
      <path id="Trazado_20576" data-name="Trazado 20576" d="M46.443,246.721a6.721,6.721,0,1,0-6.721,6.721A6.729,6.729,0,0,0,46.443,246.721ZM39.721,251.2a4.481,4.481,0,1,1,4.481-4.481A4.486,4.486,0,0,1,39.721,251.2Zm0,0" transform="translate(-29.303 -213.114)"/>
      <path id="Trazado_20577" data-name="Trazado 20577" d="M193.924,188.962a8.962,8.962,0,1,0-8.962,8.962A8.972,8.972,0,0,0,193.924,188.962Zm-8.962,6.721a6.721,6.721,0,1,1,6.721-6.721A6.729,6.729,0,0,1,184.962,195.683Zm0,0" transform="translate(-156.284 -159.836)"/>
      <path id="Trazado_20578" data-name="Trazado 20578" d="M193.518,6.515a1.12,1.12,0,0,0-.9-.762l-4.832-.7L185.618.628a1.12,1.12,0,0,0-2.012,0l-2.163,4.424-4.832.7a1.12,1.12,0,0,0-.621,1.911l3.5,3.41-.826,4.816a1.12,1.12,0,0,0,1.626,1.181l4.323-2.273,4.325,2.273a1.12,1.12,0,0,0,1.625-1.181l-.827-4.815,3.5-3.41a1.12,1.12,0,0,0,.284-1.148ZM187.75,9.88a1.12,1.12,0,0,0-.322.992l.542,3.159-2.836-1.491a1.121,1.121,0,0,0-1.043,0l-2.836,1.491.542-3.159a1.121,1.121,0,0,0-.323-.992l-2.295-2.237,3.17-.46a1.119,1.119,0,0,0,.845-.617l1.417-2.9,1.416,2.9a1.119,1.119,0,0,0,.845.617l3.171.46Zm0,0" transform="translate(-155.974 0)"/>
      <path id="Trazado_20579" data-name="Trazado 20579" d="M378.8,94.829a1.12,1.12,0,0,0-.9-.762l-3.274-.476-1.464-2.967a1.119,1.119,0,0,0-1-.624h0a1.12,1.12,0,0,0-1,.624l-1.465,2.967-3.274.476a1.12,1.12,0,0,0-.621,1.911l2.369,2.31-.559,3.26a1.121,1.121,0,0,0,1.625,1.181l2.929-1.539,2.928,1.539a1.12,1.12,0,0,0,1.625-1.181l-.559-3.26,2.369-2.31A1.12,1.12,0,0,0,378.8,94.829Zm-4.638,2.265a1.118,1.118,0,0,0-.322.991l.275,1.6-1.44-.757a1.12,1.12,0,0,0-1.042,0l-1.441.757.275-1.6a1.12,1.12,0,0,0-.322-.991l-1.166-1.137,1.611-.234a1.121,1.121,0,0,0,.844-.613l.72-1.459.72,1.459a1.12,1.12,0,0,0,.844.613l1.611.234Zm0,0" transform="translate(-324.51 -79.917)"/>
      <path id="Trazado_20580" data-name="Trazado 20580" d="M38.8,94.829a1.12,1.12,0,0,0-.9-.762l-3.274-.476-1.464-2.967a1.12,1.12,0,0,0-2.009,0l-1.465,2.967-3.274.476a1.12,1.12,0,0,0-.621,1.911l2.369,2.31-.559,3.26a1.12,1.12,0,0,0,1.625,1.181l2.929-1.539,2.928,1.539a1.12,1.12,0,0,0,1.625-1.181l-.559-3.26,2.369-2.31a1.12,1.12,0,0,0,.283-1.148ZM34.16,97.094a1.12,1.12,0,0,0-.322.991l.275,1.6-1.441-.757a1.119,1.119,0,0,0-1.042,0l-1.442.757.275-1.6a1.119,1.119,0,0,0-.322-.991l-1.166-1.137,1.611-.234a1.121,1.121,0,0,0,.843-.613l.72-1.459.72,1.459a1.12,1.12,0,0,0,.844.613l1.611.234Zm0,0" transform="translate(-22.598 -79.917)"/>
      <path id="Trazado_20581" data-name="Trazado 20581" d="M286.063,391.633a1.12,1.12,0,0,0-1.23,1.872,6.761,6.761,0,0,1,2.394,2.743,1.12,1.12,0,0,0,2.023-.963,9,9,0,0,0-3.187-3.653Zm0,0" transform="translate(-252.476 -347.597)"/>
    </g>
  </g>
</svg>
