<svg xmlns="http://www.w3.org/2000/svg" width="90" height="90" viewBox="0 0 90 90">
  <g id="Grupo_56819" data-name="Grupo 56819" transform="translate(13363 -11574)">
    <g id="Grupo_55896" data-name="Grupo 55896" transform="translate(-13594 -12890)">
      <g id="Grupo_55890" data-name="Grupo 55890">
        <g id="Grupo_55870" data-name="Grupo 55870" transform="translate(52 20724)">
          <circle id="Elipse_1805" data-name="Elipse 1805" cx="45" cy="45" r="45" transform="translate(179 3740)" fill="#2a94ee"/>
        </g>
      </g>
    </g>
    <g id="_013-packing" data-name="013-packing" transform="translate(-13347 11589)">
      <g id="Grupo_55833" data-name="Grupo 55833" transform="translate(0 0)">
        <path id="Trazado_27308" data-name="Trazado 27308" d="M316.356,135.182a.85.85,0,0,0,.85-.85v-.983a.85.85,0,0,0-1.7,0v.983A.85.85,0,0,0,316.356,135.182Z" transform="translate(-279.765 -119.133)" fill="#fff"/>
        <path id="Trazado_27309" data-name="Trazado 27309" d="M374.35,135.182a.85.85,0,0,0,.85-.85v-.983a.85.85,0,0,0-1.7,0v.983A.85.85,0,0,0,374.35,135.182Z" transform="translate(-331.189 -119.133)" fill="#fff"/>
        <path id="Trazado_27310" data-name="Trazado 27310" d="M324.559,181.081a4.089,4.089,0,0,0,5.776,0,.85.85,0,0,0-1.2-1.2,2.388,2.388,0,0,1-3.373,0,.85.85,0,0,0-1.2,1.2Z" transform="translate(-287.572 -160.924)" fill="#fff"/>
        <path id="Trazado_27311" data-name="Trazado 27311" d="M342.469,146.541h.981a.85.85,0,1,0,0-1.7h-.131v-.893a.85.85,0,1,0-1.7,0v1.742A.85.85,0,0,0,342.469,146.541Z" transform="translate(-302.92 -128.531)" fill="#fff"/>
        <path id="Trazado_27312" data-name="Trazado 27312" d="M56.811,63.665H55.142a1.984,1.984,0,0,0-.1-2.692l-.836-.836V53.866a.85.85,0,1,0-1.7,0v4.572l-.99-.99a1.969,1.969,0,0,0-1.05-.547V50.468a.85.85,0,1,0-1.7,0V57.4c-.018.017-.037.032-.054.049l-1.442,1.442-.015.017H42.878a1.418,1.418,0,0,0-1.416,1.416v3.342h-.737V54.111l6.01-9.559a1.189,1.189,0,0,0-.97-1.822l1.156-1.213.342,0a5.25,5.25,0,0,1,5.243,5.244V49.9a.85.85,0,0,0,1.7,0V46.759a6.952,6.952,0,0,0-6.948-6.943l-.3,0L45.238,37.77a5.925,5.925,0,0,0,2.351-3.4h.145a3.212,3.212,0,0,0,3.208-3.208v-.878a3.213,3.213,0,0,0-2.753-3.175,1.185,1.185,0,0,0,.395-.882V24.647a3,3,0,0,0,2.562-2.963A7.191,7.191,0,0,0,43.963,14.5H35.787A7.191,7.191,0,0,0,28.6,21.684a3,3,0,0,0,2.562,2.963v1.578a1.186,1.186,0,0,0,.395.882,3.213,3.213,0,0,0-2.753,3.175v.878a3.212,3.212,0,0,0,3.208,3.208h.145a5.924,5.924,0,0,0,2.311,3.372L32.718,39.9l-1.932.011a11.486,11.486,0,0,0-8.1,3.384l-4.509,4.509H13.141a1.418,1.418,0,0,0-1.416,1.416v1.953H10.659L5.244,45.787a.85.85,0,1,0-1.2,1.2l5.414,5.386v6.53H4.984a1.418,1.418,0,0,0-1.416,1.416v3.342H1.189A1.191,1.191,0,0,0,0,64.854v3.172a1.191,1.191,0,0,0,1.189,1.189H9.4a.85.85,0,0,0,0-1.7H1.7V65.364H56.3v2.152H13.367a.85.85,0,1,0,0,1.7H56.811A1.191,1.191,0,0,0,58,68.026V64.854A1.191,1.191,0,0,0,56.811,63.665Zm-6.9-5.015a.284.284,0,0,1,.4,0l3.525,3.525a.283.283,0,0,1,0,.4l-1.09,1.09h-1.1l-3.172-3.172a.283.283,0,0,1,0-.4Zm-6.754,1.956h3.557a1.966,1.966,0,0,0,.554,1.088l1.971,1.971H43.161Zm-6.515,0v3.059H30.189V60.606Zm.283-1.7H31.889V52.378l3.72-3.7,3.417,5.434v9.554h-.68V60.323a1.418,1.418,0,0,0-1.416-1.416ZM41.58,40.29h0Zm-.062.078-1.642,2.055-1.642-2.055V38.835h3.284Zm3.9.262-1.705,1.789a1.189,1.189,0,0,0,.861,2.01h.231l-4.08,6.49V44.082l2.182-2.731a1.421,1.421,0,0,0,.31-.884V38.676q.232-.055.457-.127Zm3.824-10.346v.878a1.51,1.51,0,0,1-1.475,1.507V28.776A1.51,1.51,0,0,1,49.244,30.283Zm-18.94-8.6A5.49,5.49,0,0,1,35.787,16.2h8.177a5.49,5.49,0,0,1,5.484,5.484,1.3,1.3,0,0,1-1.3,1.3H44.973a.85.85,0,1,0,0,1.7h1.913v1.037H32.865V24.679h8.142a.85.85,0,1,0,0-1.7H31.6A1.3,1.3,0,0,1,30.3,21.684Zm.2,9.478v-.878a1.51,1.51,0,0,1,1.475-1.507v3.893A1.51,1.51,0,0,1,30.507,31.162Zm3.174,1.765V27.415H46.069v5.512a4.213,4.213,0,0,1-4.209,4.209H37.89A4.213,4.213,0,0,1,33.681,32.927Zm2.339,5.6q.252.084.513.146v1.791a1.422,1.422,0,0,0,.31.884l2.182,2.731v6.837l-2.182-3.47.459-.456a.85.85,0,1,0-1.2-1.2l-.187.186-.972-1.545h.231a1.189,1.189,0,0,0,.861-2.01l-1.714-1.8ZM23.886,44.5A9.8,9.8,0,0,1,30.8,41.611l2.111-.012,1.078,1.131a1.189,1.189,0,0,0-.971,1.822l1.666,2.65-3.993,3.973H27.244V49.449a1.416,1.416,0,0,0-2.417-1L22.1,51.175h-.52V49.222a1.417,1.417,0,0,0-1.052-1.367Zm1.659,6.677H24.5l1.042-1.042ZM13.424,49.5h6.457v1.67H13.424Zm-2.266,3.369H30.189v6.033h-.283a1.418,1.418,0,0,0-1.416,1.416v3.342H25.885V60.323a1.418,1.418,0,0,0-1.416-1.416H17.445a1.418,1.418,0,0,0-1.416,1.416v3.342H13.424V60.323a1.418,1.418,0,0,0-1.416-1.416h-.85ZM24.186,63.665H17.729V60.606h6.457ZM5.268,60.606h6.457v3.059H5.268Z" transform="translate(0 -14.501)" fill="#fff"/>
      </g>
    </g>
  </g>
</svg>
