<svg xmlns="http://www.w3.org/2000/svg" width="46" height="46" viewBox="0 0 46 46">
  <g id="_025-instagram" data-name="025-instagram" opacity="0.5">
    <path id="Trazado_26511" data-name="Trazado 26511" d="M6.738,46H39.262A6.746,6.746,0,0,0,46,39.262V6.738A6.746,6.746,0,0,0,39.262,0H6.738A6.746,6.746,0,0,0,0,6.738V39.262A6.746,6.746,0,0,0,6.738,46ZM2.7,6.738A4.048,4.048,0,0,1,6.738,2.7H39.262A4.048,4.048,0,0,1,43.3,6.738V39.262A4.048,4.048,0,0,1,39.262,43.3H6.738A4.048,4.048,0,0,1,2.7,39.262Zm0,0" fill="#2a94ee"/>
    <path id="Trazado_26512" data-name="Trazado 26512" d="M133.129,145.258A12.129,12.129,0,1,0,121,133.129,12.143,12.143,0,0,0,133.129,145.258Zm0-21.562a9.434,9.434,0,1,1-9.434,9.434A9.444,9.444,0,0,1,133.129,123.7Zm0,0" transform="translate(-110.129 -110.129)" fill="#2a94ee"/>
    <path id="Trazado_26513" data-name="Trazado 26513" d="M365.043,69.086A4.043,4.043,0,1,0,361,65.043,4.048,4.048,0,0,0,365.043,69.086Zm0-5.391a1.348,1.348,0,1,1-1.348,1.348A1.349,1.349,0,0,1,365.043,63.7Zm0,0" transform="translate(-328.566 -55.52)" fill="#2a94ee"/>
  </g>
</svg>
