<svg xmlns="http://www.w3.org/2000/svg" width="211.035" height="273.442" viewBox="0 0 211.035 273.442">
  <g id="Grupo_22883" data-name="Grupo 22883" transform="translate(399.691 -228.226)">
    <g id="Grupo_22866" data-name="Grupo 22866" transform="translate(-385.994 231.97)">
      <path id="Trazado_22616" data-name="Trazado 22616" d="M-170.853,484.426a3.808,3.808,0,0,0-.667-2,5.173,5.173,0,0,0-.593-.707,2.03,2.03,0,0,1-.274-.474,4.55,4.55,0,0,1-.2-.541c-.031-.165.017-.309-.027-.479a1.906,1.906,0,0,1-.126-.471,5.918,5.918,0,0,0-.162-.785,2.146,2.146,0,0,0-.262-.946,3.557,3.557,0,0,1-.519-1.095,18.426,18.426,0,0,1-.3-2.2c-.055-.485-.367-.892-.448-1.378a8.818,8.818,0,0,1-.027-1.521,3.259,3.259,0,0,0-.676-1.931c-.345-.432-.811-.594-1.172-1.017a1.414,1.414,0,0,1-.318-.466,3.55,3.55,0,0,1-.027-.436c-.029-.174-.143-.3-.174-.47a7.154,7.154,0,0,1,.011-.942c-.017-.473-.25-.542-.633-.706a8.9,8.9,0,0,1-1.415-.707c-.559-.374-.722-1.143-1.214-1.607a2.735,2.735,0,0,0-.78-.476A2.966,2.966,0,0,0-182,462.8c-.333-.014-.473.166-.777.166a.729.729,0,0,1-.6-.513c-.248-.622.3-1.647-.177-2.17-.553-.6-1.61-.463-2.33-.464-.352,0-.688.092-.937-.188-.349-.392-.207-.724.1-1.055,1.1-1.173,2.489-1.485,3.833-2.288a3.016,3.016,0,0,0,1.4-1.534,8.641,8.641,0,0,1,1.043-1.605,5.828,5.828,0,0,1,.437-.71c.251-.309.595-.542.839-.851a4.785,4.785,0,0,0,.59-1.952,4.843,4.843,0,0,0-.747-3.676c-.662-.845-1.683-.769-2.557-1.169a3.45,3.45,0,0,0-.345-.161c-.183-.049-.4.025-.569-.027-.4-.122-.261-.48-.337-.793a3.639,3.639,0,0,0-2.006-2.04c-.412.136-.16-.775-.156-1.021,0-.325,0-.651,0-.976,0-.36.168-1.611-.146-1.778-.243-.129-.5.059-.646-.3-.009-.023-.018-.057-.027-.086a2.169,2.169,0,0,1-.725.031,1.671,1.671,0,0,0-.409,0c-.122.029-.251.051-.382.074a1.987,1.987,0,0,0-.624.168c-.7.4-.845,1.085-1.024,1.947a1.933,1.933,0,0,1-2.073,1.328,10.423,10.423,0,0,1-2.595-.711,7.585,7.585,0,0,0-2.547-.472,7.779,7.779,0,0,0-2.078.487c-.182.061-.327.124-.475.187-.18.078-.36.154-.543.215a1.916,1.916,0,0,1-.585.088,1.931,1.931,0,0,0-.244.017c-.283.043-.569.111-.857.18-.327.078-.658.156-.99.2a2.921,2.921,0,0,0-.786.288,3.353,3.353,0,0,1-1.057.358,2.65,2.65,0,0,1-.448,0,1.2,1.2,0,0,0-.358.011,1.1,1.1,0,0,0-.341.2c-.068.051-.138.1-.211.151l-.539.356-.179-.621a.871.871,0,0,1,.331-.908.775.775,0,0,0,.1-.106,1.232,1.232,0,0,0,.15-.366,3.4,3.4,0,0,1,.13-.368,6.431,6.431,0,0,1,.935-1.417,2.3,2.3,0,0,1,1.128-.67,3.061,3.061,0,0,0,.478-.19,4.1,4.1,0,0,0,1.033-.9,1.631,1.631,0,0,0,.161-.255,1.747,1.747,0,0,1,.38-.517,4.015,4.015,0,0,1,.678-.45,1.907,1.907,0,0,0,.734-.591,2.9,2.9,0,0,0,.469-.986.942.942,0,0,0-.014-.182,1.379,1.379,0,0,1,0-.536.686.686,0,0,1,.119-.248,3.066,3.066,0,0,0-1.694.122,4.341,4.341,0,0,0-.736,1.343c-.07.168-.136.326-.2.465a3.677,3.677,0,0,1-.719,1.139,4.229,4.229,0,0,1-.889.631l-.241.144a3.211,3.211,0,0,1-1.063.387c-.12.027-.244.055-.373.092-.184.053-.379.093-.575.132a3.476,3.476,0,0,0-.85.243,1.687,1.687,0,0,0-.253.168,1.789,1.789,0,0,1-.736.371,1.981,1.981,0,0,1-.559,0c-.457-.043-.746-.056-1.024-.108a3.817,3.817,0,0,0-.684-.076,6.244,6.244,0,0,1-1.526-.2,1.356,1.356,0,0,1-.281-.1.306.306,0,0,0-.149-.04c-.144-.007-.291,0-.436,0l-1.684,0h-.013a3.683,3.683,0,0,0-1.54.3,2.6,2.6,0,0,1-.8.194l-.15.019a3.537,3.537,0,0,0-.565.142,3.789,3.789,0,0,1-.879.192,4.771,4.771,0,0,1-.5,0,1.663,1.663,0,0,0-.706.069,3.046,3.046,0,0,0-.481.277,4.23,4.23,0,0,1-.585.334l-.219.092a1.061,1.061,0,0,0-.43.255,1.943,1.943,0,0,0-.349.519,2.928,2.928,0,0,1-.4.563c-.059.069-.12.138-.176.216l-.148.2c-.1.125-.2.255-.274.377a2.33,2.33,0,0,0-.188.452,3.484,3.484,0,0,1-.235.573,3.774,3.774,0,0,1-.585.754c-.082.089-.164.177-.243.271a6.361,6.361,0,0,0-.458.656,6.4,6.4,0,0,1-.638.877,6.2,6.2,0,0,1-.758.678,4.083,4.083,0,0,0-.784.746c-.128.172-.266.338-.4.5a3,3,0,0,0-.761,1.267,11.959,11.959,0,0,1-.521,1.7,12.844,12.844,0,0,0-.442,1.38,3.672,3.672,0,0,1-.938,1.613l-.083.1a3.065,3.065,0,0,1-1.349.889c-.165.067-.339.137-.524.231a4.047,4.047,0,0,0-.52.337,5.686,5.686,0,0,1-.5.335,4.111,4.111,0,0,1-.724.309c-.12.043-.241.084-.354.133a10.376,10.376,0,0,0-1.77.968c-.212.144-.432.271-.649.395a5.66,5.66,0,0,0-.783.5,4.909,4.909,0,0,1-1.059.61c-.114.053-.228.106-.337.162a3.973,3.973,0,0,1-1.105.344c-.114.022-.231.045-.352.074a3.912,3.912,0,0,1-1.46.078,3.745,3.745,0,0,1-.875-.293,3.479,3.479,0,0,0-.571-.21c-.239-.057-.478-.1-.718-.135-.281-.045-.562-.092-.843-.16a4.312,4.312,0,0,0-1.247-.033.635.635,0,0,0-.34.128l-.119.069a2.147,2.147,0,0,1-.878.249,1.933,1.933,0,0,0-.41.078,3.737,3.737,0,0,0-.513.242,3.719,3.719,0,0,1-.9.375,2.129,2.129,0,0,1-.538.043,1.449,1.449,0,0,0-.335.023l-.152.047a1.285,1.285,0,0,1-.777.052c-.092-.021-.179-.047-.266-.073a.771.771,0,0,0-.35-.061,1.384,1.384,0,0,0-.3.12,2.427,2.427,0,0,1-.474.184,1.25,1.25,0,0,1-1.286-.444,1.718,1.718,0,0,0-.293-.253,2.417,2.417,0,0,0-.779-.286c-.175-.041-.355-.086-.55-.152a2.374,2.374,0,0,0-1.324-.146,4.627,4.627,0,0,0-1.413.813c-.142.1-.282.209-.42.3l-.317.218c-.276.189-.548.376-.822.575-.045.033-1.107.8-1.817.477a4.412,4.412,0,0,1-.874-.583c-.1-.08-.2-.158-.3-.229a2.177,2.177,0,0,0-.5-.3l-.152-.059a1.686,1.686,0,0,1-.851-.551,2.156,2.156,0,0,1-.25-.991,4.589,4.589,0,0,0-.758.843,2.769,2.769,0,0,0-.26,1.542c0,.216.007.435,0,.66a1.706,1.706,0,0,1-1.236,1.519c-.118.056-.239.113-.357.18-.088.05-.174.108-.262.166a2.6,2.6,0,0,1-.763.391,1.377,1.377,0,0,1-.417.036.789.789,0,0,0-.124,0,1.115,1.115,0,0,1-.338.158,2.659,2.659,0,0,1-.75.036c-.091,0-.177-.008-.267-.008a3.213,3.213,0,0,0-.613.088c-.139.029-.279.058-.427.079a1.76,1.76,0,0,0-.275.069,2.233,2.233,0,0,1-.5.106c-.036,0-.07,0-.1,0a.868.868,0,0,1-.559-.188l-.205-.115h0l-.175-.072a6.728,6.728,0,0,1-1.162-.648,2.69,2.69,0,0,0-.653-.281,4.988,4.988,0,0,1-.585-.223l-.178-.087a1.748,1.748,0,0,0-.8-.25c-.1,0-.221.005-.34.013a2.662,2.662,0,0,1-.954-.06l-.247-.077-.07-.251a1.641,1.641,0,0,1-.025-.611,1.119,1.119,0,0,0,.008-.248c-.033-.2-.086-.393-.137-.591-.043-.165-.086-.33-.12-.495a5.8,5.8,0,0,0-.869-1.908,5.411,5.411,0,0,0-1.173-1.184,3.229,3.229,0,0,1-1.176-1.624,2.436,2.436,0,0,0-.374-.723,9.364,9.364,0,0,0-.783-.839l-.249-.239a5.378,5.378,0,0,1-.734-.791l-.079-.115c-.138-.2-.181-.257-.326-.311a1.824,1.824,0,0,0-.389-.077,3.636,3.636,0,0,1-.4-.068,2.584,2.584,0,0,0-.648-.07.694.694,0,0,0-.374.088l-.1.045a3.34,3.34,0,0,1-.374.132,2.641,2.641,0,0,0,.052.66c.023.1.055.2.088.308a3.636,3.636,0,0,1,.144.573,1.9,1.9,0,0,1-.084.769,1.521,1.521,0,0,0-.065.331c-.009.3.176.454.634.759.1.067.2.133.3.2.068.05.146.1.227.156a3.27,3.27,0,0,1,.755.626,1.679,1.679,0,0,1,.3,1.193l0,.225a1.989,1.989,0,0,1-.375,1.385,3.711,3.711,0,0,0-.666,1.288c-.079.28-.178.551-.277.823a4.469,4.469,0,0,0-.386,1.717c.007.19.264.326.655.511.142.068.282.134.407.207.1.061.217.118.334.175a2.572,2.572,0,0,1,1.178.92,5.813,5.813,0,0,1,.643,2.77l0,.313a9.31,9.31,0,0,1-.549,3.677l-.06.16c-.117.322-.433,1.171-1.257.941a1.431,1.431,0,0,1-.724-.593,1.058,1.058,0,0,0-.262-.283,1.841,1.841,0,0,0-.881-.059,2.647,2.647,0,0,1-1.379-.15c-.718-.337-.689-1.37-.5-1.942a2.017,2.017,0,0,1,.29-.527.913.913,0,0,0,.171-.309,2.288,2.288,0,0,0,.009-.54c-.007-.12-.012-.24-.011-.354,0-.263,0-.524-.109-.563a2.353,2.353,0,0,0-1.353.138,3.516,3.516,0,0,1-1.866.166,4.324,4.324,0,0,1-1.191-.628,3.944,3.944,0,0,1-.932-.773,6.1,6.1,0,0,1-.63-1.022,7.025,7.025,0,0,0-.4-.7c-.229-.334-.452-.531-.63-.556a.572.572,0,0,0-.4.168c-.133.112-.133.112-.059.473a3.2,3.2,0,0,1-.705,2.741,5.244,5.244,0,0,0-1.072,1.775l-.043.11c-.181.474-.484,1.268-1.129,1.318a.792.792,0,0,1-.361-.059c-.059.12-.173.359-.223.464l-.088.178c-.035.067-.065.136-.1.206a1.831,1.831,0,0,1-.458.692,2.334,2.334,0,0,1-.4.269,1.075,1.075,0,0,0-.314.229l-.072.086a6.538,6.538,0,0,1-.655.7l-.21.178c-.235.193-.271.223-.334.465a4.982,4.982,0,0,1-1.682,2.666,6.257,6.257,0,0,0-.888.815c-.155.161-.311.323-.474.477a5.517,5.517,0,0,1-1.625.982,3.384,3.384,0,0,0-.455.255l-.158.1a1.846,1.846,0,0,1-.382.161,1.182,1.182,0,0,0-.2.077c-.077.07.061.449.144.676a2.325,2.325,0,0,1,.208.987,3.174,3.174,0,0,1-.583,1.357c-.069.108-.136.213-.194.317a4.628,4.628,0,0,1-.988,1.258c-.777.661-1.821,1.264-3.01.057l-.18-.188a2.342,2.342,0,0,0-.863-.672,4,4,0,0,1-.438-.2,1.292,1.292,0,0,1-.213.613,2.555,2.555,0,0,1-1.035.793c-.072.034-.14.062-.2.089-.183.076-.183.076-.21.183a1.1,1.1,0,0,0,0,.293,1.689,1.689,0,0,1-.054.674,1.507,1.507,0,0,1-.541.7,1.878,1.878,0,0,0-.172.151,1.082,1.082,0,0,0-.136.22,1.841,1.841,0,0,1-.26.4,2.686,2.686,0,0,1-1.46.879,1.149,1.149,0,0,0-.64.221,2.025,2.025,0,0,1-1.082.274,1.275,1.275,0,0,0-.748.239,6.028,6.028,0,0,0-.515.326,4.055,4.055,0,0,1-1.119.6,2.348,2.348,0,0,1-.374.072,1.061,1.061,0,0,0-.332.078,1.817,1.817,0,0,0-.243.213,2.562,2.562,0,0,1-.468.39l-.12.072a6.056,6.056,0,0,0-.674.443,7.157,7.157,0,0,1-1.091.728,5.406,5.406,0,0,1-2.4.545c-.243,0-.482.011-.729.021a7.013,7.013,0,0,1-1.762-.065,2.8,2.8,0,0,1-.491-.174,3.466,3.466,0,0,0-.418-.155c0,.052.007.1.008.158l.006.269c.006.227.012.457,0,.678a2.26,2.26,0,0,1-.106.518,1.489,1.489,0,0,0-.07.32,2.27,2.27,0,0,0,.013.294,1.914,1.914,0,0,1-.066.863,2.41,2.41,0,0,1-1.177,1.06,22.362,22.362,0,0,1-2.4,1.032,3.144,3.144,0,0,1-.692.14,1.524,1.524,0,0,0-.678.174,3.493,3.493,0,0,0-.4.559c-.106.168-.188.331-.272.494a4.641,4.641,0,0,1-.6.958,3.71,3.71,0,0,0-.4.646,4.343,4.343,0,0,1-.575.864,2.125,2.125,0,0,1,.747.086c.393.131.736.389,1.137.483a7.125,7.125,0,0,1,.948.309,15.85,15.85,0,0,0,1.557.632,11.806,11.806,0,0,0,2.644.035,4.726,4.726,0,0,0,1.061-.035,5.73,5.73,0,0,1,1.014-.282c.622-.037,1.357.174,1.872-.188a3.346,3.346,0,0,0,.95-.868c.208-.293.582-.605.636-.98.057-.392-.052-.571.463-.435.472.125.911.385,1.377.553a3.746,3.746,0,0,0,1.13.357,5.573,5.573,0,0,1,1.1.032c.261.065.511.23.777.287.474.1.89-.228,1.154.3.138.277.237.513.386.785a2.529,2.529,0,0,1,.356,1.1c.019.376-.095.631.185.9a4.6,4.6,0,0,0,1.1.672,3.531,3.531,0,0,0,2.315.6c.5-.124.867-.492,1.424-.45a3.539,3.539,0,0,1,1.1.318c.225.1.19.16.38.321.205.173.491.2.714.341.2.124.273.3.434.448.213.192.5.266.715.459.35.309.518.811.89,1.07a2.245,2.245,0,0,0,.474.185c.17.071.307.228.471.291a2.93,2.93,0,0,0,1.1.03c.331-.04.484-.26.778-.431.272-.159.731-.636,1.071-.487.178.078.466.456.612.593a8.5,8.5,0,0,1,1.157,1.106c.239.336.032.791.335,1.11.242.256.776.169,1.1.11a4.212,4.212,0,0,0,1.221-.553,1.1,1.1,0,0,1,1.1,0c.452.17.263.483.346.871.023.109.108.189.126.344.03.26-.079.347.142.522a2.183,2.183,0,0,0,1.266.267c.919-.113,2.363-.158,2.982.51.541.585.936,1.324,1.417,1.963a2.709,2.709,0,0,1,.344,1.137,2.193,2.193,0,0,1,.122.628,1.889,1.889,0,0,0,.122.507c.184.863-.533,1.718.269,2.4a3.266,3.266,0,0,0,1.057.665c.331.085.9-.111,1.189.068.631.386-.769,1.449-1.067,1.729-.277.261-.48.584-.008.754a8.72,8.72,0,0,0,1.264.318c.4.069.866-.114,1.255-.019a.965.965,0,0,1,.655.926c.3.007.426.274.767.191a1.725,1.725,0,0,0,.542-.319c.139-.106.269-.377.422-.445.354-.158.657.265.814.52a8.612,8.612,0,0,1,.536.865,2.667,2.667,0,0,0,.42.863c.243.271.463.553.706.823a1.982,1.982,0,0,0,.881.511,1.319,1.319,0,0,0,.858.164c.295-.084.424-.3.777-.325a1.691,1.691,0,0,1,.749.027c.313.194.389.77.546,1.075a11.007,11.007,0,0,1,.706,1.727,3.156,3.156,0,0,0,.231.753c.165.249.472.368.64.62a4.368,4.368,0,0,1,.545,1.294c.206.753-.675.97-.949,1.536-.293.6.386.893.836,1.259a2.969,2.969,0,0,0,.585.388,2.841,2.841,0,0,0,.98.111,2.869,2.869,0,0,1,.628.156c.335.132.291.2.615-.031a2.158,2.158,0,0,1,1.57-.6c1.5.259,1.107,2.229,1.107,3.343a5.139,5.139,0,0,1,.007.907,2.515,2.515,0,0,1-.439.819c-.124.2-.283.385-.4.585-.3.538-.019.531.321.824.668.575.1,1.034.189,1.7.085.628.661.619,1.062.978.464.416.877.26,1.452.122.307-.073.489-.261.791-.088a1.191,1.191,0,0,1,.469.708c.2.881.244.941,1.131.945a2.157,2.157,0,0,0,1.224-.193c.285-.174.555-.422.812-.593a2.327,2.327,0,0,1,1.7-.474c.341.041.4.181.625.436s.51.462.749.7c.307.307.342.567.82.6a2.316,2.316,0,0,1,.31-.015c.233.049.371.236.6.3a2.393,2.393,0,0,0,1.252-.084c.4-.123,1.028-.7,1.428-.488.285.152.234.349.656.288a2.588,2.588,0,0,0,.98-.508c.229-.148.444-.486.705-.573.17-.057.334,0,.507-.051.141-.039.255-.164.393-.211.186-.063.364-.043.549-.1.38-.116.7-.646.942-.945.32-.4.42-.922.734-1.315a3.732,3.732,0,0,1,2.406-1.011,1.261,1.261,0,0,1,.464.02c.493.18.6.916,1.083,1.087.145.051.234,0,.37,0a4.7,4.7,0,0,1,.94.122c.624.108,1.4-.049,1.862.5a8.413,8.413,0,0,1,.46.788c.467.7,1.186.507,1.871.2a3.984,3.984,0,0,1,1.268-.356c.153-.011.316.026.468.01.383-.039.591-.3.953-.45s.75-.175,1.121-.3c.588-.2,1.129-.428,1.7-.674a3.043,3.043,0,0,1,1.288-.31c.492.007,1.157-.151,1.58.142a3.339,3.339,0,0,1,.745,1.113.715.715,0,0,1,.157.471c.008.179-.078.477.017.639.08.135.16.134.314.166a3.323,3.323,0,0,0,.607-.143,1.98,1.98,0,0,1,.6-.029c.233-.038.437-.126.668-.17s.383.036.6-.09c.208.371-.424,1.029-.126,1.426.223.3,1.356.042,1.637-.072.183-.075.729-.308.94-.15.181.135.056.483.08.7a1.11,1.11,0,0,0,1.01,1.059,5.355,5.355,0,0,1,1.978.62c.3.192.505.5.788.718.1.076.2.078.283.188.055.073.041.237.1.324a3.8,3.8,0,0,0,.634.525c.218.19.442.4.671.576a1.914,1.914,0,0,1,.509.425c.159.229.267.657.311.666l-9.731,15.382,1.726,2.04a4.163,4.163,0,0,1,1.107-1.067,5.624,5.624,0,0,1,.937-.468c.266-.126.512-.26.773-.392a.928.928,0,0,1,.648-.125c.166.074.1.124.184.287a6.722,6.722,0,0,1,.4.7,7.007,7.007,0,0,0,.305.916c.234.48.675.834.942,1.29.154.263.386.442.562.7.15.221.21.5.377.71.094.118.261.154.365.263.177.185.2.374.427.525a2,2,0,0,1,.632.459c.07.1.074.219.149.322.093.128.256.193.357.3.225.243.354.538.585.789a4.683,4.683,0,0,0,.736.593c.219.163.4.561.72.471l7.976-45.509c-.042.154-.111.372-.142.5a9.887,9.887,0,0,0-.142-2.233c0-.785,0-1.57,0-2.354a3.074,3.074,0,0,1-.008-.636c.035-.142.139-.156.173-.3.1-.423.018-.765-.358-.911a9.482,9.482,0,0,1-.949-.31c-.147-.079-.264-.158-.428-.235-.246-.117-.218-.132-.335-.338a2.083,2.083,0,0,1-.331-.848.129.129,0,0,1-.092-.183.656.656,0,0,0,.117-.242.5.5,0,0,0-.14-.52,3.927,3.927,0,0,0-.663-.628c-.271-.156-.712-.036-.957-.3-.2-.218-.14-.671-.075-.945a9.61,9.61,0,0,1,.4-1.146,6.425,6.425,0,0,0,.509-2.194l-7.534-6.593V495.924c0-.034.314.245.314.211-.111.726.381.884.941.888.33,0,.354-.1.62-.165a6.644,6.644,0,0,0,.95-.149c.5-.185.9-.592,1.413-.752.308-.1.366.066.619.133a1.567,1.567,0,0,0,.79-.16,11.455,11.455,0,0,0,1.577-.671c.523-.277.74-.752,1.409-.753.287,0,.5.152.785.168.257.014.535-.043.789-.007.341.048.36.226.629.442.309.249.493.121.859.181.507.082.871.628,1.369.756a2.59,2.59,0,0,0,.749.039.576.576,0,0,0,.436-.161c.069-.045.243-.132.314-.191.4-.324.791-.412.628-1.029a8.653,8.653,0,0,0-.71-1.329,3.261,3.261,0,0,1-.35-1.375c-.014-.283-.153-.5-.164-.785a1.751,1.751,0,0,0-.188-.91,2.185,2.185,0,0,0-.394-.388c-.237-.16-.4-.061-.67-.106-.287-.047-.521-.275-.777-.331-.3-.065-.646-.114-.95-.148-.328-.036-.593-.149-.934-.156-.369-.007-.738,0-1.107,0h-2.041a3.4,3.4,0,0,1-1.77-.428c-.184-.108-.352-.315-.577-.366-.366-.083-.6.017-.95-.149V477.4h3.61c-.007-.362.412-.331.668-.588.168-.168.5-.416.749-.365a3.741,3.741,0,0,1,.75.521c.257.208.306.675.659.745h20.248a1.473,1.473,0,0,0-.781-1.181c-.489-.339-.773-.491-.789-1.173-.017-.754.47-1.154,1.021-1.653a3.654,3.654,0,0,1,.7-.5,2.853,2.853,0,0,1,.91-.231c.271-.057.419-.2.747-.049a1.111,1.111,0,0,1,.5.552c.245.442.108.809.231,1.27a3.091,3.091,0,0,1,.122.93,1.307,1.307,0,0,0,.156.851,3.428,3.428,0,0,1,.351.561c.231.493,1.161.628,1.664.444l.027-.13c.243.428,1.5-.623,1.727-.785a13.442,13.442,0,0,0,1.377-.973c.883-.838,1.581-1.9,2.392-2.8a11.211,11.211,0,0,1,1.249-1.531,9.087,9.087,0,0,1,.945-.541c.334-.2.523-.437.942-.443.643-.009,1,.9,1.1,1.416a10.015,10.015,0,0,0,.466,1.735c.229.543.65,1.011.911,1.568.235.5.5.916.781,1.417a2.659,2.659,0,0,1,.362.611,9.351,9.351,0,0,0,.11.95c.192.6.4,1.2.628,1.762a7.568,7.568,0,0,1,.317.907c.078.313-.011.63.07.942a4.116,4.116,0,0,1,.095,1.919c-.1.373-.431.7-.565,1.064-.092.251-.194.541-.272.785a1.476,1.476,0,0,0-.088.8c.122.3.83.146,1.143.146a4.152,4.152,0,0,0,1.846-.192c.235-.114.777-.231.918-.424A2.48,2.48,0,0,0-170.853,484.426Z" transform="translate(368.188 -304.72)" fill="#b52426"/>
      <path id="Trazado_22617" data-name="Trazado 22617" d="M-372.536,460.274l.166-.193a1.588,1.588,0,0,0,.1-.2,1.176,1.176,0,0,1,.467-.6,1.126,1.126,0,0,1,.531-.1,1.137,1.137,0,0,0,.138-.005,5.741,5.741,0,0,1,1.758-.628l.138-.017c.333-.039.352-.041.488-.256a3.112,3.112,0,0,0,.265-1.007c.028-.172.055-.336.087-.481a4.619,4.619,0,0,1,.855-2.11,1.457,1.457,0,0,1,1.382-.5c.092,0,.19.007.291.007a1.67,1.67,0,0,0,1.215-.523,1.925,1.925,0,0,0,.254-1.294l0-.167c-.007-.762-.264-.771-.47-.777a11.083,11.083,0,0,1-2.756-.521,1.88,1.88,0,0,1-1.507-1.711l-.011-.2a1.515,1.515,0,0,1,.414-1.413,2.862,2.862,0,0,1,.911-.382,3.7,3.7,0,0,0,.394-.128,2.011,2.011,0,0,0,.428-.3,1.9,1.9,0,0,1,.989-.511,1.471,1.471,0,0,1,1.344.592l.224.23a8.057,8.057,0,0,0,1.466,1.276l.1.065c.084.051.191.12.305.184a2.635,2.635,0,0,1,0-.492c0-.07.009-.136.008-.2a1.768,1.768,0,0,1,.124-.618.618.618,0,0,0,.061-.3c-.021-.1-.048-.2-.076-.295a1.609,1.609,0,0,1,.033-1.26l.07-.147c.1-.205.209-.441.31-.616a1.085,1.085,0,0,1,.77-.567,2.075,2.075,0,0,0,1.161-.823c.039-.059.016-.263-.581-.948l-.078-.09a2.3,2.3,0,0,1-.416-2.143,1.358,1.358,0,0,1,1.54-.914l.131-.005a1.468,1.468,0,0,1,.616.059,1.438,1.438,0,0,1,.473.313.587.587,0,0,0,.194.141c.11.019.137.008.337-.135.061-.043.126-.089.2-.133a1.318,1.318,0,0,1,.408-.156.69.69,0,0,0,.118-.034.866.866,0,0,1,.658-.39,3.3,3.3,0,0,1,.424-.025.975.975,0,0,0,.45-.068,1.4,1.4,0,0,0,.329-.242,3.433,3.433,0,0,1,.324-.264,1.8,1.8,0,0,1,.207-.121,3.026,3.026,0,0,0-.134-.532c-.031-.1-.059-.191-.076-.263-.174-.714-.5-2.044.727-2.512.443-.169.446-.215.459-.408a2.283,2.283,0,0,1,.377-1.153,1.181,1.181,0,0,0,.108-.4,2.074,2.074,0,0,1,.19-.665c.162-.314.162-.314.093-.577a11.522,11.522,0,0,1-.227-1.183,8.387,8.387,0,0,0-.277-1.323c-.243-.752.15-1.395,1.168-1.912a.783.783,0,0,0,.116-.067c-.033.026-.035-.037-.035-.106l0-1.167a4.592,4.592,0,0,1,.182-1.322,1.453,1.453,0,0,1,.728-.9l.108-.068a1.153,1.153,0,0,1,.575-.212,1.258,1.258,0,0,1,.278,0,1.673,1.673,0,0,0,.519-.42c.137-.323-.138-.745-.543-1.3a5.676,5.676,0,0,1-.41-.621,2.853,2.853,0,0,1-.426-1.517c0-.06-.007-.133-.013-.212-.032-.39-.087-1.044.45-1.286a2.251,2.251,0,0,1,1.177-.057,2.8,2.8,0,0,0,.5.034,1.069,1.069,0,0,0,.393-.178c.058-.035.118-.071.181-.106-.083-.057-.178-.118-.249-.162a2,2,0,0,1-.666-.561,1.279,1.279,0,0,1,.46-1.627.849.849,0,0,1,.907.049c.045-.168.1-.333.151-.5.064-.2.127-.395.166-.577a4.838,4.838,0,0,1,.22-.691,3.966,3.966,0,0,0,.17-.513,1.042,1.042,0,0,0,.019-.208,1.361,1.361,0,0,1,.161-.672.951.951,0,0,1,.251-.271.9.9,0,0,0,.1-.617l0-.176a1.118,1.118,0,0,0-.2-.664l-.091-.168a1.25,1.25,0,0,1-.053-1.351c.406-.587,1.254-.542,2-.5a3.494,3.494,0,0,0,.8-.007.445.445,0,0,0,.276-.157.307.307,0,0,0-.021-.221,1.692,1.692,0,0,0-.408-.488c-.108-.1-.213-.207-.3-.309a1.385,1.385,0,0,1-.305-.8.583.583,0,0,0-.08-.3,1.026,1.026,0,0,1-.436-.585,2.106,2.106,0,0,1-.019-.731c.007-.088.017-.173.016-.246a4.946,4.946,0,0,1,.363-1.851,2.267,2.267,0,0,0,.027-1.34,3.234,3.234,0,0,1,.219-2.292,2.418,2.418,0,0,1,.539-.548,2.691,2.691,0,0,0,.249-.217l.095-.1a1.362,1.362,0,0,1,.837-.513c.1-.017.2-.03.3-.041.348-.041.418-.061.515-.228a.669.669,0,0,0,.053-.229,2.5,2.5,0,0,1,.059-.307,2.456,2.456,0,0,1,.162-.392,1.037,1.037,0,0,0,.114-.292c0-.044-.007-.07-.078-.2a2.373,2.373,0,0,1-.141-.289,1.707,1.707,0,0,1-.074-.265.867.867,0,0,0-.031-.12c.009.025-.083.007-.144-.005a1.416,1.416,0,0,1-.5-.172,1.426,1.426,0,0,1-.379-.375.8.8,0,0,0-.1-.124.921.921,0,0,0-.126-.079.735.735,0,0,1-.407-.891,1.243,1.243,0,0,1,.71-.877,1.017,1.017,0,0,1,1.012.352,1.044,1.044,0,0,0,.206.164c.211-.114.462-1,.545-1.29.051-.177.095-.33.135-.437.079-.216.2-.543.29-.879a.964.964,0,0,1-.249.123,1.636,1.636,0,0,1-1.441-.234,1.166,1.166,0,0,1-.071-1.682c.039-.062.078-.122.113-.183.093-.168.194-.322.293-.472a2.511,2.511,0,0,0,.415-.829c.11-.493.031-.642.031-.643l-.409.009-.065-.375c-.013-.073-.019-.148-.026-.221,0-.029,0-.067-.008-.1a.792.792,0,0,1-.313-.139,1.038,1.038,0,0,1-.372-.938.983.983,0,0,0-.012-.241,2.27,2.27,0,0,0-.658-1.044,1.7,1.7,0,0,1-.238-1.664,2.929,2.929,0,0,0,.086-.465.289.289,0,0,0-.045-.165,1.431,1.431,0,0,1-.107-.3,2.9,2.9,0,0,1-.051-.355,1.868,1.868,0,0,0-.043-.283,2.383,2.383,0,0,1-.06-.43,1.3,1.3,0,0,0-.039-.283,1.578,1.578,0,0,0-.2-.27,2.781,2.781,0,0,1-.24-.322.7.7,0,0,0-.341-.344c-.038-.022-.086-.044-.135-.068a1.842,1.842,0,0,1-.46-.283,1.448,1.448,0,0,1,.127-1.936,1.686,1.686,0,0,1,.345-.317.832.832,0,0,0,.16-.136,2.451,2.451,0,0,0,.211-.624c.057-.292-.108-.551-.383-.951a2.09,2.09,0,0,1-.5-1.871,2.97,2.97,0,0,1,1.369-1.6,1.153,1.153,0,0,0,.551-.98,3.076,3.076,0,0,0-.019-.6l-.009.016-.1.185a1.909,1.909,0,0,0-.138.341,1.5,1.5,0,0,1-.718.969,1.1,1.1,0,0,1-.97.107.927.927,0,0,1-.519-.648,2.043,2.043,0,0,1-.049-.644,1.969,1.969,0,0,0,0-.259,2.088,2.088,0,0,0-.1-.432l-.055-.184a3.764,3.764,0,0,1-.122-.863,3.976,3.976,0,0,0-.049-.492c-.025-.143-.1-.575-.262-.692a.825.825,0,0,1-.493-.359,1.083,1.083,0,0,1-.1-.7.781.781,0,0,0,.009-.133,1.513,1.513,0,0,0-.335-.694,2.032,2.032,0,0,1-.281-.571,1.085,1.085,0,0,0-.133-.291,3.35,3.35,0,0,0-.672-.665,1,1,0,0,0-.55-.047,3.2,3.2,0,0,1-.56,0,1.315,1.315,0,0,1-1.182-1.244,1.544,1.544,0,0,1,0-.395.762.762,0,0,0,0-.167,1.568,1.568,0,0,0-.055-.174,1.606,1.606,0,0,1-.114-.495,4.952,4.952,0,0,1,.017-.625,2.862,2.862,0,0,0,0-.665,2.559,2.559,0,0,0-.255-.66c-.069-.141-.136-.281-.193-.424-.106-.264-.184-.531-.263-.8a4.676,4.676,0,0,0-.419-1.088c-.1-.172-.217-.334-.331-.5-.132-.186-.262-.372-.38-.57a2.686,2.686,0,0,1-.337-1.949,2.419,2.419,0,0,1,.291-.633,1,1,0,0,0,.191-.467,1.855,1.855,0,0,0-.012-.236c-.008-.1-.017-.2-.017-.309a1.22,1.22,0,0,1-.205.448,1.584,1.584,0,0,1-1.857.587c-.564-.213-.858-.283-.9.433-.015.249.02.5.007.749a1.563,1.563,0,0,1-.376.9,7.017,7.017,0,0,1-1.083,1.175c-.485.459-1.056.785-1.562,1.218-.173.148-.389.248-.561.4-.11.094-.216.284-.34.355-.656.377-1.015-.35-1.222-.864-.219-.543-.307-1.155-.981-1.268s-.859.283-1.027.865c-.229.79.349,1.052.678,1.688.094.183.307.666.164.88-.072.108-.487.153-.588.18a3.007,3.007,0,0,0-1.444.579,2.027,2.027,0,0,0-.429,1.854c.1.426.407.692.455,1.133a8.132,8.132,0,0,1,0,1.276c-.021.34-.531,1.216-.233,1.434.428.312,1.2-.415,1.645-.322.412.086.682.9.82,1.266.251.67-.036.791-.595,1.083-.2.1-.4.251-.082.464.071.047.235.023.321.057a5.169,5.169,0,0,1,.588.31c.313.187.626.468.914.682a1.533,1.533,0,0,1,.511.548c.2.451.026,1.228.579,1.406a2.43,2.43,0,0,0,.708.01c.23-.012.416-.173.628-.176.763-.013,1.108,1.157,1.216,1.727.32,1.681.477,3.782-.393,5.319-.158.28-.223.434-.588.34-.221-.057-.465-.454-.714-.444-.821.033.109,1.582.228,1.848a8.461,8.461,0,0,0,.443.965c.148.239.4.377.557.612a9.836,9.836,0,0,0,.507.914c.181.223.446.414.64.63s.134.356.141.662a1.089,1.089,0,0,0,.275.819,3.41,3.41,0,0,1,.491.625,4.151,4.151,0,0,1,.023,1.347,7.642,7.642,0,0,1-.012,1.2,4.534,4.534,0,0,1-.345.878,1.184,1.184,0,0,1-.334.561,1.334,1.334,0,0,1-1.213.365c-.57-.087-1.127-.454-1.714-.269-.617.194-1.174,1.153-.63,1.714.529.545,1.289-.177,1.776-.312.451-.125.6.186.71.588a4.514,4.514,0,0,1,.35,1.588c.425.9,0,1.539,0,2.512,0,.206.009.414,0,.619a5.026,5.026,0,0,1-.168.8,2.56,2.56,0,0,0,0,.628c.027.206.126.275.169.459.048.206-.029.422.027.636a1.99,1.99,0,0,1,.122.628c0,.418.159.692.156,1.134,0,.514,0,1.029,0,1.543a4.257,4.257,0,0,0,.012,1.314c.359.855,1.71-.115,1.563,1.111a5.773,5.773,0,0,1-1.416,2.344,15.15,15.15,0,0,0-1.259,2.521c-.394.816.015,1.748-.408,2.59-.253.5-.532.779-.531,1.335a1.406,1.406,0,0,0,.466,1.11,4.23,4.23,0,0,1,.432.7c.208.367.257.213.6.3.518.14.266.837.416,1.249.3-.065.239-.419.279-.65a6.431,6.431,0,0,1,.306-1.3,5.517,5.517,0,0,1,.636-1.175c.134-.173.4-.6.628-.641a1.3,1.3,0,0,1,1.075.636c.14.5-.574,1.384-.91,1.73-.35.362-.908,1.03-.76,1.573.169.625.837.492,1.22.271a3.853,3.853,0,0,1,1.577-.592,3.7,3.7,0,0,1,.788-.008.371.371,0,0,1,.284.161c.006.007.192.447.2.474.045.445-.674.646-.913.982a1.747,1.747,0,0,0-.083,1.569c.122.245.284.448.21.754-.08.332-.473.454-.752.624a4.046,4.046,0,0,0-.908.549c-.354.376-.537.952-.862,1.373a26.519,26.519,0,0,1-2.9,3.664c-.442.4-.966.742-1.375,1.156a3.969,3.969,0,0,0-.619.95c-.144.249-.413.4-.575.633a5.523,5.523,0,0,0-.345.623c-.192.385-.345.787-.537,1.173a8.586,8.586,0,0,1-.841,1.193c-.246.339-.523.631-.777.961-.395.513-.384,1.175-.7,1.7a8.9,8.9,0,0,1-.589.944,1.8,1.8,0,0,1-.865.463,4.69,4.69,0,0,1-2.234.324c-.975-.082-1.746-.4-2.563.375-.307.291-.333.432-.738.6a.947.947,0,0,1-.907-.078c-.638-.271-1.117-.915-1.8-1.07-.66-.149-.957.433-1.1.949a17.712,17.712,0,0,1-1.005,2.183,26.431,26.431,0,0,1-1.354,2.417,3.484,3.484,0,0,1-.51.866c-.246.24-.368.145-.43.5-.149.859.672.628,1.018,1.1.216.293-.048.341-.307.456a1.131,1.131,0,0,0-.668.56c-.243.458-.534,1.193-.2,1.621a3.618,3.618,0,0,0,.513.463,1.8,1.8,0,0,1,.412.612c.157.276.408.4.538.722.172.434.008.8.1,1.228.1.458.448,1.23-.291,1.219-.625-.009-1.343-.7-1.906-.924a6.811,6.811,0,0,0-1.53-.428.568.568,0,0,0-.625.31,4.39,4.39,0,0,0-.219.634,1.338,1.338,0,0,1-.566.641,12.926,12.926,0,0,0-1.451,1.645c-.415.431-.931,1.274-.48,1.887.293.4.933.525,1.35.738a7.983,7.983,0,0,1,1.14.418c.247.193.418.579.655.793.194.174.561.775.793.75.012-.047.023.376.035.329.22.074.552.573.75.771a3.6,3.6,0,0,0,1.247.944c.5.2,1.037.3,1.542.507a5.624,5.624,0,0,1,.973.628,2.468,2.468,0,0,0,.79.439,4.542,4.542,0,0,0,.753-.038l0,0A14.24,14.24,0,0,1-372.536,460.274Z" transform="translate(383.785 -277.794)" fill="#b52426"/>
      <path id="Trazado_22618" data-name="Trazado 22618" d="M-340.126,344.822a1.007,1.007,0,0,1,.575-.883c.317-.211.317-.211.436-.625.016-.056.03-.1.041-.134l-.043-.157a2.013,2.013,0,0,1-.053-.589c0-.126,0-.213-.007-.3a3.407,3.407,0,0,1,0-.549,1.627,1.627,0,0,1,.126-.434.94.94,0,0,0,.061-.178l.025-.177a1.146,1.146,0,0,1,.52-.927l.117-.087c.071-.052.146-.1.218-.157-.122-.378-.321-.767-.68-.853a2.669,2.669,0,0,0-.7.005c-.3.038-.682.3-.994.13-.154-.084-.212-.307-.3-.439-.158-.24-.346-.464-.508-.7-.217-.322-.475-.581-.672-.909-.221-.368-.511-.707-.754-1.067a2.56,2.56,0,0,1-.463-1.4c0-.345-.007-1.252-.406-1.406-.5-.192-.734.613-.854.932a6.345,6.345,0,0,0-.309,2.357c0,1.156-.084,2.111.785,2.979a7.7,7.7,0,0,1,.635.557,3.119,3.119,0,0,1,.263.895c.217.673.6,1.274.847,1.929a14.059,14.059,0,0,0,.648,1.332c.261.505.953.464,1.185.974a1.081,1.081,0,0,1,.068.465,1.26,1.26,0,0,1,.12-.258A1.292,1.292,0,0,0-340.126,344.822Z" transform="translate(370.837 -271.423)" fill="#b52426"/>
      <path id="Trazado_22619" data-name="Trazado 22619" d="M-347.885,452.389a.657.657,0,0,0,.221-.085,2.94,2.94,0,0,0,.505-.765,4.413,4.413,0,0,1,.519-.821,3.851,3.851,0,0,0,.472-.771c.1-.187.192-.372.3-.546a3.793,3.793,0,0,1,.59-.784,2.1,2.1,0,0,1,1.189-.406,2.66,2.66,0,0,0,.486-.09,21.939,21.939,0,0,0,2.3-.987,1.7,1.7,0,0,0,.721-.559,1.444,1.444,0,0,0,0-.44,3.176,3.176,0,0,1-.015-.422,2.256,2.256,0,0,1,.107-.535,1.514,1.514,0,0,0,.069-.315c.013-.19.007-.391,0-.588l-.014-.408a.83.83,0,0,1,.448-.931,1.644,1.644,0,0,1,1.294.166,1.95,1.95,0,0,0,.311.118,6.554,6.554,0,0,0,1.525.047c.265-.012.534-.018.781-.023a4.468,4.468,0,0,0,1.975-.446,6.688,6.688,0,0,0,.93-.626,6.823,6.823,0,0,1,.769-.509l.118-.072a1.842,1.842,0,0,0,.293-.252,2.354,2.354,0,0,1,.418-.35,1.768,1.768,0,0,1,.691-.2,1.6,1.6,0,0,0,.232-.042,3.329,3.329,0,0,0,.855-.473c.2-.134.393-.267.6-.378a2.187,2.187,0,0,1,1.2-.352,1.088,1.088,0,0,0,.615-.152,2.047,2.047,0,0,1,1.014-.339,1.888,1.888,0,0,0,.845-.567,1.122,1.122,0,0,0,.124-.206,1.788,1.788,0,0,1,.3-.442,3.019,3.019,0,0,1,.252-.225c.138-.114.213-.176.243-.266a.974.974,0,0,0,.006-.309,1.868,1.868,0,0,1,.029-.585,1.108,1.108,0,0,1,.769-.834l.157-.068a1.619,1.619,0,0,0,.655-.463.525.525,0,0,0,.061-.341,1.986,1.986,0,0,1,.061-.561l.117-.417.426.077a2.779,2.779,0,0,1,.739.295,3.519,3.519,0,0,0,.36.168,3.16,3.16,0,0,1,1.228.91l.17.177c.565.575.935.548,1.717-.115a3.761,3.761,0,0,0,.777-1.006c.066-.114.14-.233.217-.354a2.488,2.488,0,0,0,.44-.937,1.939,1.939,0,0,0-.154-.572c-.176-.482-.444-1.211.119-1.715a1.423,1.423,0,0,1,.533-.268,1.5,1.5,0,0,0,.187-.071l.145-.091a4.386,4.386,0,0,1,.575-.319,4.66,4.66,0,0,0,1.358-.8c.152-.144.3-.294.442-.444a7.194,7.194,0,0,1,1.026-.935,4.027,4.027,0,0,0,1.31-2.128,1.574,1.574,0,0,1,.648-.959l.188-.159a5.487,5.487,0,0,0,.557-.6l.074-.086a1.9,1.9,0,0,1,.571-.442,1.4,1.4,0,0,0,.248-.16,1.07,1.07,0,0,0,.209-.357c.039-.09.08-.179.126-.267l.067-.14c.231-.484.431-.865.742-1a.7.7,0,0,1,.622.015,3.414,3.414,0,0,0,.319-.672l.047-.124a6.159,6.159,0,0,1,1.276-2.087,2.217,2.217,0,0,0,.469-1.8,1.279,1.279,0,0,1,.365-1.474,1.453,1.453,0,0,1,1.139-.38,1.948,1.948,0,0,1,1.284.96,8.139,8.139,0,0,1,.46.793,5.3,5.3,0,0,0,.527.867,2.921,2.921,0,0,0,.665.541,3.99,3.99,0,0,0,.967.539,2.753,2.753,0,0,0,1.363-.164,3.115,3.115,0,0,1,1.944-.112c.734.276.728,1.077.725,1.461,0,.1,0,.194.011.295a3.045,3.045,0,0,1-.029.785,1.722,1.722,0,0,1-.325.662,1.188,1.188,0,0,0-.163.277,1.042,1.042,0,0,0,0,.785,1.923,1.923,0,0,0,.9.062,2.6,2.6,0,0,1,1.359.147,1.706,1.706,0,0,1,.616.57,1.11,1.11,0,0,0,.226.252,1.4,1.4,0,0,1,.1-.352l.075-.2a8.417,8.417,0,0,0,.476-3.322l0-.317a4.931,4.931,0,0,0-.513-2.277,1.9,1.9,0,0,0-.781-.548c-.136-.068-.267-.134-.388-.2-.1-.059-.219-.113-.335-.168-.493-.234-1.168-.553-1.2-1.333a5.279,5.279,0,0,1,.443-2.082c.091-.249.183-.5.255-.757a4.6,4.6,0,0,1,.815-1.592,1.066,1.066,0,0,0,.19-.812c0-.089,0-.177,0-.263.008-.293.008-.44-.1-.575a2.689,2.689,0,0,0-.539-.424c-.092-.063-.181-.122-.259-.179s-.172-.12-.259-.178a1.823,1.823,0,0,1-1.058-1.578,2.4,2.4,0,0,1,.1-.549,1.071,1.071,0,0,0,.061-.394,2.793,2.793,0,0,0-.11-.42c-.04-.128-.08-.257-.108-.382a5.238,5.238,0,0,1,.094-2.221c.054-.279.108-.561.139-.846a3.375,3.375,0,0,1,.134-.982c.012-.057.022-.108.03-.147l.008-.061c0-.015-.029-.074-.047-.114a1.5,1.5,0,0,1-.119-.357,2.906,2.906,0,0,1-.008-.658l.007-.116a2.757,2.757,0,0,1,.166-.764l.07-.224a6.359,6.359,0,0,0,.166-.955,8.366,8.366,0,0,1,.148-.92,3.362,3.362,0,0,1,.946-1.949,1.218,1.218,0,0,1,.893-.2l.125.007c.218,0,.327-.062.613-.285.072-.056.15-.116.233-.176a2.264,2.264,0,0,1,1.538-.382h.126c.066,0,.137,0,.21.011a1.651,1.651,0,0,0,.2.009.646.646,0,0,1,.168-.208c.068-.056.13-.1.187-.14a.534.534,0,0,0,.163-.143,1.974,1.974,0,0,0,.128-1.117c-.008-.146-.015-.289-.015-.42s.005-.258.012-.392a3.069,3.069,0,0,0-.031-.811,1.2,1.2,0,0,0-.1-.2,1.229,1.229,0,0,1-.207-.8c.124-.8,1.42-1.457,1.433-1.464.631-.3,1.26-.66,1.87-1.009.245-.14.489-.281.734-.418.156-.086.315-.166.474-.245.134-.068.269-.134.4-.207a1.58,1.58,0,0,0,.269-.208,2.638,2.638,0,0,1,.387-.3l.086-.053a1.18,1.18,0,0,1,1.063-.259.759.759,0,0,1,.448.566,3.354,3.354,0,0,1-.233,1.82l-.044.137a.842.842,0,0,0,0,.535c.017,0,.225-.043.881-.723.1-.106.193-.2.267-.265.269-.241.56-.47.85-.7.192-.15.384-.3.567-.454.112-.094.235-.188.362-.285a2.759,2.759,0,0,0,.953-1,3.574,3.574,0,0,0,.106-1.218,3.272,3.272,0,0,1,.347-1.909,3.357,3.357,0,0,0,.4-1.21,1.559,1.559,0,0,0-.142-.809,4.75,4.75,0,0,1-.16-.515c-.019-.078-.041-.156-.063-.233a1.462,1.462,0,0,1,.1-1.383c.084-.11.182-.216.281-.323a3.638,3.638,0,0,0,.263-.3,3.107,3.107,0,0,1,1.174-.9,1.253,1.253,0,0,1,1.584.454l.136.143a2.213,2.213,0,0,0,1.385.664,1.229,1.229,0,0,1,.125.033.763.763,0,0,0,.2-.248,1.635,1.635,0,0,0,.144-.543c.016-.1.032-.2.052-.3a7.835,7.835,0,0,1,.3-1l.1-.284c.033-.1.062-.2.091-.3a2.7,2.7,0,0,1,.614-1.232,1.436,1.436,0,0,1,.539-.359,3.56,3.56,0,0,0,.794-.517,19.381,19.381,0,0,0,1.528-1.366l.356-.342a5.727,5.727,0,0,0,.933-1.043,19.637,19.637,0,0,0,.993-1.732,2.642,2.642,0,0,0,.258-1.161,2.406,2.406,0,0,1,.31-.991,3.213,3.213,0,0,0,.157-.341l.124-.347a6.063,6.063,0,0,1,.571-1.288,3.955,3.955,0,0,0,.35-.847l.041-.124a.971.971,0,0,0-.126-1.1,4.731,4.731,0,0,1-.525-1.078,3.908,3.908,0,0,1-.107-.718,4.332,4.332,0,0,0-.061-.48,1.611,1.611,0,0,1,.245-1.468,2.334,2.334,0,0,1,.331-.287,1.681,1.681,0,0,0,.2-.166,3.668,3.668,0,0,0,.584-.887,6.6,6.6,0,0,1,.93-1.476c.119-.133.246-.255.373-.375a2.077,2.077,0,0,0,.592-.757,2.042,2.042,0,0,0,.076-.322,1.953,1.953,0,0,1,.272-.777.644.644,0,0,1,.261-.221c.008-.068.017-.17.023-.234.009-.1.018-.186.03-.253l.021-.124a3.184,3.184,0,0,0,.079-1.024c-.021-.091-.05-.12-.323-.253l-.115-.057a1.03,1.03,0,0,0-.36-.087,2.128,2.128,0,0,1-.511-.112.911.911,0,0,1-.574-1.044,1.985,1.985,0,0,1,.559-1.272,1.823,1.823,0,0,0,.269-.383,5.421,5.421,0,0,0-1.172.189,6.847,6.847,0,0,1-.992.186,1.865,1.865,0,0,0-.309.084,1.517,1.517,0,0,1-1.117.059,1.344,1.344,0,0,1-.648-1.233c-.007-.08-.015-.158-.027-.225-.043-.229-.065-.461-.088-.692a2.247,2.247,0,0,0-.452-1.42,3.32,3.32,0,0,0-1.549-.763l-.115-.035a6.147,6.147,0,0,1-.7-.271,4.3,4.3,0,0,0-.681-.255l-.335-.084-.024-.345a5.087,5.087,0,0,0-.288-1.231,5.629,5.629,0,0,1-.239-1.965c0-.16-.006-.323-.01-.488a4.981,4.981,0,0,1,.218-1.959,1.08,1.08,0,0,0-.2-.389c-.228-.238-.565-.378-.765-.663a1,1,0,0,1-.145-.706,8,8,0,0,1,.352-1.926,5.877,5.877,0,0,1,.271-.821c.126-.293.307-.452.321-.785a1.891,1.891,0,0,0-.278-1.26c-.226-.374-.535-.635-.513-1.095a.976.976,0,0,1,.474-.792c.227-.172.713-.234.628-.62a2.379,2.379,0,0,1,.043-1.256,3.472,3.472,0,0,0,.114-1.413,3.8,3.8,0,0,0,.007-.628c-.043-.237-.184-.317-.287-.507s-.111-.4-.227-.593a2.852,2.852,0,0,1-.435-.82,9.024,9.024,0,0,0-.467-1.221,5.757,5.757,0,0,0-1.111-1.416,10.914,10.914,0,0,0-.777-.9c-.281-.269-.631-.41-.9-.7a10.923,10.923,0,0,1-.831-1.059,7.7,7.7,0,0,1-.577-1.413,8.508,8.508,0,0,1-.988-2.829c-.039-.737.323-2.033-.4-2.49a2.468,2.468,0,0,0-1.323-.175c-.456,0-.73.162-1.177.157a2.643,2.643,0,0,1-.717.011c-.272-.124-.1-.382-.138-.639a1.106,1.106,0,0,0-1.026-.95,3.89,3.89,0,0,0-1.5.6c-.366.229-.622.758-1.091.666-.254.116-.807.347-.953.011a2.876,2.876,0,0,1,.011-.8,1.357,1.357,0,0,1,.114-.827,3.242,3.242,0,0,1,.47-.468,7.251,7.251,0,0,0,1.141-1.22c.341-.517.614-1.026.9-1.562a13.947,13.947,0,0,0,.667-1.5,8.707,8.707,0,0,1,.667-1.613,2.608,2.608,0,0,0,.275-1.6c0-.346-.034-.495.2-.746a1.508,1.508,0,0,1,.148-.156c.187-.145.44-.108.607-.224.322-.225.071-.422.024-.635-.032-.147.006-.3-.027-.444s-.139-.155-.173-.3a2.925,2.925,0,0,1,0-.8c.082-.369.336-.446.6-.659a1.664,1.664,0,0,0,.5-1.373c0-.35-.144-.6-.16-.942a2.814,2.814,0,0,0,.012-.479c-.032-.132-.14-.164-.173-.3a8.47,8.47,0,0,1,.008-1.731,12.865,12.865,0,0,1,.436-2.48c.084-.44-.007-.85.2-1.189a1.606,1.606,0,0,1-.315.08.994.994,0,0,0-.146.027.854.854,0,0,0-.166.094,2.037,2.037,0,0,1-.275.158,1.36,1.36,0,0,1-.387.1.7.7,0,0,0-.136.025.948.948,0,0,0-.169.123c-.062.051-.124.1-.191.148l-.184.124c-.16.107-.315.21-.47.332a2.18,2.18,0,0,0-.445.531,5.013,5.013,0,0,1-.312.428,2.237,2.237,0,0,0-.2.3,2.8,2.8,0,0,1-.3.447,2.955,2.955,0,0,1-.686.519l-.1.061a1.154,1.154,0,0,1-.478.16.7.7,0,0,0-.1.019c.007.017-.046.085-.132.156-.06.049-.133.1-.21.161a2.4,2.4,0,0,0-.341.282,2.535,2.535,0,0,0,.289.375c.066.077.13.151.186.223a4.1,4.1,0,0,1,.64,1.122l.043.12a3.109,3.109,0,0,1,.276,1.514,10.758,10.758,0,0,1-.292,1.309c-.088.333-.177.666-.237,1-.041.24-.072.489-.1.735l-.049.382c-.006.052-.012.088-.012.118l.1.11a2.425,2.425,0,0,1,.556,1.879c-.057.263-.137.532-.217.8-.051.175-.1.35-.148.523a1.816,1.816,0,0,1-.313.63,1.556,1.556,0,0,0-.138.218.718.718,0,0,0-.049.142,1.192,1.192,0,0,1-.329.589,2.75,2.75,0,0,1-1.062.6l-.144.049a1.677,1.677,0,0,0-.321.128.953.953,0,0,0-.184.256,1.862,1.862,0,0,1-.354.473c-.056.05-.107.092-.154.13a1.157,1.157,0,0,0-.1.088l-.021.241a2.408,2.408,0,0,1-.058.474,1.348,1.348,0,0,0,.017.617,3.561,3.561,0,0,1,.065.551,1.3,1.3,0,0,1-.567,1.313l-.234.176c-.152.117-.306.235-.467.339a1.914,1.914,0,0,0-.619.712l-.1.157a3.391,3.391,0,0,1-.3.385,1.715,1.715,0,0,0-.259.358c-.068.148-.128.3-.189.45-.069.174-.139.348-.218.518-.041.087-.088.172-.133.258a2.38,2.38,0,0,0-.164.341,1.676,1.676,0,0,0-.057.388,3.16,3.16,0,0,1-.057.44,4.772,4.772,0,0,0-.06,1.065l0,.308c0,.118.005.243.011.369a3.053,3.053,0,0,1-.2,1.521c-.095.189-.185.383-.275.578a9.832,9.832,0,0,1-.712,1.351,3.619,3.619,0,0,0-.356.627.779.779,0,0,1-.589.613l-.376.078-.155-.352c-.031-.069-.092-.1-.485-.11-.089,0-.2,0-.313-.011a1.513,1.513,0,0,0-.653.049.943.943,0,0,0-.108.122,1.855,1.855,0,0,1-.225.242,1.86,1.86,0,0,1-.236.166,1.029,1.029,0,0,0-.128.088.477.477,0,0,0-.057.081,1.316,1.316,0,0,1-.139.2.951.951,0,0,1-.358.257l-.255.195-.341-.129c-.446-.263-.372-.869-.328-1.231l.043-.415a4.108,4.108,0,0,0-.021-1.468l-.12-.461a7.021,7.021,0,0,1-.311-1.806c0-.153-.275-.335-.6-.4a1.561,1.561,0,0,0-.346,0,2.733,2.733,0,0,1-.485,0l-.141-.019c-.249-.034-.263-.027-.321.021a2.932,2.932,0,0,0-.847,1.668,1.978,1.978,0,0,0,0,.413,3.3,3.3,0,0,1,0,.52,1.6,1.6,0,0,1-.107.4.8.8,0,0,0-.051.162.567.567,0,0,1,.149.311,2.053,2.053,0,0,1,0,.7,1.155,1.155,0,0,1-.239.428.909.909,0,0,0-.077.108l-.073.162a2.132,2.132,0,0,1-.239.445,1.1,1.1,0,0,1-.48.411.64.64,0,0,1-.28.041.985.985,0,0,1-.206.166,3.153,3.153,0,0,1-.619.251,1.177,1.177,0,0,0-.575.3c-.09.1-.1.136-.023.491a5.049,5.049,0,0,1,.09,1.211,2.006,2.006,0,0,1-.557,1.366,3.3,3.3,0,0,1-.352.269c-.059.041-.118.081-.166.119l-.08.061c-.044.033-.075.055-.1.075l-.03.162a2.294,2.294,0,0,1-.164.349,1.277,1.277,0,0,0-.09.178,1.463,1.463,0,0,0-.045.161,1.269,1.269,0,0,1-.35.694,1.907,1.907,0,0,1-.552.24c-.11.031-.217.052-.322.072a1.27,1.27,0,0,0-.392.116,2.041,2.041,0,0,0-.256.18,3.006,3.006,0,0,1-.377.259.962.962,0,0,1-.269.1.589.589,0,0,1-.242.267,1.029,1.029,0,0,1-.553.1.537.537,0,0,0-.1,0,1.213,1.213,0,0,0-.237.3,2.057,2.057,0,0,0-.38,1.118c.011.113.042.155.167.314l.093.12a3.859,3.859,0,0,1,.678,1.515c.006.033.012.064.017.093a.674.674,0,0,1,.589.309,1.07,1.07,0,0,1,.058.921,5.419,5.419,0,0,1-.539,1.487c-.244.474-.527.93-.8,1.371a15.78,15.78,0,0,0-.887,1.552,3.474,3.474,0,0,0-.162.493,2.287,2.287,0,0,1-.766,1.385,1.425,1.425,0,0,1-1.562,0c-.074-.035-.15-.073-.233-.106a1.1,1.1,0,0,1-.691-.684,1.674,1.674,0,0,1,.454-1.376c.081-.116.16-.229.22-.337.114-.2.236-.4.358-.593a4.469,4.469,0,0,0,.692-1.463c.008-.043.008-.049-.026-.152a2.009,2.009,0,0,1-.076-.279,3,3,0,0,1-.026-.649l.007-.312c.006-.726-.044-.847-.386-.925a1.409,1.409,0,0,0-.954-.013c-.074.041-.136.084-.2.125a2.082,2.082,0,0,1-.574.3,2.289,2.289,0,0,0-.379.176,3.921,3.921,0,0,1-.416.2.825.825,0,0,1-1.033-.123.834.834,0,0,1-.186-.252.892.892,0,0,1-.181.017l-.134,0a3.825,3.825,0,0,1-1.171-.226,3.5,3.5,0,0,0-.8-.184,3.8,3.8,0,0,1-.8-.154,3,3,0,0,0-.679-.121,2.511,2.511,0,0,0-.835.152l-.138.041a3.439,3.439,0,0,1-1.111.09c-.108,0-.225-.006-.318-.006a4.561,4.561,0,0,1-1.161-.13,1.856,1.856,0,0,1-.627-.281,1.327,1.327,0,0,0-.274-.146c-.118-.043-.219.019-.5.225l-.158.116a1.538,1.538,0,0,1-1.188.425c-.644-.177-.783-1.109-.906-1.931-.024-.164-.043-.3-.064-.38l-.062-.24c-.064-.258-.184-.738-.338-.816l-.1-.048a2.453,2.453,0,0,1-.626-.4c-.051-.046-.1-.1-.153-.15l-.048-.049-.483-.04-.082-.194h0c-.131,0-.623.039-.816.055-.136.011-.256.02-.341.021-.3,0-.314.027-.333.065a.878.878,0,0,0-.056.224,1.265,1.265,0,0,1-.375.779,2.19,2.19,0,0,1-1.449.532,4.188,4.188,0,0,0-.458.058.732.732,0,0,0-.116.035.832.832,0,0,1-.827-.084.778.778,0,0,1-.228-.266.522.522,0,0,0-.3.059,2.941,2.941,0,0,0-.487.521,1.244,1.244,0,0,1-.134.145c.029-.012.034.026.039.064a1.236,1.236,0,0,1-.012.425.87.87,0,0,1-.119.268,1.237,1.237,0,0,1,0,.421,2.055,2.055,0,0,1-.367.877,2.363,2.363,0,0,1-.8.616,1.607,1.607,0,0,1-.271.081.584.584,0,0,0-.133.039,1.8,1.8,0,0,0-.221.186,2.828,2.828,0,0,1-.321.268,3.82,3.82,0,0,1-.367.215,1.89,1.89,0,0,0-.293.176,2.047,2.047,0,0,1-.394.215,1.241,1.241,0,0,0-.259.14c0,.006.01.1.013.156a1.383,1.383,0,0,1-.05.563,1.85,1.85,0,0,1-.222.423.786.786,0,0,0-.132.257c-.007.034-.023.125.166.333a2.024,2.024,0,0,0,.182.165,2.064,2.064,0,0,1,.4.412,2.161,2.161,0,0,1,.188.362,1.5,1.5,0,0,0,.083.175,4.031,4.031,0,0,0,.5.625,5,5,0,0,1,.593.744,2.479,2.479,0,0,1,.293.863l.033.16c.028.126.069.251.11.377a3.4,3.4,0,0,1,.181.782,5.687,5.687,0,0,0,.122.758,5.373,5.373,0,0,1,.149,1.194c0,.194.007.2.1.286a.974.974,0,0,0,.175.1,1.1,1.1,0,0,1,.667.712c.095.37.071,1.037-.4,1.25a1.04,1.04,0,0,1-.429.082,3.281,3.281,0,0,1-.809-.14c-.086-.023-.162-.043-.222-.054l-.1-.017a3.017,3.017,0,0,1-1.263-.435,2.029,2.029,0,0,1-.584-.811,5.46,5.46,0,0,0-.321-.558l-.136-.219a5.944,5.944,0,0,0-.538-.713c-.094-.112-.187-.226-.281-.344a1.492,1.492,0,0,0-.372-.358l0,.047a1.5,1.5,0,0,1-.207,1.066.837.837,0,0,1-.639.341,1.392,1.392,0,0,1-1.026-.632,2.05,2.05,0,0,0-.263-.263h0c-.013,0-.058,0-.1-.005a1.771,1.771,0,0,1-.27-.04c-.031-.009-.061-.019-.092-.03.025.031.056.068.077.094a1.922,1.922,0,0,1,.266.543,1.131,1.131,0,0,0,.148.318,2.46,2.46,0,0,1,.516,1.149,1.519,1.519,0,0,1-.007.343c0,.023,0,.051-.007.078a.936.936,0,0,1,.223.118,1.947,1.947,0,0,1,.634,1.29,4.94,4.94,0,0,1,.061.6,2.932,2.932,0,0,0,.088.657l.05.165a2.945,2.945,0,0,1,.139.632,2.849,2.849,0,0,1,0,.378,1.227,1.227,0,0,0,.017.354c-.055.019,0,.017.128-.047s.17-.162.259-.428a2.622,2.622,0,0,1,.219-.52l.082-.15c.167-.315.374-.708.778-.775a.7.7,0,0,1,.6.2,2.112,2.112,0,0,1,.442,1.645,2.079,2.079,0,0,1-.952,1.714c-.519.366-.862.609-1.006,1.093-.1.346.065.614.372,1.059a2.155,2.155,0,0,1,.532,1.676,3.183,3.183,0,0,1-.379,1.005,1.62,1.62,0,0,1-.357.333.924.924,0,0,0-.162.138c-.217.277-.293.594-.229.655a1.625,1.625,0,0,0,.226.122c.073.035.142.069.2.1a1.615,1.615,0,0,1,.678.674,1.8,1.8,0,0,0,.16.209,2,2,0,0,1,.353.543,1.915,1.915,0,0,1,.1.546,1.379,1.379,0,0,0,.031.257,2.715,2.715,0,0,1,.069.43,2.043,2.043,0,0,0,.034.248.6.6,0,0,0,.044.114,1.2,1.2,0,0,1,.128.61,3.753,3.753,0,0,1-.108.63c-.087.367-.14.636-.033.754a3.276,3.276,0,0,1,.924,1.5,1.776,1.776,0,0,1,.041.5,1.033,1.033,0,0,0,.005.175.5.5,0,0,1,.38.147.958.958,0,0,1,.289.582.881.881,0,0,1,.307.239,1.662,1.662,0,0,1,.16,1.447,3.338,3.338,0,0,1-.55,1.147c-.086.132-.176.266-.257.412-.043.077-.092.154-.141.233-.224.35-.215.358-.106.452a.755.755,0,0,0,.531.044,1.515,1.515,0,0,0,.21-.255,1.085,1.085,0,0,1,.906-.584l.333.023.091.321a4.411,4.411,0,0,1-.4,2.487c-.032.09-.069.219-.112.369-.249.88-.5,1.63-1.063,1.887a1.094,1.094,0,0,1-1.248-.323c-.028-.026-.063-.059-.095-.086l-.017.029a1.446,1.446,0,0,1,.151.1,1.488,1.488,0,0,1,.283.3.658.658,0,0,0,.124.14.987.987,0,0,0,.179.046,1.122,1.122,0,0,1,.7.355,1.12,1.12,0,0,1,.21.5.838.838,0,0,0,.031.119,1.465,1.465,0,0,0,.086.174,1.232,1.232,0,0,1,.2.714,1.708,1.708,0,0,1-.209.656,1.36,1.36,0,0,0-.1.231,1.228,1.228,0,0,0-.033.182,1.482,1.482,0,0,1-.172.569,1.418,1.418,0,0,1-1.228.7c-.078.009-.159.019-.243.033-.112.019-.145.048-.3.216l-.112.122a3.828,3.828,0,0,1-.334.3,1.653,1.653,0,0,0-.344.331,2.3,2.3,0,0,0-.086,1.556,3.267,3.267,0,0,1-.059,1.875,4.081,4.081,0,0,0-.307,1.525c0,.1-.009.216-.019.338a1.638,1.638,0,0,0-.009.4,1.186,1.186,0,0,1,.274.255,1.434,1.434,0,0,1,.268.763c.021.17.032.236.084.3.069.08.152.16.238.242a2.363,2.363,0,0,1,.639.843,1.185,1.185,0,0,1-.025.988,1.32,1.32,0,0,1-.872.638,3.617,3.617,0,0,1-1.1.038c-.319-.016-1.064-.057-1.165.09,0,0-.04.081.111.368l.085.157a2.013,2.013,0,0,1,.317,1.1l0,.158a1.828,1.828,0,0,1-.252,1.18.929.929,0,0,1-.216.219.428.428,0,0,0-.047.233,2.042,2.042,0,0,1-.043.384,5.048,5.048,0,0,1-.207.634,3.725,3.725,0,0,0-.179.553c-.045.211-.117.438-.191.669a3.8,3.8,0,0,0-.219.919l-.016.453-.453.006h-.011a1.318,1.318,0,0,1-.707-.271c-.035-.023-.079-.051-.118-.074a.4.4,0,0,0-.084.259,2.907,2.907,0,0,0,.361.249c.406.257.865.547.841,1.035a.886.886,0,0,1-.575.728c-.078.039-.15.083-.221.125a1.886,1.886,0,0,1-.765.3,3.123,3.123,0,0,1-.734-.033,3.43,3.43,0,0,0-.581-.039,3.3,3.3,0,0,0,.016.358c.009.112.017.216.017.3a1.935,1.935,0,0,0,.313,1.06,5.033,5.033,0,0,0,.343.511,2.319,2.319,0,0,1,.627,2.275,2.824,2.824,0,0,1-.9.869.953.953,0,0,1-.555.084c-.167.005-.167.005-.25.059l-.14.087c-.207.125-.259.2-.3.346a3.648,3.648,0,0,0-.145,1.053l0,1.153a.933.933,0,0,1-.6,1.041c-.811.412-.729.663-.694.771a9.27,9.27,0,0,1,.312,1.472,10.463,10.463,0,0,0,.206,1.085,1.411,1.411,0,0,1-.166,1.255,1.319,1.319,0,0,0-.1.381,2,2,0,0,1-.224.724,1.358,1.358,0,0,0-.251.738,1.355,1.355,0,0,1-1.068,1.234c-.343.131-.376.445-.143,1.4.014.057.036.128.06.206a1.954,1.954,0,0,1,.119,1.176.842.842,0,0,1-.462.484.761.761,0,0,0-.094.053,2.47,2.47,0,0,0-.237.195,2.226,2.226,0,0,1-.561.394,1.871,1.871,0,0,1-.841.156,2.468,2.468,0,0,0-.3.016,1.714,1.714,0,0,1-.241.225,1.187,1.187,0,0,1-.434.179.908.908,0,0,0-.132.039c-.053.033-.1.069-.15.1a1.278,1.278,0,0,1-1.057.3,1.318,1.318,0,0,1-.663-.37.781.781,0,0,0-.164-.128.884.884,0,0,0-.232,0c-.064,0-.126.007-.186.007-.538,0-.565.037-.636.257a1.373,1.373,0,0,0,.232,1.229l.074.086c.4.464,1.158,1.329.662,2.092A3.041,3.041,0,0,1-355.554,424a.634.634,0,0,0-.136.045.553.553,0,0,0-.052.079c-.09.155-.188.363-.273.545l-.072.151c-.088.182-.063.293.022.587.033.118.069.243.1.377a1.469,1.469,0,0,1-.1.793.892.892,0,0,0-.071.3c0,.084,0,.176-.011.269a1.216,1.216,0,0,0,.009.372.886.886,0,0,1,.319.723l-.019.3-.284.11a2.079,2.079,0,0,1-1.784-.454l-.1-.061a8.9,8.9,0,0,1-1.645-1.421l-.168-.171c-.345-.355-.4-.4-.615-.371a1.223,1.223,0,0,0-.495.3,2.722,2.722,0,0,1-.656.434,4.394,4.394,0,0,1-.5.166,2.449,2.449,0,0,0-.609.231c-.07.051-.043.456-.033.589.006.086.011.169.013.244.011.519.583.747.829.821a9.871,9.871,0,0,0,2.513.48c.513.017,1.375.263,1.389,1.72l0,.16a2.659,2.659,0,0,1-.517,1.965,2.6,2.6,0,0,1-1.892.817c-.118,0-.235,0-.344-.008-.389-.016-.475-.009-.6.142a3.726,3.726,0,0,0-.664,1.693c-.035.158-.057.3-.082.456a3.729,3.729,0,0,1-.4,1.363,1.355,1.355,0,0,1-1.183.7l-.128.015a4.979,4.979,0,0,0-1.463.539,1.214,1.214,0,0,1-.56.1h-.057c-.025.045-.055.108-.076.154a1.812,1.812,0,0,1-.241.41l-.168.2a13.772,13.772,0,0,0-.954,1.195h0a3.2,3.2,0,0,0,1.1.436c.332.083.493.015.776.224.353.26.409.561.668.871a9.89,9.89,0,0,1,1.5,1.922,1.143,1.143,0,0,0,1.138.785,4.385,4.385,0,0,1,.95-.008c.142.035.156.138.3.173a1.993,1.993,0,0,0,.758-.043,3.8,3.8,0,0,1,.976-.122,4.762,4.762,0,0,0,.942-.165,2.3,2.3,0,0,0,.945-.188,1.274,1.274,0,0,1,.942-.279,1.725,1.725,0,0,1,.746.358.681.681,0,0,1,.348.745,4.344,4.344,0,0,0-.007.95c.035.142.139.156.173.3.047.2-.039.436-.011.639.059.42.225.313.631.311a2.242,2.242,0,0,1,.91.032c.491.277.663,1.2.659,1.695,0,.628,0,1.256,0,1.883s-.106,1.29.625,1.538c.575.2,1.257-.356,1.765-.557a1.531,1.531,0,0,1,.872-.16l.345.117a2.134,2.134,0,0,0,.632.165c.042,0,.078.011.119.015.015-.013.029-.027.044-.039A1.5,1.5,0,0,1-347.885,452.389Z" transform="translate(378.317 -256.757)" fill="#d64626"/>
      <path id="Trazado_22620" data-name="Trazado 22620" d="M-149.58,576.083l-.029.167C-149.582,576.155-149.566,576.083-149.58,576.083Z" transform="translate(306.103 -352.074)" fill="#b52426"/>
      <path id="Trazado_22621" data-name="Trazado 22621" d="M-335.63,310.366c-.009.065-.017.138-.031.219a1.747,1.747,0,0,1-.119.381.914.914,0,0,0-.062.186,2.443,2.443,0,0,0,0,.389c.005.108.01.214.009.317a1.34,1.34,0,0,0,.02.377l.039.144a.706.706,0,0,1,0,.524l-.041.128a1.592,1.592,0,0,1-.824,1.157.912.912,0,0,0-.164.124c.007-.012.012.015.009.054a3.085,3.085,0,0,1-.053.368,1.084,1.084,0,0,1-.155.367.857.857,0,0,0-.024.376,3.025,3.025,0,0,1,.015.354,1.873,1.873,0,0,1-.324.914,1.642,1.642,0,0,0-.189.393,1.75,1.75,0,0,0,.236,1.22c.1.176.222.341.338.507.129.182.257.364.372.558a5.527,5.527,0,0,1,.514,1.306c.069.237.14.476.234.712.048.12.106.239.164.358a3.417,3.417,0,0,1,.339.916,3.71,3.71,0,0,1,.011.894,3.963,3.963,0,0,0-.017.508.69.69,0,0,0,.057.221,2.291,2.291,0,0,1,.089.289,1.45,1.45,0,0,1,.016.455.863.863,0,0,0,0,.161c.069.424.174.434.346.454a2.4,2.4,0,0,0,.4-.005,1.793,1.793,0,0,1,1.1.184c.028.017.059.045.089.065a1.42,1.42,0,0,1,.456-.217.944.944,0,0,1,.59.056.69.69,0,0,0,.177.035,1.675,1.675,0,0,1,.315.051,1.59,1.59,0,0,1,.67.525c.062.068.15.166.226.237a2.881,2.881,0,0,0-.009-.316,1.08,1.08,0,0,1,.3-1.032.938.938,0,0,1,.9-.008,2.245,2.245,0,0,1,.866.707c.087.111.175.217.263.323a6.774,6.774,0,0,1,.619.828l.128.205a6.015,6.015,0,0,1,.363.633,1.348,1.348,0,0,0,.305.481,2.442,2.442,0,0,0,.864.261l.1.018c.079.015.178.041.289.069a4.17,4.17,0,0,0,.488.106.549.549,0,0,0-.013-.142.983.983,0,0,0-.17-.1,1.8,1.8,0,0,1-.371-.23,1.175,1.175,0,0,1-.434-1.022,4.518,4.518,0,0,0-.13-.987,6.726,6.726,0,0,1-.14-.881,2.582,2.582,0,0,0-.138-.56c-.05-.154-.1-.309-.133-.464l-.037-.178a1.732,1.732,0,0,0-.171-.551,4.256,4.256,0,0,0-.487-.6,4.714,4.714,0,0,1-.616-.783,2.37,2.37,0,0,1-.136-.278,1.128,1.128,0,0,0-.1-.2,1.262,1.262,0,0,0-.227-.222,2.819,2.819,0,0,1-.271-.251,1.34,1.34,0,0,1-.4-1.149,1.6,1.6,0,0,1,.269-.6,1.064,1.064,0,0,0,.12-.212.878.878,0,0,0,0-.194,1.144,1.144,0,0,1,.138-.734,1.417,1.417,0,0,1,.665-.489,1.48,1.48,0,0,0,.213-.108,2.912,2.912,0,0,1,.422-.257,2.744,2.744,0,0,0,.274-.159,1.884,1.884,0,0,0,.212-.181,2.8,2.8,0,0,1,.336-.278,1.261,1.261,0,0,1,.456-.177.678.678,0,0,0,.106-.028,1.436,1.436,0,0,0,.434-.343,1.224,1.224,0,0,0,.174-.473,1.108,1.108,0,0,1-.01-.42.915.915,0,0,1,.131-.306.891.891,0,0,0-.007-.095,1.191,1.191,0,0,1,.019-.446.766.766,0,0,1,.234-.4,4.169,4.169,0,0,1,.712-.741,1.382,1.382,0,0,1,1.413-.09.714.714,0,0,1,.231.236,1.737,1.737,0,0,1,.207-.057,5.137,5.137,0,0,1,.559-.073,1.323,1.323,0,0,0,.884-.278c.049-.047.061-.089.089-.251a1.74,1.74,0,0,1,.136-.469,1.172,1.172,0,0,1,1.181-.607c.07,0,.165-.009.275-.017a3.639,3.639,0,0,1,1.211.033v-.016a1,1,0,0,1,.251.02l.118.033a1.612,1.612,0,0,1,.611.44l.114.114a1.622,1.622,0,0,0,.4.245l.106.052a2.02,2.02,0,0,1,.834,1.435l.056.215a4.773,4.773,0,0,1,.089.494,5.865,5.865,0,0,0,.241,1.1,3.312,3.312,0,0,0,.336-.214l.166-.121a1.436,1.436,0,0,1,1.373-.362,2.217,2.217,0,0,1,.472.241,1.011,1.011,0,0,0,.324.158,4.243,4.243,0,0,0,.95.107c.116,0,.236,0,.354.007a2.653,2.653,0,0,0,.813-.051l.134-.04a3.41,3.41,0,0,1,1.108-.192h.021a3.4,3.4,0,0,1,.91.154,2.925,2.925,0,0,0,.606.122,4.316,4.316,0,0,1,1.03.226,3.317,3.317,0,0,0,.875.183l.1,0a1.242,1.242,0,0,1,.788.157.8.8,0,0,1,.257.287l.055-.022a2.808,2.808,0,0,0,.315-.153,3.21,3.21,0,0,1,.537-.242,1.2,1.2,0,0,0,.329-.179c.079-.053.16-.108.257-.163a2.22,2.22,0,0,1,1.637-.09c1.139.258,1.132,1.222,1.126,1.86l-.006.339a2.208,2.208,0,0,0,.01.442,1.048,1.048,0,0,0,.042.15,1.129,1.129,0,0,1,.056.637,5.248,5.248,0,0,1-.818,1.783c-.114.182-.228.364-.333.553-.074.132-.17.272-.269.414a2.1,2.1,0,0,0-.321.569c.009,0,.047.032.142.071s.188.084.277.126c.364.175.436.194.632.065.162-.106.283-.534.371-.847a4.368,4.368,0,0,1,.217-.64,16.327,16.327,0,0,1,.94-1.649c.266-.429.535-.858.764-1.3a4.277,4.277,0,0,0,.432-1.162l.032-.132c0-.013.007-.029.012-.047a.735.735,0,0,1-.182-.051.756.756,0,0,1-.492-.692.816.816,0,0,0-.013-.1,2.882,2.882,0,0,0-.507-1.139l-.08-.1a1.418,1.418,0,0,1-.367-.81,2.876,2.876,0,0,1,.491-1.669,1.533,1.533,0,0,1,.815-.763,1.151,1.151,0,0,1,.384-.035.571.571,0,0,1,.094-.116.891.891,0,0,1,.45-.225,1.353,1.353,0,0,0,.295-.188,3.066,3.066,0,0,1,.37-.256,2.113,2.113,0,0,1,.678-.221c.079-.015.16-.03.243-.053.021-.007.114-.038.188-.066.016-.046.035-.124.047-.175a2.19,2.19,0,0,1,.078-.271,2.247,2.247,0,0,1,.15-.307,1.261,1.261,0,0,0,.094-.19l.042-.13a.892.892,0,0,1,.41-.559l.076-.058c.06-.047.132-.1.205-.148a2.339,2.339,0,0,0,.245-.182,1.081,1.081,0,0,0,.255-.7,4,4,0,0,0-.061-.944,1.367,1.367,0,0,1,.247-1.377,2.034,2.034,0,0,1,.985-.561,2.294,2.294,0,0,0,.441-.174.826.826,0,0,1,.333-.251.746.746,0,0,1,.288-.041l.042-.056a1.21,1.21,0,0,0,.134-.261l.085-.189a1.514,1.514,0,0,1,.189-.29,1.151,1.151,0,0,0,.076-.1c0-.021-.009-.2-.019-.261a.725.725,0,0,1-.153-.333,1.205,1.205,0,0,1,.1-.648.937.937,0,0,0,.051-.162,2.15,2.15,0,0,0-.007-.365,2.744,2.744,0,0,1,.009-.625,3.858,3.858,0,0,1,1.186-2.256,1.237,1.237,0,0,1,1.055-.225l.12.016a1.766,1.766,0,0,0,.313,0,2.285,2.285,0,0,1,.588.017A1.515,1.515,0,0,1-287,300.281a6.093,6.093,0,0,0,.279,1.571l.124.479a4.909,4.909,0,0,1,.045,1.793l-.013.133c.045-.031.088-.058.126-.082a.974.974,0,0,0,.121-.081.829.829,0,0,0,.1-.117,1.52,1.52,0,0,1,.293-.3,1.933,1.933,0,0,1,1.258-.226c.09.006.181.011.253.009a2.022,2.022,0,0,1,.837.138,5.463,5.463,0,0,1,.343-.569,8.98,8.98,0,0,0,.641-1.223c.094-.2.188-.408.287-.606a2.377,2.377,0,0,0,.1-1.053c-.007-.141-.012-.279-.012-.41l0-.295a5.567,5.567,0,0,1,.082-1.28,2.392,2.392,0,0,0,.037-.314,2.457,2.457,0,0,1,.107-.622,3.409,3.409,0,0,1,.225-.481c.038-.071.076-.141.11-.212.071-.152.133-.309.2-.466s.134-.334.208-.5a2.521,2.521,0,0,1,.4-.576,2.456,2.456,0,0,0,.215-.275l.093-.15a2.806,2.806,0,0,1,.909-1.008c.141-.092.275-.2.408-.3l.254-.191c.184-.133.184-.133.174-.522a2.617,2.617,0,0,0-.051-.406,2.267,2.267,0,0,1-.006-1.006,1.418,1.418,0,0,0,.033-.3c0-.07.007-.142.014-.221a1.047,1.047,0,0,1,.456-.8l.117-.1a1.186,1.186,0,0,0,.172-.25,1.689,1.689,0,0,1,.441-.541,2.133,2.133,0,0,1,.586-.264l.12-.041a1.867,1.867,0,0,0,.714-.376c.051-.049.055-.068.083-.167a1.634,1.634,0,0,1,.119-.322,2.783,2.783,0,0,1,.209-.333.92.92,0,0,0,.169-.321c.046-.182.1-.368.157-.554.072-.247.146-.494.2-.736a1.644,1.644,0,0,0-.424-1.153l-.069-.108a.905.905,0,0,1-.16-.765l.045-.369c.031-.263.064-.529.11-.786.064-.362.159-.72.255-1.08a10.28,10.28,0,0,0,.269-1.195,2.384,2.384,0,0,0-.227-1.054l-.045-.125a3.139,3.139,0,0,0-.494-.859c-.047-.061-.1-.122-.156-.186a2.528,2.528,0,0,1-.489-.721c-.245-.634.367-1.084.7-1.326.06-.044.117-.086.162-.124a.865.865,0,0,1,.468-.338,1.654,1.654,0,0,1,.241-.051.273.273,0,0,0,.112-.025l.111-.068a2.317,2.317,0,0,0,.463-.331,1.916,1.916,0,0,0,.2-.3,3.19,3.19,0,0,1,.285-.429c.1-.119.178-.237.257-.353a3.052,3.052,0,0,1,.642-.743c.176-.14.35-.257.533-.379l.175-.118c.043-.029.083-.063.123-.1a1.69,1.69,0,0,1,.378-.254,1.357,1.357,0,0,1,.4-.1.885.885,0,0,0,.128-.023,1.117,1.117,0,0,0,.146-.086,1.729,1.729,0,0,1,.36-.192,1.739,1.739,0,0,1,.3-.069.806.806,0,0,0-.043-.1.954.954,0,0,1,.088-1.163,2.633,2.633,0,0,1,.42-.46,2.394,2.394,0,0,0,.226-.226,3.526,3.526,0,0,1,.694-.619,2.177,2.177,0,0,0,.847-.988,1.1,1.1,0,0,0,.064-.286,2.575,2.575,0,0,1,.057-.313,1.346,1.346,0,0,1,.158-.353.663.663,0,0,0,.057-.1,1.7,1.7,0,0,0,.068-.307,2.237,2.237,0,0,1,.172-.62,2.09,2.09,0,0,1,.68-.7c.065-.049.127-.095.18-.139.09-.076.184-.146.277-.215a2.624,2.624,0,0,0,.352-.291c.084-.087.146-.167.206-.241a2.1,2.1,0,0,1,.574-.537c.2-.122.277-.232.283-.289l.035-.325.275-.074a2.938,2.938,0,0,1,.238-.507.873.873,0,0,0,.11-.26l.07-.231a2.617,2.617,0,0,1,.514-1.061,2.058,2.058,0,0,1,1.072-.586,2.808,2.808,0,0,0,.392-.132,2.45,2.45,0,0,1,1.539-.1,1.121,1.121,0,0,1,.4.291.654.654,0,0,0,.1.092,1.449,1.449,0,0,0,.394.132,1.489,1.489,0,0,0,.261,0c.11-.006.22-.01.329-.006a1.15,1.15,0,0,1,.458.12.494.494,0,0,0,.1.038c.011,0,.073-.008.114-.014a1.857,1.857,0,0,1,.263-.015,1.267,1.267,0,0,0,.082-.1c.088-.144.1-.3.179-.428a3.981,3.981,0,0,0,.567-1.137c.171-.678.158-1.381.313-2.053a3.6,3.6,0,0,1,.15-.781,4.791,4.791,0,0,1,.671-1.1,9.171,9.171,0,0,1,3.923-2.477,8.354,8.354,0,0,1,.942-.226c.253-.063.536-.08.785-.154.586-.174,1.186-.567,1.761-.718.249-.066.5-.008.75-.071.308-.077.629-.217.937-.313a3.714,3.714,0,0,0,1.535-.946c.646-.64.724-1.689,1.6-2.159.565-.3,1.216-.341,1.7-.829.64-.642.058-.94-.251-1.53-.116-.22-.075-.35-.3-.51s-.394-.178-.553-.42c-.385-.588-.476-1.4-.982-1.9-.876-.861-2.155-.746-3.218-1.207a8.434,8.434,0,0,1-1.735-.95,2.832,2.832,0,0,0-2.166-.509c-.944.061-.563.809-1,1.381-.376.491-.96.353-1.534.35-.335,0-.754-.083-.918.311a2.155,2.155,0,0,0-.027.792.9.9,0,0,0,.436.668c.2.16.633.341.681.58.119.6-1.513.806-1.87.6-.221-.127-.162-.359-.221-.561-.122-.428-.311-.493-.741-.5a2.572,2.572,0,0,0-.98.114,5.092,5.092,0,0,1-1.065.361c-.4.038-.678-.023-.8.456a1.981,1.981,0,0,0,.29,1.462,1.7,1.7,0,0,1,.18,1.217c-.072.149-.332.254-.459.349a1.7,1.7,0,0,0-.509.588c-.28.448-.632.842-.9,1.3a3.487,3.487,0,0,1-.97,1.222,14.835,14.835,0,0,1-3.124,1.572,3.775,3.775,0,0,1-1.248.142,4,4,0,0,0-1.481.715,8.8,8.8,0,0,0-2.279,2.4,3.538,3.538,0,0,1-1.383.94c-.491.213-.468.145-.962.028a1.882,1.882,0,0,0-1.455.319,7.612,7.612,0,0,0-1.428.907c-.4.386-.712.865-1.137,1.228a3.03,3.03,0,0,1-1.006.493,11.752,11.752,0,0,1-4.006.513,10.775,10.775,0,0,1-1.165-.164,14.478,14.478,0,0,1-2.1-.106,8.59,8.59,0,0,0-2.244-.357,3.513,3.513,0,0,1-1.341-.274,3.59,3.59,0,0,0-1.716-.208,2.223,2.223,0,0,0-.939.789,2.727,2.727,0,0,0-.634,1.35c-.014.363.158.682.171,1.051a9.558,9.558,0,0,1,.008,1.166,9.219,9.219,0,0,1-.762,2.2,2.714,2.714,0,0,1-.862,1.466,3.87,3.87,0,0,1-1.24.774c-.3.1-1.106.482-1.4.294-.158-.1-.187-.349-.29-.494-.154-.217-.333-.233-.49-.416a1.592,1.592,0,0,1,.16-1.566,2.748,2.748,0,0,1,.827-.533c.594-.249,1.661-.157,2.009-.735.62-1.029-.638-1-1.381-.953-.451.029-.807.168-1.271.164a18.52,18.52,0,0,1-2.057.009,11.728,11.728,0,0,0-1.432-.161c-.69,0-.525-.218-.853-.7-.269-.4-1.092-.295-1.517-.22a4.781,4.781,0,0,0-2.306,1.556,10.835,10.835,0,0,0-.771,1.251c-.123.2-.277.415-.388.617-.146.265-.111.6-.36.8-.362.3-.945.153-1.335.456a1.866,1.866,0,0,0-.5.827,3.792,3.792,0,0,1-.593,1.067,1.017,1.017,0,0,1-.533.421c-.561.231-1.037.756-1.652.824-.431.047-.621.005-.792.459a3.16,3.16,0,0,0-.329,1.277c.04.222.225.272.3.461a3.265,3.265,0,0,1,.06.676,2.377,2.377,0,0,1,.028,1.49c-.158.329-.517.42-.714.706-.17.247-.09.463-.162.734-.062.233-.2.435-.258.674-.078.351,0,.706-.057,1.059-.22,1.364-.833,2.636-1.105,3.967a5.772,5.772,0,0,1-.771,2.316c-.227.317-.635.465-.882.789-.156.2-.515.468-.5.758a2.955,2.955,0,0,0,.768.035c.412-.017.708-.263,1.09-.306.342-.038.744.28,1.024.45.912.555.108,1.772-.254,2.474-.331.644-.9,1.429-1.7,1.464a5.1,5.1,0,0,1-1.411-.368,1.912,1.912,0,0,0-1.719.2c-.356-.466-.764-.192-1.1.039-.236.164-.46.347-.706.492a3.479,3.479,0,0,0-.791.485,7.444,7.444,0,0,0-1.014,1.116c-.138.219-.215.471-.349.692s-.361.386-.44.62c-.155.456-.126.958-.272,1.421a6.55,6.55,0,0,1-.509,1.1c-.206.395-.128.717-.471,1.064-.268.271-.589.412-.875.659a6.694,6.694,0,0,1-1.164.706c-.511.284-1.016.591-1.532.867a12.049,12.049,0,0,0-3.021,2.04,5.467,5.467,0,0,1-1.413,1.216c-.42.2-.759.466-1.176.669a3.312,3.312,0,0,1-1.415.154c-.488.023-.752.374-.438.829.132.191.315.277.441.5.14.256.172.4.391.555a2.129,2.129,0,0,0,1.255.154c.515,0,1.049-.153,1.224.471a3.877,3.877,0,0,1-.09,1.691,5.553,5.553,0,0,0,.165,2.86,2.8,2.8,0,0,1-.506,2.673c-.122.114-.275.131-.388.244s-.13.265-.244.388a1.268,1.268,0,0,1-.467.313c-.632.17-1.068-.345-1.385-.8-.3-.424-.179-.586.182-.938s.515-.454.217-.93a2.523,2.523,0,0,0-.68-.7c-.13-.1-.412-.185-.508-.278a1.967,1.967,0,0,1-.184-.432c-.047-.1-.082-.172-.12-.253l-.072.053C-335.607,310.177-335.607,310.177-335.63,310.366Z" transform="translate(368.45 -240.878)" fill="#b52426"/>
      <path id="Trazado_22622" data-name="Trazado 22622" d="M-225.779,272.542c-.074,0-.149,0-.225.005a2.481,2.481,0,0,1-.423,0,2.287,2.287,0,0,1-.688-.215,1.259,1.259,0,0,1-.381-.291.735.735,0,0,0-.079-.075,1.772,1.772,0,0,0-.778.088,3.949,3.949,0,0,1-.524.182,1.27,1.27,0,0,0-.615.289,1.729,1.729,0,0,0-.324.712l-.061.2a1.894,1.894,0,0,1-.209.5,1.685,1.685,0,0,0-.211.519l-.062.316-.255.048a1.606,1.606,0,0,1-.629.646,1.207,1.207,0,0,0-.331.323c-.074.092-.154.19-.257.3a3.455,3.455,0,0,1-.475.4c-.077.057-.155.115-.231.178s-.142.112-.222.172a1.8,1.8,0,0,0-.394.351,1.477,1.477,0,0,0-.089.363,2.634,2.634,0,0,1-.116.481,1.627,1.627,0,0,1-.126.253.715.715,0,0,0-.057.11,1.639,1.639,0,0,0-.036.206,1.9,1.9,0,0,1-.136.54,3.1,3.1,0,0,1-1.173,1.384,2.575,2.575,0,0,0-.5.441,3.1,3.1,0,0,1-.315.321,1.863,1.863,0,0,0-.275.291c-.015.023-.053.079-.076.118a.742.742,0,0,1,.048.092,1.126,1.126,0,0,1,.086,1.023c.585-.372,1.2-.684,1.786-1.076.527-.354,1.34-.641,1.417-1.33a5.922,5.922,0,0,1,.51-1.731,10.042,10.042,0,0,1,2.155-3.457,16.879,16.879,0,0,1,3.453-2.08,7.417,7.417,0,0,0,.946-.459c.025-.019.05-.051.076-.074-.027-.011-.064-.021-.09-.033A.231.231,0,0,0-225.779,272.542Z" transform="translate(334.78 -251.185)" fill="#b52426"/>
      <path id="Trazado_22623" data-name="Trazado 22623" d="M-235.1,363.813c.006.175.011.348.011.518a4.734,4.734,0,0,0,.19,1.659,6.981,6.981,0,0,1,.3,1.14c.179.064.347.137.511.209a5.436,5.436,0,0,0,.591.232l.114.034a4.141,4.141,0,0,1,1.973,1.028,3.088,3.088,0,0,1,.7,1.974c.02.2.039.408.076.61.018.092.029.2.039.305a1.279,1.279,0,0,0,.1.462,1.386,1.386,0,0,0,.428-.1,2.324,2.324,0,0,1,.527-.128,5.932,5.932,0,0,0,.847-.163,3.9,3.9,0,0,1,2.011-.124l.253.079.066.256a1.6,1.6,0,0,1-.473,1.514,1.1,1.1,0,0,0-.338.622c0,.095-.008.164-.009.21a1.369,1.369,0,0,0,.256.047,1.914,1.914,0,0,1,.672.182l.1.05a1.308,1.308,0,0,1,.832.887,3.705,3.705,0,0,1-.067,1.414l-.021.119c-.007.047-.012.108-.019.174a1.736,1.736,0,0,1-.155.686.7.7,0,0,1-.324.284,1.548,1.548,0,0,0-.09.348,2.823,2.823,0,0,1-.115.47,2.892,2.892,0,0,1-.832,1.127c-.109.1-.219.207-.321.321a5.661,5.661,0,0,0-.787,1.268,4.521,4.521,0,0,1-.747,1.116,2.547,2.547,0,0,1-.317.269,1.371,1.371,0,0,0-.2.168c-.087.095-.09.271-.016.631a4.906,4.906,0,0,1,.077.594,3.148,3.148,0,0,0,.078.553,4.021,4.021,0,0,0,.408.811,1.9,1.9,0,0,1,.229,1.909l-.04.122a4.8,4.8,0,0,1-.44,1.044,5.233,5.233,0,0,0-.487,1.109l-.128.359a4.061,4.061,0,0,1-.2.445,1.533,1.533,0,0,0-.2.543,3.737,3.737,0,0,1-.369,1.614,20.16,20.16,0,0,1-1.042,1.818,6.537,6.537,0,0,1-1.073,1.211l-.353.339a20.006,20.006,0,0,1-1.545,1.385,4.611,4.611,0,0,1-1.031.672.61.61,0,0,0-.275.174,1.952,1.952,0,0,0-.37.823c-.033.114-.067.229-.1.338l-.1.295a6.978,6.978,0,0,0-.267.877c-.018.084-.03.166-.043.249a2.44,2.44,0,0,1-.257.865,1.6,1.6,0,0,1-.605.64.663.663,0,0,1-.726.042,3.16,3.16,0,0,1-1.885-.933l-.153-.16c-.305-.325-.317-.32-.509-.235a2.148,2.148,0,0,0-.791.6,4.707,4.707,0,0,1-.329.385c-.08.086-.159.171-.229.26s-.014.265.064.539c.026.092.052.184.073.276a4.3,4.3,0,0,0,.131.414,2.389,2.389,0,0,1,.182,1.294,4.214,4.214,0,0,1-.538,1.555,2.582,2.582,0,0,0-.2,1.379,4.325,4.325,0,0,1-.161,1.558,3.408,3.408,0,0,1-1.27,1.431c-.116.088-.229.174-.33.259-.192.161-.392.317-.591.474-.274.214-.548.428-.8.656-.061.055-.134.132-.218.219-.472.488-1.188,1.226-1.945.926-.655-.259-.7-1.145-.524-1.691l.047-.142a3.5,3.5,0,0,0,.237-1.089c-.039.023-.076.047-.1.065l-.1.061a1.8,1.8,0,0,0-.251.2,2.464,2.464,0,0,1-.441.329c-.14.078-.286.151-.433.224s-.291.145-.434.225c-.243.136-.484.274-.725.412-.626.359-1.271.73-1.936,1.044a2.369,2.369,0,0,0-.9.756c.008.017.064.12.1.187a1.813,1.813,0,0,1,.188.432,3.818,3.818,0,0,1,.059,1.084c-.006.119-.011.236-.011.347s.007.24.015.37a2.643,2.643,0,0,1-.3,1.721,1.428,1.428,0,0,1-.4.373l-.07.049a.682.682,0,0,1-.357.375,1.457,1.457,0,0,1-.735.08l-.278-.009a1.38,1.38,0,0,0-.97.2l-.2.156a1.659,1.659,0,0,1-1.232.485l-.16-.009a.612.612,0,0,0-.254.009c-.094.072-.342.352-.593,1.407a7.671,7.671,0,0,0-.129.816,6.906,6.906,0,0,1-.2,1.1c-.025.09-.053.174-.08.257a1.97,1.97,0,0,0-.122.516l-.007.129a2.322,2.322,0,0,0,0,.435.741.741,0,0,0,.051.134,1.115,1.115,0,0,1,.121.616h-.006a2.181,2.181,0,0,1-.044.285c-.017.081-.045.214-.069.343l-.039.43a10.4,10.4,0,0,1-.162,1.041c-.007.036-.013.071-.019.107a1.406,1.406,0,0,1,.722-.15,3.508,3.508,0,0,1,.867.1,2.526,2.526,0,0,0,.295.047,2.633,2.633,0,0,1,.6.13,1.516,1.516,0,0,1,.779.666l.071.1a4.66,4.66,0,0,0,.61.65l.263.252a10.09,10.09,0,0,1,.866.932,3.313,3.313,0,0,1,.516.978,2.3,2.3,0,0,0,.887,1.22,6.172,6.172,0,0,1,1.375,1.412,6.785,6.785,0,0,1,.994,2.219c.031.15.071.3.111.452.058.224.116.448.154.67a1.8,1.8,0,0,1,0,.47c.093,0,.191-.008.29-.014.144-.008.287-.017.42-.013a2.635,2.635,0,0,1,1.2.347l.169.082a3.932,3.932,0,0,0,.475.179,3.55,3.55,0,0,1,.853.374,6.909,6.909,0,0,0,.892.521.737.737,0,0,1,.309.039.6.6,0,0,1,.4.309l0,0a1.081,1.081,0,0,0,.334-.062,2.788,2.788,0,0,1,.414-.1c.127-.019.249-.044.37-.069a3.984,3.984,0,0,1,.793-.108c.1,0,.214,0,.326.009a1.948,1.948,0,0,0,.484-.011.98.98,0,0,1,.341-.158,1.376,1.376,0,0,1,.368-.026.732.732,0,0,0,.14,0,1.841,1.841,0,0,0,.484-.265c.107-.072.215-.142.324-.2.138-.078.277-.144.414-.21.5-.241.679-.341.7-.7.008-.205,0-.4,0-.6a3.577,3.577,0,0,1,.393-2.044,5.3,5.3,0,0,1,.924-1.051,1.974,1.974,0,0,1,1.287-.473l1.308.025-1.02.821a2.655,2.655,0,0,0,.114.778,1.261,1.261,0,0,0,.394.192l.192.075a3.007,3.007,0,0,1,.69.4c.109.08.219.166.33.254a3.72,3.72,0,0,0,.68.464,1.9,1.9,0,0,0,.861-.38c.281-.205.561-.4.844-.591l.314-.215c.131-.091.263-.188.4-.288a5.386,5.386,0,0,1,1.731-.966,3.245,3.245,0,0,1,1.873.164c.166.056.321.092.468.128a3.276,3.276,0,0,1,1.06.4,2.56,2.56,0,0,1,.462.387c.227.227.248.23.39.194a1.594,1.594,0,0,0,.287-.118,2.111,2.111,0,0,1,.543-.2,1.6,1.6,0,0,1,.8.088c.062.019.126.039.191.054a.4.4,0,0,0,.278-.028c.057-.019.12-.039.2-.06a2.144,2.144,0,0,1,.593-.057,1.533,1.533,0,0,0,.319-.019,2.888,2.888,0,0,0,.672-.289,4.748,4.748,0,0,1,.644-.3,2.773,2.773,0,0,1,.611-.124,1.312,1.312,0,0,0,.518-.13l.1-.062a1.544,1.544,0,0,1,.728-.257,5.175,5.175,0,0,1,1.572.055c.257.062.513.1.77.146s.524.086.783.147a4.385,4.385,0,0,1,.729.263,3,3,0,0,0,.658.229,2.879,2.879,0,0,0,1.081-.065c.134-.032.263-.057.389-.083a3.1,3.1,0,0,0,.86-.259c.118-.059.24-.116.362-.174a4.127,4.127,0,0,0,.861-.485,6.459,6.459,0,0,1,.914-.593c.2-.112.394-.225.586-.355a11.184,11.184,0,0,1,1.932-1.057c.132-.056.271-.106.411-.155a3.453,3.453,0,0,0,.564-.235c.148-.086.284-.185.42-.283a4.994,4.994,0,0,1,.646-.415c.211-.107.41-.188.6-.264a2.165,2.165,0,0,0,.979-.621l.085-.1a2.812,2.812,0,0,0,.737-1.22,14.049,14.049,0,0,1,.473-1.48,10.979,10.979,0,0,0,.482-1.568,3.824,3.824,0,0,1,.965-1.691c.126-.15.252-.3.366-.456a4.888,4.888,0,0,1,.958-.926,5.373,5.373,0,0,0,.648-.574,5.565,5.565,0,0,0,.541-.75,7.493,7.493,0,0,1,.527-.752c.09-.107.183-.208.276-.309a3.03,3.03,0,0,0,.45-.569,2.6,2.6,0,0,0,.167-.418,3.024,3.024,0,0,1,.283-.65c.091-.146.21-.3.325-.452l.138-.18c.072-.1.146-.184.22-.271a1.959,1.959,0,0,0,.259-.346,2.941,2.941,0,0,1,.536-.785,1.975,1.975,0,0,1,.751-.468l.188-.079a3.306,3.306,0,0,0,.452-.263,3.994,3.994,0,0,1,.63-.355,2.477,2.477,0,0,1,1.109-.144,3.869,3.869,0,0,0,.4,0,3.01,3.01,0,0,0,.664-.152,4.561,4.561,0,0,1,.718-.175l.16-.019a1.723,1.723,0,0,0,.547-.128,4.616,4.616,0,0,1,1.906-.376h.015l1.662,0c.17,0,.339-.007.509,0a1.223,1.223,0,0,1,.5.127.553.553,0,0,0,.106.041,5.145,5.145,0,0,0,1.29.168,3.788,3.788,0,0,1,.863.092c.292.053.556.059.944.1a1.649,1.649,0,0,0,.285.012.936.936,0,0,0,.352-.2,2.634,2.634,0,0,1,.395-.256,4.252,4.252,0,0,1,1.087-.324c.17-.035.341-.068.5-.114s.288-.074.426-.1a2.33,2.33,0,0,0,.773-.269l.262-.156a3.464,3.464,0,0,0,.7-.482,2.8,2.8,0,0,0,.528-.865c.059-.13.12-.277.184-.432a4.826,4.826,0,0,1,.981-1.687,3.362,3.362,0,0,1,2.714-.246.953.953,0,0,1,.631.872.7.7,0,0,1-.213.487c0,.04.009.093.015.132a1.556,1.556,0,0,1,.009.468,3.9,3.9,0,0,1-.619,1.359,2.8,2.8,0,0,1-1.055.887,3.179,3.179,0,0,0-.525.343,1.112,1.112,0,0,0-.169.257,2.552,2.552,0,0,1-.262.4,5.009,5.009,0,0,1-1.314,1.133,3.971,3.971,0,0,1-.621.253,1.468,1.468,0,0,0-.7.379,5.541,5.541,0,0,0-.8,1.2,2.076,2.076,0,0,0-.09.258l-.013.045c.07,0,.138.005.2.009a1.582,1.582,0,0,0,.287,0,2.625,2.625,0,0,0,.756-.273,3.74,3.74,0,0,1,1.055-.369c.3-.045.607-.117.908-.188s.625-.148.935-.2a3,3,0,0,1,.356-.027,1.009,1.009,0,0,0,.317-.041c.157-.051.312-.118.467-.184s.338-.144.509-.2a8.176,8.176,0,0,1,2.431-.549,8.564,8.564,0,0,1,2.876.536,9.576,9.576,0,0,0,2.354.654c.392.038.965-.211,1.037-.553a3.365,3.365,0,0,1,1.488-2.6,2.738,2.738,0,0,1,.939-.281c.108-.018.217-.035.318-.06a2.281,2.281,0,0,1,.7-.021,1.36,1.36,0,0,0,.43,0,.288.288,0,0,0,.093-.075c-.01-.478.007-.961.007-1.437,0-1.077.263-2.408-.51-3.265-.152-.168-.335-.172-.475-.333-.069-.079-.088-.241-.148-.335-.08-.122-.2-.19-.283-.305a2.772,2.772,0,0,1-.157-1.57,7.273,7.273,0,0,1,.156-.819,6.236,6.236,0,0,1,.275-1.029c.234-.647.61-1.172.81-1.826a5.207,5.207,0,0,0,.174-1.662,2.509,2.509,0,0,1,.122-.785,3.846,3.846,0,0,0,.035-.942,7.74,7.74,0,0,0,.009-1.578c-.109-.467-.617-.969-.484-1.489.126-.5.811-.794,1.226-1.053.178-.111.356-.307.541-.4.249-.121.546-.2.788-.31.976-.462,1.078-1.717,1.06-2.708-.007-.364-.13-.67-.162-1.026a8.543,8.543,0,0,1,.007-.858c.01-.831.527-1.21.907-1.844a17.371,17.371,0,0,1,1.25-1.482,3.049,3.049,0,0,0,.51-1.842,9.067,9.067,0,0,0,.009-1.553,6.24,6.24,0,0,0-.322-.969c-.173-.458-.152-.594-.59-.867-.385-.241-.77-.175-1.14-.385a6.216,6.216,0,0,0-2.15-.51,9.489,9.489,0,0,0-2.559-.126,5.727,5.727,0,0,0-1.915.789,5.723,5.723,0,0,0-.92.569,1.388,1.388,0,0,1-1.006.215c-.646,0-1.187-.313-1.844-.313a6.261,6.261,0,0,0-2.324.748c-.694.281-1.436.225-2.155.463a5.282,5.282,0,0,1-1.057.363c-.366.039-.661.1-1.026.17-.452.086-.881.072-1.326.132a5.72,5.72,0,0,1-.956.163,6.1,6.1,0,0,0-1.085.163,6.685,6.685,0,0,1-1.085,0,1.415,1.415,0,0,1-.827-.309c-.315-.194-.5-.422-.781-.63a2.145,2.145,0,0,0-1.456-.316c-.371.005-.672-.208-1.032-.168-.46.052-.548.392-.8.715-.239.307-.554.538-.773.863-.179.265-.284.684-.625.78a1.1,1.1,0,0,1-.949-.384,5.076,5.076,0,0,1-.545-.644c-.208-.309-.051-.593-.384-.78s-.47-.031-.714.164a.939.939,0,0,1-.785.235L-198.953,369c-.417-.106-.829.765-1.1,1a2.465,2.465,0,0,1-1.413.728c-.93.059-1.507-1.167-2.433-1.264-.165-.017-.468.078-.616,0s-.243-.36-.366-.508c-.294-.356-.749-.414-.988-.819-.187-.318-.013-.927-.456-1.033-.428-.1-1.007.418-1.3.64-.4.307-.845.6-1.22.941-.4.364-.664.582-1.222.436-.342-.09-.613-.4-.973-.439a1.469,1.469,0,0,0-1.145.435,7.908,7.908,0,0,1-2.625.946c-.529.135-.979-.11-1.491-.124a4.013,4.013,0,0,1-1.256-.332c-.317-.108-.656-.366-.956-.438-.228-.055-.46.011-.693-.048s-.47-.139-.706-.2a10.443,10.443,0,0,0-2.747.078,7.1,7.1,0,0,1-1.255.007,3.7,3.7,0,0,1-1.222-.678,2.38,2.38,0,0,0-2.271-.466,3.284,3.284,0,0,0-1.068.823c-.385.439-.683,1.122-1.412.914-.87-.248-1.316-1.367-1.405-2.169-.029-.252-.132-.456-.164-.706a4.738,4.738,0,0,0-.072-.635,11.211,11.211,0,0,0-.217-1.723c-.358-.873-.983-1.071-1.824-1.35-.5-.164-.967-.347-1.456-.486l-.011,0A5.517,5.517,0,0,0-235.1,363.813Z" transform="translate(342.449 -281.23)" fill="#b52426"/>
    </g>
    <text id="_ANDINA" data-name=" ANDINA" transform="translate(-323.711 355.163)" fill="#fff" font-size="7" font-family="Roboto-Black, Roboto" font-weight="800"><tspan x="-13.643" y="0" xml:space="preserve"> ANDINA</tspan></text>
    <text id="ORINOQUIA" transform="translate(-253.551 355.163)" fill="#fff" font-size="7" font-family="Roboto-Black, Roboto" font-weight="800"><tspan x="-18.79" y="0">ORINOQUIA</tspan></text>
    <text id="AMAZONIA" transform="translate(-285.715 428.806)" fill="#fff" font-size="7" font-family="Roboto-Black, Roboto" font-weight="800"><tspan x="-17.633" y="0">AMAZONIA</tspan></text>
    <text id="CARIBE" transform="translate(-318.021 282.586)" fill="#fff" font-size="7" font-family="Roboto-Black, Roboto" font-weight="800"><tspan x="-11.929" y="0">CARIBE</tspan></text>
    <text id="PACFICO" transform="translate(-383.691 357.43)" fill="#b52426" font-size="7" font-family="Roboto-Black, Roboto" font-weight="800"><tspan x="-15.072" y="0">PACFICO</tspan></text>
    <text id="INSULAR" transform="translate(-327.51 240.798)" fill="#b52426" font-size="7" font-family="Roboto-Black, Roboto" font-weight="800"><tspan x="-14.566" y="0">INSULAR</tspan></text>
    <g id="Grupo_22868" data-name="Grupo 22868" transform="translate(-389.586 228.725)">
      <rect id="Rectngulo_5062" data-name="Rectngulo 5062" width="37.772" height="42.126" rx="9.492" fill="none" stroke="#b52426" stroke-linecap="round" stroke-linejoin="round" stroke-width="1"/>
      <g id="Grupo_22867" data-name="Grupo 22867" transform="translate(5.355 4.18)">
        <path id="Trazado_22624" data-name="Trazado 22624" d="M-365.864,246.3c-.21.436-.67,1.292-.871,1.733-.156.341-.387,1.061-.575,1.385a2.545,2.545,0,0,1-.513.667,1.093,1.093,0,0,1-.595.174,2.608,2.608,0,0,1-1.077-.861,5.966,5.966,0,0,1-.677-1.72,4.554,4.554,0,0,1-.068-1.23,11.451,11.451,0,0,1,.766-2.065,13.918,13.918,0,0,0,.984-1.983,3.106,3.106,0,0,0-.055-.752,5.6,5.6,0,0,1-.15-.807c.019-.263.3-.738.342-1a12.192,12.192,0,0,0,.041-1.572c0-.243.106-.759-.013-.971-.1-.186-.537-.35-.725-.451s-.613-.188-.752-.341a1.744,1.744,0,0,1-.246-.725,2.092,2.092,0,0,1,.041-.615c.054-.2.295-.535.37-.724.127-.324.253-1.017.382-1.341a9.043,9.043,0,0,1,.7-1.326c.088-.128.394-.311.41-.465s-.218-.46-.328-.588c-.085-.1-.351-.2-.41-.315-.09-.173.013-.588-.027-.779-.027-.126-.185-.35-.191-.478a3.205,3.205,0,0,1,.4-1.367,5.047,5.047,0,0,1,.889-.807c.36-.3,1.242-.726,1.49-1.121a3.278,3.278,0,0,0,.219-1.094,10.747,10.747,0,0,0,0-1.353,2.841,2.841,0,0,1-.1-.684c.056-.207.413-.493.533-.67a9.923,9.923,0,0,1,.533-.93,6.149,6.149,0,0,1,.957-.67,8.291,8.291,0,0,0,1.19-.711c.182-.188.325-.727.506-.916a2.542,2.542,0,0,1,.848-.52,1.51,1.51,0,0,1,.656,0,2.123,2.123,0,0,1,.78.574,6.812,6.812,0,0,1,.3.93,2.59,2.59,0,0,0,.465.779,3.077,3.077,0,0,0,.793.247c.205.062.619.175.821.246a2.933,2.933,0,0,1,.889.356,1.076,1.076,0,0,1,.246.615.746.746,0,0,1-.259.438.846.846,0,0,1-.465,0c-.148-.039-.386-.26-.533-.3a2.313,2.313,0,0,0-.916-.027,3.051,3.051,0,0,0-.643.41,3.589,3.589,0,0,1-.588.452c-.178.06-.569-.042-.752,0a1.488,1.488,0,0,0-.684.328.772.772,0,0,0-.082.547c.059.14.38.253.493.356.138.126.444.38.492.561.034.128-.12.388-.109.52a1.338,1.338,0,0,0,.219.561c.06.07.269.111.315.191a.588.588,0,0,1,0,.452c-.068.094-.323.136-.438.15-.2.025-.606-.1-.807-.069a.813.813,0,0,0-.41.15.592.592,0,0,0-.055.41.607.607,0,0,0,.246.247c.134.062.489-.055.588.054s.009.482,0,.643c-.021.388-.184,1.157-.164,1.545.015.3.216.877.247,1.176a3.477,3.477,0,0,1,0,1.217,2.607,2.607,0,0,1-.575.615c-.106.1-.38.243-.451.37a2.156,2.156,0,0,0-.137.97c.019.171.222.472.247.643a3.371,3.371,0,0,1-.1,1.163,4.973,4.973,0,0,1-.643.984,6.95,6.95,0,0,0-.711.807,5.68,5.68,0,0,0-.164,1.012c-.055.276-.206.818-.26,1.094-.07.367-.142,1.112-.219,1.477a29.466,29.466,0,0,1-1.067,3.391C-365.241,245.024-365.659,245.872-365.864,246.3Z" transform="translate(370.258 -216.494)" fill="#b52426"/>
        <path id="Trazado_22625" data-name="Trazado 22625" d="M-338.924,215.757l-.431-.144-.287.246h-.718l-.728.338-.605.379-.287.667.215.687.626.677.092.5.472.133.349-.277h.667l.636-.451.123-.605-.349-.318-.328-.585.113-.544.39-.267Z" transform="translate(360.878 -215.614)" fill="#b52426"/>
        <path id="Trazado_22626" data-name="Trazado 22626" d="M-339.856,219.142a.556.556,0,0,0-.38.113c-.138.138-.109.591-.225.748s-.5.269-.616.41a1.948,1.948,0,0,0-.287.646c-.068.321.094,1,0,1.313a1.992,1.992,0,0,1-.533.81,1.616,1.616,0,0,1-.871.205c-.232-.037-.578-.415-.8-.492a1.663,1.663,0,0,0-.7-.082,1.985,1.985,0,0,0-.841.574c-.078.11-.152.378-.236.482-.107.132-.421.293-.533.42a7.1,7.1,0,0,0-.575.933,5.559,5.559,0,0,0-.482.9,6.733,6.733,0,0,0-.061,1.067c-.024.39-.038,1.174-.1,1.559a3.563,3.563,0,0,1-.3,1.087c-.115.17-.548.318-.656.493a1.159,1.159,0,0,0-.144.779c.091.2.6.271.749.431a2.914,2.914,0,0,1,.452,1.026c.03.143-.029.441,0,.585.019.1.153.269.154.369,0,.158-.2.432-.236.585a2.464,2.464,0,0,0-.092.656,2.3,2.3,0,0,0,.246.7,2.008,2.008,0,0,0,.595.666,1.789,1.789,0,0,0,.851,0c.345-.083.928-.527,1.262-.646.274-.1.879-.114,1.138-.246a5.146,5.146,0,0,0,.749-.667c.288-.26.847-.8,1.148-1.046a5.318,5.318,0,0,1,.872-.636c.237-.1.783-.081,1.015-.194a3.256,3.256,0,0,0,.913-.8,3.924,3.924,0,0,0,.41-1.057,6.279,6.279,0,0,0,.113-1.548c-.019-.176-.186-.5-.205-.677a2.141,2.141,0,0,1,.072-.861,1.744,1.744,0,0,1,.564-.533c.153-.086.518-.112.677-.185a2.287,2.287,0,0,0,.708-.482,1.209,1.209,0,0,0,.154-.523.925.925,0,0,0-.133-.492.429.429,0,0,0-.308-.1c-.087.027-.15.237-.225.287a1,1,0,0,1-.492.144,1.176,1.176,0,0,1-.6-.349,1.855,1.855,0,0,1-.123-.646,6.1,6.1,0,0,0-.062-.769c-.045-.144-.27-.376-.307-.523a1.482,1.482,0,0,1,.021-.7c.064-.154.347-.361.461-.482a2.082,2.082,0,0,0,.318-.339.88.88,0,0,0,.082-.5c-.051-.133-.316-.291-.441-.359a2.65,2.65,0,0,0-.636-.205c-.154-.024-.484.067-.625,0a.931.931,0,0,1-.3-.359,2.725,2.725,0,0,1-.092-.543,2.3,2.3,0,0,0-.082-.554,1.348,1.348,0,0,0-.246-.226C-339.726,219.265-339.8,219.155-339.856,219.142Z" transform="translate(362.948 -216.783)" fill="#b52426"/>
      </g>
    </g>
  </g>
</svg>
