<svg xmlns="http://www.w3.org/2000/svg" width="130" height="130" viewBox="0 0 130 130">
  <g id="Grupo_23268" data-name="Grupo 23268" transform="translate(19562 3594)">
    <circle id="Elipse_1364" data-name="Elipse 1364" cx="65" cy="65" r="65" transform="translate(-19562 -3594)" fill="#fff"/>
    <g id="Grupo_23267" data-name="Grupo 23267" transform="translate(-1.949)">
      <path id="Icon_awesome-male" data-name="Icon awesome-male" d="M12.141,0A8.094,8.094,0,1,1,4.047,8.094,8.094,8.094,0,0,1,12.141,0m6.071,18.212H16.775a11.115,11.115,0,0,1-9.268,0H6.071A6.071,6.071,0,0,0,0,24.283v17.2a3.035,3.035,0,0,0,3.035,3.035H5.059v17.2a3.035,3.035,0,0,0,3.035,3.035h8.094a3.035,3.035,0,0,0,3.035-3.035v-17.2h2.024a3.035,3.035,0,0,0,3.035-3.035v-17.2A6.071,6.071,0,0,0,18.212,18.212Z" transform="translate(-19527.051 -3561.377)" fill="none" stroke="#000" stroke-width="1.5"/>
      <path id="Icon_awesome-female" data-name="Icon awesome-female" d="M15.74,0A8.094,8.094,0,1,1,7.645,8.094,8.094,8.094,0,0,1,15.74,0M30.825,44.795,24.755,20.511a3.035,3.035,0,0,0-2.945-2.3H20.373a11.115,11.115,0,0,1-9.268,0H9.669a3.035,3.035,0,0,0-2.945,2.3L.654,44.795A3.036,3.036,0,0,0,3.6,48.566h7.082V61.719a3.035,3.035,0,0,0,3.035,3.035h4.047A3.035,3.035,0,0,0,20.8,61.719V48.566h7.082A3.037,3.037,0,0,0,30.825,44.795Z" transform="translate(-19493.867 -3561.377)" fill="none" stroke="#000" stroke-width="1.5"/>
    </g>
  </g>
</svg>
