<svg xmlns="http://www.w3.org/2000/svg" width="130" height="130" viewBox="0 0 130 130">
  <g id="Grupo_55867" data-name="Grupo 55867" transform="translate(19562 3250)">
    <circle id="Elipse_1365" data-name="Elipse 1365" cx="65" cy="65" r="65" transform="translate(-19562 -3250)" fill="#fff"/>
    <g id="Grupo_23269" data-name="Grupo 23269" transform="translate(-19652.984 -3339.513)">
      <g id="Grupo_23081" data-name="Grupo 23081" transform="translate(116.984 146.717)">
        <path id="Trazado_22922" data-name="Trazado 22922" d="M129.4,273.98h0l-1.359-.05v-1.6a5.173,5.173,0,1,0-5.163,0v1.6l-1.336.049A4.812,4.812,0,0,0,116.984,279v7.354c0,1.889.928,3.28,2.323,3.6v16.748a3.784,3.784,0,0,0,.974,2.551,3.251,3.251,0,0,0,5.174-.451,3.252,3.252,0,0,0,5.18.446,3.784,3.784,0,0,0,.968-2.545V289.96c1.4-.323,2.323-1.713,2.323-3.6V279A4.808,4.808,0,0,0,129.4,273.98Zm-7.845-6.134a3.9,3.9,0,1,1,5.287,3.644,3.835,3.835,0,0,1-2.781,0A3.9,3.9,0,0,1,121.552,267.847Zm11.1,18.511a2.429,2.429,0,0,1-1.051,2.252v-3.863a.636.636,0,1,0-1.272,0v21.961a2.51,2.51,0,0,1-.634,1.685,2.02,2.02,0,0,1-1.486.67,2.25,2.25,0,0,1-2.12-2.356V288.6a.636.636,0,0,0-1.272,0v18.109a2.25,2.25,0,0,1-2.12,2.356,2.013,2.013,0,0,1-1.48-.664,2.513,2.513,0,0,1-.64-1.692V284.747a.636.636,0,1,0-1.272,0v3.863a2.43,2.43,0,0,1-1.051-2.252V279a3.547,3.547,0,0,1,3.3-3.752l1.972-.072a.62.62,0,0,0,.173-.041c.018-.006.039-.006.056-.014a.623.623,0,0,0,.151-.1c.016-.013.035-.022.05-.036a.626.626,0,0,0,.09-.134.6.6,0,0,0,.044-.071.63.63,0,0,0,.027-.135.6.6,0,0,0,.021-.1v-1.711a4.6,4.6,0,0,0,2.618,0v1.71a.6.6,0,0,0,.021.1.644.644,0,0,0,.027.135.6.6,0,0,0,.044.071.627.627,0,0,0,.09.134c.014.015.034.023.05.036a.619.619,0,0,0,.151.1c.018.008.038.007.056.014a.62.62,0,0,0,.173.041l2,.073A3.544,3.544,0,0,1,132.654,279Z" transform="translate(-116.984 -262.671)"/>
      </g>
      <g id="Grupo_23082" data-name="Grupo 23082" transform="translate(152.386 122.852)">
        <path id="Trazado_22923" data-name="Trazado 22923" d="M291.762,150.122a7.815,7.815,0,0,0-2.8,15.113,7.7,7.7,0,0,0,5.593,0,7.816,7.816,0,0,0-2.79-15.118Zm2.329,13.933a6.444,6.444,0,0,1-4.67-.005,6.548,6.548,0,1,1,4.67.005Z" transform="translate(-283.941 -150.122)"/>
      </g>
      <g id="Grupo_23083" data-name="Grupo 23083" transform="translate(137.637 146.717)">
        <path id="Trazado_22924" data-name="Trazado 22924" d="M226.8,273.98h0l-1.36-.05v-1.6a5.173,5.173,0,1,0-5.163,0v1.6l-1.336.049A4.811,4.811,0,0,0,214.385,279v7.354c0,1.889.928,3.28,2.323,3.6v16.748a3.785,3.785,0,0,0,.974,2.551,3.251,3.251,0,0,0,5.174-.451,3.252,3.252,0,0,0,5.18.446,3.783,3.783,0,0,0,.968-2.545V289.96c1.4-.323,2.323-1.713,2.323-3.6V279A4.808,4.808,0,0,0,226.8,273.98Zm-7.845-6.134a3.9,3.9,0,1,1,5.286,3.644,3.835,3.835,0,0,1-2.781,0A3.9,3.9,0,0,1,218.953,267.847Zm11.1,18.511A2.43,2.43,0,0,1,229,288.609v-3.863a.636.636,0,1,0-1.272,0v21.961a2.509,2.509,0,0,1-.634,1.685,2.02,2.02,0,0,1-1.486.67,2.25,2.25,0,0,1-2.12-2.356V288.6a.636.636,0,0,0-1.272,0v18.109a2.25,2.25,0,0,1-2.12,2.356,2.015,2.015,0,0,1-1.48-.664,2.513,2.513,0,0,1-.64-1.692V284.747a.636.636,0,1,0-1.272,0v3.863a2.429,2.429,0,0,1-1.051-2.252V279a3.547,3.547,0,0,1,3.3-3.752l1.972-.072a.623.623,0,0,0,.173-.041c.018-.006.039-.006.056-.014a.614.614,0,0,0,.151-.1c.016-.013.035-.022.05-.036a3.312,3.312,0,0,0,.134-.205.645.645,0,0,0,.027-.135.6.6,0,0,0,.021-.1v-1.711a4.6,4.6,0,0,0,2.619,0v1.71a.6.6,0,0,0,.021.1.646.646,0,0,0,.027.135.6.6,0,0,0,.044.071.635.635,0,0,0,.09.134c.014.015.034.023.05.036a.618.618,0,0,0,.151.1c.018.008.038.007.056.014a.622.622,0,0,0,.173.041l2,.073A3.544,3.544,0,0,1,230.055,279Z" transform="translate(-214.385 -262.671)"/>
      </g>
      <g id="Grupo_23084" data-name="Grupo 23084" transform="translate(180.238 154.338)">
        <path id="Trazado_22925" data-name="Trazado 22925" d="M425.762,308.054h0l-1.034-.038v-1.183a4.424,4.424,0,1,0-4.52,0v1.18l-1.011.037a4.121,4.121,0,0,0-3.906,4.3v6.14a2.944,2.944,0,0,0,1.939,3.081v13.908a3.259,3.259,0,0,0,.841,2.2,2.805,2.805,0,0,0,4.4-.277,2.805,2.805,0,0,0,4.4.271,3.259,3.259,0,0,0,.836-2.195V321.573a2.944,2.944,0,0,0,1.939-3.081v-6.14A4.118,4.118,0,0,0,425.762,308.054Zm-6.448-5.016a3.153,3.153,0,1,1,4.269,2.945,3.1,3.1,0,0,1-2.245-.005A3.151,3.151,0,0,1,419.315,303.039Zm9.058,15.454a2.1,2.1,0,0,1-.667,1.7v-3.048a.636.636,0,1,0-1.272,0v18.333a1.987,1.987,0,0,1-.5,1.336,1.579,1.579,0,0,1-1.163.525,1.773,1.773,0,0,1-1.664-1.861V320.363a.636.636,0,0,0-1.272,0v15.118a1.773,1.773,0,0,1-1.664,1.861,1.573,1.573,0,0,1-1.158-.521,1.986,1.986,0,0,1-.507-1.341V317.147a.636.636,0,1,0-1.272,0V320.2a2.1,2.1,0,0,1-.667-1.7v-6.14a2.858,2.858,0,0,1,2.657-3.027l1.647-.06a.613.613,0,0,0,.156-.037.68.68,0,0,0,.074-.018.622.622,0,0,0,.138-.093.653.653,0,0,0,.062-.045.631.631,0,0,0,.084-.126.593.593,0,0,0,.049-.079.638.638,0,0,0,.027-.131.606.606,0,0,0,.022-.107v-1.288a3.991,3.991,0,0,0,1.976,0v1.288a.606.606,0,0,0,.022.107.653.653,0,0,0,.026.131.593.593,0,0,0,.049.079.733.733,0,0,0,.285.264.68.68,0,0,0,.074.018.613.613,0,0,0,.156.037l1.669.061a2.855,2.855,0,0,1,2.635,3.027Z" transform="translate(-415.291 -298.613)"/>
      </g>
      <g id="Grupo_23085" data-name="Grupo 23085" transform="translate(161.103 154.338)">
        <path id="Trazado_22926" data-name="Trazado 22926" d="M335.523,308.054h0l-1.034-.038v-1.182a4.423,4.423,0,1,0-4.52,0v1.18l-1.01.037a4.121,4.121,0,0,0-3.907,4.3v6.14a2.943,2.943,0,0,0,1.94,3.081v13.908a3.263,3.263,0,0,0,.841,2.2,2.805,2.805,0,0,0,4.4-.277,2.805,2.805,0,0,0,4.4.272,3.254,3.254,0,0,0,.837-2.2V321.573a2.944,2.944,0,0,0,1.94-3.081v-6.14A4.118,4.118,0,0,0,335.523,308.054Zm-6.448-5.016a3.153,3.153,0,1,1,4.269,2.945,3.1,3.1,0,0,1-2.245-.005A3.151,3.151,0,0,1,329.075,303.039Zm9.057,15.454a2.1,2.1,0,0,1-.667,1.7v-3.048a.636.636,0,1,0-1.272,0v18.333a1.982,1.982,0,0,1-.5,1.336,1.573,1.573,0,0,1-1.162.525,1.773,1.773,0,0,1-1.665-1.861V320.363a.636.636,0,0,0-1.272,0v15.118a1.773,1.773,0,0,1-1.664,1.861,1.574,1.574,0,0,1-1.158-.52,1.989,1.989,0,0,1-.506-1.341V317.147a.636.636,0,1,0-1.272,0V320.2a2.1,2.1,0,0,1-.668-1.7v-6.14a2.858,2.858,0,0,1,2.658-3.027l1.646-.06a.613.613,0,0,0,.157-.037.693.693,0,0,0,.074-.018.533.533,0,0,0,.285-.264.587.587,0,0,0,.049-.079.651.651,0,0,0,.027-.131.606.606,0,0,0,.022-.107v-1.289a3.992,3.992,0,0,0,1.976,0v1.288a.606.606,0,0,0,.022.107.636.636,0,0,0,.026.131.608.608,0,0,0,.049.079.63.63,0,0,0,.085.126.653.653,0,0,0,.062.045.618.618,0,0,0,.138.093.683.683,0,0,0,.074.018.613.613,0,0,0,.156.037l1.67.061a2.854,2.854,0,0,1,2.634,3.027Z" transform="translate(-325.051 -298.613)"/>
      </g>
      <g id="Grupo_23086" data-name="Grupo 23086" transform="translate(136.578 115.513)">
        <path id="Trazado_22927" data-name="Trazado 22927" d="M256.177,130.885A6,6,0,0,0,251.42,125a5.434,5.434,0,0,0,.117-1.1,6.053,6.053,0,0,0-6.046-6.046,5.931,5.931,0,0,0-2.975.8,6.01,6.01,0,0,0-10.171-.63,5.991,5.991,0,0,0-9.221,3.359,5.831,5.831,0,0,0-2.277-.462,6.058,6.058,0,0,0-5.635,3.919,6.034,6.034,0,0,0-2.4,11.467,5.8,5.8,0,0,0-.2,1.482,6.053,6.053,0,0,0,6.046,6.046,5.99,5.99,0,0,0,3.3-1,6.037,6.037,0,0,0,9.753.941,6.039,6.039,0,0,0,9.745-.924,5.989,5.989,0,0,0,3.27.986,6.054,6.054,0,0,0,6.047-6.046,5.207,5.207,0,0,0-.077-.885A6.056,6.056,0,0,0,256.177,130.885Zm-6.09,4.769c-.021,0-.151-.017-.172-.018a.626.626,0,0,0-.529.243.636.636,0,0,0-.109.572,4.692,4.692,0,0,1,.217,1.341,4.779,4.779,0,0,1-4.775,4.774,4.7,4.7,0,0,1-3.083-1.16.636.636,0,0,0-1,.236,4.768,4.768,0,0,1-8.4.737.637.637,0,0,0-1.067,0,4.765,4.765,0,0,1-8.4-.757.636.636,0,0,0-1-.235,4.7,4.7,0,0,1-3.109,1.18,4.779,4.779,0,0,1-4.774-4.774,4.694,4.694,0,0,1,.3-1.624.636.636,0,0,0-.379-.815,4.76,4.76,0,0,1,1.658-9.236h.01l.16.017a.652.652,0,0,0,.642-.462,4.783,4.783,0,0,1,4.57-3.476,4.7,4.7,0,0,1,2.414.679.636.636,0,0,0,.955-.469,4.729,4.729,0,0,1,7.867-2.97.636.636,0,0,0,.979-.168,4.744,4.744,0,0,1,8.6.558.637.637,0,0,0,.975.277,4.719,4.719,0,0,1,2.857-.973,4.779,4.779,0,0,1,4.774,4.774,4.661,4.661,0,0,1-.245,1.429.636.636,0,0,0,.548.825,4.757,4.757,0,0,1-.469,9.5Z" transform="translate(-209.39 -115.513)"/>
      </g>
      <g id="Grupo_23087" data-name="Grupo 23087" transform="translate(158.155 125.727)">
        <path id="Trazado_22928" data-name="Trazado 22928" d="M313.5,167.584c-.933-.386-1.329-.664-1.329-1.221,0-.429.311-.922,1.135-.922a2.59,2.59,0,0,1,1.351.365l.268-.708a2.863,2.863,0,0,0-1.393-.375v-1.039h-.665v1.083a1.757,1.757,0,0,0-1.618,1.725c0,.933.675,1.425,1.769,1.854.793.321,1.211.686,1.211,1.275,0,.611-.514,1.05-1.275,1.05a2.857,2.857,0,0,1-1.543-.461l-.257.718a3.116,3.116,0,0,0,1.64.472v1.083h.675v-1.115a1.865,1.865,0,0,0,1.694-1.822C315.157,168.591,314.6,168.034,313.5,167.584Z" transform="translate(-311.149 -163.683)"/>
      </g>
      <g id="Grupo_23088" data-name="Grupo 23088" transform="translate(129.71 138.531)">
        <path id="Trazado_22929" data-name="Trazado 22929" d="M179.927,224.067a2.928,2.928,0,1,0,2.929,2.928A2.931,2.931,0,0,0,179.927,224.067Zm0,4.584a1.656,1.656,0,1,1,1.656-1.656A1.658,1.658,0,0,1,179.927,228.651Z" transform="translate(-176.999 -224.067)"/>
      </g>
    </g>
  </g>
</svg>
