<svg xmlns="http://www.w3.org/2000/svg" width="130" height="130" viewBox="0 0 130 130">
  <g id="Grupo_23277" data-name="Grupo 23277" transform="translate(19562 1898)">
    <circle id="Elipse_1366" data-name="Elipse 1366" cx="65" cy="65" r="65" transform="translate(-19562 -1898)" fill="#fff"/>
    <g id="Grupo_23276" data-name="Grupo 23276" transform="translate(-21460.203 -3779.379)">
      <g id="Grupo_23055" data-name="Grupo 23055" transform="translate(1926.691 1915.501)">
        <path id="Trazado_22899" data-name="Trazado 22899" d="M1930.171,1950.413v21.7a4.73,4.73,0,0,0,1.217,3.188,4.074,4.074,0,0,0,3.009,1.342,4.057,4.057,0,0,1,7.111,0,4.082,4.082,0,0,0,3.015-1.348,4.729,4.729,0,0,0,1.21-3.182v-21.7c2.061-.181,3.48-1.99,3.48-4.553v-9.488a6.159,6.159,0,0,0-5.941-6.331l-2.139-.074v-2.249a6.524,6.524,0,1,0-6.359,0v2.249l-2.116.073a6.164,6.164,0,0,0-5.965,6.331v9.488C1926.691,1948.423,1928.11,1950.232,1930.171,1950.413Zm2.6-28.386a5.186,5.186,0,1,1,7.44,4.648l-.012.006c-.134.064-.262.135-.4.188a5.09,5.09,0,0,1-3.7-.005c-.13-.049-.25-.116-.375-.176l-.031-.014A5.181,5.181,0,0,1,1932.766,1922.027Zm-4.735,14.344a4.829,4.829,0,0,1,4.649-4.993l2.786-.1a.637.637,0,0,0,.113-.027.691.691,0,0,0,.134-.032,3.471,3.471,0,0,0,.209-.147.655.655,0,0,0,.067-.1.628.628,0,0,0,.072-.115.677.677,0,0,0,.027-.133.636.636,0,0,0,.023-.116v-2.356a5.882,5.882,0,0,0,3.68,0v2.356a.669.669,0,0,0,.67.67c.017,0,.031-.008.047-.009s.031.01.049.011l2.689.094a4.825,4.825,0,0,1,4.625,4.992v9.488c0,1.4-.578,3-2.14,3.208v-6.785a.67.67,0,1,0-1.339,0v29.832a3.386,3.386,0,0,1-.859,2.277,2.745,2.745,0,0,1-2.026.913,3.053,3.053,0,0,1-2.886-3.19V1948.75a.67.67,0,1,0-1.34,0v23.364a3.053,3.053,0,0,1-2.886,3.19,2.747,2.747,0,0,1-2.021-.907,3.39,3.39,0,0,1-.865-2.283v-29.832a.67.67,0,1,0-1.34,0v6.785c-1.562-.207-2.14-1.808-2.14-3.208Z" transform="translate(-1926.691 -1915.501)"/>
      </g>
      <g id="Grupo_23056" data-name="Grupo 23056" transform="translate(1977.771 1915.938)">
        <path id="Trazado_22900" data-name="Trazado 22900" d="M2172.068,1932l-2.14-.074v-2.249a6.525,6.525,0,1,0-6.359,0v2.25l-2.115.073a6.163,6.163,0,0,0-5.965,6.331v9.487c0,2.606,1.39,4.38,3.48,4.555v21.7a4.735,4.735,0,0,0,1.215,3.188,4.074,4.074,0,0,0,3.01,1.342,4.057,4.057,0,0,1,7.111,0,4.086,4.086,0,0,0,3.015-1.347,4.729,4.729,0,0,0,1.21-3.182v-21.7c2.09-.175,3.48-1.949,3.48-4.555v-9.487A6.159,6.159,0,0,0,2172.068,1932Zm-10.506-8.014a5.186,5.186,0,1,1,7.444,4.647l-.02.01c-.131.063-.257.133-.395.185a5.1,5.1,0,0,1-3.7-.005c-.132-.05-.253-.117-.378-.177l-.027-.013A5.18,5.18,0,0,1,2161.562,1923.984Zm15.108,23.832c0,1.4-.578,3-2.14,3.209v-6.785a.67.67,0,1,0-1.339,0v29.832a3.389,3.389,0,0,1-.858,2.277,2.755,2.755,0,0,1-2.028.913,3.053,3.053,0,0,1-2.885-3.19v-23.365a.67.67,0,0,0-1.34,0v23.365a3.053,3.053,0,0,1-2.886,3.19,2.742,2.742,0,0,1-2.021-.906,3.391,3.391,0,0,1-.865-2.283v-29.832a.67.67,0,1,0-1.34,0v6.785c-1.562-.207-2.14-1.808-2.14-3.209v-9.487a4.829,4.829,0,0,1,4.649-4.992l2.785-.1a.632.632,0,0,0,.113-.027.673.673,0,0,0,.134-.032,3.577,3.577,0,0,0,.21-.147.694.694,0,0,0,.067-.1.636.636,0,0,0,.072-.115.673.673,0,0,0,.027-.133.636.636,0,0,0,.023-.116v-2.357a5.887,5.887,0,0,0,3.68,0v2.356a.669.669,0,0,0,.67.67c.017,0,.031-.009.048-.01s.031.011.049.011l2.689.094a4.825,4.825,0,0,1,4.625,4.992Z" transform="translate(-2155.488 -1917.458)"/>
      </g>
      <g id="Grupo_23057" data-name="Grupo 23057" transform="translate(1951.784 1918.609)">
        <path id="Trazado_22901" data-name="Trazado 22901" d="M2039.756,1953.441h22.076a.669.669,0,0,0,.67-.67v-13.954c0-.014-.007-.025-.008-.039a.654.654,0,0,0-.029-.144.633.633,0,0,0-.033-.1.656.656,0,0,0-.083-.123.647.647,0,0,0-.069-.082c-.012-.011-.019-.027-.032-.038l-11.038-8.733c-.016-.013-.035-.016-.052-.027a.677.677,0,0,0-.729,0c-.016.011-.036.014-.051.026l-11.038,8.733c-.014.011-.02.027-.032.038a.68.68,0,0,0-.069.082.659.659,0,0,0-.082.122.617.617,0,0,0-.033.1.635.635,0,0,0-.029.144c0,.014-.008.025-.008.039v13.954A.669.669,0,0,0,2039.756,1953.441Zm.67-1.339v-12.964l10.368-8.2,10.368,8.2V1952.1Z" transform="translate(-2039.086 -1929.42)"/>
      </g>
      <g id="Grupo_23058" data-name="Grupo 23058" transform="translate(1958.692 1927.966)">
        <path id="Trazado_22902" data-name="Trazado 22902" d="M2078.5,1971.335h-7.8a.669.669,0,0,0-.67.67v4.829a.67.67,0,0,0,.67.67h7.8a.669.669,0,0,0,.67-.67V1972A.669.669,0,0,0,2078.5,1971.335Zm-.67,4.829h-6.463v-3.489h6.463Z" transform="translate(-2070.029 -1971.335)"/>
      </g>
    </g>
  </g>
</svg>
