<svg xmlns="http://www.w3.org/2000/svg" width="130" height="130" viewBox="0 0 130 130">
  <g id="Grupo_23270" data-name="Grupo 23270" transform="translate(19562 3594)">
    <circle id="Elipse_1364" data-name="Elipse 1364" cx="65" cy="65" r="65" transform="translate(-19562 -3594)" fill="#fff"/>
    <g id="Grupo_23267" data-name="Grupo 23267" transform="translate(-1.949 -10)">
      <path id="Icon_awesome-male" data-name="Icon awesome-male" d="M12.141,0A8.094,8.094,0,1,1,4.047,8.094,8.094,8.094,0,0,1,12.141,0m6.071,18.212H16.775a11.115,11.115,0,0,1-9.268,0H6.071A6.071,6.071,0,0,0,0,24.283v17.2a3.035,3.035,0,0,0,3.035,3.035H5.059v17.2a3.035,3.035,0,0,0,3.035,3.035h8.094a3.035,3.035,0,0,0,3.035-3.035v-17.2h2.024a3.035,3.035,0,0,0,3.035-3.035v-17.2A6.071,6.071,0,0,0,18.212,18.212Z" transform="translate(-19527.051 -3561.377)" fill="none" stroke="#000" stroke-width="1.5"/>
      <path id="Icon_awesome-female" data-name="Icon awesome-female" d="M15.74,0A8.094,8.094,0,1,1,7.645,8.094,8.094,8.094,0,0,1,15.74,0M30.825,44.795,24.755,20.511a3.035,3.035,0,0,0-2.945-2.3H20.373a11.115,11.115,0,0,1-9.268,0H9.669a3.035,3.035,0,0,0-2.945,2.3L.654,44.795A3.036,3.036,0,0,0,3.6,48.566h7.082V61.719a3.035,3.035,0,0,0,3.035,3.035h4.047A3.035,3.035,0,0,0,20.8,61.719V48.566h7.082A3.037,3.037,0,0,0,30.825,44.795Z" transform="translate(-19493.867 -3561.377)" fill="none" stroke="#000" stroke-width="1.5"/>
    </g>
    <g id="Grupo_23271" data-name="Grupo 23271" transform="translate(-19505.176 -3521.175)">
      <path id="Trazado_22925" data-name="Trazado 22925" d="M425.762,308.054h0l-1.034-.038v-1.183a4.424,4.424,0,1,0-4.52,0v1.18l-1.011.037a4.121,4.121,0,0,0-3.906,4.3v6.14a2.944,2.944,0,0,0,1.939,3.081v13.908a3.259,3.259,0,0,0,.841,2.2,2.805,2.805,0,0,0,4.4-.277,2.805,2.805,0,0,0,4.4.271,3.259,3.259,0,0,0,.836-2.195V321.573a2.944,2.944,0,0,0,1.939-3.081v-6.14A4.118,4.118,0,0,0,425.762,308.054Zm-6.448-5.016a3.153,3.153,0,1,1,4.269,2.945,3.1,3.1,0,0,1-2.245-.005A3.151,3.151,0,0,1,419.315,303.039Zm9.058,15.454a2.1,2.1,0,0,1-.667,1.7v-3.048a.636.636,0,1,0-1.272,0v18.333a1.987,1.987,0,0,1-.5,1.336,1.579,1.579,0,0,1-1.163.525,1.773,1.773,0,0,1-1.664-1.861V320.363a.636.636,0,0,0-1.272,0v15.118a1.773,1.773,0,0,1-1.664,1.861,1.573,1.573,0,0,1-1.158-.521,1.986,1.986,0,0,1-.507-1.341V317.147a.636.636,0,1,0-1.272,0V320.2a2.1,2.1,0,0,1-.667-1.7v-6.14a2.858,2.858,0,0,1,2.657-3.027l1.647-.06a.613.613,0,0,0,.156-.037.68.68,0,0,0,.074-.018.622.622,0,0,0,.138-.093.653.653,0,0,0,.062-.045.631.631,0,0,0,.084-.126.593.593,0,0,0,.049-.079.638.638,0,0,0,.027-.131.606.606,0,0,0,.022-.107v-1.288a3.991,3.991,0,0,0,1.976,0v1.288a.606.606,0,0,0,.022.107.653.653,0,0,0,.026.131.593.593,0,0,0,.049.079.733.733,0,0,0,.285.264.68.68,0,0,0,.074.018.613.613,0,0,0,.156.037l1.669.061a2.855,2.855,0,0,1,2.635,3.027Z" transform="translate(-415.291 -298.613)"/>
    </g>
  </g>
</svg>
