<svg xmlns="http://www.w3.org/2000/svg" width="224" height="156.428" viewBox="0 0 224 156.428">
  <g id="Grupo_25522" data-name="Grupo 25522" transform="translate(21932.999 2462)">
    <g id="Grupo_25521" data-name="Grupo 25521" transform="translate(-21933 -2462)">
      <g id="freepik--background-complete--inject-8" transform="translate(0 0)">
        <path id="Trazado_23946" data-name="Trazado 23946" d="M313.677,31.98s-.313,42.99-23.4,39.137C267.77,67.357,275.988,27.66,275.988,27.66S294.034,40.849,313.677,31.98Z" transform="translate(-197.813 -27.66)" fill="#ebebeb"/>
        <path id="Trazado_23947" data-name="Trazado 23947" d="M303.471,71.954a63.822,63.822,0,0,1-8.7-5.364,4.724,4.724,0,0,0,.115,4.852,4.864,4.864,0,0,0,4.268,2.437,6.66,6.66,0,0,0,4.309-1.939" transform="translate(-210.609 -53.039)" fill="#e0e0e0"/>
        <path id="Trazado_23948" data-name="Trazado 23948" d="M349.7,72.54a63.175,63.175,0,0,1-9.273,4.278,4.727,4.727,0,0,0,4.108,2.59,4.882,4.882,0,0,0,4.4-2.2,6.665,6.665,0,0,0,.762-4.665" transform="translate(-240.779 -56.917)" fill="#e0e0e0"/>
        <path id="Trazado_23949" data-name="Trazado 23949" d="M305.228,103.817c-.237-.073-.379-.421-.369-1.016a5.532,5.532,0,0,1,.7-2.357,8.148,8.148,0,0,1,2.489-2.785A7.961,7.961,0,0,1,310.1,96.6a7.367,7.367,0,0,1,2.545-.428,7.658,7.658,0,0,1,4.595,1.626,7.791,7.791,0,0,1,2.357,2.952,5.428,5.428,0,0,1,.54,2.412c-.038.6-.209.929-.449.985-.512.118-1.114-.877-2.235-1.991a9.117,9.117,0,0,0-2.089-1.591,5.917,5.917,0,0,0-2.753-.769,5.37,5.37,0,0,0-1.448.191,6.637,6.637,0,0,0-1.365.515,10.092,10.092,0,0,0-2.2,1.5C306.411,103.037,305.726,103.974,305.228,103.817Z" transform="translate(-217.588 -72.321)" fill="#e0e0e0"/>
        <path id="Trazado_23950" data-name="Trazado 23950" d="M582.949,72.729a64.1,64.1,0,0,1-9.472-3.829,4.734,4.734,0,0,0,.933,4.765,4.915,4.915,0,0,0,4.623,1.7,6.651,6.651,0,0,0,3.916-2.639" transform="translate(-392.54 -54.544)" fill="#e0e0e0"/>
        <path id="Trazado_23951" data-name="Trazado 23951" d="M629.34,62.79a63.561,63.561,0,0,1-8.42,5.785,4.734,4.734,0,0,0,4.49,1.855,4.91,4.91,0,0,0,3.965-2.917,6.662,6.662,0,0,0-.035-4.724" transform="translate(-423.65 -50.561)" fill="#e0e0e0"/>
        <path id="Trazado_23952" data-name="Trazado 23952" d="M591.473,101.406c-.244-.035-.442-.348-.536-.94a5.547,5.547,0,0,1,.3-2.437,8.117,8.117,0,0,1,1.977-3.182,7.788,7.788,0,0,1,1.848-1.392A7.5,7.5,0,0,1,597.5,92.6a7.659,7.659,0,0,1,4.8.828,7.8,7.8,0,0,1,2.82,2.513,5.41,5.41,0,0,1,.94,2.287c.066.592-.049.95-.275,1.044-.484.2-1.246-.675-2.538-1.584a9.108,9.108,0,0,0-2.329-1.218,5.918,5.918,0,0,0-2.84-.292,5.367,5.367,0,0,0-1.392.435,6.475,6.475,0,0,0-1.257.738,10.158,10.158,0,0,0-1.915,1.852C592.507,100.438,591.985,101.475,591.473,101.406Z" transform="translate(-404.086 -69.938)" fill="#e0e0e0"/>
        <path id="Trazado_23953" data-name="Trazado 23953" d="M622,326.088s-7.888,41.076-29.3,33.306c-20.868-7.568-5.994-44.094-5.994-44.094S601.638,331.1,622,326.088Z" transform="translate(-397.998 -215.173)" fill="#ebebeb"/>
        <path id="Trazado_23954" data-name="Trazado 23954" d="M598,362.574a61.929,61.929,0,0,1,8.1,5.751,4.6,4.6,0,0,0,.191-4.724,4.771,4.771,0,0,0-3.989-2.642,6.462,6.462,0,0,0-4.3,1.615" transform="translate(-408.708 -244.938)" fill="#e0e0e0"/>
        <path id="Trazado_23955" data-name="Trazado 23955" d="M646.677,379.1a61.956,61.956,0,0,1,9.628-2.458,4.6,4.6,0,0,0-3.481-3.2,4.762,4.762,0,0,0-4.6,1.33,6.491,6.491,0,0,0-1.552,4.327" transform="translate(-440.436 -252.999)" fill="#e0e0e0"/>
        <path id="Trazado_23956" data-name="Trazado 23956" d="M623.335,394.667c.216.115.289.494.157,1.1a5.914,5.914,0,0,1-1.19,2.27,8.51,8.51,0,0,1-3.084,2.384,8.24,8.24,0,0,1-2.308.7,7.716,7.716,0,0,1-2.677-.045,7.981,7.981,0,0,1-4.389-2.524,8.189,8.189,0,0,1-1.869-3.46,5.809,5.809,0,0,1-.122-2.572c.143-.6.372-.915.616-.926.526-.021.936,1.124,1.869,2.506a9.539,9.539,0,0,0,1.852,2.089,6.243,6.243,0,0,0,2.733,1.344,5.687,5.687,0,0,0,1.556.077,6.942,6.942,0,0,0,1.525-.282,10.342,10.342,0,0,0,2.565-1.163C622.005,395.272,622.872,394.42,623.335,394.667Z" transform="translate(-415.072 -264.906)" fill="#e0e0e0"/>
        <path id="Trazado_23957" data-name="Trazado 23957" d="M54.11,141.274a61.968,61.968,0,0,1,8.1,5.751,4.612,4.612,0,0,0,.191-4.72,4.791,4.791,0,0,0-3.993-2.646,6.486,6.486,0,0,0-4.3,1.615" transform="translate(-54.11 -100.672)" fill="#ebebeb"/>
        <path id="Trazado_23958" data-name="Trazado 23958" d="M102.813,157.8a62.377,62.377,0,0,1,9.628-2.454,4.612,4.612,0,0,0-3.481-3.2,4.758,4.758,0,0,0-4.6,1.333,6.465,6.465,0,0,0-1.553,4.323" transform="translate(-85.858 -108.734)" fill="#ebebeb"/>
        <path id="Trazado_23959" data-name="Trazado 23959" d="M79.457,173.373c.219.118.289.5.16,1.1a5.915,5.915,0,0,1-1.19,2.27,8.5,8.5,0,0,1-3.088,2.388,8.329,8.329,0,0,1-2.3.7,7.823,7.823,0,0,1-2.68-.045,7.971,7.971,0,0,1-4.386-2.524A8.133,8.133,0,0,1,64.1,173.8a5.708,5.708,0,0,1-.122-2.572c.139-.6.369-.915.616-.926.526-.021.933,1.121,1.869,2.5a9.276,9.276,0,0,0,1.848,2.089,6.206,6.206,0,0,0,2.733,1.344,5.7,5.7,0,0,0,1.559.08,6.963,6.963,0,0,0,1.525-.282,10.642,10.642,0,0,0,2.565-1.163C78.127,173.979,78.994,173.129,79.457,173.373Z" transform="translate(-60.482 -120.647)" fill="#ebebeb"/>
        <path id="Trazado_23960" data-name="Trazado 23960" d="M113.458,365s11.264,32.171-7,35.471c-17.8,3.213-22.278-28.614-22.278-28.614S101.174,376.874,113.458,365Z" transform="translate(-73.713 -247.573)" fill="#ebebeb"/>
        <path id="Trazado_23961" data-name="Trazado 23961" d="M111.349,408.12a50.594,50.594,0,0,1-6.9,4.24,3.756,3.756,0,0,0,3.481,1.65,3.893,3.893,0,0,0,3.258-2.148,5.281,5.281,0,0,0,.164-3.742" transform="translate(-86.927 -275.683)" fill="#e0e0e0"/>
        <path id="Trazado_23962" data-name="Trazado 23962" d="M151.364,402.46a50.422,50.422,0,0,1-8.051-.86,3.749,3.749,0,0,0,1.74,3.432,3.894,3.894,0,0,0,3.892.289,5.27,5.27,0,0,0,2.416-2.861" transform="translate(-112.256 -271.432)" fill="#e0e0e0"/>
        <path id="Trazado_23963" data-name="Trazado 23963" d="M127.342,431.921c-.244,0-.5-.219-.7-.7a4.564,4.564,0,0,1-.23-2.144,6.931,6.931,0,0,1,1.124-3.088,6.748,6.748,0,0,1,1.354-1.532,6.488,6.488,0,0,1,1.97-1.159,6.7,6.7,0,0,1,4.313-.084,6.611,6.611,0,0,1,2.834,1.74,4.48,4.48,0,0,1,1.135,1.848c.132.512.066.849-.139.989-.432.285-1.271-.278-2.5-.762a7.965,7.965,0,0,0-2.089-.553,4.932,4.932,0,0,0-2.284.233,5.275,5.275,0,0,0-1.932,1.319,8.948,8.948,0,0,0-1.316,1.772C128.195,430.943,127.861,431.886,127.342,431.921Z" transform="translate(-101.221 -285.32)" fill="#e0e0e0"/>
      </g>
      <g id="freepik--character-3--inject-8" transform="translate(124.076 32.812)">
        <path id="Trazado_23964" data-name="Trazado 23964" d="M555.4,154.264l-8.6-3.714-1.378,8.013,6.941,4.389,4.01-3.84Z" transform="translate(-498.507 -140.584)" fill="#ffbe9d"/>
        <path id="Trazado_23965" data-name="Trazado 23965" d="M433.144,160.753c-.6-2.364.188-4.821.606-7.223a51.021,51.021,0,0,0,.289-10.641,39.555,39.555,0,0,1,.613-10.617,14.335,14.335,0,0,1,5.611-8.769c2.959-1.96,7.171-2.231,10-.077l-1.392,9.117a168.857,168.857,0,0,1-.536,38.6,49.733,49.733,0,0,1-11.637.526c-.8-.056-1.723-.216-2.089-.922-.449-.863.23-1.845.512-2.785a5.557,5.557,0,0,0-.5-3.711A25.181,25.181,0,0,1,433.144,160.753Z" transform="translate(-425.172 -121.92)" fill="#263238"/>
        <path id="Trazado_23966" data-name="Trazado 23966" d="M465.557,127.936a9.774,9.774,0,0,1,4.024-2.482,3.315,3.315,0,0,1,1.915-.143,1.443,1.443,0,0,1,1.086,1.427l-3.718,5.392A2.606,2.606,0,0,1,466,132.3a2.728,2.728,0,0,1-1.546-1.685A3.116,3.116,0,0,1,465.557,127.936Z" transform="translate(-445.695 -124.079)" fill="#455a64"/>
        <path id="Trazado_23967" data-name="Trazado 23967" d="M530,280.17" transform="translate(-488.455 -225.083)" fill="#ffbe9d"/>
        <path id="Trazado_23968" data-name="Trazado 23968" d="M494.157,151.017a15.03,15.03,0,0,0-15.341-13.576,14.578,14.578,0,0,0-14.147,15.5l3.2,32.676a2.842,2.842,0,0,0,.773,1.685,13.362,13.362,0,0,0,9.27,4.045,13.931,13.931,0,0,0,8.253-3.133,2.785,2.785,0,0,0,1.023-2.59l-1.013-7.268a.045.045,0,0,1,.033-.055h.005a9.869,9.869,0,0,0,2.022-.379c1.845-.769,6.433-3.422,6.934-10.85C495.337,164.635,494.822,157.8,494.157,151.017Z" transform="translate(-445.841 -132.032)" fill="#ffbe9d"/>
        <path id="Trazado_23969" data-name="Trazado 23969" d="M520.725,192a8.915,8.915,0,0,1,2.064-.557c.327-.063.634-.153.668-.379a1.638,1.638,0,0,0-.31-.94l-1.2-2.381a40.7,40.7,0,0,1-2.785-6.266,41.609,41.609,0,0,1,3.3,6.029c.407.835.8,1.633,1.166,2.4a1.847,1.847,0,0,1,.289,1.257.822.822,0,0,1-.5.519,2.221,2.221,0,0,1-.553.129A8.611,8.611,0,0,1,520.725,192Z" transform="translate(-481.379 -160.745)" fill="#263238"/>
        <path id="Trazado_23970" data-name="Trazado 23970" d="M537.169,190.324c-.111.209-1.163-.449-2.437-.237s-2.089,1.135-2.249.968c-.084-.07,0-.432.348-.86a2.868,2.868,0,0,1,1.74-1.006,2.908,2.908,0,0,1,1.991.421C537.04,189.91,537.239,190.227,537.169,190.324Z" transform="translate(-490.054 -165.752)" fill="#263238"/>
        <path id="Trazado_23971" data-name="Trazado 23971" d="M499.735,192.071c-.153.195-1.177-.6-2.576-.56s-2.395.849-2.555.661c-.077-.084.073-.432.5-.808a3.255,3.255,0,0,1,4.1-.08C499.648,191.643,499.812,191.984,499.735,192.071Z" transform="translate(-465.367 -166.691)" fill="#263238"/>
        <path id="Trazado_23972" data-name="Trazado 23972" d="M504.9,250.634s-4.946.842-11.529-2.294c0,0,2.572,6.3,11.856,4.619Z" transform="translate(-464.575 -204.333)" fill="#eb996e"/>
        <path id="Trazado_23973" data-name="Trazado 23973" d="M517.03,220.184a2.732,2.732,0,0,0-2.562.5,2.468,2.468,0,0,0-.922,1.678,1.507,1.507,0,0,0,.867,1.521,1.836,1.836,0,0,0,1.908-.668,5.686,5.686,0,0,0,.975-1.977,1.64,1.64,0,0,0,.118-.6.491.491,0,0,0-.3-.456" transform="translate(-477.723 -185.896)" fill="#eb996e"/>
        <path id="Trazado_23974" data-name="Trazado 23974" d="M501.4,182.685c-.3.216-1.278-.651-2.635-1.358s-2.6-1.065-2.593-1.434c0-.174.365-.324.964-.324a5.222,5.222,0,0,1,3.982,2.127C501.458,182.195,501.538,182.581,501.4,182.685Z" transform="translate(-466.401 -159.502)" fill="#263238"/>
        <path id="Trazado_23975" data-name="Trazado 23975" d="M534.256,177.8c-.038.393-1.065.8-2.089,1.57s-1.74,1.587-2.137,1.5c-.177-.052-.219-.383,0-.888a4.181,4.181,0,0,1,1.392-1.667,4.118,4.118,0,0,1,2.012-.8C533.964,177.47,534.263,177.613,534.256,177.8Z" transform="translate(-488.377 -158.154)" fill="#263238"/>
        <path id="Trazado_23976" data-name="Trazado 23976" d="M472.385,129.813a4.357,4.357,0,0,0-3.6-1.344c-5.806.038-11.6,4.456-14.014,9.747s-1.465,12.427,1.692,17.3l2.186.035c4.386-.968,9.886-14.488,15.017-22.278C474.3,132.278,473.109,130.708,472.385,129.813Z" transform="translate(-438.525 -126.189)" fill="#263238"/>
        <path id="Trazado_23977" data-name="Trazado 23977" d="M518.524,131.617c-2.785-2.322-7.174-5-11.8-2.35-.5,1.493,1.239,3.053,2.625,3.906,2.029,1.246,3.753,2.033,5.1,2.945,2.722,1.841,6.238,5.04,7.115,9.068.052.254.254.261.5.181.324-.1.825-1.887.863-4.153C523.018,136.372,521.326,133.939,518.524,131.617Z" transform="translate(-473.222 -125.992)" fill="#263238"/>
        <path id="Trazado_23978" data-name="Trazado 23978" d="M461.58,197.876c-.143-.049-5.709-1.291-5.169,4.271s6.012,3.871,6.008,3.711S461.58,197.876,461.58,197.876Z" transform="translate(-440.458 -171.337)" fill="#ffbe9d"/>
        <path id="Trazado_23979" data-name="Trazado 23979" d="M463.225,207.47c-.028,0-.09.077-.247.167a.969.969,0,0,1-.724.087,2.4,2.4,0,0,1-1.316-2.043,3.19,3.19,0,0,1,.136-1.413,1.114,1.114,0,0,1,.665-.8.494.494,0,0,1,.6.209c.09.15.066.265.1.272s.108-.108.042-.331a.63.63,0,0,0-.251-.327.735.735,0,0,0-.55-.091,1.361,1.361,0,0,0-.929.961,3.283,3.283,0,0,0-.185,1.584A2.517,2.517,0,0,0,462.205,208a1.044,1.044,0,0,0,.87-.233C463.229,207.605,463.246,207.477,463.225,207.47Z" transform="translate(-443.168 -174.891)" fill="#eb996e"/>
        <path id="Trazado_23980" data-name="Trazado 23980" d="M477.19,158.549a16.024,16.024,0,0,0,3.248-1.044,14.246,14.246,0,0,0,5.918-5.531,22.37,22.37,0,0,0,2.684-7.756c.174-1.044.275-1.9.348-2.492a5.344,5.344,0,0,1,.129-.915,4.157,4.157,0,0,1,0,.926c-.024.6-.087,1.459-.233,2.517a21.1,21.1,0,0,1-2.625,7.9,13.867,13.867,0,0,1-6.127,5.57,10.2,10.2,0,0,1-2.437.741,6.158,6.158,0,0,1-.7.084A.7.7,0,0,1,477.19,158.549Z" transform="translate(-454.027 -134.234)" fill="#263238"/>
        <path id="Trazado_23981" data-name="Trazado 23981" d="M552.443,171.777a.937.937,0,0,1-.668,0,1.228,1.228,0,0,1-.564-.536,1.25,1.25,0,0,1-.073-1.006,3.508,3.508,0,0,1,.644-1.124,7.844,7.844,0,0,0,.9-1.271,2.215,2.215,0,0,0,.244-.839,1.9,1.9,0,0,0-.174-.9,4.322,4.322,0,0,0-1.19-1.431,5.967,5.967,0,0,1-1.246-1.271,2.691,2.691,0,0,1-.369-1.553c.045-1.044.393-2,.411-2.837a3.062,3.062,0,0,0-.432-1.9,1.529,1.529,0,0,0-.372-.386c-.1-.07-.157-.1-.16-.094a3.372,3.372,0,0,1,.449.536,3.1,3.1,0,0,1,.348,1.834c-.038.8-.4,1.74-.466,2.837a2.874,2.874,0,0,0,.393,1.7,6.14,6.14,0,0,0,1.288,1.33,4.135,4.135,0,0,1,1.131,1.34,1.705,1.705,0,0,1-.052,1.532,7.918,7.918,0,0,1-.856,1.243,3.673,3.673,0,0,0-.647,1.2,1.416,1.416,0,0,0,.122,1.131,1.316,1.316,0,0,0,.654.557.794.794,0,0,0,.539,0A.366.366,0,0,0,552.443,171.777Z" transform="translate(-501.095 -144.546)" fill="#263238"/>
        <path id="Trazado_23982" data-name="Trazado 23982" d="M473.2,210.341a1.072,1.072,0,0,0,.146-.191,3.564,3.564,0,0,0,.348-.6,5.423,5.423,0,0,0,.48-2.471,5.57,5.57,0,0,0-.348-1.723,10.8,10.8,0,0,0-.964-1.74,2.106,2.106,0,0,1-.327-1.967c.317-.661.975-1.131,1.392-1.887a1.319,1.319,0,0,0,0-1.267,5.423,5.423,0,0,0-.787-.922,2.044,2.044,0,0,1-.393-1.953,5.568,5.568,0,0,1,.849-1.74,10.1,10.1,0,0,0,.881-1.507,2.6,2.6,0,0,0-.073-2.475,1.393,1.393,0,0,0-.5-.477.694.694,0,0,0-.223-.087,1.881,1.881,0,0,1,.644.616,2.532,2.532,0,0,1,0,2.346,10.955,10.955,0,0,1-.891,1.465,5.775,5.775,0,0,0-.905,1.8,2.889,2.889,0,0,0-.07,1.114,2,2,0,0,0,.5,1.044,5.712,5.712,0,0,1,.731.863,1.044,1.044,0,0,1,0,1.027c-.348.675-1.044,1.156-1.392,1.9a1.764,1.764,0,0,0-.09,1.177,3.866,3.866,0,0,0,.446,1.013,11.113,11.113,0,0,1,.971,1.709,5.548,5.548,0,0,1,.348,1.657,5.62,5.62,0,0,1-.386,2.437C473.361,210.052,473.176,210.327,473.2,210.341Z" transform="translate(-450.738 -165.865)" fill="#263238"/>
        <path id="Trazado_23983" data-name="Trazado 23983" d="M422.065,172.475c-.028.073.087.24.446.348a1.9,1.9,0,0,0,1.532-.348,2.7,2.7,0,0,0,1.069-1.525,3.508,3.508,0,0,0,.111-.724,6.119,6.119,0,0,0-.832-3.028,9.513,9.513,0,0,1-1.184-2.746,5.229,5.229,0,0,1,.748-2.99,34.43,34.43,0,0,0,1.977-3.885A18.293,18.293,0,0,0,427,152.825c.324-3.265.094-6.266.2-8.866a20.257,20.257,0,0,1,1.257-6.652,10.931,10.931,0,0,1,2.437-3.784c.393-.369.7-.672.936-.863s.324-.348.285-.442-.212-.087-.526-.021a4.808,4.808,0,0,0-1.3.526,9.447,9.447,0,0,0-3.481,3.808,18.932,18.932,0,0,0-1.981,7.254c-.24,2.785-.094,5.778-.393,8.744a17.3,17.3,0,0,1-.877,4.132c-.418,1.243-1.152,2.412-1.74,3.742a10.1,10.1,0,0,0-.7,2.123,5.571,5.571,0,0,0,0,2.3,6.472,6.472,0,0,0,.8,1.89c.317.522.634.964.905,1.371a5.221,5.221,0,0,1,.964,2.137,2.441,2.441,0,0,1,0,.446,1.554,1.554,0,0,1-.07.376,1.864,1.864,0,0,1-.348.641C422.789,172.423,422.121,172.28,422.065,172.475Z" transform="translate(-417.4 -128.587)" fill="#263238"/>
        <path id="Trazado_23984" data-name="Trazado 23984" d="M515.9,223.776c0,.024-.129.052-.348.1a5.751,5.751,0,0,1-1.023.125,1.49,1.49,0,0,1-.348-.049,1.734,1.734,0,0,1-.372-.139,1.18,1.18,0,0,1-.348-.278,2.4,2.4,0,0,1-.237-.376,2.065,2.065,0,0,1-.327-.9,1.182,1.182,0,0,1,.021-.271l.052-.24c.042-.157.087-.32.146-.48a2.347,2.347,0,0,1,.526-.87,2.192,2.192,0,0,1,.807-.508,3.2,3.2,0,0,1,1.549-.136,3.491,3.491,0,0,1,1.347.39c-.007.042-.539-.066-1.371-.136a3.2,3.2,0,0,0-1.392.191,1.987,1.987,0,0,0-.675.446,2.09,2.09,0,0,0-.439.748,4.068,4.068,0,0,0-.136.442l-.052.223a.849.849,0,0,0,0,.188,1.817,1.817,0,0,0,.268.755,1.114,1.114,0,0,0,.435.55,1.437,1.437,0,0,0,.6.191c.4.028.755,0,1,0S515.9,223.751,515.9,223.776Z" transform="translate(-477.305 -185.673)" fill="#263238"/>
        <path id="Trazado_23985" data-name="Trazado 23985" d="M529.453,263.31l-7.682,2.708s.884,7.474.922,7.011S529.453,263.31,529.453,263.31Z" transform="translate(-483.089 -214.092)" fill="#ffbe9d"/>
        <path id="Trazado_23986" data-name="Trazado 23986" d="M515.9,223.776c0,.024-.129.052-.348.1a5.751,5.751,0,0,1-1.023.125,1.49,1.49,0,0,1-.348-.049,1.734,1.734,0,0,1-.372-.139,1.18,1.18,0,0,1-.348-.278,2.4,2.4,0,0,1-.237-.376,2.065,2.065,0,0,1-.327-.9,1.182,1.182,0,0,1,.021-.271l.052-.24c.042-.157.087-.32.146-.48a2.347,2.347,0,0,1,.526-.87,2.192,2.192,0,0,1,.807-.508,3.2,3.2,0,0,1,1.549-.136,3.491,3.491,0,0,1,1.347.39c-.007.042-.539-.066-1.371-.136a3.2,3.2,0,0,0-1.392.191,1.987,1.987,0,0,0-.675.446,2.09,2.09,0,0,0-.439.748,4.068,4.068,0,0,0-.136.442l-.052.223a.849.849,0,0,0,0,.188,1.817,1.817,0,0,0,.268.755,1.114,1.114,0,0,0,.435.55,1.437,1.437,0,0,0,.6.191c.4.028.755,0,1,0S515.9,223.751,515.9,223.776Z" transform="translate(-477.305 -185.673)" fill="#263238"/>
        <path id="Trazado_23987" data-name="Trazado 23987" d="M565.36,169.908l12.11,7.662,5.639-10L568.4,161.22" transform="translate(-511.506 -147.54)" fill="#ffbe9d"/>
        <path id="Trazado_23988" data-name="Trazado 23988" d="M429.9,167.341s3.923-24.791,4.845-27.333,7-9.051,10.687-8.246,6.3,4.348,6.52,9.82-7.014,44.8-7.014,44.8-10.582,8.132-14.655,3.161S427.433,179.535,429.9,167.341Z" transform="translate(-421.72 -128.291)" fill="#455a64"/>
        <path id="Trazado_23989" data-name="Trazado 23989" d="M426.123,265.934s18.24,5.242,19.57,4.967c5.59-1.159,11.32-9.482,11.32-9.482l3.585-1.009s6.186,19.633,4.212,29.909a109.1,109.1,0,0,1-4.282,16.378l3.255,28.76H410.65l10.836-31.13-2.851-31.656Z" transform="translate(-410.65 -212.202)" fill="#455a64"/>
        <path id="Trazado_23990" data-name="Trazado 23990" d="M567.672,188.4l2.684,2.437L552.38,206.121l3.975,22.936s15.435-14.62,21.547-20.618c9.691-9.524,13.193-16.312,12.26-18.863C588.6,185.3,574.77,176.87,574.77,176.87Z" transform="translate(-503.044 -157.742)" fill="#455a64"/>
        <path id="Trazado_23991" data-name="Trazado 23991" d="M472.945,300.353a5.745,5.745,0,0,1-.63-1.674,16.65,16.65,0,0,1-.4-1.908,18.471,18.471,0,0,1-.184-2.381,18.767,18.767,0,0,1,.153-2.384,16.149,16.149,0,0,1,.376-1.911,6.2,6.2,0,0,1,.606-1.685,29,29,0,0,0-.769,5.977A32.566,32.566,0,0,0,472.945,300.353Z" transform="translate(-450.468 -230.454)" fill="#263238"/>
        <path id="Trazado_23992" data-name="Trazado 23992" d="M507.6,341.17a3,3,0,0,1,.09.773,12.8,12.8,0,0,1-.094,2.116,14.363,14.363,0,0,1-7.773,11.045,12.669,12.669,0,0,1-1.963.8,2.852,2.852,0,0,1-.755.178c-.024-.066,1.044-.348,2.6-1.2a14.967,14.967,0,0,0,7.641-10.854C507.625,342.277,507.535,341.17,507.6,341.17Z" transform="translate(-467.013 -264.849)" fill="#263238"/>
        <path id="Trazado_23993" data-name="Trazado 23993" d="M569.781,293.448a19.654,19.654,0,0,1-1.26,1.66,32.428,32.428,0,0,0-2.719,4.2,33.118,33.118,0,0,0-2.026,4.574,20.641,20.641,0,0,1-.7,1.963,8.044,8.044,0,0,1,.456-2.043,25.377,25.377,0,0,1,4.786-8.852A8.429,8.429,0,0,1,569.781,293.448Z" transform="translate(-510.013 -233.738)" fill="#263238"/>
        <path id="Trazado_23994" data-name="Trazado 23994" d="M482.754,338.759a1.881,1.881,0,0,1-.449.09c-.3.042-.731.122-1.3.174a40.893,40.893,0,0,1-4.811.247,62.109,62.109,0,0,1-7.129-.487c-2.673-.3-5.59-.8-8.65-1.222a60.1,60.1,0,0,0-15.783.118c-2.009.282-3.617.606-4.727.842l-1.274.282a1.953,1.953,0,0,1-.453.077,2.255,2.255,0,0,1,.432-.146c.289-.083.714-.212,1.264-.348,1.1-.282,2.712-.644,4.72-.961a57.727,57.727,0,0,1,7.119-.651c1.347-.035,2.76-.021,4.226.038s2.976.2,4.525.386c3.077.425,5.98.929,8.643,1.253a67.66,67.66,0,0,0,7.094.56c2.026.038,3.666-.038,4.8-.129.564-.031,1-.091,1.3-.108A2.654,2.654,0,0,1,482.754,338.759Z" transform="translate(-428.597 -261.972)" fill="#fff"/>
        <path id="Trazado_23995" data-name="Trazado 23995" d="M586.632,256.306c-.077,0-.052-1.159-.386-2.98-.045-.226-.094-.463-.143-.7s-.132-.5-.2-.762c-.125-.529-.327-1.076-.526-1.653a19.431,19.431,0,0,0-4.177-6.69c-.435-.428-.835-.849-1.257-1.194-.205-.174-.4-.348-.6-.512l-.581-.439c-1.49-1.1-2.545-1.584-2.51-1.65a3.421,3.421,0,0,1,.752.313l.39.191c.143.073.289.167.449.261a10.954,10.954,0,0,1,1.069.675l.6.428c.209.15.407.331.62.5a16.656,16.656,0,0,1,1.3,1.19A18.532,18.532,0,0,1,585.7,250.1c.191.592.39,1.152.5,1.692.059.271.136.526.181.78s.08.494.122.728a12.588,12.588,0,0,1,.139,1.257c0,.184.035.348.038.519v.414A3.663,3.663,0,0,1,586.632,256.306Z" transform="translate(-518.61 -198.72)" fill="#fff"/>
        <path id="Trazado_23996" data-name="Trazado 23996" d="M459.184,197.5a2.652,2.652,0,0,1-.647.348,7.565,7.565,0,0,1-.8.348c-.313.115-.668.261-1.079.372s-.849.258-1.34.348-1.01.2-1.563.292a19.376,19.376,0,0,1-7.254-.348c-.543-.143-1.044-.271-1.532-.439s-.909-.32-1.3-.484-.734-.327-1.044-.47a8.006,8.006,0,0,1-.762-.407,2.686,2.686,0,0,1-.613-.4c.031-.059.94.456,2.506,1.044.393.143.825.3,1.3.432s.978.271,1.514.4a22.772,22.772,0,0,0,3.554.48,23.232,23.232,0,0,0,3.582-.139c.547-.08,1.069-.146,1.546-.254s.929-.205,1.333-.31C458.22,197.869,459.156,197.441,459.184,197.5Z" transform="translate(-430.598 -170.641)" fill="#fff"/>
        <path id="Trazado_23997" data-name="Trazado 23997" d="M447.07,139.3a2.224,2.224,0,0,1,.289-.609,10.184,10.184,0,0,1,1.072-1.479,20.8,20.8,0,0,1,4.685-3.77c.494-.313.982-.609,1.455-.9a9.877,9.877,0,0,1,1.434-.741,3.968,3.968,0,0,1,1.459-.3,3.886,3.886,0,0,1,1.274.223,7.409,7.409,0,0,1,1.636.835,2.221,2.221,0,0,1,.533.407,2.729,2.729,0,0,1-.606-.285,9.348,9.348,0,0,0-1.64-.7,3.83,3.83,0,0,0-1.194-.164,3.706,3.706,0,0,0-1.337.31,10.2,10.2,0,0,0-1.392.734c-.466.292-.95.6-1.448.9a23.78,23.78,0,0,0-4.685,3.634C447.575,138.518,447.126,139.332,447.07,139.3Z" transform="translate(-434.392 -128.165)" fill="#263238"/>
      </g>
      <g id="freepik--character-1--inject-8" transform="translate(13.291 33.57)">
        <path id="Trazado_23998" data-name="Trazado 23998" d="M147.439,176.86l-4.814,8.354-1.076,5.942-9.186,14.714-1.243,1.991,9.524,6.642s5.984-13.576,6.649-14.867,3.37-2.123,3.37-2.123l4.3-7.571Z" transform="translate(-117.604 -158.493)" fill="#ffbe9d"/>
        <path id="Trazado_23999" data-name="Trazado 23999" d="M176.25,211.37a8.143,8.143,0,0,1,.111-1.713,19.138,19.138,0,0,0,.045-4.087,8.5,8.5,0,0,0-1.358-3.78c-.592-.856-1.135-1.243-1.093-1.295s.16.059.4.24a5.086,5.086,0,0,1,.895.905,7.855,7.855,0,0,1,1.518,3.9,15.384,15.384,0,0,1-.157,4.177A7.028,7.028,0,0,1,176.25,211.37Z" transform="translate(-145.528 -173.893)" fill="#eb996e"/>
        <path id="Trazado_24000" data-name="Trazado 24000" d="M210.3,271l40.163,6.962s-33.9,3.561-33.919,3.095S210.3,271,210.3,271Z" transform="translate(-169.222 -219.863)" fill="#ffbe9d"/>
        <path id="Trazado_24001" data-name="Trazado 24001" d="M258.276,158.208c-.094-2.437-1.549-4.571-2.632-6.757a50.762,50.762,0,0,1-3.293-10.123,39.263,39.263,0,0,0-3.6-10,14.334,14.334,0,0,0-7.874-6.816c-3.4-1.041-7.512-.1-9.614,2.764l3.909,8.354a169.047,169.047,0,0,0,11.466,36.864,49.7,49.7,0,0,0,11.31-2.785c.745-.282,1.587-.7,1.74-1.479.188-.954-.745-1.7-1.274-2.513a5.5,5.5,0,0,1-.574-3.7A23.863,23.863,0,0,0,258.276,158.208Z" transform="translate(-182.886 -124.097)" fill="#263238"/>
        <path id="Trazado_24002" data-name="Trazado 24002" d="M234.217,133.138a9.776,9.776,0,0,0-4.567-1.239,3.272,3.272,0,0,0-1.873.407,1.436,1.436,0,0,0-.637,1.674l5.093,4.115a2.569,2.569,0,0,0,2.785-.651,2.7,2.7,0,0,0,1-2.054A3.051,3.051,0,0,0,234.217,133.138Z" transform="translate(-180.145 -129.176)" fill="#455a64"/>
        <path id="Trazado_24003" data-name="Trazado 24003" d="M229.61,294.26" transform="translate(-181.81 -235.027)" fill="#ffbe9d"/>
        <path id="Trazado_24004" data-name="Trazado 24004" d="M180.757,166.936a15.008,15.008,0,0,1,10.861-17.356,14.574,14.574,0,0,1,17.962,10.847l6.207,32.244c.122.623,1.333,3.324,1.044,3.892-1.542,3.039-6.026,3.617-9.051,4.452a14.027,14.027,0,0,1-8.8-.651,2.806,2.806,0,0,1-1.72-2.193l-1.086-7.258a.048.048,0,0,0-.055-.042h0a9.913,9.913,0,0,1-2.047.212c-1.988-.216-7.139-1.459-9.747-8.438C183.486,180.33,182.059,173.626,180.757,166.936Z" transform="translate(-149.788 -140.403)" fill="#ffbe9d"/>
        <path id="Trazado_24005" data-name="Trazado 24005" d="M209.829,207.083a8.666,8.666,0,0,0-2.134.052c-.331.031-.651.031-.748-.174a1.647,1.647,0,0,1,.028-.992c.153-.832.313-1.709.48-2.625a43.478,43.478,0,0,0,.9-6.795,43.56,43.56,0,0,0-1.452,6.715c-.153.919-.3,1.793-.439,2.632a1.87,1.87,0,0,0,.08,1.288.832.832,0,0,0,.627.348,2.339,2.339,0,0,0,.564-.038A8.558,8.558,0,0,0,209.829,207.083Z" transform="translate(-166.672 -171.329)" fill="#263238"/>
        <path id="Trazado_24006" data-name="Trazado 24006" d="M193.485,211.744c-.157-.181-1.044.7-2.336.762s-2.27-.658-2.405-.456c-.066.09.1.421.526.762a2.841,2.841,0,0,0,3.784-.244C193.44,212.165,193.561,211.817,193.485,211.744Z" transform="translate(-155.16 -181.218)" fill="#263238"/>
        <path id="Trazado_24007" data-name="Trazado 24007" d="M228.817,202.739c-.226-.1-.766,1.076-2.022,1.692s-2.517.348-2.569.6c-.031.108.261.348.822.48a3.258,3.258,0,0,0,3.665-1.824C228.939,203.174,228.925,202.78,228.817,202.739Z" transform="translate(-178.299 -175.36)" fill="#263238"/>
        <path id="Trazado_24008" data-name="Trazado 24008" d="M225.84,258.8s4.985-.6,10.4-5.472c0,0-.675,6.774-10.06,7.794Z" transform="translate(-179.353 -208.344)" fill="#eb996e"/>
        <path id="Trazado_24009" data-name="Trazado 24009" d="M225.445,191.477c-.108-.348-1.392-.258-2.921-.515s-2.712-.731-2.931-.432c-.1.143.094.48.571.839a4.925,4.925,0,0,0,2.144.867,5.026,5.026,0,0,0,2.315-.143C225.195,191.9,225.491,191.644,225.445,191.477Z" transform="translate(-175.265 -167.342)" fill="#263238"/>
        <path id="Trazado_24010" data-name="Trazado 24010" d="M189.2,195.508c-.376-.118-1.156.665-2.263,1.3s-2.151.989-2.221,1.375c-.024.181.265.348.811.348a4.175,4.175,0,0,0,2.089-.627,4.083,4.083,0,0,0,1.532-1.528C189.389,195.908,189.375,195.574,189.2,195.508Z" transform="translate(-152.544 -170.642)" fill="#263238"/>
        <path id="Trazado_24011" data-name="Trazado 24011" d="M207.586,140.992a4.411,4.411,0,0,1,3.07-2.311c5.57-1.608,12.382.985,16.2,5.357s4.929,11.487,3.286,17.057l-2.089.654c-4.484.317-13.576-11.09-20.726-17.112C206.445,143.9,207.134,142.061,207.586,140.992Z" transform="translate(-167.006 -133.291)" fill="#263238"/>
        <path id="Trazado_24012" data-name="Trazado 24012" d="M174.86,150.126c2.026-3.021,5.458-6.833,10.648-5.6.912,1.288-.32,3.279-1.392,4.487-1.591,1.775-3.021,3.018-4.055,4.271-2.089,2.538-4.55,6.614-4.247,10.714.021.258-.171.32-.432.317-.348,0-1.326-1.573-2.009-3.739C171.895,155.96,172.828,153.144,174.86,150.126Z" transform="translate(-144.678 -137.259)" fill="#263238"/>
        <path id="Trazado_24013" data-name="Trazado 24013" d="M262.63,197.541c.122-.09,5.107-2.861,6.168,2.625s-4.665,5.42-4.706,5.267S262.63,197.541,262.63,197.541Z" transform="translate(-203.336 -171.467)" fill="#ffbe9d"/>
        <path id="Trazado_24014" data-name="Trazado 24014" d="M269.825,206.21c.021-.021.108.049.285.094a.967.967,0,0,0,.717-.125,2.433,2.433,0,0,0,.7-2.332,3.2,3.2,0,0,0-.529-1.316,1.117,1.117,0,0,0-.863-.6.487.487,0,0,0-.512.369,1.24,1.24,0,0,0-.017.285c-.017.014-.136-.07-.132-.3a.613.613,0,0,1,.146-.386.742.742,0,0,1,.5-.24,1.358,1.358,0,0,1,1.163.658,3.324,3.324,0,0,1,.627,1.462,2.534,2.534,0,0,1-.936,2.642,1.044,1.044,0,0,1-.9.021C269.86,206.342,269.808,206.224,269.825,206.21Z" transform="translate(-207.795 -174.661)" fill="#eb996e"/>
        <path id="Trazado_24015" data-name="Trazado 24015" d="M176.19,159.182a6.3,6.3,0,0,0,1.643-.031,22.913,22.913,0,0,0,3.9-.721,22.6,22.6,0,0,0,3.711-1.392,6.182,6.182,0,0,0,1.424-.815,11.726,11.726,0,0,0-1.521.592,32.233,32.233,0,0,1-7.54,2.089A10.4,10.4,0,0,0,176.19,159.182Z" transform="translate(-146.986 -145.037)" fill="#455a64"/>
        <path id="Trazado_24016" data-name="Trazado 24016" d="M172.56,171.417a3.167,3.167,0,0,0,1.243.1,9.4,9.4,0,0,0,5.57-2.123,3.223,3.223,0,0,0,.86-.905,16.755,16.755,0,0,1-3.592,2.089A20.227,20.227,0,0,1,172.56,171.417Z" transform="translate(-144.619 -153.036)" fill="#455a64"/>
        <path id="Trazado_24017" data-name="Trazado 24017" d="M228.167,153.732c-.021-.066-1.173.324-3.109.56a24.12,24.12,0,0,1-3.415.16,30.251,30.251,0,0,1-4.177-.435,32.785,32.785,0,0,1-4.048-1.009,30.069,30.069,0,0,1-3.189-1.246c-1.775-.811-2.785-1.469-2.83-1.417a3.707,3.707,0,0,0,.7.5,9.7,9.7,0,0,0,.856.519c.348.195.728.414,1.173.623a26.25,26.25,0,0,0,3.192,1.326,30.073,30.073,0,0,0,4.1,1.044,28.345,28.345,0,0,0,4.215.414,21.793,21.793,0,0,0,3.453-.237,12.14,12.14,0,0,0,1.305-.251,8.145,8.145,0,0,0,.971-.258A4.046,4.046,0,0,0,228.167,153.732Z" transform="translate(-167.331 -141.206)" fill="#455a64"/>
        <path id="Trazado_24018" data-name="Trazado 24018" d="M209.29,155.707a4.434,4.434,0,0,0,.557.7,9.843,9.843,0,0,0,.7.769c.292.289.609.634,1.006.968a22.64,22.64,0,0,0,2.868,2.21,24.69,24.69,0,0,0,3.951,2.071,24.218,24.218,0,0,0,4.261,1.257,21.941,21.941,0,0,0,3.617.376,12.793,12.793,0,0,0,1.392-.021,8.885,8.885,0,0,0,1.044-.084,4.224,4.224,0,0,0,.884-.139c0-.073-1.274.09-3.314,0a23.648,23.648,0,0,1-3.554-.442,25.567,25.567,0,0,1-4.177-1.264,26.224,26.224,0,0,1-3.892-2.012,25.119,25.119,0,0,1-2.882-2.127C210.171,156.633,209.342,155.662,209.29,155.707Z" transform="translate(-168.564 -144.703)" fill="#455a64"/>
        <path id="Trazado_24019" data-name="Trazado 24019" d="M223.6,169.187a15.944,15.944,0,0,1-3.411-.084,14.271,14.271,0,0,1-7.258-3.62,22.4,22.4,0,0,1-4.772-6.677c-.463-.954-.8-1.74-1.044-2.294a5.416,5.416,0,0,0-.386-.842,4.5,4.5,0,0,0,.258.891c.195.564.5,1.392.936,2.346a21.135,21.135,0,0,0,4.762,6.83,13.927,13.927,0,0,0,7.456,3.606,9.976,9.976,0,0,0,2.534.024,5.735,5.735,0,0,0,.7-.115C223.533,169.221,223.606,169.2,223.6,169.187Z" transform="translate(-166.895 -144.68)" fill="#263238"/>
        <path id="Trazado_24020" data-name="Trazado 24020" d="M176.327,196.659a.9.9,0,0,0,.634-.2,1.232,1.232,0,0,0,.393-.672,1.284,1.284,0,0,0-.219-.989,3.542,3.542,0,0,0-.933-.895,8.169,8.169,0,0,1-1.225-.961,2.237,2.237,0,0,1-.47-.738,1.881,1.881,0,0,1-.087-.912,4.243,4.243,0,0,1,.734-1.709,5.972,5.972,0,0,0,.832-1.57,2.653,2.653,0,0,0-.087-1.6c-.348-1-.94-1.8-1.2-2.6a3.067,3.067,0,0,1-.125-1.946,1.689,1.689,0,0,1,.247-.477c.08-.094.122-.139.129-.132a3.259,3.259,0,0,0-.278.641,3.1,3.1,0,0,0,.2,1.852c.265.762.877,1.542,1.253,2.59a2.886,2.886,0,0,1,.1,1.74,6.17,6.17,0,0,1-.856,1.643,4.1,4.1,0,0,0-.7,1.6,1.7,1.7,0,0,0,.487,1.452,7.619,7.619,0,0,0,1.173.95,3.75,3.75,0,0,1,.964.971,1.413,1.413,0,0,1,.2,1.117,1.313,1.313,0,0,1-.47.721.767.767,0,0,1-.515.164A.322.322,0,0,1,176.327,196.659Z" transform="translate(-145.818 -161.36)" fill="#263238"/>
        <path id="Trazado_24021" data-name="Trazado 24021" d="M246.478,158.8a1.616,1.616,0,0,1,0-.3c0-.191.035-.473.042-.839a25.806,25.806,0,0,0-.059-3.091,21.242,21.242,0,0,0-.839-4.487,17.856,17.856,0,0,0-2.388-5.03,13.986,13.986,0,0,0-1.887-2.176,14.9,14.9,0,0,0-2.137-1.633,18.636,18.636,0,0,0-4.139-1.918,26.3,26.3,0,0,0-2.987-.787c-.348-.08-.637-.122-.828-.164a1.575,1.575,0,0,1-.285-.07,1.108,1.108,0,0,1,.3,0c.191.028.473.052.835.118a21.639,21.639,0,0,1,3.025.7,18.243,18.243,0,0,1,4.209,1.921,15.088,15.088,0,0,1,2.183,1.646,13.864,13.864,0,0,1,1.928,2.217,17.8,17.8,0,0,1,2.405,5.121,20.671,20.671,0,0,1,.794,4.525,21.5,21.5,0,0,1-.021,3.105c-.024.369-.07.651-.09.842A1.075,1.075,0,0,1,246.478,158.8Z" transform="translate(-182.697 -133.357)" fill="#455a64"/>
        <path id="Trazado_24022" data-name="Trazado 24022" d="M260.4,212.008a1.714,1.714,0,0,1-.195-.139,3.854,3.854,0,0,1-.487-.484,5.442,5.442,0,0,1-1.163-2.235,5.625,5.625,0,0,1-.16-1.74,11.114,11.114,0,0,1,.428-1.956,2.118,2.118,0,0,0-.244-1.981c-.491-.546-1.257-.808-1.866-1.417a1.32,1.32,0,0,1-.366-1.211,5.688,5.688,0,0,1,.48-1.086,2.047,2.047,0,0,0-.178-1.984,5.625,5.625,0,0,0-1.309-1.431,10.309,10.309,0,0,1-1.274-1.194,2.6,2.6,0,0,1-.63-2.391,1.431,1.431,0,0,1,.348-.6.7.7,0,0,1,.191-.146,1.786,1.786,0,0,0-.442.773,2.531,2.531,0,0,0,.672,2.249,10.275,10.275,0,0,0,1.274,1.149,5.741,5.741,0,0,1,1.375,1.476,2.786,2.786,0,0,1,.386,1.044,2.032,2.032,0,0,1-.185,1.159,5.707,5.707,0,0,0-.459,1.044,1.045,1.045,0,0,0,.3.982c.533.547,1.34.808,1.873,1.431a1.776,1.776,0,0,1,.421,1.1,3.9,3.9,0,0,1-.139,1.1,10.6,10.6,0,0,0-.445,1.915,5.569,5.569,0,0,0,1.183,3.906C260.155,211.782,260.413,211.991,260.4,212.008Z" transform="translate(-197.293 -168.37)" fill="#263238"/>
        <path id="Trazado_24023" data-name="Trazado 24023" d="M282.613,165.984c.049.063-.017.258-.348.456a1.907,1.907,0,0,1-1.57.091,2.785,2.785,0,0,1-1.459-1.159,3.419,3.419,0,0,1-.31-.665,6.1,6.1,0,0,1-.063-3.133,9.245,9.245,0,0,0,.348-2.966,5.308,5.308,0,0,0-1.566-2.659,34.6,34.6,0,0,1-3-3.161,18.372,18.372,0,0,1-2.378-4.254c-1.236-3.039-1.866-5.97-2.708-8.445a20.279,20.279,0,0,0-3.095-6.022,10.95,10.95,0,0,0-3.394-2.941c-.48-.24-.867-.442-1.142-.564s-.414-.254-.4-.348.181-.143.5-.167a4.7,4.7,0,0,1,1.392.132,9.431,9.431,0,0,1,4.407,2.67,19,19,0,0,1,3.965,6.422c1.02,2.611,1.741,5.517,2.858,8.274a17.578,17.578,0,0,0,2.036,3.714c.755,1.069,1.793,1.981,2.746,3.091a9.712,9.712,0,0,1,1.284,1.834,5.592,5.592,0,0,1,.644,2.207,6.488,6.488,0,0,1-.233,2.04c-.157.592-.348,1.1-.48,1.57a5.219,5.219,0,0,0-.317,2.322,2.313,2.313,0,0,0,.111.435,1.454,1.454,0,0,0,.171.348,1.968,1.968,0,0,0,.515.519C281.907,166.155,282.505,165.828,282.613,165.984Z" transform="translate(-202.618 -127.971)" fill="#263238"/>
        <path id="Trazado_24024" data-name="Trazado 24024" d="M225.058,233.99c-.028.049-.3-.07-.755-.136a3.133,3.133,0,0,0-3.091,1.291c-.268.369-.379.647-.432.63s-.021-.324.216-.769a2.914,2.914,0,0,1,3.363-1.392C224.838,233.746,225.078,233.952,225.058,233.99Z" transform="translate(-176.039 -195.416)" fill="#263238"/>
        <path id="Trazado_24025" data-name="Trazado 24025" d="M233.837,207.764c.042.021,0,.216-.167.487a2.587,2.587,0,0,1-2.089,1.163c-.317,0-.5-.073-.5-.118a11.623,11.623,0,0,0,1.518-.526C233.36,208.335,233.75,207.712,233.837,207.764Z" transform="translate(-182.768 -178.638)" fill="#eb996e"/>
        <path id="Trazado_24026" data-name="Trazado 24026" d="M193.551,218.16c.031.031-.059.2-.292.4a2.3,2.3,0,0,1-2.27.327c-.282-.122-.414-.261-.393-.3a8.773,8.773,0,0,0,1.521.08A9.134,9.134,0,0,0,193.551,218.16Z" transform="translate(-156.376 -185.413)" fill="#eb996e"/>
        <path id="Trazado_24027" data-name="Trazado 24027" d="M184.25,215.864a11.69,11.69,0,0,1-.418-1.848c-.226-1.152-.536-2.726-.919-4.463s-.776-3.3-1.044-4.431a13.143,13.143,0,0,1-.4-1.852,8.762,8.762,0,0,1,.651,1.782c.348,1.117.776,2.677,1.166,4.424s.661,3.338.822,4.5A7.94,7.94,0,0,1,184.25,215.864Z" transform="translate(-150.42 -175.71)" fill="#eb996e"/>
        <path id="Trazado_24028" data-name="Trazado 24028" d="M243.656,207.6a1.389,1.389,0,0,0-.571-.376,3.132,3.132,0,0,0-1.935-.111l.216.129c.258.254.515.508.776.759a2.056,2.056,0,0,0,.8.564.7.7,0,0,0,.842-.32A.643.643,0,0,0,243.656,207.6Z" transform="translate(-189.333 -178.151)" fill="#455a64"/>
        <path id="Trazado_24029" data-name="Trazado 24029" d="M244.8,213.248a1.128,1.128,0,0,0-.167-.553,2.651,2.651,0,0,0-1.194-1.124l.07.2c.031.306.059.613.091.919a1.74,1.74,0,0,0,.212.8.6.6,0,0,0,.721.254A.56.56,0,0,0,244.8,213.248Z" transform="translate(-190.826 -181.121)" fill="#455a64"/>
        <path id="Trazado_24030" data-name="Trazado 24030" d="M227.158,278.22a16.566,16.566,0,0,1-.654-3.359,16.254,16.254,0,0,1-.3-3.411,16.3,16.3,0,0,1,.654,3.359A14.962,14.962,0,0,1,227.158,278.22Z" transform="translate(-179.57 -220.157)" fill="#eb996e"/>
        <path id="Trazado_24031" data-name="Trazado 24031" d="M171.529,334.537,170,309.3l7.115-27.5-3.578-11.658s-27.813,2.538-29.2,2.68c-4.452.452-10.962-9.642-10.962-9.642h-3.617a9.473,9.473,0,0,0-7.025,2.6c-3.471,3.084-9.507,8.264-9.507,8.264l4.525-8.852L104.333,259s-8.051,14.272-10.262,19.3c-1.462,3.314-3.746,9.155,1.472,14.749,3.192,3.422,12.615,4.616,15.664,3.617,2.089-.7,8.7-4.327,12.733-6.579.031.533.08,1.044.15,1.546a109.339,109.339,0,0,0,3.429,16.58l-3.627,26.33Z" transform="translate(-92.293 -212.041)" fill="#455a64"/>
        <path id="Trazado_24032" data-name="Trazado 24032" d="M134.525,298.794c-.09-.045,2.228-4.978,5.176-11.017s5.409-10.9,5.5-10.857-2.224,4.974-5.173,11.017S134.616,298.836,134.525,298.794Z" transform="translate(-119.823 -223.722)" fill="#263238"/>
        <path id="Trazado_24033" data-name="Trazado 24033" d="M184.177,344.878a7.609,7.609,0,0,1-.435-1.149c-.261-.748-.606-1.841-1.009-3.2-.8-2.715-1.789-6.506-2.607-10.746s-1.312-8.132-1.573-10.948c-.132-1.392-.216-2.552-.251-3.342a8.224,8.224,0,0,1-.024-1.229,7.761,7.761,0,0,1,.164,1.218c.08.787.2,1.922.348,3.324.324,2.806.86,6.673,1.674,10.906s1.758,8.006,2.5,10.746c.369,1.361.679,2.461.9,3.223A7.811,7.811,0,0,1,184.177,344.878Z" transform="translate(-148.338 -248.071)" fill="#263238"/>
        <path id="Trazado_24034" data-name="Trazado 24034" d="M312.381,291s6.725,4.762,8.354,11.031S330.907,355.4,330.907,355.4H315.974L305.28,316.759Z" transform="translate(-231.14 -232.902)" fill="#455a64"/>
        <path id="Trazado_24035" data-name="Trazado 24035" d="M230.916,356.447a3.226,3.226,0,0,1-.494.132c-.327.07-.8.191-1.431.3a46.789,46.789,0,0,1-5.336.665,58.849,58.849,0,0,1-7.975,0,78.07,78.07,0,0,1-9.688-1.257,141.542,141.542,0,0,1-17.106-4.644c-2.155-.714-3.888-1.312-5.082-1.74l-1.375-.494a3,3,0,0,1-.47-.195,2.476,2.476,0,0,1,.494.125l1.392.432,5.117,1.622a156.37,156.37,0,0,0,17.092,4.525,81.3,81.3,0,0,0,9.639,1.288,62.642,62.642,0,0,0,7.937.077c2.256-.132,4.076-.348,5.326-.55.63-.083,1.11-.184,1.441-.23A2.4,2.4,0,0,1,230.916,356.447Z" transform="translate(-150.747 -270.849)" fill="#fff"/>
        <path id="Trazado_24036" data-name="Trazado 24036" d="M329.426,376.08c0,.066-.989.09-2.562.313-.393.056-.821.122-1.281.216s-.943.2-1.455.317a29.325,29.325,0,0,0-3.248,1.044,29.818,29.818,0,0,0-3.091,1.448c-.453.261-.891.5-1.284.755s-.759.487-1.086.7c-1.305.905-2.05,1.556-2.089,1.511a2.61,2.61,0,0,1,.48-.5c.164-.157.365-.348.613-.543s.522-.439.849-.672.675-.5,1.076-.759.825-.519,1.284-.794a26.67,26.67,0,0,1,3.133-1.493,26,26,0,0,1,3.3-1.02c.519-.111,1.013-.223,1.479-.289s.9-.132,1.3-.174.762-.063,1.083-.084.592-.024.815-.017A2.627,2.627,0,0,1,329.426,376.08Z" transform="translate(-236.387 -288.331)" fill="#fff"/>
        <path id="Trazado_24037" data-name="Trazado 24037" d="M155.385,327.8c-.063,0-.178-.891-.526-2.3a23.891,23.891,0,0,0-.738-2.437,25.657,25.657,0,0,0-1.246-2.858,26.774,26.774,0,0,0-1.615-2.67,24.5,24.5,0,0,0-1.566-2.009c-.95-1.1-1.619-1.713-1.577-1.741a2.186,2.186,0,0,1,.512.383c.16.129.348.3.557.5s.453.432.7.7a19.93,19.93,0,0,1,1.674,1.981,22.777,22.777,0,0,1,1.664,2.694,23.337,23.337,0,0,1,1.243,2.914,20.352,20.352,0,0,1,.672,2.492c.084.348.125.7.171.978q.062.368.087.741A2.208,2.208,0,0,1,155.385,327.8Z" transform="translate(-128.683 -247.752)" fill="#fff"/>
      </g>
      <g id="freepik--character-2--inject-8" transform="translate(75.983 32.915)">
        <path id="Trazado_24038" data-name="Trazado 24038" d="M407.151,159.865c.39-2.409-.606-4.79-1.232-7.146a50.28,50.28,0,0,1-1.208-10.575,39.084,39.084,0,0,0-1.532-10.523,14.3,14.3,0,0,0-6.36-8.246c-3.126-1.7-7.338-1.6-9.97.787l2.162,8.967a168.986,168.986,0,0,0,3.885,38.409,49.708,49.708,0,0,0,11.637-.484c.79-.125,1.7-.366,2.005-1.1.372-.895-.393-1.814-.752-2.715a5.488,5.488,0,0,1,.178-3.742A22.888,22.888,0,0,0,407.151,159.865Z" transform="translate(-347.024 -122.217)" fill="#263238"/>
        <path id="Trazado_24039" data-name="Trazado 24039" d="M389.086,129.057a9.706,9.706,0,0,0-4.226-2.123,3.272,3.272,0,0,0-1.918.024,1.447,1.447,0,0,0-.961,1.514l4.177,5.047a2.589,2.589,0,0,0,2.868-.08,2.7,2.7,0,0,0,1.392-1.814A3.112,3.112,0,0,0,389.086,129.057Z" transform="translate(-343.836 -125.205)" fill="#ff725e"/>
        <path id="Trazado_24040" data-name="Trazado 24040" d="M353.11,285.28" transform="translate(-325.029 -228.518)" fill="#ffbe9d"/>
        <path id="Trazado_24041" data-name="Trazado 24041" d="M324.721,155.815a15,15,0,0,1,14.1-14.839,14.571,14.571,0,0,1,15.435,14.213l-.348,32.833a2.852,2.852,0,0,1-.627,1.74A13.385,13.385,0,0,1,344.4,194.6a14.023,14.023,0,0,1-8.49-2.391,2.786,2.786,0,0,1-1.246-2.492l.379-7.317a.042.042,0,0,0-.034-.048H335a10.054,10.054,0,0,1-2.047-.2c-1.9-.609-6.7-2.851-7.85-10.21C324.724,169.485,324.644,162.631,324.721,155.815Z" transform="translate(-306.505 -134.434)" fill="#ffbe9d"/>
        <path id="Trazado_24042" data-name="Trazado 24042" d="M347.344,196.642a8.683,8.683,0,0,0-2.089-.372c-.331-.035-.644-.1-.7-.324a1.663,1.663,0,0,1,.226-.964l1-2.475a40.412,40.412,0,0,0,2.235-6.478,40.826,40.826,0,0,0-2.76,6.29c-.331.867-.651,1.7-.954,2.489a1.847,1.847,0,0,0-.178,1.278.819.819,0,0,0,.543.477,2.344,2.344,0,0,0,.56.077A8.436,8.436,0,0,0,347.344,196.642Z" transform="translate(-319.131 -163.815)" fill="#263238"/>
        <path id="Trazado_24043" data-name="Trazado 24043" d="M336,197.786a1.187,1.187,0,0,0,1.156,1.2,1.152,1.152,0,0,0,1.245-1.051v-.017a1.183,1.183,0,0,0-1.152-1.194,1.149,1.149,0,0,0-1.248,1.04Z" transform="translate(-313.875 -170.783)" fill="#263238"/>
        <path id="Trazado_24044" data-name="Trazado 24044" d="M331.406,185.452c.132.2,1.124-.547,2.416-.449s2.165.95,2.325.769c.077-.077-.042-.432-.421-.825a2.837,2.837,0,0,0-1.834-.849,2.879,2.879,0,0,0-1.946.592C331.511,185.035,331.344,185.369,331.406,185.452Z" transform="translate(-310.872 -162.553)" fill="#263238"/>
        <path id="Trazado_24045" data-name="Trazado 24045" d="M371.32,199.157a1.183,1.183,0,0,0,1.152,1.2,1.156,1.156,0,0,0,1.249-1.055v-.014a1.187,1.187,0,0,0-1.152-1.194,1.152,1.152,0,0,0-1.248,1.047Z" transform="translate(-336.9 -171.677)" fill="#263238"/>
        <path id="Trazado_24046" data-name="Trazado 24046" d="M366.535,185.248c.171.181,1.117-.7,2.517-.783s2.458.641,2.6.439c.07-.091-.108-.425-.574-.762a3.258,3.258,0,0,0-4.087.275C366.584,184.816,366.452,185.167,366.535,185.248Z" transform="translate(-333.765 -162.199)" fill="#263238"/>
        <path id="Trazado_24047" data-name="Trazado 24047" d="M354.205,253.669s5,.407,11.285-3.29c0,0-2.012,6.5-11.411,5.632Z" transform="translate(-325.661 -205.767)" fill="#eb996e"/>
        <path id="Trazado_24048" data-name="Trazado 24048" d="M354.723,223.727a2.371,2.371,0,0,1,2.089-.853,2.128,2.128,0,0,1,1.465.776,1.309,1.309,0,0,1,.094,1.521,1.6,1.6,0,0,1-1.7.421,4.916,4.916,0,0,1-1.65-.975,1.464,1.464,0,0,1-.369-.376.418.418,0,0,1,0-.477" transform="translate(-325.984 -187.826)" fill="#eb996e"/>
        <path id="Trazado_24049" data-name="Trazado 24049" d="M361.99,172.69c.122.348,1.42.209,2.934.418s2.74.637,2.948.331c.094-.146-.115-.477-.6-.821a5.221,5.221,0,0,0-4.48-.567C362.227,172.259,361.941,172.527,361.99,172.69Z" transform="translate(-330.814 -154.529)" fill="#263238"/>
        <path id="Trazado_24050" data-name="Trazado 24050" d="M330.816,177.013c.278.282,1.333-.049,2.611-.1s2.36.125,2.6-.184c.1-.15-.073-.435-.55-.7a4.439,4.439,0,0,0-4.2.23C330.854,176.574,330.694,176.874,330.816,177.013Z" transform="translate(-310.469 -157.024)" fill="#263238"/>
        <path id="Trazado_24051" data-name="Trazado 24051" d="M360.033,132.914a4.408,4.408,0,0,1,3.481-1.653c5.789-.463,11.94,3.436,14.808,8.483s2.538,12.253-.184,17.38l-2.176.223c-4.456-.581-11.1-13.576-16.893-20.9C358.335,135.535,359.379,133.867,360.033,132.914Z" transform="translate(-328.75 -128.088)" fill="#263238"/>
        <path id="Trazado_24052" data-name="Trazado 24052" d="M323.218,136.892c2.586-2.555,6.711-5.6,11.553-3.363.634,1.445-.968,3.133-2.277,4.118-1.911,1.42-3.561,2.353-4.821,3.377-2.552,2.068-5.778,5.57-6.3,9.653-.031.254-.233.278-.487.219-.331-.073-.985-1.8-1.222-4.062C319.155,142.023,320.631,139.45,323.218,136.892Z" transform="translate(-303.16 -129.083)" fill="#263238"/>
        <path id="Trazado_24053" data-name="Trazado 24053" d="M404.2,197.927c.139-.066,5.57-1.786,5.521,3.8s-5.653,4.383-5.664,4.222S404.2,197.927,404.2,197.927Z" transform="translate(-358.242 -171.377)" fill="#ffbe9d"/>
        <path id="Trazado_24054" data-name="Trazado 24054" d="M409,207.246c.024-.017.094.07.261.146a.96.96,0,0,0,.724.024,2.412,2.412,0,0,0,1.138-2.151,3.214,3.214,0,0,0-.261-1.392,1.121,1.121,0,0,0-.724-.755.5.5,0,0,0-.578.261c-.073.157-.042.268-.07.278s-.118-.1-.073-.327a.627.627,0,0,1,.223-.348.736.736,0,0,1,.54-.136,1.372,1.372,0,0,1,1.009.877,3.281,3.281,0,0,1,.324,1.559,2.526,2.526,0,0,1-1.445,2.4,1.044,1.044,0,0,1-.891-.157A.472.472,0,0,1,409,207.246Z" transform="translate(-361.464 -174.774)" fill="#eb996e"/>
        <path id="Trazado_24055" data-name="Trazado 24055" d="M326.6,146.261a6.275,6.275,0,0,0,1.612.3,23.058,23.058,0,0,0,3.961.07,22.765,22.765,0,0,0,3.916-.609,6.173,6.173,0,0,0,1.556-.515,11.84,11.84,0,0,0-1.608.275,33.991,33.991,0,0,1-3.888.508,33.1,33.1,0,0,1-3.916.028A9.994,9.994,0,0,0,326.6,146.261Z" transform="translate(-307.747 -137.394)" fill="#455a64"/>
        <path id="Trazado_24056" data-name="Trazado 24056" d="M320.61,156.378a3.243,3.243,0,0,0,1.2.348,9.4,9.4,0,0,0,5.879-.971,3.422,3.422,0,0,0,1.02-.717,17.114,17.114,0,0,1-3.937,1.34A19.224,19.224,0,0,1,320.61,156.378Z" transform="translate(-303.842 -143.608)" fill="#455a64"/>
        <path id="Trazado_24057" data-name="Trazado 24057" d="M379.724,147.3c0-.073-1.218.08-3.161-.073a24.313,24.313,0,0,1-3.377-.522,30.835,30.835,0,0,1-3.993-1.239,33.859,33.859,0,0,1-3.777-1.814,30.706,30.706,0,0,1-2.875-1.859c-1.577-1.149-2.437-2-2.492-1.953a4.165,4.165,0,0,0,.581.627,9.664,9.664,0,0,0,.738.679,12.647,12.647,0,0,0,1.044.846,26.609,26.609,0,0,0,2.861,1.935,30.806,30.806,0,0,0,3.808,1.841,28.446,28.446,0,0,0,4.052,1.246,21.385,21.385,0,0,0,3.429.456,12.372,12.372,0,0,0,1.33.017,7.911,7.911,0,0,0,1-.063A4.383,4.383,0,0,0,379.724,147.3Z" transform="translate(-329.553 -133.702)" fill="#455a64"/>
        <path id="Trazado_24058" data-name="Trazado 24058" d="M360.83,145.459a4.521,4.521,0,0,0,.4.8,9.879,9.879,0,0,0,.547.9c.23.348.466.745.79,1.149a23.294,23.294,0,0,0,2.371,2.74,24.788,24.788,0,0,0,3.443,2.806,24.5,24.5,0,0,0,3.927,2.089,21.413,21.413,0,0,0,3.46,1.086c.5.132.968.188,1.368.258a8.936,8.936,0,0,0,1.044.129,4.251,4.251,0,0,0,.895.038c0-.07-1.267-.164-3.248-.661a24.027,24.027,0,0,1-3.394-1.142,25.719,25.719,0,0,1-3.86-2.089,26.1,26.1,0,0,1-3.411-2.746,25.572,25.572,0,0,1-2.4-2.659C361.509,146.538,360.889,145.424,360.83,145.459Z" transform="translate(-330.062 -137.368)" fill="#455a64"/>
        <path id="Trazado_24059" data-name="Trazado 24059" d="M363.4,131.215a2.191,2.191,0,0,0-1.121,0,4.852,4.852,0,0,0-2.367,1.326,4.15,4.15,0,0,0-.5.616,3.328,3.328,0,0,0-.31.668,7.87,7.87,0,0,0-.376,1.156,1.819,1.819,0,0,0,.024,1.124,5,5,0,0,1,.212-1.062,11.08,11.08,0,0,1,.435-1.1,3.275,3.275,0,0,1,.3-.606,4.486,4.486,0,0,1,.459-.557,5.31,5.31,0,0,1,2.183-1.33C362.977,131.281,363.4,131.275,363.4,131.215Z" transform="translate(-328.651 -128.043)" fill="#455a64"/>
        <path id="Trazado_24060" data-name="Trazado 24060" d="M372.191,161.55a15.557,15.557,0,0,1-3.328-.762,14.247,14.247,0,0,1-6.388-4.992,22.371,22.371,0,0,1-3.345-7.5c-.265-1.044-.439-1.869-.554-2.437a5.445,5.445,0,0,0-.209-.9,4.53,4.53,0,0,0,.077.922c.073.592.212,1.445.449,2.489a21.089,21.089,0,0,0,3.3,7.641,13.891,13.891,0,0,0,6.586,5.02,10.165,10.165,0,0,0,2.482.533,5.732,5.732,0,0,0,.7.021C372.108,161.571,372.191,161.564,372.191,161.55Z" transform="translate(-328.456 -137.043)" fill="#263238"/>
        <path id="Trazado_24061" data-name="Trazado 24061" d="M316.46,179.237a.907.907,0,0,0,.665-.066,1.243,1.243,0,0,0,.515-.581,1.266,1.266,0,0,0,0-1.013,3.55,3.55,0,0,0-.738-1.062,8.144,8.144,0,0,1-1.006-1.187,2.2,2.2,0,0,1-.313-.815,1.852,1.852,0,0,1,.094-.912,4.249,4.249,0,0,1,1.044-1.528,6.06,6.06,0,0,0,1.131-1.375,2.691,2.691,0,0,0,.233-1.58c-.136-1.044-.564-1.956-.658-2.785a3.053,3.053,0,0,1,.268-1.928,1.583,1.583,0,0,1,.348-.418c.1-.077.15-.115.153-.108a3.572,3.572,0,0,0-.4.571,3.088,3.088,0,0,0-.174,1.859c.108.8.55,1.685.7,2.785a2.877,2.877,0,0,1-.244,1.74,6.18,6.18,0,0,1-1.17,1.438,4.122,4.122,0,0,0-1.009,1.434,1.709,1.709,0,0,0,.185,1.521,8.136,8.136,0,0,0,.964,1.163,3.67,3.67,0,0,1,.759,1.107,1.416,1.416,0,0,1-.024,1.135,1.329,1.329,0,0,1-.6.613.8.8,0,0,1-.54.059A.394.394,0,0,1,316.46,179.237Z" transform="translate(-300.551 -149.376)" fill="#263238"/>
        <path id="Trazado_24062" data-name="Trazado 24062" d="M396.625,155.942a1.039,1.039,0,0,1,.059-.289c.042-.188.125-.46.205-.818a24.656,24.656,0,0,0,.557-3.039,21.187,21.187,0,0,0,.063-4.564,17.968,17.968,0,0,0-1.337-5.406,13.933,13.933,0,0,0-1.417-2.51,15.112,15.112,0,0,0-1.768-2.026,18.771,18.771,0,0,0-3.659-2.694,25.959,25.959,0,0,0-2.785-1.365c-.348-.15-.6-.247-.776-.327a1.344,1.344,0,0,1-.268-.125,1.1,1.1,0,0,1,.285.077c.181.063.456.146.8.282a21.639,21.639,0,0,1,2.82,1.3,17.971,17.971,0,0,1,3.749,2.691,14.922,14.922,0,0,1,1.81,2.05,13.8,13.8,0,0,1,1.448,2.555,17.79,17.79,0,0,1,1.337,5.486,20.436,20.436,0,0,1-.132,4.609,21.137,21.137,0,0,1-.641,3.042c-.094.348-.195.62-.254.8A1.582,1.582,0,0,1,396.625,155.942Z" transform="translate(-346.144 -129.103)" fill="#455a64"/>
        <path id="Trazado_24063" data-name="Trazado 24063" d="M399.1,211.01a.942.942,0,0,1-.164-.178,3.681,3.681,0,0,1-.383-.571,5.378,5.378,0,0,1-.7-2.419,5.573,5.573,0,0,1,.191-1.74,10.635,10.635,0,0,1,.808-1.831,2.109,2.109,0,0,0,.157-1.988c-.372-.63-1.072-1.044-1.549-1.761a1.312,1.312,0,0,1-.111-1.26,5.516,5.516,0,0,1,.7-.971,2.047,2.047,0,0,0,.223-1.977,5.545,5.545,0,0,0-1-1.66,10.618,10.618,0,0,1-1-1.448,2.611,2.611,0,0,1-.143-2.471,1.369,1.369,0,0,1,.463-.515.645.645,0,0,1,.216-.108,1.781,1.781,0,0,0-.588.672,2.525,2.525,0,0,0,.212,2.336,10.43,10.43,0,0,0,1.016,1.392,5.68,5.68,0,0,1,1.044,1.72,2.83,2.83,0,0,1,.171,1.1,2.034,2.034,0,0,1-.414,1.1,5.989,5.989,0,0,0-.654.922,1.044,1.044,0,0,0,.1,1.023c.414.641,1.152,1.044,1.553,1.775a1.775,1.775,0,0,1,.195,1.163,3.828,3.828,0,0,1-.348,1.044,10.831,10.831,0,0,0-.818,1.789,5.5,5.5,0,0,0-.216,1.681,5.636,5.636,0,0,0,.6,2.381C398.91,210.738,399.122,210.992,399.1,211.01Z" transform="translate(-352.916 -166.476)" fill="#263238"/>
        <path id="Trazado_24064" data-name="Trazado 24064" d="M430.6,170.333c.038.07-.066.251-.411.379a1.9,1.9,0,0,1-1.559-.223,2.725,2.725,0,0,1-.867-.8,2.7,2.7,0,0,1-.331-.63,3.4,3.4,0,0,1-.171-.714,6.117,6.117,0,0,1,.564-3.088,9.511,9.511,0,0,0,.94-2.837,5.363,5.363,0,0,0-1-2.917,35.876,35.876,0,0,1-2.308-3.7,18.361,18.361,0,0,1-1.483-4.644c-.6-3.223-.637-6.221-.968-8.814a20.246,20.246,0,0,0-1.831-6.516,10.986,10.986,0,0,0-2.74-3.561c-.425-.331-.762-.606-1.006-.78s-.348-.331-.327-.414.205-.1.526-.066a4.844,4.844,0,0,1,1.34.411,9.428,9.428,0,0,1,3.784,3.481,18.935,18.935,0,0,1,2.6,7.084c.48,2.764.592,5.751,1.152,8.678a17.288,17.288,0,0,0,1.229,4.041c.526,1.2,1.358,2.3,2.071,3.578a9.467,9.467,0,0,1,.891,2.054,5.547,5.547,0,0,1,.195,2.29,6.529,6.529,0,0,1-.637,1.953c-.268.547-.547,1.013-.783,1.441a5.218,5.218,0,0,0-.773,2.214,2.363,2.363,0,0,0,.021.449,1.548,1.548,0,0,0,.1.366,1.859,1.859,0,0,0,.4.609C429.88,170.357,430.535,170.155,430.6,170.333Z" transform="translate(-366.746 -127.94)" fill="#263238"/>
        <path id="Trazado_24065" data-name="Trazado 24065" d="M358.014,225.087c0,.111-1.145.136-2.5.456s-2.36.86-2.412.769a4.446,4.446,0,0,1,2.329-1.121A5.046,5.046,0,0,1,358.014,225.087Z" transform="translate(-325.025 -189.207)" fill="#263238"/>
        <path id="Trazado_24066" data-name="Trazado 24066" d="M332.13,275.105l10.976-.915,15.654.686,10.46,1.911L352.6,286.464l-12.364-1.587Z" transform="translate(-311.352 -221.288)" fill="#ffbe9d"/>
        <path id="Trazado_24067" data-name="Trazado 24067" d="M294.146,276.82s-8.7,2.012-11.64,4.95-5.984,13.447-6.614,16.538-2.628,29.223-1.392,32.934,6.043,6.8,11.752,8.038,15.316,2.165,15.316,2.165l4.793-15.132-16.124-4.33Z" transform="translate(-273.525 -223.003)" fill="#d64626"/>
        <path id="Trazado_24068" data-name="Trazado 24068" d="M386.19,328.493l13.44.54a21.87,21.87,0,0,0,4.734-9.681,37.178,37.178,0,0,0,.526-9.367l3.791-25.046s5.364-.209,7.575,6.314.219,25.7,0,30.73c-.178,4.087-2.35,13.691-5.5,19.319a7.031,7.031,0,0,1-5.131,3.669c-4.842.268-18.731-1.942-18.731-1.942l-.7-14.1" transform="translate(-346.594 -228.295)" fill="#d64626"/>
        <path id="Trazado_24069" data-name="Trazado 24069" d="M301.9,276.82a48.665,48.665,0,0,0,21.544,3.725c12.6-.592,12.925-2.67,12.925-2.67l7.7,1.841-1.939,38.639-3.77,16.517,3.182,11.456L286,346.154l7.192-20.687Z" transform="translate(-281.28 -223.003)" fill="#d64626"/>
        <path id="Trazado_24070" data-name="Trazado 24070" d="M392.48,339.131a3.934,3.934,0,0,1,.661-.136c.432-.07,1.072-.16,1.894-.251,1.64-.195,4.014-.289,6.851-.7l-.125.136c.188-3.718.191-8.354.372-13.363.118-3.154.348-6.161.7-8.88a52.773,52.773,0,0,1,1.441-7.132,37.481,37.481,0,0,1,1.622-4.63c.223-.533.421-.94.557-1.211a2.288,2.288,0,0,1,.223-.407,2.255,2.255,0,0,1-.157.439c-.115.282-.289.7-.494,1.232a44.3,44.3,0,0,0-1.5,4.644,55.383,55.383,0,0,0-1.354,7.112c-.348,2.7-.564,5.7-.7,8.849-.181,5-.212,9.639-.439,13.367v.118l-.115.017c-2.868.393-5.239.446-6.882.588-.822.063-1.462.129-1.9.171A4.156,4.156,0,0,1,392.48,339.131Z" transform="translate(-350.694 -239.783)" fill="#263238"/>
        <path id="Trazado_24071" data-name="Trazado 24071" d="M309.722,334.455a2.982,2.982,0,0,1-.125-.748c-.063-.484-.125-1.187-.188-2.057-.125-1.74-.209-4.149-.143-6.812s.275-5.068.487-6.8c.108-.867.205-1.566.292-2.047a3.2,3.2,0,0,1,.164-.741,2.758,2.758,0,0,1-.024.759c-.042.512-.1,1.208-.178,2.054-.146,1.74-.31,4.132-.379,6.781s-.021,5.054.035,6.791c.031.853.056,1.549.073,2.061A3.129,3.129,0,0,1,309.722,334.455Z" transform="translate(-296.432 -248.055)" fill="#263238"/>
        <path id="Trazado_24072" data-name="Trazado 24072" d="M323.138,448.009a1.245,1.245,0,0,1-.348.108c-.223.059-.554.139-.978.24-.849.191-2.089.459-3.62.738a112.372,112.372,0,0,1-12.1,1.539c-2.378.167-4.64.285-6.715.282a20.147,20.147,0,0,1-5.427-.672,11.379,11.379,0,0,1-1.977-.773,9.469,9.469,0,0,1-1.347-.867l-.449-.376c-.118-.118-.216-.226-.3-.306-.16-.171-.237-.261-.226-.272a1.409,1.409,0,0,1,.275.216l.32.279.46.348a10.252,10.252,0,0,0,1.354.8,11.874,11.874,0,0,0,1.953.7,20.88,20.88,0,0,0,5.392.585c2.05,0,4.316-.143,6.687-.31,4.738-.348,9-.929,12.075-1.427,1.539-.247,2.785-.477,3.638-.627.428-.077.762-.136.989-.171A1.328,1.328,0,0,1,323.138,448.009Z" transform="translate(-283.664 -334.367)" fill="#263238"/>
        <path id="Trazado_24073" data-name="Trazado 24073" d="M422.286,408.637a14.083,14.083,0,0,0-1.5-2.329,18.4,18.4,0,0,0-2.158-1.74c0-.042.348.021.808.251a5.591,5.591,0,0,1,2.687,2.98C422.3,408.3,422.331,408.626,422.286,408.637Z" transform="translate(-367.739 -306.274)" fill="#263238"/>
        <g id="Grupo_25518" data-name="Grupo 25518" transform="translate(1.824 101.712)" opacity="0.3">
          <path id="Trazado_24074" data-name="Trazado 24074" d="M277.68,415.2c2.966,2.151,6.116,4.372,9.747,4.765,2.569.279,5.155-.393,7.738-.32a20.74,20.74,0,0,1,9.667,3.237c2.966,1.73,5.726,3.812,8.744,5.451a26.948,26.948,0,0,0,10.575,3.321,18.6,18.6,0,0,0,10.763-2.249,38.4,38.4,0,0,1-15.261-1.163c-5.263-1.706-6.165-3.081-9.19-4.776-3.92-2.193-7.373-5.239-11.539-6.906a19.566,19.566,0,0,0-11.139-1c-1.862.383-3.85,1.044-5.59.265-.773-.348-1.42-.936-2.2-1.246a1.8,1.8,0,0,0-2.252.529" transform="translate(-277.68 -414.41)"/>
        </g>
        <path id="Trazado_24075" data-name="Trazado 24075" d="M373.166,373.858a1.741,1.741,0,0,1-.592.1,4.948,4.948,0,0,1-.7.042,8.509,8.509,0,0,1-.933,0,10.745,10.745,0,0,1-1.128-.1c-.4-.045-.828-.143-1.278-.233a14.3,14.3,0,0,1-5.375-2.534c-.348-.285-.7-.55-1-.835a10.936,10.936,0,0,1-.8-.8c-.244-.247-.428-.5-.6-.714a5.555,5.555,0,0,1-.414-.567,2.017,2.017,0,0,1-.3-.522c.056-.038.54.661,1.5,1.626.244.237.508.5.818.752s.641.519,1,.79a17.043,17.043,0,0,0,2.506,1.483,16.628,16.628,0,0,0,2.74.982c.435.1.849.209,1.243.261s.762.115,1.1.15C372.313,373.865,373.163,373.792,373.166,373.858Z" transform="translate(-329.553 -282.245)" fill="#263238"/>
        <path id="Trazado_24076" data-name="Trazado 24076" d="M415.886,424.83a6.137,6.137,0,0,1-.331,1.271c-.254.808-.641,1.97-1.18,3.384a23.39,23.39,0,0,1-.985,2.28,9.4,9.4,0,0,1-1.741,2.287,9.3,9.3,0,0,1-5.939,2.59,39.273,39.273,0,0,1-6.513-.261c-1.988-.237-3.763-.56-5.242-.884s-2.656-.661-3.464-.919c-.4-.122-.714-.237-.922-.313a1.112,1.112,0,0,1-.31-.139,11.632,11.632,0,0,1,1.271.317c.818.216,2,.508,3.481.8s3.248.585,5.221.8a40.713,40.713,0,0,0,6.454.233,9.05,9.05,0,0,0,5.726-2.468,9.174,9.174,0,0,0,1.706-2.19c.414-.766.721-1.542,1.013-2.231.567-1.392.989-2.541,1.284-3.335.139-.383.251-.7.348-.912A1.39,1.39,0,0,1,415.886,424.83Z" transform="translate(-348.595 -319.491)" fill="#263238"/>
        <path id="Trazado_24077" data-name="Trazado 24077" d="M278.587,353.74s7.85,6.085,8.114,6.788a25.589,25.589,0,0,0,5.114,6.614c2.2,1.761,22.411,5.893,22.411,5.893l-1.159,14.45s-16.576-10.025-21.516-9.747-8.817,1.236-10.934.529-7.432-4.055-7.432-4.055-.915-1.852.084-2.736a9.265,9.265,0,0,1-.466-2.82s-.8-2.022-.021-2.823c0,0-.191-3,1.483-3s4.853.529,6.353.442a2.4,2.4,0,0,0,2.026-1.149s0-.794-1.232-1.674S275.5,355.943,278.587,353.74Z" transform="translate(-272.44 -273.147)" fill="#ffbe9d"/>
        <path id="Trazado_24078" data-name="Trazado 24078" d="M277.647,391.269a6.6,6.6,0,0,1-2.437-1.152,7.106,7.106,0,0,1-2.047-1.775,23.266,23.266,0,0,1,2.245,1.472A18.572,18.572,0,0,1,277.647,391.269Z" transform="translate(-272.909 -295.701)" fill="#eb996e"/>
        <path id="Trazado_24079" data-name="Trazado 24079" d="M277.668,399.088a6.574,6.574,0,0,1-2.827-1.312,6.443,6.443,0,0,1-2.151-2.259c.077-.049.985.985,2.36,1.963S277.717,398.987,277.668,399.088Z" transform="translate(-272.6 -300.381)" fill="#eb996e"/>
        <path id="Trazado_24080" data-name="Trazado 24080" d="M279.04,407.2a5.442,5.442,0,0,1-2.729-1,5.684,5.684,0,0,1-2.089-2.022c.07-.049.943.891,2.277,1.716S279.071,407.1,279.04,407.2Z" transform="translate(-273.599 -306.032)" fill="#eb996e"/>
        <path id="Trazado_24081" data-name="Trazado 24081" d="M290.647,336.371a27.978,27.978,0,0,0-5-.045,31.312,31.312,0,0,0-4.849,1.215,4.467,4.467,0,0,1,1.319-.7,13.83,13.83,0,0,1,7.084-.839A4.608,4.608,0,0,1,290.647,336.371Z" transform="translate(-277.889 -261.494)" fill="#fff"/>
        <path id="Trazado_24082" data-name="Trazado 24082" d="M348.521,345a1.33,1.33,0,0,1-.366.122l-1.069.282c-.466.122-1.044.261-1.706.4s-1.427.32-2.273.466-1.772.327-2.785.473-2.089.289-3.2.432c-2.259.251-4.755.446-7.376.526s-5.127,0-7.4-.115c-1.135-.077-2.214-.143-3.216-.254s-1.942-.205-2.785-.317-1.619-.233-2.294-.348-1.253-.209-1.74-.306l-1.083-.219a1.75,1.75,0,0,1-.372-.1,1.4,1.4,0,0,1,.386.028l1.093.153c.473.073,1.044.164,1.74.244s1.445.2,2.3.285,1.786.2,2.785.272,2.089.153,3.209.219c2.263.108,4.755.153,7.369.087s5.1-.265,7.348-.494c1.128-.132,2.2-.247,3.192-.4s1.925-.285,2.785-.428,1.608-.289,2.277-.411,1.246-.24,1.716-.348l1.083-.216A1.777,1.777,0,0,1,348.521,345Z" transform="translate(-297.486 -267.449)" fill="#fff"/>
        <path id="Trazado_24083" data-name="Trazado 24083" d="M439.716,337.451a22.741,22.741,0,0,0-2.294-1.135,14.87,14.87,0,0,0-6.05-.87,33.187,33.187,0,0,0-6.1,1.044,20.444,20.444,0,0,1-2.517.571,2.7,2.7,0,0,1,.644-.258c.425-.143,1.044-.348,1.807-.56a27.668,27.668,0,0,1,6.144-1.142,13.924,13.924,0,0,1,6.165.989,9.122,9.122,0,0,1,1.664.919A2.2,2.2,0,0,1,439.716,337.451Z" transform="translate(-370.434 -260.976)" fill="#fff"/>
        <g id="Grupo_25519" data-name="Grupo 25519" transform="translate(30.768 85.783)" opacity="0.3">
          <path id="Trazado_24084" data-name="Trazado 24084" d="M360.83,368.65l.111.313a9.233,9.233,0,0,0,5.371,7.021,8.015,8.015,0,0,0,8.563-1.584A13.736,13.736,0,0,1,360.83,368.65Z" transform="translate(-360.83 -368.65)"/>
        </g>
        <g id="Grupo_25520" data-name="Grupo 25520" transform="translate(50.861 97.925)" opacity="0.3">
          <path id="Trazado_24085" data-name="Trazado 24085" d="M426.219,408.188a5.6,5.6,0,0,0-2.854-2.7,25.472,25.472,0,0,0-4.814-1.96l.042.47a16.423,16.423,0,0,1,4.588,5c.449.762,1.027,1.671,1.908,1.636a1.392,1.392,0,0,0,1.173-.909A2.2,2.2,0,0,0,426.219,408.188Z" transform="translate(-418.55 -403.53)"/>
        </g>
      </g>
      <g id="freepik--Desk--inject-8" transform="translate(10.711 156.066)">
        <path id="Trazado_24086" data-name="Trazado 24086" d="M286.825,476.181c0,.1-45.21.181-100.969.181s-100.976-.08-100.976-.181,45.2-.181,100.972-.181S286.825,476.084,286.825,476.181Z" transform="translate(-84.88 -476)" fill="#263238"/>
      </g>
    </g>
  </g>
</svg>
