<svg xmlns="http://www.w3.org/2000/svg" width="223.998" height="227.57" viewBox="0 0 223.998 227.57">
  <g id="Grupo_25517" data-name="Grupo 25517" transform="translate(-37.152 -55.039)">
    <g id="freepik--Floor--inject-12" transform="translate(37.77 282.329)">
      <path id="Trazado_23768" data-name="Trazado 23768" d="M261.682,477.34c0,.075-50.01.14-111.683.14s-111.7-.065-111.7-.14,50-.14,111.7-.14S261.682,477.259,261.682,477.34Z" transform="translate(-38.3 -477.2)" fill="#263238"/>
    </g>
    <g id="freepik--big-books--inject-12" transform="translate(83.382 182.187)">
      <rect id="Rectángulo_5090" data-name="Rectángulo 5090" width="23.603" height="28.061" transform="translate(112.288 1.825)" fill="#f5f5f5"/>
      <rect id="Rectángulo_5091" data-name="Rectángulo 5091" width="106.672" height="31.658" transform="translate(6.428 0)" fill="#d64626"/>
      <path id="Trazado_23769" data-name="Trazado 23769" d="M354.851,293.86H328.47V291.2h26.381a1.324,1.324,0,0,1,1.33,1.319v.011h0a1.33,1.33,0,0,1-1.33,1.33Z" transform="translate(-218.244 -291.2)" fill="#ff725e"/>
      <path id="Trazado_23770" data-name="Trazado 23770" d="M354.851,347.72H328.47v-2.66h26.381a1.33,1.33,0,0,1,1.33,1.33h0a1.324,1.324,0,0,1-1.319,1.33Z" transform="translate(-218.244 -316.062)" fill="#ff725e"/>
      <g id="Grupo_25504" data-name="Grupo 25504" transform="translate(92.114 0)" opacity="0.4">
        <rect id="Rectángulo_5092" data-name="Rectángulo 5092" width="12.604" height="31.658"/>
      </g>
      <g id="Grupo_25505" data-name="Grupo 25505" transform="translate(15.893 0)" opacity="0.4">
        <rect id="Rectángulo_5093" data-name="Rectángulo 5093" width="12.604" height="31.658"/>
      </g>
      <path id="Trazado_23771" data-name="Trazado 23771" d="M356.577,303.118c0,.075-5.109.14-11.409.14s-11.409-.065-11.409-.14S338.869,303,345.2,303,356.577,303.038,356.577,303.118Z" transform="translate(-220.686 -296.647)" fill="#e0e0e0"/>
      <path id="Trazado_23772" data-name="Trazado 23772" d="M356.577,310.88c0,.081-5.109.14-11.409.14s-11.409-.059-11.409-.14,5.109-.14,11.409-.14S356.577,310.821,356.577,310.88Z" transform="translate(-220.686 -300.22)" fill="#e0e0e0"/>
      <path id="Trazado_23773" data-name="Trazado 23773" d="M356.577,320.53c0,.081-5.109.145-11.409.145s-11.409-.065-11.409-.145,5.109-.14,11.409-.14S356.577,320.455,356.577,320.53Z" transform="translate(-220.686 -304.674)" fill="#e0e0e0"/>
      <path id="Trazado_23774" data-name="Trazado 23774" d="M356.577,330.151c0,.075-5.109.14-11.409.14s-11.409-.065-11.409-.14S338.869,330,345.2,330,356.577,330.07,356.577,330.151Z" transform="translate(-220.686 -309.11)" fill="#e0e0e0"/>
      <path id="Trazado_23775" data-name="Trazado 23775" d="M356.577,339.78c0,.081-5.109.14-11.409.14s-11.409-.059-11.409-.14,5.109-.14,11.409-.14S356.577,339.7,356.577,339.78Z" transform="translate(-220.686 -313.56)" fill="#e0e0e0"/>
      <g id="Grupo_25506" data-name="Grupo 25506" transform="translate(37.343 13.008)" opacity="0.2">
        <rect id="Rectángulo_5094" data-name="Rectángulo 5094" width="47.993" height="5.702"/>
      </g>
      <rect id="Rectángulo_5095" data-name="Rectángulo 5095" width="23.964" height="17.099" transform="translate(111.685 32.277)" fill="#fafafa"/>
      <rect id="Rectángulo_5096" data-name="Rectángulo 5096" width="101.994" height="18.338" transform="translate(9.96 31.652)" fill="#455a64"/>
      <path id="Trazado_23776" data-name="Trazado 23776" d="M330.3,351.234h25.762a.619.619,0,0,0,.619-.619h0a.619.619,0,0,0-.614-.625H330.3Z" transform="translate(-219.089 -318.338)" fill="#455a64"/>
      <path id="Trazado_23777" data-name="Trazado 23777" d="M330.3,381.75h25.762a.619.619,0,0,1,.619.619h0a.619.619,0,0,1-.619.619H330.3V381.75Z" transform="translate(-219.089 -332.998)" fill="#455a64"/>
      <path id="Trazado_23778" data-name="Trazado 23778" d="M355.389,357.06c0,.075-5.309.14-11.845.14s-11.845-.065-11.845-.14,5.3-.14,11.845-.14S355.389,356.963,355.389,357.06Z" transform="translate(-219.735 -321.537)" fill="#e0e0e0"/>
      <path id="Trazado_23779" data-name="Trazado 23779" d="M355.389,363.07c0,.075-5.309.14-11.845.14s-11.845-.065-11.845-.14,5.3-.14,11.845-.14S355.389,362.968,355.389,363.07Z" transform="translate(-219.735 -324.311)" fill="#e0e0e0"/>
      <path id="Trazado_23780" data-name="Trazado 23780" d="M355.389,369.07c0,.081-5.309.14-11.845.14s-11.845-.059-11.845-.14,5.3-.14,11.845-.14S355.389,368.995,355.389,369.07Z" transform="translate(-219.735 -327.08)" fill="#e0e0e0"/>
      <path id="Trazado_23781" data-name="Trazado 23781" d="M355.389,375.08c0,.081-5.309.14-11.845.14s-11.845-.059-11.845-.14,5.3-.14,11.845-.14S355.389,375,355.389,375.08Z" transform="translate(-219.735 -329.855)" fill="#e0e0e0"/>
      <rect id="Rectángulo_5097" data-name="Rectángulo 5097" width="70.336" height="4.786" transform="translate(25.859 38.221)" fill="#263238"/>
      <rect id="Rectángulo_5098" data-name="Rectángulo 5098" width="24.465" height="46.351" transform="translate(114.824 51.621)" fill="#ebebeb"/>
      <rect id="Rectángulo_5099" data-name="Rectángulo 5099" width="114.824" height="50.254" transform="translate(0 49.995)" fill="#d64626"/>
      <path id="Trazado_23782" data-name="Trazado 23782" d="M360.695,474.63H331.18V471.4h29.515a1.615,1.615,0,0,1,1.615,1.615h0A1.615,1.615,0,0,1,360.695,474.63Z" transform="translate(-219.495 -374.381)" fill="#ff725e"/>
      <path id="Trazado_23783" data-name="Trazado 23783" d="M331.18,384.037h29.515a1.615,1.615,0,0,1,1.615,1.615h0a1.615,1.615,0,0,1-1.615,1.615H331.18v-3.23Z" transform="translate(-219.495 -334.041)" fill="#ff725e"/>
      <g id="Grupo_25507" data-name="Grupo 25507" transform="translate(65.975 49.995)" opacity="0.4">
        <path id="Trazado_23784" data-name="Trazado 23784" d="M270.432,384.06,246.28,434.314h20.405l22.9-50.254Z" transform="translate(-246.28 -384.06)" fill="#fff"/>
      </g>
      <g id="Grupo_25508" data-name="Grupo 25508" transform="translate(27.878 49.995)" opacity="0.4">
        <path id="Trazado_23785" data-name="Trazado 23785" d="M199.672,384.06,175.52,434.314h20.4l22.9-50.254Z" transform="translate(-175.52 -384.06)" fill="#fff"/>
      </g>
      <path id="Trazado_23786" data-name="Trazado 23786" d="M361.475,398.5c0,.081-5.475.14-12.232.14s-12.232-.059-12.232-.14,5.475-.14,12.232-.14S361.475,398.425,361.475,398.5Z" transform="translate(-222.186 -340.665)" fill="#e0e0e0"/>
      <path id="Trazado_23787" data-name="Trazado 23787" d="M361.475,409.54c0,.081-5.475.14-12.232.14s-12.232-.059-12.232-.14,5.475-.14,12.232-.14S361.475,409.465,361.475,409.54Z" transform="translate(-222.186 -345.762)" fill="#e0e0e0"/>
      <path id="Trazado_23788" data-name="Trazado 23788" d="M361.475,420.59c0,.075-5.475.14-12.232.14s-12.232-.065-12.232-.14,5.475-.14,12.232-.14S361.475,420.509,361.475,420.59Z" transform="translate(-222.186 -350.862)" fill="#e0e0e0"/>
      <path id="Trazado_23789" data-name="Trazado 23789" d="M361.475,431.63c0,.075-5.475.14-12.232.14s-12.232-.065-12.232-.14,5.475-.14,12.232-.14S361.475,431.549,361.475,431.63Z" transform="translate(-222.186 -355.958)" fill="#e0e0e0"/>
      <path id="Trazado_23790" data-name="Trazado 23790" d="M361.475,442.67c0,.075-5.475.14-12.232.14s-12.232-.065-12.232-.14,5.475-.14,12.232-.14S361.475,442.595,361.475,442.67Z" transform="translate(-222.186 -361.054)" fill="#e0e0e0"/>
      <path id="Trazado_23791" data-name="Trazado 23791" d="M361.47,453.71c0,.075-5.475.14-12.232.14S337,453.8,337,453.71s5.475-.14,12.232-.14S361.47,453.635,361.47,453.71Z" transform="translate(-222.182 -366.151)" fill="#e0e0e0"/>
      <path id="Trazado_23792" data-name="Trazado 23792" d="M361.47,464.75c0,.081-5.475.14-12.232.14S337,464.82,337,464.75s5.475-.14,12.232-.14S361.47,464.675,361.47,464.75Z" transform="translate(-222.182 -371.247)" fill="#e0e0e0"/>
    </g>
    <g id="freepik--Character--inject-12" transform="translate(115.888 69.367)">
      <path id="Trazado_23793" data-name="Trazado 23793" d="M342.06,122.786l-7.494-12.028a.425.425,0,0,0-.721,0l-7.354,12.717Z" transform="translate(-249.855 -94.995)" fill="#ff725e"/>
      <g id="Grupo_25509" data-name="Grupo 25509" transform="translate(76.635 15.564)" opacity="0.3">
        <path id="Trazado_23794" data-name="Trazado 23794" d="M342.06,122.786l-7.494-12.028a.425.425,0,0,0-.721,0l-7.354,12.717Z" transform="translate(-326.49 -110.558)"/>
      </g>
      <path id="Trazado_23795" data-name="Trazado 23795" d="M336.158,111.99l7,11.409-1.782-.28-11.441-1.8,4.264-8.97Z" transform="translate(-251.447 -95.656)" fill="#ebebeb"/>
      <path id="Trazado_23796" data-name="Trazado 23796" d="M323.9,141.453l6.746-10.973-17.471-3.23a1.372,1.372,0,0,0-1.437.657l-9.853,16.69a.856.856,0,0,0,.587,1.276l16.421,2.913Z" transform="translate(-238.444 -102.689)" fill="#d64626"/>
      <path id="Trazado_23797" data-name="Trazado 23797" d="M330.463,113.27l9.7,10.5-14.079-2.638Z" transform="translate(-249.665 -96.246)" fill="#ebebeb"/>
      <path id="Trazado_23798" data-name="Trazado 23798" d="M326.08,120.844a.567.567,0,0,1,.065-.156l.215-.425.861-1.615c.775-1.405,1.852-3.37,3.139-5.723l.081-.145.113.124,6.321,6.816,3.381,3.672-.21.167c-2.207-3.128-4.124-5.836-5.508-7.791l-1.578-2.283-.409-.614a1.356,1.356,0,0,1-.135-.221,1.893,1.893,0,0,1,.172.194l.447.592,1.642,2.229,5.589,7.737-.21.172-3.387-3.661-6.294-6.848h.194c-1.324,2.331-2.428,4.307-3.23,5.675l-.921,1.583-.248.409C326.118,120.8,326.085,120.85,326.08,120.844Z" transform="translate(-249.665 -95.96)" fill="#263238"/>
      <g id="Grupo_25510" data-name="Grupo 25510" transform="translate(70.729 29.45)" opacity="0.3">
        <path id="Trazado_23799" data-name="Trazado 23799" d="M321.4,136.35c-.151.226-5.879,9.772-5.879,9.772l9.336,1.744,6.2-9.9Z" transform="translate(-315.52 -136.35)" fill="#fff"/>
      </g>
      <path id="Trazado_23800" data-name="Trazado 23800" d="M190.53,432.758l5.131-6.7.269-.345,8.744,6.5-8.076,8.894.3,9c4.506,1.168,5.185,3.419,5.185,3.419h-9.373l-8.555-16.41Z" transform="translate(-184.15 -240.47)" fill="#455a64"/>
      <path id="Trazado_23801" data-name="Trazado 23801" d="M184.15,446.12l8.534,16.4h9.373a3.873,3.873,0,0,0-1.077-1.411l-7.624-.4-7.855-15.5Z" transform="translate(-184.15 -249.471)" fill="#ebebeb"/>
      <path id="Trazado_23802" data-name="Trazado 23802" d="M205.339,462.853c-.07.1-.608-.21-1.335-.194s-1.254.323-1.33.226.441-.63,1.324-.635S205.425,462.778,205.339,462.853Z" transform="translate(-192.697 -257.337)" fill="#263238"/>
      <path id="Trazado_23803" data-name="Trazado 23803" d="M205.052,458.3c-.092.065-.512-.485-1.26-.635s-1.341.2-1.405.1.081-.2.339-.345a1.744,1.744,0,0,1,1.152-.161,1.778,1.778,0,0,1,1,.592C205.057,458.089,205.1,458.272,205.052,458.3Z" transform="translate(-192.561 -255.017)" fill="#263238"/>
      <path id="Trazado_23804" data-name="Trazado 23804" d="M205.436,452.86c-.1.054-.42-.49-1.077-.716s-1.238,0-1.287-.118.1-.178.355-.275a1.614,1.614,0,0,1,1.077,0,1.642,1.642,0,0,1,.835.668C205.473,452.666,205.484,452.844,205.436,452.86Z" transform="translate(-192.88 -252.448)" fill="#263238"/>
      <path id="Trazado_23805" data-name="Trazado 23805" d="M210.307,448.463c-.113.038-.371-.5-.953-.872s-1.168-.436-1.174-.538.695-.269,1.4.2S210.42,448.447,210.307,448.463Z" transform="translate(-195.242 -250.269)" fill="#263238"/>
      <path id="Trazado_23806" data-name="Trazado 23806" d="M212.63,442.989c-.048.032-.361-.345-.818-.98l-.791-1.125a2.848,2.848,0,0,1-.436-.759.765.765,0,0,1,.059-.571.582.582,0,0,1,.565-.3,1.69,1.69,0,0,1,.872.458,2.942,2.942,0,0,1,.571.651,3.167,3.167,0,0,1,.49,1.351,1.756,1.756,0,0,1-.21,1.281,11.23,11.23,0,0,0-.075-1.233,3.038,3.038,0,0,0-1.034-1.744,1.508,1.508,0,0,0-.646-.35.162.162,0,0,0-.178.081.4.4,0,0,0,0,.269,3.125,3.125,0,0,0,.366.651c.242.4.479.791.716,1.174A4.311,4.311,0,0,1,212.63,442.989Z" transform="translate(-196.338 -246.722)" fill="#263238"/>
      <path id="Trazado_23807" data-name="Trazado 23807" d="M214.931,445.145c-.043,0,0-.5.5-1.077a2.347,2.347,0,0,1,2.778-.5.432.432,0,0,1,.145.334.536.536,0,0,1-.113.3,1.6,1.6,0,0,1-.339.3,4.348,4.348,0,0,1-.662.377,3.935,3.935,0,0,1-1.233.345,1.947,1.947,0,0,1-1.158-.108,10.181,10.181,0,0,1,1.109-.183,4.473,4.473,0,0,0,1.12-.4,4.37,4.37,0,0,0,.592-.361,1.455,1.455,0,0,0,.242-.21c.043-.086.032-.059,0-.086a.748.748,0,0,0-.269-.1,2.639,2.639,0,0,0-.35-.054,2.48,2.48,0,0,0-.668.048,2.329,2.329,0,0,0-1.012.511C215.146,444.763,215.006,445.172,214.931,445.145Z" transform="translate(-198.321 -248.599)" fill="#263238"/>
      <path id="Trazado_23808" data-name="Trazado 23808" d="M196.089,445.424a1.114,1.114,0,1,1-1.114-1.115,1.115,1.115,0,0,1,1.114,1.115Z" transform="translate(-188.632 -249.056)" fill="#ebebeb"/>
      <g id="Grupo_25511" data-name="Grupo 25511" transform="translate(10.316 185.746)" opacity="0.3">
        <path id="Trazado_23809" data-name="Trazado 23809" d="M212.678,433.541l-1.8,1.976-7.57-7.495,1.055-1.373Z" transform="translate(-203.31 -426.65)"/>
      </g>
      <path id="Trazado_23810" data-name="Trazado 23810" d="M253.978,444.65l-.958,11.4s11.263,3.844,11.306,5.965l-22.166-.1.765-17.821Z" transform="translate(-210.928 -248.954)" fill="#455a64"/>
      <path id="Trazado_23811" data-name="Trazado 23811" d="M249.095,463.884a.9.9,0,0,0-.673,1.007.873.873,0,0,0,.985.678.958.958,0,0,0,.711-1.077.9.9,0,0,0-1.109-.592" transform="translate(-213.814 -258.082)" fill="#ebebeb"/>
      <path id="Trazado_23812" data-name="Trazado 23812" d="M242.13,475.667l.075-1.777,21,.5s1.115.894,1.1,1.378Z" transform="translate(-210.914 -262.71)" fill="#ebebeb"/>
      <path id="Trazado_23813" data-name="Trazado 23813" d="M261.239,466.023c0,.108-.538.135-1.077.458s-.856.759-.953.716.092-.668.764-1.044S261.272,465.926,261.239,466.023Z" transform="translate(-218.787 -259.026)" fill="#263238"/>
      <path id="Trazado_23814" data-name="Trazado 23814" d="M265.924,468.076c0,.1-.463.264-.851.705s-.538.921-.625.91-.151-.625.345-1.163S265.924,467.968,265.924,468.076Z" transform="translate(-221.189 -260.002)" fill="#263238"/>
      <path id="Trazado_23815" data-name="Trazado 23815" d="M269.343,471.832c-.1,0-.226-.538.081-1.109s.824-.791.867-.7-.285.4-.538.878S269.45,471.826,269.343,471.832Z" transform="translate(-223.423 -260.916)" fill="#263238"/>
      <path id="Trazado_23816" data-name="Trazado 23816" d="M260.888,460.871c-.048.1-.538-.075-1.152-.065s-1.077.183-1.152.086.425-.458,1.147-.463S260.958,460.791,260.888,460.871Z" transform="translate(-218.505 -256.497)" fill="#263238"/>
      <path id="Trazado_23817" data-name="Trazado 23817" d="M260.324,455.352a2.155,2.155,0,0,1-1.109-.059,5.128,5.128,0,0,1-1.141-.415,4.771,4.771,0,0,1-.625-.371,1.422,1.422,0,0,1-.323-.275.473.473,0,0,1,0-.576.593.593,0,0,1,.49-.226,1.449,1.449,0,0,1,.409.075,4.325,4.325,0,0,1,.678.269,4.061,4.061,0,0,1,1,.721c.49.5.646.915.608.937s-.285-.318-.791-.738a4.584,4.584,0,0,0-.964-.608,4.288,4.288,0,0,0-.625-.226c-.232-.07-.436-.081-.5,0s-.027.059,0,.129a1.179,1.179,0,0,0,.237.2,5.548,5.548,0,0,0,.571.366,6.026,6.026,0,0,0,1.077.463A6.744,6.744,0,0,1,260.324,455.352Z" transform="translate(-217.791 -253.265)" fill="#263238"/>
      <path id="Trazado_23818" data-name="Trazado 23818" d="M262.672,454.263a1.755,1.755,0,0,1-.242-1.077,3.654,3.654,0,0,1,.21-1.206,4.067,4.067,0,0,1,.312-.662.953.953,0,0,1,.738-.538.539.539,0,0,1,.447.334,1.468,1.468,0,0,1,.1.415,2.46,2.46,0,0,1-.038.748,2.5,2.5,0,0,1-.538,1.12c-.463.538-.921.662-.926.625a4.542,4.542,0,0,0,.711-.781,2.6,2.6,0,0,0,.4-1.028,2.322,2.322,0,0,0,0-.641c-.027-.237-.1-.431-.194-.415a.756.756,0,0,0-.4.35,3.4,3.4,0,0,0-.307.587,4.13,4.13,0,0,0-.269,1.077C262.635,453.838,262.737,454.253,262.672,454.263Z" transform="translate(-220.284 -252.042)" fill="#263238"/>
      <path id="Trazado_23819" data-name="Trazado 23819" d="M332.427,152.747a2.746,2.746,0,0,0-.075-1.954c-.915-2.154-3.069-7-3.85-6.865-.689.124-1.2,1.438-.409,2.886l-2.536-2.154a.732.732,0,0,0-1.2.668,3.9,3.9,0,0,0,.312.942,10.715,10.715,0,0,0,2.972,3.23l-4.415.027s-.824,1.152.689,1.927a3.082,3.082,0,0,0,1.077.3l2.283.232s-4.124,4.56-4.264,4.986a9.327,9.327,0,0,0-.366,2.1l-7.914,8.8,2.116,13.385,14.3-24.766Z" transform="translate(-244.426 -110.397)" fill="#b78876"/>
      <path id="Trazado_23820" data-name="Trazado 23820" d="M341.943,155.413c-.038.027-.183-.183-.5-.42a3.32,3.32,0,0,0-1.394-.581,7.838,7.838,0,0,0-1.556-.086,1.834,1.834,0,0,1-.668-.038c0-.038.242-.1.651-.162a5.275,5.275,0,0,1,1.615,0,2.871,2.871,0,0,1,1.475.705C341.884,155.144,341.97,155.4,341.943,155.413Z" transform="translate(-255.089 -115.077)" fill="#aa6550"/>
      <path id="Trazado_23821" data-name="Trazado 23821" d="M342.678,151.692a8.423,8.423,0,0,1-1.793-1.233A8.307,8.307,0,0,1,339.27,149a8.821,8.821,0,0,1,1.8,1.238A8.64,8.64,0,0,1,342.678,151.692Z" transform="translate(-255.754 -112.74)" fill="#aa6550"/>
      <path id="Trazado_23822" data-name="Trazado 23822" d="M236.541,262.71c.118,0,.538,26.381.711,38.264a20.652,20.652,0,0,1-2.789,10.666L208.7,356.9l-14.8-12.313,23.932-40.444-8.8-42.63,17.444-15Z" transform="translate(-188.651 -157.75)" fill="#263238"/>
      <path id="Trazado_23823" data-name="Trazado 23823" d="M269.577,266.068c-.075,1.518-14,99.356-14,99.356L238.35,364.2l6.321-98.736Z" transform="translate(-209.169 -166.498)" fill="#263238"/>
      <path id="Trazado_23824" data-name="Trazado 23824" d="M247.319,279.34a1.52,1.52,0,0,0,.032.258c.032.167.043.431.075.754.054.678.14,1.653.242,2.907.2,2.536.49,6.181.84,10.682s.732,9.89,1.174,15.856q.145,2.245.3,4.587c.043.781.113,1.577.086,2.38a17.648,17.648,0,0,1-.237,2.428,18.234,18.234,0,0,1-1.5,4.759c-.355.77-.781,1.5-1.2,2.25l-1.254,2.245-17.272,30.866c-2.218,3.93-4.016,7.118-5.26,9.336-.625,1.077-1.109,1.944-1.448,2.53l-.377.657-.14.215s.032-.081.113-.232l.355-.668,1.4-2.557,5.185-9.379c4.4-7.92,10.483-18.844,17.2-30.9.42-.754.835-1.508,1.254-2.25s.84-1.475,1.184-2.229a18.18,18.18,0,0,0,1.481-4.689,17.032,17.032,0,0,0,.232-2.385c.032-.791-.038-1.578-.075-2.358q-.151-2.342-.3-4.582c-.42-5.971-.8-11.344-1.109-15.861s-.576-8.151-.754-10.693c-.081-1.249-.145-2.229-.194-2.907,0-.323-.032-.576-.043-.759A2.3,2.3,0,0,1,247.319,279.34Z" transform="translate(-201.34 -172.905)" fill="#455a64"/>
      <path id="Trazado_23825" data-name="Trazado 23825" d="M243.385,359.588a.993.993,0,0,1-.35-.059,4.628,4.628,0,0,1-.9-.334,6.8,6.8,0,0,1-3.688-4.932,4.815,4.815,0,0,1-.065-.964c0-.226,0-.35.043-.35s.048.5.215,1.276a7.377,7.377,0,0,0,3.586,4.792C242.916,359.4,243.4,359.54,243.385,359.588Z" transform="translate(-209.18 -206.884)" fill="#455a64"/>
      <path id="Trazado_23826" data-name="Trazado 23826" d="M245.3,356.316a3.3,3.3,0,0,1-1.254,0,7.687,7.687,0,0,1-2.859-.991,7.79,7.79,0,0,1-2.261-2.008,3.371,3.371,0,0,1-.619-1.077c.043,0,.285.388.775.969a8.718,8.718,0,0,0,5,2.929A10.751,10.751,0,0,1,245.3,356.316Z" transform="translate(-209.15 -206.556)" fill="#455a64"/>
      <path id="Trazado_23827" data-name="Trazado 23827" d="M228.739,275.417a1.161,1.161,0,0,0,.415.285,1.557,1.557,0,0,0,1.314-.092,11.857,11.857,0,0,0,1.7-1.211c.619-.5,1.276-1.077,1.944-1.685a33.708,33.708,0,0,0,3.16-3.451c.743-.937,1.168-1.551,1.2-1.524a1.826,1.826,0,0,1-.248.463c-.172.285-.441.695-.8,1.184a26.267,26.267,0,0,1-3.123,3.532c-.673.63-1.346,1.2-1.976,1.685a10.574,10.574,0,0,1-1.777,1.184,1.616,1.616,0,0,1-1.443,0C228.793,275.605,228.728,275.417,228.739,275.417Z" transform="translate(-204.732 -167.55)" fill="#455a64"/>
      <path id="Trazado_23828" data-name="Trazado 23828" d="M239.221,280.49a7.343,7.343,0,0,1-.684,1.518,10.489,10.489,0,0,1-2.477,3.171,6.064,6.064,0,0,1-3.769,1.432,3.948,3.948,0,0,1-1.217-.172,1.147,1.147,0,0,1-.415-.183,7.86,7.86,0,0,0,1.615.156,6.229,6.229,0,0,0,3.575-1.448,11.724,11.724,0,0,0,2.482-3.053A14.9,14.9,0,0,1,239.221,280.49Z" transform="translate(-205.619 -173.436)" fill="#455a64"/>
      <path id="Trazado_23829" data-name="Trazado 23829" d="M260.663,209s-13.3,6.208-18.069,4.07S234.7,206,231.251,207.15s-8.717,2.154-10.526,7.069a4.306,4.306,0,0,1-1.147-3.1c0-1.917,1.615-4.517,1.615-4.517l-2.154-22.214.092-37.354s3.7-5.519,13.734-5.19l13.853,1.992s7.069,2.154,9.04,5.755,1.152,29.332,1.152,29.332,4.383,24.96,4.383,26.92a7.5,7.5,0,0,1-.619,3.16" transform="translate(-200.255 -109.432)" fill="#d64626"/>
      <path id="Trazado_23830" data-name="Trazado 23830" d="M294.959,173.2l-5.712,5.093-7.075-22.037-5.922,13.271,2.39,21.536a8.259,8.259,0,0,0,6.256,7.112h0a8.269,8.269,0,0,0,7.424-1.847l6.03-5.158a3.23,3.23,0,0,0,1.1-2.988l-2.245-14.171a1.357,1.357,0,0,0-2.251-.813Z" transform="translate(-226.664 -116.091)" fill="#d64626"/>
      <path id="Trazado_23831" data-name="Trazado 23831" d="M218.346,174.254c0,.49-2.654,24.546-2.654,24.546l11.247,24.33c-1.077,2.294-3.187,4.377-5.508,6.412,0,0-2.875-2.627-3.042-8.221,0,0-12.782-15.016-14.1-18.962s2.3-30.9,2.3-30.9Z" transform="translate(-193.316 -123.107)" fill="#b78876"/>
      <path id="Trazado_23832" data-name="Trazado 23832" d="M275.5,184.43a1.944,1.944,0,0,1-.232.49c-.167.307-.415.743-.727,1.281a20.757,20.757,0,0,1-1.152,1.863,3.4,3.4,0,0,1-.964.91,2.935,2.935,0,0,1-1.378.4,4.188,4.188,0,0,1-2.579-.818,6.862,6.862,0,0,1-1.524-1.615,12.657,12.657,0,0,1-.781-1.254,2.033,2.033,0,0,1-.237-.485c.043-.027.436.635,1.174,1.615a7.288,7.288,0,0,0,1.513,1.508,4.036,4.036,0,0,0,2.423.748,2.618,2.618,0,0,0,1.244-.361,3.265,3.265,0,0,0,.9-.829c.485-.641.845-1.3,1.19-1.814s.608-.942.8-1.228A2.061,2.061,0,0,1,275.5,184.43Z" transform="translate(-221.9 -129.094)" fill="#263238"/>
      <path id="Trazado_23833" data-name="Trazado 23833" d="M298.141,210.19a2.045,2.045,0,0,1-.215-.485,11.666,11.666,0,0,1-.425-1.394,16.547,16.547,0,0,1,.479-9.5,12.561,12.561,0,0,1,.565-1.341,2.044,2.044,0,0,1,.264-.463c.048,0-.275.705-.641,1.868a18.866,18.866,0,0,0-.845,4.663,19.107,19.107,0,0,0,.366,4.727C297.941,209.458,298.189,210.174,298.141,210.19Z" transform="translate(-236.252 -134.901)" fill="#263238"/>
      <path id="Trazado_23834" data-name="Trazado 23834" d="M302.621,205.78a5.145,5.145,0,0,1-.695-1.158,16.277,16.277,0,0,1-1.674-6.267,5.167,5.167,0,0,1,0-1.346,8.31,8.31,0,0,1,.172,1.33,22.26,22.26,0,0,0,.592,3.166,22.958,22.958,0,0,0,1.077,3.037A8.856,8.856,0,0,1,302.621,205.78Z" transform="translate(-237.723 -134.901)" fill="#263238"/>
      <path id="Trazado_23835" data-name="Trazado 23835" d="M274.6,190.9a1.781,1.781,0,0,1,.124.237,6.526,6.526,0,0,1,.269.721,7.865,7.865,0,0,1,.355,2.8,6.253,6.253,0,0,1-1.578,3.85,5.384,5.384,0,0,1-2.051,1.438,4.768,4.768,0,0,1-2.692.226,4.4,4.4,0,0,1-2.364-1.281,4.983,4.983,0,0,1-1.136-2.229,13.832,13.832,0,0,1-.323-2.218c-.054-.695-.108-1.341-.156-1.938-.081-1.147-.145-2.094-.2-2.8,0-.307-.027-.538-.038-.765a.98.98,0,0,1,0-.269,1.219,1.219,0,0,1,.048.264c0,.2.059.458.091.759.075.705.172,1.647.291,2.794.059.6.118,1.244.188,1.933a14.192,14.192,0,0,0,.339,2.154,4.729,4.729,0,0,0,1.077,2.105,4.169,4.169,0,0,0,2.218,1.2,4.537,4.537,0,0,0,2.52-.21,5.177,5.177,0,0,0,1.954-1.351,6.144,6.144,0,0,0,1.572-3.693,8.233,8.233,0,0,0-.258-2.757A7.807,7.807,0,0,0,274.6,190.9Z" transform="translate(-221.38 -131.051)" fill="#263238"/>
      <g id="Grupo_25512" data-name="Grupo 25512" transform="translate(22.331 53.936)" opacity="0.2">
        <path id="Trazado_23836" data-name="Trazado 23836" d="M229.279,211.383a20.45,20.45,0,0,1,1.281-5.115c.775-2.041,1.787-4.065,1.82-6.251a14.294,14.294,0,0,0-.721-4.043l-3.925-14.144q-.226,5.481-.447,10.973a4.661,4.661,0,0,0,.409,2.606c.581.948,1.771,1.362,2.434,2.25a2.643,2.643,0,0,1,.361,2.428c-.291.8-1.012,1.007-1.836,1.206a10.432,10.432,0,0,1-1.141.232c-.538.086-1.378-.038-1.615.474a2.516,2.516,0,0,0,.318,2.649c1.249,2.773,3.085,6.735,3.085,6.735" transform="translate(-225.627 -181.83)"/>
      </g>
      <path id="Trazado_23837" data-name="Trazado 23837" d="M212.181,148s-11.57,5.847-13.185,37.117a3.328,3.328,0,0,0,3.936,3.446c4.754-.9,11.958-2.3,11.909-2.5-.065-.285,2.692-27.517,2.692-27.517Z" transform="translate(-191.001 -112.278)" fill="#d64626"/>
      <path id="Trazado_23838" data-name="Trazado 23838" d="M223.6,166.69v1.615c0,1.039-.086,2.547-.21,4.4s-.312,4.065-.571,6.509c-.135,1.222-.28,2.5-.425,3.833-.081.668-.162,1.341-.248,2.03s-.291,1.384-.4,2.062a2.722,2.722,0,0,0,0,1,1.878,1.878,0,0,0,.463.84c.441.485,1.077.738,1.615,1.228a3.233,3.233,0,0,1,.883,1.82,3.393,3.393,0,0,1,0,.991,1.325,1.325,0,0,1-1.3,1.281l-.872.167-1.658.328-2.94.592-4.307.9-.678.135-.269.054h-.043v-.065h.162a2,2,0,0,1,.415-.065,2.187,2.187,0,0,1-.4.118h-.167V196.4h.032l.269-.065.673-.161,4.307-.985,2.972-.646,1.658-.345.872-.178a1.332,1.332,0,0,0,.705-.248,2,2,0,0,0,.3-1.68,2.978,2.978,0,0,0-.808-1.664c-.458-.441-1.12-.7-1.615-1.238a2.153,2.153,0,0,1-.538-.969,2.926,2.926,0,0,1,0-1.1c.113-.721.339-1.373.4-2.057s.167-1.362.248-2.024c.156-1.324.3-2.606.447-3.828.269-2.444.479-4.646.625-6.5s.242-3.354.3-4.393l.065-1.2A1.978,1.978,0,0,1,223.6,166.69Z" transform="translate(-197.301 -120.905)" fill="#263238"/>
      <path id="Trazado_23839" data-name="Trazado 23839" d="M217.8,202.3a1.185,1.185,0,0,1-.07.371,2.262,2.262,0,0,1-.14.42,4.5,4.5,0,0,1-.248.538,5.888,5.888,0,0,1-.883,1.26,7.228,7.228,0,0,1-1.448,1.2,7.117,7.117,0,0,1-1.723.754,5.935,5.935,0,0,1-1.518.215,4.025,4.025,0,0,1-.592,0,2.7,2.7,0,0,1-.436-.065,1.241,1.241,0,0,1-.366-.108c0-.054.538.054,1.384,0a6.808,6.808,0,0,0,1.454-.264,7.913,7.913,0,0,0,1.653-.743,7.8,7.8,0,0,0,1.405-1.136,6.623,6.623,0,0,0,.9-1.179C217.611,202.8,217.751,202.284,217.8,202.3Z" transform="translate(-196.258 -137.343)" fill="#263238"/>
      <g id="Grupo_25513" data-name="Grupo 25513" transform="translate(33.736 90.05)" opacity="0.2">
        <path id="Trazado_23840" data-name="Trazado 23840" d="M247.111,251.714c5.384,3.193,11.985,3.957,18.182,3.015a8.9,8.9,0,0,0,2.956-.856,3.554,3.554,0,0,0,1.852-2.347,2.245,2.245,0,0,0-1.324-2.514,4.016,4.016,0,0,0-2.961.673A26.92,26.92,0,0,1,246.81,251.6" transform="translate(-246.81 -248.907)"/>
      </g>
      <path id="Trazado_23841" data-name="Trazado 23841" d="M270.19,253.809a1.26,1.26,0,0,1-.232.178c-.162.108-.388.285-.711.468a15.178,15.178,0,0,1-2.821,1.324,22.253,22.253,0,0,1-10.17.9,45.59,45.59,0,0,1-9.9-2.66c-1.228-.463-2.213-.856-2.891-1.136l-.781-.328a1.415,1.415,0,0,1-.264-.135,1.641,1.641,0,0,1,.285.081l.8.28,2.923,1.05a48.882,48.882,0,0,0,9.869,2.568,22.824,22.824,0,0,0,10.068-.808,17.23,17.23,0,0,0,2.832-1.233C269.835,254.019,270.19,253.809,270.19,253.809Z" transform="translate(-211.048 -160.479)" fill="#263238"/>
      <g id="Grupo_25514" data-name="Grupo 25514" transform="translate(56.142 56.025)" opacity="0.2">
        <path id="Trazado_23842" data-name="Trazado 23842" d="M291.12,211.865c1.615-1.615,1.615-4.528,1.292-6.795s-1.2-4.442-1.508-6.719c-.291-2.154-.081-4.356-.178-6.536a9.953,9.953,0,0,0-1.981-6.105,71.255,71.255,0,0,0,2.374,26.155" transform="translate(-288.425 -185.71)"/>
      </g>
      <g id="Grupo_25515" data-name="Grupo 25515" transform="translate(43.278 58.523)" opacity="0.2">
        <path id="Trazado_23843" data-name="Trazado 23843" d="M264.785,190.35c-.248,1.432,0,2.934-.124,4.4a19.076,19.076,0,0,0,0,4.4,6.46,6.46,0,0,0,1.922,3.876,3.968,3.968,0,0,0,4.092.829,3.694,3.694,0,0,0,2.067-3.629,6.021,6.021,0,0,1-3.133.592,4.409,4.409,0,0,1-2.837-1.368,7.079,7.079,0,0,1-1.577-4.366c-.1-1.572-.3-3.182-.425-4.732" transform="translate(-264.534 -190.35)"/>
      </g>
      <path id="Trazado_23844" data-name="Trazado 23844" d="M219.738,179.891a2.223,2.223,0,0,1-.581.129c-.377.059-.921.14-1.615.221a20.111,20.111,0,0,1-5.341,0,9.993,9.993,0,0,1-4.894-2.105,6.708,6.708,0,0,1-1.12-1.184,2.154,2.154,0,0,1-.307-.511,12.186,12.186,0,0,0,1.551,1.545,10.492,10.492,0,0,0,4.813,1.981,23,23,0,0,0,5.276.065l1.615-.129A2.6,2.6,0,0,1,219.738,179.891Z" transform="translate(-194.181 -125.406)" fill="#fafafa"/>
      <path id="Trazado_23845" data-name="Trazado 23845" d="M217.876,187.86a2.625,2.625,0,0,1-.571.2,6.31,6.31,0,0,1-.689.178c-.269.054-.576.129-.926.172a14.98,14.98,0,0,1-2.45.162,17,17,0,0,1-2.988-.345,16.706,16.706,0,0,1-2.864-.921,14.692,14.692,0,0,1-2.154-1.158c-.3-.178-.538-.377-.77-.538a5.7,5.7,0,0,1-.538-.447,2.478,2.478,0,0,1-.436-.42c.038-.043.684.538,1.868,1.238a16.6,16.6,0,0,0,7.914,2.32,16.56,16.56,0,0,0,2.412-.1C217.036,188.054,217.86,187.806,217.876,187.86Z" transform="translate(-193.077 -129.24)" fill="#fafafa"/>
      <path id="Trazado_23846" data-name="Trazado 23846" d="M249.239,188.857c0,.075-3.909.038-8.722-.086s-8.722-.285-8.717-.366,3.9-.038,8.722.086S249.239,188.776,249.239,188.857Z" transform="translate(-206.145 -130.91)" fill="#fafafa"/>
      <path id="Trazado_23847" data-name="Trazado 23847" d="M249.069,197.35a3.6,3.6,0,0,1-.716.226c-.463.129-1.141.285-1.992.452a37.5,37.5,0,0,1-6.7.673,37.97,37.97,0,0,1-6.719-.538c-.851-.151-1.534-.291-2-.415a3.692,3.692,0,0,1-.721-.21,4.554,4.554,0,0,1,.743.1c.468.092,1.158.2,2.008.323a43.412,43.412,0,0,0,13.358-.14c.845-.14,1.529-.269,2-.366A4.424,4.424,0,0,1,249.069,197.35Z" transform="translate(-205.416 -135.058)" fill="#fafafa"/>
      <path id="Trazado_23848" data-name="Trazado 23848" d="M275.663,195.87a1.2,1.2,0,0,1-.178.4,3.379,3.379,0,0,1-.791.9,5.228,5.228,0,0,1-3.742,1.018,9.452,9.452,0,0,1-3.672-1.308,6.89,6.89,0,0,1-1.341-.9,12.584,12.584,0,0,1,1.432.727,10.539,10.539,0,0,0,3.613,1.206,5.271,5.271,0,0,0,3.6-.894A6.04,6.04,0,0,0,275.663,195.87Z" transform="translate(-221.905 -134.375)" fill="#fafafa"/>
      <path id="Trazado_23849" data-name="Trazado 23849" d="M286.092,189.719a3.933,3.933,0,0,1-1.389.436,3.806,3.806,0,0,1-1.443.162,3.887,3.887,0,0,1,1.389-.436A3.806,3.806,0,0,1,286.092,189.719Z" transform="translate(-229.9 -131.53)" fill="#fafafa"/>
      <path id="Trazado_23850" data-name="Trazado 23850" d="M293.736,190.045a12.9,12.9,0,0,1-5.2,1.906c0-.081,1.184-.4,2.617-.931S293.7,189.975,293.736,190.045Z" transform="translate(-232.337 -131.683)" fill="#fafafa"/>
      <path id="Trazado_23851" data-name="Trazado 23851" d="M292.157,180.468a9.007,9.007,0,0,1-1.653.485,8.639,8.639,0,0,1-1.664.447A5.838,5.838,0,0,1,292.157,180.468Z" transform="translate(-232.475 -127.265)" fill="#fafafa"/>
      <path id="Trazado_23852" data-name="Trazado 23852" d="M288.925,176.81a1.425,1.425,0,0,1,0,.318l-.081.9c-.038.393-.081.872-.118,1.432s-.1,1.2-.124,1.9c-.092,1.411-.135,3.085-.145,4.948s.059,3.914.188,6.057.355,4.183.587,6.035.512,3.5.781,4.889c.124.695.258,1.314.372,1.863s.21,1.023.3,1.405.14.657.194.888a1.156,1.156,0,0,1,.048.312,1.293,1.293,0,0,1-.1-.3l-.248-.872c-.108-.382-.226-.851-.35-1.4s-.275-1.168-.409-1.857c-.3-1.384-.571-3.042-.84-4.894s-.468-3.9-.614-6.046-.178-4.21-.167-6.078.086-3.548.2-4.959c.043-.705.113-1.341.167-1.9s.113-1.039.167-1.427.1-.668.129-.9A1.214,1.214,0,0,1,288.925,176.81Z" transform="translate(-232.178 -125.577)" fill="#263238"/>
      <g id="Grupo_25516" data-name="Grupo 25516" transform="translate(44.999 57.554)" opacity="0.2">
        <path id="Trazado_23853" data-name="Trazado 23853" d="M267.73,188.55a5.815,5.815,0,0,0,5.5.4,2.517,2.517,0,0,1,.646-.237.631.631,0,0,1,.608.232.8.8,0,0,1-.172.872,3.4,3.4,0,0,1-3.5,1.077,5.233,5.233,0,0,1-2.988-2.331" transform="translate(-267.73 -188.55)"/>
      </g>
      <path id="Trazado_23854" data-name="Trazado 23854" d="M248.462,93.215a18.816,18.816,0,0,1-.614-3.742,6.414,6.414,0,0,1,.861-3.645,3.909,3.909,0,0,1,3.112-1.9,13.121,13.121,0,0,0,2.337.113,6.969,6.969,0,0,0,2.342-1.324,6.549,6.549,0,0,1,4.033-1.05,3.862,3.862,0,0,1,2.057.711,2.191,2.191,0,0,1,.948,1.884,10.573,10.573,0,0,1,2.73-.172,3.537,3.537,0,0,1,2.39,1.19,2.154,2.154,0,0,1,.156,2.541,1.745,1.745,0,0,1,2.089,1.018,2.268,2.268,0,0,1-.538,2.374,4.236,4.236,0,0,1-2.724.991,6.153,6.153,0,0,1-2.611-.538" transform="translate(-213.547 -81.651)" fill="#263238"/>
      <path id="Trazado_23855" data-name="Trazado 23855" d="M250.323,126.881h0a6.371,6.371,0,0,0,7.78-5.578c.2-2.051.382-3.769.42-4.043,0,0,5.152.1,6.095-4.9s2.089-16.69,2.089-16.69h0a17.693,17.693,0,0,0-17.9-.867l-.845.441-2.536,24.766A6.37,6.37,0,0,0,250.323,126.881Z" transform="translate(-212.42 -86.787)" fill="#b78876"/>
      <path id="Trazado_23856" data-name="Trazado 23856" d="M264.468,135.544a11.806,11.806,0,0,1-6.208-3s.91,3.882,5.992,4.307Z" transform="translate(-218.359 -105.142)" fill="#aa6550"/>
      <path id="Trazado_23857" data-name="Trazado 23857" d="M246.327,106.9c-.081-.054-3.268-1.615-3.769,1.825s3.069,3.23,3.09,3.128S246.327,106.9,246.327,106.9Z" transform="translate(-211.089 -93.12)" fill="#b78876"/>
      <path id="Trazado_23858" data-name="Trazado 23858" d="M245.556,111.317a1.182,1.182,0,0,1-.172.065.613.613,0,0,1-.452-.054,1.5,1.5,0,0,1-.5-1.432,1.9,1.9,0,0,1,.291-.835.7.7,0,0,1,.538-.4.307.307,0,0,1,.328.215.28.28,0,0,1,0,.178c0,.005.081-.048.07-.194a.38.38,0,0,0-.1-.237.478.478,0,0,0-.318-.135.866.866,0,0,0-.705.447,2,2,0,0,0-.345.931,1.578,1.578,0,0,0,.662,1.615.647.647,0,0,0,.565,0C245.54,111.4,245.567,111.322,245.556,111.317Z" transform="translate(-211.852 -94.04)" fill="#aa6550"/>
      <path id="Trazado_23859" data-name="Trazado 23859" d="M279.028,111.775a.727.727,0,0,1-.818.6.69.69,0,0,1-.627-.746l0-.024a.727.727,0,0,1,.813-.608.7.7,0,0,1,.632.762Z" transform="translate(-227.278 -95.193)" fill="#263238"/>
      <path id="Trazado_23860" data-name="Trazado 23860" d="M278.457,110.127c-.108.081-.576-.42-1.351-.538s-1.4.151-1.47.043.086-.2.366-.339a2,2,0,0,1,1.2-.151,1.922,1.922,0,0,1,1.077.538C278.457,109.9,278.516,110.079,278.457,110.127Z" transform="translate(-226.372 -94.326)" fill="#263238"/>
      <path id="Trazado_23861" data-name="Trazado 23861" d="M265.148,109.33a.732.732,0,0,1-.818.6.7.7,0,0,1-.627-.756l0-.019a.727.727,0,0,1,.813-.6.7.7,0,0,1,.631.762Z" transform="translate(-220.871 -94.067)" fill="#263238"/>
      <path id="Trazado_23862" data-name="Trazado 23862" d="M264.343,107.9c-.1.081-.576-.415-1.346-.538s-1.405.151-1.47.043.086-.2.361-.334a1.975,1.975,0,0,1,1.2-.156,1.909,1.909,0,0,1,1.05.538C264.343,107.682,264.4,107.865,264.343,107.9Z" transform="translate(-219.861 -93.296)" fill="#263238"/>
      <path id="Trazado_23863" data-name="Trazado 23863" d="M270.11,114.738a4.944,4.944,0,0,1,1.292,0c.2,0,.393,0,.447-.124a.978.978,0,0,0,0-.6c-.1-.538-.21-1.044-.318-1.615a26.214,26.214,0,0,1-.625-4.146,23.83,23.83,0,0,1,.953,4.086c.1.538.2,1.077.3,1.615a1.186,1.186,0,0,1-.032.791.5.5,0,0,1-.377.232,1.374,1.374,0,0,1-.339,0A5.265,5.265,0,0,1,270.11,114.738Z" transform="translate(-223.829 -93.929)" fill="#263238"/>
      <path id="Trazado_23864" data-name="Trazado 23864" d="M265.533,120.549c.129,0,0,.851.6,1.572s1.518.781,1.5.9-.226.129-.6.07a2.083,2.083,0,0,1-1.265-.705,1.861,1.861,0,0,1-.447-1.3C265.35,120.727,265.48,120.533,265.533,120.549Z" transform="translate(-221.616 -99.606)" fill="#263238"/>
      <path id="Trazado_23865" data-name="Trazado 23865" d="M278.572,107.449c-.167.151-.662-.124-1.3-.242s-1.2-.092-1.292-.3c-.043-.1.075-.258.339-.382a1.917,1.917,0,0,1,2.089.431C278.6,107.18,278.648,107.374,278.572,107.449Z" transform="translate(-226.536 -93.069)" fill="#263238"/>
      <path id="Trazado_23866" data-name="Trazado 23866" d="M263.256,102.149c-.1.081-.3,0-.538-.086a6.327,6.327,0,0,0-.926-.3,6.5,6.5,0,0,0-.969-.1c-.264,0-.468,0-.538-.135s.054-.312.361-.485a2.061,2.061,0,0,1,2.477.538C263.353,101.842,263.353,102.079,263.256,102.149Z" transform="translate(-219.285 -90.51)" fill="#263238"/>
      <path id="Trazado_23867" data-name="Trazado 23867" d="M267.868,96.222a11.986,11.986,0,0,1-7.252-1.653c-2.423-1.438-5.314-2.267-6-1.809s-1.007,3.042-3.553,3.618c0,0-.188,4.959-2.154,4.641s-.172-7.893-.172-7.893l5-2.008,5.341-.608,4.932.361,4.485,1.744Z" transform="translate(-213.619 -85.74)" fill="#263238"/>
    </g>
    <g id="freepik--Plants--inject-12" transform="translate(37.153 195.193)">
      <path id="Trazado_23868" data-name="Trazado 23868" d="M78.947,340.432A18.714,18.714,0,0,1,80.4,318.605c1.615-1.836,3.806-3.435,6.229-3.23s4.474,2.337,5.228,4.706a15.413,15.413,0,0,1,.048,7.381c-.619,3.424-1.658,6.929-4.038,9.476S82,342.1,78.947,340.426" transform="translate(-55.135 -315.357)" fill="#d64626"/>
      <path id="Trazado_23869" data-name="Trazado 23869" d="M85.167,409.944a9.778,9.778,0,0,1,2.724-11.113,4.014,4.014,0,0,1,3.5-1.077,3.473,3.473,0,0,1,2.267,2.9,8.042,8.042,0,0,1-.641,3.806,9.622,9.622,0,0,1-2.94,4.517c-1.459,1.1-3.489,2.127-4.91.991" transform="translate(-58.986 -353.346)" fill="#d64626"/>
      <path id="Trazado_23870" data-name="Trazado 23870" d="M53.917,402.672a14.165,14.165,0,0,0-7.139-14.946c-1.615-.845-3.64-1.351-5.282-.538a4.964,4.964,0,0,0-2.358,4.776,11.655,11.655,0,0,0,2.03,5.206,13.955,13.955,0,0,0,5.5,5.54c2.385,1.125,5.572,1.981,7.252-.048" transform="translate(-38.063 -348.325)" fill="#d64626"/>
      <path id="Trazado_23871" data-name="Trazado 23871" d="M53.761,370.027c2.046-6.612-1.427-14.634-7.22-18.429-1.8-1.179-4.076-2-6.084-1.233a5.822,5.822,0,0,0-3.3,5.276,13.631,13.631,0,0,0,1.755,6.3c1.357,2.762,3.1,5.492,5.739,7.08s6.9,3.171,9.11,1.007" transform="translate(-37.153 -331.38)" fill="#d64626"/>
      <path id="Trazado_23872" data-name="Trazado 23872" d="M62.944,423.58a1.887,1.887,0,0,1-.065-.323c-.038-.242-.081-.538-.14-.921a5.623,5.623,0,0,0-.092-.668c-.032-.242-.1-.506-.151-.786-.108-.565-.221-1.211-.4-1.911-.086-.35-.172-.716-.264-1.1s-.232-.77-.35-1.179c-.221-.818-.538-1.669-.851-2.574a49.9,49.9,0,0,0-2.552-5.664,50.7,50.7,0,0,0-3.311-5.26c-.581-.754-1.109-1.491-1.674-2.154-.275-.323-.538-.635-.791-.942l-.77-.829c-.485-.538-.958-.991-1.368-1.394-.2-.2-.4-.382-.571-.538s-.355-.307-.506-.447l-.695-.625a1.473,1.473,0,0,1-.232-.232,1.372,1.372,0,0,1,.269.188l.721.587.538.431.592.538c.42.393.91.835,1.4,1.373l.791.824.808.931c.576.635,1.114,1.378,1.707,2.154a43.93,43.93,0,0,1,5.863,10.967c.3.915.619,1.771.835,2.6.113.409.226.808.328,1.19s.172.759.253,1.114c.172.705.269,1.357.366,1.927.043.28.086.538.129.791s.048.468.07.673c.032.382.059.689.081.931A1.4,1.4,0,0,1,62.944,423.58Z" transform="translate(-42.234 -352.596)" fill="#263238"/>
      <path id="Trazado_23873" data-name="Trazado 23873" d="M63.347,408.959a.4.4,0,0,1,0-.129,1.733,1.733,0,0,1,.032-.382c.032-.361.075-.851.135-1.47.032-.323.065-.678.1-1.077s.043-.813.065-1.265c.032-.91.118-1.944.092-3.09v-1.8c0-.625-.065-1.271-.1-1.944-.043-1.346-.226-2.773-.393-4.275a67.169,67.169,0,0,0-2.024-9.621,67.034,67.034,0,0,0-3.548-9.153c-.684-1.351-1.308-2.649-2-3.8-.339-.581-.641-1.158-.98-1.685l-.969-1.508c-.6-.98-1.233-1.8-1.761-2.541-.264-.366-.506-.716-.743-1.028l-.662-.829-.915-1.158-.242-.3c-.054-.07-.081-.108-.075-.113l.1.092c.065.081.151.172.253.291l.953,1.125.689.818c.242.307.49.651.765,1.018.538.738,1.184,1.551,1.8,2.525.312.479.646.98.991,1.5s.646,1.077,1,1.685c.705,1.152,1.341,2.45,2.035,3.8a64.8,64.8,0,0,1,3.575,9.207,64.723,64.723,0,0,1,2.019,9.664c.156,1.513.328,2.945.366,4.307,0,.673.081,1.324.081,1.954v1.8c0,1.152-.081,2.186-.129,3.1-.032.458-.048.883-.086,1.271s-.092.738-.129,1.077c-.081.619-.14,1.109-.188,1.464a2.709,2.709,0,0,1-.054.382C63.379,408.97,63.352,408.964,63.347,408.959Z" transform="translate(-42.787 -336.791)" fill="#263238"/>
      <path id="Trazado_23874" data-name="Trazado 23874" d="M86.495,330.08a.556.556,0,0,1-.059.124l-.183.345-.732,1.308c-.156.28-.345.592-.538.942l-.571,1.152c-.21.415-.425.856-.662,1.319s-.436.985-.668,1.518-.49,1.077-.727,1.674-.463,1.206-.711,1.841c-.124.318-.248.641-.371.974s-.232.673-.345,1.018c-.237.689-.474,1.4-.721,2.154-.9,2.934-1.766,6.2-2.493,9.691s-1.2,6.821-1.561,9.874-.538,5.815-.6,8.141c-.059,1.158-.07,2.213-.075,3.133s0,1.717,0,2.369v1.89a.348.348,0,0,1,0,.129.861.861,0,0,1,0-.129v-.388c0-.366-.043-.867-.075-1.5s-.048-1.448-.048-2.374,0-1.976.032-3.139c.038-2.331.248-5.1.538-8.162a96.914,96.914,0,0,1,1.54-9.9,99.3,99.3,0,0,1,2.525-9.691l.727-2.127c.118-.345.237-.689.355-1.023s.253-.651.382-.969c.248-.641.5-1.254.727-1.847s.506-1.136.743-1.669.463-1.039.689-1.513l.684-1.314.56-1.206c.194-.35.388-.651.538-.931l.775-1.287c.086-.129.156-.237.21-.328A.633.633,0,0,1,86.495,330.08Z" transform="translate(-54.785 -322.153)" fill="#263238"/>
      <path id="Trazado_23875" data-name="Trazado 23875" d="M87.5,404.72a5.51,5.51,0,0,1-.452.8c-.312.5-.743,1.244-1.249,2.154A34.716,34.716,0,0,0,84.186,411a44.487,44.487,0,0,0-1.572,4.248,43.96,43.96,0,0,0-1.077,4.393c-.258,1.373-.436,2.617-.538,3.666s-.167,1.9-.194,2.493a5.061,5.061,0,0,1-.075.915,6.915,6.915,0,0,1-.032-.921,24.645,24.645,0,0,1,.1-2.5,37.058,37.058,0,0,1,.485-3.693,38.008,38.008,0,0,1,2.692-8.706,36.734,36.734,0,0,1,1.685-3.317c.538-.921.985-1.647,1.33-2.154A5.615,5.615,0,0,1,87.5,404.72Z" transform="translate(-57.251 -356.607)" fill="#263238"/>
      <path id="Trazado_23876" data-name="Trazado 23876" d="M60.01,441.72H78.816l-2.277,19.21H62.352Z" transform="translate(-47.704 -373.687)" fill="#455a64"/>
      <path id="Trazado_23877" data-name="Trazado 23877" d="M61.28,473.55l1.6,2.073H77.125l1.642-2.008Z" transform="translate(-48.29 -388.38)" fill="#263238"/>
      <path id="Trazado_23878" data-name="Trazado 23878" d="M78.633,452.09c0,.081-3.9.145-8.717.145s-8.717-.065-8.717-.145,3.9-.14,8.717-.14S78.633,452.015,78.633,452.09Z" transform="translate(-48.253 -378.409)" fill="#fafafa"/>
      <path id="Trazado_23879" data-name="Trazado 23879" d="M78.633,454.47c0,.075-3.9.14-8.717.14s-8.717-.065-8.717-.14,3.9-.14,8.717-.14S78.633,454.395,78.633,454.47Z" transform="translate(-48.253 -379.508)" fill="#fafafa"/>
      <path id="Trazado_23880" data-name="Trazado 23880" d="M78.715,456.77c0,.075-3.769.14-8.41.14s-8.415-.065-8.415-.14,3.769-.14,8.415-.14S78.715,456.695,78.715,456.77Z" transform="translate(-48.571 -380.569)" fill="#fafafa"/>
      <path id="Trazado_23881" data-name="Trazado 23881" d="M435.056,450.574a8.511,8.511,0,0,1,5.3-.646,4.437,4.437,0,0,1,2.617,1.168,1.886,1.886,0,0,1,.027,2.611,2.509,2.509,0,0,1-1.653.42c-1.4,0-2.956-.264-4.07.581-.641.479-1.077,1.276-1.831,1.513a1.792,1.792,0,0,1-1.981-.883,3.068,3.068,0,0,1-.226-2.272A3.468,3.468,0,0,1,435.056,450.574Z" transform="translate(-220.612 -377.399)" fill="#d64626"/>
      <path id="Trazado_23882" data-name="Trazado 23882" d="M429.038,425.481c.985,1.405,2.9.942,3.769.081a7.5,7.5,0,0,0,1.615-3.29c.781-2.692,1.567-5.556.985-8.318a4.649,4.649,0,0,0-1.077-2.267,2.434,2.434,0,0,0-2.294-.759,3.536,3.536,0,0,0-2,2.1,19.832,19.832,0,0,0-1.96,8.512,6.9,6.9,0,0,0,.931,3.941" transform="translate(-218.288 -359.451)" fill="#d64626"/>
      <path id="Trazado_23883" data-name="Trazado 23883" d="M415.1,431.408a5.108,5.108,0,0,0,.8-4.711,9.042,9.042,0,0,0-2.789-4.049,15,15,0,0,0-5-2.95,5.38,5.38,0,0,0-2.25-.382,2.369,2.369,0,0,0-1.884,1.141c-.538,1,0,2.218.538,3.23a38.428,38.428,0,0,0,3.284,5,8.918,8.918,0,0,0,3.607,3.1c1.5.576,3.058.506,3.855-.538" transform="translate(-207.06 -363.342)" fill="#d64626"/>
      <path id="Trazado_23884" data-name="Trazado 23884" d="M429.683,466.372a2.894,2.894,0,0,0,.092-.641c.043-.463.1-1.05.172-1.744a24.471,24.471,0,0,1,.388-2.557,19.806,19.806,0,0,1,.931-3.026,11.242,11.242,0,0,1,1.545-2.73,5.736,5.736,0,0,1,1.949-1.615,5.623,5.623,0,0,1,1.615-.511,2.508,2.508,0,0,0,.635-.092,3.157,3.157,0,0,0-.646,0,5.123,5.123,0,0,0-1.712.447,5.754,5.754,0,0,0-2.057,1.615,10.819,10.819,0,0,0-1.615,2.789,18.551,18.551,0,0,0-.926,3.069,21.809,21.809,0,0,0-.339,2.6c-.054.738-.075,1.341-.086,1.755A3.177,3.177,0,0,0,429.683,466.372Z" transform="translate(-219.003 -379.096)" fill="#263238"/>
      <path id="Trazado_23885" data-name="Trazado 23885" d="M429.871,450.272a1.429,1.429,0,0,0,0-.3v-.845c0-.738,0-1.8.038-3.117.065-2.633.291-5.465.727-9.46.415-3.769.969-8.124,1.556-10.967.129-.646.253-1.228.377-1.734s.21-.953.3-1.308.145-.608.2-.824a1.665,1.665,0,0,0,.054-.291.929.929,0,0,0-.108.275l-.242.813c-.113.355-.221.791-.35,1.3s-.275,1.077-.409,1.734a96,96,0,0,0-1.642,10.176c-.436,4-.635,7.645-.651,10.283,0,1.319,0,2.385.043,3.123,0,.345.043.625.054.851A1.072,1.072,0,0,0,429.871,450.272Z" transform="translate(-219.045 -364.321)" fill="#263238"/>
      <path id="Trazado_23886" data-name="Trazado 23886" d="M421.936,445.048a5.762,5.762,0,0,0,0-.883c-.032-.571-.113-1.394-.269-2.4a31.478,31.478,0,0,0-.786-3.5,28.321,28.321,0,0,0-1.459-4.14,22.166,22.166,0,0,0-4.307-6.692,10.281,10.281,0,0,0-1.012-.937c-.156-.135-.291-.264-.431-.366l-.393-.269a5.593,5.593,0,0,0-.748-.479,26.8,26.8,0,0,1,2.45,2.18,23.42,23.42,0,0,1,4.189,6.665,33.587,33.587,0,0,1,1.47,4.1,34.789,34.789,0,0,1,.829,3.467c.183,1,.291,1.809.355,2.374A6.33,6.33,0,0,0,421.936,445.048Z" transform="translate(-211.11 -366.144)" fill="#263238"/>
    </g>
    <g id="freepik--Books--inject-12" transform="translate(73.564 55.039)">
      <path id="Trazado_23887" data-name="Trazado 23887" d="M126.3,186.689l1.044,1.33s5.169-8.275,11.166-9.126h0a1.18,1.18,0,0,0,1.077-.038l1.938-1.125a1.173,1.173,0,0,0,.538-1.211h0a12.909,12.909,0,0,1,9.056-5.922l2.251-.425L137.9,156l-24.082,9.793Z" transform="translate(-109.637 -101.643)" fill="#ff725e"/>
      <path id="Trazado_23888" data-name="Trazado 23888" d="M132.112,195.209l1.825,2.439s4.2-9.481,14.666-10.149L138.309,176.86S130.879,192.285,132.112,195.209Z" transform="translate(-118.016 -111.272)" fill="#ebebeb"/>
      <path id="Trazado_23889" data-name="Trazado 23889" d="M106.05,171.411s3.99-12.873,17.229-8.167l13.379,17.492s-13.724-2.487-16.949,8.819Z" transform="translate(-106.05 -104.509)" fill="#f5f5f5"/>
      <path id="Trazado_23890" data-name="Trazado 23890" d="M151.782,175.9s4.135-10.111,13.164-8.867l-13.164-15.3-12.922,7.279Z" transform="translate(-121.195 -99.672)" fill="#ebebeb"/>
      <path id="Trazado_23891" data-name="Trazado 23891" d="M137.854,153.031s-1.5-7.645,4.4-10.978l3.871-2.014L159.669,155.2s-9.352,5.109-8.437,15.323Z" transform="translate(-120.652 -94.276)" fill="#f5f5f5"/>
      <path id="Trazado_23892" data-name="Trazado 23892" d="M151.338,181.761a4.376,4.376,0,0,1-.538-.657c-.377-.474-.861-1.077-1.454-1.852-1.238-1.615-2.9-3.769-4.738-6.138l-4.754-6.132-1.448-1.852a4.933,4.933,0,0,1-.506-.7,6.751,6.751,0,0,1,.592.63c.366.415.883,1.034,1.518,1.8,1.265,1.529,2.972,3.683,4.819,6.084s3.5,4.593,4.679,6.192l1.378,1.906A5.213,5.213,0,0,1,151.338,181.761Z" transform="translate(-120.752 -105.534)" fill="#263238"/>
      <path id="Trazado_23893" data-name="Trazado 23893" d="M148.259,148.32a13.781,13.781,0,0,0-1.551.721,10.513,10.513,0,0,0-2.988,2.789,10.226,10.226,0,0,0-1.761,3.693c-.232,1.028-.2,1.7-.258,1.7a1.735,1.735,0,0,1-.043-.468,5.75,5.75,0,0,1,.108-1.271,9.459,9.459,0,0,1,1.728-3.817,9.644,9.644,0,0,1,3.117-2.794,5.372,5.372,0,0,1,1.184-.479A1.567,1.567,0,0,1,148.259,148.32Z" transform="translate(-122.486 -98.098)" fill="#263238"/>
      <path id="Trazado_23894" data-name="Trazado 23894" d="M161.013,160.2c0,.054-.608.328-1.5.975a11,11,0,0,0-1.448,1.26,11.96,11.96,0,0,0-1.448,1.857,12.24,12.24,0,0,0-1.023,2.116,11.218,11.218,0,0,0-.485,1.857c-.183,1.077-.156,1.777-.21,1.777a1.793,1.793,0,0,1-.054-.485,4.948,4.948,0,0,1,0-.565,5.7,5.7,0,0,1,.059-.754,10,10,0,0,1,.441-1.917,11.657,11.657,0,0,1,1.028-2.154,11.351,11.351,0,0,1,1.5-1.884,9.88,9.88,0,0,1,1.524-1.244,7.253,7.253,0,0,1,.646-.393,4.051,4.051,0,0,1,.538-.253A1.641,1.641,0,0,1,161.013,160.2Z" transform="translate(-128.569 -103.582)" fill="#263238"/>
      <path id="Trazado_23895" data-name="Trazado 23895" d="M164.309,163.59c0,.054-.668.355-1.615,1.077a13.194,13.194,0,0,0-1.572,1.389,16.488,16.488,0,0,0-1.615,2,15.652,15.652,0,0,0-1.228,2.25,11.307,11.307,0,0,0-.646,1.992c-.258,1.163-.221,1.917-.275,1.917a1.679,1.679,0,0,1-.048-.538,4.244,4.244,0,0,1,0-.619,5.509,5.509,0,0,1,.108-.813,10.3,10.3,0,0,1,.6-2.051,14.344,14.344,0,0,1,1.238-2.31,14.946,14.946,0,0,1,1.653-2.024,12.162,12.162,0,0,1,1.615-1.368,7.366,7.366,0,0,1,.695-.436,4.515,4.515,0,0,1,.538-.285A2.158,2.158,0,0,1,164.309,163.59Z" transform="translate(-129.707 -105.146)" fill="#263238"/>
      <path id="Trazado_23896" data-name="Trazado 23896" d="M167.012,166.81c0,.048-.668.35-1.615,1.077a12.546,12.546,0,0,0-1.54,1.432,15.705,15.705,0,0,0-1.545,2.062,15.924,15.924,0,0,0-1.163,2.3,12.552,12.552,0,0,0-.6,2.014c-.242,1.174-.2,1.927-.264,1.927a2.153,2.153,0,0,1-.043-.538,3.6,3.6,0,0,1,0-.619,5.5,5.5,0,0,1,.1-.818,11.24,11.24,0,0,1,.538-2.073,15.311,15.311,0,0,1,1.163-2.353,14.714,14.714,0,0,1,1.615-2.084,10.808,10.808,0,0,1,1.615-1.416,5.563,5.563,0,0,1,.689-.452,3.989,3.989,0,0,1,.538-.291A1.666,1.666,0,0,1,167.012,166.81Z" transform="translate(-131.057 -106.633)" fill="#263238"/>
      <path id="Trazado_23897" data-name="Trazado 23897" d="M142.017,190.867c0,.048-.748-.21-1.981-.318a10.37,10.37,0,0,0-4.711.705,10.266,10.266,0,0,0-3.85,2.805c-.8.942-1.147,1.615-1.2,1.615a1.694,1.694,0,0,1,.221-.5,8.2,8.2,0,0,1,.818-1.238,9.6,9.6,0,0,1,8.738-3.58,8.373,8.373,0,0,1,1.454.307A1.83,1.83,0,0,1,142.017,190.867Z" transform="translate(-117.235 -117.466)" fill="#263238"/>
      <path id="Trazado_23898" data-name="Trazado 23898" d="M138.727,186.767c0,.048-.748-.21-1.981-.318a10.015,10.015,0,0,0-8.566,3.51c-.8.942-1.147,1.642-1.19,1.615a1.694,1.694,0,0,1,.221-.5,8.2,8.2,0,0,1,.818-1.238,9.6,9.6,0,0,1,8.738-3.58,8.374,8.374,0,0,1,1.454.307A1.83,1.83,0,0,1,138.727,186.767Z" transform="translate(-115.716 -115.574)" fill="#263238"/>
      <path id="Trazado_23899" data-name="Trazado 23899" d="M135.437,182.661c0,.054-.748-.2-1.981-.312a10.015,10.015,0,0,0-8.566,3.51c-.8.942-1.147,1.615-1.19,1.615a1.681,1.681,0,0,1,.215-.5,8.352,8.352,0,0,1,.824-1.244,9.6,9.6,0,0,1,8.738-3.575,8.37,8.37,0,0,1,1.454.307A1.943,1.943,0,0,1,135.437,182.661Z" transform="translate(-114.197 -113.681)" fill="#263238"/>
      <path id="Trazado_23900" data-name="Trazado 23900" d="M132.142,178.566c0,.054-.754-.2-1.981-.312a10,10,0,0,0-8.566,3.51c-.8.942-1.147,1.615-1.2,1.615a2.206,2.206,0,0,1,.221-.5,7.941,7.941,0,0,1,.824-1.244,9.6,9.6,0,0,1,8.733-3.575,7.992,7.992,0,0,1,1.459.307A1.957,1.957,0,0,1,132.142,178.566Z" transform="translate(-112.674 -111.794)" fill="#263238"/>
      <path id="Trazado_23901" data-name="Trazado 23901" d="M128.847,174.478c0,.054-.748-.2-1.981-.312a10,10,0,0,0-8.56,3.51c-.8.937-1.147,1.615-1.2,1.615a1.9,1.9,0,0,1,.221-.5,8.25,8.25,0,0,1,.818-1.244,9.627,9.627,0,0,1,8.738-3.613,8.275,8.275,0,0,1,1.454.312A1.646,1.646,0,0,1,128.847,174.478Z" transform="translate(-111.155 -109.891)" fill="#263238"/>
      <path id="Trazado_23902" data-name="Trazado 23902" d="M125.539,170.354c0,.048-.748-.2-1.981-.312a10,10,0,0,0-8.582,3.51c-.8.937-1.147,1.615-1.2,1.615a1.758,1.758,0,0,1,.221-.5,8.523,8.523,0,0,1,.818-1.238,9.6,9.6,0,0,1,8.77-3.586,8.275,8.275,0,0,1,1.454.312A1.736,1.736,0,0,1,125.539,170.354Z" transform="translate(-109.618 -107.996)" fill="#263238"/>
      <path id="Trazado_23903" data-name="Trazado 23903" d="M144.76,159.068l3.693,4.1s1.152-5.675,6.175-7.828l-3.9-4.162A9.691,9.691,0,0,0,144.76,159.068Z" transform="translate(-123.919 -99.418)" fill="#ebebeb"/>
      <path id="Trazado_23904" data-name="Trazado 23904" d="M168.938,74.935l-.538,1.2s7.586.619,10.326,4.474h0a.905.905,0,0,0,.42.748l1.475.942a.909.909,0,0,0,1.034-.059h0A10.112,10.112,0,0,1,189.01,86.4l1.1,1.405,4.894-16.335L178.953,58.81Z" transform="translate(-134.831 -56.78)" fill="#ff725e"/>
      <path id="Trazado_23905" data-name="Trazado 23905" d="M168.239,82.791,167.2,84.945s8.076-.479,12.286,6.531L183.18,80.53S169.822,80.891,168.239,82.791Z" transform="translate(-134.277 -66.806)" fill="#ebebeb"/>
      <path id="Trazado_23906" data-name="Trazado 23906" d="M175.089,55.158s10.353-1.847,11.845,9L179.563,79.7s-3.193-10.38-12.173-8.577Z" transform="translate(-134.365 -55.039)" fill="#f5f5f5"/>
      <path id="Trazado_23907" data-name="Trazado 23907" d="M190,87.989s8.5-.754,10.865,5.922L206.787,79.3,197.1,73Z" transform="translate(-144.802 -63.33)" fill="#ebebeb"/>
      <path id="Trazado_23908" data-name="Trazado 23908" d="M197.333,70.312s4.765-3.769,9.19-.878l2.778,1.954L203.643,86.2s-6.891-4.646-13.643-.355Z" transform="translate(-144.802 -61.18)" fill="#f5f5f5"/>
      <path id="Trazado_23909" data-name="Trazado 23909" d="M190,87.518a3.232,3.232,0,0,1,.248-.63c.2-.447.452-1.007.754-1.669l2.552-5.492,2.557-5.486.77-1.664a2.986,2.986,0,0,1,.318-.6,3.2,3.2,0,0,1-.215.641c-.151.409-.393.985-.695,1.7-.6,1.427-1.481,3.381-2.482,5.524s-1.933,4.07-2.627,5.459c-.345.689-.63,1.249-.835,1.615A2.764,2.764,0,0,1,190,87.518Z" transform="translate(-144.802 -62.859)" fill="#263238"/>
      <path id="Trazado_23910" data-name="Trazado 23910" d="M212.959,75.144c-.032.038-.452-.291-1.222-.673a8.769,8.769,0,0,0-6.461-.538,13.58,13.58,0,0,1-1.308.468c-.022-.07.1-.092.307-.221a5.829,5.829,0,0,1,.937-.436,7.883,7.883,0,0,1,3.376-.458,8.038,8.038,0,0,1,3.263.98,5.842,5.842,0,0,1,.856.581C212.873,75.036,212.97,75.128,212.959,75.144Z" transform="translate(-151.248 -63.45)" fill="#263238"/>
      <path id="Trazado_23911" data-name="Trazado 23911" d="M212.154,78.464c-.032.038-.458-.291-1.222-.673a8.769,8.769,0,0,0-6.461-.538,13.313,13.313,0,0,1-1.314.468c-.027-.07.1-.092.312-.221a5.611,5.611,0,0,1,.937-.436,7.85,7.85,0,0,1,3.376-.458,7.986,7.986,0,0,1,3.257.98,5.559,5.559,0,0,1,.856.581C212.067,78.356,212.164,78.448,212.154,78.464Z" transform="translate(-150.873 -64.982)" fill="#263238"/>
      <path id="Trazado_23912" data-name="Trazado 23912" d="M210.645,81.789c-.027.043-.452-.291-1.217-.673a8.982,8.982,0,0,0-3.193-.878,8.845,8.845,0,0,0-3.29.366c-.813.258-1.287.538-1.308.474s.1-.1.312-.221a5.185,5.185,0,0,1,.937-.441,8.013,8.013,0,0,1,3.37-.458,7.923,7.923,0,0,1,3.263.985,5.458,5.458,0,0,1,.856.581C210.565,81.681,210.661,81.773,210.645,81.789Z" transform="translate(-150.173 -66.53)" fill="#263238"/>
      <path id="Trazado_23913" data-name="Trazado 23913" d="M209.724,85.066c-.032.043-.458-.291-1.222-.673a8.769,8.769,0,0,0-6.461-.538c-.818.258-1.287.538-1.314.474s.1-.1.312-.221a5.185,5.185,0,0,1,.937-.441,8.02,8.02,0,0,1,3.376-.458,7.9,7.9,0,0,1,3.257.985,5.188,5.188,0,0,1,.856.581C209.637,84.958,209.734,85.05,209.724,85.066Z" transform="translate(-149.752 -68.03)" fill="#263238"/>
      <path id="Trazado_23914" data-name="Trazado 23914" d="M208.774,88.6c-.027.038-.452-.291-1.217-.673a8.956,8.956,0,0,0-3.193-.878,8.816,8.816,0,0,0-3.284.366,13.308,13.308,0,0,1-1.314.468c-.027-.07.1-.092.312-.221a5.608,5.608,0,0,1,.937-.436,8.02,8.02,0,0,1,3.376-.458,7.9,7.9,0,0,1,3.23.985,5.191,5.191,0,0,1,.883.581C208.694,88.5,208.79,88.583,208.774,88.6Z" transform="translate(-149.308 -69.674)" fill="#263238"/>
      <path id="Trazado_23915" data-name="Trazado 23915" d="M207.138,92.434c-.032.043-.49-.318-1.33-.716a10.423,10.423,0,0,0-1.524-.587,13.128,13.128,0,0,0-1.954-.393,12.017,12.017,0,0,0-2-.048,9.262,9.262,0,0,0-1.615.258c-.9.232-1.411.538-1.438.474a1.321,1.321,0,0,1,.345-.232,2.778,2.778,0,0,1,.436-.21,4.514,4.514,0,0,1,.6-.221,8.18,8.18,0,0,1,1.615-.328,11.391,11.391,0,0,1,2.046.027,11.61,11.61,0,0,1,2,.425,8.931,8.931,0,0,1,1.534.657,4.577,4.577,0,0,1,.538.328,2.91,2.91,0,0,1,.388.285C207.047,92.337,207.149,92.423,207.138,92.434Z" transform="translate(-148.162 -71.361)" fill="#263238"/>
      <path id="Trazado_23916" data-name="Trazado 23916" d="M205.754,95.442c-.032.043-.49-.323-1.341-.705a10.115,10.115,0,0,0-1.545-.538,12.922,12.922,0,0,0-1.976-.328,12.317,12.317,0,0,0-2,0,9.561,9.561,0,0,0-1.615.3c-.9.242-1.411.538-1.438.485s.113-.1.345-.232a3.283,3.283,0,0,1,.436-.215,5.233,5.233,0,0,1,.6-.232,8.734,8.734,0,0,1,1.615-.361,11.206,11.206,0,0,1,2.051-.038,11.044,11.044,0,0,1,2.024.361,8.353,8.353,0,0,1,1.561.619,5.1,5.1,0,0,1,.538.318,3.047,3.047,0,0,1,.393.285C205.663,95.329,205.771,95.432,205.754,95.442Z" transform="translate(-147.495 -72.813)" fill="#263238"/>
      <path id="Trazado_23917" data-name="Trazado 23917" d="M183.366,85.951c-.048,0-.145-.592-.511-1.481a8.189,8.189,0,0,0-2.154-3,8.035,8.035,0,0,0-3.311-1.664c-.937-.226-1.54-.226-1.54-.275a1.181,1.181,0,0,1,.425-.038,6.377,6.377,0,0,1,1.158.118,7.462,7.462,0,0,1,5.626,4.786,5.766,5.766,0,0,1,.3,1.125A1.214,1.214,0,0,1,183.366,85.951Z" transform="translate(-138.27 -66.326)" fill="#263238"/>
      <path id="Trazado_23918" data-name="Trazado 23918" d="M185.008,82.2c-.048,0-.14-.592-.511-1.481a7.862,7.862,0,0,0-5.481-4.668c-.937-.221-1.545-.221-1.545-.269a1.181,1.181,0,0,1,.425-.038,6.788,6.788,0,0,1,1.158.113,7.462,7.462,0,0,1,5.626,4.792,6.3,6.3,0,0,1,.3,1.125A1.122,1.122,0,0,1,185.008,82.2Z" transform="translate(-139.018 -64.595)" fill="#263238"/>
      <path id="Trazado_23919" data-name="Trazado 23919" d="M186.678,78.456c-.048,0-.145-.592-.538-1.481A7.862,7.862,0,0,0,180.68,72.3c-.937-.221-1.545-.221-1.54-.269a1.181,1.181,0,0,1,.425-.038,6.789,6.789,0,0,1,1.158.113,7.489,7.489,0,0,1,3.446,1.653,7.571,7.571,0,0,1,2.18,3.139,6.164,6.164,0,0,1,.3,1.125A1.222,1.222,0,0,1,186.678,78.456Z" transform="translate(-139.789 -62.864)" fill="#263238"/>
      <path id="Trazado_23920" data-name="Trazado 23920" d="M188.314,74.7c-.048,0-.14-.592-.538-1.481a7.854,7.854,0,0,0-5.486-4.668c-.931-.221-1.54-.221-1.54-.269a1.181,1.181,0,0,1,.425-.038,6.281,6.281,0,0,1,1.158.113,7.436,7.436,0,0,1,5.626,4.792,6.349,6.349,0,0,1,.3,1.12A1.145,1.145,0,0,1,188.314,74.7Z" transform="translate(-140.532 -61.133)" fill="#263238"/>
      <path id="Trazado_23921" data-name="Trazado 23921" d="M189.989,70.951c-.048,0-.145-.592-.538-1.481A7.862,7.862,0,0,0,183.97,64.8c-.937-.221-1.545-.221-1.54-.269a1.181,1.181,0,0,1,.425-.038,5.8,5.8,0,0,1,1.158.113,7.457,7.457,0,0,1,5.626,4.792,6.808,6.808,0,0,1,.3,1.12A1.242,1.242,0,0,1,189.989,70.951Z" transform="translate(-141.307 -59.402)" fill="#263238"/>
      <path id="Trazado_23922" data-name="Trazado 23922" d="M191.672,67.2c-.048,0-.14-.587-.511-1.475a7.855,7.855,0,0,0-5.481-4.668c-.937-.226-1.54-.221-1.54-.269a1.182,1.182,0,0,1,.425-.038,5.8,5.8,0,0,1,1.158.113,7.457,7.457,0,0,1,5.626,4.792,5.829,5.829,0,0,1,.3,1.12A1.216,1.216,0,0,1,191.672,67.2Z" transform="translate(-142.097 -57.671)" fill="#263238"/>
      <path id="Trazado_23923" data-name="Trazado 23923" d="M353.525,167.682l-.9,1.432s9.519,2.116,12.324,7.489h0a1.185,1.185,0,0,0,.4,1.028l1.707,1.454a1.163,1.163,0,0,0,1.319.108h0a12.958,12.958,0,0,1,8.614,6.563l1.141,2.008,9.088-19.921L369.084,149Z" transform="translate(-219.868 -98.412)" fill="#ff725e"/>
      <path id="Trazado_23924" data-name="Trazado 23924" d="M353.216,177.671l-1.7,2.536s10.343.808,14.456,10.445l6.6-13.25S355.547,175.534,353.216,177.671Z" transform="translate(-219.36 -111.173)" fill="#ebebeb"/>
      <path id="Trazado_23925" data-name="Trazado 23925" d="M365.038,143.328s13.46-.538,13.46,13.5l-12.039,18.44s-2.24-13.74-13.95-13.018Z" transform="translate(-219.817 -95.792)" fill="#f5f5f5"/>
      <path id="Trazado_23926" data-name="Trazado 23926" d="M378.37,187.395s10.913.538,12.744,9.46l10.047-17.509-11.145-9.756Z" transform="translate(-231.754 -107.916)" fill="#ebebeb"/>
      <path id="Trazado_23927" data-name="Trazado 23927" d="M390.369,167.036s6.708-3.968,11.818.5l3.187,2.977-9.783,17.832s-7.936-7.112-17.261-2.848Z" transform="translate(-231.735 -105.987)" fill="#f5f5f5"/>
      <path id="Trazado_23928" data-name="Trazado 23928" d="M378.37,186.832a4.781,4.781,0,0,1,.431-.748l1.26-1.981c1.109-1.707,2.584-3.99,4.216-6.515l4.2-6.525,1.26-1.981a5.141,5.141,0,0,1,.49-.711,5.1,5.1,0,0,1-.393.765c-.269.49-.678,1.179-1.19,2.035-1.023,1.7-2.482,4.027-4.13,6.568s-3.166,4.846-4.307,6.461l-1.335,1.938A5.073,5.073,0,0,1,378.37,186.832Z" transform="translate(-231.754 -107.353)" fill="#263238"/>
      <path id="Trazado_23929" data-name="Trazado 23929" d="M411.8,174.64c-.038.038-.511-.463-1.416-1.077a10.935,10.935,0,0,0-1.674-.948,12.132,12.132,0,0,0-2.229-.743,12.268,12.268,0,0,0-2.337-.264,11,11,0,0,0-1.917.162c-1.077.188-1.723.447-1.739.393a1.547,1.547,0,0,1,.436-.21,4.658,4.658,0,0,1,.538-.188,7.028,7.028,0,0,1,.727-.188,9.9,9.9,0,0,1,1.954-.226,11.63,11.63,0,0,1,2.4.248,11.327,11.327,0,0,1,2.283.781,10.244,10.244,0,0,1,1.68,1.023c.226.162.409.334.581.479a4.033,4.033,0,0,1,.4.4A1.752,1.752,0,0,1,411.8,174.64Z" transform="translate(-241.965 -108.728)" fill="#263238"/>
      <path id="Trazado_23930" data-name="Trazado 23930" d="M410.2,178.724c-.043.038-.538-.463-1.416-1.077a10.933,10.933,0,0,0-1.674-.948,11.134,11.134,0,0,0-4.566-1,10.94,10.94,0,0,0-1.917.156c-1.077.188-1.723.447-1.744.4a1.562,1.562,0,0,1,.441-.21,3.009,3.009,0,0,1,.538-.188,6.157,6.157,0,0,1,.732-.194,9.935,9.935,0,0,1,1.954-.221,11.267,11.267,0,0,1,2.4.242,11.4,11.4,0,0,1,2.277.786,9.478,9.478,0,0,1,1.68,1.018,6.583,6.583,0,0,1,.581.485,3.617,3.617,0,0,1,.409.393A1.71,1.71,0,0,1,410.2,178.724Z" transform="translate(-241.221 -110.616)" fill="#263238"/>
      <path id="Trazado_23931" data-name="Trazado 23931" d="M407.722,182.654c-.038.038-.512-.463-1.416-1.077a11.391,11.391,0,0,0-1.674-.948,12.593,12.593,0,0,0-2.229-.743,12.261,12.261,0,0,0-2.337-.258,11.6,11.6,0,0,0-1.917.156c-1.077.194-1.723.447-1.739.4a1.663,1.663,0,0,1,.436-.21,3.863,3.863,0,0,1,.538-.188,7.045,7.045,0,0,1,.727-.194,9.982,9.982,0,0,1,1.954-.221,11.555,11.555,0,0,1,2.4.242,11.677,11.677,0,0,1,2.283.786,10,10,0,0,1,1.68,1.023,5.76,5.76,0,0,1,.581.479,4.271,4.271,0,0,1,.409.393C407.625,182.509,407.738,182.638,407.722,182.654Z" transform="translate(-240.081 -112.43)" fill="#263238"/>
      <path id="Trazado_23932" data-name="Trazado 23932" d="M372.492,182.631c-.048,0-.054-.775-.361-1.971a10,10,0,0,0-6.165-6.908c-1.152-.441-1.927-.538-1.917-.587a1.883,1.883,0,0,1,.538.038,8.991,8.991,0,0,1,1.443.361,9.584,9.584,0,0,1,6.288,7.048,7.74,7.74,0,0,1,.194,1.475A1.66,1.66,0,0,1,372.492,182.631Z" transform="translate(-225.144 -109.564)" fill="#263238"/>
      <path id="Trazado_23933" data-name="Trazado 23933" d="M375.262,178.161c-.048,0-.054-.775-.361-1.971a10,10,0,0,0-6.159-6.908c-1.158-.441-1.933-.538-1.922-.587a1.884,1.884,0,0,1,.538.038,8.991,8.991,0,0,1,1.443.361,9.583,9.583,0,0,1,6.283,7.048,7.742,7.742,0,0,1,.194,1.475A1.49,1.49,0,0,1,375.262,178.161Z" transform="translate(-226.422 -107.501)" fill="#263238"/>
      <path id="Trazado_23934" data-name="Trazado 23934" d="M378.032,173.691c-.048,0-.054-.775-.361-1.971a10,10,0,0,0-6.159-6.908c-1.158-.441-1.933-.538-1.922-.587a1.883,1.883,0,0,1,.538.038,8.991,8.991,0,0,1,1.443.361,9.606,9.606,0,0,1,6.315,7.048,8.72,8.72,0,0,1,.194,1.475A1.556,1.556,0,0,1,378.032,173.691Z" transform="translate(-227.701 -105.437)" fill="#263238"/>
      <path id="Trazado_23935" data-name="Trazado 23935" d="M380.807,169.221c-.054,0-.059-.775-.366-1.971a10,10,0,0,0-6.159-6.908c-1.158-.441-1.927-.538-1.922-.587a1.883,1.883,0,0,1,.538.038,8.991,8.991,0,0,1,1.443.361,9.605,9.605,0,0,1,6.288,7.048,8.724,8.724,0,0,1,.194,1.475A1.878,1.878,0,0,1,380.807,169.221Z" transform="translate(-228.98 -103.374)" fill="#263238"/>
      <path id="Trazado_23936" data-name="Trazado 23936" d="M383.577,164.751c-.054,0-.059-.775-.366-1.971a10,10,0,0,0-6.159-6.908c-1.158-.441-1.927-.538-1.922-.587a1.884,1.884,0,0,1,.538.038,8.81,8.81,0,0,1,1.443.361,9.605,9.605,0,0,1,6.288,7.048,8.721,8.721,0,0,1,.194,1.475A1.878,1.878,0,0,1,383.577,164.751Z" transform="translate(-230.258 -101.311)" fill="#263238"/>
      <path id="Trazado_23937" data-name="Trazado 23937" d="M386.347,160.281c-.054,0-.059-.775-.366-1.971a10,10,0,0,0-6.159-6.908c-1.158-.441-1.927-.538-1.922-.587a1.883,1.883,0,0,1,.538.038,8.809,8.809,0,0,1,1.443.361,9.605,9.605,0,0,1,6.288,7.048,8.721,8.721,0,0,1,.194,1.475A1.88,1.88,0,0,1,386.347,160.281Z" transform="translate(-231.537 -99.247)" fill="#263238"/>
      <path id="Trazado_23938" data-name="Trazado 23938" d="M392.62,185.017l-3.51,5.082a17.04,17.04,0,0,1,10.068,2.353l3.23-5.443s-4.975-3.909-9.81-1.992" transform="translate(-236.712 -114.793)" fill="#ebebeb"/>
    </g>
    <g id="freepik--Hearts--inject-12" transform="translate(103.143 58.512)">
      <path id="Trazado_23939" data-name="Trazado 23939" d="M324.376,67.6a3.994,3.994,0,0,0-.312-2.369,3.825,3.825,0,0,0-1.518-1.777,3.162,3.162,0,0,0-2.439-.291,3.116,3.116,0,0,0-1.276.759,3.061,3.061,0,0,0-.571-1.228,3.117,3.117,0,0,0-2.154-1.19,3.853,3.853,0,0,0-2.272.538,3.987,3.987,0,0,0-1.615,1.744,4.807,4.807,0,0,0-.339,3.015,6.794,6.794,0,0,0,1.567,2.827c1.179,1.357,2.751,3.085,2.751,3.085s2.03-.695,3.769-1.077a6.884,6.884,0,0,0,2.924-1.378A4.878,4.878,0,0,0,324.376,67.6Z" transform="translate(-230.316 -61.49)" fill="#ff725e"/>
      <path id="Trazado_23940" data-name="Trazado 23940" d="M308.32,98.38a1.858,1.858,0,0,0-.7-.9,1.783,1.783,0,0,0-1.05-.361,1.454,1.454,0,0,0-1.411,1.077,1.48,1.48,0,0,0-1.7-.339,1.83,1.83,0,0,0-.8.781,1.863,1.863,0,0,0-.248,1.109,2.279,2.279,0,0,0,.587,1.319,3.228,3.228,0,0,0,1.324.781c.813.269,1.879.6,1.879.6s.662-.77,1.281-1.362a3.269,3.269,0,0,0,.867-1.276A2.281,2.281,0,0,0,308.32,98.38Z" transform="translate(-225.991 -77.937)" fill="#ff725e"/>
      <path id="Trazado_23941" data-name="Trazado 23941" d="M166.449,244.552a1.894,1.894,0,0,0-.118-1.131,1.856,1.856,0,0,0-.7-.867,1.475,1.475,0,0,0-1.777.178,1.48,1.48,0,0,0-1.265-1.179,1.794,1.794,0,0,0-1.077.237,1.906,1.906,0,0,0-.8.808,2.276,2.276,0,0,0-.194,1.432,3.266,3.266,0,0,0,.711,1.368c.538.657,1.276,1.5,1.276,1.5s.975-.307,1.809-.485a3.266,3.266,0,0,0,1.411-.619A2.33,2.33,0,0,0,166.449,244.552Z" transform="translate(-160.475 -144.604)" fill="#ff725e"/>
      <path id="Trazado_23942" data-name="Trazado 23942" d="M367.011,247.695a1.229,1.229,0,0,0-.442-.538,1.179,1.179,0,0,0-.662-.226.678.678,0,0,1-1.217.458.925.925,0,0,0-.738,0,1.146,1.146,0,0,0-.5.485,1.179,1.179,0,0,0-.156.7,1.45,1.45,0,0,0,.371.829,2.044,2.044,0,0,0,.835.49l1.179.377s.415-.49.8-.861a2.012,2.012,0,0,0,.538-.8A1.458,1.458,0,0,0,367.011,247.695Z" transform="translate(-254.096 -147.09)" fill="#ff725e"/>
      <path id="Trazado_23943" data-name="Trazado 23943" d="M179.391,214.091a1.174,1.174,0,0,0-.441-.565,1.1,1.1,0,0,0-.662-.226.916.916,0,0,0-.673.3.954.954,0,0,0-.215.388.977.977,0,0,0-.334-.232.939.939,0,0,0-.732,0,1.13,1.13,0,0,0-.5.49,1.162,1.162,0,0,0-.156.695,1.433,1.433,0,0,0,.371.829,1.99,1.99,0,0,0,.835.49c.506.172,1.179.377,1.179.377s.415-.485.8-.856a2.048,2.048,0,0,0,.538-.8A1.442,1.442,0,0,0,179.391,214.091Z" transform="translate(-167.49 -131.566)" fill="#ff725e"/>
      <path id="Trazado_23944" data-name="Trazado 23944" d="M354.7,88.2a1.2,1.2,0,0,0-.441-.538,1.179,1.179,0,0,0-.662-.226.949.949,0,0,0-.673.3.91.91,0,0,0-.21.388.994.994,0,0,0-.334-.226.948.948,0,0,0-.738,0A1.244,1.244,0,0,0,351,89.077a1.449,1.449,0,0,0,.372.829,2.044,2.044,0,0,0,.834.49l1.179.377s.415-.49.8-.861a2.012,2.012,0,0,0,.538-.8A1.46,1.46,0,0,0,354.7,88.2Z" transform="translate(-248.42 -73.469)" fill="#ff725e"/>
      <path id="Trazado_23945" data-name="Trazado 23945" d="M346.381,220.845a3.452,3.452,0,0,0-.5-2.014,3.327,3.327,0,0,0-1.491-1.378,2.692,2.692,0,0,0-3.16.775,2.757,2.757,0,0,0-.614-1,2.72,2.72,0,0,0-1.976-.808,3.286,3.286,0,0,0-1.9.705,3.441,3.441,0,0,0-1.238,1.669,4.248,4.248,0,0,0,0,2.638,5.959,5.959,0,0,0,1.615,2.277c1.158,1.077,2.692,2.385,2.692,2.385s1.68-.8,3.15-1.33a5.98,5.98,0,0,0,2.385-1.486A4.212,4.212,0,0,0,346.381,220.845Z" transform="translate(-241.17 -133.006)" fill="#ff725e"/>
    </g>
  </g>
</svg>
