<svg xmlns="http://www.w3.org/2000/svg" width="90" height="90" viewBox="0 0 90 90">
  <g id="Grupo_22448" data-name="Grupo 22448" transform="translate(-50 -140)">
    <path id="Trazado_20456" data-name="Trazado 20456" d="M140,185a45,45,0,1,1-45-45,45,45,0,0,1,45,45Zm0,0" fill="#d64626"/>
    <path id="Trazado_20457" data-name="Trazado 20457" d="M170.859,257.861V260.5H152.314v27.861h-2.637V260.5H117.861v27.861h-2.637V260.5H90v-2.637h25.225V230h2.637v27.861h31.816V230h2.637v27.861Zm0,0" transform="translate(-32.969 -74.18)" fill="#0ed1b2"/>
    <path id="Trazado_20458" data-name="Trazado 20458" d="M198.2,341.6A11.6,11.6,0,1,1,186.6,330a11.6,11.6,0,0,1,11.6,11.6Zm0,0" transform="translate(-103.027 -156.602)" fill="#ec74b6"/>
    <path id="Trazado_20459" data-name="Trazado 20459" d="M185.094,353.575a11.6,11.6,0,0,1,0-23,14.452,14.452,0,0,0,0,23Zm0,0" transform="translate(-103.027 -157.075)" fill="#e659a9"/>
    <path id="Trazado_20460" data-name="Trazado 20460" d="M58.789,366.328A6.328,6.328,0,0,1,50.4,372.31a45.277,45.277,0,0,1,0-11.964,6.328,6.328,0,0,1,8.392,5.982Zm80.78-6.224a6.326,6.326,0,0,0,0,12.449,45.215,45.215,0,0,0,0-12.449Zm0,0" transform="translate(0 -181.328)" fill="#0ab59e"/>
    <path id="Trazado_20461" data-name="Trazado 20461" d="M107.008,375.53l-1.6,8.006a10.543,10.543,0,0,1-2.884,5.389L82.255,409.193a45.088,45.088,0,0,1-8.067-11.821L92.58,378.981a10.543,10.543,0,0,1,5.389-2.884l8.006-1.6a.878.878,0,0,1,1.034,1.034Zm0,0" transform="translate(-19.936 -193.261)" fill="#fbc56d"/>
    <path id="Trazado_20462" data-name="Trazado 20462" d="M187.3,181.758V192.3a1.758,1.758,0,0,1-1.758,1.758H160.758A1.758,1.758,0,0,1,159,192.3V181.758A1.758,1.758,0,0,1,160.758,180h24.785a1.758,1.758,0,0,1,1.758,1.758Zm31,54.492H196.969a1.758,1.758,0,0,0-1.758,1.758v17.578a1.758,1.758,0,0,0,1.758,1.758h9.667a45.2,45.2,0,0,0,13.424-11.367v-7.969a1.757,1.757,0,0,0-1.757-1.758Zm0,0" transform="translate(-89.84 -32.969)" fill="#0680ae"/>
    <path id="Trazado_20463" data-name="Trazado 20463" d="M207.609,181.758V192.3a1.758,1.758,0,0,1-1.758,1.758H184.758A1.758,1.758,0,0,1,183,192.3V181.758A1.758,1.758,0,0,1,184.758,180h21.094a1.758,1.758,0,0,1,1.758,1.758Zm30.938,54.492H220.454a1.758,1.758,0,0,0-1.758,1.758v17.578a1.758,1.758,0,0,0,1.758,1.758h5.963A45.215,45.215,0,0,0,240.3,245.384v-7.377a1.758,1.758,0,0,0-1.758-1.758Zm0,0" transform="translate(-109.621 -32.969)" fill="#3691bb"/>
    <path id="Trazado_20464" data-name="Trazado 20464" d="M187.3,256.25V266.8a1.758,1.758,0,0,1-1.758,1.758H160.758A1.758,1.758,0,0,1,159,266.8V256.25a1.758,1.758,0,0,1,1.758-1.758h24.785a1.758,1.758,0,0,1,1.758,1.758ZM219.15,200H196.09a1.758,1.758,0,0,0-1.758,1.758v21.094a1.758,1.758,0,0,0,1.758,1.758h23.06a1.758,1.758,0,0,0,1.758-1.758V201.758A1.758,1.758,0,0,0,219.15,200Zm0,0" transform="translate(-89.84 -49.453)" fill="#fded32"/>
    <path id="Trazado_20465" data-name="Trazado 20465" d="M207.609,256.25V266.8a1.758,1.758,0,0,1-1.758,1.758H184.758A1.758,1.758,0,0,1,183,266.8V256.25a1.758,1.758,0,0,1,1.758-1.758h21.094a1.758,1.758,0,0,1,1.758,1.758ZM239.426,200H219.832a1.758,1.758,0,0,0-1.758,1.758v21.094a1.758,1.758,0,0,0,1.758,1.758h19.593a1.758,1.758,0,0,0,1.758-1.758V201.758A1.758,1.758,0,0,0,239.426,200Zm0,0" transform="translate(-109.621 -49.453)" fill="#fdf385"/>
    <path id="Trazado_20466" data-name="Trazado 20466" d="M417.118,370.487l-4.631,4.631a.7.7,0,0,1-.994,0l-4.631-4.631a.7.7,0,0,1,0-.994l4.631-4.631a.7.7,0,0,1,.994,0l4.631,4.631a.7.7,0,0,1,0,.994Zm0,0" transform="translate(-293.963 -185.166)" fill="#ddf4ba"/>
    <path id="Trazado_20467" data-name="Trazado 20467" d="M431.542,375.34a.7.7,0,0,1,0,.994l-3.59,3.59-3.59-3.59a.7.7,0,0,1,0-.994l3.59-3.59Zm0,0" transform="translate(-308.387 -191.013)" fill="#ecf8d9"/>
    <path id="Trazado_20468" data-name="Trazado 20468" d="M211.137,213.818a1.318,1.318,0,1,1-1.318-1.318,1.319,1.319,0,0,1,1.318,1.318Zm3.076-1.318a1.318,1.318,0,1,0,1.318,1.318,1.319,1.319,0,0,0-1.318-1.318Zm4.395,0a1.318,1.318,0,1,0,1.318,1.318,1.319,1.319,0,0,0-1.318-1.318Zm36.958,57.129h-13.8a.351.351,0,0,0-.352.352v1.934a.351.351,0,0,0,.352.352h13.8a.351.351,0,0,0,.352-.352V269.98a.351.351,0,0,0-.352-.352Zm-1.612,5.273H243.377a.352.352,0,0,0-.352.352v1.934a.352.352,0,0,0,.352.352h10.576a.351.351,0,0,0,.352-.352v-1.934a.351.351,0,0,0-.352-.352Zm0,0" transform="translate(-130.639 -59.756)" fill="#88b9d3"/>
    <path id="Trazado_20469" data-name="Trazado 20469" d="M247.185,240.625v1.934a.351.351,0,0,1-.352.352H223.982a.351.351,0,0,1-.352-.352v-1.934a.351.351,0,0,1,.352-.352h22.852a.351.351,0,0,1,.352.352Zm-6.49,4.922H230.119a.352.352,0,0,0-.352.352v1.934a.352.352,0,0,0,.352.352H240.7a.351.351,0,0,0,.352-.352V245.9a.351.351,0,0,0-.352-.352Zm-12.187-7.91h13.8a.351.351,0,0,0,.352-.352v-1.934a.351.351,0,0,0-.352-.352h-13.8a.351.351,0,0,0-.352.352v1.934a.351.351,0,0,0,.352.352Zm-19.893,49h-15.85a.352.352,0,0,0-.352.352v1.934a.352.352,0,0,0,.352.352h15.85a.351.351,0,0,0,.352-.352v-1.934a.351.351,0,0,0-.352-.352ZM196.3,291.47a1.318,1.318,0,1,0,1.318,1.318,1.319,1.319,0,0,0-1.318-1.318Zm4.395,0a1.318,1.318,0,1,0,1.318,1.318,1.319,1.319,0,0,0-1.318-1.318Zm4.395,0a1.318,1.318,0,1,0,1.318,1.318,1.319,1.319,0,0,0-1.318-1.318Zm0,0" transform="translate(-117.38 -78.301)" fill="#e8ce00"/>
    <path id="Trazado_20470" data-name="Trazado 20470" d="M102.3,401.533a3.514,3.514,0,0,1,0,4.971l-20.04,20.041a45.088,45.088,0,0,1-8.067-11.821l18.164-18.164a3.515,3.515,0,0,1,4.971,4.972,3.515,3.515,0,0,1,4.972,0Zm0,0" transform="translate(-19.936 -210.614)" fill="#017296"/>
    <path id="Trazado_20471" data-name="Trazado 20471" d="M97.323,396.561a3.515,3.515,0,0,1,0,4.972L77.811,421.046a44.927,44.927,0,0,1-3.623-6.321l18.164-18.164a3.514,3.514,0,0,1,4.971,0Zm0,0" transform="translate(-19.936 -210.614)" fill="#025f80"/>
    <path id="Trazado_20472" data-name="Trazado 20472" d="M238.8,375.066l2.85-.57a.879.879,0,0,1,1.035,1.034l-.571,2.85Zm0,0" transform="translate(-155.613 -193.261)" fill="#024c67"/>
  </g>
</svg>
