<svg xmlns="http://www.w3.org/2000/svg" xmlns:xlink="http://www.w3.org/1999/xlink" width="90" height="90" viewBox="0 0 90 90">
  <defs>
    <clipPath id="clip-path">
      <rect id="Rectángulo_4996" data-name="Rectángulo 4996" width="90" height="90" fill="#d64626"/>
    </clipPath>
  </defs>
  <g id="Grupo_22459" data-name="Grupo 22459" transform="translate(-50 -140)">
    <g id="Grupo_22458" data-name="Grupo 22458" transform="translate(50 140)">
      <g id="Grupo_22457" data-name="Grupo 22457" clip-path="url(#clip-path)">
        <path id="Trazado_20519" data-name="Trazado 20519" d="M139.995,184.308a45.005,45.005,0,0,1-69.2,38.629.424.424,0,0,1-.195-.357,6.613,6.613,0,0,0-6.614-6.613H62.534a.426.426,0,0,1-.31-.133,45,45,0,1,1,77.77-31.526Zm0,0" transform="translate(-50 -140)" fill="#d64626"/>
      </g>
    </g>
    <path id="Trazado_20520" data-name="Trazado 20520" d="M208.6,326.361a1.758,1.758,0,0,1,1.758,1.758v20.83h-2.637V329.877a.879.879,0,0,0-.879-.879H185.746v20.83h-2.637V329H162.016a.879.879,0,0,0-.879.879v19.072H158.5v-20.83a1.758,1.758,0,0,1,1.758-1.758h22.852V298.5h2.637v27.861Zm0,0" transform="translate(-89.428 -130.639)" fill="#97181a"/>
    <path id="Trazado_20521" data-name="Trazado 20521" d="M107.244,209.165l-9.806-9.806a.971.971,0,0,1,0-1.374l9.806-9.806a37.647,37.647,0,0,1,53.242,0l9.806,9.806a.972.972,0,0,1,0,1.374l-9.806,9.806a37.606,37.606,0,0,1-53.242,0Zm0,0" transform="translate(-38.864 -30.622)" fill="#fdd78d"/>
    <path id="Trazado_20522" data-name="Trazado 20522" d="M199.956,220.893a37.489,37.489,0,0,1-22.848-10.837,14.839,14.839,0,0,1,0-20.986,37.485,37.485,0,0,1,22.848-10.837A37.488,37.488,0,0,1,222.8,189.071l9.806,9.806a.972.972,0,0,1,0,1.374l-9.806,9.806a37.492,37.492,0,0,1-22.848,10.837Zm0,0" transform="translate(-101.183 -31.513)" fill="#fde5bd"/>
    <path id="Trazado_20523" data-name="Trazado 20523" d="M244.026,220.8a16.8,16.8,0,1,1-16.8-16.8,16.8,16.8,0,0,1,16.8,16.8Zm0,0" transform="translate(-132.226 -52.753)" fill="#025f80"/>
    <path id="Trazado_20524" data-name="Trazado 20524" d="M263.72,220.8a16.722,16.722,0,0,1-3.007,9.593,16.8,16.8,0,0,1-23.385-23.385A16.8,16.8,0,0,1,263.72,220.8Zm0,0" transform="translate(-151.92 -52.753)" fill="#017296"/>
    <path id="Trazado_20525" data-name="Trazado 20525" d="M253.612,233.327h-3.025a9.676,9.676,0,0,0-8.315-8.315v-3.025a1.26,1.26,0,1,0-2.52,0v3.025a9.676,9.676,0,0,0-8.315,8.315h-3.025a1.26,1.26,0,1,0,0,2.52h3.025a9.677,9.677,0,0,0,8.315,8.315v3.025a1.26,1.26,0,1,0,2.52,0v-3.025a9.677,9.677,0,0,0,8.315-8.315h3.025a1.26,1.26,0,1,0,0-2.52Zm-13.86-5.766v2.583a4.636,4.636,0,0,0-3.184,3.183h-2.583a7.156,7.156,0,0,1,5.767-5.766Zm0,14.052a7.157,7.157,0,0,1-5.767-5.767h2.583a4.636,4.636,0,0,0,3.184,3.184Zm1.26-4.926a2.1,2.1,0,1,1,2.1-2.1,2.1,2.1,0,0,1-2.1,2.1Zm1.26,4.926v-2.583a4.636,4.636,0,0,0,3.184-3.184h2.583a7.157,7.157,0,0,1-5.766,5.767Zm3.184-8.287a4.636,4.636,0,0,0-3.184-3.183v-2.583a7.156,7.156,0,0,1,5.766,5.766Zm0,0" transform="translate(-146.012 -66.537)" fill="#6caac9"/>
    <path id="Trazado_20526" data-name="Trazado 20526" d="M330.153,254.309a2.52,2.52,0,1,1-2.52-2.52,2.52,2.52,0,0,1,2.52,2.52Zm0,0" transform="translate(-226.753 -92.139)" fill="#b3d1e1"/>
    <path id="Trazado_20527" data-name="Trazado 20527" d="M107.551,196.442l8.263-8.263a37.647,37.647,0,0,1,53.242,0l8.263,8.263a70.774,70.774,0,0,0-69.768,0Zm0,0" transform="translate(-47.435 -30.622)" fill="#fdbf43"/>
    <path id="Trazado_20528" data-name="Trazado 20528" d="M271.3,521.336H260.758A1.758,1.758,0,0,1,259,519.578v-15.82A1.758,1.758,0,0,1,260.758,502H271.3a1.758,1.758,0,0,1,1.758,1.758v15.82a1.758,1.758,0,0,1-1.758,1.758Zm0,0" transform="translate(-172.262 -298.367)" fill="#fde803"/>
    <path id="Trazado_20529" data-name="Trazado 20529" d="M285.3,521.336H274.758A1.758,1.758,0,0,1,273,519.578v-15.82A1.758,1.758,0,0,1,274.758,502H285.3a1.758,1.758,0,0,1,1.758,1.758v15.82a1.758,1.758,0,0,1-1.758,1.758Zm0,0" transform="translate(-183.801 -298.367)" fill="#fdf061"/>
    <path id="Trazado_20530" data-name="Trazado 20530" d="M270,518.758a1.758,1.758,0,1,1,1.758,1.758A1.758,1.758,0,0,1,270,518.758Zm1.758,3.516a1.758,1.758,0,1,0,1.758,1.758,1.758,1.758,0,0,0-1.758-1.758Zm0,5.273a1.758,1.758,0,1,0,1.758,1.758,1.758,1.758,0,0,0-1.758-1.758Zm0,0" transform="translate(-181.328 -310.73)" fill="#d6bf01"/>
    <path id="Trazado_20531" data-name="Trazado 20531" d="M300,522.879a.879.879,0,0,1,.879-.879h5.273a.879.879,0,0,1,0,1.758h-5.273a.879.879,0,0,1-.879-.879Zm6.152,4.395h-5.273a.879.879,0,0,0,0,1.758h5.273a.879.879,0,0,0,0-1.758Zm0,5.273h-5.273a.879.879,0,0,0,0,1.758h5.273a.879.879,0,0,0,0-1.758Zm0,0" transform="translate(-206.055 -314.852)" fill="#e8ce00"/>
    <path id="Trazado_20532" data-name="Trazado 20532" d="M133.063,503.758v15.82a1.758,1.758,0,0,1-1.758,1.758H127.71A45.2,45.2,0,0,1,119,514.1V503.758A1.758,1.758,0,0,1,120.758,502H131.3a1.758,1.758,0,0,1,1.758,1.758Zm0,0" transform="translate(-56.871 -298.367)" fill="#a1e52e"/>
    <path id="Trazado_20533" data-name="Trazado 20533" d="M147.062,503.758v15.82a1.758,1.758,0,0,1-1.758,1.758h-6.055a45.168,45.168,0,0,1-6.249-4.8V503.758A1.758,1.758,0,0,1,134.758,502H145.3a1.758,1.758,0,0,1,1.758,1.758Zm0,0" transform="translate(-68.41 -298.367)" fill="#b8eb6a"/>
    <path id="Trazado_20534" data-name="Trazado 20534" d="M130,518.758a1.758,1.758,0,1,1,1.758,1.758A1.758,1.758,0,0,1,130,518.758Zm1.758,3.516a1.758,1.758,0,1,0,1.758,1.758,1.758,1.758,0,0,0-1.758-1.758Zm0,5.273a1.757,1.757,0,0,0-1.591,1.015q1.231,1.155,2.548,2.217a1.757,1.757,0,0,0-.957-3.231Zm0,0" transform="translate(-65.937 -310.73)" fill="#6bae01"/>
    <path id="Trazado_20535" data-name="Trazado 20535" d="M160,522.879a.879.879,0,0,1,.879-.879h5.273a.879.879,0,1,1,0,1.758h-5.273a.879.879,0,0,1-.879-.879Zm6.152,4.395h-5.273a.879.879,0,0,0,0,1.758h5.273a.879.879,0,1,0,0-1.758Zm0,5.273h-5.273a.879.879,0,0,0,0,1.758h5.273a.879.879,0,1,0,0-1.758Zm0,0" transform="translate(-90.664 -314.852)" fill="#7ecd00"/>
    <path id="Trazado_20536" data-name="Trazado 20536" d="M411.3,521.336H400.758A1.758,1.758,0,0,1,399,519.578v-15.82A1.758,1.758,0,0,1,400.758,502H411.3a1.758,1.758,0,0,1,1.758,1.758v15.82a1.758,1.758,0,0,1-1.758,1.758Zm0,0" transform="translate(-287.652 -298.367)" fill="#5de0c3"/>
    <path id="Trazado_20537" data-name="Trazado 20537" d="M425.3,521.336H414.758A1.758,1.758,0,0,1,413,519.578v-15.82A1.758,1.758,0,0,1,414.758,502H425.3a1.758,1.758,0,0,1,1.758,1.758v15.82a1.758,1.758,0,0,1-1.758,1.758Zm0,0" transform="translate(-299.191 -298.367)" fill="#89e9d9"/>
    <path id="Trazado_20538" data-name="Trazado 20538" d="M410,518.758a1.758,1.758,0,1,1,1.758,1.758A1.758,1.758,0,0,1,410,518.758Zm1.758,3.516a1.758,1.758,0,1,0,1.758,1.758,1.758,1.758,0,0,0-1.758-1.758Zm0,5.273a1.758,1.758,0,1,0,1.758,1.758,1.758,1.758,0,0,0-1.758-1.758Zm0,0" transform="translate(-296.719 -310.73)" fill="#01988c"/>
    <path id="Trazado_20539" data-name="Trazado 20539" d="M440,522.879a.879.879,0,0,1,.879-.879h5.273a.879.879,0,0,1,0,1.758h-5.273a.879.879,0,0,1-.879-.879Zm6.152,4.395h-5.273a.879.879,0,1,0,0,1.758h5.273a.879.879,0,0,0,0-1.758Zm-5.273,5.273a.879.879,0,1,0,.879.879.879.879,0,0,0-.879-.879Zm2.637,0a.879.879,0,1,0,.879.879.879.879,0,0,0-.879-.879Zm2.637,0a.879.879,0,1,0,.879.879.879.879,0,0,0-.879-.879Zm0,0" transform="translate(-321.445 -314.852)" fill="#0ed1b2"/>
  </g>
</svg>
