<svg xmlns="http://www.w3.org/2000/svg" width="130" height="130" viewBox="0 0 130 130">
  <g id="Grupo_25583" data-name="Grupo 25583" transform="translate(21785 -4991)">
    <circle id="Elipse_1364" data-name="Elipse 1364" cx="65" cy="65" r="65" transform="translate(-21785 4991)" fill="#fff"/>
    <g id="_005-business" data-name="005-business" transform="translate(-21756 5020)">
      <path id="Trazado_24421" data-name="Trazado 24421" d="M68.381,44.29H60.665l-3.834-9.2a3.386,3.386,0,0,0-6.513,1.284A3.387,3.387,0,0,0,43.8,35.086l-3.834,9.2H32.252a2.26,2.26,0,0,0-2.258,2.258v2.258a2.26,2.26,0,0,0,2.258,2.258H32.4l1.843,12.9a3.452,3.452,0,0,0,.165.65H20.962a7.913,7.913,0,0,1-7.9-7.9v-7.9H8.773l5.415-6.188L19.6,48.806H15.317v6.774a6.781,6.781,0,0,0,6.774,6.774V60.1a4.521,4.521,0,0,1-4.516-4.516V51.065h7L14.188,39.188,3.8,51.065h7V56.71A10.173,10.173,0,0,0,20.962,66.871H63.036a3.4,3.4,0,0,0,3.353-2.908l1.843-12.9h.149a2.26,2.26,0,0,0,2.258-2.258V46.548a2.26,2.26,0,0,0-2.258-2.258ZM52.66,35.958a1.107,1.107,0,0,1,.61-.612,1.125,1.125,0,0,1,1.477.609L60.39,49.5a1.128,1.128,0,0,1-.609,1.478,1.155,1.155,0,0,1-1.476-.61L52.662,36.821a1.125,1.125,0,0,1,0-.863Zm-6.293,10.59h7.9l.94,2.258H45.425Zm3.692-8.858a3.4,3.4,0,0,0,.26-1.272,3.358,3.358,0,0,0,.261,1.274l2.749,6.6h-6.02Zm-4.171-1.735a1.127,1.127,0,0,1,1.476-.61,1.13,1.13,0,0,1,.61,1.478L42.327,50.371a1.152,1.152,0,0,1-1.475.609,1.106,1.106,0,0,1-.611-.614,1.118,1.118,0,0,1,0-.864ZM32.252,46.548h6.775l-.868,2.084c-.024.056-.033.116-.053.174H32.252ZM42.414,64.613H40.155V58.968a1.129,1.129,0,0,1,2.258,0Zm9.032,0H49.188V58.968a1.129,1.129,0,0,1,2.258,0Zm9.032,0H58.22V58.968a1.129,1.129,0,0,1,2.258,0Zm3.675-.969a1.133,1.133,0,0,1-1.117.969h-.3V58.968a3.387,3.387,0,1,0-6.774,0v5.645H53.7V58.968a3.387,3.387,0,0,0-6.774,0v5.645H44.672V58.968a3.387,3.387,0,1,0-6.774,0v5.645h-.3a1.133,1.133,0,0,1-1.117-.97l-1.8-12.579h3.422c.019.053.027.107.049.159a3.386,3.386,0,0,0,6.258.015l.072-.174H56.15l.072.174a3.387,3.387,0,0,0,6.259-.012c.021-.053.029-.107.049-.161h3.42Zm4.228-14.838H62.528c-.02-.058-.029-.116-.053-.173l-.869-2.085h6.775Z" transform="translate(0.361 4.129)"/>
      <path id="Trazado_24422" data-name="Trazado 24422" d="M22,57h2.258v2.258H22Z" transform="translate(2.71 7.226)"/>
      <path id="Trazado_24423" data-name="Trazado 24423" d="M26,57h2.258v2.258H26Z" transform="translate(3.226 7.226)"/>
      <path id="Trazado_24424" data-name="Trazado 24424" d="M21.368,41.643a20.79,20.79,0,0,0,2.2-.117A20.32,20.32,0,0,0,35.716,6.978l-1.6,1.594a18.042,18.042,0,0,1,5.116,15.135,17.621,17.621,0,0,1-2.284,6.656,18.071,18.071,0,0,0-10.595-8.318,9.032,9.032,0,1,0-10.064,0A18.071,18.071,0,0,0,5.695,30.362,18.065,18.065,0,0,1,3.26,21.056c.139-9.648,8.65-17.8,18.584-17.8H51.807a7.913,7.913,0,0,1,7.9,7.9V28.1H64l-5.415,6.188L53.166,28.1h4.286V12.29a6.781,6.781,0,0,0-6.774-6.774H48.419V7.774h2.258a4.521,4.521,0,0,1,4.516,4.516V25.839h-7L58.581,37.715,68.972,25.839h-7V11.161A10.173,10.173,0,0,0,51.807,1H21.844C10.7,1,1.159,10.17,1,21.023a20.319,20.319,0,0,0,20.366,20.62Zm14.147-9.178A18.061,18.061,0,0,1,23.326,39.28a18.757,18.757,0,0,1-3.131.052V35.213l7-10.493a15.816,15.816,0,0,1,8.324,7.745ZM14.548,14.548a6.774,6.774,0,1,1,6.774,6.774,6.781,6.781,0,0,1-6.774-6.774Zm10.4,9.46-3.626,5.44L17.7,24.009a15.581,15.581,0,0,1,7.253,0Zm-9.493.711,4.509,6.764-2.03,3.045v4.533a17.836,17.836,0,0,1-8.777-4.385,18.034,18.034,0,0,1-2.024-2.216,15.8,15.8,0,0,1,8.322-7.741Z"/>
      <path id="Trazado_24425" data-name="Trazado 24425" d="M39,5h2.258V7.258H39Z" transform="translate(4.903 0.516)"/>
    </g>
  </g>
</svg>
