<svg xmlns="http://www.w3.org/2000/svg" width="130" height="130" viewBox="0 0 130 130">
  <g id="Grupo_25582" data-name="Grupo 25582" transform="translate(21785 -5329)">
    <circle id="Elipse_1366" data-name="Elipse 1366" cx="65" cy="65" r="65" transform="translate(-21785 5329)" fill="#fff"/>
    <g id="_022-sale_assistant" data-name="022-sale assistant" transform="translate(-21756 5358)">
      <path id="Trazado_24606" data-name="Trazado 24606" d="M70.937,44.163A3.142,3.142,0,0,0,71,43.537a3.187,3.187,0,0,0-3.184-3.183H66.483V36.967A12.428,12.428,0,0,0,58.3,25.309a6.774,6.774,0,1,0-8.477,0,12.428,12.428,0,0,0-8.181,11.658v3.387H38.856l-.351-2.7a3.4,3.4,0,0,0-3.359-2.949h-.43a4.65,4.65,0,0,0-3.874-3.363l-5.326-.761a5.64,5.64,0,0,1-2.448-.969L14.938,23.9c-.134-.095-.281-.164-.42-.25a6.779,6.779,0,1,0-8.026-.982A7.915,7.915,0,0,0,1,30.193V44.282a7.871,7.871,0,0,0,1.935,5.145l-1.9,15.206a4.513,4.513,0,0,0,3.943,5.043,4.583,4.583,0,0,0,.54.033A4.52,4.52,0,0,0,10,65.753l1.664-13.31,1.853.155a1.135,1.135,0,0,1,1.035,1.125V65.059a4.5,4.5,0,0,0,4.51,4.649,4.517,4.517,0,0,0,4.522-4.515V52.164a7.926,7.926,0,0,0-6.353-7.75l-2.679-.536V34.717l3.76,2.619a12.476,12.476,0,0,0,5.344,2.106l6.066.868a4.479,4.479,0,0,0,4.989-3.343h.439a1.131,1.131,0,0,1,1.119.982l2.991,22.928A4.533,4.533,0,1,0,44.4,62.935H61.467a4.459,4.459,0,0,0-.629,2.258,4.516,4.516,0,1,0,4.516-4.516H41.507l-.589-4.516h27.62Zm-59.776-30.9a4.516,4.516,0,1,1-4.516,4.516A4.521,4.521,0,0,1,11.161,13.258ZM7.756,65.473a2.258,2.258,0,0,1-2.5,1.962,2.257,2.257,0,0,1-1.979-2.523L5,51.132a7.77,7.77,0,0,0,3.249,1.024l1.162.1Zm24.292-28.15a2.236,2.236,0,0,1-2.011.751l-6.067-.868A10.2,10.2,0,0,1,19.6,35.484l-8.92-6.216L9.386,31.119l2.9,2.023V45.729l4.493.9a5.66,5.66,0,0,1,4.539,5.536V65.193A2.262,2.262,0,0,1,18.6,67.406a2.363,2.363,0,0,1-1.8-2.347V53.722a3.4,3.4,0,0,0-3.1-3.374l-5.267-.44a5.678,5.678,0,0,1-5.177-5.626V30.193A5.652,5.652,0,0,1,8.9,24.548h.945a6.557,6.557,0,0,1,3.79,1.2l8.131,5.715A7.938,7.938,0,0,0,25.2,32.819l5.326.761a2.388,2.388,0,0,1,2.071,1.955,2.237,2.237,0,0,1-.545,1.787Zm36.693,6.214a.886.886,0,0,1-.018.182l-.682,3.41H64.225V42.613h3.59A.926.926,0,0,1,68.741,43.537Zm-15.806-.925v4.516H46.161V42.613ZM50.671,27.4l2.016,4.706-1.631,1.3A41.432,41.432,0,0,1,49.918,27.7C50.164,27.589,50.416,27.492,50.671,27.4Zm3.393-.595a10.366,10.366,0,0,1,1.161.071l-1.161,2.709L52.9,26.877A10.366,10.366,0,0,1,54.064,26.806Zm4.145.893a41.432,41.432,0,0,1-1.138,5.712l-1.631-1.3,2.016-4.7C57.712,27.492,57.964,27.589,58.209,27.7Zm-4.145,6.2,2.3,1.84a41.418,41.418,0,0,1-1.887,4.617H53.65a41.2,41.2,0,0,1-1.887-4.617ZM52.935,49.387V53.9H46.161V49.387Zm2.258,0h6.774V53.9H55.193Zm0-2.258V42.613h6.774v4.516Zm9.032-10.161v3.387H56.976a43.38,43.38,0,0,0,3.341-11.381A10.141,10.141,0,0,1,64.225,36.967ZM49.548,20.032a4.516,4.516,0,1,1,4.516,4.516A4.521,4.521,0,0,1,49.548,20.032ZM43.9,36.967a10.141,10.141,0,0,1,3.909-7.993,43.38,43.38,0,0,0,3.341,11.381H43.9Zm0,5.645v4.516H39.74l-.589-4.516Zm-1.129,22.58a2.258,2.258,0,1,1-2.258-2.258A2.26,2.26,0,0,1,42.774,65.193Zm24.838,0a2.258,2.258,0,1,1-2.258-2.258A2.26,2.26,0,0,1,67.612,65.193ZM40.035,49.387H43.9V53.9h-3.28ZM64.225,53.9V49.387H67.59l-.9,4.516Z" transform="translate(0 1.29)"/>
      <path id="Trazado_24607" data-name="Trazado 24607" d="M21.387,16.806H25.9v1.882a2.633,2.633,0,0,0,4.741,1.579l2.6-3.462h3.952a3.391,3.391,0,0,0,3.387-3.387V4.387A3.391,3.391,0,0,0,37.193,1H21.387A3.391,3.391,0,0,0,18,4.387v9.032A3.391,3.391,0,0,0,21.387,16.806ZM20.258,4.387a1.13,1.13,0,0,1,1.129-1.129H37.193a1.13,1.13,0,0,1,1.129,1.129v9.032a1.13,1.13,0,0,1-1.129,1.129H32.113l-3.275,4.366a.391.391,0,0,1-.676-.226v-4.14H21.387a1.13,1.13,0,0,1-1.129-1.129Z" transform="translate(2.193 0)"/>
      <path id="Trazado_24608" data-name="Trazado 24608" d="M22,5H35.548V7.258H22Z" transform="translate(2.709 0.516)"/>
      <path id="Trazado_24609" data-name="Trazado 24609" d="M32,9h2.258v2.258H32Z" transform="translate(4 1.032)"/>
      <path id="Trazado_24610" data-name="Trazado 24610" d="M22,9h9.032v2.258H22Z" transform="translate(2.709 1.032)"/>
    </g>
  </g>
</svg>
