<svg xmlns="http://www.w3.org/2000/svg" width="79" height="79" viewBox="0 0 79 79">
  <g id="Grupo_55866" data-name="Grupo 55866" transform="translate(-770 -25164)">
    <circle id="Base" cx="39.5" cy="39.5" r="39.5" transform="translate(770 25164)" fill="#fff"/>
    <g id="Grupo_25653" data-name="Grupo 25653" transform="translate(-1121.527 23865.5)">
      <g id="Grupo_22993" data-name="Grupo 22993" transform="translate(1925.396 1322.694)">
        <path id="Trazado_22842" data-name="Trazado 22842" d="M2056.856,1403.812a2.3,2.3,0,0,0,.588-1.547V1391.93a2.048,2.048,0,0,0,1.431-2.192v-4.527a2.93,2.93,0,0,0-2.76-3.062h0l-.865-.031v-1.033a3.155,3.155,0,1,0-3.118,0v1.032l-.852.031a2.932,2.932,0,0,0-2.773,3.063v4.527a2.048,2.048,0,0,0,1.431,2.192v10.336a2.3,2.3,0,0,0,.591,1.55,4.271,4.271,0,0,1,4.86.653A2.019,2.019,0,0,0,2056.856,1403.812Zm-5.6-25.469a2.433,2.433,0,1,1,3.3,2.271,2.382,2.382,0,0,1-1.733,0A2.431,2.431,0,0,1,2051.257,1378.343Zm2.794,23.922v-11.148a.362.362,0,0,0-.723,0v11.148a1.415,1.415,0,0,1-1.335,1.48,1.269,1.269,0,0,1-.933-.419,1.576,1.576,0,0,1-.4-1.061v-14.234a.362.362,0,0,0-.723,0v3.139a1.486,1.486,0,0,1-.708-1.433v-4.527a2.214,2.214,0,0,1,2.063-2.34l1.214-.044a.352.352,0,0,0,.1-.023c.01,0,.022,0,.032-.008a.354.354,0,0,0,.084-.057.343.343,0,0,0,.03-.022,1.8,1.8,0,0,0,.076-.117.367.367,0,0,0,.015-.076.334.334,0,0,0,.012-.06v-1.093a2.813,2.813,0,0,0,1.672,0v1.093a.356.356,0,0,0,.012.06.367.367,0,0,0,.015.076,1.8,1.8,0,0,0,.076.117.343.343,0,0,0,.03.022.354.354,0,0,0,.084.057c.01,0,.022,0,.032.008a.352.352,0,0,0,.1.023l1.227.045a2.212,2.212,0,0,1,2.05,2.34v4.527a1.487,1.487,0,0,1-.708,1.433v-3.139a.361.361,0,1,0-.723,0v14.234a1.575,1.575,0,0,1-.4,1.058,1.272,1.272,0,0,1-.936.422A1.415,1.415,0,0,1,2054.051,1402.265Z" transform="translate(-2048.505 -1375.187)"/>
      </g>
      <g id="Grupo_22994" data-name="Grupo 22994" transform="translate(1913.397 1332.875)">
        <path id="Trazado_22843" data-name="Trazado 22843" d="M1949.657,1464.345a16.515,16.515,0,0,1,.548-4.226.362.362,0,1,0-.7-.185,17.235,17.235,0,0,0-.572,4.411v.035a.347.347,0,0,0,.361.344A.376.376,0,0,0,1949.657,1464.345Z" transform="translate(-1948.934 -1459.664)"/>
      </g>
      <g id="Grupo_22995" data-name="Grupo 22995" transform="translate(1946.475 1337.159)">
        <path id="Trazado_22844" data-name="Trazado 22844" d="M2224.334,1495.216a.392.392,0,0,0-.362.4,16.532,16.532,0,0,1-.556,4.259.361.361,0,0,0,.256.442.352.352,0,0,0,.094.012.362.362,0,0,0,.349-.268,17.228,17.228,0,0,0,.581-4.445v-.069A.334.334,0,0,0,2224.334,1495.216Z" transform="translate(-2223.405 -1495.216)"/>
      </g>
      <g id="Grupo_22996" data-name="Grupo 22996" transform="translate(1913.974 1341.579)">
        <path id="Trazado_22845" data-name="Trazado 22845" d="M1954.436,1532.157a.362.362,0,0,0-.7.188,17.1,17.1,0,0,0,1.725,4.139.361.361,0,0,0,.625-.363A16.384,16.384,0,0,1,1954.436,1532.157Z" transform="translate(-1953.725 -1531.889)"/>
      </g>
      <g id="Grupo_22997" data-name="Grupo 22997" transform="translate(1915.628 1325.328)">
        <path id="Trazado_22846" data-name="Trazado 22846" d="M1967.629,1401.208a.362.362,0,0,0,.494-.133,16.51,16.51,0,0,1,2.609-3.413.362.362,0,0,0-.513-.51,17.251,17.251,0,0,0-2.724,3.562A.362.362,0,0,0,1967.629,1401.208Z" transform="translate(-1967.448 -1397.045)"/>
      </g>
      <g id="Grupo_22998" data-name="Grupo 22998" transform="translate(1938.583 1322.593)">
        <path id="Trazado_22847" data-name="Trazado 22847" d="M2157.97,1374.532a.362.362,0,0,0,.134.494,16.526,16.526,0,0,1,3.416,2.606.361.361,0,0,0,.509-.513,17.27,17.27,0,0,0-3.565-2.72A.361.361,0,0,0,2157.97,1374.532Z" transform="translate(-2157.922 -1374.35)"/>
      </g>
      <g id="Grupo_22999" data-name="Grupo 22999" transform="translate(1925.884 1353.453)">
        <path id="Trazado_22848" data-name="Trazado 22848" d="M2057.619,1631.337a.369.369,0,0,0-.37-.361,16.511,16.511,0,0,1-4.242-.552.362.362,0,0,0-.186.7,17.251,17.251,0,0,0,4.438.575h0l0-.362v.362A.354.354,0,0,0,2057.619,1631.337Z" transform="translate(-2052.552 -1630.412)"/>
      </g>
      <g id="Grupo_23000" data-name="Grupo 23000" transform="translate(1930.194 1320.37)">
        <path id="Trazado_22849" data-name="Trazado 22849" d="M2092.913,1357.173a.366.366,0,0,0,.093.012.361.361,0,0,0,.092-.711,17.227,17.227,0,0,0-4.394-.567h-.051a.34.34,0,0,0-.336.362.384.384,0,0,0,.387.362A16.507,16.507,0,0,1,2092.913,1357.173Z" transform="translate(-2088.316 -1355.907)"/>
      </g>
      <g id="Grupo_23001" data-name="Grupo 23001" transform="translate(1918.342 1349.107)">
        <path id="Trazado_22850" data-name="Trazado 22850" d="M1994.127,1597.565a.362.362,0,0,0-.132-.494,16.508,16.508,0,0,1-3.411-2.613.361.361,0,1,0-.51.512,17.236,17.236,0,0,0,3.56,2.727.362.362,0,0,0,.494-.132Z" transform="translate(-1989.967 -1594.353)"/>
      </g>
      <g id="Grupo_23002" data-name="Grupo 23002" transform="translate(1934.589 1351.76)">
        <path id="Trazado_22851" data-name="Trazado 22851" d="M2125.143,1618.773a.363.363,0,0,0,.094-.012,17.1,17.1,0,0,0,4.141-1.72.361.361,0,1,0-.362-.626,16.388,16.388,0,0,1-3.966,1.648.362.362,0,0,0,.093.711Z" transform="translate(-2124.781 -1616.366)"/>
      </g>
      <g id="Grupo_23003" data-name="Grupo 23003" transform="translate(1944.761 1328.727)">
        <path id="Trazado_22852" data-name="Trazado 22852" d="M2211.239,1430.018a.353.353,0,0,0,.095-.013.362.362,0,0,0,.254-.444,17.1,17.1,0,0,0-1.733-4.135.361.361,0,0,0-.624.364,16.4,16.4,0,0,1,1.66,3.961A.362.362,0,0,0,2211.239,1430.018Z" transform="translate(-2209.182 -1425.247)"/>
      </g>
      <g id="Grupo_23004" data-name="Grupo 23004" transform="translate(1921.767 1320.952)">
        <path id="Trazado_22853" data-name="Trazado 22853" d="M2018.754,1363.149a.362.362,0,0,0,.182-.049,16.364,16.364,0,0,1,3.962-1.656.362.362,0,0,0-.188-.7,17.088,17.088,0,0,0-4.137,1.729.362.362,0,0,0,.182.674Z" transform="translate(-2018.392 -1360.733)"/>
      </g>
      <g id="Grupo_23005" data-name="Grupo 23005" transform="translate(1942.121 1345.601)">
        <path id="Trazado_22854" data-name="Trazado 22854" d="M2190.5,1565.313a.36.36,0,0,0-.494.132,16.547,16.547,0,0,1-2.616,3.408.362.362,0,0,0,.512.511,17.267,17.267,0,0,0,2.73-3.557A.361.361,0,0,0,2190.5,1565.313Z" transform="translate(-2187.281 -1565.264)"/>
      </g>
      <g id="Grupo_23006" data-name="Grupo 23006" transform="translate(1921.776 1315.501)">
        <path id="Trazado_22855" data-name="Trazado 22855" d="M2018.825,1317.929a.362.362,0,0,0,.141-.029,21.377,21.377,0,0,1,15.33-.486l-1.133.525.977.358,1.572-.73-.73-1.573-.977-.358.5,1.086a22.1,22.1,0,0,0-15.825.512.361.361,0,0,0,.141.694Z" transform="translate(-2018.464 -1315.501)"/>
      </g>
      <g id="Grupo_23007" data-name="Grupo 23007" transform="translate(1908.527 1329.111)">
        <path id="Trazado_22856" data-name="Trazado 22856" d="M1909.021,1429.166l-.358.978,1.086-.5a22.1,22.1,0,0,0,.511,15.825.362.362,0,0,0,.666-.282,21.376,21.376,0,0,1-.486-15.33l.526,1.133.358-.977-.73-1.573Z" transform="translate(-1908.527 -1428.436)"/>
      </g>
      <g id="Grupo_23008" data-name="Grupo 23008" transform="translate(1922.138 1356.813)">
        <path id="Trazado_22857" data-name="Trazado 22857" d="M2038.21,1658.7a21.376,21.376,0,0,1-15.33.486l1.133-.526-.977-.358-1.573.73.73,1.573.978.358-.5-1.086a22.1,22.1,0,0,0,15.825-.511.362.362,0,0,0-.282-.666Z" transform="translate(-2021.463 -1658.299)"/>
      </g>
      <g id="Grupo_23009" data-name="Grupo 23009" transform="translate(1949.84 1328.75)">
        <path id="Trazado_22858" data-name="Trazado 22858" d="M2254.122,1434.244a21.92,21.92,0,0,0-1.733-8.585.361.361,0,0,0-.666.282,21.378,21.378,0,0,1,.486,15.33l-.526-1.133-.358.977.73,1.573,1.573-.73.358-.978-1.086.5A21.981,21.981,0,0,0,2254.122,1434.244Z" transform="translate(-2251.326 -1425.439)"/>
      </g>
    </g>
  </g>
</svg>
