<?xml version="1.0" encoding="UTF-8" standalone="no"?><!DOCTYPE svg PUBLIC "-//W3C//DTD SVG 1.1//EN" "http://www.w3.org/Graphics/SVG/1.1/DTD/svg11.dtd"><svg width="100%" height="100%" viewBox="0 0 60 60" version="1.1" xmlns="http://www.w3.org/2000/svg" xmlns:xlink="http://www.w3.org/1999/xlink" xml:space="preserve" xmlns:serif="http://www.serif.com/" style="fill-rule:evenodd;clip-rule:evenodd;stroke-linejoin:round;stroke-miterlimit:2;"><g id="Grupo_55869"><circle id="Elipse_1378" cx="30" cy="30" r="30" style="fill:#2a94ee;"/><g id="_3"><path d="M26.815,28.271l2.33,-0c1.845,-0 2.768,-0.904 2.768,-2.71c0,-0.704 -0.22,-1.277 -0.659,-1.722c-0.44,-0.444 -1.06,-0.666 -1.86,-0.666c-0.655,-0 -1.224,0.19 -1.707,0.571c-0.483,0.381 -0.725,0.855 -0.725,1.421l-4.937,0c0,-1.123 0.313,-2.124 0.938,-3.003c0.625,-0.879 1.492,-1.565 2.6,-2.058c1.108,-0.493 2.327,-0.74 3.655,-0.74c2.373,0 4.238,0.542 5.595,1.626c1.358,1.084 2.037,2.573 2.037,4.468c-0,0.918 -0.281,1.785 -0.843,2.6c-0.561,0.816 -1.379,1.477 -2.453,1.985c1.133,0.41 2.021,1.033 2.666,1.868c0.644,0.835 0.967,1.867 0.967,3.098c-0,1.904 -0.733,3.428 -2.198,4.57c-1.465,1.143 -3.388,1.714 -5.771,1.714c-1.397,-0 -2.693,-0.266 -3.889,-0.798c-1.197,-0.533 -2.102,-1.27 -2.718,-2.212c-0.615,-0.943 -0.923,-2.014 -0.923,-3.216l4.966,0c0,0.655 0.264,1.221 0.791,1.7c0.528,0.478 1.177,0.717 1.949,0.717c0.869,0 1.562,-0.241 2.08,-0.725c0.517,-0.483 0.776,-1.101 0.776,-1.853c0,-1.074 -0.269,-1.836 -0.806,-2.285c-0.537,-0.449 -1.279,-0.674 -2.226,-0.674l-2.403,0l0,-3.676Z" style="fill:#fff;fill-rule:nonzero;"/></g></g></svg>