<svg xmlns="http://www.w3.org/2000/svg" width="79" height="79" viewBox="0 0 79 79">
  <g id="Icon" transform="translate(0.308 -0.234)">
    <circle id="Base" cx="39.5" cy="39.5" r="39.5" transform="translate(-0.308 0.234)" fill="#fff"/>
    <g id="bank" transform="translate(18.447 18.989)">
      <path id="Trazado_25265" data-name="Trazado 25265" d="M40.4,15.209a.646.646,0,0,0,.646-.646V4.229a.646.646,0,0,0-.646-.646h-.646V1.646A.646.646,0,0,0,39.107,1H2.938a.646.646,0,0,0-.646.646V3.584H1.646A.646.646,0,0,0,1,4.229V14.564a.646.646,0,0,0,.646.646h.646V37.17H1.646A.646.646,0,0,0,1,37.815V40.4a.646.646,0,0,0,.646.646H40.4a.646.646,0,0,0,.646-.646V37.815a.646.646,0,0,0-.646-.646h-.646V15.209ZM3.584,2.292H38.461V3.584H3.584ZM2.292,4.875H39.753v9.042H2.292Zm36.17,16.793H30.711V17.793h7.751Zm-9.042,0H21.668V17.793h7.751Zm-9.042,0H12.626V17.793h7.751Zm-9.042,0H3.584V17.793h7.751ZM39.753,39.753H2.292V38.461H39.753ZM22.96,37.17H21.668V27.481a.646.646,0,0,0-.646-.646H8.1a.646.646,0,0,0-.646.646V37.17H6.167V25.544H22.96Zm-14.209,0V28.127h5.167V37.17Zm6.459-9.042h5.167V37.17H15.209ZM35.878,37.17H28.127V25.544h7.751Zm1.292,0V24.9a.646.646,0,0,0-.646-.646H27.481a.646.646,0,0,0-.646.646V37.17H24.252V24.9a.646.646,0,0,0-.646-.646H5.521a.646.646,0,0,0-.646.646V37.17H3.584V22.96H38.461V37.17ZM38.461,16.5H3.584V15.209H38.461Z"/>
      <path id="Trazado_25266" data-name="Trazado 25266" d="M17.229,9H14.646A.646.646,0,0,0,14,9.646v5.167a.646.646,0,0,0,.646.646h2.584a1.937,1.937,0,0,0,1.443-3.229A1.937,1.937,0,0,0,17.229,9Zm0,5.167H15.292V12.875h1.938a.646.646,0,0,1,0,1.292Zm0-2.584H15.292V10.292h1.938a.646.646,0,0,1,0,1.292Z" transform="translate(-4.603 -2.833)"/>
      <path id="Trazado_25267" data-name="Trazado 25267" d="M26.584,9A2.586,2.586,0,0,0,24,11.584v3.875h1.292V13.521h2.584v1.938h1.292V11.584A2.586,2.586,0,0,0,26.584,9Zm-1.292,3.229v-.646a1.292,1.292,0,1,1,2.584,0v.646Z" transform="translate(-8.145 -2.833)"/>
      <path id="Trazado_25268" data-name="Trazado 25268" d="M37.875,12.875,35.163,9.258A.646.646,0,0,0,34,9.646v5.813h1.292V11.583L38,15.2a.646.646,0,0,0,.517.258.658.658,0,0,0,.2-.033.646.646,0,0,0,.442-.613V9H37.875Z" transform="translate(-11.686 -2.833)"/>
      <path id="Trazado_25269" data-name="Trazado 25269" d="M47.875,9H46.584a2.471,2.471,0,0,1-1.292,2.177V9H44v6.459h1.292V13.282a2.471,2.471,0,0,1,1.292,2.177h1.292a3.751,3.751,0,0,0-1.832-3.229A3.751,3.751,0,0,0,47.875,9Z" transform="translate(-15.227 -2.833)"/>
      <path id="Trazado_25270" data-name="Trazado 25270" d="M45.646,46.167h3.875a.646.646,0,0,0,.646-.646V41.646A.646.646,0,0,0,49.521,41H45.646a.646.646,0,0,0-.646.646v3.875A.646.646,0,0,0,45.646,46.167Zm.646-3.875h2.584v2.584H46.292Z" transform="translate(-15.581 -14.165)"/>
    </g>
  </g>
</svg>
