<svg xmlns="http://www.w3.org/2000/svg" width="1010.5" height="100" viewBox="0 0 1010.5 100">
  <g id="Grupo_55667" data-name="Grupo 55667" transform="translate(-178 -31703)">
    <g id="Grupo_55666" data-name="Grupo 55666" transform="translate(128)">
      <circle id="Elipse_1393" data-name="Elipse 1393" cx="50" cy="50" r="50" transform="translate(505 31703)" fill="#fff5a2"/>
      <g id="_006-online_shopping" data-name="006-online shopping" transform="translate(523 31721)">
        <path id="Trazado_24426" data-name="Trazado 24426" d="M33,11v2h3.181l1.648,8.239A3,3,0,1,0,42,24a2.966,2.966,0,0,0-.184-1h4.369A2.943,2.943,0,0,0,46,24a3,3,0,1,0,4.344-2.667L52,17.192V15H38.619l-.8-4Zm7,13a1,1,0,1,1-1-1A1,1,0,0,1,40,24Zm9,1a1,1,0,1,1,1-1A1,1,0,0,1,49,25Zm.923-8-1.6,4h-8.5l-.8-4Z" fill="#2a94ee"/>
        <path id="Trazado_24427" data-name="Trazado 24427" d="M18,5h6V7H18Z" fill="#2a94ee"/>
        <path id="Trazado_24428" data-name="Trazado 24428" d="M14,5h2V7H14Z" fill="#2a94ee"/>
        <path id="Trazado_24429" data-name="Trazado 24429" d="M15,57h8v2H15Z" fill="#2a94ee"/>
        <path id="Trazado_24430" data-name="Trazado 24430" d="M62.867,57.347l-3.22-12.88A4.568,4.568,0,0,0,55.208,41H46.792a4.566,4.566,0,0,0-4.438,3.466L42.22,45H37V33.131a14.908,14.908,0,0,0,6.961.742A15,15,0,0,0,40.206,4.105a14.66,14.66,0,0,0-3.336.8A5,5,0,0,0,32,1H6A5.006,5.006,0,0,0,1,6V58a5.006,5.006,0,0,0,5,5H58.424A4.581,4.581,0,0,0,63,58.424a4.431,4.431,0,0,0-.133-1.077ZM49,43h4v2a2,2,0,0,1-4,0ZM28.219,53H7V11H29.315a14.768,14.768,0,0,0-2.088,5.389,14.94,14.94,0,0,0,1.183,8.934l-2.246,6.059a2.538,2.538,0,0,0-.164.9v.125a2.59,2.59,0,0,0,3.843,2.267L31,34.037V45.946a4.556,4.556,0,0,0-1.645,2.508ZM35,47h6v3a3,3,0,0,1-6,0Zm0-2H33.781a4.573,4.573,0,0,0-.781.068V32.932l1.613-.891c.127.072.258.132.387.2ZM40.437,6.091A13,13,0,1,1,35.16,30.04l-.5-.309-5.783,3.2A.607.607,0,0,1,28,32.41v-.125a.58.58,0,0,1,.037-.205l2.547-6.871-.195-.389A12.982,12.982,0,0,1,40.437,6.091ZM3,58V6A3,3,0,0,1,6,3H32a2.994,2.994,0,0,1,2.975,2.753A15.107,15.107,0,0,0,30.822,9H7a2,2,0,0,0-2,2V53a2,2,0,0,0,2,2H27.719l-.583,2.333a4.6,4.6,0,0,0-.136,1.1A4.537,4.537,0,0,0,27.791,61H6a3,3,0,0,1-3-3Zm41,3H31.562A2.565,2.565,0,0,1,29,58.438a2.621,2.621,0,0,1,.076-.622l2.219-8.877A2.555,2.555,0,0,1,33,47.126V50a5,5,0,0,0,10,0V47.126a2.556,2.556,0,0,1,1.705,1.813l2.218,8.876a2.592,2.592,0,0,1,.077.623A2.565,2.565,0,0,1,44.438,61Zm14.421,0H48.209a4.541,4.541,0,0,0,.654-3.668l-2.219-8.877a4.541,4.541,0,0,0-2.477-3l.125-.5A2.574,2.574,0,0,1,46.792,43H47v2a4,4,0,0,0,8,0V43h.208a2.572,2.572,0,0,1,2.5,1.951l3.221,12.88a2.462,2.462,0,0,1,.072.593A2.578,2.578,0,0,1,58.424,61Z" fill="#2a94ee"/>
        <path id="Trazado_24431" data-name="Trazado 24431" d="M25,13H9v8H25Zm-2,6H11V15H23Z" fill="#2a94ee"/>
        <path id="Trazado_24432" data-name="Trazado 24432" d="M9,23H25v2H9Z" fill="#2a94ee"/>
        <path id="Trazado_24433" data-name="Trazado 24433" d="M9,27H25v2H9Z" fill="#2a94ee"/>
        <path id="Trazado_24434" data-name="Trazado 24434" d="M25,31H9v8H25Zm-2,6H11V33H23Z" fill="#2a94ee"/>
        <path id="Trazado_24435" data-name="Trazado 24435" d="M9,41H29v2H9Z" fill="#2a94ee"/>
        <path id="Trazado_24436" data-name="Trazado 24436" d="M9,45H29v2H9Z" fill="#2a94ee"/>
        <path id="Trazado_24437" data-name="Trazado 24437" d="M9,49H19v2H9Z" fill="#2a94ee"/>
        <path id="Trazado_24438" data-name="Trazado 24438" d="M25,49h2v2H25Z" fill="#2a94ee"/>
        <path id="Trazado_24439" data-name="Trazado 24439" d="M21,49h2v2H21Z" fill="#2a94ee"/>
      </g>
    </g>
    <line id="Línea_154" data-name="Línea 154" x2="439" transform="translate(748.5 31753.5)" fill="none" stroke="#fff5a2" stroke-linecap="round" stroke-width="2" stroke-dasharray="2 6"/>
    <line id="Línea_155" data-name="Línea 155" x2="439" transform="translate(179 31753.5)" fill="none" stroke="#fff5a2" stroke-linecap="round" stroke-width="2" stroke-dasharray="2 6"/>
  </g>
</svg>
