<svg xmlns="http://www.w3.org/2000/svg" width="79" height="79" viewBox="0 0 79 79">
  <g id="Grupo_55670" data-name="Grupo 55670" transform="translate(-514 -24879)">
    <circle id="Base" cx="39.5" cy="39.5" r="39.5" transform="translate(514 24879)" fill="#fff"/>
    <g id="doctor" transform="translate(527.711 24894.344)">
      <path id="Trazado_25272" data-name="Trazado 25272" d="M31.128,26.181c-5.581-.182-6.92-4.96-7.206-6.5a2.423,2.423,0,0,1-1.357-.862,2.727,2.727,0,0,1-.508-1.856,2.561,2.561,0,0,1,.6-1.991,1.873,1.873,0,0,1,.451-.34,9.842,9.842,0,0,1-1.467-5.59,5.474,5.474,0,0,1,5.532-5.092A5.455,5.455,0,0,1,29.138,2.5a6.911,6.911,0,0,1,4.442-.248c2.885.753,4.809,2.2,5.722,4.293,1.3,2.979.16,6.408-.5,7.947a1.9,1.9,0,0,1,.676.388,2.482,2.482,0,0,1,.691,2.08,2.723,2.723,0,0,1-.507,1.856,2.426,2.426,0,0,1-1.358.862C38.022,21.22,36.687,26,31.128,26.181ZM24.146,15.618a.837.837,0,0,0-.6.213,1.475,1.475,0,0,0-.253,1.107.636.636,0,0,1,0,.124,1.528,1.528,0,0,0,.259,1.006,1.413,1.413,0,0,0,.99.469.619.619,0,0,1,.544.562c.02.23.569,5.666,6.045,5.846,5.446-.179,6-5.616,6.017-5.847a.619.619,0,0,1,.544-.561,1.412,1.412,0,0,0,.99-.469,1.531,1.531,0,0,0,.259-1.011.648.648,0,0,1,0-.12,1.475,1.475,0,0,0-.279-1.136.939.939,0,0,0-.672-.176.619.619,0,0,1-.653-.9c.023-.043,2.29-4.345.833-7.689-.754-1.728-2.4-2.934-4.9-3.585a5.668,5.668,0,0,0-3.634.186,4.161,4.161,0,0,0-1.667,1.3.613.613,0,0,1-.549.248,4.257,4.257,0,0,0-4.543,3.978h0s-.171,3.369,1.78,5.412a.619.619,0,0,1,.118.681.586.586,0,0,1-.586.366Z" transform="translate(-5.232 0)"/>
      <path id="Trazado_25273" data-name="Trazado 25273" d="M39.052,18.9a.619.619,0,0,1-.619-.593c-.007-.16-.2-3.9-2.99-4.258a9.422,9.422,0,0,1-7.186-2.082c-.789.593-2.607,2.4-2.257,6.244a.619.619,0,0,1-1.23.112c-.513-5.644,3.111-7.6,3.265-7.684a.619.619,0,0,1,.714.1,8.264,8.264,0,0,0,6.575,2.075.692.692,0,0,1,.171-.006c3.146.327,4.107,3.707,4.175,5.446a.619.619,0,0,1-.593.642Z" transform="translate(-6.407 -3.267)"/>
      <path id="Trazado_25274" data-name="Trazado 25274" d="M43.293,62.307H8.53a.619.619,0,0,1-.619-.619v-6.9a8.235,8.235,0,0,1,8.23-8.218h1.188a.619.619,0,1,1,0,1.238H16.141a7,7,0,0,0-6.993,6.981v6.28H42.675v-6.28a6.989,6.989,0,0,0-6.981-6.981H34.42a.619.619,0,1,1,0-1.238h1.274a8.23,8.23,0,0,1,8.218,8.218v6.9A.619.619,0,0,1,43.293,62.307Z" transform="translate(0 -16.991)"/>
      <path id="Trazado_25275" data-name="Trazado 25275" d="M39.961,61.028a.619.619,0,0,1-.612-.711l2.5-16.574a.619.619,0,0,1,.79-.5l4.322,1.3a.619.619,0,0,1,.376.866L45.624,48.86l1,1.118a.619.619,0,0,1,.062.737l-6.195,10.02A.619.619,0,0,1,39.961,61.028Zm3.01-16.394L41.024,57.514l4.364-7.054-.967-1.086a.619.619,0,0,1-.092-.687l1.577-3.165Z" transform="translate(-11.981 -15.712)"/>
      <path id="Trazado_25276" data-name="Trazado 25276" d="M28.956,61.03a.619.619,0,0,1-.527-.293l-6.2-10.019a.619.619,0,0,1,.062-.737l1-1.118-1.718-3.447a.619.619,0,0,1,.376-.866l4.322-1.3a.619.619,0,0,1,.79.5l2.506,16.574a.619.619,0,0,1-.61.709ZM23.527,50.459l4.364,7.054L25.946,44.636l-2.936.885,1.576,3.165a.619.619,0,0,1-.092.688Z" transform="translate(-5.183 -15.714)"/>
      <path id="Trazado_25277" data-name="Trazado 25277" d="M34.2,52.445a33.547,33.547,0,0,1-4-.243.619.619,0,1,1,.147-1.228,31.2,31.2,0,0,0,7.616,0,.619.619,0,1,1,.155,1.228,31.251,31.251,0,0,1-3.915.243Z" transform="translate(-8.283 -18.666)"/>
      <path id="Trazado_25278" data-name="Trazado 25278" d="M43.407,42.206a.619.619,0,0,1-.5-.251,8.984,8.984,0,0,1-1.1-3.984.619.619,0,0,1,.582-.653.626.626,0,0,1,.653.582,7.9,7.9,0,0,0,.861,3.32.619.619,0,0,1-.5.986Z" transform="translate(-12.922 -13.463)"/>
      <path id="Trazado_25279" data-name="Trazado 25279" d="M29.115,42.2a.619.619,0,0,1-.5-.986,7.891,7.891,0,0,0,.861-3.32.62.62,0,1,1,1.238.072,9.036,9.036,0,0,1-1.1,3.984A.619.619,0,0,1,29.115,42.2Z" transform="translate(-7.848 -13.462)"/>
      <path id="Trazado_25280" data-name="Trazado 25280" d="M55.6,53.661a.619.619,0,0,1-.619-.6c-.116-4.03-1.648-5.3-1.663-5.31a.623.623,0,0,1-.108-.866.615.615,0,0,1,.857-.119c.082.062,2.015,1.564,2.151,6.259a.619.619,0,0,1-.6.636Z" transform="translate(-17.221 -17.018)"/>
      <path id="Trazado_25281" data-name="Trazado 25281" d="M55.653,60.874A2.446,2.446,0,1,1,58.1,58.428,2.446,2.446,0,0,1,55.653,60.874Zm0-3.655a1.209,1.209,0,1,0,1.208,1.208A1.209,1.209,0,0,0,55.653,57.22Z" transform="translate(-17.266 -20.578)"/>
      <path id="Trazado_25282" data-name="Trazado 25282" d="M15.682,53.681a.619.619,0,0,1-.619-.575c-.337-4.749,2.28-6.267,2.391-6.33a.619.619,0,0,1,.608,1.078c-.094.056-2.042,1.258-1.765,5.165a.619.619,0,0,1-.574.661Z" transform="translate(-2.715 -17.039)"/>
      <path id="Trazado_25283" data-name="Trazado 25283" d="M13.249,62.086a.619.619,0,0,1-.5-.244,3.868,3.868,0,0,1-.655-1.329,3.72,3.72,0,0,1,2.431-4.636,3.465,3.465,0,0,1,2.661.329A3.972,3.972,0,0,1,19.122,60.3a.619.619,0,1,1-1.221-.2,2.736,2.736,0,0,0-1.316-2.809,2.239,2.239,0,0,0-1.719-.218,2.484,2.484,0,0,0-1.577,3.116,2.64,2.64,0,0,0,.449.91.619.619,0,0,1-.492.993Z" transform="translate(-1.534 -20.489)"/>
      <path id="Trazado_25284" data-name="Trazado 25284" d="M21.765,63.126a.494.494,0,0,1-.074,0l-.7-.082a.619.619,0,1,1,.146-1.23l.7.083a.619.619,0,0,1-.072,1.233Z" transform="translate(-4.779 -22.798)"/>
      <path id="Trazado_25285" data-name="Trazado 25285" d="M13.677,65.068a.619.619,0,0,1-.215-1.2l.743-.274a.619.619,0,1,1,.433,1.16l-.743.275A.619.619,0,0,1,13.677,65.068Z" transform="translate(-1.962 -23.465)"/>
    </g>
  </g>
</svg>
