<svg xmlns="http://www.w3.org/2000/svg" width="80" height="80" viewBox="0 0 80 80">
  <g id="Grupo_55877" data-name="Grupo 55877" transform="translate(-643 -4158)">
    <circle id="Base" cx="40" cy="40" r="40" transform="translate(643 4158)" fill="#fff"/>
    <g id="_005-web" data-name="005-web" transform="translate(656 4174)">
      <path id="Trazado_25867" data-name="Trazado 25867" d="M35.213,61.165a.791.791,0,0,0,0-1.582A.791.791,0,1,0,35.213,61.165Z" transform="translate(-30.792 -56.568)"/>
      <path id="Trazado_25868" data-name="Trazado 25868" d="M62.046,61.165a.791.791,0,1,0,0-1.582A.791.791,0,0,0,62.046,61.165Z" transform="translate(-54.795 -56.568)"/>
      <path id="Trazado_25869" data-name="Trazado 25869" d="M88.88,61.165a.791.791,0,0,0,0-1.582A.791.791,0,1,0,88.88,61.165Z" transform="translate(-78.798 -56.568)"/>
      <g id="Grupo_55759" data-name="Grupo 55759" transform="translate(0 0)">
        <path id="Trazado_25870" data-name="Trazado 25870" d="M54,31.791A.791.791,0,0,0,53.209,31H9.462a.792.792,0,0,0,0,1.582H52.418v4.447H1.582V32.582H5.238a.792.792,0,0,0,0-1.582H.791A.791.791,0,0,0,0,31.791V77.67a.791.791,0,0,0,.791.791H53.209A.791.791,0,0,0,54,77.67ZM52.418,48.082l-5.7,1.69V38.611h5.7ZM7.277,38.611V61.479l-5.7,1.69V38.611Zm-5.7,26.208,5.7-1.69v13.75h-5.7Zm7.277,12.06V38.611H45.141V76.879Zm37.863,0V51.423l5.7-1.69V76.879Z" transform="translate(0 -31)"/>
        <path id="Trazado_25871" data-name="Trazado 25871" d="M113.559,160.645h14.925a.792.792,0,0,0,0-1.582H113.559A.792.792,0,0,0,113.559,160.645Z" transform="translate(-100.903 -145.556)"/>
        <path id="Trazado_25872" data-name="Trazado 25872" d="M113.559,192.645h8.121a.792.792,0,0,0,0-1.582h-8.121A.792.792,0,0,0,113.559,192.645Z" transform="translate(-100.903 -174.181)"/>
        <path id="Trazado_25873" data-name="Trazado 25873" d="M304.98,132.672a5.262,5.262,0,1,0,5.262,5.262A5.268,5.268,0,0,0,304.98,132.672Zm0,8.942a3.68,3.68,0,1,1,3.68-3.68A3.684,3.684,0,0,1,304.98,141.614Z" transform="translate(-268.107 -121.949)"/>
        <path id="Trazado_25874" data-name="Trazado 25874" d="M128.484,364.952H113.559a.792.792,0,0,0,0,1.582h14.925A.792.792,0,0,0,128.484,364.952Z" transform="translate(-100.903 -329.731)"/>
        <path id="Trazado_25875" data-name="Trazado 25875" d="M121.68,396.952h-8.121a.792.792,0,0,0,0,1.582h8.121A.792.792,0,0,0,121.68,396.952Z" transform="translate(-100.903 -358.356)"/>
        <path id="Trazado_25876" data-name="Trazado 25876" d="M305.05,338.561a5.3,5.3,0,0,0-4.845,7.317.792.792,0,0,0,1.456-.618,3.636,3.636,0,1,1,2.525,2.14.792.792,0,0,0-.37,1.538,5.257,5.257,0,1,0,1.234-10.377Z" transform="translate(-268.177 -306.123)"/>
        <path id="Trazado_25877" data-name="Trazado 25877" d="M258.976,261.5H244.051a.792.792,0,0,0,0,1.582h14.925A.792.792,0,0,0,258.976,261.5Z" transform="translate(-217.632 -237.189)"/>
        <path id="Trazado_25878" data-name="Trazado 25878" d="M316.68,293.5h-8.121a.792.792,0,0,0,0,1.582h8.121A.792.792,0,0,0,316.68,293.5Z" transform="translate(-275.336 -265.814)"/>
        <path id="Trazado_25879" data-name="Trazado 25879" d="M117.763,245.864A5.262,5.262,0,1,0,112.5,240.6,5.268,5.268,0,0,0,117.763,245.864Zm0-8.942a3.68,3.68,0,1,1-3.68,3.68,3.684,3.684,0,0,1,3.68-3.68Z" transform="translate(-100.636 -213.813)"/>
      </g>
    </g>
  </g>
</svg>
