<svg xmlns="http://www.w3.org/2000/svg" width="36.575" height="44.581" viewBox="0 0 36.575 44.581">
  <path id="_041-pinterest" data-name="041-pinterest" d="M4.7,25.976l1.512.99.572-2.146c1.012-3.772.9-3.605,1.006-4.024a13.041,13.041,0,0,1-.365-6.512l.015-.079C8.457,7.51,19.66,5.688,24.862,10.044c2.244,1.879,3.089,4.7,2.441,8.155a11.971,11.971,0,0,1-2.552,5.824c-1.762,2.059-3.978,2.226-5.291,1.511a2.2,2.2,0,0,1-1.07-2.748c.718-2.4,2.015-6.026,2.169-8.652A4.42,4.42,0,0,0,17.048,9.4a5.863,5.863,0,0,0-6.608,3.933,9.886,9.886,0,0,0,.007,7.17,33.485,33.485,0,0,1-1.135,4.946C7.742,31.266,5.59,39.24,7.686,43.3l.662,1.282L9.558,43.8c3.457-2.247,5.476-8.784,6.583-12.856,2.914,2.157,7.042,2.339,11.125.345A16.676,16.676,0,0,0,36,11.937C33.561,2.456,24.084-1.218,14.537.352,6.668,1.645,1.663,6.743.334,13.026c-1.121,5.3.635,10.505,4.37,12.95ZM2.889,13.566c1.187-5.613,5.7-9.59,12.072-10.638,7.653-1.258,16.346,1.24,18.514,9.66a14.069,14.069,0,0,1-7.355,16.35c-3.036,1.482-7.161,1.922-9.636-1.291l-1.615-2.1-.681,2.556c-.9,3.373-2.354,9.1-4.69,12.159-.459-3.785,1.247-10.107,2.336-14.141,1.039-3.851,1.447-5.453,1.1-6.428a7.417,7.417,0,0,1-.066-5.407,3.292,3.292,0,0,1,3.617-2.344,1.8,1.8,0,0,1,1.468,2.036c-.132,2.256-1.392,5.807-2.064,8.057a4.8,4.8,0,0,0,2.322,5.788c2.378,1.3,5.948.9,8.525-2.105A14.457,14.457,0,0,0,29.87,18.68a12.276,12.276,0,0,0-.3-6.234,9.744,9.744,0,0,0-3.031-4.4C19.8,2.4,6.239,4.991,4.868,13.773A15.151,15.151,0,0,0,5.1,20.881c-.1.454-.251,1.036-.407,1.635a10.555,10.555,0,0,1-1.809-8.95Zm0,0" transform="translate(0 -0.001)" fill="#2a94ee" opacity="0.5"/>
</svg>
