<svg xmlns="http://www.w3.org/2000/svg" width="200" height="120" viewBox="0 0 200 120">
  <g id="Grupo_55880" data-name="Grupo 55880" transform="translate(-179 -6192)">
    <rect id="Rectángulo_5488" data-name="Rectángulo 5488" width="200" height="120" rx="5" transform="translate(179 6192)" fill="#e1eafe"/>
    <g id="round-table" transform="translate(241.998 6215.001)">
      <path id="Trazado_26452" data-name="Trazado 26452" d="M74.552,257.575a11.021,11.021,0,0,0-1.211-14.148l-4.9-4.9a30.353,30.353,0,0,0,.88-11.369,1.1,1.1,0,1,0-2.183.243,28.164,28.164,0,0,1-.51,9.313l-1.572-1.572a4.27,4.27,0,1,0-6.038,6.038l4.126,4.125a28.279,28.279,0,0,1-30.232,12.783l1.574-1.574a4.27,4.27,0,0,0-6.039-6.037l-4.131,4.131a28.448,28.448,0,0,1-9.5-9.609c-.011-.023-.02-.048-.034-.07-.465-.788-.889-1.594-1.263-2.4a27.89,27.89,0,0,1-1.389-3.583,1.117,1.117,0,0,0-.064-.157,28.2,28.2,0,0,1-1.115-10.818,1.1,1.1,0,1,0-2.187-.2,30.365,30.365,0,0,0,1.064,11.2L5.1,243.7a11.017,11.017,0,0,0-1.258,14.081l-.11.11a4.37,4.37,0,0,0,0,6.182l2.036,2.036a4.375,4.375,0,0,0,6.181,0l.1-.1a10.947,10.947,0,0,0,6.34,2.018,11.167,11.167,0,0,0,2.032-.187,1.1,1.1,0,1,0-.4-2.16,8.79,8.79,0,0,1-6.388-1.255l2.313-2.313a4.343,4.343,0,0,0,1.149-2.022,4.169,4.169,0,0,0,5.317-.476l2.845-2.844.006-.006L30,252.029a2.078,2.078,0,0,1,2.934,0,2.073,2.073,0,0,1,0,2.93L30,257.889l-.012.012-5.345,5.344a8.986,8.986,0,0,1-.927.808,1.1,1.1,0,1,0,1.325,1.751A11.069,11.069,0,0,0,26.2,264.8l4.9-4.9a30.415,30.415,0,0,0,16.393-.127l4.749,4.751a10.989,10.989,0,0,0,7.349,3.219q.224.009.447.009a10.976,10.976,0,0,0,6.287-1.972l.111.111a4.376,4.376,0,0,0,6.181,0l2.036-2.036a4.37,4.37,0,0,0,0-6.181ZM4.076,251.137a8.8,8.8,0,0,1,2.578-5.884L10.6,241.3a30.239,30.239,0,0,0,1.858,4.006l-2.18,2.18a4.166,4.166,0,0,0-.518,5.258A4.346,4.346,0,0,0,7.728,253.9l-2.3,2.3a8.791,8.791,0,0,1-1.351-5.061Zm10.317,9.424L11.2,263.753h0l-.8.8a2.178,2.178,0,0,1-3.076,0l-2.036-2.036a2.174,2.174,0,0,1,0-3.076l.785-.785.008-.008,3.2-3.2a2.176,2.176,0,0,1,3.069-.006l1.945,1.944.1.1a2.176,2.176,0,0,1,0,3.076Zm6.466-2.5a1.965,1.965,0,0,1-2.781,0l-2.121-2.12-.011-.011L15,254.984,13.91,253.9l-.007-.007-2.067-2.067a1.965,1.965,0,0,1,0-2.781l1.8-1.8a30.607,30.607,0,0,0,3.4,4.273l-.565.565a1.1,1.1,0,0,0,1.553,1.553l.583-.583a30.478,30.478,0,0,0,4.115,3.151Zm39.712-21.369a2.076,2.076,0,0,1,2.932,0l8.285,8.285a8.872,8.872,0,0,1,1.182,11.013l-2.313-2.313a4.349,4.349,0,0,0-2.022-1.146,4.162,4.162,0,0,0-.475-5.319l-7.589-7.587a2.077,2.077,0,0,1,0-2.933Zm-.525,15.888.572.572a1.1,1.1,0,1,0,1.553-1.553l-.591-.591a30.568,30.568,0,0,0,3.154-4.113l1.872,1.872a1.966,1.966,0,0,1,0,2.781l-2.126,2.126-.006.005-2.036,2.036-.006.006-2.068,2.069a1.97,1.97,0,0,1-2.782,0l-1.815-1.815a30.425,30.425,0,0,0,4.279-3.393Zm-.369,12.968a8.8,8.8,0,0,1-5.884-2.578l-3.962-3.963c.736-.277,1.461-.582,2.171-.915.617-.288,1.233-.6,1.84-.938l2.187,2.187a4.17,4.17,0,0,0,5.256.518,4.347,4.347,0,0,0,1.153,2.036l2.3,2.3a8.806,8.806,0,0,1-5.061,1.352ZM73.1,262.3l-2.037,2.036a2.176,2.176,0,0,1-3.075,0l-3.995-3.995a2.174,2.174,0,0,1,0-3.072l2.042-2.042a2.177,2.177,0,0,1,3.072,0l3.211,3.211h0l.783.782a2.174,2.174,0,0,1,0,3.076Zm0,0" transform="translate(-1.598 -193.064)" fill="#20287a"/>
      <path id="Trazado_26453" data-name="Trazado 26453" d="M11.515,32.877a4.269,4.269,0,1,0,6.037-6.038l-4.145-4.144a28.31,28.31,0,0,1,3.785-4.865,1.186,1.186,0,0,0,.09-.081,1.1,1.1,0,0,0,.1-.115l.13-.132a28.346,28.346,0,0,1,5.429-4.246,1.111,1.111,0,0,0,.164-.08c.781-.462,1.586-.887,2.395-1.263a28.1,28.1,0,0,1,3.585-1.388,1.08,1.08,0,0,0,.183-.078A28.213,28.213,0,0,1,43.683,9.92l-1.592,1.592a4.269,4.269,0,0,0,6.037,6.037l4.139-4.139a28.459,28.459,0,0,1,9.7,9.983,41.192,41.192,0,0,1,2.45,5.567,1.079,1.079,0,0,0,.074.236.015.015,0,0,1,0,0c.221.729.658.651,1,.651h0a1.1,1.1,0,0,0,.776-.321l5.207-5.2a11.019,11.019,0,0,0,1.258-14.081l.11-.11a4.371,4.371,0,0,0,0-6.181L70.806,1.917a4.376,4.376,0,0,0-6.181,0l-.1.1A11.025,11.025,0,0,0,50.375,3.228l-4.88,4.88a30.407,30.407,0,0,0-16.441.113L24.329,3.495A11.021,11.021,0,0,0,10.246,2.238l-.11-.11a4.377,4.377,0,0,0-6.181,0L1.92,4.163a4.37,4.37,0,0,0,0,6.181l.1.1A11.021,11.021,0,0,0,3.229,24.593Zm49.069-20.83.045.046L64.74,16.2a1.966,1.966,0,0,1,0,2.782l-1.806,1.806a30.619,30.619,0,0,0-3.4-4.277l.565-.564a1.1,1.1,0,1,0-1.553-1.553l-.581.581a30.464,30.464,0,0,0-4.111-3.156l1.858-1.858a1.97,1.97,0,0,1,2.783,0ZM72.5,16.889a8.794,8.794,0,0,1-2.578,5.883l-3.98,3.978A39.353,39.353,0,0,0,64.1,22.728l2.191-2.191a4.165,4.165,0,0,0,.519-5.258,4.344,4.344,0,0,0,2.036-1.15l2.3-2.3A8.789,8.789,0,0,1,72.5,16.889ZM67.716,2.834a2.167,2.167,0,0,1,1.537.636L71.29,5.506a2.176,2.176,0,0,1,0,3.076l-.8.8-.007.007-3.189,3.189a2.177,2.177,0,0,1-3.075,0L62.183,10.54a2.177,2.177,0,0,1,0-3.076l4-3.995a2.165,2.165,0,0,1,1.537-.636ZM51.929,4.78A8.873,8.873,0,0,1,62.944,3.6L60.63,5.911a4.341,4.341,0,0,0-1.146,2.023,4.171,4.171,0,0,0-5.32.474L46.576,16a2.076,2.076,0,0,1-2.933,0,2.071,2.071,0,0,1,0-2.931ZM9.964,19.252a1.966,1.966,0,0,1,0-2.781l6.243-6.241a1.969,1.969,0,0,1,2.782,0l1.794,1.793a30.627,30.627,0,0,0-4.277,3.4l-.554-.554A1.1,1.1,0,0,0,14.4,16.419l.571.57A30.438,30.438,0,0,0,11.816,21.1ZM16.892,2.47a8.8,8.8,0,0,1,5.884,2.578l3.945,3.946a30.363,30.363,0,0,0-4.007,1.855L20.541,8.676a4.169,4.169,0,0,0-5.256-.517,4.342,4.342,0,0,0-1.153-2.037l-2.3-2.3A8.794,8.794,0,0,1,16.892,2.47ZM3.472,5.716,5.509,3.68a2.178,2.178,0,0,1,3.076,0l.8.8.012.011,3.188,3.187a2.176,2.176,0,0,1,0,3.076l-2.037,2.036a2.177,2.177,0,0,1-3.076,0L3.472,8.792a2.174,2.174,0,0,1,0-3.076ZM3.6,12.027l2.313,2.313a4.347,4.347,0,0,0,2.023,1.146A4.161,4.161,0,0,0,8.411,20.8L16,28.392a2.073,2.073,0,0,1-2.931,2.933L4.782,23.039A8.868,8.868,0,0,1,3.6,12.027Zm0,0" transform="translate(0 0)" fill="#20287a"/>
      <path id="Trazado_26454" data-name="Trazado 26454" d="M119.5,279.383l-5.39,4.777a2.064,2.064,0,0,0-.176,2.91l2.97,3.35.009.011.008.007,2.848,3.213a2.063,2.063,0,0,0,2.909.175l5.39-4.778a2.063,2.063,0,0,0,.176-2.91l-5.835-6.582A2.063,2.063,0,0,0,119.5,279.383Zm1.356,1.733,2.117,2.388-5.155,4.636-2.151-2.426Zm.468,10.978-2.048-2.31,5.154-4.636,2.081,2.347Zm0,0" transform="translate(-96.806 -238.033)" fill="#20287a"/>
      <path id="Trazado_26455" data-name="Trazado 26455" d="M288.744,130.267l-7.731,6.852a2.229,2.229,0,0,0-.189,3.147l5.612,6.331a2.215,2.215,0,0,0,1.534.746c.046,0,.092,0,.137,0a2.212,2.212,0,0,0,1.476-.561l7.731-6.853a2.229,2.229,0,0,0,.189-3.147l-5.612-6.33A2.232,2.232,0,0,0,288.744,130.267Zm7.123,8a.026.026,0,0,1-.011.022h0l-7.731,6.852a.024.024,0,0,1-.023.009.03.03,0,0,1-.023-.011l-5.612-6.331a.029.029,0,0,1-.009-.023.032.032,0,0,1,.011-.023l7.731-6.852a.033.033,0,0,1,.022-.009.031.031,0,0,1,.025.011l5.612,6.331A.027.027,0,0,1,295.867,138.267Zm0,0" transform="translate(-239.223 -110.716)" fill="#20287a"/>
    </g>
  </g>
</svg>
