<svg xmlns="http://www.w3.org/2000/svg" width="200" height="200" viewBox="0 0 200 200">
  <g id="_038-scheme" data-name="038-scheme" transform="translate(0)">
    <path id="Trazado_21096" data-name="Trazado 21096" d="M190.9,58.271A100.008,100.008,0,0,1,20.4,160.527a7.447,7.447,0,0,1-1.517-4.514v-4.849a9.27,9.27,0,0,0-9.27-9.268A.671.671,0,0,1,9,141.5a100.191,100.191,0,0,1,.081-83.18,1.553,1.553,0,0,1,1.411-.9,8.389,8.389,0,0,0,8.389-8.388V43.818A6.959,6.959,0,0,1,20.3,39.61,100,100,0,0,1,179.77,39.7a3.4,3.4,0,0,1,.682,2.049v6.564a9.112,9.112,0,0,0,9.114,9.113,1.466,1.466,0,0,1,1.329.85Zm0,0" transform="translate(0 -0.001)" fill="#d64626"/>
    <path id="Trazado_21097" data-name="Trazado 21097" d="M177.774,133.4v46.875a1.953,1.953,0,0,0,1.953,1.953h28.711v5.859H175.82a3.906,3.906,0,0,1-3.906-3.906V133.4H139.492v77.539h-5.859V133.4H96.523V184.18a3.906,3.906,0,0,1-3.906,3.906H60v-5.859H88.711a1.953,1.953,0,0,0,1.953-1.953V133.4H67.813v-5.859H90.664V80.664a1.953,1.953,0,0,0-1.953-1.953H60V72.852H92.617a3.906,3.906,0,0,1,3.906,3.906v50.781h37.109V50h5.859v77.539h32.422V76.758a3.906,3.906,0,0,1,3.906-3.906h28.711v5.859h-24.8a1.953,1.953,0,0,0-1.953,1.953v46.875h32.617V133.4Zm0,0" transform="translate(-36.562 -30.469)" fill="#97181a"/>
    <path id="Trazado_21098" data-name="Trazado 21098" d="M126.906,24.906V48.344A3.906,3.906,0,0,1,123,52.25H99.563a3.906,3.906,0,0,1-3.906-3.906V24.906A3.906,3.906,0,0,1,99.563,21H123A3.906,3.906,0,0,1,126.906,24.906ZM123,173.344H99.563a3.906,3.906,0,0,0-3.906,3.906v23.438a3.906,3.906,0,0,0,3.906,3.906H123a3.906,3.906,0,0,0,3.906-3.906V177.25A3.906,3.906,0,0,0,123,173.344ZM50.344,52.25H34.43A99.96,99.96,0,0,0,23,71.32v8.273A3.906,3.906,0,0,0,26.906,83.5H50.344a3.906,3.906,0,0,0,3.906-3.906V56.156A3.906,3.906,0,0,0,50.344,52.25Zm0,89.844H26.906A3.906,3.906,0,0,0,23,146v8.273a99.961,99.961,0,0,0,11.43,19.07H50.344a3.906,3.906,0,0,0,3.906-3.906V146A3.906,3.906,0,0,0,50.344,142.094Zm0-44.922H26.906A3.906,3.906,0,0,0,23,101.078v23.438a3.906,3.906,0,0,0,3.906,3.906H50.344a3.906,3.906,0,0,0,3.906-3.906V101.078A3.906,3.906,0,0,0,50.344,97.172ZM172.219,83.5h5.859a3.906,3.906,0,0,0,3.906-3.906V56.156a3.906,3.906,0,0,0-3.906-3.906h-5.859a3.906,3.906,0,0,0-3.906,3.906V79.594A3.906,3.906,0,0,0,172.219,83.5Zm23.438,58.594H172.219A3.906,3.906,0,0,0,168.313,146v23.438a3.906,3.906,0,0,0,3.906,3.906h23.438a3.906,3.906,0,0,0,3.906-3.906V146A3.906,3.906,0,0,0,195.656,142.094Zm0-44.922H172.219a3.906,3.906,0,0,0-3.906,3.906v23.438a3.906,3.906,0,0,0,3.906,3.906h23.438a3.906,3.906,0,0,0,3.906-3.906V101.078A3.906,3.906,0,0,0,195.656,97.172Zm0,0" transform="translate(-14.016 -12.797)" fill="#fcb30b"/>
    <path id="Trazado_21099" data-name="Trazado 21099" d="M140.906,24.906V48.344A3.906,3.906,0,0,1,137,52.25H113.563a3.906,3.906,0,0,1-3.906-3.906V24.906A3.906,3.906,0,0,1,113.563,21H137A3.906,3.906,0,0,1,140.906,24.906ZM137,173.344H113.563a3.906,3.906,0,0,0-3.906,3.906v23.438a3.906,3.906,0,0,0,3.906,3.906H137a3.906,3.906,0,0,0,3.906-3.906V177.25A3.906,3.906,0,0,0,137,173.344ZM64.344,52.25H42.962A100.337,100.337,0,0,0,37,60.984v18.61A3.906,3.906,0,0,0,40.906,83.5H64.344a3.906,3.906,0,0,0,3.906-3.906V56.156A3.906,3.906,0,0,0,64.344,52.25Zm0,89.844H40.906A3.906,3.906,0,0,0,37,146v18.61a100.347,100.347,0,0,0,5.962,8.734H64.344a3.906,3.906,0,0,0,3.906-3.906V146A3.906,3.906,0,0,0,64.344,142.094Zm0-44.922H40.906A3.906,3.906,0,0,0,37,101.078v23.438a3.906,3.906,0,0,0,3.906,3.906H64.344a3.906,3.906,0,0,0,3.906-3.906V101.078A3.906,3.906,0,0,0,64.344,97.172ZM202.132,52.25H186.219a3.906,3.906,0,0,0-3.906,3.906V79.594a3.906,3.906,0,0,0,3.906,3.906h23.438a3.906,3.906,0,0,0,3.906-3.906V71.32A99.96,99.96,0,0,0,202.132,52.25Zm7.524,89.844H186.219A3.906,3.906,0,0,0,182.313,146v23.438a3.906,3.906,0,0,0,3.906,3.906h23.438a3.906,3.906,0,0,0,3.906-3.906V146A3.906,3.906,0,0,0,209.656,142.094Zm0-44.922H186.219a3.906,3.906,0,0,0-3.906,3.906v23.438a3.906,3.906,0,0,0,3.906,3.906h23.438a3.906,3.906,0,0,0,3.906-3.906V101.078A3.906,3.906,0,0,0,209.656,97.172Zm0,0" transform="translate(-22.547 -12.797)" fill="#fdbf43"/>
    <path id="Trazado_21100" data-name="Trazado 21100" d="M114.469,39.906A3.906,3.906,0,1,1,110.563,36,3.906,3.906,0,0,1,114.469,39.906Zm-3.906,7.813a3.906,3.906,0,1,0,3.906,3.906A3.906,3.906,0,0,0,110.563,47.719Zm0,140.625a3.906,3.906,0,1,0,3.906,3.906A3.906,3.906,0,0,0,110.563,188.344Zm0,11.719a3.906,3.906,0,1,0,3.906,3.906A3.906,3.906,0,0,0,110.563,200.063ZM37.906,67.25a3.943,3.943,0,0,0-1,.134q-1.467,2.25-2.818,4.579a3.906,3.906,0,1,0,3.821-4.713Zm0,11.719a3.906,3.906,0,1,0,3.906,3.906A3.906,3.906,0,0,0,37.906,78.969Zm0,78.125A3.906,3.906,0,1,0,41.813,161,3.906,3.906,0,0,0,37.906,157.094Zm0,11.719a3.905,3.905,0,0,0-3.821,3.1q1.346,2.33,2.818,4.579a3.9,3.9,0,1,0,1-7.678Zm0-56.641a3.906,3.906,0,1,0,3.906,3.906A3.906,3.906,0,0,0,37.906,112.172Zm0,11.719a3.906,3.906,0,1,0,3.906,3.906A3.906,3.906,0,0,0,37.906,123.891ZM183.219,75.063a3.906,3.906,0,1,0-3.906-3.906A3.906,3.906,0,0,0,183.219,75.063Zm0,3.906a3.906,3.906,0,1,0,3.906,3.906A3.906,3.906,0,0,0,183.219,78.969Zm0,78.125A3.906,3.906,0,1,0,187.125,161,3.906,3.906,0,0,0,183.219,157.094Zm0,11.719a3.906,3.906,0,1,0,3.906,3.906A3.906,3.906,0,0,0,183.219,168.813Zm0-56.641a3.906,3.906,0,1,0,3.906,3.906A3.906,3.906,0,0,0,183.219,112.172Zm0,11.719a3.906,3.906,0,1,0,3.906,3.906A3.906,3.906,0,0,0,183.219,123.891Zm0,0" transform="translate(-20.719 -21.938)" fill="#fc9302"/>
    <path id="Trazado_21101" data-name="Trazado 21101" d="M152.281,42.953a1.953,1.953,0,0,1-1.953,1.953H138.609a1.953,1.953,0,0,1,0-3.906h11.719A1.953,1.953,0,0,1,152.281,42.953Zm-1.953,9.766H138.609a1.953,1.953,0,1,0,0,3.906h11.719a1.953,1.953,0,1,0,0-3.906Zm0,140.625H138.609a1.953,1.953,0,1,0,0,3.906h11.719a1.953,1.953,0,0,0,0-3.906Zm0,11.719H138.609a1.953,1.953,0,1,0,0,3.906h11.719a1.953,1.953,0,1,0,0-3.906ZM77.672,72.25H65.953a1.953,1.953,0,0,0,0,3.906H77.672a1.953,1.953,0,1,0,0-3.906Zm0,11.719H65.953a1.953,1.953,0,0,0,0,3.906H77.672a1.953,1.953,0,1,0,0-3.906Zm0,78.125H65.953a1.953,1.953,0,0,0,0,3.906H77.672a1.953,1.953,0,1,0,0-3.906Zm0,11.719H65.953a1.953,1.953,0,0,0,0,3.906H77.672a1.953,1.953,0,1,0,0-3.906Zm0-56.641H65.953a1.953,1.953,0,0,0,0,3.906H77.672a1.953,1.953,0,1,0,0-3.906Zm0,11.719H65.953a1.953,1.953,0,0,0,0,3.906H77.672a1.953,1.953,0,1,0,0-3.906ZM211.266,76.156h11.719a1.953,1.953,0,1,0,0-3.906H211.266a1.953,1.953,0,0,0,0,3.906Zm11.719,7.813H211.266a1.953,1.953,0,0,0,0,3.906h11.719a1.953,1.953,0,1,0,0-3.906Zm0,78.125H211.266a1.953,1.953,0,0,0,0,3.906h11.719a1.953,1.953,0,1,0,0-3.906Zm0,11.719H211.266a1.953,1.953,0,0,0,0,3.906h11.719a1.953,1.953,0,1,0,0-3.906Zm0-56.641H211.266a1.953,1.953,0,0,0,0,3.906h11.719a1.953,1.953,0,1,0,0-3.906Zm0,11.719H211.266a1.953,1.953,0,0,0,0,3.906h11.719a1.953,1.953,0,1,0,0-3.906Zm0,0" transform="translate(-39 -24.985)" fill="#fda800"/>
    <path id="Trazado_21102" data-name="Trazado 21102" d="M229.373,197.845a26.641,26.641,0,0,0-8.832,19.939v.517H196.387v-.61a27.021,27.021,0,0,0-9.027-20.02,31.489,31.489,0,1,1,42.014.174Zm0,0" transform="translate(-107.844 -87.029)" fill="#fded32"/>
    <path id="Trazado_21103" data-name="Trazado 21103" d="M233.327,218.2v.517H217.366v-.61a27.02,27.02,0,0,0-9.026-20.02,31.489,31.489,0,0,1,17-54.59,31.488,31.488,0,0,1,16.815,54.764A26.641,26.641,0,0,0,233.327,218.2Zm0,0" transform="translate(-120.63 -87.443)" fill="#fdf385"/>
    <path id="Trazado_21104" data-name="Trazado 21104" d="M248.527,323.806a4.314,4.314,0,0,1-3.02,4.115v.2A10.785,10.785,0,0,1,234.723,338.9h-4.744A10.783,10.783,0,0,1,219.2,328.119v-.2a4.314,4.314,0,0,1,1.294-8.429h23.723A4.315,4.315,0,0,1,248.527,323.806Zm0,0" transform="translate(-131.732 -194.691)" fill="#88b9d3"/>
    <path id="Trazado_21105" data-name="Trazado 21105" d="M258.285,323.806a4.314,4.314,0,0,1-3.02,4.115v.2a10.787,10.787,0,0,1-8.519,10.544,10.8,10.8,0,0,1-7.39-5.736,1.081,1.081,0,0,1,.96-1.573h9.665a1.617,1.617,0,0,0,1.616-1.666,1.661,1.661,0,0,0-1.685-1.569H236.5a4.314,4.314,0,1,1,0-8.627h17.47A4.314,4.314,0,0,1,258.285,323.806Zm0,0" transform="translate(-141.489 -194.691)" fill="#b3d1e1"/>
    <path id="Trazado_21106" data-name="Trazado 21106" d="M269.765,149.812l-41.807,41.806a1.821,1.821,0,0,1-2.577,0l-18.236-18.23a.91.91,0,0,1,0-1.289l5.156-5.157a.913.913,0,0,1,1.289,0l12.431,12.431a.913.913,0,0,0,1.289,0l36.008-36.008a.913.913,0,0,1,1.289,0l5.157,5.157a.913.913,0,0,1,0,1.289Zm0,0" transform="translate(-126.066 -87.201)" fill="#fc5426"/>
  </g>
</svg>
