<svg id="_007-pallet" data-name="007-pallet" xmlns="http://www.w3.org/2000/svg" width="150.77" height="141.681" viewBox="0 0 150.77 141.681">
  <g id="Grupo_55827" data-name="Grupo 55827" transform="translate(0 0)">
    <path id="Trazado_27261" data-name="Trazado 27261" d="M136.935,277.723a2.209,2.209,0,0,0,3.115-.23L142.2,275v9.383a2.209,2.209,0,1,0,4.417,0V275l2.149,2.491a2.209,2.209,0,1,0,3.345-2.885l-6.03-6.99a2.209,2.209,0,0,0-3.345,0l-6.03,6.99A2.209,2.209,0,0,0,136.935,277.723Z" transform="translate(-96.071 -192.817)" fill="#20287a"/>
    <path id="Trazado_27262" data-name="Trazado 27262" d="M151.935,347.437a2.208,2.208,0,0,0-2.208-2.208H136.649a2.208,2.208,0,1,0,0,4.417h13.078A2.209,2.209,0,0,0,151.935,347.437Z" transform="translate(-94.851 -248.113)" fill="#20287a"/>
    <path id="Trazado_27263" data-name="Trazado 27263" d="M320.642,277.723a2.209,2.209,0,0,0,3.115-.23L325.906,275v9.383a2.209,2.209,0,1,0,4.417,0V275l2.149,2.491a2.209,2.209,0,0,0,3.345-2.885l-6.03-6.99a2.208,2.208,0,0,0-3.345,0l-6.03,6.99A2.209,2.209,0,0,0,320.642,277.723Z" transform="translate(-225.681 -192.817)" fill="#20287a"/>
    <path id="Trazado_27264" data-name="Trazado 27264" d="M320.356,349.645h13.078a2.208,2.208,0,0,0,0-4.417H320.356a2.208,2.208,0,1,0,0,4.417Z" transform="translate(-224.461 -248.113)" fill="#20287a"/>
    <path id="Trazado_27265" data-name="Trazado 27265" d="M319.127,168.027H308.311a2.209,2.209,0,1,0,0,4.417h10.816a2.209,2.209,0,0,0,0-4.417Z" transform="translate(-215.963 -123.093)" fill="#20287a"/>
    <path id="Trazado_27266" data-name="Trazado 27266" d="M319.127,143.566H308.311a2.209,2.209,0,1,0,0,4.417h10.816a2.209,2.209,0,1,0,0-4.417Z" transform="translate(-215.963 -105.835)" fill="#20287a"/>
    <path id="Trazado_27267" data-name="Trazado 27267" d="M169.727,94.017a2.209,2.209,0,0,0,3.115-.23l2.149-2.491v9.383a2.209,2.209,0,0,0,4.417,0V91.3l2.149,2.491A2.209,2.209,0,1,0,184.9,90.9l-6.03-6.99a2.209,2.209,0,0,0-3.345,0L169.5,90.9A2.208,2.208,0,0,0,169.727,94.017Z" transform="translate(-119.206 -63.207)" fill="#20287a"/>
    <path id="Trazado_27268" data-name="Trazado 27268" d="M182.519,161.521H169.441a2.209,2.209,0,1,0,0,4.417h13.078a2.209,2.209,0,1,0,0-4.417Z" transform="translate(-117.987 -118.502)" fill="#20287a"/>
    <path id="Trazado_27269" data-name="Trazado 27269" d="M147.678,136.4a3.1,3.1,0,0,0,3.092-3.092v-6.587a3.1,3.1,0,0,0-3.092-3.092H131.69v-51a3.1,3.1,0,0,0-3.092-3.092h-6.264v-18a2.209,2.209,0,1,0-4.417,0v18H77.593V29.207h12.05v6.9a2.976,2.976,0,0,0,2.972,2.972H102.9a2.976,2.976,0,0,0,2.972-2.972v-6.9h12.05V41.22a2.209,2.209,0,0,0,4.417,0V27.882a3.1,3.1,0,0,0-3.092-3.092H87.25V18.526a3.1,3.1,0,0,0-3.092-3.092H31.828a3.1,3.1,0,0,0-3.092,3.092v51H22.172a3.1,3.1,0,0,0-3.092,3.092v51H3.092A3.1,3.1,0,0,0,0,126.719v6.587A3.1,3.1,0,0,0,3.092,136.4H10.4v7.946H3.092A3.1,3.1,0,0,0,0,147.436v6.587a3.1,3.1,0,0,0,3.092,3.092H111.016a2.209,2.209,0,1,0,0-4.417H4.417v-3.937H146.353V152.7h-25.03a2.209,2.209,0,1,0,0,4.417h26.355a3.1,3.1,0,0,0,3.092-3.092v-6.587a3.1,3.1,0,0,0-3.092-3.092h-3.186V136.4h3.186ZM94.06,29.207h7.389v5.457H94.06ZM97.5,73.948h9.858v7.521H97.5Zm-4.417,0v8.807a3.135,3.135,0,0,0,3.132,3.132h12.429a3.135,3.135,0,0,0,3.132-3.132V73.948h15.494v49.68H77.593V73.948Zm-40.023-54.1h9.858v7.522H53.064Zm-19.911,0H48.646v8.807a3.135,3.135,0,0,0,3.132,3.132H64.207a3.135,3.135,0,0,0,3.132-3.132V19.851H82.832V24.79H76.268a3.1,3.1,0,0,0-3.092,3.092V69.531H33.153Zm20.113,54.1v7.521H43.408V73.948Zm-19.718,70.4H14.815V136.4H33.547Zm23.542,0H37.965V136.4H57.089Zm36.294,0H61.506V136.4H93.383v7.946Zm23.542,0H97.8V136.4h19.125Zm23.15,0H121.342V136.4h18.733ZM4.417,131.98v-3.936H40.343a2.209,2.209,0,1,0,0-4.417H23.5V73.948H38.99v8.807a3.135,3.135,0,0,0,3.132,3.132H54.551a3.135,3.135,0,0,0,3.132-3.132V73.948H73.176v49.68H50.649a2.209,2.209,0,0,0,0,4.417h95.7v3.936H4.417Z" transform="translate(0 -15.434)" fill="#20287a"/>
  </g>
</svg>
