<svg xmlns="http://www.w3.org/2000/svg" width="1010.5" height="100" viewBox="0 0 1010.5 100">
  <g id="Grupo_55667" data-name="Grupo 55667" transform="translate(-178 -31703)">
    <g id="Grupo_55666" data-name="Grupo 55666" transform="translate(128)">
      <circle id="Elipse_1393" data-name="Elipse 1393" cx="50" cy="50" r="50" transform="translate(505 31703)" fill="#fff5a2"/>
      <g id="_006-online_shopping" data-name="006-online shopping" transform="translate(523 31721)">
        <g id="_002-package" data-name="002-package" transform="translate(-14.36 -2)">
          <g id="Grupo_55822" data-name="Grupo 55822" transform="translate(14.387 0)">
            <path id="Trazado_27221" data-name="Trazado 27221" d="M181.75,458.44a.992.992,0,1,0,0-1.985H176.9a.992.992,0,0,0,0,1.985Z" transform="translate(-154.538 -396.053)" fill="#2a94ee"/>
            <path id="Trazado_27222" data-name="Trazado 27222" d="M51.346,456.455a.992.992,0,0,0,0,1.985H52.9a.992.992,0,0,0,0-1.985Z" transform="translate(-45.595 -396.053)" fill="#2a94ee"/>
            <path id="Trazado_27223" data-name="Trazado 27223" d="M411.017,456.455a.992.992,0,1,0,0,1.985h4.846a.992.992,0,1,0,0-1.985Z" transform="translate(-357.67 -396.053)" fill="#2a94ee"/>
            <path id="Trazado_27224" data-name="Trazado 27224" d="M285.459,456.455a.992.992,0,0,0,0,1.985h1.558a.992.992,0,0,0,0-1.985Z" transform="translate(-248.728 -396.053)" fill="#2a94ee"/>
            <path id="Trazado_27225" data-name="Trazado 27225" d="M292.845,170.031h-5.956a1.391,1.391,0,0,0-1.389,1.389v7.34a1.391,1.391,0,0,0,1.389,1.389h5.956a1.391,1.391,0,0,0,1.389-1.389v-7.34A1.391,1.391,0,0,0,292.845,170.031Zm-.6,8.134h-4.765v-6.149h4.765Z" transform="translate(-249.624 -147.531)" fill="#2a94ee"/>
            <path id="Trazado_27226" data-name="Trazado 27226" d="M169.961,222.344H168.4a.992.992,0,0,0,0,1.985h1.558a.992.992,0,1,0,0-1.985Z" transform="translate(-147.161 -192.921)" fill="#2a94ee"/>
            <path id="Trazado_27227" data-name="Trazado 27227" d="M77.339,53.885a.992.992,0,0,0,.992-.992V36.442a1.656,1.656,0,0,0-1.654-1.654H62.842V13.652L67.958,1.374A.992.992,0,1,0,66.126.611l-4.938,11.85H59.381V10.322a.992.992,0,1,0-1.985,0v2.139H53.323v-2.5a1.656,1.656,0,0,0-1.654-1.654H49.515V4.581H57.4V5.69a.992.992,0,1,0,1.985,0V4.25A1.656,1.656,0,0,0,57.726,2.6H49.185A1.656,1.656,0,0,0,47.53,4.25V8.308H45.189V6.846a1.656,1.656,0,0,0-1.654-1.654H34.993a1.656,1.656,0,0,0-1.654,1.654v5.615H31.531L26.593.611a.992.992,0,1,0-1.832.764l5.116,12.278V34.787H25.848a.992.992,0,0,0,0,1.985H26.5v6.745a1.391,1.391,0,0,0,1.389,1.389h5.956a1.391,1.391,0,0,0,1.389-1.389V36.772h10.13v29h-29v-29h4.845a.992.992,0,0,0,0-1.985H16.041a1.656,1.656,0,0,0-1.654,1.654V66.1a1.656,1.656,0,0,0,1.654,1.654H76.678A1.656,1.656,0,0,0,78.332,66.1V57.524a.992.992,0,1,0-1.985,0v8.244h-29v-29h10.13v6.745a1.391,1.391,0,0,0,1.389,1.389h5.956a1.391,1.391,0,0,0,1.389-1.389V36.772h10.13v16.12a.992.992,0,0,0,.992.992ZM45.188,10.292h6.149v2.169H45.188ZM35.323,7.177H43.2v5.284h-7.88ZM33.252,42.922H28.487V36.772h4.765Zm-1.39-8.134V14.446h29V34.787h-29Zm32.37,8.134H59.467V36.772h4.765Z" transform="translate(-14.387 0)" fill="#2a94ee"/>
          </g>
        </g>
      </g>
    </g>
    <line id="Línea_154" data-name="Línea 154" x2="439" transform="translate(748.5 31753.5)" fill="none" stroke="#fff5a2" stroke-linecap="round" stroke-width="2" stroke-dasharray="2 6"/>
    <line id="Línea_155" data-name="Línea 155" x2="439" transform="translate(179 31753.5)" fill="none" stroke="#fff5a2" stroke-linecap="round" stroke-width="2" stroke-dasharray="2 6"/>
  </g>
</svg>
