<svg xmlns="http://www.w3.org/2000/svg" width="200" height="120" viewBox="0 0 200 120">
  <g id="Grupo_55882" data-name="Grupo 55882" transform="translate(-179 -5589)">
    <rect id="Rectángulo_5485" data-name="Rectángulo 5485" width="200" height="120" rx="5" transform="translate(179 5589)" fill="#e1eafe"/>
    <g id="filial" transform="translate(241 5610.895)">
      <path id="Trazado_26444" data-name="Trazado 26444" d="M206.052,207.31h-2.374a1.187,1.187,0,0,1,0-2.374h4.748v-2.374h-2.374v-2.374h-2.374v2.374a3.561,3.561,0,1,0,0,7.122h2.374a1.187,1.187,0,1,1,0,2.374H201.3v2.374h2.374v2.374h2.374v-2.374a3.561,3.561,0,1,0,0-7.122Zm0,0" transform="translate(-170.426 -170.396)" fill="#20287a"/>
      <path id="Trazado_26445" data-name="Trazado 26445" d="M181.975,139.8l1.882-1.882,1.882,1.882h2.865V113.683h-3.561v-2.374a7.109,7.109,0,0,0-10.683-6.158,7.109,7.109,0,0,0-10.683,6.158v2.374h-3.561V139.8Zm3.069-23.74h1.187v20.874l-2.374-2.374-2.374,2.374V116.057Zm-11.87-4.748a4.706,4.706,0,0,1,1.187-3.108,4.712,4.712,0,0,1,1.187,3.108v2.374h-2.374Zm-7.122,0a4.747,4.747,0,0,1,4.748-4.748,4.676,4.676,0,0,1,1.576.29,7.086,7.086,0,0,0-1.576,4.458v2.374h-4.748Zm13.057,26.114H162.491V116.057h16.618Zm-1.187-23.74v-2.374a7.083,7.083,0,0,0-1.576-4.458,4.677,4.677,0,0,1,1.576-.29,4.748,4.748,0,0,1,4.748,4.748v2.374Zm0,0" transform="translate(-136.361 -88.639)" fill="#20287a"/>
      <path id="Trazado_26446" data-name="Trazado 26446" d="M73.61,38.1a35.232,35.232,0,0,1-3.035,14.363,13.16,13.16,0,0,0-2.063-1.224,33.063,33.063,0,0,0,0-26.285A13.043,13.043,0,1,0,54.005,3.667,37.586,37.586,0,0,0,38,.118V2.491A35.223,35.223,0,0,1,52.363,5.527,13.055,13.055,0,0,0,51.142,7.6a33.063,33.063,0,0,0-26.285,0A13.043,13.043,0,1,0,3.567,22.1,37.584,37.584,0,0,0,.017,38.1H2.391A35.23,35.23,0,0,1,5.426,23.738a13.039,13.039,0,0,0,2.069,1.22,33.063,33.063,0,0,0,0,26.285A13.044,13.044,0,1,0,22,72.534a37.579,37.579,0,0,0,16,3.551V73.71a35.23,35.23,0,0,1-14.363-3.035,13.087,13.087,0,0,0,1.223-2.063,33.063,33.063,0,0,0,26.285,0A13.043,13.043,0,1,0,72.433,54.106,37.587,37.587,0,0,0,75.984,38.1ZM62.927,2.491a10.667,10.667,0,0,1,7.122,18.623V16.128l-2.871-2.066a4.7,4.7,0,0,0,.5-2.075,4.748,4.748,0,0,0-9.5,0,4.688,4.688,0,0,0,.5,2.074l-2.871,2.066v4.986A10.667,10.667,0,0,1,62.927,2.491Zm0,14.244a4.709,4.709,0,0,0,2.71-.86l2.038,1.467V22.67h.119a10.59,10.59,0,0,1-9.733,0h.119V17.343l2.038-1.467a4.712,4.712,0,0,0,2.71.86Zm-2.374-4.748a2.374,2.374,0,1,1,2.374,2.374A2.374,2.374,0,0,1,60.553,11.987Zm-54.6,4.14v4.986a10.683,10.683,0,1,1,14.244,0V16.127l-2.871-2.066a4.748,4.748,0,1,0-8.5,0Zm7.122.608a4.709,4.709,0,0,0,2.71-.86l2.038,1.467V22.67h.119a10.59,10.59,0,0,1-9.733,0h.119V17.343l2.038-1.467a4.712,4.712,0,0,0,2.71.86ZM10.7,11.987a2.374,2.374,0,1,1,2.374,2.374A2.374,2.374,0,0,1,10.7,11.987ZM13.074,73.71a10.6,10.6,0,0,1-4.867-1.187h.119V67.2l2.038-1.468a4.7,4.7,0,0,0,5.42,0L17.822,67.2v5.326h.119a10.6,10.6,0,0,1-4.867,1.187ZM10.7,61.841a2.374,2.374,0,1,1,2.374,2.374A2.374,2.374,0,0,1,10.7,61.841Zm9.5,9.127V65.982l-2.871-2.065a4.7,4.7,0,0,0,.5-2.076,4.748,4.748,0,0,0-9.5,0,4.688,4.688,0,0,0,.5,2.074L5.952,65.979v4.986a10.683,10.683,0,1,1,14.244,0Zm29.722-7a12.9,12.9,0,0,0,.4,2.414,30.684,30.684,0,0,1-24.644,0A12.988,12.988,0,0,0,14.828,50.1a26.081,26.081,0,0,1-2.941-12H9.513a28.492,28.492,0,0,0,2.623,11.917,12.921,12.921,0,0,0-2.416.4,30.7,30.7,0,0,1,0-24.644A12.99,12.99,0,0,0,26,14.929a26.1,26.1,0,0,1,12-2.941V9.613a28.49,28.49,0,0,0-11.917,2.623,12.97,12.97,0,0,0-.405-2.416,30.7,30.7,0,0,1,24.644,0A12.99,12.99,0,0,0,61.172,26.1a26.109,26.109,0,0,1,2.941,12h2.374a28.508,28.508,0,0,0-2.623-11.917,13.01,13.01,0,0,0,2.415-.4,30.692,30.692,0,0,1,0,24.644A12.991,12.991,0,0,0,50,61.274a26.1,26.1,0,0,1-12,2.94v2.374a28.493,28.493,0,0,0,11.917-2.623ZM62.927,73.71a10.6,10.6,0,0,1-4.867-1.187h.119V67.2l2.038-1.468a4.7,4.7,0,0,0,5.42,0L67.675,67.2v5.326h.119A10.6,10.6,0,0,1,62.927,73.71Zm-2.374-11.87a2.374,2.374,0,1,1,2.374,2.374A2.374,2.374,0,0,1,60.553,61.841ZM73.61,63.027a10.65,10.65,0,0,1-3.561,7.94V65.982l-2.871-2.065a4.7,4.7,0,0,0,.5-2.076,4.748,4.748,0,0,0-9.5,0,4.688,4.688,0,0,0,.5,2.074L55.8,65.979v4.986a10.676,10.676,0,1,1,17.8-7.937Zm0,0" transform="translate(0 0)" fill="#20287a"/>
    </g>
  </g>
</svg>
