<svg xmlns="http://www.w3.org/2000/svg" width="90" height="90" viewBox="0 0 90 90">
  <g id="Grupo_55856" data-name="Grupo 55856" transform="translate(-231 -4763)">
    <circle id="Elipse_1808" data-name="Elipse 1808" cx="45" cy="45" r="45" transform="translate(231 4763)" fill="#2a94ee"/>
    <g id="_012-fast_delivery" data-name="012-fast delivery" transform="translate(250 4787)">
      <g id="Grupo_55832" data-name="Grupo 55832" transform="translate(0 0)">
        <path id="Trazado_27300" data-name="Trazado 27300" d="M51.02,45.837H14.269a1.278,1.278,0,0,0-1.277,1.277v3.555H.766a.766.766,0,0,0,0,1.532H12.993v2.48H3.852a.766.766,0,0,0,0,1.532h9.14v2.48H6.938a.766.766,0,0,0,0,1.532h6.054v2.995l-.216,0a12.777,12.777,0,1,0,8.91,21.925H44.738a.766.766,0,1,0,0-1.532H23.029a12.77,12.77,0,0,0-8.5-20.273V60.225h7.845a.766.766,0,0,0,0-1.532H14.525v-2.48h5.8a.766.766,0,0,0,0-1.532h-5.8V52.2H18.2a.766.766,0,1,0,0-1.532H14.525v-3.3H28.467v7.765a1.074,1.074,0,0,0,1.073,1.072h6.21a1.074,1.074,0,0,0,1.072-1.072V52.8a.766.766,0,0,0-1.532,0v1.875H30V47.369H35.29v1.855a.766.766,0,0,0,1.532,0V47.369H50.765v36.24H48.313a.766.766,0,1,0,0,1.532H51.02A1.278,1.278,0,0,0,52.3,83.865V47.114a1.278,1.278,0,0,0-1.277-1.277Zm-27,30.157A11.245,11.245,0,1,1,12.777,64.749,11.257,11.257,0,0,1,24.021,75.994Z" transform="translate(0 -45.837)" fill="#fff"/>
        <path id="Trazado_27301" data-name="Trazado 27301" d="M355.9,344.5a.766.766,0,1,0,0,1.532H366.46a.766.766,0,1,0,0-1.532Z" transform="translate(-318.862 -313.994)" fill="#fff"/>
        <path id="Trazado_27302" data-name="Trazado 27302" d="M355.266,376.153h10.558a.766.766,0,1,0,0-1.532H355.266a.766.766,0,1,0,0,1.532Z" transform="translate(-318.291 -341.038)" fill="#fff"/>
        <path id="Trazado_27303" data-name="Trazado 27303" d="M29.512,255.262a9.773,9.773,0,0,0,9.762,9.762,9.671,9.671,0,0,0,5.849-1.95,9.86,9.86,0,0,0,3.482-4.938.766.766,0,1,0-1.464-.452,8.317,8.317,0,0,1-2.937,4.164,8.151,8.151,0,0,1-4.929,1.644,8.226,8.226,0,1,1,8.187-9.079.766.766,0,0,0,1.524-.157,9.762,9.762,0,0,0-19.473,1.005Z" transform="translate(-26.498 -225.105)" fill="#fff"/>
        <path id="Trazado_27304" data-name="Trazado 27304" d="M118.353,267.866a.766.766,0,0,0-.766.766v6.712a.766.766,0,0,0,1.179.645l4.267-2.728a.766.766,0,0,0-.825-1.291l-3.088,1.974v-5.313A.766.766,0,0,0,118.353,267.866Z" transform="translate(-105.576 -245.187)" fill="#fff"/>
        <path id="Trazado_27305" data-name="Trazado 27305" d="M366.655,180.573a1.074,1.074,0,0,0-1.073-1.073h-10.01a1.074,1.074,0,0,0-1.073,1.073v13.074a1.074,1.074,0,0,0,1.073,1.073h10.01a1.074,1.074,0,0,0,1.073-1.073Zm-1.532,12.615h-9.091V181.032h9.091Z" transform="translate(-318.291 -165.847)" fill="#fff"/>
        <path id="Trazado_27306" data-name="Trazado 27306" d="M384.755,208.331a.766.766,0,0,0,1.08-.08l.9-1.046v3.653a.766.766,0,0,0,1.532,0v-3.653l.9,1.046a.766.766,0,0,0,1.16-1l-2.248-2.606a.766.766,0,0,0-1.16,0l-2.248,2.606A.766.766,0,0,0,384.755,208.331Z" transform="translate(-345.217 -188.185)" fill="#fff"/>
        <path id="Trazado_27307" data-name="Trazado 27307" d="M383.4,290.153h4.876a.766.766,0,0,0,0-1.532H383.4a.766.766,0,0,0,0,1.532Z" transform="translate(-343.548 -263.822)" fill="#fff"/>
      </g>
    </g>
  </g>
</svg>
