<svg xmlns="http://www.w3.org/2000/svg" width="80" height="80" viewBox="0 0 80 80">
  <g id="Grupo_22464" data-name="Grupo 22464" transform="translate(-990 -2470)">
    <circle id="Base" cx="40" cy="40" r="40" transform="translate(990 2470)" fill="#fff"/>
    <g id="_037-flag" data-name="037-flag" transform="translate(1001 2481)">
      <path id="Trazado_20559" data-name="Trazado 20559" d="M92.24,321.12A1.12,1.12,0,1,1,91.12,320,1.12,1.12,0,0,1,92.24,321.12Zm0,0" transform="translate(-79.918 -284.152)"/>
      <path id="Trazado_20560" data-name="Trazado 20560" d="M1.12,143.914a1.12,1.12,0,0,0,0,2.24H49.515a1.12,1.12,0,0,0,0-2.24H41.673v-1.12c0-1.893-2.168-3.361-4.033-3.361H34.279v-25.99h9.634V116.8a1.12,1.12,0,0,0,1.12,1.12h11.2a1.12,1.12,0,0,0,.875-1.82l-3.921-4.9,3.921-4.9a1.12,1.12,0,0,0-.875-1.82H46.154V101.12a1.12,1.12,0,0,0-1.12-1.12H33.159a1.12,1.12,0,0,0-1.12,1.12v38.312H28.006a3.364,3.364,0,0,0-3.361,3.361v1.12H17.924V126.886h3.361a1.12,1.12,0,0,0,1.12-1.12V113.443a11.2,11.2,0,1,0-22.4,0v12.323a1.12,1.12,0,0,0,1.12,1.12H4.481v17.028Zm52.785-37.192L50.88,110.5a1.12,1.12,0,0,0,0,1.4l3.025,3.781H46.154v-8.962Zm-19.626-4.481h9.634V111.2H34.279Zm-7.394,40.553a1.121,1.121,0,0,1,1.12-1.12H37.64c.814,0,1.792.688,1.792,1.12v1.12H26.886ZM2.24,124.645v-11.2a8.962,8.962,0,1,1,17.924,0v11.2H16.8a1.12,1.12,0,0,0-1.12,1.12v18.148H12.323V130.247a1.12,1.12,0,0,0-2.24,0v13.667H6.721V125.766a1.12,1.12,0,0,0-1.12-1.12Zm0,0" transform="translate(0 -88.798)"/>
      <path id="Trazado_20561" data-name="Trazado 20561" d="M53.443,6.721a6.721,6.721,0,1,0-6.721,6.721A6.729,6.729,0,0,0,53.443,6.721ZM46.721,11.2A4.481,4.481,0,1,1,51.2,6.721,4.486,4.486,0,0,1,46.721,11.2Zm0,0" transform="translate(-35.519)"/>
    </g>
  </g>
</svg>
