<svg xmlns="http://www.w3.org/2000/svg" width="1005.292" height="330.437" viewBox="0 0 1005.292 330.437">
  <g id="Grupo_56815" data-name="Grupo 56815" transform="translate(-180.365 -15664)">
    <g id="Grupo_56636" data-name="Grupo 56636" transform="translate(0 -5795)">
      <path id="Trazado_32397" data-name="Trazado 32397" d="M-44.466-4.973a5.283,5.283,0,0,1-1.779,3.794A6.248,6.248,0,0,1-50.475.205a5.618,5.618,0,0,1-4.517-1.933,7.925,7.925,0,0,1-1.646-5.306v-.913a8.95,8.95,0,0,1,.759-3.794,5.686,5.686,0,0,1,2.169-2.517,6.075,6.075,0,0,1,3.276-.877,6.087,6.087,0,0,1,4.163,1.384,5.677,5.677,0,0,1,1.825,3.886h-3.076a3.118,3.118,0,0,0-.8-2.1,2.981,2.981,0,0,0-2.107-.651,2.614,2.614,0,0,0-2.3,1.1,6.178,6.178,0,0,0-.784,3.42v1.128a6.612,6.612,0,0,0,.733,3.538,2.565,2.565,0,0,0,2.312,1.118,3.037,3.037,0,0,0,2.128-.651,2.941,2.941,0,0,0,.8-2.015ZM-43.1-5.65a6.58,6.58,0,0,1,.636-2.943,4.654,4.654,0,0,1,1.83-2,5.34,5.34,0,0,1,2.774-.708A5.052,5.052,0,0,1-34.2-9.926a5.514,5.514,0,0,1,1.584,3.732l.021.759a5.8,5.8,0,0,1-1.425,4.1A4.954,4.954,0,0,1-37.842.205a4.979,4.979,0,0,1-3.83-1.538A5.9,5.9,0,0,1-43.1-5.517Zm2.963.21a4.147,4.147,0,0,0,.595,2.418,1.962,1.962,0,0,0,1.7.837,1.966,1.966,0,0,0,1.682-.827,4.538,4.538,0,0,0,.6-2.644,4.106,4.106,0,0,0-.6-2.4,1.967,1.967,0,0,0-1.7-.852,1.934,1.934,0,0,0-1.682.847A4.614,4.614,0,0,0-40.139-5.44Zm12.1-5.655.092,1.282A3.874,3.874,0,0,1-24.758-11.3a3.219,3.219,0,0,1,2.625,1.036,4.832,4.832,0,0,1,.882,3.1V0h-2.963V-7.112a1.93,1.93,0,0,0-.41-1.372,1.833,1.833,0,0,0-1.364-.426,2.038,2.038,0,0,0-1.876,1.069V0h-2.963V-11.095ZM-13-3.066a.955.955,0,0,0-.538-.856,6.115,6.115,0,0,0-1.728-.559q-3.958-.831-3.958-3.363A3.049,3.049,0,0,1-18-10.31a4.943,4.943,0,0,1,3.2-.99,5.32,5.32,0,0,1,3.379.995,3.135,3.135,0,0,1,1.266,2.584H-13.11a1.434,1.434,0,0,0-.41-1.051A1.736,1.736,0,0,0-14.8-9.187a1.774,1.774,0,0,0-1.159.338,1.068,1.068,0,0,0-.41.861.913.913,0,0,0,.467.795,4.8,4.8,0,0,0,1.574.523,12.856,12.856,0,0,1,1.866.5,3.066,3.066,0,0,1,2.348,2.984,2.894,2.894,0,0,1-1.3,2.456,5.618,5.618,0,0,1-3.363.938,5.867,5.867,0,0,1-2.476-.5,4.155,4.155,0,0,1-1.7-1.364,3.169,3.169,0,0,1-.615-1.871h2.81a1.547,1.547,0,0,0,.584,1.21,2.318,2.318,0,0,0,1.456.42,2.146,2.146,0,0,0,1.287-.323A1,1,0,0,0-13-3.066ZM-1.564-1.128A3.716,3.716,0,0,1-4.6.205,3.5,3.5,0,0,1-7.321-.82a4.377,4.377,0,0,1-.959-3v-7.27h2.963v7.176q0,1.735,1.579,1.735A2.14,2.14,0,0,0-1.666-3.231v-7.863H1.307V0H-1.482Zm7.885-9.967.092,1.241A3.9,3.9,0,0,1,9.6-11.3a2.959,2.959,0,0,1,2.943,1.692A3.809,3.809,0,0,1,15.878-11.3a3.309,3.309,0,0,1,2.687,1.051,4.831,4.831,0,0,1,.882,3.163V0H16.473V-7.092A2.121,2.121,0,0,0,16.1-8.474a1.634,1.634,0,0,0-1.3-.437,1.85,1.85,0,0,0-1.846,1.274L12.966,0H10V-7.081a2.1,2.1,0,0,0-.379-1.4,1.65,1.65,0,0,0-1.292-.432A1.92,1.92,0,0,0,6.506-7.862V0H3.543V-11.095ZM24.85,0H21.877V-11.095H24.85ZM21.7-13.966a1.459,1.459,0,0,1,.446-1.1,1.676,1.676,0,0,1,1.215-.431,1.679,1.679,0,0,1,1.21.431,1.451,1.451,0,0,1,.451,1.1,1.455,1.455,0,0,1-.456,1.107,1.684,1.684,0,0,1-1.2.431,1.684,1.684,0,0,1-1.2-.431A1.455,1.455,0,0,1,21.7-13.966Zm5.127,8.336a6.686,6.686,0,0,1,1.164-4.132A3.776,3.776,0,0,1,31.177-11.3a3.4,3.4,0,0,1,2.676,1.21v-5.66h2.974V0H34.151l-.144-1.179A3.487,3.487,0,0,1,31.156.205a3.766,3.766,0,0,1-3.143-1.543A6.9,6.9,0,0,1,26.829-5.629Zm2.963.211a4.4,4.4,0,0,0,.543,2.4,1.769,1.769,0,0,0,1.579.834,1.982,1.982,0,0,0,1.938-1.164v-4.4a1.954,1.954,0,0,0-1.917-1.164Q29.793-8.911,29.793-5.419Zm8.87-.231A6.58,6.58,0,0,1,39.3-8.593a4.654,4.654,0,0,1,1.83-2A5.34,5.34,0,0,1,43.9-11.3a5.052,5.052,0,0,1,3.666,1.374,5.514,5.514,0,0,1,1.584,3.732l.021.759a5.8,5.8,0,0,1-1.425,4.1A4.954,4.954,0,0,1,43.923.205a4.979,4.979,0,0,1-3.83-1.538,5.9,5.9,0,0,1-1.43-4.184Zm2.963.21a4.147,4.147,0,0,0,.595,2.418,1.962,1.962,0,0,0,1.7.837A1.966,1.966,0,0,0,45.6-3.011a4.538,4.538,0,0,0,.6-2.644,4.106,4.106,0,0,0-.6-2.4,1.967,1.967,0,0,0-1.7-.852,1.934,1.934,0,0,0-1.682.847A4.614,4.614,0,0,0,41.626-5.44ZM57.232-8.316A8.051,8.051,0,0,0,56.166-8.4a2.171,2.171,0,0,0-2.2,1.138V0H51V-11.095h2.8l.082,1.323A2.746,2.746,0,0,1,56.35-11.3a3.105,3.105,0,0,1,.923.133ZM-18.826,22V13.079h-1.651V10.905h1.651v-.513a4.161,4.161,0,0,1,1.287-3.225,5.178,5.178,0,0,1,3.573-1.133,11.853,11.853,0,0,1,3.363.6l-.431,2.451a13.122,13.122,0,0,0-1.559-.385,7.658,7.658,0,0,0-1.189-.087q-2.071,0-2.071,1.835v.451h2.184v2.174h-2.184V22Zm9.608,0h-2.974V10.905h2.974ZM-4.04,10.905l.092,1.282A3.874,3.874,0,0,1-.759,10.7a3.219,3.219,0,0,1,2.625,1.036,4.832,4.832,0,0,1,.882,3.1V22H-.215V14.888a1.93,1.93,0,0,0-.41-1.372,1.833,1.833,0,0,0-1.364-.426,2.038,2.038,0,0,0-1.876,1.069V22H-6.829V10.905ZM11.423,22a3.291,3.291,0,0,1-.3-.995,3.586,3.586,0,0,1-2.8,1.2,3.939,3.939,0,0,1-2.7-.943,3.034,3.034,0,0,1-1.072-2.379A3.135,3.135,0,0,1,5.86,16.176a6.451,6.451,0,0,1,3.779-.954H11v-.636a1.828,1.828,0,0,0-.395-1.23,1.553,1.553,0,0,0-1.246-.461,1.766,1.766,0,0,0-1.174.359,1.219,1.219,0,0,0-.426.984H4.8a2.977,2.977,0,0,1,.595-1.784,3.931,3.931,0,0,1,1.682-1.287,6.129,6.129,0,0,1,2.44-.467,4.842,4.842,0,0,1,3.256,1.031,3.605,3.605,0,0,1,1.2,2.9v4.809a5.3,5.3,0,0,0,.441,2.389V22ZM8.972,19.939a2.552,2.552,0,0,0,1.21-.292,1.919,1.919,0,0,0,.82-.784V16.955H9.9q-2.225,0-2.369,1.538l-.01.174a1.186,1.186,0,0,0,.39.913A1.514,1.514,0,0,0,8.972,19.939ZM19.38,22H16.406V6.25H19.38Z" transform="translate(237.011 21669.051) rotate(0.022)" fill="#20287a"/>
      <path id="Trazado_32396" data-name="Trazado 32396" d="M-62.077,0V-14.93h4.594a6.976,6.976,0,0,1,3.522.887,6.185,6.185,0,0,1,2.425,2.522A7.78,7.78,0,0,1-50.665-7.8v.687a7.8,7.8,0,0,1-.856,3.7A6.132,6.132,0,0,1-53.936-.9a7.029,7.029,0,0,1-3.517.9ZM-59-12.438v9.967h1.487A3.341,3.341,0,0,0-54.756-3.65a5.329,5.329,0,0,0,.974-3.374v-.79a5.413,5.413,0,0,0-.943-3.45,3.329,3.329,0,0,0-2.758-1.174ZM-43.518.205a5.447,5.447,0,0,1-3.973-1.5,5.321,5.321,0,0,1-1.533-3.989v-.287a6.7,6.7,0,0,1,.646-2.989,4.741,4.741,0,0,1,1.83-2.03,5.137,5.137,0,0,1,2.7-.713,4.6,4.6,0,0,1,3.584,1.436,5.833,5.833,0,0,1,1.307,4.071v1.21H-46.02a2.753,2.753,0,0,0,.866,1.743,2.619,2.619,0,0,0,1.83.656,3.2,3.2,0,0,0,2.676-1.241l1.456,1.63A4.449,4.449,0,0,1-41-.323,5.921,5.921,0,0,1-43.518.205Zm-.338-9.116a1.852,1.852,0,0,0-1.43.6,3.093,3.093,0,0,0-.7,1.71h4.122V-6.84A2.206,2.206,0,0,0-42.4-8.37,1.91,1.91,0,0,0-43.856-8.911Zm10.6,5.291,2.061-7.475h3.1L-31.838,0h-2.83l-3.743-11.095h3.1Zm5.845-2.03a6.58,6.58,0,0,1,.636-2.943,4.654,4.654,0,0,1,1.83-2,5.34,5.34,0,0,1,2.774-.708A5.052,5.052,0,0,1-18.5-9.926a5.514,5.514,0,0,1,1.584,3.732l.021.759a5.8,5.8,0,0,1-1.425,4.1A4.954,4.954,0,0,1-22.148.205a4.979,4.979,0,0,1-3.83-1.538,5.9,5.9,0,0,1-1.43-4.184Zm2.963.21a4.147,4.147,0,0,0,.595,2.418,1.962,1.962,0,0,0,1.7.837,1.966,1.966,0,0,0,1.682-.827,4.538,4.538,0,0,0,.6-2.644,4.106,4.106,0,0,0-.6-2.4,1.967,1.967,0,0,0-1.7-.852,1.934,1.934,0,0,0-1.682.847A4.614,4.614,0,0,0-24.445-5.44ZM-11.946,0h-2.974V-15.75h2.974Zm9.085-1.128A3.716,3.716,0,0,1-5.9.205,3.5,3.5,0,0,1-8.618-.82a4.377,4.377,0,0,1-.959-3v-7.27h2.963v7.176q0,1.735,1.579,1.735A2.14,2.14,0,0,0-2.963-3.231v-7.863H.01V0H-2.779ZM6.86-2.184a1.944,1.944,0,0,0,1.333-.451,1.581,1.581,0,0,0,.533-1.2H11.5a3.8,3.8,0,0,1-.615,2.066A4.06,4.06,0,0,1,9.234-.313,5.183,5.183,0,0,1,6.911.205,4.817,4.817,0,0,1,3.158-1.307,5.985,5.985,0,0,1,1.784-5.486v-.195A5.917,5.917,0,0,1,3.148-9.772,4.761,4.761,0,0,1,6.891-11.3a4.667,4.667,0,0,1,3.338,1.184A4.193,4.193,0,0,1,11.5-6.962H8.726a2.036,2.036,0,0,0-.533-1.407,1.778,1.778,0,0,0-1.354-.541,1.785,1.785,0,0,0-1.564.755,4.374,4.374,0,0,0-.528,2.449V-5.4a4.43,4.43,0,0,0,.523,2.465A1.807,1.807,0,0,0,6.86-2.184ZM16.324,0H13.351V-11.095h2.974ZM13.176-13.966a1.459,1.459,0,0,1,.446-1.1,1.676,1.676,0,0,1,1.215-.431,1.679,1.679,0,0,1,1.21.431,1.451,1.451,0,0,1,.451,1.1,1.455,1.455,0,0,1-.456,1.107,1.684,1.684,0,0,1-1.2.431,1.684,1.684,0,0,1-1.2-.431A1.455,1.455,0,0,1,13.176-13.966ZM18.3-5.65a6.58,6.58,0,0,1,.636-2.943,4.654,4.654,0,0,1,1.83-2,5.34,5.34,0,0,1,2.774-.708,5.052,5.052,0,0,1,3.666,1.374,5.514,5.514,0,0,1,1.584,3.732l.021.759a5.8,5.8,0,0,1-1.425,4.1A4.954,4.954,0,0,1,23.563.205a4.979,4.979,0,0,1-3.83-1.538A5.9,5.9,0,0,1,18.3-5.517Zm2.963.21a4.147,4.147,0,0,0,.595,2.418,1.962,1.962,0,0,0,1.7.837,1.966,1.966,0,0,0,1.682-.827,4.538,4.538,0,0,0,.6-2.644,4.106,4.106,0,0,0-.6-2.4,1.967,1.967,0,0,0-1.7-.852,1.934,1.934,0,0,0-1.682.847A4.614,4.614,0,0,0,21.267-5.44Zm12.1-5.655.092,1.282A3.874,3.874,0,0,1,36.647-11.3a3.219,3.219,0,0,1,2.625,1.036,4.832,4.832,0,0,1,.882,3.1V0H37.191V-7.112a1.93,1.93,0,0,0-.41-1.372,1.833,1.833,0,0,0-1.364-.426,2.038,2.038,0,0,0-1.876,1.069V0H30.577V-11.095ZM47.506.205a5.447,5.447,0,0,1-3.973-1.5A5.321,5.321,0,0,1,42-5.281v-.287a6.7,6.7,0,0,1,.646-2.989,4.741,4.741,0,0,1,1.83-2.03,5.137,5.137,0,0,1,2.7-.713,4.6,4.6,0,0,1,3.584,1.436,5.833,5.833,0,0,1,1.307,4.071v1.21H45a2.753,2.753,0,0,0,.866,1.743,2.619,2.619,0,0,0,1.83.656,3.2,3.2,0,0,0,2.676-1.241l1.456,1.63a4.449,4.449,0,0,1-1.8,1.471A5.921,5.921,0,0,1,47.506.205Zm-.338-9.116a1.852,1.852,0,0,0-1.43.6,3.093,3.093,0,0,0-.7,1.71h4.122V-6.84a2.206,2.206,0,0,0-.533-1.529A1.91,1.91,0,0,0,47.168-8.911ZM59.76-3.066a.955.955,0,0,0-.538-.856,6.115,6.115,0,0,0-1.728-.559q-3.958-.831-3.958-3.363a3.049,3.049,0,0,1,1.225-2.466,4.943,4.943,0,0,1,3.2-.99,5.32,5.32,0,0,1,3.379.995A3.135,3.135,0,0,1,62.61-7.721H59.647a1.434,1.434,0,0,0-.41-1.051,1.736,1.736,0,0,0-1.282-.415,1.774,1.774,0,0,0-1.159.338,1.068,1.068,0,0,0-.41.861.913.913,0,0,0,.467.795,4.8,4.8,0,0,0,1.574.523,12.856,12.856,0,0,1,1.866.5,3.066,3.066,0,0,1,2.348,2.984,2.894,2.894,0,0,1-1.3,2.456,5.618,5.618,0,0,1-3.363.938,5.867,5.867,0,0,1-2.476-.5,4.155,4.155,0,0,1-1.7-1.364,3.169,3.169,0,0,1-.615-1.871H56a1.547,1.547,0,0,0,.584,1.21,2.318,2.318,0,0,0,1.456.42,2.146,2.146,0,0,0,1.287-.323A1,1,0,0,0,59.76-3.066Z" transform="translate(418.249 21669.104)" fill="#20287a"/>
      <path id="Trazado_28847" data-name="Trazado 28847" d="M-76.649-2183.376l-6.178-5.658a1.445,1.445,0,0,0-2.421,1.065v4.861a1.444,1.444,0,0,1-1.444,1.444h-10.7a1.445,1.445,0,0,0-1.444,1.445v9.437a1.445,1.445,0,0,0,1.444,1.444h10.7a1.445,1.445,0,0,1,1.444,1.445v4.861a1.445,1.445,0,0,0,2.421,1.065l6.178-5.658,7.435-6.81a1.445,1.445,0,0,0,0-2.13Z" transform="translate(413.067 23773.426)" fill="#006df0"/>
      <path id="Trazado_28848" data-name="Trazado 28848" d="M111.147-2183.376l-6.178-5.658a1.444,1.444,0,0,0-2.42,1.065v4.861a1.445,1.445,0,0,1-1.445,1.444h-10.7a1.445,1.445,0,0,0-1.445,1.445v9.437a1.445,1.445,0,0,0,1.445,1.444h10.7a1.445,1.445,0,0,1,1.445,1.445v4.861a1.444,1.444,0,0,0,2.42,1.065l6.178-5.658,7.435-6.81a1.443,1.443,0,0,0,0-2.13Z" transform="translate(413.605 23773.426)" fill="#006df0"/>
      <path id="Trazado_28849" data-name="Trazado 28849" d="M282.343-2183.376l-6.178-5.658a1.445,1.445,0,0,0-2.421,1.065v4.861a1.444,1.444,0,0,1-1.444,1.444H261.6a1.445,1.445,0,0,0-1.444,1.445v9.437a1.445,1.445,0,0,0,1.444,1.444h10.7a1.445,1.445,0,0,1,1.444,1.445v4.861a1.444,1.444,0,0,0,2.42,1.065l6.179-5.658,7.435-6.81a1.445,1.445,0,0,0,0-2.13Z" transform="translate(414.096 23773.426)" fill="#006df0"/>
      <path id="Trazado_28850" data-name="Trazado 28850" d="M642.359-2085.5l-6.179-5.658a1.444,1.444,0,0,0-2.42,1.065v4.861a1.444,1.444,0,0,1-1.444,1.444h-10.7a1.445,1.445,0,0,0-1.444,1.444v9.438a1.445,1.445,0,0,0,1.444,1.444h10.7a1.445,1.445,0,0,1,1.444,1.445v4.86a1.445,1.445,0,0,0,2.42,1.066l6.179-5.658,7.435-6.811a1.444,1.444,0,0,0,0-2.13Z" transform="translate(415.127 23773.705)" fill="#006df0"/>
      <g id="Grupo_56624" data-name="Grupo 56624" transform="translate(872.18 21537.646)">
        <path id="Trazado_28851" data-name="Trazado 28851" d="M471.4-2235.2l-8.37.367a1.445,1.445,0,0,0-.958,2.465l3.437,3.437a1.445,1.445,0,0,1,0,2.043l-7.567,7.567a1.445,1.445,0,0,0,0,2.043l6.673,6.673a1.446,1.446,0,0,0,2.043,0l7.567-7.567a1.446,1.446,0,0,1,2.043,0l3.437,3.437a1.445,1.445,0,0,0,2.465-.958l.367-8.37.442-10.073a1.445,1.445,0,0,0-1.506-1.507Z" transform="translate(-457.519 2235.646)" fill="#006df0"/>
        <path id="Trazado_28852" data-name="Trazado 28852" d="M471.4-2115.808l-8.37-.367a1.444,1.444,0,0,1-.958-2.464l3.437-3.438a1.445,1.445,0,0,0,0-2.043l-7.567-7.566a1.445,1.445,0,0,1,0-2.043l6.673-6.673a1.444,1.444,0,0,1,2.043,0l7.567,7.566a1.444,1.444,0,0,0,2.043,0l3.437-3.437a1.445,1.445,0,0,1,2.465.958l.367,8.37.442,10.073a1.445,1.445,0,0,1-1.506,1.507Z" transform="translate(-457.519 2235.917)" fill="#006df0"/>
      </g>
      <circle id="Elipse_1874" data-name="Elipse 1874" cx="44.878" cy="44.878" r="44.878" transform="translate(196.341 21553.045)" fill="#dff7f9" stroke="#006df0" stroke-width="2"/>
      <circle id="Elipse_1875" data-name="Elipse 1875" cx="44.878" cy="44.878" r="44.878" transform="translate(378.565 21553.045)" fill="#dff7f9" stroke="#006df0" stroke-width="2"/>
      <path id="Trazado_28853" data-name="Trazado 28853" d="M-149.147-2149.865v6.542a1.108,1.108,0,0,1-1.108,1.107,1.107,1.107,0,0,1-1.107-1.107v-6.542a9.21,9.21,0,0,0-9.216-9.216,6.8,6.8,0,0,1-5.851-3.286,1.108,1.108,0,0,1,.369-1.522,1.108,1.108,0,0,1,1.522.37,4.6,4.6,0,0,0,3.959,2.223,11.425,11.425,0,0,1,11.432,11.431Zm-19.328-11.1a1.107,1.107,0,0,1-.846,1.318,10.6,10.6,0,0,1-8.24-1.612,6.719,6.719,0,0,1-5.01,2.18,9.211,9.211,0,0,0-9.217,9.216v6.542a1.107,1.107,0,0,1-1.107,1.107,1.107,1.107,0,0,1-1.107-1.107v-6.542a11.425,11.425,0,0,1,11.432-11.431,4.619,4.619,0,0,0,4.628-4.616v-.292a14.837,14.837,0,0,1-8.435-12.826,4.52,4.52,0,0,1-3.472-4.377v-5.742c-.06-2.81.357-9.849,5.49-14.8,6.337-6.109,16.5-5.721,23.973-2.124a1.111,1.111,0,0,1,.234,1.845,14.952,14.952,0,0,1,9.148,6.581,1.23,1.23,0,0,1,.255.871,1.122,1.122,0,0,1-.318.7,7.232,7.232,0,0,0-2.093,5.109v7.554a1.108,1.108,0,0,1-1.108,1.107,1.107,1.107,0,0,1-1.107-1.107v-7.554a9.43,9.43,0,0,1,2.151-6.022,12.8,12.8,0,0,0-9.183-5.391l-1.947-.209a1.108,1.108,0,0,1-.3-2.125l.886-.365c-11.531-4.02-23.861.447-23.861,15.911v5.754a2.288,2.288,0,0,0,1.246,2.026v-7.181a7.762,7.762,0,0,1,7.753-7.752h14.121a7.761,7.761,0,0,1,7.753,7.752v9.069a14.834,14.834,0,0,1-18.99,14.128,6.776,6.776,0,0,1-.58,2.261,8.387,8.387,0,0,0,6.539,1.29,1.107,1.107,0,0,1,1.318.846Zm-3.1-6.012a12.612,12.612,0,0,0,12.6-12.6v-8.985a5.544,5.544,0,0,0-5.538-5.538h-14.121a5.545,5.545,0,0,0-5.538,5.538v8.985a12.613,12.613,0,0,0,12.6,12.6Zm11.214,19.088h-3.323a1.108,1.108,0,0,0-1.108,1.107,1.109,1.109,0,0,0,1.108,1.108h3.323a1.108,1.108,0,0,0,1.107-1.108A1.107,1.107,0,0,0-160.361-2147.891Z" transform="translate(412.795 23773.369)" fill="#20287a"/>
      <path id="Trazado_32401" data-name="Trazado 32401" d="M-44.466-4.973a5.283,5.283,0,0,1-1.779,3.794A6.248,6.248,0,0,1-50.475.205a5.618,5.618,0,0,1-4.517-1.933,7.925,7.925,0,0,1-1.646-5.306v-.913a8.95,8.95,0,0,1,.759-3.794,5.686,5.686,0,0,1,2.169-2.517,6.075,6.075,0,0,1,3.276-.877,6.087,6.087,0,0,1,4.163,1.384,5.677,5.677,0,0,1,1.825,3.886h-3.076a3.118,3.118,0,0,0-.8-2.1,2.981,2.981,0,0,0-2.107-.651,2.614,2.614,0,0,0-2.3,1.1,6.178,6.178,0,0,0-.784,3.42v1.128a6.612,6.612,0,0,0,.733,3.538,2.565,2.565,0,0,0,2.312,1.118,3.037,3.037,0,0,0,2.128-.651,2.941,2.941,0,0,0,.8-2.015ZM-43.1-5.65a6.58,6.58,0,0,1,.636-2.943,4.654,4.654,0,0,1,1.83-2,5.34,5.34,0,0,1,2.774-.708A5.052,5.052,0,0,1-34.2-9.926a5.514,5.514,0,0,1,1.584,3.732l.021.759a5.8,5.8,0,0,1-1.425,4.1A4.954,4.954,0,0,1-37.842.205a4.979,4.979,0,0,1-3.83-1.538A5.9,5.9,0,0,1-43.1-5.517Zm2.963.21a4.147,4.147,0,0,0,.595,2.418,1.962,1.962,0,0,0,1.7.837,1.966,1.966,0,0,0,1.682-.827,4.538,4.538,0,0,0,.6-2.644,4.106,4.106,0,0,0-.6-2.4,1.967,1.967,0,0,0-1.7-.852,1.934,1.934,0,0,0-1.682.847A4.614,4.614,0,0,0-40.139-5.44Zm12.1-5.655.092,1.282A3.874,3.874,0,0,1-24.758-11.3a3.219,3.219,0,0,1,2.625,1.036,4.832,4.832,0,0,1,.882,3.1V0h-2.963V-7.112a1.93,1.93,0,0,0-.41-1.372,1.833,1.833,0,0,0-1.364-.426,2.038,2.038,0,0,0-1.876,1.069V0h-2.963V-11.095ZM-13-3.066a.955.955,0,0,0-.538-.856,6.115,6.115,0,0,0-1.728-.559q-3.958-.831-3.958-3.363A3.049,3.049,0,0,1-18-10.31a4.943,4.943,0,0,1,3.2-.99,5.32,5.32,0,0,1,3.379.995,3.135,3.135,0,0,1,1.266,2.584H-13.11a1.434,1.434,0,0,0-.41-1.051A1.736,1.736,0,0,0-14.8-9.187a1.774,1.774,0,0,0-1.159.338,1.068,1.068,0,0,0-.41.861.913.913,0,0,0,.467.795,4.8,4.8,0,0,0,1.574.523,12.856,12.856,0,0,1,1.866.5,3.066,3.066,0,0,1,2.348,2.984,2.894,2.894,0,0,1-1.3,2.456,5.618,5.618,0,0,1-3.363.938,5.867,5.867,0,0,1-2.476-.5,4.155,4.155,0,0,1-1.7-1.364,3.169,3.169,0,0,1-.615-1.871h2.81a1.547,1.547,0,0,0,.584,1.21,2.318,2.318,0,0,0,1.456.42,2.146,2.146,0,0,0,1.287-.323A1,1,0,0,0-13-3.066ZM-1.564-1.128A3.716,3.716,0,0,1-4.6.205,3.5,3.5,0,0,1-7.321-.82a4.377,4.377,0,0,1-.959-3v-7.27h2.963v7.176q0,1.735,1.579,1.735A2.14,2.14,0,0,0-1.666-3.231v-7.863H1.307V0H-1.482Zm7.885-9.967.092,1.241A3.9,3.9,0,0,1,9.6-11.3a2.959,2.959,0,0,1,2.943,1.692A3.809,3.809,0,0,1,15.878-11.3a3.309,3.309,0,0,1,2.687,1.051,4.831,4.831,0,0,1,.882,3.163V0H16.473V-7.092A2.121,2.121,0,0,0,16.1-8.474a1.634,1.634,0,0,0-1.3-.437,1.85,1.85,0,0,0-1.846,1.274L12.966,0H10V-7.081a2.1,2.1,0,0,0-.379-1.4,1.65,1.65,0,0,0-1.292-.432A1.92,1.92,0,0,0,6.506-7.862V0H3.543V-11.095ZM24.85,0H21.877V-11.095H24.85ZM21.7-13.966a1.459,1.459,0,0,1,.446-1.1,1.676,1.676,0,0,1,1.215-.431,1.679,1.679,0,0,1,1.21.431,1.451,1.451,0,0,1,.451,1.1,1.455,1.455,0,0,1-.456,1.107,1.684,1.684,0,0,1-1.2.431,1.684,1.684,0,0,1-1.2-.431A1.455,1.455,0,0,1,21.7-13.966Zm5.127,8.336a6.686,6.686,0,0,1,1.164-4.132A3.776,3.776,0,0,1,31.177-11.3a3.4,3.4,0,0,1,2.676,1.21v-5.66h2.974V0H34.151l-.144-1.179A3.487,3.487,0,0,1,31.156.205a3.766,3.766,0,0,1-3.143-1.543A6.9,6.9,0,0,1,26.829-5.629Zm2.963.211a4.4,4.4,0,0,0,.543,2.4,1.769,1.769,0,0,0,1.579.834,1.982,1.982,0,0,0,1.938-1.164v-4.4a1.954,1.954,0,0,0-1.917-1.164Q29.793-8.911,29.793-5.419Zm8.87-.231A6.58,6.58,0,0,1,39.3-8.593a4.654,4.654,0,0,1,1.83-2A5.34,5.34,0,0,1,43.9-11.3a5.052,5.052,0,0,1,3.666,1.374,5.514,5.514,0,0,1,1.584,3.732l.021.759a5.8,5.8,0,0,1-1.425,4.1A4.954,4.954,0,0,1,43.923.205a4.979,4.979,0,0,1-3.83-1.538,5.9,5.9,0,0,1-1.43-4.184Zm2.963.21a4.147,4.147,0,0,0,.595,2.418,1.962,1.962,0,0,0,1.7.837A1.966,1.966,0,0,0,45.6-3.011a4.538,4.538,0,0,0,.6-2.644,4.106,4.106,0,0,0-.6-2.4,1.967,1.967,0,0,0-1.7-.852,1.934,1.934,0,0,0-1.682.847A4.614,4.614,0,0,0,41.626-5.44ZM57.232-8.316A8.051,8.051,0,0,0,56.166-8.4a2.171,2.171,0,0,0-2.2,1.138V0H51V-11.095h2.8l.082,1.323A2.746,2.746,0,0,1,56.35-11.3a3.105,3.105,0,0,1,.923.133ZM-18.826,22V13.079h-1.651V10.905h1.651v-.513a4.161,4.161,0,0,1,1.287-3.225,5.178,5.178,0,0,1,3.573-1.133,11.853,11.853,0,0,1,3.363.6l-.431,2.451a13.122,13.122,0,0,0-1.559-.385,7.658,7.658,0,0,0-1.189-.087q-2.071,0-2.071,1.835v.451h2.184v2.174h-2.184V22Zm9.608,0h-2.974V10.905h2.974ZM-4.04,10.905l.092,1.282A3.874,3.874,0,0,1-.759,10.7a3.219,3.219,0,0,1,2.625,1.036,4.832,4.832,0,0,1,.882,3.1V22H-.215V14.888a1.93,1.93,0,0,0-.41-1.372,1.833,1.833,0,0,0-1.364-.426,2.038,2.038,0,0,0-1.876,1.069V22H-6.829V10.905ZM11.423,22a3.291,3.291,0,0,1-.3-.995,3.586,3.586,0,0,1-2.8,1.2,3.939,3.939,0,0,1-2.7-.943,3.034,3.034,0,0,1-1.072-2.379A3.135,3.135,0,0,1,5.86,16.176a6.451,6.451,0,0,1,3.779-.954H11v-.636a1.828,1.828,0,0,0-.395-1.23,1.553,1.553,0,0,0-1.246-.461,1.766,1.766,0,0,0-1.174.359,1.219,1.219,0,0,0-.426.984H4.8a2.977,2.977,0,0,1,.595-1.784,3.931,3.931,0,0,1,1.682-1.287,6.129,6.129,0,0,1,2.44-.467,4.842,4.842,0,0,1,3.256,1.031,3.605,3.605,0,0,1,1.2,2.9v4.809a5.3,5.3,0,0,0,.441,2.389V22ZM8.972,19.939a2.552,2.552,0,0,0,1.21-.292,1.919,1.919,0,0,0,.82-.784V16.955H9.9q-2.225,0-2.369,1.538l-.01.174a1.186,1.186,0,0,0,.39.913A1.514,1.514,0,0,0,8.972,19.939ZM19.38,22H16.406V6.25H19.38Z" transform="translate(1128.379 21767.209) rotate(0.022)" fill="#20287a"/>
      <circle id="Elipse_1876" data-name="Elipse 1876" cx="44.878" cy="44.878" r="44.878" transform="translate(1087.709 21651.203)" fill="#dff7f9" stroke="#006df0" stroke-width="2"/>
      <path id="Trazado_28854" data-name="Trazado 28854" d="M739.675-2051.988v6.543a1.108,1.108,0,0,1-1.108,1.107,1.107,1.107,0,0,1-1.107-1.107v-6.543a9.212,9.212,0,0,0-9.217-9.217,6.8,6.8,0,0,1-5.85-3.285,1.107,1.107,0,0,1,.369-1.522,1.108,1.108,0,0,1,1.522.37,4.6,4.6,0,0,0,3.958,2.222,11.425,11.425,0,0,1,11.433,11.432Zm-19.328-11.1a1.107,1.107,0,0,1-.846,1.318,10.6,10.6,0,0,1-8.24-1.612,6.718,6.718,0,0,1-5.01,2.18,9.212,9.212,0,0,0-9.217,9.217v6.543a1.107,1.107,0,0,1-1.107,1.107,1.108,1.108,0,0,1-1.108-1.107v-6.543a11.426,11.426,0,0,1,11.432-11.432,4.618,4.618,0,0,0,4.628-4.616v-.292a14.838,14.838,0,0,1-8.434-12.826,4.52,4.52,0,0,1-3.472-4.377v-5.742c-.06-2.81.357-9.849,5.489-14.8,6.338-6.109,16.5-5.721,23.973-2.124a1.11,1.11,0,0,1,.235,1.845,14.948,14.948,0,0,1,9.147,6.581,1.224,1.224,0,0,1,.255.871,1.123,1.123,0,0,1-.317.7,7.233,7.233,0,0,0-2.094,5.108v7.556a1.107,1.107,0,0,1-1.107,1.107,1.107,1.107,0,0,1-1.107-1.107v-7.556a9.428,9.428,0,0,1,2.151-6.02,12.793,12.793,0,0,0-9.183-5.392l-1.947-.208a1.108,1.108,0,0,1-.3-2.125l.885-.365c-11.531-4.02-23.861.447-23.861,15.911v5.755a2.285,2.285,0,0,0,1.246,2.026v-7.181a7.762,7.762,0,0,1,7.753-7.752h14.121a7.761,7.761,0,0,1,7.753,7.752v9.069a14.834,14.834,0,0,1-18.99,14.128,6.807,6.807,0,0,1-.58,2.262,8.386,8.386,0,0,0,6.539,1.289,1.108,1.108,0,0,1,1.318.847Zm-3.1-6.012a12.612,12.612,0,0,0,12.6-12.6v-8.985a5.544,5.544,0,0,0-5.538-5.538H710.186a5.545,5.545,0,0,0-5.538,5.538v8.985a12.612,12.612,0,0,0,12.6,12.6Zm11.215,19.088h-3.323a1.107,1.107,0,0,0-1.107,1.107,1.107,1.107,0,0,0,1.107,1.108h3.323a1.108,1.108,0,0,0,1.107-1.108A1.108,1.108,0,0,0,728.461-2050.014Z" transform="translate(415.34 23773.65)" fill="#20287a"/>
      <g id="_003-delivery_van" data-name=" 003-delivery van" transform="translate(389.093 21577.25)">
        <g id="Grupo_56625" data-name="Grupo 56625" transform="translate(0)">
          <g id="Grupo_55823" data-name="Grupo 55823">
            <path id="Trazado_27228" data-name="Trazado 27228" d="M31.461-2156a2.833,2.833,0,0,0-2.786,2.877,2.833,2.833,0,0,0,2.786,2.876,2.833,2.833,0,0,0,2.787-2.876A2.837,2.837,0,0,0,31.461-2156Zm0,3.677a.787.787,0,0,1-.774-.8.787.787,0,0,1,.774-.8.787.787,0,0,1,.774.8h0A.788.788,0,0,1,31.461-2152.323Z" transform="translate(24.339 2196.271)" fill="#20287a"/>
            <path id="Trazado_27229" data-name="Trazado 27229" d="M4.623-2150.246a2.833,2.833,0,0,0,2.786-2.876A2.833,2.833,0,0,0,4.623-2156a2.833,2.833,0,0,0-2.787,2.877A2.835,2.835,0,0,0,4.623-2150.246Zm0-3.676a.787.787,0,0,1,.773.8.787.787,0,0,1-.773.8.787.787,0,0,1-.774-.8h0a.787.787,0,0,1,.774-.8Z" transform="translate(24.263 2196.271)" fill="#20287a"/>
            <path id="Trazado_27230" data-name="Trazado 27230" d="M-9.361-2150.246a2.833,2.833,0,0,0,2.787-2.876A2.833,2.833,0,0,0-9.361-2156a2.833,2.833,0,0,0-2.786,2.877A2.835,2.835,0,0,0-9.361-2150.246Zm0-3.676a.787.787,0,0,1,.774.8.787.787,0,0,1-.774.8.787.787,0,0,1-.774-.8h0a.789.789,0,0,1,.774-.8Z" transform="translate(24.222 2196.271)" fill="#20287a"/>
            <path id="Trazado_27231" data-name="Trazado 27231" d="M-6.894-2175.352H8.15a1.434,1.434,0,0,0,1.409-1.455v-2.771a1.433,1.433,0,0,0-1.409-1.454H-6.894a1.432,1.432,0,0,0-1.409,1.454v2.771A1.434,1.434,0,0,0-6.894-2175.352Zm.6-3.6H7.545v1.524H-6.29Z" transform="translate(24.233 2196.2)" fill="#20287a"/>
            <path id="Trazado_27232" data-name="Trazado 27232" d="M37.514-2179.288a1.665,1.665,0,0,0-1.486-.929H31.209a1.3,1.3,0,0,0-1.275,1.315v5.392a2.389,2.389,0,0,0,2.348,2.424h7.275a1.3,1.3,0,0,0,1.275-1.316,1.34,1.34,0,0,0-.144-.61Zm-5.232,6.12a.342.342,0,0,1-.335-.347v-4.621h3.876l2.518,4.971Z" transform="translate(24.343 2196.201)" fill="#20287a"/>
            <path id="Trazado_27233" data-name="Trazado 27233" d="M44.019-2174.168l-3.564-7.049a4.33,4.33,0,0,0-3.866-2.418H25.534v-10.788a1.706,1.706,0,0,0-1.679-1.733H-22.509a1.706,1.706,0,0,0-1.679,1.733h0v32.55a1.706,1.706,0,0,0,1.679,1.733h1.374l1.845,4.249a2.348,2.348,0,0,0,2.145,1.432H-15.3a6.346,6.346,0,0,0,4.64,7.577,6.139,6.139,0,0,0,7.34-4.791h2.018a6.145,6.145,0,0,0,7.3,4.861,6.244,6.244,0,0,0,4.708-4.861h2.548a1.023,1.023,0,0,0,1-1.04,1.023,1.023,0,0,0-1-1.037H10.795a6.185,6.185,0,0,0-6.818-5.551,6.241,6.241,0,0,0-5.376,5.551H-3.228a6.182,6.182,0,0,0-6.806-5.556,5.991,5.991,0,0,0-2.146.687v-1.522H42.5v6.044a.341.341,0,0,1-.335.347H37.71a6.186,6.186,0,0,0-6.818-5.551,6.243,6.243,0,0,0-5.377,5.551H17.945a1.023,1.023,0,0,0-1,1.04,1.023,1.023,0,0,0,1,1.037h7.667a6.145,6.145,0,0,0,7.3,4.861,6.242,6.242,0,0,0,4.708-4.861h4.547a2.39,2.39,0,0,0,2.349-2.424v-17.989A4.64,4.64,0,0,0,44.019-2174.168ZM4.7-2157.27a4.2,4.2,0,0,1,4.128,4.262,4.2,4.2,0,0,1-4.128,4.262,4.2,4.2,0,0,1-4.129-4.262A4.2,4.2,0,0,1,4.7-2157.27Zm-14.024,0a4.2,4.2,0,0,1,4.129,4.262,4.2,4.2,0,0,1-4.129,4.262,4.2,4.2,0,0,1-4.129-4.262A4.2,4.2,0,0,1-9.327-2157.27Zm-4.865.4c-.081.109-.159.218-.234.333h-2.722a.338.338,0,0,1-.306-.206l-1.476-3.4h4.738Zm37.713-5.348h-45.7v-3.325h45.7Zm0-28.535H-9.7a1.024,1.024,0,0,0-1,1.041,1.022,1.022,0,0,0,1,1.037H23.521v21.053h-45.7v-21.052H-14.4a1.022,1.022,0,0,0,1.008-1.037,1.024,1.024,0,0,0-1-1.041h-7.782v-3.324h45.7Zm8.091,42.007a4.2,4.2,0,0,1-4.128-4.262,4.2,4.2,0,0,1,4.128-4.262,4.2,4.2,0,0,1,4.129,4.262h0a4.2,4.2,0,0,1-4.129,4.263Zm-6.078-32.812h1.6v4.8h-1.6ZM42.5-2162.219H29.149v-2.544a1.022,1.022,0,0,0-1.006-1.038,1.022,1.022,0,0,0-1.006,1.038v2.544h-1.6v-12.465h1.6v5.073a1.023,1.023,0,0,0,1.006,1.039,1.023,1.023,0,0,0,1.006-1.039v-11.948h7.439a2.335,2.335,0,0,1,2.08,1.3l3.564,7.05a2.483,2.483,0,0,1,.267,1.122Z" transform="translate(24.188 2196.156)" fill="#20287a"/>
            <path id="Trazado_27234" data-name="Trazado 27234" d="M30.94-2170.049a1.023,1.023,0,0,0-1.006,1.039h0v3.185a1.022,1.022,0,0,0,1,1.042,1.023,1.023,0,0,0,1.01-1.035v-3.192A1.024,1.024,0,0,0,30.94-2170.049Z" transform="translate(24.343 2196.231)" fill="#20287a"/>
          </g>
        </g>
      </g>
      <path id="Trazado_32399" data-name="Trazado 32399" d="M-38.544-5.26V0h-3.076V-14.93H-35.8a6.738,6.738,0,0,1,2.958.615,4.534,4.534,0,0,1,1.964,1.748,4.875,4.875,0,0,1,.687,2.579,4.287,4.287,0,0,1-1.5,3.461A6.257,6.257,0,0,1-35.848-5.26Zm0-2.492H-35.8a2.7,2.7,0,0,0,1.861-.574,2.088,2.088,0,0,0,.641-1.641,2.463,2.463,0,0,0-.646-1.774,2.413,2.413,0,0,0-1.784-.7h-2.82Zm16.509-.564A8.051,8.051,0,0,0-23.1-8.4a2.171,2.171,0,0,0-2.2,1.138V0H-28.27V-11.095h2.8l.082,1.323A2.746,2.746,0,0,1-22.917-11.3a3.105,3.105,0,0,1,.923.133Zm.595,2.666a6.58,6.58,0,0,1,.636-2.943,4.654,4.654,0,0,1,1.83-2A5.34,5.34,0,0,1-16.2-11.3a5.052,5.052,0,0,1,3.666,1.374,5.515,5.515,0,0,1,1.584,3.732l.021.759a5.8,5.8,0,0,1-1.425,4.1A4.954,4.954,0,0,1-16.181.205a4.979,4.979,0,0,1-3.83-1.538,5.9,5.9,0,0,1-1.43-4.184Zm2.963.21a4.147,4.147,0,0,0,.595,2.418,1.962,1.962,0,0,0,1.7.837A1.966,1.966,0,0,0-14.5-3.011a4.538,4.538,0,0,0,.6-2.644,4.106,4.106,0,0,0-.6-2.4,1.967,1.967,0,0,0-1.7-.852,1.934,1.934,0,0,0-1.682.847A4.614,4.614,0,0,0-18.478-5.44Zm8.911-.19A6.686,6.686,0,0,1-8.4-9.762,3.776,3.776,0,0,1-5.219-11.3a3.4,3.4,0,0,1,2.676,1.21v-5.66H.431V0H-2.246l-.144-1.179A3.487,3.487,0,0,1-5.24.205,3.766,3.766,0,0,1-8.383-1.338,6.9,6.9,0,0,1-9.567-5.629Zm2.963.211a4.4,4.4,0,0,0,.543,2.4,1.769,1.769,0,0,0,1.579.834A1.982,1.982,0,0,0-2.543-3.348v-4.4A1.954,1.954,0,0,0-4.46-8.911Q-6.6-8.911-6.6-5.419ZM9.372-1.128A3.716,3.716,0,0,1,6.337.205,3.5,3.5,0,0,1,3.615-.82a4.377,4.377,0,0,1-.959-3v-7.27H5.619v7.176q0,1.735,1.579,1.735A2.14,2.14,0,0,0,9.27-3.231v-7.863h2.974V0H9.454Zm9.721-1.056a1.944,1.944,0,0,0,1.333-.451,1.581,1.581,0,0,0,.533-1.2h2.779a3.8,3.8,0,0,1-.615,2.066A4.06,4.06,0,0,1,21.467-.313a5.183,5.183,0,0,1-2.323.518,4.817,4.817,0,0,1-3.753-1.512,5.985,5.985,0,0,1-1.374-4.178v-.195a5.917,5.917,0,0,1,1.364-4.091A4.761,4.761,0,0,1,19.124-11.3a4.667,4.667,0,0,1,3.338,1.184,4.193,4.193,0,0,1,1.277,3.153H20.959a2.036,2.036,0,0,0-.533-1.407,1.778,1.778,0,0,0-1.354-.541,1.785,1.785,0,0,0-1.564.755,4.374,4.374,0,0,0-.528,2.449V-5.4A4.43,4.43,0,0,0,17.5-2.934,1.807,1.807,0,0,0,19.093-2.184Zm9.885-11.638v2.728h1.9v2.174h-1.9v5.537a1.322,1.322,0,0,0,.236.882,1.184,1.184,0,0,0,.9.267,4.726,4.726,0,0,0,.872-.072V-.062a6.1,6.1,0,0,1-1.794.267q-3.117,0-3.179-3.148V-8.921h-1.62v-2.174h1.62v-2.728ZM31.756-5.65a6.58,6.58,0,0,1,.636-2.943,4.654,4.654,0,0,1,1.83-2A5.34,5.34,0,0,1,37-11.3a5.052,5.052,0,0,1,3.666,1.374,5.514,5.514,0,0,1,1.584,3.732l.021.759a5.8,5.8,0,0,1-1.425,4.1A4.954,4.954,0,0,1,37.017.205a4.979,4.979,0,0,1-3.83-1.538,5.9,5.9,0,0,1-1.43-4.184Zm2.963.21a4.147,4.147,0,0,0,.595,2.418,1.962,1.962,0,0,0,1.7.837A1.966,1.966,0,0,0,38.7-3.011a4.538,4.538,0,0,0,.6-2.644,4.106,4.106,0,0,0-.6-2.4A1.967,1.967,0,0,0,37-8.911a1.934,1.934,0,0,0-1.682.847A4.614,4.614,0,0,0,34.72-5.44ZM-36.037,13.684A8.051,8.051,0,0,0-37.1,13.6a2.171,2.171,0,0,0-2.2,1.138V22h-2.963V10.905h2.8l.082,1.323A2.746,2.746,0,0,1-36.919,10.7a3.105,3.105,0,0,1,.923.133Zm6.337,8.521a5.447,5.447,0,0,1-3.973-1.5,5.321,5.321,0,0,1-1.533-3.989v-.287a6.7,6.7,0,0,1,.646-2.989,4.741,4.741,0,0,1,1.83-2.03,5.137,5.137,0,0,1,2.7-.713,4.6,4.6,0,0,1,3.584,1.436,5.833,5.833,0,0,1,1.307,4.071v1.21H-32.2a2.753,2.753,0,0,0,.866,1.743,2.619,2.619,0,0,0,1.83.656,3.2,3.2,0,0,0,2.676-1.241l1.456,1.63a4.449,4.449,0,0,1-1.8,1.471A5.921,5.921,0,0,1-29.7,22.205Zm-.338-9.116a1.852,1.852,0,0,0-1.43.6,3.093,3.093,0,0,0-.7,1.71h4.122V15.16a2.206,2.206,0,0,0-.533-1.529A1.91,1.91,0,0,0-30.039,13.089Zm11.2,6.727a1.944,1.944,0,0,0,1.333-.451,1.581,1.581,0,0,0,.533-1.2H-14.2a3.8,3.8,0,0,1-.615,2.066,4.06,4.06,0,0,1-1.656,1.456,5.183,5.183,0,0,1-2.323.518,4.817,4.817,0,0,1-3.753-1.512,5.985,5.985,0,0,1-1.374-4.178v-.195a5.917,5.917,0,0,1,1.364-4.091A4.761,4.761,0,0,1-18.811,10.7a4.667,4.667,0,0,1,3.338,1.184A4.193,4.193,0,0,1-14.2,15.038h-2.779a2.036,2.036,0,0,0-.533-1.407,1.778,1.778,0,0,0-1.354-.541,1.785,1.785,0,0,0-1.564.755,4.374,4.374,0,0,0-.528,2.449V16.6a4.43,4.43,0,0,0,.523,2.465A1.807,1.807,0,0,0-18.842,19.816ZM-9.377,22h-2.974V10.905h2.974ZM-12.525,8.034a1.459,1.459,0,0,1,.446-1.1,1.676,1.676,0,0,1,1.215-.431,1.679,1.679,0,0,1,1.21.431,1.451,1.451,0,0,1,.451,1.1,1.455,1.455,0,0,1-.456,1.107,1.684,1.684,0,0,1-1.2.431,1.684,1.684,0,0,1-1.2-.431A1.455,1.455,0,0,1-12.525,8.034Zm10.2,11.782A1.944,1.944,0,0,0-.99,19.365a1.581,1.581,0,0,0,.533-1.2H2.323a3.8,3.8,0,0,1-.615,2.066A4.06,4.06,0,0,1,.051,21.687a5.183,5.183,0,0,1-2.323.518,4.817,4.817,0,0,1-3.753-1.512A5.985,5.985,0,0,1-7.4,16.514v-.195a5.917,5.917,0,0,1,1.364-4.091A4.761,4.761,0,0,1-2.292,10.7a4.667,4.667,0,0,1,3.338,1.184,4.193,4.193,0,0,1,1.277,3.153H-.456A2.036,2.036,0,0,0-.99,13.631a1.778,1.778,0,0,0-1.354-.541,1.785,1.785,0,0,0-1.564.755,4.374,4.374,0,0,0-.528,2.449V16.6a4.43,4.43,0,0,0,.523,2.465A1.807,1.807,0,0,0-2.323,19.816ZM7.142,22H4.168V6.25H7.142Zm8.87,0a3.291,3.291,0,0,1-.3-.995,3.586,3.586,0,0,1-2.8,1.2,3.939,3.939,0,0,1-2.7-.943,3.034,3.034,0,0,1-1.072-2.379,3.135,3.135,0,0,1,1.307-2.707,6.451,6.451,0,0,1,3.779-.954h1.364v-.636a1.828,1.828,0,0,0-.395-1.23,1.553,1.553,0,0,0-1.246-.461,1.766,1.766,0,0,0-1.174.359,1.219,1.219,0,0,0-.426.984H9.387a2.977,2.977,0,0,1,.595-1.784,3.931,3.931,0,0,1,1.682-1.287A6.129,6.129,0,0,1,14.1,10.7a4.842,4.842,0,0,1,3.256,1.031,3.605,3.605,0,0,1,1.2,2.9v4.809a5.3,5.3,0,0,0,.441,2.389V22Zm-2.451-2.061a2.552,2.552,0,0,0,1.21-.292,1.919,1.919,0,0,0,.82-.784V16.955H14.484q-2.225,0-2.369,1.538l-.01.174a1.186,1.186,0,0,0,.39.913A1.514,1.514,0,0,0,13.561,19.939Zm6.819-3.568a6.686,6.686,0,0,1,1.164-4.132A3.776,3.776,0,0,1,24.727,10.7,3.4,3.4,0,0,1,27.4,11.91V6.25h2.974V22H27.7l-.144-1.179a3.487,3.487,0,0,1-2.851,1.384,3.766,3.766,0,0,1-3.143-1.543A6.9,6.9,0,0,1,20.38,16.371Zm2.963.211a4.4,4.4,0,0,0,.543,2.4,1.769,1.769,0,0,0,1.579.834A1.982,1.982,0,0,0,27.4,18.652v-4.4a1.954,1.954,0,0,0-1.917-1.164Q23.343,13.089,23.343,16.581Zm8.87-.231a6.58,6.58,0,0,1,.636-2.943,4.654,4.654,0,0,1,1.83-2,5.34,5.34,0,0,1,2.774-.708,5.052,5.052,0,0,1,3.666,1.374A5.514,5.514,0,0,1,42.7,15.807l.021.759a5.8,5.8,0,0,1-1.425,4.1,4.954,4.954,0,0,1-3.825,1.543,4.979,4.979,0,0,1-3.83-1.538,5.9,5.9,0,0,1-1.43-4.184Zm2.963.21a4.147,4.147,0,0,0,.595,2.418,2.137,2.137,0,0,0,3.384.01,4.538,4.538,0,0,0,.6-2.644,4.106,4.106,0,0,0-.6-2.4,1.967,1.967,0,0,0-1.7-.852,1.934,1.934,0,0,0-1.682.847A4.614,4.614,0,0,0,35.176,16.56Z" transform="translate(964.969 21576.059)" fill="#20287a"/>
      <circle id="Elipse_1877" data-name="Elipse 1877" cx="44.878" cy="44.878" r="44.878" transform="translate(923.223 21460)" fill="#dff7f9" stroke="#006df0" stroke-width="2"/>
      <path id="Trazado_32395" data-name="Trazado 32395" d="M-33.79-5.726h-2.567V0H-39.58V-15.641h5.812a6.57,6.57,0,0,1,4.275,1.235,4.264,4.264,0,0,1,1.5,3.491,4.812,4.812,0,0,1-.693,2.669,4.725,4.725,0,0,1-2.1,1.7L-27.4-.15V0h-3.459Zm-2.567-2.61h2.6a2.662,2.662,0,0,0,1.88-.618,2.208,2.208,0,0,0,.666-1.7,2.363,2.363,0,0,0-.628-1.74,2.612,2.612,0,0,0-1.928-.634h-2.589ZM-20.394.215a5.706,5.706,0,0,1-4.163-1.568,5.575,5.575,0,0,1-1.606-4.179v-.3a7.021,7.021,0,0,1,.677-3.131,4.967,4.967,0,0,1,1.917-2.127,5.382,5.382,0,0,1,2.831-.747,4.824,4.824,0,0,1,3.754,1.5,6.111,6.111,0,0,1,1.37,4.265V-4.8h-7.4a2.884,2.884,0,0,0,.908,1.826,2.744,2.744,0,0,0,1.917.688,3.351,3.351,0,0,0,2.8-1.3l1.525,1.708A4.66,4.66,0,0,1-17.751-.338,6.2,6.2,0,0,1-20.394.215Zm-.354-9.55a1.94,1.94,0,0,0-1.5.626,3.241,3.241,0,0,0-.736,1.791h4.318v-.248a2.311,2.311,0,0,0-.559-1.6A2,2,0,0,0-20.749-9.335ZM-14.3-5.9a6.812,6.812,0,0,1,1.273-4.308A4.125,4.125,0,0,1-9.6-11.838a3.617,3.617,0,0,1,2.976,1.311l.129-1.1h2.814V-.387a4.968,4.968,0,0,1-.693,2.653,4.45,4.45,0,0,1-1.95,1.719,6.854,6.854,0,0,1-2.943.591,6.373,6.373,0,0,1-2.492-.51A4.423,4.423,0,0,1-13.594,2.75L-12.219.859A3.637,3.637,0,0,0-9.4,2.159,2.662,2.662,0,0,0-7.482,1.5,2.478,2.478,0,0,0-6.794-.376V-1A3.591,3.591,0,0,1-9.62.215a4.114,4.114,0,0,1-3.389-1.638A6.81,6.81,0,0,1-14.3-5.769Zm3.1.221a4.264,4.264,0,0,0,.634,2.487,2.014,2.014,0,0,0,1.74.9,2.154,2.154,0,0,0,2.03-1.068v-4.91A2.149,2.149,0,0,0-8.8-9.335a2.027,2.027,0,0,0-1.756.917A4.807,4.807,0,0,0-11.2-5.677ZM5.237-8.712A8.434,8.434,0,0,0,4.12-8.8,2.274,2.274,0,0,0,1.81-7.605V0h-3.1V-11.623H1.638l.086,1.386a2.877,2.877,0,0,1,2.589-1.6,3.253,3.253,0,0,1,.967.14ZM11.875.215A5.706,5.706,0,0,1,7.713-1.354,5.575,5.575,0,0,1,6.107-5.532v-.3a7.021,7.021,0,0,1,.677-3.131A4.967,4.967,0,0,1,8.7-11.091a5.382,5.382,0,0,1,2.831-.747,4.824,4.824,0,0,1,3.754,1.5,6.111,6.111,0,0,1,1.37,4.265V-4.8h-7.4a2.884,2.884,0,0,0,.908,1.826,2.744,2.744,0,0,0,1.917.688,3.351,3.351,0,0,0,2.8-1.3L16.409-1.88A4.66,4.66,0,0,1,14.518-.338,6.2,6.2,0,0,1,11.875.215Zm-.354-9.55a1.94,1.94,0,0,0-1.5.626,3.241,3.241,0,0,0-.736,1.791H13.6v-.248a2.311,2.311,0,0,0-.559-1.6A2,2,0,0,0,11.521-9.335ZM24.712-3.212a1,1,0,0,0-.564-.9,6.406,6.406,0,0,0-1.81-.585q-4.146-.87-4.146-3.523A3.194,3.194,0,0,1,19.476-10.8a5.178,5.178,0,0,1,3.357-1.037,5.573,5.573,0,0,1,3.54,1.042A3.284,3.284,0,0,1,27.7-8.089h-3.1a1.5,1.5,0,0,0-.43-1.1,1.818,1.818,0,0,0-1.343-.435,1.858,1.858,0,0,0-1.214.354,1.119,1.119,0,0,0-.43.9.957.957,0,0,0,.489.833,5.028,5.028,0,0,0,1.649.548,13.468,13.468,0,0,1,1.955.521,3.212,3.212,0,0,1,2.46,3.126A3.032,3.032,0,0,1,26.367-.768a5.885,5.885,0,0,1-3.523.983,6.147,6.147,0,0,1-2.594-.521,4.353,4.353,0,0,1-1.778-1.429,3.32,3.32,0,0,1-.645-1.96H20.77a1.621,1.621,0,0,0,.612,1.268,2.429,2.429,0,0,0,1.525.44,2.248,2.248,0,0,0,1.348-.338A1.053,1.053,0,0,0,24.712-3.212Zm4.533-2.707A6.893,6.893,0,0,1,29.912-9,4.876,4.876,0,0,1,31.829-11.1a5.594,5.594,0,0,1,2.906-.741,5.293,5.293,0,0,1,3.84,1.439,5.777,5.777,0,0,1,1.66,3.91l.021.795A6.075,6.075,0,0,1,38.763-1.4,5.19,5.19,0,0,1,34.756.215,5.216,5.216,0,0,1,30.744-1.4a6.182,6.182,0,0,1-1.5-4.383Zm3.1.22a4.345,4.345,0,0,0,.623,2.534,2.055,2.055,0,0,0,1.783.877,2.06,2.06,0,0,0,1.762-.866,4.754,4.754,0,0,0,.634-2.77,4.3,4.3,0,0,0-.634-2.518,2.06,2.06,0,0,0-1.783-.893,2.027,2.027,0,0,0-1.762.888A4.834,4.834,0,0,0,32.35-5.7ZM-50.107,23a3.447,3.447,0,0,1-.312-1.042,3.756,3.756,0,0,1-2.933,1.257,4.127,4.127,0,0,1-2.831-.988A3.178,3.178,0,0,1-57.3,19.734a3.285,3.285,0,0,1,1.37-2.836,6.758,6.758,0,0,1,3.958-1h1.429v-.666a1.915,1.915,0,0,0-.414-1.289,1.627,1.627,0,0,0-1.305-.483,1.85,1.85,0,0,0-1.23.376,1.277,1.277,0,0,0-.446,1.031h-3.1A3.119,3.119,0,0,1-56.423,13a4.118,4.118,0,0,1,1.762-1.348,6.42,6.42,0,0,1,2.557-.489,5.073,5.073,0,0,1,3.411,1.08,3.777,3.777,0,0,1,1.262,3.035v5.038a5.557,5.557,0,0,0,.462,2.5V23Zm-2.567-2.159a2.674,2.674,0,0,0,1.268-.306,2.011,2.011,0,0,0,.859-.822v-2h-1.16q-2.331,0-2.481,1.611l-.011.183a1.243,1.243,0,0,0,.408.956A1.586,1.586,0,0,0-52.674,20.841ZM-41.771,23h-3.115V6.5h3.115ZM-28.9,20.712a2.036,2.036,0,0,0,1.4-.473,1.656,1.656,0,0,0,.559-1.257h2.911a3.982,3.982,0,0,1-.645,2.165,4.253,4.253,0,0,1-1.735,1.525,5.43,5.43,0,0,1-2.433.542A5.046,5.046,0,0,1-32.78,21.63a6.27,6.27,0,0,1-1.439-4.377v-.2a6.2,6.2,0,0,1,1.429-4.286,4.987,4.987,0,0,1,3.921-1.6,4.889,4.889,0,0,1,3.5,1.241,4.393,4.393,0,0,1,1.337,3.3h-2.911a2.133,2.133,0,0,0-.559-1.474,1.862,1.862,0,0,0-1.418-.567,1.87,1.87,0,0,0-1.638.791,4.583,4.583,0,0,0-.553,2.566v.323a4.641,4.641,0,0,0,.548,2.582A1.893,1.893,0,0,0-28.9,20.712Zm11.988,2.5a5.706,5.706,0,0,1-4.163-1.568,5.575,5.575,0,0,1-1.606-4.179v-.3a7.021,7.021,0,0,1,.677-3.131,4.967,4.967,0,0,1,1.917-2.127,5.382,5.382,0,0,1,2.831-.747,4.824,4.824,0,0,1,3.754,1.5,6.111,6.111,0,0,1,1.37,4.265V18.2h-7.4a2.884,2.884,0,0,0,.908,1.826,2.744,2.744,0,0,0,1.917.688,3.351,3.351,0,0,0,2.8-1.3l1.525,1.708a4.66,4.66,0,0,1-1.891,1.542A6.2,6.2,0,0,1-16.914,23.215Zm-.354-9.55a1.94,1.94,0,0,0-1.5.626,3.241,3.241,0,0,0-.736,1.791h4.318v-.248a2.311,2.311,0,0,0-.559-1.6A2,2,0,0,0-17.268,13.665Zm9.754-2.288.1,1.343a4.058,4.058,0,0,1,3.341-1.558,3.372,3.372,0,0,1,2.75,1.085A5.062,5.062,0,0,1-.4,15.491V23h-3.1V15.549a2.022,2.022,0,0,0-.43-1.437,1.921,1.921,0,0,0-1.429-.447,2.135,2.135,0,0,0-1.966,1.12V23h-3.1V11.377ZM5.667,8.52v2.857H7.654v2.277H5.667v5.8a1.385,1.385,0,0,0,.247.924,1.241,1.241,0,0,0,.945.279,4.951,4.951,0,0,0,.913-.075v2.353a6.391,6.391,0,0,1-1.88.279q-3.266,0-3.33-3.3V13.654H.865V11.377h1.7V8.52Zm10.248,5.769A8.434,8.434,0,0,0,14.8,14.2a2.274,2.274,0,0,0-2.31,1.192V23h-3.1V11.377h2.933l.086,1.386a2.877,2.877,0,0,1,2.589-1.6,3.253,3.253,0,0,1,.967.14Zm.623,2.793A6.893,6.893,0,0,1,17.2,14,4.876,4.876,0,0,1,19.121,11.9a5.594,5.594,0,0,1,2.906-.741,5.293,5.293,0,0,1,3.84,1.439,5.777,5.777,0,0,1,1.66,3.91l.021.795A6.075,6.075,0,0,1,26.055,21.6a5.19,5.19,0,0,1-4.007,1.617A5.216,5.216,0,0,1,18.036,21.6a6.182,6.182,0,0,1-1.5-4.383Zm3.1.22a4.345,4.345,0,0,0,.623,2.534,2.238,2.238,0,0,0,3.545.011,4.754,4.754,0,0,0,.634-2.77,4.3,4.3,0,0,0-.634-2.518,2.06,2.06,0,0,0-1.783-.893,2.027,2.027,0,0,0-1.762.888A4.834,4.834,0,0,0,19.642,17.3Zm14.813-.2a7,7,0,0,1,1.219-4.329,3.956,3.956,0,0,1,3.335-1.611,3.56,3.56,0,0,1,2.8,1.268V6.5h3.115V23h-2.8l-.15-1.235a3.653,3.653,0,0,1-2.986,1.45A3.945,3.945,0,0,1,35.7,21.6,7.23,7.23,0,0,1,34.456,17.1Zm3.1.221a4.613,4.613,0,0,0,.569,2.514,1.853,1.853,0,0,0,1.654.874,2.077,2.077,0,0,0,2.03-1.219V14.884a2.047,2.047,0,0,0-2.009-1.219Q37.56,13.665,37.56,17.323Zm15.125,5.891a5.706,5.706,0,0,1-4.163-1.568,5.575,5.575,0,0,1-1.606-4.179v-.3a7.021,7.021,0,0,1,.677-3.131,4.967,4.967,0,0,1,1.917-2.127,5.382,5.382,0,0,1,2.831-.747,4.824,4.824,0,0,1,3.754,1.5,6.111,6.111,0,0,1,1.37,4.265V18.2h-7.4a2.884,2.884,0,0,0,.908,1.826,2.744,2.744,0,0,0,1.917.688,3.351,3.351,0,0,0,2.8-1.3l1.525,1.708a4.66,4.66,0,0,1-1.891,1.542A6.2,6.2,0,0,1,52.685,23.215Zm-.354-9.55a1.94,1.94,0,0,0-1.5.626,3.241,3.241,0,0,0-.736,1.791h4.318v-.248a2.311,2.311,0,0,0-.559-1.6A2,2,0,0,0,52.331,13.665ZM-49.72,37.288a8.434,8.434,0,0,0-1.117-.086,2.274,2.274,0,0,0-2.31,1.192V46h-3.1V34.377h2.933l.086,1.386a2.877,2.877,0,0,1,2.589-1.6,3.253,3.253,0,0,1,.967.14Zm6.639,8.927a5.706,5.706,0,0,1-4.163-1.568,5.575,5.575,0,0,1-1.606-4.179v-.3a7.021,7.021,0,0,1,.677-3.131,4.967,4.967,0,0,1,1.917-2.127,5.382,5.382,0,0,1,2.831-.747,4.824,4.824,0,0,1,3.754,1.5,6.111,6.111,0,0,1,1.37,4.265V41.2h-7.4a2.884,2.884,0,0,0,.908,1.826,2.744,2.744,0,0,0,1.917.688,3.351,3.351,0,0,0,2.8-1.3l1.525,1.708a4.66,4.66,0,0,1-1.891,1.542A6.2,6.2,0,0,1-43.082,46.215Zm-.354-9.55a1.94,1.94,0,0,0-1.5.626,3.241,3.241,0,0,0-.736,1.791h4.318v-.248a2.311,2.311,0,0,0-.559-1.6A2,2,0,0,0-43.436,36.665Zm11.73,7.047a2.036,2.036,0,0,0,1.4-.473,1.656,1.656,0,0,0,.559-1.257h2.911a3.982,3.982,0,0,1-.645,2.165,4.253,4.253,0,0,1-1.735,1.525,5.43,5.43,0,0,1-2.433.542,5.046,5.046,0,0,1-3.932-1.584,6.27,6.27,0,0,1-1.439-4.377v-.2a6.2,6.2,0,0,1,1.429-4.286,4.987,4.987,0,0,1,3.921-1.6,4.889,4.889,0,0,1,3.5,1.241,4.393,4.393,0,0,1,1.337,3.3H-29.75a2.133,2.133,0,0,0-.559-1.474,1.862,1.862,0,0,0-1.418-.567,1.87,1.87,0,0,0-1.638.791,4.583,4.583,0,0,0-.553,2.566v.323a4.641,4.641,0,0,0,.548,2.582A1.893,1.893,0,0,0-31.706,43.712Zm6.155-3.631A6.893,6.893,0,0,1-24.884,37,4.876,4.876,0,0,1-22.967,34.9a5.594,5.594,0,0,1,2.906-.741,5.293,5.293,0,0,1,3.84,1.439,5.777,5.777,0,0,1,1.66,3.91l.021.795A6.075,6.075,0,0,1-16.033,44.6a5.19,5.19,0,0,1-4.007,1.617A5.216,5.216,0,0,1-24.052,44.6a6.182,6.182,0,0,1-1.5-4.383Zm3.1.22a4.345,4.345,0,0,0,.623,2.534,2.055,2.055,0,0,0,1.783.877,2.06,2.06,0,0,0,1.762-.866,4.754,4.754,0,0,0,.634-2.77,4.3,4.3,0,0,0-.634-2.518,2.06,2.06,0,0,0-1.783-.893,2.027,2.027,0,0,0-1.762.888A4.834,4.834,0,0,0-22.446,40.3ZM-9.351,46h-3.115V29.5h3.115Zm7.906.215a5.706,5.706,0,0,1-4.163-1.568,5.575,5.575,0,0,1-1.606-4.179v-.3a7.021,7.021,0,0,1,.677-3.131,4.967,4.967,0,0,1,1.917-2.127,5.382,5.382,0,0,1,2.831-.747,4.824,4.824,0,0,1,3.754,1.5,6.111,6.111,0,0,1,1.37,4.265V41.2h-7.4a2.884,2.884,0,0,0,.908,1.826,2.744,2.744,0,0,0,1.917.688,3.351,3.351,0,0,0,2.8-1.3L3.088,44.12A4.66,4.66,0,0,1,1.2,45.662,6.2,6.2,0,0,1-1.445,46.215Zm-.354-9.55a1.94,1.94,0,0,0-1.5.626,3.241,3.241,0,0,0-.736,1.791H.285v-.248a2.311,2.311,0,0,0-.559-1.6A2,2,0,0,0-1.8,36.665Zm11.73,7.047a2.036,2.036,0,0,0,1.4-.473,1.656,1.656,0,0,0,.559-1.257H14.8a3.982,3.982,0,0,1-.645,2.165,4.253,4.253,0,0,1-1.735,1.525,5.43,5.43,0,0,1-2.433.542A5.046,5.046,0,0,1,6.053,44.63a6.27,6.27,0,0,1-1.439-4.377v-.2a6.2,6.2,0,0,1,1.429-4.286,4.987,4.987,0,0,1,3.921-1.6,4.889,4.889,0,0,1,3.5,1.241,4.393,4.393,0,0,1,1.337,3.3H11.886a2.133,2.133,0,0,0-.559-1.474,1.862,1.862,0,0,0-1.418-.567,1.87,1.87,0,0,0-1.638.791,4.583,4.583,0,0,0-.553,2.566v.323a4.641,4.641,0,0,0,.548,2.582A1.893,1.893,0,0,0,9.931,43.712Zm11.473,0a2.036,2.036,0,0,0,1.4-.473,1.656,1.656,0,0,0,.559-1.257H26.27a3.982,3.982,0,0,1-.645,2.165,4.253,4.253,0,0,1-1.735,1.525,5.43,5.43,0,0,1-2.433.542,5.046,5.046,0,0,1-3.932-1.584,6.27,6.27,0,0,1-1.439-4.377v-.2a6.2,6.2,0,0,1,1.429-4.286,4.987,4.987,0,0,1,3.921-1.6,4.889,4.889,0,0,1,3.5,1.241,4.393,4.393,0,0,1,1.337,3.3H23.359a2.133,2.133,0,0,0-.559-1.474,2.076,2.076,0,0,0-3.056.224,4.583,4.583,0,0,0-.553,2.566v.323a4.641,4.641,0,0,0,.548,2.582A1.893,1.893,0,0,0,21.4,43.712ZM31.319,46H28.2V34.377h3.115Zm-3.3-14.631a1.529,1.529,0,0,1,.467-1.149,2.014,2.014,0,0,1,2.541,0,1.64,1.64,0,0,1-.005,2.31,1.991,1.991,0,0,1-2.524,0A1.524,1.524,0,0,1,28.021,31.369Zm5.371,8.712A6.893,6.893,0,0,1,34.058,37,4.876,4.876,0,0,1,35.976,34.9a5.594,5.594,0,0,1,2.906-.741,5.293,5.293,0,0,1,3.84,1.439,5.777,5.777,0,0,1,1.66,3.91l.021.795A6.075,6.075,0,0,1,42.91,44.6,5.19,5.19,0,0,1,38.9,46.215,5.216,5.216,0,0,1,34.891,44.6a6.182,6.182,0,0,1-1.5-4.383Zm3.1.22a4.345,4.345,0,0,0,.623,2.534,2.238,2.238,0,0,0,3.545.011,4.754,4.754,0,0,0,.634-2.77,4.3,4.3,0,0,0-.634-2.518,2.06,2.06,0,0,0-1.783-.893,2.027,2.027,0,0,0-1.762.888A4.834,4.834,0,0,0,36.5,40.3Zm3-10.8h3.384L39.9,32.83H37.377Zm9.679,4.877.1,1.343a4.058,4.058,0,0,1,3.341-1.558,3.372,3.372,0,0,1,2.75,1.085,5.062,5.062,0,0,1,.924,3.244V46h-3.1V38.549a2.022,2.022,0,0,0-.43-1.437,1.921,1.921,0,0,0-1.429-.447,2.135,2.135,0,0,0-1.966,1.12V46h-3.1V34.377Z" transform="translate(602.285 21670.104)" fill="#20287a"/>
      <circle id="Elipse_1878" data-name="Elipse 1878" cx="44.878" cy="44.878" r="44.878" transform="translate(750.824 21553.045)" fill="#dff7f9" stroke="#006df0" stroke-width="2"/>
      <g id="_003-delivery_van-2" data-name=" 003-delivery van" transform="translate(761.351 21577.25)">
        <g id="Grupo_56626" data-name="Grupo 56626" transform="translate(0)">
          <g id="Grupo_55823-2" data-name="Grupo 55823">
            <path id="Trazado_27228-2" data-name="Trazado 27228" d="M402.657-2156a2.833,2.833,0,0,0-2.787,2.877,2.833,2.833,0,0,0,2.787,2.876,2.833,2.833,0,0,0,2.787-2.876A2.837,2.837,0,0,0,402.657-2156Zm0,3.677a.787.787,0,0,1-.774-.8.787.787,0,0,1,.774-.8.787.787,0,0,1,.774.8h0A.789.789,0,0,1,402.657-2152.323Z" transform="translate(-346.856 2196.271)" fill="#20287a"/>
            <path id="Trazado_27229-2" data-name="Trazado 27229" d="M375.818-2150.246a2.833,2.833,0,0,0,2.787-2.876,2.833,2.833,0,0,0-2.787-2.877,2.833,2.833,0,0,0-2.786,2.877A2.834,2.834,0,0,0,375.818-2150.246Zm0-3.676a.787.787,0,0,1,.774.8.787.787,0,0,1-.774.8.787.787,0,0,1-.774-.8h0a.789.789,0,0,1,.774-.8Z" transform="translate(-346.932 2196.271)" fill="#20287a"/>
            <path id="Trazado_27230-2" data-name="Trazado 27230" d="M361.835-2150.246a2.833,2.833,0,0,0,2.786-2.876,2.833,2.833,0,0,0-2.786-2.877,2.833,2.833,0,0,0-2.787,2.877A2.836,2.836,0,0,0,361.835-2150.246Zm0-3.676a.787.787,0,0,1,.774.8.787.787,0,0,1-.774.8.787.787,0,0,1-.774-.8h0a.788.788,0,0,1,.774-.8Z" transform="translate(-346.973 2196.271)" fill="#20287a"/>
            <path id="Trazado_27231-2" data-name="Trazado 27231" d="M364.3-2175.352h15.043a1.435,1.435,0,0,0,1.41-1.455v-2.771a1.434,1.434,0,0,0-1.41-1.454H364.3a1.432,1.432,0,0,0-1.409,1.454v2.771A1.434,1.434,0,0,0,364.3-2175.352Zm.6-3.6h13.837v1.524H364.9Z" transform="translate(-346.962 2196.2)" fill="#20287a"/>
            <path id="Trazado_27232-2" data-name="Trazado 27232" d="M408.71-2179.288a1.665,1.665,0,0,0-1.486-.929H402.4a1.3,1.3,0,0,0-1.275,1.315v5.392a2.388,2.388,0,0,0,2.348,2.424h7.275a1.3,1.3,0,0,0,1.275-1.316,1.353,1.353,0,0,0-.144-.61Zm-5.232,6.12a.342.342,0,0,1-.336-.347v-4.621h3.877l2.518,4.971Z" transform="translate(-346.852 2196.201)" fill="#20287a"/>
            <path id="Trazado_27233-2" data-name="Trazado 27233" d="M415.215-2174.168l-3.564-7.049a4.33,4.33,0,0,0-3.866-2.418H396.73v-10.788a1.707,1.707,0,0,0-1.679-1.733H348.686a1.707,1.707,0,0,0-1.679,1.733h0v32.55a1.707,1.707,0,0,0,1.679,1.733h1.375l1.844,4.249a2.35,2.35,0,0,0,2.145,1.432h1.842a6.345,6.345,0,0,0,4.64,7.577,6.14,6.14,0,0,0,7.34-4.791h2.017a6.145,6.145,0,0,0,7.3,4.861,6.242,6.242,0,0,0,4.708-4.861h2.549a1.022,1.022,0,0,0,1-1.04,1.022,1.022,0,0,0-1-1.037h-2.454a6.186,6.186,0,0,0-6.818-5.551,6.243,6.243,0,0,0-5.377,5.551h-1.827a6.183,6.183,0,0,0-6.807-5.556,6,6,0,0,0-2.146.687v-1.522H413.7v6.044a.341.341,0,0,1-.336.347h-4.455a6.186,6.186,0,0,0-6.818-5.551,6.243,6.243,0,0,0-5.377,5.551h-7.569a1.023,1.023,0,0,0-1,1.04,1.023,1.023,0,0,0,1,1.037h7.667a6.145,6.145,0,0,0,7.3,4.861,6.242,6.242,0,0,0,4.708-4.861h4.547a2.39,2.39,0,0,0,2.349-2.424v-17.989A4.639,4.639,0,0,0,415.215-2174.168Zm-39.322,16.9a4.2,4.2,0,0,1,4.129,4.262,4.2,4.2,0,0,1-4.129,4.262,4.2,4.2,0,0,1-4.129-4.262A4.2,4.2,0,0,1,375.892-2157.27Zm-14.023,0a4.2,4.2,0,0,1,4.129,4.262,4.2,4.2,0,0,1-4.129,4.262,4.2,4.2,0,0,1-4.129-4.262A4.2,4.2,0,0,1,361.869-2157.27Zm-4.866.4c-.081.109-.159.218-.233.333h-2.723a.339.339,0,0,1-.306-.206l-1.476-3.4H357Zm37.714-5.348h-45.7v-3.325h45.7Zm0-28.535H361.5a1.024,1.024,0,0,0-1,1.041,1.022,1.022,0,0,0,1,1.037h33.218v21.053h-45.7v-21.052h7.78a1.022,1.022,0,0,0,1.008-1.037,1.024,1.024,0,0,0-1-1.041H349.02v-3.324h45.7Zm8.091,42.007a4.2,4.2,0,0,1-4.129-4.262,4.2,4.2,0,0,1,4.129-4.262,4.2,4.2,0,0,1,4.129,4.262h0a4.2,4.2,0,0,1-4.129,4.263Zm-6.078-32.812h1.6v4.8h-1.6Zm16.966,19.339H400.345v-2.544a1.022,1.022,0,0,0-1.006-1.038,1.022,1.022,0,0,0-1.007,1.038v2.544h-1.6v-12.465h1.6v5.073a1.023,1.023,0,0,0,1.007,1.039,1.023,1.023,0,0,0,1.006-1.039v-11.948h7.439a2.335,2.335,0,0,1,2.08,1.3l3.564,7.05a2.5,2.5,0,0,1,.267,1.122Z" transform="translate(-347.007 2196.156)" fill="#20287a"/>
            <path id="Trazado_27234-2" data-name="Trazado 27234" d="M402.136-2170.049a1.023,1.023,0,0,0-1.006,1.039h0v3.185a1.022,1.022,0,0,0,1,1.042,1.021,1.021,0,0,0,1.009-1.035v-3.192A1.023,1.023,0,0,0,402.136-2170.049Z" transform="translate(-346.852 2196.231)" fill="#20287a"/>
          </g>
        </g>
      </g>
      <path id="Trazado_32398" data-name="Trazado 32398" d="M-66.988,0V-15.641h4.813a7.308,7.308,0,0,1,3.69.929,6.479,6.479,0,0,1,2.541,2.643,8.151,8.151,0,0,1,.913,3.894v.72a8.174,8.174,0,0,1-.9,3.878,6.424,6.424,0,0,1-2.53,2.632A7.363,7.363,0,0,1-62.144,0Zm3.223-13.03V-2.589h1.558a3.5,3.5,0,0,0,2.89-1.235A5.582,5.582,0,0,0-58.3-7.358v-.827a5.671,5.671,0,0,0-.988-3.615,3.488,3.488,0,0,0-2.89-1.23ZM-49.618,0h-3.115V-11.623h3.115Zm-3.3-14.631a1.529,1.529,0,0,1,.467-1.149,1.755,1.755,0,0,1,1.273-.451,1.759,1.759,0,0,1,1.268.451,1.52,1.52,0,0,1,.473,1.149,1.524,1.524,0,0,1-.478,1.16,1.764,1.764,0,0,1-1.262.451,1.764,1.764,0,0,1-1.262-.451A1.524,1.524,0,0,1-52.916-14.631ZM-40.767-3.212a1,1,0,0,0-.564-.9,6.406,6.406,0,0,0-1.81-.585q-4.146-.87-4.146-3.523A3.194,3.194,0,0,1-46-10.8a5.178,5.178,0,0,1,3.357-1.037,5.573,5.573,0,0,1,3.54,1.042A3.284,3.284,0,0,1-37.78-8.089h-3.1a1.5,1.5,0,0,0-.43-1.1,1.818,1.818,0,0,0-1.343-.435,1.858,1.858,0,0,0-1.214.354,1.119,1.119,0,0,0-.43.9.957.957,0,0,0,.489.833,5.028,5.028,0,0,0,1.649.548,13.468,13.468,0,0,1,1.955.521,3.212,3.212,0,0,1,2.46,3.126A3.032,3.032,0,0,1-39.112-.768a5.885,5.885,0,0,1-3.523.983A6.147,6.147,0,0,1-45.23-.306a4.353,4.353,0,0,1-1.778-1.429,3.32,3.32,0,0,1-.645-1.96h2.943A1.621,1.621,0,0,0-44.1-2.428a2.429,2.429,0,0,0,1.525.44,2.248,2.248,0,0,0,1.348-.338A1.053,1.053,0,0,0-40.767-3.212Zm8.733-11.269v2.857h1.987v2.277h-1.987v5.8a1.385,1.385,0,0,0,.247.924,1.241,1.241,0,0,0,.945.279,4.951,4.951,0,0,0,.913-.075V-.064a6.391,6.391,0,0,1-1.88.279q-3.266,0-3.33-3.3V-9.346h-1.7v-2.277h1.7V-14.48Zm10.248,5.769A8.434,8.434,0,0,0-22.9-8.8a2.274,2.274,0,0,0-2.31,1.192V0h-3.1V-11.623h2.933l.086,1.386a2.877,2.877,0,0,1,2.589-1.6,3.253,3.253,0,0,1,.967.14ZM-17.016,0h-3.115V-11.623h3.115Zm-3.3-14.631a1.529,1.529,0,0,1,.467-1.149,1.755,1.755,0,0,1,1.273-.451,1.759,1.759,0,0,1,1.268.451,1.52,1.52,0,0,1,.473,1.149,1.524,1.524,0,0,1-.478,1.16,1.764,1.764,0,0,1-1.262.451,1.764,1.764,0,0,1-1.262-.451A1.524,1.524,0,0,1-20.313-14.631ZM-3.985-5.7A7.038,7.038,0,0,1-5.178-1.348,3.95,3.95,0,0,1-8.508.215a3.629,3.629,0,0,1-3.019-1.45L-11.666,0h-2.793V-16.5h3.1v5.919a3.536,3.536,0,0,1,2.825-1.257,3.982,3.982,0,0,1,3.335,1.563,7.048,7.048,0,0,1,1.208,4.4Zm-3.1-.237a4.649,4.649,0,0,0-.559-2.581,1.887,1.887,0,0,0-1.665-.814,2.047,2.047,0,0,0-2.041,1.218v4.6A2.075,2.075,0,0,0-9.292-2.288,1.917,1.917,0,0,0-7.315-3.775,7.693,7.693,0,0,0-7.09-5.941ZM4.888-1.182a3.893,3.893,0,0,1-3.18,1.4A3.672,3.672,0,0,1-1.144-.859a4.586,4.586,0,0,1-1-3.147v-7.616h3.1v7.518q0,1.817,1.654,1.817a2.242,2.242,0,0,0,2.17-1.1v-8.238H7.9V0H4.974ZM15.071-2.288a2.036,2.036,0,0,0,1.4-.473,1.656,1.656,0,0,0,.559-1.257h2.911a3.982,3.982,0,0,1-.645,2.165A4.253,4.253,0,0,1,17.558-.328a5.43,5.43,0,0,1-2.433.542A5.046,5.046,0,0,1,11.193-1.37,6.27,6.27,0,0,1,9.754-5.747v-.2a6.2,6.2,0,0,1,1.429-4.286,4.987,4.987,0,0,1,3.921-1.6A4.889,4.889,0,0,1,18.6-10.6a4.393,4.393,0,0,1,1.337,3.3H17.026a2.133,2.133,0,0,0-.559-1.474,1.862,1.862,0,0,0-1.418-.567,1.87,1.87,0,0,0-1.638.791,4.583,4.583,0,0,0-.553,2.566v.323a4.641,4.641,0,0,0,.548,2.582A1.893,1.893,0,0,0,15.071-2.288ZM24.986,0H21.871V-11.623h3.115Zm-3.3-14.631a1.529,1.529,0,0,1,.467-1.149,1.755,1.755,0,0,1,1.273-.451,1.759,1.759,0,0,1,1.268.451,1.52,1.52,0,0,1,.473,1.149,1.524,1.524,0,0,1-.478,1.16,1.764,1.764,0,0,1-1.262.451,1.764,1.764,0,0,1-1.262-.451A1.524,1.524,0,0,1,21.688-14.631ZM27.06-5.919A6.893,6.893,0,0,1,27.726-9,4.876,4.876,0,0,1,29.643-11.1a5.594,5.594,0,0,1,2.906-.741,5.293,5.293,0,0,1,3.84,1.439,5.777,5.777,0,0,1,1.66,3.91l.021.795A6.075,6.075,0,0,1,36.577-1.4,5.19,5.19,0,0,1,32.57.215,5.216,5.216,0,0,1,28.558-1.4a6.182,6.182,0,0,1-1.5-4.383Zm3.1.22a4.345,4.345,0,0,0,.623,2.534,2.055,2.055,0,0,0,1.783.877,2.06,2.06,0,0,0,1.762-.866,4.754,4.754,0,0,0,.634-2.77,4.3,4.3,0,0,0-.634-2.518,2.06,2.06,0,0,0-1.783-.893,2.027,2.027,0,0,0-1.762.888A4.834,4.834,0,0,0,30.164-5.7Zm3-10.8h3.384l-2.976,3.33H31.045Zm9.679,4.877.1,1.343a4.058,4.058,0,0,1,3.341-1.558,3.372,3.372,0,0,1,2.75,1.085,5.062,5.062,0,0,1,.924,3.244V0h-3.1V-7.451a2.022,2.022,0,0,0-.43-1.437,1.921,1.921,0,0,0-1.429-.447,2.135,2.135,0,0,0-1.966,1.12V0h-3.1V-11.623ZM64.518,0a3.448,3.448,0,0,1-.312-1.042A3.756,3.756,0,0,1,61.273.215a4.127,4.127,0,0,1-2.831-.988A3.178,3.178,0,0,1,57.32-3.266,3.285,3.285,0,0,1,58.69-6.1a6.758,6.758,0,0,1,3.958-1h1.429v-.666a1.915,1.915,0,0,0-.414-1.289,1.627,1.627,0,0,0-1.305-.483,1.85,1.85,0,0,0-1.23.376,1.277,1.277,0,0,0-.446,1.031h-3.1A3.119,3.119,0,0,1,58.2-10a4.118,4.118,0,0,1,1.762-1.348,6.42,6.42,0,0,1,2.557-.489,5.073,5.073,0,0,1,3.411,1.08,3.777,3.777,0,0,1,1.262,3.035v5.038a5.557,5.557,0,0,0,.462,2.5V0ZM61.95-2.159a2.674,2.674,0,0,0,1.268-.306,2.011,2.011,0,0,0,.859-.822v-2h-1.16q-2.331,0-2.481,1.611l-.011.183a1.243,1.243,0,0,0,.408.956A1.586,1.586,0,0,0,61.95-2.159ZM-67.117,17.3a6.971,6.971,0,0,1-1.219,4.3,3.909,3.909,0,0,1-3.292,1.617,3.621,3.621,0,0,1-2.847-1.225v5.479h-3.1V11.377H-74.7l.107,1.139a3.649,3.649,0,0,1,2.943-1.354,3.936,3.936,0,0,1,3.341,1.59,7.16,7.16,0,0,1,1.192,4.383Zm-3.1-.237a4.6,4.6,0,0,0-.575-2.511,1.87,1.87,0,0,0-1.67-.884,2.032,2.032,0,0,0-2.009,1.121v4.773a2.066,2.066,0,0,0,2.03,1.153Q-70.222,20.712-70.222,17.059Zm11.988,4.759a3.893,3.893,0,0,1-3.18,1.4,3.672,3.672,0,0,1-2.852-1.074,4.586,4.586,0,0,1-1-3.147V11.377h3.1v7.518q0,1.817,1.654,1.817a2.242,2.242,0,0,0,2.17-1.1V11.377h3.115V23h-2.922Zm8.207-10.441.1,1.343a4.058,4.058,0,0,1,3.341-1.558,3.372,3.372,0,0,1,2.75,1.085,5.062,5.062,0,0,1,.924,3.244V23h-3.1V15.549a2.022,2.022,0,0,0-.43-1.437,1.921,1.921,0,0,0-1.429-.447,2.135,2.135,0,0,0-1.966,1.12V23h-3.1V11.377ZM-36.846,8.52v2.857h1.987v2.277h-1.987v5.8a1.385,1.385,0,0,0,.247.924,1.241,1.241,0,0,0,.945.279,4.951,4.951,0,0,0,.913-.075v2.353a6.391,6.391,0,0,1-1.88.279q-3.266,0-3.33-3.3V13.654h-1.7V11.377h1.7V8.52Zm2.911,8.562A6.893,6.893,0,0,1-33.269,14,4.876,4.876,0,0,1-31.351,11.9a5.594,5.594,0,0,1,2.906-.741A5.293,5.293,0,0,1-24.6,12.6a5.777,5.777,0,0,1,1.66,3.91l.021.795A6.075,6.075,0,0,1-24.417,21.6a5.19,5.19,0,0,1-4.007,1.617A5.216,5.216,0,0,1-32.436,21.6a6.182,6.182,0,0,1-1.5-4.383Zm3.1.22a4.345,4.345,0,0,0,.623,2.534,2.055,2.055,0,0,0,1.783.877,2.06,2.06,0,0,0,1.762-.866,4.754,4.754,0,0,0,.634-2.77,4.3,4.3,0,0,0-.634-2.518,2.06,2.06,0,0,0-1.783-.893,2.027,2.027,0,0,0-1.762.888A4.834,4.834,0,0,0-30.83,17.3Zm16.113,2.487a1,1,0,0,0-.564-.9,6.406,6.406,0,0,0-1.81-.585q-4.146-.87-4.146-3.523A3.194,3.194,0,0,1-19.954,12.2,5.178,5.178,0,0,1-16.6,11.162a5.573,5.573,0,0,1,3.54,1.042,3.284,3.284,0,0,1,1.327,2.707h-3.1a1.5,1.5,0,0,0-.43-1.1,1.818,1.818,0,0,0-1.343-.435,1.858,1.858,0,0,0-1.214.354,1.119,1.119,0,0,0-.43.9.957.957,0,0,0,.489.833,5.028,5.028,0,0,0,1.649.548,13.468,13.468,0,0,1,1.955.521,3.212,3.212,0,0,1,2.46,3.126,3.032,3.032,0,0,1-1.364,2.573,5.885,5.885,0,0,1-3.523.983,6.147,6.147,0,0,1-2.594-.521,4.353,4.353,0,0,1-1.778-1.429A3.32,3.32,0,0,1-21.6,19.3h2.943a1.621,1.621,0,0,0,.612,1.268,2.429,2.429,0,0,0,1.525.44,2.248,2.248,0,0,0,1.348-.338A1.053,1.053,0,0,0-14.717,19.788ZM-4.705,17.1a7,7,0,0,1,1.219-4.329A3.956,3.956,0,0,1-.15,11.162a3.56,3.56,0,0,1,2.8,1.268V6.5H5.769V23h-2.8l-.15-1.235a3.653,3.653,0,0,1-2.986,1.45A3.945,3.945,0,0,1-3.464,21.6,7.23,7.23,0,0,1-4.705,17.1Zm3.1.221a4.613,4.613,0,0,0,.569,2.514,1.853,1.853,0,0,0,1.654.874,2.077,2.077,0,0,0,2.03-1.219V14.884A2.047,2.047,0,0,0,.645,13.665Q-1.6,13.665-1.6,17.323Zm15.125,5.891a5.706,5.706,0,0,1-4.163-1.568,5.575,5.575,0,0,1-1.606-4.179v-.3a7.021,7.021,0,0,1,.677-3.131,4.967,4.967,0,0,1,1.917-2.127,5.382,5.382,0,0,1,2.831-.747,4.824,4.824,0,0,1,3.754,1.5,6.111,6.111,0,0,1,1.37,4.265V18.2H10.9a2.884,2.884,0,0,0,.908,1.826,2.744,2.744,0,0,0,1.917.688,3.351,3.351,0,0,0,2.8-1.3l1.525,1.708a4.66,4.66,0,0,1-1.891,1.542A6.2,6.2,0,0,1,13.524,23.215Zm-.354-9.55a1.94,1.94,0,0,0-1.5.626,3.241,3.241,0,0,0-.736,1.791h4.318v-.248a2.311,2.311,0,0,0-.559-1.6A2,2,0,0,0,13.17,13.665ZM29.9,19.208l2.159-7.831H35.3L31.378,23H28.413L24.492,11.377h3.244Zm11.978,4.007a5.706,5.706,0,0,1-4.163-1.568A5.575,5.575,0,0,1,36.1,17.468v-.3a7.021,7.021,0,0,1,.677-3.131A4.967,4.967,0,0,1,38.7,11.909a5.382,5.382,0,0,1,2.831-.747,4.824,4.824,0,0,1,3.754,1.5,6.111,6.111,0,0,1,1.37,4.265V18.2h-7.4a2.884,2.884,0,0,0,.908,1.826,2.744,2.744,0,0,0,1.917.688,3.351,3.351,0,0,0,2.8-1.3l1.525,1.708a4.66,4.66,0,0,1-1.891,1.542A6.2,6.2,0,0,1,41.873,23.215Zm-.354-9.55a1.94,1.94,0,0,0-1.5.626,3.241,3.241,0,0,0-.736,1.791H43.6v-.248a2.311,2.311,0,0,0-.559-1.6A2,2,0,0,0,41.519,13.665Zm9.754-2.288.1,1.343a4.058,4.058,0,0,1,3.341-1.558,3.372,3.372,0,0,1,2.75,1.085,5.062,5.062,0,0,1,.924,3.244V23h-3.1V15.549a2.022,2.022,0,0,0-.43-1.437,1.921,1.921,0,0,0-1.429-.447,2.135,2.135,0,0,0-1.966,1.12V23h-3.1V11.377ZM64.453,8.52v2.857H66.44v2.277H64.453v5.8a1.385,1.385,0,0,0,.247.924,1.241,1.241,0,0,0,.945.279,4.951,4.951,0,0,0,.913-.075v2.353a6.391,6.391,0,0,1-1.88.279q-3.266,0-3.33-3.3V13.654h-1.7V11.377h1.7V8.52ZM74.905,23a3.448,3.448,0,0,1-.312-1.042,3.756,3.756,0,0,1-2.933,1.257,4.127,4.127,0,0,1-2.831-.988,3.178,3.178,0,0,1-1.123-2.492,3.285,3.285,0,0,1,1.37-2.836,6.758,6.758,0,0,1,3.958-1h1.429v-.666a1.915,1.915,0,0,0-.414-1.289,1.627,1.627,0,0,0-1.305-.483,1.85,1.85,0,0,0-1.23.376,1.277,1.277,0,0,0-.446,1.031h-3.1A3.118,3.118,0,0,1,68.589,13a4.118,4.118,0,0,1,1.762-1.348,6.42,6.42,0,0,1,2.557-.489,5.073,5.073,0,0,1,3.411,1.08,3.777,3.777,0,0,1,1.262,3.035v5.038a5.557,5.557,0,0,0,.462,2.5V23Zm-2.567-2.159a2.674,2.674,0,0,0,1.268-.306,2.011,2.011,0,0,0,.859-.822v-2H73.3q-2.331,0-2.481,1.611l-.011.183a1.243,1.243,0,0,0,.408.956A1.586,1.586,0,0,0,72.338,20.841Zm-125.4,21.947a1,1,0,0,0-.564-.9,6.406,6.406,0,0,0-1.81-.585q-4.146-.87-4.146-3.523A3.194,3.194,0,0,1-58.3,35.2a5.178,5.178,0,0,1,3.357-1.037,5.573,5.573,0,0,1,3.54,1.042,3.284,3.284,0,0,1,1.327,2.707h-3.1a1.5,1.5,0,0,0-.43-1.1,1.818,1.818,0,0,0-1.343-.435,1.858,1.858,0,0,0-1.214.354,1.119,1.119,0,0,0-.43.9.957.957,0,0,0,.489.833,5.028,5.028,0,0,0,1.649.548,13.468,13.468,0,0,1,1.955.521,3.212,3.212,0,0,1,2.46,3.126,3.032,3.032,0,0,1-1.364,2.573,5.885,5.885,0,0,1-3.523.983,6.147,6.147,0,0,1-2.594-.521,4.353,4.353,0,0,1-1.778-1.429,3.32,3.32,0,0,1-.645-1.96h2.943a1.621,1.621,0,0,0,.612,1.268,2.429,2.429,0,0,0,1.525.44,2.248,2.248,0,0,0,1.348-.338A1.053,1.053,0,0,0-53.066,42.788ZM-42.7,46.215a5.706,5.706,0,0,1-4.163-1.568,5.575,5.575,0,0,1-1.606-4.179v-.3a7.021,7.021,0,0,1,.677-3.131,4.967,4.967,0,0,1,1.917-2.127,5.382,5.382,0,0,1,2.831-.747,4.824,4.824,0,0,1,3.754,1.5,6.111,6.111,0,0,1,1.37,4.265V41.2h-7.4a2.884,2.884,0,0,0,.908,1.826,2.744,2.744,0,0,0,1.917.688,3.351,3.351,0,0,0,2.8-1.3l1.525,1.708a4.66,4.66,0,0,1-1.891,1.542A6.2,6.2,0,0,1-42.7,46.215Zm-.354-9.55a1.94,1.94,0,0,0-1.5.626,3.241,3.241,0,0,0-.736,1.791h4.318v-.248a2.311,2.311,0,0,0-.559-1.6A2,2,0,0,0-43.055,36.665Zm11.73,7.047a2.036,2.036,0,0,0,1.4-.473,1.656,1.656,0,0,0,.559-1.257h2.911a3.982,3.982,0,0,1-.645,2.165,4.253,4.253,0,0,1-1.735,1.525,5.43,5.43,0,0,1-2.433.542A5.046,5.046,0,0,1-35.2,44.63a6.27,6.27,0,0,1-1.439-4.377v-.2a6.2,6.2,0,0,1,1.429-4.286,4.987,4.987,0,0,1,3.921-1.6A4.889,4.889,0,0,1-27.8,35.4a4.393,4.393,0,0,1,1.337,3.3h-2.911a2.133,2.133,0,0,0-.559-1.474,1.862,1.862,0,0,0-1.418-.567,1.87,1.87,0,0,0-1.638.791,4.583,4.583,0,0,0-.553,2.566v.323a4.641,4.641,0,0,0,.548,2.582A1.893,1.893,0,0,0-31.324,43.712Zm13.6,1.106a3.893,3.893,0,0,1-3.18,1.4,3.672,3.672,0,0,1-2.852-1.074,4.586,4.586,0,0,1-1-3.147V34.377h3.1v7.518q0,1.817,1.654,1.817a2.242,2.242,0,0,0,2.17-1.1V34.377h3.115V46h-2.922Zm8.207-10.441.1,1.343A4.058,4.058,0,0,1-6.08,34.162a3.372,3.372,0,0,1,2.75,1.085,5.062,5.062,0,0,1,.924,3.244V46h-3.1V38.549a2.022,2.022,0,0,0-.43-1.437,1.921,1.921,0,0,0-1.429-.447,2.135,2.135,0,0,0-1.966,1.12V46h-3.1V34.377ZM-.537,40.1A7,7,0,0,1,.682,35.773a3.956,3.956,0,0,1,3.335-1.611,3.56,3.56,0,0,1,2.8,1.268V29.5H9.937V46h-2.8l-.15-1.235A3.653,3.653,0,0,1,4,46.215,3.945,3.945,0,0,1,.7,44.6,7.23,7.23,0,0,1-.537,40.1Zm3.1.221a4.613,4.613,0,0,0,.569,2.514,1.853,1.853,0,0,0,1.654.874,2.077,2.077,0,0,0,2.03-1.219V37.884a2.047,2.047,0,0,0-2.009-1.219Q2.567,36.665,2.567,40.323ZM19.078,46a3.448,3.448,0,0,1-.312-1.042,3.756,3.756,0,0,1-2.933,1.257A4.127,4.127,0,0,1,13,45.227a3.178,3.178,0,0,1-1.123-2.492A3.285,3.285,0,0,1,13.25,39.9a6.758,6.758,0,0,1,3.958-1h1.429v-.666a1.915,1.915,0,0,0-.414-1.289,1.627,1.627,0,0,0-1.305-.483,1.85,1.85,0,0,0-1.23.376,1.277,1.277,0,0,0-.446,1.031h-3.1A3.118,3.118,0,0,1,12.762,36a4.118,4.118,0,0,1,1.762-1.348,6.42,6.42,0,0,1,2.557-.489,5.073,5.073,0,0,1,3.411,1.08,3.777,3.777,0,0,1,1.262,3.035v5.038a5.557,5.557,0,0,0,.462,2.5V46Zm-2.567-2.159a2.674,2.674,0,0,0,1.268-.306,2.011,2.011,0,0,0,.859-.822v-2h-1.16q-2.331,0-2.481,1.611l-.011.183a1.243,1.243,0,0,0,.408.956A1.586,1.586,0,0,0,16.511,43.841Zm14.158-6.553a8.434,8.434,0,0,0-1.117-.086,2.274,2.274,0,0,0-2.31,1.192V46h-3.1V34.377H27.07l.086,1.386a2.877,2.877,0,0,1,2.589-1.6,3.253,3.253,0,0,1,.967.14ZM35.438,46H32.323V34.377h3.115Zm-3.3-14.631a1.529,1.529,0,0,1,.467-1.149,2.014,2.014,0,0,1,2.541,0,1.64,1.64,0,0,1-.005,2.31,1.991,1.991,0,0,1-2.524,0A1.524,1.524,0,0,1,32.141,31.369Zm5.371,8.712A6.893,6.893,0,0,1,38.178,37,4.876,4.876,0,0,1,40.1,34.9,5.594,5.594,0,0,1,43,34.162a5.293,5.293,0,0,1,3.84,1.439,5.777,5.777,0,0,1,1.66,3.91l.021.795A6.075,6.075,0,0,1,47.029,44.6a5.19,5.19,0,0,1-4.007,1.617A5.216,5.216,0,0,1,39.01,44.6a6.182,6.182,0,0,1-1.5-4.383Zm3.1.22a4.345,4.345,0,0,0,.623,2.534,2.238,2.238,0,0,0,3.545.011,4.754,4.754,0,0,0,.634-2.77,4.3,4.3,0,0,0-.634-2.518A2.06,2.06,0,0,0,43,36.665a2.027,2.027,0,0,0-1.762.888A4.834,4.834,0,0,0,40.616,40.3Zm16.113,2.487a1,1,0,0,0-.564-.9,6.406,6.406,0,0,0-1.81-.585q-4.146-.87-4.146-3.523A3.194,3.194,0,0,1,51.493,35.2a5.178,5.178,0,0,1,3.357-1.037,5.573,5.573,0,0,1,3.54,1.042,3.284,3.284,0,0,1,1.327,2.707h-3.1a1.5,1.5,0,0,0-.43-1.1,1.818,1.818,0,0,0-1.343-.435,1.858,1.858,0,0,0-1.214.354,1.119,1.119,0,0,0-.43.9.957.957,0,0,0,.489.833,5.028,5.028,0,0,0,1.649.548,13.468,13.468,0,0,1,1.955.521,3.212,3.212,0,0,1,2.46,3.126,3.032,3.032,0,0,1-1.364,2.573,5.885,5.885,0,0,1-3.523.983,6.147,6.147,0,0,1-2.594-.521,4.353,4.353,0,0,1-1.778-1.429,3.32,3.32,0,0,1-.645-1.96h2.943a1.621,1.621,0,0,0,.612,1.268,2.429,2.429,0,0,0,1.525.44,2.248,2.248,0,0,0,1.348-.338A1.053,1.053,0,0,0,56.729,42.788Z" transform="translate(794.474 21670.104)" fill="#20287a"/>
      <circle id="Elipse_1879" data-name="Elipse 1879" cx="44.878" cy="44.878" r="44.878" transform="translate(558.576 21553.045)" fill="#dff7f9" stroke="#006df0" stroke-width="2"/>
      <g id="_001-warehouse" data-name=" 001-warehouse" transform="translate(572.63 21572.738)">
        <g id="Grupo_55821" data-name="Grupo 55821" transform="translate(0)">
          <path id="Trazado_27216" data-name="Trazado 27216" d="M220.061-2181.883,197.879-2196.3a.9.9,0,0,0-.984,0l-3.18,2.065-9.655-6.277a.907.907,0,0,0-.984,0l-21.964,14.276a.9.9,0,0,0-.266,1.25.9.9,0,0,0,1.25.265l1.182-.768v18.735H160.09a1.265,1.265,0,0,0-1.265,1.263v13.938a1.265,1.265,0,0,0,1.265,1.264h56.275a1.506,1.506,0,0,0,1.506-1.506h0v-4.292a.9.9,0,0,0-.9-.9.9.9,0,0,0-.9.9v3.991h-2.092v-16.72a1.265,1.265,0,0,0-1.265-1.264H182.066a1.266,1.266,0,0,0-1.265,1.264v16.722H178.71v-30.236l18.676-12.135,18.678,12.135v22.03a.9.9,0,0,0,.9.9.9.9,0,0,0,.9-.9v-20.858l1.206.785a.9.9,0,0,0,1.25-.265A.9.9,0,0,0,220.061-2181.883Zm-21.77,13.613h13.875v1.461H198.291Zm0,3.387h13.875v1.582H198.291Zm0,3.387h13.875v9.406H198.291Zm-15.683-6.773h13.875v1.461H182.608Zm0,6.774h5.716a.9.9,0,0,0,.9-.9.9.9,0,0,0-.9-.9h-5.716v-1.583h13.875v1.582h-3.944a.9.9,0,0,0-.9.9.9.9,0,0,0,.9.9h3.944v9.406H182.608Zm-16.436,9.406h-5.541v-5.524h5.541Zm0-7.331h-5.541v-5.522h5.541Zm8.54-22.462a.9.9,0,0,0-.265,1.25.9.9,0,0,0,1.249.265h0l1.208-.785v29.064h-1.58v-.621a.9.9,0,0,0-.9-.9.9.9,0,0,0-.9.9v.621h-5.541v-5.524h5.541v.69a.9.9,0,0,0,.9.9.9.9,0,0,0,.9-.9v-1.233a1.265,1.265,0,0,0-1.265-1.264h-6.082v-6.066a1.265,1.265,0,0,0-1.264-1.265h-1.63v-19.908l18.486-12.011,8.489,5.513Z" transform="translate(-158.825 2200.654)" fill="#20287a"/>
          <path id="Trazado_27217" data-name="Trazado 27217" d="M194.19-2184.96h6.2a.9.9,0,0,0,.9-.9.9.9,0,0,0-.9-.9h-6.2a.9.9,0,0,0-.9.9A.9.9,0,0,0,194.19-2184.96Z" transform="translate(-158.726 2200.694)" fill="#20287a"/>
          <path id="Trazado_27218" data-name="Trazado 27218" d="M182-2179.738a1.265,1.265,0,0,0-1.265,1.264v2.366a1.265,1.265,0,0,0,1.265,1.264h7.8a1.265,1.265,0,0,0,1.265-1.264v-2.366a1.265,1.265,0,0,0-1.265-1.264Zm7.259,3.087h-6.716v-1.282h6.716Z" transform="translate(-158.762 2200.714)" fill="#20287a"/>
          <path id="Trazado_27219" data-name="Trazado 27219" d="M192.127-2178.474v2.366a1.265,1.265,0,0,0,1.265,1.264h7.8a1.265,1.265,0,0,0,1.265-1.264v-2.366a1.265,1.265,0,0,0-1.265-1.264h-7.8A1.265,1.265,0,0,0,192.127-2178.474Zm1.806.542h6.716v1.282h-6.716Z" transform="translate(-158.73 2200.714)" fill="#20287a"/>
          <path id="Trazado_27220" data-name="Trazado 27220" d="M204.78-2179.738a1.264,1.264,0,0,0-1.265,1.264v2.366a1.264,1.264,0,0,0,1.265,1.264h7.8a1.265,1.265,0,0,0,1.265-1.264v-2.366a1.265,1.265,0,0,0-1.265-1.264Zm7.258,3.087h-6.716v-1.282h6.716Z" transform="translate(-158.697 2200.714)" fill="#20287a"/>
        </g>
      </g>
      <g id="Grupo_56633" data-name="Grupo 56633" transform="translate(939.278 21477.02)">
        <g id="Grupo_56628" data-name="Grupo 56628" transform="translate(13.451)">
          <g id="Grupo_56627" data-name="Grupo 56627">
            <path id="Trazado_28855" data-name="Trazado 28855" d="M576.682-2289.279a.958.958,0,0,0-.852.007l-4.141,2.1-3.24-5.566a6.351,6.351,0,0,0-5.634-3.361H546.8a6.847,6.847,0,0,0-5.844,3.3l-2.978,4.84a.96.96,0,0,0,.3,1.314l10.567,6.724a.959.959,0,0,0,.515.151.94.94,0,0,0,.236-.03.958.958,0,0,0,.6-.464l4.035-7.259,4.419,8.357-4.023,2.414a.961.961,0,0,0-.445,1.028.959.959,0,0,0,.83.751l14.3,1.626a.945.945,0,0,0,.108.006.961.961,0,0,0,.865-.542L577.128-2288A.961.961,0,0,0,576.682-2289.279Zm-27.661,7.19-8.908-5.667,2.488-4.042a4.925,4.925,0,0,1,4.2-2.381h3.9l2.381,4.78Zm19.838,6.756-10.8-1.228,2.374-1.425a.96.96,0,0,0,.354-1.271l-7.89-14.922h9.922a4.478,4.478,0,0,1,3.973,2.4l3.7,6.352a.959.959,0,0,0,1.264.372l2.408-1.219Z" transform="translate(-537.838 2296.099)" fill="#20287a"/>
          </g>
        </g>
        <g id="Grupo_56630" data-name="Grupo 56630" transform="translate(24.018 20.168)">
          <g id="Grupo_56629" data-name="Grupo 56629">
            <path id="Trazado_28856" data-name="Trazado 28856" d="M581.162-2269.256l-3.1-6.2a.961.961,0,0,0-1.289-.43c-.019.01-.038.02-.056.031l-11.528,6.724a.961.961,0,0,0-.356,1.3l4.008,7.221H559.9v-3.842a.959.959,0,0,0-.96-.961.954.954,0,0,0-.711.314l-9.606,10.567a.962.962,0,0,0-.05,1.233l9.607,12.489a.96.96,0,0,0,1.347.173.96.96,0,0,0,.374-.76v-2.881h6.725a6.15,6.15,0,0,0,5.633-3.363l6.724-11.522,2-3.228A6.807,6.807,0,0,0,581.162-2269.256Zm-10.572,20.665a4.28,4.28,0,0,1-3.962,2.387h-7.685a.961.961,0,0,0-.961.961v1.018l-7.4-9.613,7.4-8.134v2.319a.961.961,0,0,0,.961.961h17.54Zm8.755-14.81-1.729,2.785h-6.582l-4.071-7.326,9.83-5.736,2.666,5.322A4.9,4.9,0,0,1,579.344-2263.4Z" transform="translate(-548.375 2275.989)" fill="#20287a"/>
          </g>
        </g>
        <g id="Grupo_56632" data-name="Grupo 56632" transform="translate(0 15.368)">
          <g id="Grupo_56631" data-name="Grupo 56631">
            <path id="Trazado_28857" data-name="Trazado 28857" d="M547.395-2267.727l-5.764-12.489a.959.959,0,0,0-.933-.558l-15.37.96a.96.96,0,0,0-.9,1.018.965.965,0,0,0,.453.758v0l4.75,2.945-3.17,6.347a6.918,6.918,0,0,0,.017,6.7l5.346,9.232,2.923,5.063a7.058,7.058,0,0,0,6.011,3.477H544.6a.961.961,0,0,0,.961-.96v-13.449a.961.961,0,0,0-.961-.961h-7.177l4.792-8.313,3.961,1.525a.961.961,0,0,0,1.242-.552A.959.959,0,0,0,547.395-2267.727Zm-3.755,10.009v11.528h-2.881a5.106,5.106,0,0,1-4.349-2.514l-2.637-4.569,2.721-4.444Zm-1.5-12.324a.96.96,0,0,0-1.176.417l-8.31,14.417L528.142-2263a5,5,0,0,1,.032-4.856l3.573-7.16a.96.96,0,0,0-.354-1.249l-2.938-1.817,11.707-.729,4.5,9.741Z" transform="translate(-524.426 2280.775)" fill="#20287a"/>
          </g>
        </g>
      </g>
      <path id="Trazado_32400" data-name="Trazado 32400" d="M-31.423-5.465h-2.451V0H-36.95V-14.93H-31.4a6.271,6.271,0,0,1,4.081,1.179,4.07,4.07,0,0,1,1.436,3.333,4.593,4.593,0,0,1-.661,2.548,4.511,4.511,0,0,1-2,1.625l3.23,6.1V0h-3.3Zm-2.451-2.492h2.481a2.541,2.541,0,0,0,1.794-.59,2.107,2.107,0,0,0,.636-1.625,2.256,2.256,0,0,0-.6-1.661,2.493,2.493,0,0,0-1.841-.6h-2.471ZM-18.636.205a5.447,5.447,0,0,1-3.973-1.5,5.321,5.321,0,0,1-1.533-3.989v-.287A6.7,6.7,0,0,1-23.5-8.557a4.741,4.741,0,0,1,1.83-2.03,5.137,5.137,0,0,1,2.7-.713,4.6,4.6,0,0,1,3.584,1.436,5.833,5.833,0,0,1,1.307,4.071v1.21h-7.065a2.753,2.753,0,0,0,.866,1.743,2.619,2.619,0,0,0,1.83.656,3.2,3.2,0,0,0,2.676-1.241l1.456,1.63a4.449,4.449,0,0,1-1.8,1.471A5.921,5.921,0,0,1-18.636.205Zm-.338-9.116a1.852,1.852,0,0,0-1.43.6,3.093,3.093,0,0,0-.7,1.71h4.122V-6.84a2.206,2.206,0,0,0-.533-1.529A1.91,1.91,0,0,0-18.975-8.911Zm10.6,5.291,2.061-7.475h3.1L-6.957,0h-2.83L-13.53-11.095h3.1ZM3.061.205a5.447,5.447,0,0,1-3.973-1.5A5.321,5.321,0,0,1-2.446-5.281v-.287A6.7,6.7,0,0,1-1.8-8.557a4.741,4.741,0,0,1,1.83-2.03,5.137,5.137,0,0,1,2.7-.713A4.6,4.6,0,0,1,6.316-9.864,5.833,5.833,0,0,1,7.624-5.793v1.21H.559A2.753,2.753,0,0,0,1.425-2.84a2.619,2.619,0,0,0,1.83.656A3.2,3.2,0,0,0,5.932-3.425l1.456,1.63a4.449,4.449,0,0,1-1.8,1.471A5.921,5.921,0,0,1,3.061.205ZM2.722-8.911a1.852,1.852,0,0,0-1.43.6A3.093,3.093,0,0,0,.59-6.6H4.712V-6.84A2.206,2.206,0,0,0,4.178-8.37,1.91,1.91,0,0,0,2.722-8.911Zm9.311-2.184.092,1.282A3.874,3.874,0,0,1,15.314-11.3a3.219,3.219,0,0,1,2.625,1.036,4.832,4.832,0,0,1,.882,3.1V0H15.858V-7.112a1.93,1.93,0,0,0-.41-1.372,1.833,1.833,0,0,0-1.364-.426,2.038,2.038,0,0,0-1.876,1.069V0H9.244V-11.095Zm12.582-2.728v2.728h1.9v2.174h-1.9v5.537a1.322,1.322,0,0,0,.236.882,1.184,1.184,0,0,0,.9.267,4.726,4.726,0,0,0,.872-.072V-.062A6.1,6.1,0,0,1,24.83.205q-3.117,0-3.179-3.148V-8.921h-1.62v-2.174h1.62v-2.728ZM34.592,0a3.291,3.291,0,0,1-.3-.995,3.586,3.586,0,0,1-2.8,1.2,3.939,3.939,0,0,1-2.7-.943,3.034,3.034,0,0,1-1.072-2.379,3.135,3.135,0,0,1,1.307-2.707,6.451,6.451,0,0,1,3.779-.954h1.364v-.636a1.828,1.828,0,0,0-.395-1.23,1.553,1.553,0,0,0-1.246-.461,1.766,1.766,0,0,0-1.174.359,1.219,1.219,0,0,0-.426.984H27.968a2.977,2.977,0,0,1,.595-1.784,3.931,3.931,0,0,1,1.682-1.287,6.129,6.129,0,0,1,2.44-.467,4.842,4.842,0,0,1,3.256,1.031,3.605,3.605,0,0,1,1.2,2.9v4.809a5.3,5.3,0,0,0,.441,2.389V0ZM32.141-2.061a2.552,2.552,0,0,0,1.21-.292,1.919,1.919,0,0,0,.82-.784V-5.045H33.064q-2.225,0-2.369,1.538l-.01.174a1.186,1.186,0,0,0,.39.913A1.514,1.514,0,0,0,32.141-2.061Z" transform="translate(964.983 21767.262)" fill="#20287a"/>
      <circle id="Elipse_1880" data-name="Elipse 1880" cx="44.878" cy="44.878" r="44.878" transform="translate(923.223 21651.203)" fill="#dff7f9" stroke="#006df0" stroke-width="2"/>
      <g id="Grupo_56635" data-name="Grupo 56635" transform="translate(938.67 21674.635)">
        <g id="Grupo_56634" data-name="Grupo 56634">
          <path id="Trazado_28858" data-name="Trazado 28858" d="M539.141-2065.776h31.492a1.624,1.624,0,0,0,1.557-1.161l6.409-21.519a1.624,1.624,0,0,0-.255-1.435,1.622,1.622,0,0,0-1.3-.654H535.688l-2.187-7.343a1.625,1.625,0,0,0-1.557-1.16h-6.5a1.625,1.625,0,0,0-1.626,1.625,1.625,1.625,0,0,0,1.626,1.625h5.287l2.176,7.307c.007.025.014.048.022.072l5.781,19.411a6.354,6.354,0,0,0-5.917,6.33,6.354,6.354,0,0,0,6.347,6.347h1.613a5.823,5.823,0,0,0,5.581,4.189,5.822,5.822,0,0,0,5.581-4.189h8.622a5.823,5.823,0,0,0,5.581,4.189,5.822,5.822,0,0,0,5.581-4.189h2.094a1.625,1.625,0,0,0,1.625-1.624,1.625,1.625,0,0,0-1.625-1.625H571.7a5.823,5.823,0,0,0-5.581-4.189,5.823,5.823,0,0,0-5.581,4.189h-8.622a5.823,5.823,0,0,0-5.581-4.189,5.823,5.823,0,0,0-5.581,4.189h-1.613a3.1,3.1,0,0,1-3.1-3.1A3.1,3.1,0,0,1,539.141-2065.776Zm23.838-21.52h11.884l-2.236,7.51h-9.648Zm0,10.761h8.681l-2.237,7.51h-6.443ZM550.955-2087.3h8.774v7.51h-8.774v-7.51Zm0,10.761h8.774v7.51h-8.774v-7.51Zm-3.249,7.51H542.1l-2.237-7.51h7.845Zm-11.05-18.27H547.7v7.51h-8.812Zm29.462,26.776a2.567,2.567,0,0,1,2.564,2.564,2.566,2.566,0,0,1-2.564,2.563,2.566,2.566,0,0,1-2.563-2.563A2.567,2.567,0,0,1,566.118-2060.521Zm-19.784,0a2.567,2.567,0,0,1,2.564,2.564,2.566,2.566,0,0,1-2.564,2.563,2.566,2.566,0,0,1-2.563-2.563A2.567,2.567,0,0,1,546.334-2060.521Z" transform="translate(-523.819 2099.049)" fill="#20287a"/>
        </g>
      </g>
    </g>
  </g>
</svg>
