<svg xmlns="http://www.w3.org/2000/svg" width="90" height="90" viewBox="0 0 90 90">
  <g id="Grupo_56820" data-name="Grupo 56820" transform="translate(13363 -11734)">
    <g id="Grupo_55897" data-name="Grupo 55897" transform="translate(-13594 -12730)">
      <g id="Grupo_55890" data-name="Grupo 55890">
        <g id="Grupo_55870" data-name="Grupo 55870" transform="translate(52 20724)">
          <circle id="Elipse_1805" data-name="Elipse 1805" cx="45" cy="45" r="45" transform="translate(179 3740)" fill="#2a94ee"/>
        </g>
      </g>
    </g>
    <g id="_002-package" data-name="002-package" transform="translate(-13346 11749)">
      <g id="Grupo_55822" data-name="Grupo 55822" transform="translate(0 0)">
        <path id="Trazado_27221" data-name="Trazado 27221" d="M181.082,458.213a.879.879,0,0,0,0-1.758h-4.292a.879.879,0,1,0,0,1.758Z" transform="translate(-156.983 -402.964)" fill="#fff"/>
        <path id="Trazado_27222" data-name="Trazado 27222" d="M51.233,456.455a.879.879,0,0,0,0,1.758h1.379a.879.879,0,0,0,0-1.758Z" transform="translate(-46.139 -402.964)" fill="#fff"/>
        <path id="Trazado_27223" data-name="Trazado 27223" d="M410.9,456.455a.879.879,0,1,0,0,1.758H415.2a.879.879,0,1,0,0-1.758Z" transform="translate(-363.661 -402.964)" fill="#fff"/>
        <path id="Trazado_27224" data-name="Trazado 27224" d="M285.346,456.455a.879.879,0,0,0,0,1.758h1.379a.879.879,0,1,0,0-1.758Z" transform="translate(-252.817 -402.964)" fill="#fff"/>
        <path id="Trazado_27225" data-name="Trazado 27225" d="M292,170.031h-5.274a1.232,1.232,0,0,0-1.23,1.23v6.5a1.232,1.232,0,0,0,1.23,1.23H292a1.232,1.232,0,0,0,1.23-1.23v-6.5A1.232,1.232,0,0,0,292,170.031Zm-.527,7.2h-4.22v-5.446h4.22Z" transform="translate(-253.729 -150.105)" fill="#fff"/>
        <path id="Trazado_27226" data-name="Trazado 27226" d="M169.669,222.344H168.29a.879.879,0,1,0,0,1.758h1.379a.879.879,0,0,0,0-1.758Z" transform="translate(-149.479 -196.288)" fill="#fff"/>
        <path id="Trazado_27227" data-name="Trazado 27227" d="M70.136,47.719a.879.879,0,0,0,.879-.879V32.272a1.466,1.466,0,0,0-1.465-1.465H57.3V12.09l4.53-10.873A.879.879,0,0,0,60.205.541L55.833,11.035h-1.6V9.141a.879.879,0,1,0-1.758,0v1.895H48.868V8.822A1.466,1.466,0,0,0,47.4,7.357H45.5v-3.3h6.979v.982a.879.879,0,0,0,1.758,0V3.764A1.466,1.466,0,0,0,52.767,2.3H45.2a1.466,1.466,0,0,0-1.465,1.465V7.357H41.664V6.063A1.466,1.466,0,0,0,40.2,4.6H32.635A1.466,1.466,0,0,0,31.17,6.063v4.972h-1.6L25.2.541a.879.879,0,1,0-1.623.676L28.1,12.09V30.807H24.537a.879.879,0,1,0,0,1.758h.579v5.973a1.232,1.232,0,0,0,1.23,1.23h5.274a1.232,1.232,0,0,0,1.23-1.23V32.565h8.971V58.242H16.145V32.565h4.291a.879.879,0,1,0,0-1.758H15.852a1.466,1.466,0,0,0-1.465,1.465V58.535A1.466,1.466,0,0,0,15.852,60h53.7a1.466,1.466,0,0,0,1.465-1.465V50.941a.879.879,0,0,0-1.758,0v7.3H43.58V32.565h8.971v5.973a1.232,1.232,0,0,0,1.23,1.23h5.274a1.232,1.232,0,0,0,1.23-1.23V32.565h8.971V46.84a.879.879,0,0,0,.879.879ZM41.664,9.115H47.11v1.921H41.664ZM32.928,6.356h6.979v4.679H32.928ZM31.093,38.01h-4.22V32.565h4.22Zm-1.231-7.2V12.793H55.54V30.807H29.862Zm28.666,7.2h-4.22V32.565h4.22Z" transform="translate(-14.387 0)" fill="#fff"/>
      </g>
    </g>
  </g>
</svg>
