<svg xmlns="http://www.w3.org/2000/svg" width="90" height="90" viewBox="0 0 90 90">
  <g id="Grupo_55851" data-name="Grupo 55851" transform="translate(-179 -4083)">
    <circle id="Elipse_1806" data-name="Elipse 1806" cx="45" cy="45" r="45" transform="translate(179 4083)" fill="#2a94ee"/>
    <g id="_006-schedule" data-name="006-schedule" transform="translate(198 4104)">
      <g id="Grupo_55826" data-name="Grupo 55826" transform="translate(0 0)">
        <path id="Trazado_27250" data-name="Trazado 27250" d="M72.42,246.316h-11.6a.766.766,0,1,0,0,1.532h11.6a.766.766,0,1,0,0-1.532Z" transform="translate(-53.921 -222.895)" fill="#fff"/>
        <path id="Trazado_27251" data-name="Trazado 27251" d="M72.42,282.349h-11.6a.766.766,0,0,0,0,1.532h11.6a.766.766,0,1,0,0-1.532Z" transform="translate(-53.921 -255.247)" fill="#fff"/>
        <path id="Trazado_27252" data-name="Trazado 27252" d="M72.42,318.382h-11.6a.766.766,0,0,0,0,1.532h11.6a.766.766,0,1,0,0-1.532Z" transform="translate(-53.921 -287.6)" fill="#fff"/>
        <path id="Trazado_27253" data-name="Trazado 27253" d="M209.32,246.316a.766.766,0,1,0,0,1.532h6.915a.766.766,0,1,0,0-1.532Z" transform="translate(-187.252 -222.895)" fill="#fff"/>
        <path id="Trazado_27254" data-name="Trazado 27254" d="M320.97,246.316h-10.1a.766.766,0,1,0,0,1.532h10.1a.766.766,0,0,0,0-1.532Z" transform="translate(-278.427 -222.895)" fill="#fff"/>
        <path id="Trazado_27255" data-name="Trazado 27255" d="M217,283.115a.766.766,0,0,0-.766-.766H209.32a.766.766,0,1,0,0,1.532h6.915A.766.766,0,0,0,217,283.115Z" transform="translate(-187.252 -255.247)" fill="#fff"/>
        <path id="Trazado_27256" data-name="Trazado 27256" d="M59.043,174.555A2.722,2.722,0,0,0,61.65,172.6h3.963a2.157,2.157,0,0,0,4.035,0H74.2a2.157,2.157,0,0,0,4.035,0H88.556a2.718,2.718,0,1,0,0-1.532H78.236a2.157,2.157,0,0,0-4.035,0H69.648a2.157,2.157,0,0,0-4.035,0H61.65a2.718,2.718,0,1,0-2.607,3.484Zm32.121-3.9a1.186,1.186,0,1,1-1.186,1.186A1.187,1.187,0,0,1,91.163,170.651Zm-14.945.558a.628.628,0,1,1-.628.628A.629.629,0,0,1,76.218,171.209Zm-8.588,0a.628.628,0,1,1-.628.628A.629.629,0,0,1,67.631,171.209Zm-8.588-.558a1.186,1.186,0,1,1-1.186,1.186A1.187,1.187,0,0,1,59.043,170.651Z" transform="translate(-50.572 -153.583)" fill="#fff"/>
        <path id="Trazado_27257" data-name="Trazado 27257" d="M440.221,404.317a.766.766,0,0,0,.766.766h2.788a.766.766,0,0,0,0-1.532h-2.788A.766.766,0,0,0,440.221,404.317Z" transform="translate(-395.256 -364.069)" fill="#fff"/>
        <path id="Trazado_27258" data-name="Trazado 27258" d="M443.775,428.665h-2.788a.766.766,0,0,0,0,1.532h2.788a.766.766,0,0,0,0-1.532Z" transform="translate(-395.256 -386.618)" fill="#fff"/>
        <path id="Trazado_27259" data-name="Trazado 27259" d="M50.973,44.118H49.063V37.954a.766.766,0,0,0-1.532,0v6.164H46.274V28.182A1.074,1.074,0,0,0,45.2,27.109H35.335V25.853h12.2v8.525a.766.766,0,1,0,1.532,0V25.6a1.278,1.278,0,0,0-1.277-1.277H35.335v-.229a1.278,1.278,0,0,0-1.277-1.277H31.342a6.9,6.9,0,0,0-13.621,0H15a1.278,1.278,0,0,0-1.277,1.277v.229H1.277A1.278,1.278,0,0,0,0,25.6V57.813a1.278,1.278,0,0,0,1.277,1.277h20.4A8.554,8.554,0,0,0,35.8,63.606H50.973A1.325,1.325,0,0,0,52.3,62.283V45.442a1.325,1.325,0,0,0-1.324-1.324ZM24.531,18.548a5.377,5.377,0,0,1,5.254,4.267H19.277A5.377,5.377,0,0,1,24.531,18.548Zm-9.272,5.8H33.8v4.713H15.26ZM13.585,54.769a.766.766,0,1,0,0,1.532h7.962a8.594,8.594,0,0,0-.059.99c0,.089,0,.177.007.266H1.532v-31.7h12.2v1.256H3.861a1.074,1.074,0,0,0-1.072,1.073V55.229A1.074,1.074,0,0,0,3.861,56.3H10.01a.766.766,0,1,0,0-1.532H4.32V28.642h9.407v.675A1.278,1.278,0,0,0,15,30.593H34.058a1.278,1.278,0,0,0,1.277-1.277v-.675h9.407V44.118H34.132a1.325,1.325,0,0,0-1.324,1.324v3.771a8.537,8.537,0,0,0-10.94,5.557H13.585ZM44.156,45.65v3.456H40.949V45.65Zm6.609,16.424H37.121a8.563,8.563,0,0,0,1.224-2.8.766.766,0,1,0-1.491-.354,7.014,7.014,0,1,1,.007-3.224.766.766,0,1,0,1.492-.347,8.585,8.585,0,0,0-2.971-4.719,8.463,8.463,0,0,0-1.043-.715V45.65h5.077v3.887a1.1,1.1,0,0,0,1.1,1.1h4.069a1.1,1.1,0,0,0,1.1-1.1V45.65h5.077Z" transform="translate(0 -17.016)" fill="#fff"/>
        <path id="Trazado_27260" data-name="Trazado 27260" d="M291.8,356.517h-3.735V351.9a.766.766,0,0,0-1.532,0v5.382a.766.766,0,0,0,.766.766h4.5a.766.766,0,1,0,0-1.532Z" transform="translate(-257.268 -317.007)" fill="#fff"/>
      </g>
    </g>
  </g>
</svg>
