<svg xmlns="http://www.w3.org/2000/svg" width="200" height="120" viewBox="0 0 200 120">
  <g id="Grupo_56811" data-name="Grupo 56811" transform="translate(-179 -13427)">
    <rect id="Rectángulo_5555" data-name="Rectángulo 5555" width="200" height="120" rx="5" transform="translate(179 13427)" fill="#e1eafe"/>
    <g id="_023-wholesaler" data-name="023-wholesaler" transform="translate(232 13449)">
      <g id="Grupo_55842" data-name="Grupo 55842" transform="translate(0 0)">
        <path id="Trazado_27372" data-name="Trazado 27372" d="M91.328,54.972H74.2v-4.52a2.288,2.288,0,0,0-2.285-2.285H41.87a1.371,1.371,0,0,0,0,2.743H71.456V61.378h-49.3V50.91H35.471a1.371,1.371,0,1,0,0-2.743H21.7a2.288,2.288,0,0,0-2.285,2.285v4.52H2.286A2.288,2.288,0,0,0,0,57.258v4.577A2.288,2.288,0,0,0,2.286,64.12h.993v57.762a2.288,2.288,0,0,0,2.285,2.285H88.049a2.288,2.288,0,0,0,2.285-2.285V64.12h.993a2.288,2.288,0,0,0,2.285-2.285V57.258A2.288,2.288,0,0,0,91.328,54.972ZM2.743,57.715H19.415v3.662H2.743Zm24.679,63.71H13.351V107.354H16.8v3.131a1.739,1.739,0,0,0,1.737,1.737h3.705a1.739,1.739,0,0,0,1.737-1.737v-3.131h3.446ZM26.134,95.409h3.705a1.739,1.739,0,0,0,1.737-1.737V90.541h3.446v14.071H20.951V90.541H24.4v3.131A1.739,1.739,0,0,0,26.134,95.409Zm1.006-2.743V90.541h1.694v2.125Zm-5.906,14.688v2.125H19.539v-2.125h1.694Zm23,14.071H30.164V107.354H33.61v3.131a1.739,1.739,0,0,0,1.737,1.737h3.705a1.739,1.739,0,0,0,1.737-1.737v-3.131h3.446ZM42.947,95.409h3.705a1.739,1.739,0,0,0,1.737-1.737V90.541h3.446v14.071H37.764V90.541H41.21v3.131a1.739,1.739,0,0,0,1.737,1.737Zm1.006-2.743V90.541h1.694v2.125Zm-5.906,14.688v2.125H36.352v-2.125h1.694Zm42.216,14.071H69.388v-4.571H80.263Zm0-7.314H69.388V109.54H80.263Zm0-7.314H69.388v-4.571H80.263Zm7.329,14.627H83.006V92.749a1.371,1.371,0,1,0-2.743,0v6.735H68.931a2.288,2.288,0,0,0-2.285,2.285v5.485a2.271,2.271,0,0,0,.192.914,2.271,2.271,0,0,0-.192.914v5.485a2.271,2.271,0,0,0,.192.914,2.271,2.271,0,0,0-.192.914v5.028H63.791V117.25a1.371,1.371,0,1,0-2.743,0v4.175H46.977V107.354h3.446v3.131a1.739,1.739,0,0,0,1.737,1.737h3.706a1.739,1.739,0,0,0,1.737-1.737v-3.131h3.446v3.5a1.371,1.371,0,1,0,2.743,0v-4.319a1.922,1.922,0,0,0-1.92-1.92H54.578V89.718a1.922,1.922,0,0,0-1.92-1.92H20.128a1.922,1.922,0,0,0-1.92,1.92v14.893H13.351V79.532H80.263V86.35a1.371,1.371,0,0,0,2.743,0V73.07a2.288,2.288,0,0,0-2.285-2.285H12.894a2.288,2.288,0,0,0-2.285,2.285v48.354H6.021V64.12H87.592ZM53.165,109.479v-2.125H54.86v2.125ZM13.351,76.789V73.527H80.263v3.262Zm77.52-15.412H74.2V57.715H90.871Z" transform="translate(0 -48.167)" fill="#20287a"/>
        <path id="Trazado_27373" data-name="Trazado 27373" d="M98.318,407.5H94.253a1.371,1.371,0,1,0,0,2.743h4.065a1.371,1.371,0,1,0,0-2.743Z" transform="translate(-75.899 -341.8)" fill="#20287a"/>
        <path id="Trazado_27374" data-name="Trazado 27374" d="M190.274,407.5h-4.065a1.371,1.371,0,1,0,0,2.743h4.065a1.371,1.371,0,1,0,0-2.743Z" transform="translate(-151.042 -341.8)" fill="#20287a"/>
        <path id="Trazado_27375" data-name="Trazado 27375" d="M282.23,407.5h-4.065a1.371,1.371,0,0,0,0,2.743h4.065a1.371,1.371,0,1,0,0-2.743Z" transform="translate(-226.185 -341.8)" fill="#20287a"/>
        <path id="Trazado_27376" data-name="Trazado 27376" d="M135.822,318.287h4.065a1.371,1.371,0,1,0,0-2.743h-4.065a1.371,1.371,0,1,0,0,2.743Z" transform="translate(-109.868 -266.657)" fill="#20287a"/>
        <path id="Trazado_27377" data-name="Trazado 27377" d="M227.778,318.287h4.065a1.371,1.371,0,1,0,0-2.743h-4.065a1.371,1.371,0,1,0,0,2.743Z" transform="translate(-185.011 -266.657)" fill="#20287a"/>
        <path id="Trazado_27378" data-name="Trazado 27378" d="M183.912,85.664a1.371,1.371,0,0,0,1.371,1.371H208.9a1.371,1.371,0,1,0,0-2.743H185.283a1.371,1.371,0,0,0-1.371,1.371Z" transform="translate(-150.286 -77.688)" fill="#20287a"/>
      </g>
    </g>
  </g>
</svg>
