<svg xmlns="http://www.w3.org/2000/svg" width="46" height="46" viewBox="0 0 46 46">
  <path id="_021-facebook" data-name="021-facebook" d="M6.738,46h15V29.648H16.352V24.258h5.391V17.52a6.746,6.746,0,0,1,6.738-6.738h6.738v5.391H29.828a2.7,2.7,0,0,0-2.7,2.7v5.391h7.843l-.9,5.391H27.133V46H39.262A6.746,6.746,0,0,0,46,39.262V6.738A6.746,6.746,0,0,0,39.262,0H6.738A6.746,6.746,0,0,0,0,6.738V39.262A6.746,6.746,0,0,0,6.738,46ZM2.7,6.738A4.048,4.048,0,0,1,6.738,2.7H39.262A4.048,4.048,0,0,1,43.3,6.738V39.262A4.048,4.048,0,0,1,39.262,43.3H29.828V32.344H36.36l1.8-10.781H29.828v-2.7h8.086V8.086H28.48a9.444,9.444,0,0,0-9.434,9.434v4.043H13.656V32.344h5.391V43.3H6.738A4.048,4.048,0,0,1,2.7,39.262Zm0,0" fill="#91c6f3"/>
</svg>
