<svg xmlns="http://www.w3.org/2000/svg" width="90" height="90" viewBox="0 0 90 90">
  <g id="Grupo_56817" data-name="Grupo 56817" transform="translate(13363 -11231)">
    <g id="Grupo_55894" data-name="Grupo 55894" transform="translate(-13594 -13233)">
      <g id="Grupo_55890" data-name="Grupo 55890">
        <g id="Grupo_55870" data-name="Grupo 55870" transform="translate(52 20724)">
          <circle id="Elipse_1805" data-name="Elipse 1805" cx="45" cy="45" r="45" transform="translate(179 3740)" fill="#2a94ee"/>
        </g>
      </g>
    </g>
    <g id="_020-delivery_box" data-name="020-delivery box" transform="translate(-13350 11250)">
      <g id="Grupo_55839" data-name="Grupo 55839" transform="translate(0 0)">
        <path id="Trazado_27355" data-name="Trazado 27355" d="M241.993,360.862a.879.879,0,0,0,.879.879h9.093a.879.879,0,1,0,0-1.758h-9.093A.879.879,0,0,0,241.993,360.862Z" transform="translate(-213.634 -322.497)" fill="#fff"/>
        <path id="Trazado_27356" data-name="Trazado 27356" d="M405.125,92.877l-3.513,3.513L399.118,93.9a.879.879,0,1,0-1.243,1.243l3.116,3.116a.879.879,0,0,0,1.243,0l4.135-4.135a.879.879,0,0,0-1.243-1.243Z" transform="translate(-351.021 -86.465)" fill="#fff"/>
        <path id="Trazado_27357" data-name="Trazado 27357" d="M51.1,40.1a8.914,8.914,0,0,0-8.8,7.577H15.755A1.658,1.658,0,0,0,14.1,49.333V63.382l-2.815-2.816a1.544,1.544,0,0,0-2.181,0L5.46,64.209A.879.879,0,1,0,6.7,65.452l.581-.581L9.95,67.537c.038.038.079.082.121.128a2.026,2.026,0,0,0,1.37.809h9.4a.893.893,0,1,1,0,1.786h-2.7a.879.879,0,0,0-.622,1.5l8.948,8.948a.929.929,0,0,1,.066,1.266.887.887,0,0,1-.641.293.877.877,0,0,1-.652-.261h0l-7.015-7.015a.879.879,0,1,0-1.243,1.243l9.57,9.57a.929.929,0,0,1,.065,1.265.893.893,0,0,1-1.293.032l-1.67-1.67L15.716,77.5a.879.879,0,1,0-1.243,1.243l7.935,7.935.021.023a.891.891,0,0,1-.053,1.27A.929.929,0,0,1,21.11,87.9L13.21,80a.879.879,0,0,0-1.243,1.243l6.18,6.18h0a.893.893,0,0,1-.032,1.293.929.929,0,0,1-1.266-.066l-9.9-9.9a6.175,6.175,0,0,1-1.817-4.3,2.169,2.169,0,0,0-.645-1.508L1.846,70.308,3.8,68.352a.879.879,0,1,0-1.243-1.243L.451,69.218a1.544,1.544,0,0,0,0,2.181l2.792,2.792a.428.428,0,0,1,.13.29A7.924,7.924,0,0,0,5.7,79.994l9.9,9.9a2.721,2.721,0,0,0,1.926.8A2.613,2.613,0,0,0,19.3,90.02a2.656,2.656,0,0,0,.615-.828,2.654,2.654,0,0,0,4.261-.754,2.662,2.662,0,0,0,1.84.683,2.629,2.629,0,0,0,1.9-.868,2.6,2.6,0,0,0,.619-1.208H51.812a1.658,1.658,0,0,0,1.656-1.656V79.344a.879.879,0,0,0-1.758,0v5.944h-23.4a2.749,2.749,0,0,0-.519-.726L27,83.774a2.655,2.655,0,0,0,.7-4.307L20.26,72.019h.581a2.651,2.651,0,1,0,0-5.3H15.857V49.435H27.942v6.645A1.658,1.658,0,0,0,29.6,57.735h8.371a1.658,1.658,0,0,0,1.656-1.656v-1.11a.879.879,0,0,0-1.758,0v1.009H29.7V49.435h8.167v1.433a.879.879,0,0,0,1.758,0V49.435h2.586A8.911,8.911,0,0,0,51.1,57.9c.205,0,.409-.009.611-.023V75.242a.879.879,0,1,0,1.758,0V57.577A8.9,8.9,0,0,0,51.1,40.1Zm-37,26.618H11.6c-.071-.061-.173-.172-.24-.244s-.116-.126-.17-.179L8.527,63.628l1.666-1.666,2.667,2.667c.038.038.079.082.121.129a2.291,2.291,0,0,0,1.118.776Zm37-10.575A7.142,7.142,0,1,1,58.242,49,7.15,7.15,0,0,1,51.1,56.142Z" transform="translate(0 -40.1)" fill="#fff"/>
      </g>
    </g>
  </g>
</svg>
