<svg xmlns="http://www.w3.org/2000/svg" width="200" height="120" viewBox="0 0 200 120">
  <g id="Grupo_56810" data-name="Grupo 56810" transform="translate(-179 -13577)">
    <rect id="Rectángulo_5556" data-name="Rectángulo 5556" width="200" height="120" rx="5" transform="translate(179 13577)" fill="#e1eafe"/>
    <g id="_015-supplier" data-name="015-supplier" transform="translate(246 13599)">
      <g id="Grupo_55835" data-name="Grupo 55835" transform="translate(0 0)">
        <path id="Trazado_27315" data-name="Trazado 27315" d="M154.472,177.235v-2.066a1.113,1.113,0,0,0-2.227,0v2.066a1.113,1.113,0,0,0,2.227,0Z" transform="translate(-134.705 -148.219)" fill="#20287a"/>
        <path id="Trazado_27316" data-name="Trazado 27316" d="M223.613,178.348a1.113,1.113,0,0,0,1.113-1.113v-2.066a1.113,1.113,0,0,0-2.227,0v2.066A1.113,1.113,0,0,0,223.613,178.348Z" transform="translate(-194.531 -148.219)" fill="#20287a"/>
        <path id="Trazado_27317" data-name="Trazado 27317" d="M170.985,239.411a1.113,1.113,0,1,0-1.574-1.574,4.352,4.352,0,0,1-6.148,0,1.113,1.113,0,0,0-1.574,1.574,6.581,6.581,0,0,0,9.3,0Z" transform="translate(-142.469 -202.255)" fill="#20287a"/>
        <path id="Trazado_27318" data-name="Trazado 27318" d="M184.771,195.621h1.655a1.113,1.113,0,0,0,0-2.227h-.542v-1.828a1.113,1.113,0,1,0-2.227,0v2.941A1.113,1.113,0,0,0,184.771,195.621Z" transform="translate(-161.455 -162.183)" fill="#20287a"/>
        <path id="Trazado_27319" data-name="Trazado 27319" d="M98.849,54.105a1.113,1.113,0,0,0,1.113-1.113V44.139a1.857,1.857,0,0,0-1.855-1.855H93.071v-.128A1.857,1.857,0,0,0,91.216,40.3H90.26a4.414,4.414,0,0,0-8.813,0H80.49a1.857,1.857,0,0,0-1.855,1.855v.128H73.6a1.857,1.857,0,0,0-1.855,1.855v1.605H67.935l-3.031-3a9.7,9.7,0,0,0,5.589-6.018h.721a5.1,5.1,0,0,0,5.094-5.094V30.152a5.083,5.083,0,0,0-1.688-3.785v-3a3.135,3.135,0,0,0,0-6.229A15.568,15.568,0,0,0,62.744,2.306,3.778,3.778,0,0,0,59.263,0H56.631A3.779,3.779,0,0,0,53.15,2.307,15.568,15.568,0,0,0,41.278,17.142a3.135,3.135,0,0,0,0,6.229v3a5.082,5.082,0,0,0-1.688,3.785v1.483a5.1,5.1,0,0,0,5.094,5.094H45.4a9.7,9.7,0,0,0,5.589,6.018l-3.031,3h-8.5a5.388,5.388,0,0,0-5.382,5.382V74.145A1.857,1.857,0,0,0,35.935,76H63.606a1.113,1.113,0,0,0,0-2.227H59.06V52.4l.064-.065,7.062,4.569A1.559,1.559,0,0,0,68.59,55.6V47.971h3.153v25.8H68.8A1.113,1.113,0,1,0,68.8,76h29.3a1.857,1.857,0,0,0,1.855-1.855V58.187a1.113,1.113,0,0,0-2.227,0V73.773H73.97V44.51h1.664V70.55a1.56,1.56,0,0,0,1.559,1.559H94.512a1.56,1.56,0,0,0,1.559-1.559V44.51h1.664v8.482a1.113,1.113,0,0,0,1.113,1.113ZM74.081,31.635A2.871,2.871,0,0,1,71.213,34.5h-.292c.017-.234.029-.469.029-.707V27.285h.263a2.871,2.871,0,0,1,2.868,2.868v1.483Zm-3.131-6.577V23.394h1.443v1.8a5.09,5.09,0,0,0-1.179-.139h-.264ZM55.463,2.756a1.533,1.533,0,0,1,1.168-.529h2.633A1.553,1.553,0,0,1,60.8,3.983l-1.139,8.624H56.229L55.091,3.983a1.533,1.533,0,0,1,.372-1.227ZM44.681,34.5a2.871,2.871,0,0,1-2.868-2.868V30.152a2.871,2.871,0,0,1,2.868-2.868h.263V33.8c0,.238.012.473.029.707ZM43.5,25.2v-1.8h1.443v1.664h-.263A5.074,5.074,0,0,0,43.5,25.2Zm-1.866-4.03a.91.91,0,1,1,0-1.82H49.95a1.113,1.113,0,0,0,0-2.227H43.508A13.337,13.337,0,0,1,52.936,4.672l1.214,9.194a1.113,1.113,0,0,0,1.1.968H60.64a1.113,1.113,0,0,0,1.1-.968l1.214-9.194A13.337,13.337,0,0,1,72.386,17.12H55.145a1.113,1.113,0,0,0,0,2.227H74.258a.91.91,0,1,1,0,1.82ZM47.171,33.8v-10.4H68.723V33.8A7.433,7.433,0,0,1,61.3,41.221H54.6A7.433,7.433,0,0,1,47.171,33.8ZM49.53,47.323l2.3-2.275v1.173a2.653,2.653,0,0,0,.766,1.872l2.58,2.624L49.53,54.37Zm7.3,26.451H36.306V51.127a3.159,3.159,0,0,1,3.156-3.156H47.3V55.6a1.558,1.558,0,0,0,2.405,1.309l7.062-4.569.064.065Zm1.113-23.414-3.763-3.827a.44.44,0,0,1-.127-.311V43.431c.179.01.358.017.539.017h6.7c.181,0,.36-.007.539-.017v2.791a.441.441,0,0,1-.127.311h0Zm8.417,4.011-5.647-3.653,2.58-2.624a2.654,2.654,0,0,0,.766-1.872V45.049l2.3,2.274Zm19.489-16a2.191,2.191,0,0,1,2.172,1.93H83.681A2.19,2.19,0,0,1,85.853,38.371Zm-4.992,4.156h9.984V45.3H80.861ZM93.844,69.882H77.861V44.51h.773v1.164A1.857,1.857,0,0,0,80.49,47.53H91.216a1.857,1.857,0,0,0,1.855-1.855V44.51h.773Z" transform="translate(-34.079 0)" fill="#20287a"/>
        <path id="Trazado_27320" data-name="Trazado 27320" d="M339.365,340.3l-1.044,1.044-.593-.592a1.113,1.113,0,1,0-1.574,1.574l1.38,1.38a1.113,1.113,0,0,0,1.574,0l1.831-1.831a1.113,1.113,0,0,0-1.575-1.574Z" transform="translate(-291.038 -289.505)" fill="#20287a"/>
        <path id="Trazado_27321" data-name="Trazado 27321" d="M382.544,348.11h-5.759a1.113,1.113,0,0,0,0,2.227h5.759a1.113,1.113,0,1,0,0-2.227Z" transform="translate(-324.967 -296.437)" fill="#20287a"/>
        <path id="Trazado_27322" data-name="Trazado 27322" d="M382.544,376.42h-5.759a1.113,1.113,0,0,0,0,2.227h5.759a1.113,1.113,0,1,0,0-2.227Z" transform="translate(-324.967 -320.545)" fill="#20287a"/>
        <path id="Trazado_27323" data-name="Trazado 27323" d="M339.431,376.42h-2.49a1.113,1.113,0,0,0,0,2.227h2.49a1.113,1.113,0,0,0,0-2.227Z" transform="translate(-291.037 -320.545)" fill="#20287a"/>
        <path id="Trazado_27324" data-name="Trazado 27324" d="M339.431,404.73h-2.49a1.113,1.113,0,0,0,0,2.227h2.49a1.113,1.113,0,0,0,0-2.227Z" transform="translate(-291.037 -344.653)" fill="#20287a"/>
        <path id="Trazado_27325" data-name="Trazado 27325" d="M339.431,433.04h-2.49a1.113,1.113,0,1,0,0,2.227h2.49a1.113,1.113,0,1,0,0-2.227Z" transform="translate(-291.037 -368.761)" fill="#20287a"/>
        <path id="Trazado_27326" data-name="Trazado 27326" d="M382.544,404.73h-5.759a1.113,1.113,0,0,0,0,2.227h5.759a1.113,1.113,0,1,0,0-2.227Z" transform="translate(-324.967 -344.653)" fill="#20287a"/>
        <path id="Trazado_27327" data-name="Trazado 27327" d="M382.544,433.04h-5.759a1.113,1.113,0,1,0,0,2.227h5.759a1.113,1.113,0,1,0,0-2.227Z" transform="translate(-324.967 -368.761)" fill="#20287a"/>
      </g>
    </g>
  </g>
</svg>
