<svg xmlns="http://www.w3.org/2000/svg" width="80" height="80" viewBox="0 0 80 80">
  <g id="Grupo_55885" data-name="Grupo 55885" transform="translate(-869 -5179)">
    <circle id="Base" cx="40" cy="40" r="40" transform="translate(869 5179)" fill="#fff"/>
    <g id="outline" transform="translate(885 5193)">
      <path id="Trazado_27598" data-name="Trazado 27598" d="M40.88,40.792h.88v4.4a.88.88,0,0,0-.88.88v4.4a.88.88,0,0,0,.88.88V68.067a.88.88,0,0,0,.88.88H84.873a.88.88,0,0,0,.88-.88V40.792h.88a.88.88,0,0,0,.88-.88V29.353a.88.88,0,0,0-.88-.88H69.774V26.087l.424.392a.88.88,0,0,0,1.227-.03l2.64-2.7a.88.88,0,0,0,.131-1.059l-1.333-2.285a7.913,7.913,0,0,0-4.53-3.583l-2.071-.631c-.083-.025-4.925-.025-5.008,0l-2.072.631a7.912,7.912,0,0,0-4.53,3.583l-1.333,2.286a.88.88,0,0,0,.131,1.059l2.64,2.7a.88.88,0,0,0,.624.265h0a.88.88,0,0,0,.622-.258L57.6,26.2v2.275H40.88a.88.88,0,0,0-.88.88V39.912A.88.88,0,0,0,40.88,40.792Zm14.958,0v2.64a2.64,2.64,0,1,1-5.279,0v-2.64Zm7.039,0v2.64a2.64,2.64,0,0,1-5.279,0v-2.64Zm7.039,0v2.64a2.64,2.64,0,1,1-5.279,0v-2.64Zm7.039,0v2.64a2.64,2.64,0,1,1-5.279,0v-2.64ZM42.64,49.59v-2.64h.883a4.393,4.393,0,0,0,6.156-.883,4.393,4.393,0,0,0,6.156.883h0v2.64ZM48.8,43.431a2.64,2.64,0,0,1-5.279,0v-2.64H48.8ZM43.519,51.35H55.838V67.188h-1.76V53.99a.88.88,0,0,0-.88-.88H46.159a.88.88,0,0,0-.88.88v13.2h-1.76Zm3.519,10.558H48.8v1.76h-1.76Zm5.279-1.76H47.039V54.869h5.279Zm-1.76,1.76h1.76v1.76h-1.76Zm-3.519,3.519H48.8v1.76h-1.76Zm3.519,1.76v-1.76h1.76v1.76Zm7.039,0V46.948a4.393,4.393,0,0,0,6.159-.881,4.395,4.395,0,0,0,7.039,0,4.395,4.395,0,0,0,7.039,0,4.393,4.393,0,0,0,6.159.881V67.188Zm26.4-23.756a2.64,2.64,0,1,1-5.279,0v-2.64h5.279Zm-25.516-8.8H68.894a.88.88,0,0,0,.88-.88h12.46v1.76H45.279v-1.76H57.6A.88.88,0,0,0,58.477,34.632Zm4.4-16.717h1.76v.88a.88.88,0,1,1-1.76,0Zm-6.152,6.668L55.176,23l1-1.707a6.153,6.153,0,0,1,3.523-2.786l1.423-.433v.721a2.64,2.64,0,1,0,5.279,0v-.721l1.423.433a6.152,6.152,0,0,1,3.523,2.786l1,1.707-1.572,1.607-1.273-1.179a.88.88,0,0,0-1.478.646v8.8H59.357v-8.8a.88.88,0,0,0-1.5-.622ZM41.76,30.233H57.6v1.76H44.4a.88.88,0,0,0-.88.88v3.519a.88.88,0,0,0,.88.88H83.113a.88.88,0,0,0,.88-.88V32.873a.88.88,0,0,0-.88-.88H69.774v-1.76H85.753v8.8H41.76Z" transform="translate(-40 -16.174)" fill="#2a94ee"/>
      <path id="Trazado_27599" data-name="Trazado 27599" d="M238,320H216.88a.88.88,0,0,0-.88.88v14.078a.88.88,0,0,0,.88.88H238a.88.88,0,0,0,.88-.88V320.88A.88.88,0,0,0,238,320Zm-.88,6.318-.037.026-9.943,7.733h-2.413l12.393-9.639Zm0-4.109-15.26,11.869h-2.371l16.168-12.318h1.463Zm-19.357,8.777L229.5,321.76h3.248L217.76,333.181Zm8.894-9.226-8.894,6.988V321.76ZM230,334.078l7.114-5.533v5.533Z" transform="translate(-196.643 -286.584)" fill="#2a94ee"/>
    </g>
  </g>
</svg>
