<svg xmlns="http://www.w3.org/2000/svg" width="90" height="90" viewBox="0 0 90 90">
  <g id="Grupo_56821" data-name="Grupo 56821" transform="translate(-231 -18995)">
    <g id="Grupo_55891" data-name="Grupo 55891" transform="translate(0 -5469)">
      <g id="Grupo_55890" data-name="Grupo 55890">
        <g id="Grupo_55870" data-name="Grupo 55870" transform="translate(52 20724)">
          <circle id="Elipse_1805" data-name="Elipse 1805" cx="45" cy="45" r="45" transform="translate(179 3740)" fill="#2a94ee"/>
        </g>
      </g>
    </g>
    <g id="Grupo_55888" data-name="Grupo 55888" transform="translate(-3997.238 21086.496)">
      <path id="Trazado_27314" data-name="Trazado 27314" d="M4320.764-2059.208a1.108,1.108,0,0,0-.053-.137,1.442,1.442,0,0,0-1.305-.836h-4.479v-.805a1.51,1.51,0,0,0-1.509-1.51h-3.042a1.078,1.078,0,0,0-1.078,1.078,1.078,1.078,0,0,0,1.078,1.078h2.4v2.378h-14.279v-2.378h6.852a1.079,1.079,0,0,0,1.078-1.078,1.078,1.078,0,0,0-1.078-1.078h-7.5a1.51,1.51,0,0,0-1.51,1.51v.805h-4.479a1.443,1.443,0,0,0-1.306.836.97.97,0,0,0-.053.137l-2.477,8.124a1.5,1.5,0,0,0,.662,1.729v.521a3.906,3.906,0,0,0,1.389,2.983v13.328a1.8,1.8,0,0,0,1.8,1.8h27.52a1.8,1.8,0,0,0,1.8-1.8h0v-13.327a3.9,3.9,0,0,0,1.389-2.983v-.521a1.5,1.5,0,0,0,.663-1.728Zm-1.731,26.324h-7.309v-2.084a1.078,1.078,0,0,0-1.078-1.078,1.078,1.078,0,0,0-1.078,1.078v2.084h-7.87v-8.453h7.872V-2040a1.078,1.078,0,0,0,1.078,1.078,1.077,1.077,0,0,0,1.077-1.078v-1.984a1.51,1.51,0,0,0-1.509-1.51h-9.166a1.511,1.511,0,0,0-1.51,1.51v9.1h-7.308v-12.088c.06,0,.12.007.18.008a3.766,3.766,0,0,0,2.7-1.058,3.8,3.8,0,0,0,5.259,0,3.8,3.8,0,0,0,5.259,0,3.8,3.8,0,0,0,5.259,0,3.8,3.8,0,0,0,5.259,0,3.773,3.773,0,0,0,2.629,1.059h.074a1.338,1.338,0,0,0,.18-.008Zm1.389-15.95a1.688,1.688,0,0,1-1.609,1.714h-.031a1.632,1.632,0,0,1-1.368-.739,1.508,1.508,0,0,0-1.26-.682h0a1.509,1.509,0,0,0-1.261.682,1.637,1.637,0,0,1-2.266.47,1.629,1.629,0,0,1-.47-.47,1.508,1.508,0,0,0-2.087-.435,1.493,1.493,0,0,0-.436.435,1.637,1.637,0,0,1-2.267.47,1.641,1.641,0,0,1-.47-.47,1.508,1.508,0,0,0-2.087-.435,1.5,1.5,0,0,0-.435.435,1.637,1.637,0,0,1-2.266.47,1.643,1.643,0,0,1-.471-.47,1.507,1.507,0,0,0-2.086-.435,1.48,1.48,0,0,0-.435.435,1.637,1.637,0,0,1-2.267.47,1.651,1.651,0,0,1-.471-.47,1.508,1.508,0,0,0-1.261-.682h0a1.506,1.506,0,0,0-1.26.682,1.634,1.634,0,0,1-1.37.739h-.031a1.688,1.688,0,0,1-1.609-1.714v-.3h29.58v.3Zm-30.081-2.456,2.052-6.734h3.943v.709a1.51,1.51,0,0,0,1.51,1.51h15.572a1.511,1.511,0,0,0,1.51-1.51v-.709h3.943l2.051,6.734Z" transform="translate(-32.334)" fill="#fff"/>
      <path id="Trazado_27638" data-name="Trazado 27638" d="M4401.375-2028.446a5.576,5.576,0,0,0-1.45-7.751,5.674,5.674,0,0,0-4.1-.9,5.388,5.388,0,0,0-1.989.753,5.572,5.572,0,0,0-1.825,7.665c.047.078.1.154.149.229a6.505,6.505,0,0,0-4.052,6.018v1.04a1.66,1.66,0,0,0,1.658,1.658h7.169a1.064,1.064,0,0,0,1.063-1.064,1.063,1.063,0,0,0-1.063-1.063h-6.7v-.57a4.377,4.377,0,0,1,3.754-4.328,5.56,5.56,0,0,0,5.548,0,4.377,4.377,0,0,1,3.755,4.328v.57H4401.9a1.063,1.063,0,0,0-1.063,1.063,1.063,1.063,0,0,0,1.063,1.064h1.866a1.659,1.659,0,0,0,1.658-1.658v-1.04A6.507,6.507,0,0,0,4401.375-2028.446Zm-4.605.305a3.449,3.449,0,0,1-3.449-3.45,3.45,3.45,0,0,1,3.449-3.45,3.45,3.45,0,0,1,3.45,3.45A3.456,3.456,0,0,1,4396.769-2028.14Z" transform="translate(-96.188 -16.143)" fill="#fff"/>
      <path id="Trazado_27639" data-name="Trazado 27639" d="M4237.239-2022.426v1.04a1.661,1.661,0,0,0,1.659,1.658h1.866a1.064,1.064,0,0,0,1.064-1.064,1.064,1.064,0,0,0-1.064-1.063h-1.392v-.57a4.378,4.378,0,0,1,3.755-4.328,5.559,5.559,0,0,0,5.547,0,4.379,4.379,0,0,1,3.756,4.328v.57h-6.7a1.064,1.064,0,0,0-1.063,1.063,1.064,1.064,0,0,0,1.063,1.064h7.169a1.659,1.659,0,0,0,1.657-1.658v-1.04a6.5,6.5,0,0,0-4.051-6.018c.052-.075.1-.151.149-.229a5.57,5.57,0,0,0-1.825-7.665,5.393,5.393,0,0,0-1.989-.753,5.674,5.674,0,0,0-4.1.9,5.576,5.576,0,0,0-1.449,7.751A6.507,6.507,0,0,0,4237.239-2022.426Zm5.208-9.164a3.45,3.45,0,0,1,3.449-3.45,3.45,3.45,0,0,1,3.451,3.45,3.45,3.45,0,0,1-3.451,3.45A3.456,3.456,0,0,1,4242.447-2031.59Z" transform="translate(0 -16.143)" fill="#fff"/>
      <rect id="Rect치ngulo_5639" data-name="Rect치ngulo 5639" width="6.104" height="2.159" transform="translate(4252.747 -2041.975)" fill="#fff"/>
      <rect id="Rect치ngulo_5640" data-name="Rect치ngulo 5640" width="6.104" height="2.159" transform="translate(4287.64 -2041.975)" fill="#fff"/>
    </g>
  </g>
</svg>
