<svg xmlns="http://www.w3.org/2000/svg" width="200" height="200" viewBox="0 0 200 200">
  <g id="_043-tablet" data-name="043-tablet" transform="translate(0 0.001)">
    <path id="Trazado_21177" data-name="Trazado 21177" d="M175.01,180.2v.766a3.235,3.235,0,0,1-1.468,2.7A100.029,100.029,0,0,1,31.091,148.126a2.426,2.426,0,0,1,2.122-3.6h20.7V24.462a1.253,1.253,0,0,1,.446-.961A99.6,99.6,0,0,1,119.763,0c54.025.529,98.181,44.449,98.986,98.472A99.58,99.58,0,0,1,198.387,160.5a9.093,9.093,0,0,1-7.237,3.566A16.138,16.138,0,0,0,175.01,180.2Zm0,0" transform="translate(-18.761)" fill="#d64626"/>
    <path id="Trazado_21178" data-name="Trazado 21178" d="M179.884,196.718a100.564,100.564,0,0,1-24.994,23.437H68.958a5.867,5.867,0,0,1-3.25-.984l-14.273-9.515a1.464,1.464,0,0,1,0-2.438L65.707,197.7a5.855,5.855,0,0,1,3.25-.984Zm-4.1-19.531V71.316A100.575,100.575,0,0,0,164.322,60H35.678A100.023,100.023,0,0,0,12.5,185H167.968a7.812,7.812,0,0,0,7.812-7.812Zm0,0" transform="translate(0 -36.563)" fill="#88b9d3"/>
    <path id="Trazado_21179" data-name="Trazado 21179" d="M179.883,196.718a100.538,100.538,0,0,1-15.562,16.406H87.66a1.724,1.724,0,0,1-1.723-1.723v-6.943a3.011,3.011,0,0,0-2.574-3.032,2.93,2.93,0,0,0-3.285,2.908V211.4a1.724,1.724,0,0,1-1.723,1.723H75.941a1.724,1.724,0,0,1-1.723-1.723V196.718Zm-125.006,8.2,10.829,7.219.024.017a1.717,1.717,0,0,0,2.628-1.468V196.752a5.851,5.851,0,0,0-2.652.951Zm66.215-31.641H6.957A100.1,100.1,0,0,1,35.677,60h132.29a7.812,7.812,0,0,1,7.812,7.812v97.656a7.812,7.812,0,0,1-7.812,7.812Zm40.625-42.969a3.906,3.906,0,1,0,7.812,0V114.687a3.906,3.906,0,1,0-7.812,0Zm0,0" transform="translate(0 -36.563)" fill="#b3d1e1"/>
    <path id="Trazado_21180" data-name="Trazado 21180" d="M156.249,93.906v93.75a3.906,3.906,0,0,1-3.906,3.906H6.957A100.113,100.113,0,0,1,23.878,90H152.343a3.906,3.906,0,0,1,3.906,3.906Zm0,0" transform="translate(0 -54.845)" fill="#fdf7bd"/>
    <path id="Trazado_21181" data-name="Trazado 21181" d="M20.108,191.562H6.958A100.113,100.113,0,0,1,23.878,90h3.465c-14.97,17.523-14.226,40.243-14.192,64.978a99.736,99.736,0,0,0,6.956,36.584Zm0,0" transform="translate(0 -54.845)" fill="#fcf498"/>
    <path id="Trazado_21182" data-name="Trazado 21182" d="M31.25,163.2v2.734a1.563,1.563,0,0,1-1.562,1.562H.069C.027,166.332,0,165.161,0,163.984c0-.784.012-1.564.029-2.344H29.687A1.562,1.562,0,0,1,31.25,163.2Zm19.531-54.3A3.906,3.906,0,0,0,46.875,105H19.249q-2.765,3.777-5.174,7.812h32.8A3.906,3.906,0,0,0,50.781,108.906Zm27.734,75.2H58.2a1.562,1.562,0,0,0-1.562,1.562V188.4a1.563,1.563,0,0,0,1.562,1.563H78.515a1.563,1.563,0,0,0,1.562-1.562v-2.734A1.562,1.562,0,0,0,78.515,184.1ZM29.687,173.359H.441c.183,1.97.417,3.925.713,5.859H29.687a1.563,1.563,0,0,0,1.562-1.562v-2.734a1.562,1.562,0,0,0-1.562-1.562Zm103.125-60.547a3.906,3.906,0,1,0-3.906-3.906A3.906,3.906,0,0,0,132.812,112.812ZM25.781,184.1H2.025c.4,1.976.871,3.928,1.39,5.859H25.781a1.563,1.563,0,0,0,1.562-1.562v-2.734a1.562,1.562,0,0,0-1.562-1.562Zm109.375,0H114.843a1.562,1.562,0,0,0-1.562,1.562V188.4a1.563,1.563,0,0,0,1.562,1.563h20.312a1.563,1.563,0,0,0,1.562-1.562v-2.734A1.562,1.562,0,0,0,135.156,184.1Zm7.812-22.461H107.031a1.562,1.562,0,0,0-1.562,1.563v2.734a1.563,1.563,0,0,0,1.562,1.562h35.937a1.563,1.563,0,0,0,1.563-1.562V163.2A1.562,1.562,0,0,0,142.968,161.64Zm-56.64,11.23H50.39a1.562,1.562,0,0,0-1.562,1.563v2.734a1.563,1.563,0,0,0,1.562,1.563H86.328a1.563,1.563,0,0,0,1.562-1.562v-2.734A1.562,1.562,0,0,0,86.328,172.871ZM144.531,105a3.906,3.906,0,1,0,3.906,3.906A3.906,3.906,0,0,0,144.531,105Zm-58.2,56.64H50.39a1.562,1.562,0,0,0-1.562,1.563v2.734A1.563,1.563,0,0,0,50.39,167.5H86.328a1.563,1.563,0,0,0,1.562-1.562V163.2A1.562,1.562,0,0,0,86.328,161.64Zm56.64,11.23H107.031a1.562,1.562,0,0,0-1.562,1.563v2.734a1.563,1.563,0,0,0,1.562,1.563h35.937a1.563,1.563,0,0,0,1.563-1.562v-2.734A1.562,1.562,0,0,0,142.968,172.871Zm0,0" transform="translate(0 -63.985)" fill="#fdcb6b"/>
    <path id="Trazado_21183" data-name="Trazado 21183" d="M127.045,152.5a14.648,14.648,0,1,0,14.648,14.648A14.664,14.664,0,0,0,127.045,152.5Zm0,23.437a8.789,8.789,0,1,1,8.789-8.789A8.8,8.8,0,0,1,127.045,175.937Zm-17.708-8.594a2.93,2.93,0,1,1-2.93-2.93A2.93,2.93,0,0,1,109.337,167.344Zm-78.581-.2a2.93,2.93,0,0,1-2.93,2.93H20.11A14.624,14.624,0,0,1,1.754,181.232q.346-2.966.856-5.879a8.788,8.788,0,1,0,4.555-16.879q1.028-2.8,2.22-5.513a14.689,14.689,0,0,1,10.724,11.258h7.718a2.93,2.93,0,0,1,2.93,2.93Zm58.789-2.93H80.754a14.648,14.648,0,1,0,0,5.859h8.791a2.93,2.93,0,0,0,0-5.859ZM66.4,175.937a8.789,8.789,0,1,1,8.789-8.789A8.8,8.8,0,0,1,66.4,175.937Zm-27.441-8.594a2.93,2.93,0,1,1-2.93-2.93A2.93,2.93,0,0,1,38.959,167.344Zm61.719,0a2.93,2.93,0,1,1-2.93-2.93A2.93,2.93,0,0,1,100.678,167.344Zm-53.059,0a2.93,2.93,0,1,1-2.93-2.93A2.93,2.93,0,0,1,47.619,167.344Zm0,0" transform="translate(-1.069 -92.931)" fill="#97181a"/>
    <path id="Trazado_21184" data-name="Trazado 21184" d="M310,182.383a4.883,4.883,0,1,1,4.883,4.883A4.887,4.887,0,0,1,310,182.383Zm0,0" transform="translate(-188.907 -108.165)" fill="#fc6930"/>
  </g>
</svg>
