<svg xmlns="http://www.w3.org/2000/svg" width="130" height="130" viewBox="0 0 130 130">
  <g id="Grupo_23266" data-name="Grupo 23266" transform="translate(-454 -8106)">
    <circle id="Elipse_1364" data-name="Elipse 1364" cx="65" cy="65" r="65" transform="translate(454 8106)" fill="#fff"/>
    <g id="Grupo_23265" data-name="Grupo 23265" transform="translate(342.709 7417.581)">
      <g id="Grupo_22930" data-name="Grupo 22930" transform="translate(141.629 787.497)">
        <path id="Trazado_22787" data-name="Trazado 22787" d="M159.834,1039.6H146.654a.716.716,0,0,0-.716.713l-.045,8.571a.717.717,0,0,0,.716.72h13.179a.717.717,0,0,0,.716-.712l.046-8.571a.717.717,0,0,0-.716-.721Zm-.758,8.572H147.33l.037-7.139h11.748Z" transform="translate(-145.893 -1039.603)"/>
      </g>
      <g id="Grupo_22931" data-name="Grupo 22931" transform="translate(159.91 782.092)">
        <path id="Trazado_22788" data-name="Trazado 22788" d="M236.4,1016.968H223.218a.716.716,0,0,0-.716.714l-.045,13.976a.715.715,0,0,0,.716.719h13.179a.716.716,0,0,0,.716-.714l.046-13.976a.715.715,0,0,0-.716-.718Zm-.76,13.976H223.893l.039-12.543H235.68Z" transform="translate(-222.457 -1016.968)"/>
      </g>
      <g id="Grupo_22932" data-name="Grupo 22932" transform="translate(178.191 775.136)">
        <path id="Trazado_22789" data-name="Trazado 22789" d="M312.963,987.833H299.782a.717.717,0,0,0-.716.715l-.045,20.933a.718.718,0,0,0,.716.718h13.179a.717.717,0,0,0,.716-.715l.046-20.933a.718.718,0,0,0-.716-.718Zm-.761,20.933H300.455l.042-19.5h11.748Z" transform="translate(-299.021 -987.833)"/>
      </g>
      <g id="Grupo_22933" data-name="Grupo 22933" transform="translate(196.473 766.78)">
        <path id="Trazado_22790" data-name="Trazado 22790" d="M389.528,952.838H376.347a.716.716,0,0,0-.716.715l-.045,29.289a.717.717,0,0,0,.716.718h13.179a.716.716,0,0,0,.716-.715l.046-29.289a.716.716,0,0,0-.716-.718Zm-.761,29.289H377.02l.042-27.856H388.81Z" transform="translate(-375.586 -952.838)"/>
      </g>
      <g id="Grupo_22934" data-name="Grupo 22934" transform="translate(140.291 740.13)">
        <path id="Trazado_22791" data-name="Trazado 22791" d="M152.992,852.212l-1.406-.049v-1.407a5.123,5.123,0,1,0-5.211,0v1.4l-1.381.048a4.852,4.852,0,0,0-4.7,4.979v7.142c0,1.968,1.058,3.381,2.619,3.618V884.1a3.77,3.77,0,0,0,.972,2.544,3.242,3.242,0,0,0,5.1-.344,3.244,3.244,0,0,0,5.105.338,3.77,3.77,0,0,0,.965-2.538V867.95c1.561-.237,2.619-1.65,2.619-3.618V857.19A4.847,4.847,0,0,0,152.992,852.212Zm-7.7-5.859a3.693,3.693,0,1,1,5,3.448,3.616,3.616,0,0,1-2.63-.006A3.69,3.69,0,0,1,145.287,846.353Zm10.949,17.979a2.118,2.118,0,0,1-1.186,2.163V861.64a.716.716,0,0,0-1.433,0V884.1a2.337,2.337,0,0,1-.589,1.57,1.863,1.863,0,0,1-1.371.619,2.087,2.087,0,0,1-1.962-2.19V866.509a.716.716,0,0,0-1.433,0V884.1a2.086,2.086,0,0,1-1.96,2.19,1.853,1.853,0,0,1-1.364-.613,2.338,2.338,0,0,1-.6-1.577V861.64a.716.716,0,0,0-1.433,0v4.855a2.118,2.118,0,0,1-1.186-2.163V857.19a3.425,3.425,0,0,1,3.295-3.547l2.008-.07c.012,0,.021-.007.033-.008s.021.006.032.006a.716.716,0,0,0,.716-.716v-1.531a4.591,4.591,0,0,0,2.346,0v1.53a.716.716,0,0,0,.716.716c.011,0,.021-.006.032-.006s.021.007.033.008l2.033.071a3.42,3.42,0,0,1,3.27,3.546Z" transform="translate(-140.291 -841.228)"/>
      </g>
      <g id="Grupo_22935" data-name="Grupo 22935" transform="translate(158.572 734.178)">
        <path id="Trazado_22792" data-name="Trazado 22792" d="M229.556,827.283l-1.406-.049v-1.407a5.123,5.123,0,1,0-5.211,0v1.4l-1.381.048a4.852,4.852,0,0,0-4.7,4.978V839.4c0,1.968,1.058,3.381,2.619,3.618v16.147a3.771,3.771,0,0,0,.972,2.544,3.242,3.242,0,0,0,5.1-.345,3.244,3.244,0,0,0,5.1.338,3.77,3.77,0,0,0,.965-2.538V843.022c1.561-.237,2.619-1.65,2.619-3.618v-7.143A4.847,4.847,0,0,0,229.556,827.283Zm-7.7-5.859a3.693,3.693,0,1,1,5,3.448,3.615,3.615,0,0,1-2.63-.006A3.69,3.69,0,0,1,221.851,821.424ZM232.8,839.4a2.118,2.118,0,0,1-1.186,2.163v-4.855a.716.716,0,1,0-1.433,0v22.458a2.338,2.338,0,0,1-.589,1.571,1.864,1.864,0,0,1-1.371.619,2.087,2.087,0,0,1-1.962-2.19V841.58a.716.716,0,1,0-1.433,0v17.589a2.086,2.086,0,0,1-1.96,2.19,1.854,1.854,0,0,1-1.364-.613,2.338,2.338,0,0,1-.6-1.577V836.711a.716.716,0,1,0-1.433,0v4.855a2.118,2.118,0,0,1-1.186-2.163v-7.143a3.425,3.425,0,0,1,3.295-3.547l2.008-.07c.012,0,.021-.007.032-.008s.021.006.032.006a.716.716,0,0,0,.716-.716V826.4a4.593,4.593,0,0,0,2.346,0v1.53a.716.716,0,0,0,.716.716c.011,0,.021-.006.032-.006s.021.007.033.008l2.033.071a3.42,3.42,0,0,1,3.27,3.546Z" transform="translate(-216.855 -816.299)"/>
      </g>
      <g id="Grupo_22936" data-name="Grupo 22936" transform="translate(176.854 727.262)">
        <path id="Trazado_22793" data-name="Trazado 22793" d="M306.121,798.318l-1.406-.049v-1.407a5.123,5.123,0,1,0-5.212,0v1.4l-1.381.048a4.852,4.852,0,0,0-4.7,4.978v7.142c0,1.968,1.058,3.381,2.619,3.618V830.2a3.77,3.77,0,0,0,.972,2.544,3.243,3.243,0,0,0,5.1-.345,3.243,3.243,0,0,0,5.1.338,3.771,3.771,0,0,0,.965-2.538V814.056c1.561-.237,2.619-1.65,2.619-3.618V803.3A4.846,4.846,0,0,0,306.121,798.318Zm-7.7-5.859a3.693,3.693,0,1,1,5,3.448,3.616,3.616,0,0,1-2.63-.005A3.69,3.69,0,0,1,298.416,792.459Zm10.949,17.979a2.119,2.119,0,0,1-1.186,2.163v-4.855a.716.716,0,0,0-1.433,0V830.2a2.338,2.338,0,0,1-.589,1.57,1.863,1.863,0,0,1-1.371.619,2.086,2.086,0,0,1-1.96-2.19V812.615a.716.716,0,1,0-1.433,0V830.2a2.088,2.088,0,0,1-1.962,2.19,1.853,1.853,0,0,1-1.364-.613,2.337,2.337,0,0,1-.6-1.577V807.745a.716.716,0,0,0-1.433,0V812.6a2.119,2.119,0,0,1-1.186-2.163V803.3a3.424,3.424,0,0,1,3.295-3.547l2.008-.07c.012,0,.021-.007.033-.008s.021.006.031.006a.716.716,0,0,0,.716-.716v-1.531a4.594,4.594,0,0,0,2.346,0v1.53a.716.716,0,0,0,.716.716c.011,0,.021-.006.032-.006s.021.007.033.008l2.033.071a3.42,3.42,0,0,1,3.27,3.546Z" transform="translate(-293.42 -787.334)"/>
      </g>
      <g id="Grupo_22937" data-name="Grupo 22937" transform="translate(195.136 718.893)">
        <path id="Trazado_22794" data-name="Trazado 22794" d="M382.685,763.268l-1.406-.049v-1.407a5.123,5.123,0,1,0-5.211,0v1.4l-1.381.048a4.852,4.852,0,0,0-4.7,4.978v7.143c0,1.968,1.058,3.381,2.619,3.618v16.147a3.78,3.78,0,0,0,.972,2.546,3.244,3.244,0,0,0,5.1-.346,3.243,3.243,0,0,0,5.1.339,3.777,3.777,0,0,0,.965-2.539V779.006c1.561-.237,2.619-1.65,2.619-3.618v-7.143A4.846,4.846,0,0,0,382.685,763.268Zm-7.7-5.859a3.693,3.693,0,1,1,5,3.448,3.616,3.616,0,0,1-2.63-.005A3.692,3.692,0,0,1,374.98,757.409Zm10.949,17.979a2.119,2.119,0,0,1-1.186,2.163V772.7a.716.716,0,0,0-1.433,0v22.458a2.337,2.337,0,0,1-.589,1.57,1.863,1.863,0,0,1-1.371.619,2.086,2.086,0,0,1-1.96-2.19V777.564a.716.716,0,0,0-1.433,0v17.589a2.087,2.087,0,0,1-1.962,2.19,1.856,1.856,0,0,1-1.364-.612,2.339,2.339,0,0,1-.6-1.577V772.7a.716.716,0,0,0-1.433,0v4.855a2.119,2.119,0,0,1-1.186-2.163v-7.143a3.424,3.424,0,0,1,3.295-3.546l2.008-.07c.012,0,.021-.007.033-.008s.021.006.032.006a.716.716,0,0,0,.716-.716V762.38a4.586,4.586,0,0,0,2.346,0v1.53a.716.716,0,0,0,.716.716c.011,0,.021-.006.032-.006s.021.007.033.008l2.033.071a3.42,3.42,0,0,1,3.27,3.545Z" transform="translate(-369.984 -752.283)"/>
      </g>
      <g id="Grupo_22938" data-name="Grupo 22938" transform="translate(148.263 708.419)">
        <path id="Trazado_22795" data-name="Trazado 22795" d="M174.394,736.381a.708.708,0,0,0,.3-.064l52.436-23.757-2,4.764,1.165.486,2.923-6.984-7.178-2.408-.4,1.2,4.9,1.641L174.1,735.012a.716.716,0,0,0,.3,1.369Z" transform="translate(-173.678 -708.419)"/>
      </g>
    </g>
  </g>
</svg>
