<svg xmlns="http://www.w3.org/2000/svg" width="110" height="110" viewBox="0 0 110 110">
  <g id="Grupo_22423" data-name="Grupo 22423" transform="translate(-204 -974)">
    <circle id="Elipse_1232" data-name="Elipse 1232" cx="55" cy="55" r="55" transform="translate(204 974)" fill="#fff"/>
    <g id="Grupo_22422" data-name="Grupo 22422" transform="translate(161.566 987.886)">
      <g id="Grupo_22420" data-name="Grupo 22420" transform="translate(69.465 1.212)">
        <path id="Trazado_20448" data-name="Trazado 20448" d="M174.255,45.445a16.59,16.59,0,0,1,1.007-6.549.853.853,0,0,0-.8-1.146h-8.368l-3.337-3.828h-9.148a16.76,16.76,0,0,1-1.716-6.941c0-3.374-1.167-3.55-3.727-3.845,0,0,1.994-5.94,5.159-8.762,3.374-3.008,5.11-2.655,5.11-4.5a2.4,2.4,0,0,0-2.7-2.377c-1.493,0-3.379,1.641-5.451,3.439-1.2,1.04-2.562,2.459-4.787,2.1a1.21,1.21,0,0,0-1.327.745c-.351.892-.939,2.057-1.617,2.057a3.533,3.533,0,0,1-1.838-.774,1.231,1.231,0,0,0-1.453.011c-1.076.8-2.735,2.707-2.358,6.8a14.6,14.6,0,0,0-4.556,3.04.739.739,0,0,0-.05,1.01l-3.415.394s.821,18.259,1.052,22.934L174.8,47.644A7.328,7.328,0,0,1,174.255,45.445Z" transform="translate(-121.68 -7.5)" fill="#fff5a2"/>
        <path id="Trazado_20449" data-name="Trazado 20449" d="M118.128,143.82s-1.263-1.636-1.191-2.608c.132-1.77,1.378-4.552.77-7.388a81.92,81.92,0,0,0-2.985-9.79l-1.146.132a4.289,4.289,0,0,1-1.582,5.623,30.2,30.2,0,0,1,2.482,7.266c.608,2.836-.638,5.618-.77,7.388a2.149,2.149,0,0,0,.191.91l3.345,1.615Z" transform="translate(-107.518 -105.208)" fill="#eec06b"/>
        <path id="Trazado_20450" data-name="Trazado 20450" d="M141.391,267.664l12.276-3.231.064-.079a16.081,16.081,0,0,0-2.454-2.339l1.878-1.388a1.31,1.31,0,0,0,.183-1.947A9.107,9.107,0,0,1,151.587,256H106.724l.06,1.208-5.583,9.15,7.909,6.359a30.655,30.655,0,0,1,9.012,3.889l22.62-1.615Z" transform="translate(-98.469 -215.856)" fill="#8db3ef"/>
        <path id="Trazado_20451" data-name="Trazado 20451" d="M105.176,272.984a13.814,13.814,0,0,0-9.258-1.883l-7.731-5.013L94.012,256H90.667a8.464,8.464,0,0,0,1,1.7l-3.217,5.571a3.837,3.837,0,0,0-2.923.883c-1.74,1.339-1.139,4.8-1.139,4.8l8.3,5.381a14.24,14.24,0,0,1,6.794.658l4.46,1.615,3.835-1.615a21.071,21.071,0,0,0-2.6-2.006Z" transform="translate(-84.287 -215.855)" fill="#3b68b0"/>
        <path id="Trazado_20452" data-name="Trazado 20452" d="M349.981,311.427h9.651l2.625-3.231h-11.99Z" transform="translate(-307.059 -259.619)" fill="#3b68b0"/>
        <path id="Trazado_20453" data-name="Trazado 20453" d="M231.875,375.09l.136-1.539H213.226c.227.154-3.382.315-3.161.489,7.219,5.69,7.171,12.468,10.941,11.041,6.334-2.4,10,.388,10,.388l-3.01,5.66,5.223-1.616,1.7-6.573c.706-2.724-.226-6.281-3.05-7.85Z" transform="translate(-189.737 -314.416)" fill="#e89999"/>
        <path id="Trazado_20454" data-name="Trazado 20454" d="M206.179,383.667a6.164,6.164,0,0,0-4.339-1.608,10.419,10.419,0,0,0-5.184,1.262,3.33,3.33,0,0,1-4.4-1.712,23.105,23.105,0,0,0-5.63-8.058h-8.3a11.842,11.842,0,0,1,2.464,1.225,22.09,22.09,0,0,1,8.23,10.063,3.33,3.33,0,0,0,4.4,1.712,10.42,10.42,0,0,1,5.184-1.262,6.165,6.165,0,0,1,4.339,1.608l-3.162,5.846h3.766l1.726,1.961,1.346-5.192h-3.608Z" transform="translate(-163.141 -314.416)" fill="#d16161"/>
      </g>
      <g id="Grupo_22421" data-name="Grupo 22421" transform="translate(66.61)">
        <path id="Trazado_20455" data-name="Trazado 20455" d="M109.329,80.751h-3.218a1.212,1.212,0,0,1-1.066-1.788l2.672-4.939a5.416,5.416,0,0,0-2.783-.727,10.937,10.937,0,0,0-4.694,1.158,4.542,4.542,0,0,1-6-2.334,1.212,1.212,0,1,1,2.219-.973,2.113,2.113,0,0,0,1.177,1.129,2.188,2.188,0,0,0,1.621-.038,14,14,0,0,1,5.674-1.365,7.4,7.4,0,0,1,5.224,1.992,1.212,1.212,0,0,1,.181,1.4l-2.195,4.058h1.733a1.211,1.211,0,0,1,.91.411l.217.247,2.477-9.554c.562-2.168-.111-5.179-2.466-6.487a1.212,1.212,0,0,1-.618-1.166l.02-.221H89.2a22.015,22.015,0,0,1,4.872,5.205,1.212,1.212,0,1,1-2.008,1.357,19.605,19.605,0,0,0-5.6-5.535,12.7,12.7,0,0,0-8.371-1.706,1.219,1.219,0,0,1-.883-.174L67.162,54.193a1.212,1.212,0,0,1,1.129-2.134,4.907,4.907,0,0,1,1.675-3.512,5.368,5.368,0,0,1,2.977-1.159l2.466-4.271a5.209,5.209,0,0,1-.963-2.761,10.271,10.271,0,0,1,.4-2.163,11.257,11.257,0,0,0,.394-4.881,29.407,29.407,0,0,0-2.366-6.948,1.213,1.213,0,0,1,.424-1.6,2.8,2.8,0,0,0,1.489-2.552,3.99,3.99,0,0,0-.342-1.494,1.212,1.212,0,0,1,2.158-1.1,5.446,5.446,0,0,1-1.138,6.546,33.675,33.675,0,0,1,2.144,6.641,13.351,13.351,0,0,1-.4,5.939c-.118.506-.231.991-.3,1.4h44.046a8.421,8.421,0,0,1-.123-.885,17.655,17.655,0,0,1,.91-6.586h-7.864a1.212,1.212,0,0,1-.913-.415l-2.975-3.412h-1.838a1.212,1.212,0,1,1,0-2.423h2.39a1.212,1.212,0,0,1,.913.415l2.975,3.412h7.817a2.064,2.064,0,0,1,1.938,2.772,16.575,16.575,0,0,0-.938,6.032,7.412,7.412,0,0,0,1.974,4.155,2.522,2.522,0,0,1-.349,3.747l-.649.479a9.838,9.838,0,0,1,3.577,7.859,1.212,1.212,0,1,1-2.423,0,7.726,7.726,0,0,0-.751-3.539l-1.648,2.028a1.212,1.212,0,0,1-.94.448H113.5l-.22,2.481h1.464a1.212,1.212,0,1,1,0,2.423h-1.679l-.188,2.122a8.358,8.358,0,0,1,2.951,8.783l-3.05,11.765a1.212,1.212,0,0,1-2.082.5ZM84.87,59.135h25.76l.551-6.222a1.212,1.212,0,0,1,1.207-1.1h9.074l1.676-2.063h0a19.723,19.723,0,0,0-1.626-1.43,1.212,1.212,0,0,1,.04-1.918l1.878-1.388a.1.1,0,0,0,.042-.073.088.088,0,0,0-.025-.073,10.576,10.576,0,0,1-1.637-2.293H77.954a1.212,1.212,0,0,1-.06,1.093l-3.217,5.571a1.149,1.149,0,0,1-1.288.583,2.746,2.746,0,0,0-1.946.655c-.737.567-.828,2.119-.746,3.129l7.444,4.827a15.623,15.623,0,0,1,6.729.711Zm18.435-30.289h-1.912a1.212,1.212,0,0,1-1.072-.646,17.9,17.9,0,0,1-1.856-7.507c0-1.169-.155-1.89-.461-2.141a5.366,5.366,0,0,0-2.193-.5,1.212,1.212,0,0,1-1.01-1.589c.086-.255,2.135-6.28,5.5-9.28a20.7,20.7,0,0,1,3.61-2.587c1.094-.643,1.094-.685,1.094-1.007,0-.963-.808-1.165-1.485-1.165-1.034,0-2.945,1.657-4.63,3.119l-.027.023q-.147.128-.3.262C97.355,6.9,95.695,8.366,93.091,7.947c-.282.691-1.119,2.816-2.751,2.816a4.486,4.486,0,0,1-2.549-1,.022.022,0,0,0-.022,0c-.839.62-2.2,2.188-1.872,5.718a1.211,1.211,0,0,1-.752,1.234,13.245,13.245,0,0,0-3.879,2.513,6.4,6.4,0,0,1,.315,4.371,1.212,1.212,0,0,1-2.359-.555,4.135,4.135,0,0,0-.063-2.619,1.95,1.95,0,0,1,.128-2.658,16.235,16.235,0,0,1,4.143-2.938c-.123-4.121,1.729-6.149,2.9-7.013A2.434,2.434,0,0,1,89.212,7.8c.415.3.775.553.956.515s.362-.5.661-1.26a2.409,2.409,0,0,1,2.647-1.5c1.473.237,2.45-.627,3.485-1.542.107-.094.212-.187.316-.277l.027-.023C99.6,1.72,101.583,0,103.521,0a3.6,3.6,0,0,1,3.909,3.588c0,1.75-1.112,2.4-2.289,3.1a18.55,18.55,0,0,0-3.226,2.307c-2,1.786-3.534,5.029-4.292,6.87a4.2,4.2,0,0,1,1.919.819c1.186.975,1.346,2.576,1.346,4.013a15.226,15.226,0,0,0,1.276,5.73h1.141a1.212,1.212,0,1,1,0,2.423ZM76.675,3.315a1.212,1.212,0,0,1-.96-1.419l.176-.913a1.212,1.212,0,1,1,2.379.459l-.176.913A1.212,1.212,0,0,1,76.675,3.315Zm.473,3.221-.64,3.315a1.212,1.212,0,1,1-2.379-.459l.64-3.315a1.212,1.212,0,0,1,2.379.459Z" transform="translate(-66.61)" fill="#20287a"/>
      </g>
    </g>
  </g>
</svg>
