<svg xmlns="http://www.w3.org/2000/svg" width="90" height="90" viewBox="0 0 90 90">
  <g id="Grupo_22456" data-name="Grupo 22456" transform="translate(-50 -140)">
    <path id="Trazado_20509" data-name="Trazado 20509" d="M140,185a45,45,0,1,1-45-45,45,45,0,0,1,45,45Zm0,0" fill="#d64626"/>
    <path id="Trazado_20510" data-name="Trazado 20510" d="M335.933,152.632v7.2L346.293,177.1a1.318,1.318,0,1,1-2.261,1.356l-9.417-15.693L325.2,178.456a1.318,1.318,0,0,1-2.261-1.357L333.3,159.834v-8.123q1.337.42,2.637.921Zm0,0" transform="translate(-224.805 -9.652)" fill="#5a9001"/>
    <path id="Trazado_20511" data-name="Trazado 20511" d="M172.031,214.464v10.547a.879.879,0,0,1-.879.879h-5.273a.879.879,0,0,1-.879-.879V214.464a.879.879,0,0,1,.879-.879h5.273a.879.879,0,0,1,.879.879Zm-21.973-.879h-5.273a.879.879,0,0,0-.879.879v10.547a.879.879,0,0,0,.879.879h5.273a.879.879,0,0,0,.879-.879V214.464a.879.879,0,0,0-.879-.879Zm-10.547,0h-5.273a.879.879,0,0,0-.879.879V217.1H131.25a.879.879,0,0,0-.879.879v14.941h7.646V225.89h1.494a.879.879,0,0,0,.879-.879V214.464a.879.879,0,0,0-.879-.879Zm21.094,0h-5.273a.879.879,0,0,0-.879.879v10.547a.879.879,0,0,0,.879.879h5.273a.879.879,0,0,0,.879-.879V214.464a.879.879,0,0,0-.879-.879Zm-20.435-37.624H134.9a.879.879,0,0,0-.879.879v10.547a.879.879,0,0,0,.879.879h5.273a.879.879,0,0,0,.879-.879V176.84a.879.879,0,0,0-.879-.879Zm-9.668.879a.879.879,0,0,0-.879-.879h-5.273a.879.879,0,0,0-.879.879v2.637h-2.593a.879.879,0,0,0-.879.879V193.9a.351.351,0,0,0,.352.352h7.295v-5.983h1.978a.879.879,0,0,0,.879-.879Zm0,0" transform="translate(-57.695 -29.64)" fill="#0ed1b2"/>
    <path id="Trazado_20512" data-name="Trazado 20512" d="M199.54,217.98v14.941h-39.9V214.464a.879.879,0,0,1,.879-.879h3.516a.879.879,0,0,1,.879.879V217.1h5.273v-2.637a.879.879,0,0,1,.879-.879h3.516a.879.879,0,0,1,.879.879V217.1h5.273v-2.637a.879.879,0,0,1,.879-.879h3.516a.879.879,0,0,1,.879.879V217.1h5.273v-2.637a.879.879,0,0,1,.879-.879h3.516a.879.879,0,0,1,.879.879V217.1h2.109a.879.879,0,0,1,.879.879Zm-30.41-37.624a.879.879,0,0,0-.879-.879H165.57V176.84a.879.879,0,0,0-.879-.879h-3.516a.879.879,0,0,0-.879.879v2.637h-5.273V176.84a.879.879,0,0,0-.879-.879h-3.516a.879.879,0,0,0-.879.879v17.409h19.028a.351.351,0,0,0,.352-.352Zm0,0" transform="translate(-82.216 -29.64)" fill="#89e9d9"/>
    <path id="Trazado_20513" data-name="Trazado 20513" d="M115.756,296.745v10.547a.879.879,0,0,1-.879.879h-.967v6.321h-5.758q-1.121-1.209-2.153-2.5V300.261a.879.879,0,0,1,.879-.879h1.846v-2.637a.879.879,0,0,1,.879-.879h5.273a.879.879,0,0,1,.879.879ZM169.149,260h-5.273a.879.879,0,0,0-.879.879v10.547a.879.879,0,0,0,.879.879h5.273a.879.879,0,0,0,.879-.879V260.879a.879.879,0,0,0-.879-.879ZM158.6,260h-5.273a.879.879,0,0,0-.879.879v10.547a.879.879,0,0,0,.879.879H158.6a.879.879,0,0,0,.879-.879V260.879A.879.879,0,0,0,158.6,260Zm-10.547,0h-5.273a.879.879,0,0,0-.879.879v2.637h-2.593a.879.879,0,0,0-.879.879v13.542a.351.351,0,0,0,.352.352h7.295V272.3h1.978a.879.879,0,0,0,.879-.879V260.879a.879.879,0,0,0-.879-.879Zm0,0" transform="translate(-46.156 -98.906)" fill="#e8ce00"/>
    <path id="Trazado_20514" data-name="Trazado 20514" d="M136.773,299.382h33.135v15.11H131.5V296.745a.879.879,0,0,1,.879-.879h3.516a.879.879,0,0,1,.879.879Zm56.865-35.866h-2.593v-2.637a.879.879,0,0,0-.879-.879h-3.516a.879.879,0,0,0-.879.879v2.637H180.5v-2.637a.879.879,0,0,0-.879-.879H176.1a.879.879,0,0,0-.879.879v2.637h-5.273v-2.637a.879.879,0,0,0-.879-.879h-3.516a.879.879,0,0,0-.879.879v17.409h29.487a.351.351,0,0,0,.352-.352V264.395a.879.879,0,0,0-.879-.879Zm0,0" transform="translate(-67.174 -98.906)" fill="#fded32"/>
    <path id="Trazado_20515" data-name="Trazado 20515" d="M240,570h7.646v14.239A44.841,44.841,0,0,1,240,582.9Zm0,0" transform="translate(-156.602 -354.414)" fill="#017296"/>
    <path id="Trazado_20516" data-name="Trazado 20516" d="M305.623,570a44.877,44.877,0,0,1-33,14.414,45.391,45.391,0,0,1-7.119-.562V570Zm0,0" transform="translate(-177.619 -354.414)" fill="#0680ae"/>
    <path id="Trazado_20517" data-name="Trazado 20517" d="M158.984,467.555h7.646v15.11h-7.646Zm23.73-3.516h-5.273a.879.879,0,0,0-.879.879v10.547a.879.879,0,0,0,.879.879h5.273a.879.879,0,0,0,.879-.879V464.918a.879.879,0,0,0-.879-.879ZM123.74,487.69v-5.026h-5.494a45.309,45.309,0,0,0,5.494,5.026Zm0,0" transform="translate(-56.25 -267.079)" fill="#fc5426"/>
    <path id="Trazado_20518" data-name="Trazado 20518" d="M197.33,468.434v11.733q-1.031,1.288-2.153,2.5H174.391v-15.11h14.854v-2.637a.879.879,0,0,1,.879-.879h3.516a.879.879,0,0,1,.879.879v2.637h1.934a.879.879,0,0,1,.879.879ZM131.5,485a44.925,44.925,0,0,0,19.072,10.565v-12.9H131.5Zm0,0" transform="translate(-67.174 -267.079)" fill="#fc6930"/>
  </g>
</svg>
