<svg xmlns="http://www.w3.org/2000/svg" width="130" height="130" viewBox="0 0 130 130">
  <g id="Grupo_25581" data-name="Grupo 25581" transform="translate(21785 -5674)">
    <circle id="Elipse_1369" data-name="Elipse 1369" cx="65" cy="65" r="65" transform="translate(-21785 5674)" fill="#fff"/>
    <g id="_023-search" data-name="023-search" transform="translate(-21756 5703)">
      <path id="Trazado_24611" data-name="Trazado 24611" d="M0,0H2.258V2.258H0Z" transform="translate(16.855 53.536) rotate(-45)"/>
      <path id="Trazado_24612" data-name="Trazado 24612" d="M0,0H2.144V2.258H0Z" transform="translate(13.743 56.649) rotate(-45)"/>
      <path id="Trazado_24613" data-name="Trazado 24613" d="M0,0H2.258V2.258H0Z" transform="translate(20.049 50.344) rotate(-45)"/>
      <path id="Trazado_24614" data-name="Trazado 24614" d="M34.006,48.978l1.029,4.183H46l1.029-4.183a19.368,19.368,0,0,0,1.888-.79l3.693,2.235,7.752-7.753-2.235-3.693a19.8,19.8,0,0,0,.79-1.887L63.1,36.062V25.1L58.914,24.07a19.513,19.513,0,0,0-.79-1.887l2.235-3.693-7.752-7.753-3.693,2.235a19.092,19.092,0,0,0-1.888-.79L46,8H35.035l-1.029,4.183a19.367,19.367,0,0,0-1.888.79l-3.693-2.235-7.752,7.753,2.235,3.693a19.8,19.8,0,0,0-.79,1.887L17.935,25.1V36.063l4.183,1.029a19.513,19.513,0,0,0,.79,1.887l-1.28,2.115-5.017,4.46c-.18-.287-.371-.567-.54-.858A28.086,28.086,0,0,1,15.04,18.453a4.511,4.511,0,0,0,.568.213,4.559,4.559,0,0,0,1.176.156,4.518,4.518,0,1,0-3.919-2.26,4.548,4.548,0,0,0,.349.488,30.331,30.331,0,0,0,.9,28.773c.245.423.519.834.786,1.249L3.47,57.231a7.363,7.363,0,1,0,10.4,10.395L30.007,49.467l2.112-1.279a19.234,19.234,0,0,0,1.887.79ZM14.6,13.716a2.26,2.26,0,1,1,.226,1.712,2.24,2.24,0,0,1-.226-1.712Zm-2.418,52.41a5.1,5.1,0,1,1-7.205-7.208L21.887,43.883l5.327,5.327ZM28.771,47.575l-5.249-5.248,1.969-3.253-.291-.562a17.383,17.383,0,0,1-1.132-2.71l-.192-.6-3.682-.908V26.87l3.681-.907.192-.6A17.337,17.337,0,0,1,25.2,22.65l.291-.562-1.969-3.253,5.249-5.248,3.254,1.969.562-.292a17.164,17.164,0,0,1,2.709-1.134l.6-.192.905-3.681h7.423l.905,3.681.6.192a17.164,17.164,0,0,1,2.709,1.134l.562.292,3.254-1.969,5.249,5.248-1.969,3.253.291.562a17.382,17.382,0,0,1,1.132,2.71l.192.6,3.682.907v7.422l-3.681.907-.192.6a17.338,17.338,0,0,1-1.132,2.71l-.291.562,1.969,3.253-5.249,5.248L49.009,45.6l-.562.292a17.165,17.165,0,0,1-2.709,1.134l-.6.192L44.228,50.9H36.8L35.9,47.223l-.6-.192A17.164,17.164,0,0,1,32.587,45.9l-.562-.292Z" transform="translate(0 0.903)"/>
      <path id="Trazado_24615" data-name="Trazado 24615" d="M37.645,39.323V37.065h3.387V32.548a4.521,4.521,0,0,0-4.516-4.516,2.26,2.26,0,0,1-2.258-2.258V23.516h2.258a2.26,2.26,0,0,1,2.258,2.258h2.258a4.511,4.511,0,0,0-3.387-4.356V19H35.387v2.258H32v4.516a4.521,4.521,0,0,0,4.516,4.516,2.26,2.26,0,0,1,2.258,2.258v2.258H36.516a2.26,2.26,0,0,1-2.258-2.258H32A4.511,4.511,0,0,0,35.387,36.9v2.418Z" transform="translate(4 2.323)"/>
      <path id="Trazado_24616" data-name="Trazado 24616" d="M52.355,29.677A14.677,14.677,0,1,0,37.677,44.355,14.694,14.694,0,0,0,52.355,29.677Zm-27.1,0A12.419,12.419,0,1,1,37.677,42.1,12.434,12.434,0,0,1,25.258,29.677Z" transform="translate(2.839 1.806)"/>
      <path id="Trazado_24617" data-name="Trazado 24617" d="M62.236,14.548a4.483,4.483,0,0,0-.594.06A30.341,30.341,0,0,0,36.268,1c-.785,0-1.574.029-2.345.089L34.1,3.34c.714-.055,1.444-.082,2.172-.082A28.086,28.086,0,0,1,59.51,15.487a4.494,4.494,0,1,0,2.725-.938Zm0,6.774a2.258,2.258,0,1,1,2.258-2.258A2.26,2.26,0,0,1,62.236,21.323Z" transform="translate(4.248)"/>
      <path id="Trazado_24618" data-name="Trazado 24618" d="M61.215,40.72A28.084,28.084,0,0,1,39,54.734a4.479,4.479,0,1,0-.549,2.829,4.428,4.428,0,0,0,.245-.545A30.339,30.339,0,0,0,63.17,41.849c.392-.681.761-1.377,1.1-2.074L62.23,38.8c-.309.645-.65,1.29-1.015,1.922ZM36.5,56.435a2.258,2.258,0,1,1-1.951-3.388,2.235,2.235,0,0,1,1.125.3A2.263,2.263,0,0,1,36.5,56.435Z" transform="translate(3.745 4.877)"/>
    </g>
  </g>
</svg>
