<svg xmlns="http://www.w3.org/2000/svg" width="79" height="79" viewBox="0 0 79 79">
  <g id="Icon" transform="translate(0.308 -0.234)">
    <circle id="Base" cx="39.5" cy="39.5" r="39.5" transform="translate(-0.308 0.234)" fill="#fff"/>
    <g id="Grupo_25652" data-name="Grupo 25652" transform="translate(-128.815 -126.315)">
      <g id="Grupo_22895" data-name="Grupo 22895" transform="translate(147.507 156.648)">
        <path id="Trazado_22757" data-name="Trazado 22757" d="M156.653,263.649h0l-1.056-.038v-1.264a3.784,3.784,0,1,0-3.725,0v1.264l-1.041.038a3.516,3.516,0,0,0-3.324,3.673v5.45a2.414,2.414,0,0,0,1.722,2.627v12.459a2.754,2.754,0,0,0,.708,1.856,2.367,2.367,0,0,0,3.8-.382,2.424,2.424,0,0,0,2.042,1.165,2.382,2.382,0,0,0,1.759-.786,2.751,2.751,0,0,0,.7-1.852V275.4a2.414,2.414,0,0,0,1.722-2.627v-5.45A3.514,3.514,0,0,0,156.653,263.649Zm-5.862-4.594a2.943,2.943,0,1,1,3.987,2.747,2.889,2.889,0,0,1-2.1,0A2.941,2.941,0,0,1,150.792,259.055Zm8.328,13.717a1.788,1.788,0,0,1-.88,1.746v-3.761a.421.421,0,1,0-.842,0v17.1a1.907,1.907,0,0,1-.483,1.283,1.544,1.544,0,0,1-1.138.513,1.717,1.717,0,0,1-1.621-1.8V274.437a.421.421,0,0,0-.842,0v13.421a1.717,1.717,0,0,1-1.621,1.8,1.542,1.542,0,0,1-1.135-.509,1.912,1.912,0,0,1-.487-1.287v-17.1a.421.421,0,0,0-.842,0v3.761a1.787,1.787,0,0,1-.88-1.746v-5.45a2.679,2.679,0,0,1,2.5-2.832l1.462-.053a.385.385,0,0,0,.07-.017.231.231,0,0,0,.149-.063.419.419,0,0,0,.068-.05.4.4,0,0,0,.043-.064.406.406,0,0,0,.044-.071.429.429,0,0,0,.016-.079.4.4,0,0,0,.016-.077v-1.335a3.382,3.382,0,0,0,2.041,0v1.334a.4.4,0,0,0,.016.077.429.429,0,0,0,.016.079.406.406,0,0,0,.044.071.4.4,0,0,0,.043.064.331.331,0,0,0,.217.113.382.382,0,0,0,.07.017l1.477.053a2.677,2.677,0,0,1,2.482,2.831Z" transform="translate(-147.507 -255.27)"/>
      </g>
      <g id="Grupo_22896" data-name="Grupo 22896" transform="translate(161.283 156.686)">
        <path id="Trazado_22758" data-name="Trazado 22758" d="M254.822,263.924h0l-1.056-.039v-1.266a3.785,3.785,0,1,0-3.725,0v1.265l-1.041.038a3.516,3.516,0,0,0-3.324,3.673v5.45a2.414,2.414,0,0,0,1.722,2.627v12.454a2.756,2.756,0,0,0,.708,1.856,2.367,2.367,0,0,0,3.8-.382,2.424,2.424,0,0,0,2.042,1.165,2.379,2.379,0,0,0,1.758-.786,2.75,2.75,0,0,0,.7-1.852V275.674a2.414,2.414,0,0,0,1.722-2.627V267.6A3.513,3.513,0,0,0,254.822,263.924Zm-5.862-4.6a2.943,2.943,0,1,1,3.987,2.747,2.893,2.893,0,0,1-2.1,0A2.942,2.942,0,0,1,248.96,259.328Zm8.328,13.719a1.788,1.788,0,0,1-.88,1.747v-3.8a.421.421,0,1,0-.842,0v17.136a1.907,1.907,0,0,1-.484,1.283,1.544,1.544,0,0,1-1.138.513,1.717,1.717,0,0,1-1.621-1.8V274.707a.421.421,0,0,0-.842,0v13.421a1.717,1.717,0,0,1-1.621,1.8,1.539,1.539,0,0,1-1.134-.509,1.912,1.912,0,0,1-.487-1.287V270.992a.421.421,0,1,0-.842,0v3.8a1.787,1.787,0,0,1-.88-1.747V267.6a2.679,2.679,0,0,1,2.5-2.831l1.462-.053a.407.407,0,0,0,.115-.027c.012,0,.026,0,.037-.009a.409.409,0,0,0,.1-.068.4.4,0,0,0,.033-.024.412.412,0,0,0,.06-.089.4.4,0,0,0,.029-.047.425.425,0,0,0,.018-.09.4.4,0,0,0,.014-.069v-1.335a3.385,3.385,0,0,0,2.041,0v1.334a.409.409,0,0,0,.014.069.433.433,0,0,0,.018.09.4.4,0,0,0,.029.047.411.411,0,0,0,.06.089.4.4,0,0,0,.033.024.409.409,0,0,0,.1.068c.012.005.025,0,.037.009a.407.407,0,0,0,.115.027l1.477.054a2.677,2.677,0,0,1,2.482,2.831Z" transform="translate(-245.675 -255.543)"/>
      </g>
      <g id="Grupo_22897" data-name="Grupo 22897" transform="translate(175.737 156.227)">
        <path id="Trazado_22759" data-name="Trazado 22759" d="M360.785,253.919c-2.132-2.895-4.415-1.345-6.25-.1-2.075,1.408-3.446,2.176-4.961.272v-1a.421.421,0,0,0-.842,0v.9a.406.406,0,0,0-.056.182l.056,3.166V287.5a.421.421,0,0,0,.842,0V261.563a2.855,2.855,0,0,0,1.969.828,6.737,6.737,0,0,0,3.465-1.519c2.09-1.419,3.451-2.183,4.987-.1a.421.421,0,0,0,.76-.242l.112-6.355A.42.42,0,0,0,360.785,253.919Zm-.853,5.528c-1.873-1.663-3.806-.352-5.4.728-2.054,1.395-3.4,2.156-4.907.2l-.054-3.049v-2.02c1.887,1.611,3.832.294,5.434-.794,2.1-1.425,3.477-2.2,5.014-.21Z" transform="translate(-348.677 -252.272)"/>
      </g>
      <g id="Grupo_22898" data-name="Grupo 22898" transform="translate(152.833 140.549)">
        <path id="Trazado_22760" data-name="Trazado 22760" d="M200.128,154.056l.007,0c.009-.009.012-.021.02-.031a8.241,8.241,0,0,0-.006-10.412c-.007-.008-.009-.019-.017-.026l0,0a8.257,8.257,0,0,0-12.784,0l-.008.006a.391.391,0,0,0-.029.044,8.238,8.238,0,0,0,0,10.377.411.411,0,0,0,.029.046s.007,0,.01.007a8.257,8.257,0,0,0,12.786,0Zm-6.394,2.19c-.844,0-1.754-1.571-2.2-4.069a9.562,9.562,0,0,1,4.409,0C195.488,154.675,194.578,156.247,193.734,156.247Zm-7.406-7.007h4.082a20.465,20.465,0,0,0,.178,2.321,8.6,8.6,0,0,0-2.878,1.585A7.375,7.375,0,0,1,186.327,149.24Zm1.378-4.744a8.557,8.557,0,0,0,2.876,1.621,20.509,20.509,0,0,0-.172,2.281h-4.082A7.374,7.374,0,0,1,187.705,144.5Zm6.028-3.105c.849,0,1.765,1.59,2.212,4.114a9.348,9.348,0,0,1-4.424,0C191.969,142.981,192.885,141.391,193.734,141.391Zm7.407,7.007h-4.082a20.5,20.5,0,0,0-.172-2.28,8.506,8.506,0,0,0,2.876-1.622A7.375,7.375,0,0,1,201.14,148.4Zm-9.889,0a19.728,19.728,0,0,1,.141-2.04,10.036,10.036,0,0,0,4.682,0,19.676,19.676,0,0,1,.141,2.039Zm4.965.842a19.665,19.665,0,0,1-.147,2.085,10.469,10.469,0,0,0-4.67,0,19.718,19.718,0,0,1-.148-2.086Zm.842,0h4.082a7.373,7.373,0,0,1-1.381,3.906,8.555,8.555,0,0,0-2.878-1.587A20.477,20.477,0,0,0,197.058,149.24Zm2.174-5.4a7.616,7.616,0,0,1-2.478,1.429,9.449,9.449,0,0,0-1.344-3.682A7.422,7.422,0,0,1,199.233,143.843Zm-7.176-2.254a9.449,9.449,0,0,0-1.343,3.681,7.666,7.666,0,0,1-2.479-1.427A7.421,7.421,0,0,1,192.057,141.589ZM188.238,153.8a7.715,7.715,0,0,1,2.482-1.393,9.4,9.4,0,0,0,1.337,3.643A7.421,7.421,0,0,1,188.238,153.8Zm7.172,2.25a9.394,9.394,0,0,0,1.337-3.645,7.661,7.661,0,0,1,2.482,1.394A7.421,7.421,0,0,1,195.411,156.049Z" transform="translate(-185.464 -140.549)"/>
      </g>
    </g>
  </g>
</svg>
