<svg xmlns="http://www.w3.org/2000/svg" width="90" height="90" viewBox="0 0 90 90">
  <g id="Grupo_22460" data-name="Grupo 22460" transform="translate(-50 -140)">
    <path id="Trazado_20540" data-name="Trazado 20540" d="M140,185a45,45,0,1,1-45-45,45,45,0,0,1,45,45Zm0,0" fill="#d64626"/>
    <path id="Trazado_20541" data-name="Trazado 20541" d="M185.918,232.988v15.82h-2.637V234.746a.879.879,0,0,0-.879-.879H154.014v15.82h-2.637v-15.82H123.516a.879.879,0,0,0-.879.879v14.063H120v-15.82a1.758,1.758,0,0,1,1.758-1.758h29.619V207.5h2.637v23.73H184.16a1.758,1.758,0,0,1,1.758,1.758Zm0,0" transform="translate(-57.695 -55.635)" fill="#97181a"/>
    <path id="Trazado_20542" data-name="Trazado 20542" d="M123.8,391.758v33.857a1.757,1.757,0,0,1-1.758,1.758H100.927a1.757,1.757,0,0,1-1.758-1.758V391.758A1.758,1.758,0,0,1,100.927,390h21.116a1.758,1.758,0,0,1,1.758,1.758ZM92.874,390H71.758A1.758,1.758,0,0,0,70,391.758V408.52a45.15,45.15,0,0,0,14.914,18.852h7.96a1.758,1.758,0,0,0,1.758-1.758V391.758A1.758,1.758,0,0,0,92.874,390Zm58.337,0H130.1a1.758,1.758,0,0,0-1.758,1.758v33.857a1.758,1.758,0,0,0,1.758,1.758h21.116a1.758,1.758,0,0,0,1.758-1.758V391.758A1.758,1.758,0,0,0,151.211,390Zm0,0" transform="translate(-16.484 -206.055)" fill="#ffe899"/>
    <path id="Trazado_20543" data-name="Trazado 20543" d="M115.08,169.1a11.6,11.6,0,1,1,11.6,11.6,11.6,11.6,0,0,1-11.6-11.6Zm22.159,29.268H117.607v37.373h19.632A1.758,1.758,0,0,0,139,233.984V200.127a1.758,1.758,0,0,0-1.758-1.758Zm-29.169,0H88.438v24.776a45.233,45.233,0,0,0,11.673,12.6h7.96a1.758,1.758,0,0,0,1.758-1.758V200.127a1.758,1.758,0,0,0-1.758-1.758Zm58.337,0H146.775v37.373h19.633a1.758,1.758,0,0,0,1.758-1.758V200.127a1.758,1.758,0,0,0-1.758-1.758Zm0,0" transform="translate(-31.681 -14.424)" fill="#fff2b4"/>
    <path id="Trazado_20544" data-name="Trazado 20544" d="M250.094,181.075a11.6,11.6,0,0,1,0-23,14.452,14.452,0,0,0,0,23Zm0,0" transform="translate(-156.602 -14.897)" fill="#ffe899"/>
    <path id="Trazado_20545" data-name="Trazado 20545" d="M144.3,206.352v1.934a.351.351,0,0,1-.352.352H128.48a.351.351,0,0,1-.352-.352v-1.934a.351.351,0,0,1,.352-.352h15.469a.351.351,0,0,1,.352.352Zm-5.323,6.943a.351.351,0,0,0,.352-.352V211.01a.351.351,0,0,0-.352-.352h-5.526a.352.352,0,0,0-.352.352v1.934a.352.352,0,0,0,.352.352Zm-26.069,31.089-1.367-1.367a.352.352,0,0,0-.5,0l-4.537,4.537-4.537-4.537a.351.351,0,0,0-.5,0l-1.367,1.367a.352.352,0,0,0,0,.5l4.537,4.537-4.537,4.537a.351.351,0,0,0,0,.5l1.367,1.367a.351.351,0,0,0,.5,0l4.537-4.537,4.537,4.537a.352.352,0,0,0,.5,0l1.367-1.367a.351.351,0,0,0,0-.5l-4.537-4.537,4.537-4.537a.352.352,0,0,0,0-.5Zm29.706,0-1.367-1.367a.351.351,0,0,0-.5,0l-4.537,4.537-4.537-4.537a.351.351,0,0,0-.5,0l-1.367,1.367a.352.352,0,0,0,0,.5l4.537,4.537-4.537,4.537a.351.351,0,0,0,0,.5l1.367,1.367a.351.351,0,0,0,.5,0l4.537-4.537,4.537,4.537a.351.351,0,0,0,.5,0l1.367-1.367a.351.351,0,0,0,0-.5l-4.537-4.537,4.537-4.537a.352.352,0,0,0,0-.5Zm24.632,5.034,4.537-4.537a.352.352,0,0,0,0-.5l-1.367-1.367a.351.351,0,0,0-.5,0l-4.537,4.537-4.537-4.537a.351.351,0,0,0-.5,0l-1.367,1.367a.352.352,0,0,0,0,.5l4.537,4.537-4.537,4.537a.351.351,0,0,0,0,.5l1.367,1.367a.351.351,0,0,0,.5,0l4.537-4.537,4.537,4.537a.351.351,0,0,0,.5,0l1.367-1.367a.351.351,0,0,0,0-.5Zm0,0" transform="translate(-41.214 -54.398)" fill="#fbc56d"/>
    <path id="Trazado_20546" data-name="Trazado 20546" d="M426.506,508.578v14.771a1.758,1.758,0,0,1-1.758,1.758H403.633a1.758,1.758,0,0,1-1.758-1.758V508.578Zm0,0" transform="translate(-290.022 -303.789)" fill="#fc5426"/>
    <path id="Trazado_20547" data-name="Trazado 20547" d="M441.7,508.578v14.771a1.758,1.758,0,0,1-1.758,1.758H420.312V508.578Zm0,0" transform="translate(-305.218 -303.789)" fill="#fc6930"/>
    <path id="Trazado_20548" data-name="Trazado 20548" d="M442.11,530.352v1.934a.351.351,0,0,1-.352.352H426.29a.351.351,0,0,1-.352-.352v-1.934a.351.351,0,0,1,.352-.352h15.469a.351.351,0,0,1,.352.352Zm-5.323,4.307h-5.526a.351.351,0,0,0-.352.352v1.934a.351.351,0,0,0,.352.352h5.526a.351.351,0,0,0,.352-.352V535.01a.351.351,0,0,0-.352-.352Zm0,0" transform="translate(-309.855 -321.445)" fill="#ee4424"/>
    <path id="Trazado_20549" data-name="Trazado 20549" d="M235.938,508.578h24.631v14.771a1.758,1.758,0,0,1-1.758,1.758H237.7a1.758,1.758,0,0,1-1.758-1.758Zm0,0" transform="translate(-153.254 -303.789)" fill="#df3d9b"/>
    <path id="Trazado_20550" data-name="Trazado 20550" d="M254.375,508.578h21.39v14.771a1.758,1.758,0,0,1-1.758,1.758H254.375Zm0,0" transform="translate(-168.45 -303.789)" fill="#e659a9"/>
    <path id="Trazado_20551" data-name="Trazado 20551" d="M271.2,535.01v1.934a.351.351,0,0,1-.352.352h-5.526a.352.352,0,0,1-.352-.352V535.01a.352.352,0,0,1,.352-.352h5.526a.352.352,0,0,1,.352.352Zm4.62-5.01H260.352a.351.351,0,0,0-.352.352v1.934a.351.351,0,0,0,.352.352H275.82a.351.351,0,0,0,.352-.352v-1.934a.351.351,0,0,0-.352-.352Zm0,0" transform="translate(-173.086 -321.445)" fill="#c43286"/>
    <path id="Trazado_20552" data-name="Trazado 20552" d="M76.035,508.578H99.606v14.771a1.758,1.758,0,0,1-1.758,1.758h-7.96a45.187,45.187,0,0,1-13.853-16.529Zm0,0" transform="translate(-21.459 -303.789)" fill="#0ab59e"/>
    <path id="Trazado_20553" data-name="Trazado 20553" d="M88.438,508.578h21.39v14.771a1.758,1.758,0,0,1-1.758,1.758h-7.96a45.234,45.234,0,0,1-11.673-12.6Zm0,0" transform="translate(-31.681 -303.789)" fill="#0ed1b2"/>
    <path id="Trazado_20554" data-name="Trazado 20554" d="M105.263,535.01v1.934a.351.351,0,0,1-.352.352H99.385a.351.351,0,0,1-.352-.352V535.01a.351.351,0,0,1,.352-.352h5.526a.351.351,0,0,1,.352.352Zm4.62-5.01H94.414a.351.351,0,0,0-.352.352v1.34c.216.318.437.632.66.945h15.16a.351.351,0,0,0,.352-.352v-1.934a.351.351,0,0,0-.352-.352Zm0,0" transform="translate(-36.317 -321.445)" fill="#01988c"/>
  </g>
</svg>
