<svg xmlns="http://www.w3.org/2000/svg" width="139.207" height="189.961" viewBox="0 0 139.207 189.961">
  <g id="Grupo_55559" data-name="Grupo 55559" transform="translate(-184.399 -254.385)">
    <g id="Grupo_55547" data-name="Grupo 55547">
      <path id="Trazado_24962" data-name="Trazado 24962" d="M289.514,396.654c.062-3.219.145-6.535,1.438-9.484,1.443-3.289,5.256-6.882,9.044-4.633,4.232,2.51,4.355,10.092,4.354,14.175" fill="none" stroke="#0a104f" stroke-miterlimit="10" stroke-width="1"/>
      <path id="Trazado_24963" data-name="Trazado 24963" d="M317.668,443.765h-42.92l3.944-50.119h35.032Z" fill="#f5bdbd"/>
    </g>
    <g id="Grupo_55548" data-name="Grupo 55548">
      <path id="Trazado_24964" data-name="Trazado 24964" d="M322.621,443.765H279.7l3.944-45.419h35.032Z" fill="#f46868"/>
      <path id="Trazado_24965" data-name="Trazado 24965" d="M294.467,401.072c.062-2.918.145-5.923,1.439-8.6,1.442-2.981,5.255-6.237,9.044-4.2,4.231,2.275,4.354,9.146,4.353,12.847" fill="none" stroke="#0a104f" stroke-miterlimit="10" stroke-width="1"/>
    </g>
    <g id="Grupo_55549" data-name="Grupo 55549">
      <path id="Trazado_24966" data-name="Trazado 24966" d="M199.452,395.322c.065-3.35.151-6.8,1.5-9.869,1.508-3.422,5.491-7.161,9.449-4.822,4.421,2.613,4.55,10.5,4.549,14.751" fill="none" stroke="#0a104f" stroke-miterlimit="10" stroke-width="1"/>
      <path id="Trazado_24967" data-name="Trazado 24967" d="M230,444.346H184.4l4.191-52.154h37.224Z" fill="#f46868"/>
    </g>
    <g id="Grupo_55550" data-name="Grupo 55550">
      <path id="Trazado_24968" data-name="Trazado 24968" d="M244.845,444.346h-51.04l4.69-55.524h41.66Z" fill="#f5bdbd"/>
      <path id="Trazado_24969" data-name="Trazado 24969" d="M210.652,392.155c.073-3.567.17-7.241,1.682-10.507,1.687-3.644,6.145-7.625,10.575-5.134,4.947,2.781,5.091,11.181,5.09,15.7" fill="none" stroke="#0a104f" stroke-miterlimit="10" stroke-width="1"/>
    </g>
    <path id="Trazado_24970" data-name="Trazado 24970" d="M245.016,261.785a4.924,4.924,0,0,0-1.532,2.717,12.154,12.154,0,0,0-.587,2.571,4.1,4.1,0,0,0,.539,2.54,6.837,6.837,0,0,1,1.093,1.663,5.824,5.824,0,0,1,.05,1.489,7.027,7.027,0,0,0,1.182,3.259,5.805,5.805,0,0,0,1.483,1.9,3.96,3.96,0,0,0,1.43.622c2.049.488,4.177-.143,6.206-.71a3.038,3.038,0,0,1,1.179-.165,6.425,6.425,0,0,1,1.529.632,3.725,3.725,0,0,0,3.362-.461,7.093,7.093,0,0,0,2.259-2.663c.556-1.036.971-2.143,1.489-3.2a6.87,6.87,0,0,0,.509-1.185,5.08,5.08,0,0,0,.145-1.179c.08-2.251-.247-4.671-1.736-6.361" fill="#181d5f"/>
    <g id="Grupo_55553" data-name="Grupo 55553">
      <path id="Trazado_24971" data-name="Trazado 24971" d="M228.527,288.466s-9.734,2.216-9.532,4.1-.417,4.71,6.7,5.12,14.916-1.227,15.118-1.159" fill="#f59388"/>
      <path id="Trazado_24972" data-name="Trazado 24972" d="M250.556,283.142s-5.886.243-9.745.782-16.3,4.854-16.3,4.854,2.67,5.843,2.267,8.984c2.651.249,14.487.7,19.175.185" fill="#62a6e8"/>
      <g id="Grupo_55551" data-name="Grupo 55551">
        <path id="Trazado_24973" data-name="Trazado 24973" d="M232.982,305.3c.612-2.853.384-9.87,0-12.813-.532-4.069-2.089-7.16-6.246-6.052-4.642,1.238-7.348,11.893-8.2,15.494" fill="none" stroke="#0a104f" stroke-miterlimit="10" stroke-width="1"/>
        <path id="Trazado_24974" data-name="Trazado 24974" d="M196.742,336.345l41.763,9.9,5.637-41.107-34.087-8.081Z" fill="#f5bdbd"/>
      </g>
      <g id="Grupo_55552" data-name="Grupo 55552">
        <path id="Trazado_24975" data-name="Trazado 24975" d="M235.373,307.918c.181-3.551-1.091-11.914-1.911-15.36-1.134-4.764-3.137-8.136-7.086-5.918-4.411,2.477-5.5,15.829-5.809,20.328" fill="none" stroke="#0a104f" stroke-miterlimit="10" stroke-width="1"/>
        <path id="Trazado_24976" data-name="Trazado 24976" d="M204.128,352.893l42.82,2.931-.55-50.482-34.95-2.393Z" fill="#f46868"/>
      </g>
      <path id="Trazado_24977" data-name="Trazado 24977" d="M224.514,293.72c8.108-5.254,10.655-13.128,15.95-19.3l-.4-4.1c.125,1.751-18.878,14.434-22.267,18.265-2.233,2.523-2.659,6.351.861,7.995,1.522.711,5.437.95,5.437.95" fill="#f59388"/>
      <path id="Trazado_24978" data-name="Trazado 24978" d="M239.328,271.628a19.451,19.451,0,0,1,2.325-4.827,8.93,8.93,0,0,1,1.864-2.18,4.012,4.012,0,0,1,2.657-.937c.005.62-.578,1.053-.957,1.543-.913,1.181-.677,2.839-.735,4.33a5.86,5.86,0,0,1-1.183,3.552,3.273,3.273,0,0,1-3.4,1.143" fill="#f59388"/>
    </g>
    <path id="Trazado_24979" data-name="Trazado 24979" d="M259.056,276.33v6.812l5.5,2.25s-1.122,5.843-11.75,5.843-7.545-5.336-7.545-5.336l5.295-2.718.75-6.851" fill="#f59388"/>
    <path id="Trazado_24980" data-name="Trazado 24980" d="M257.192,259.673c-3.828-2.818-10.143,1.338-10.634,5.966a22.256,22.256,0,0,0,2.046,12.818c.821,1.554,1.812,2.575,3.528,2.639,5.924.219,9.284-2.542,10.006-10A12.839,12.839,0,0,0,257.192,259.673Z" fill="#f59388"/>
    <g id="Grupo_55554" data-name="Grupo 55554">
      <path id="Trazado_24981" data-name="Trazado 24981" d="M230.962,436.921s-8.955,6.059-7.9,6.991,11.557-1.219,12.218-2.1a5.791,5.791,0,0,0,.35-2.712,8.513,8.513,0,0,0-.585-1.919" fill="#0b113d"/>
      <path id="Trazado_24982" data-name="Trazado 24982" d="M255.093,348.878c.261,14.872-4.621,27.493-7.7,42.554-2.617,12.785-8.853,44.66-12.707,46.371-2.957,1.313-4.548.679-5.687-2.707-1.216-3.62,1.4-39.734,1.741-43.664,2.126-24.426,3.8-33.541,6.528-54.314" fill="#181d5f"/>
    </g>
    <g id="Grupo_55555" data-name="Grupo 55555">
      <path id="Trazado_24983" data-name="Trazado 24983" d="M278.236,436.921s8.955,6.059,7.9,6.991-11.557-1.219-12.218-2.1a5.8,5.8,0,0,1-.35-2.712,8.513,8.513,0,0,1,.585-1.919" fill="#0b113d"/>
      <path id="Trazado_24984" data-name="Trazado 24984" d="M254.106,348.878c-.262,14.872,4.62,27.493,7.7,42.554,2.617,12.785,8.853,44.66,12.708,46.371,2.956,1.313,4.547.679,5.686-2.707,1.217-3.62-1.4-39.734-1.74-43.664-2.126-24.426-3.632-34.917-6.358-55.69" fill="#181d5f"/>
    </g>
    <path id="Trazado_24985" data-name="Trazado 24985" d="M238.271,296.522s-3.522,37.594-2.525,46.8c.574,5.3,12.685,5.944,18.388,5.848s20-2.27,20.292-4.57-3.892-46.662-3.845-47.036c1.552-12.25-11.525-14.421-11.525-14.421s1.4,3.5-4.052,3.5-4.448-3.458-4.448-3.458S237.322,286.286,238.271,296.522Z" fill="#62a6e8"/>
    <path id="Trazado_24986" data-name="Trazado 24986" d="M243.118,266.635a2.207,2.207,0,0,0,3.291,1.166,10.5,10.5,0,0,0,2.777-3.2,1.273,1.273,0,0,1,.38-.395c.408-.226.859.125,1.256.377a3.3,3.3,0,0,0,4.23-.679c.243-.274.5-.613.835-.6.378.014.624.461.93.725.981.844,2.487-.254,3.526.485a3.283,3.283,0,0,1,.938,1.522,7.348,7.348,0,0,0,1.192,2.226,1.859,1.859,0,0,0,2.043.663c.94-.4,1.317-1.778,1.276-2.969a6.748,6.748,0,0,0-2.144-4.785,3.011,3.011,0,0,1-.674-.687,3.7,3.7,0,0,1-.337-1.058c-.848-3.548-4.577-5.647-7.411-4.171a5.942,5.942,0,0,0-4.068-.744,3.6,3.6,0,0,0-2.6,3.41c-1.406-.8-3.178.043-4.126,1.516a10.3,10.3,0,0,0-1.275,5.265" fill="#181d5f"/>
    <g id="Grupo_55558" data-name="Grupo 55558">
      <path id="Trazado_24987" data-name="Trazado 24987" d="M281.085,288.466s9.733,2.216,9.532,4.1.416,4.71-6.7,5.12S269,296.454,268.8,296.522" fill="#f59388"/>
      <path id="Trazado_24988" data-name="Trazado 24988" d="M259.056,283.142s5.885.243,9.744.782,16.3,4.854,16.3,4.854-2.67,5.843-2.267,8.984c-2.651.249-14.487.7-19.174.185" fill="#62a6e8"/>
      <g id="Grupo_55556" data-name="Grupo 55556">
        <path id="Trazado_24989" data-name="Trazado 24989" d="M282.635,306.567c-1.086-2.708-2.049-9.662-2.168-12.629-.164-4.1.848-7.41,5.132-7.021,4.785.435,9.255,10.479,10.7,13.883" fill="none" stroke="#0a104f" stroke-miterlimit="10" stroke-width="1"/>
        <path id="Trazado_24990" data-name="Trazado 24990" d="M323.606,331.039,284.12,347.862,271.61,308.3l32.229-13.731Z" fill="#f46868"/>
      </g>
      <g id="Grupo_55557" data-name="Grupo 55557">
        <path id="Trazado_24991" data-name="Trazado 24991" d="M278.355,304.988c-.306-2.9.665-9.856,1.36-12.742.961-3.989,2.838-6.9,6.853-5.354,4.485,1.724,6.045,12.606,6.511,16.277" fill="none" stroke="#0a104f" stroke-miterlimit="10" stroke-width="1"/>
        <path id="Trazado_24992" data-name="Trazado 24992" d="M311.095,339.709l-42.578,5.412-1.242-41.473,34.753-4.417Z" fill="#f5bdbd"/>
      </g>
      <path id="Trazado_24993" data-name="Trazado 24993" d="M285.1,293.72c-8.108-5.254-10.655-13.128-15.95-19.3l.4-4.1c-.125,1.751,18.878,14.434,22.267,18.265,2.233,2.523,2.659,6.351-.861,7.995-1.522.711-5.437.95-5.437.95" fill="#f59388"/>
      <path id="Trazado_24994" data-name="Trazado 24994" d="M270.283,271.628a19.416,19.416,0,0,0-2.325-4.827,8.93,8.93,0,0,0-1.864-2.18,4.01,4.01,0,0,0-2.657-.937c-.005.62.578,1.053.958,1.543.912,1.181.677,2.839.734,4.33a5.86,5.86,0,0,0,1.183,3.552,3.273,3.273,0,0,0,3.4,1.143" fill="#f59388"/>
    </g>
  </g>
</svg>
