<svg xmlns="http://www.w3.org/2000/svg" width="80" height="79" viewBox="0 0 80 79">
  <g id="Grupo_25657" data-name="Grupo 25657" transform="translate(-1025 -24879)">
    <ellipse id="Base" cx="40" cy="39.5" rx="40" ry="39.5" transform="translate(1025 24879)" fill="#fff"/>
    <g id="Grupo_25655" data-name="Grupo 25655" transform="translate(1045 24894)">
      <g id="Grupo_22953" data-name="Grupo 22953" transform="translate(28.067 10.665)">
        <path id="Trazado_22806" data-name="Trazado 22806" d="M2153.077,797.651a3.629,3.629,0,1,0,3.628,3.629A3.633,3.633,0,0,0,2153.077,797.651Zm0,6.462a2.833,2.833,0,1,1,2.833-2.833A2.836,2.836,0,0,1,2153.077,804.113Z" transform="translate(-2149.449 -797.651)"/>
      </g>
      <g id="Grupo_22954" data-name="Grupo 22954" transform="translate(22.889 5.579)">
        <path id="Trazado_22807" data-name="Trazado 22807" d="M2128.51,769.58l-1.407-1.123-.249-1.628,1.008-1.492a.4.4,0,0,0,0-.447l-1.517-2.214a.4.4,0,0,0-.416-.163l-1.755.4-1.427-.82-.538-1.718a.4.4,0,0,0-.351-.278l-2.676-.195a.389.389,0,0,0-.387.224l-.78,1.622-1.532.6-1.678-.651a.4.4,0,0,0-.436.1l-1.821,1.971a.4.4,0,0,0-.066.442l.781,1.622-.482,1.575-1.555.907a.4.4,0,0,0-.193.4l.406,2.652a.4.4,0,0,0,.3.327l1.755.4.93,1.358-.261,1.782a.4.4,0,0,0,.2.4l2.327,1.336a.4.4,0,0,0,.446-.034l1.408-1.123,1.643.12,1.229,1.315a.4.4,0,0,0,.291.126.392.392,0,0,0,.146-.028l2.5-.986a.4.4,0,0,0,.252-.37v-1.8l1.117-1.21,1.795-.142a.4.4,0,0,0,.35-.28l.785-2.565A.4.4,0,0,0,2128.51,769.58Zm-1.334,2.5-1.68.133a.4.4,0,0,0-.261.127l-1.328,1.438a.4.4,0,0,0-.106.27v1.686l-1.993.787-1.151-1.231a.394.394,0,0,0-.261-.125l-1.953-.142h-.029a.4.4,0,0,0-.248.087l-1.318,1.051-1.858-1.067.245-1.668a.4.4,0,0,0-.065-.282l-1.107-1.615a.4.4,0,0,0-.239-.163l-1.643-.375-.324-2.117,1.456-.849a.4.4,0,0,0,.18-.227l.573-1.873a.4.4,0,0,0-.023-.289l-.731-1.519,1.455-1.573,1.571.609a.4.4,0,0,0,.29,0l1.821-.719a.393.393,0,0,0,.212-.2l.731-1.519,2.137.155.5,1.608a.4.4,0,0,0,.182.226l1.7.975a.405.405,0,0,0,.287.043l1.642-.375,1.212,1.767-.944,1.4a.394.394,0,0,0-.063.282l.3,1.936a.4.4,0,0,0,.145.251l1.318,1.051Z" transform="translate(-2111.025 -759.903)"/>
      </g>
      <g id="Grupo_22955" data-name="Grupo 22955" transform="translate(0 0)">
        <path id="Trazado_22808" data-name="Trazado 22808" d="M1953.185,729.544c.005-.006.013-.01.018-.017s.006-.015.011-.023a6.744,6.744,0,0,0,0-8.459c0-.007-.005-.016-.011-.023s-.013-.01-.018-.016a6.761,6.761,0,0,0-10.506,0c-.007.008-.016.012-.023.02s-.007.019-.013.027a6.744,6.744,0,0,0,0,8.447c.005.009.007.019.013.027s.014.01.02.017a6.761,6.761,0,0,0,10.508,0Zm-5.254,1.711c-.612,0-1.27-1.115-1.649-2.851a10.066,10.066,0,0,1,3.3,0C1949.2,730.14,1948.543,731.255,1947.931,731.255Zm-5.959-5.582h3.2a16.419,16.419,0,0,0,.182,2.107,7.816,7.816,0,0,0-2.283.969A5.936,5.936,0,0,1,1941.972,725.673Zm1.1-3.872a7.819,7.819,0,0,0,2.283.969,16.417,16.417,0,0,0-.182,2.107h-3.2A5.936,5.936,0,0,1,1943.075,721.8Zm4.857-2.505c.612,0,1.27,1.115,1.649,2.852a10.067,10.067,0,0,1-3.3,0C1946.661,720.411,1947.319,719.3,1947.931,719.3Zm5.959,5.582h-3.2a16.4,16.4,0,0,0-.182-2.106,7.766,7.766,0,0,0,2.283-.97A5.936,5.936,0,0,1,1953.89,724.878Zm-7.919,0a15.359,15.359,0,0,1,.165-1.95,9.789,9.789,0,0,0,3.59,0,15.376,15.376,0,0,1,.165,1.949Zm3.921.8a15.364,15.364,0,0,1-.165,1.95,10.845,10.845,0,0,0-3.59,0,15.367,15.367,0,0,1-.165-1.95Zm.8,0h3.2a5.936,5.936,0,0,1-1.1,3.077,7.766,7.766,0,0,0-2.283-.97A16.4,16.4,0,0,0,1950.687,725.673Zm1.593-4.489a7.024,7.024,0,0,1-1.922.8,7.545,7.545,0,0,0-.942-2.5A5.974,5.974,0,0,1,1952.28,721.185Zm-5.834-1.694a7.545,7.545,0,0,0-.942,2.5,7.068,7.068,0,0,1-1.922-.8A5.975,5.975,0,0,1,1946.446,719.491Zm-2.863,9.876a7.072,7.072,0,0,1,1.922-.8,7.545,7.545,0,0,0,.942,2.5A5.974,5.974,0,0,1,1943.583,729.367Zm5.834,1.694a7.545,7.545,0,0,0,.942-2.5,7.024,7.024,0,0,1,1.922.8A5.973,5.973,0,0,1,1949.417,731.061Z" transform="translate(-1941.157 -718.501)"/>
      </g>
      <g id="Grupo_22956" data-name="Grupo 22956" transform="translate(9.28 10.26)">
        <path id="Trazado_22809" data-name="Trazado 22809" d="M2020.381,803.773l-1.36-.047v-1.473a4.062,4.062,0,1,0-3.936,0v1.473l-1.346.047a3.835,3.835,0,0,0-3.711,3.94v5.937c0,1.627.87,2.733,2.178,2.831v13.6a2.94,2.94,0,0,0,.755,1.98,2.529,2.529,0,0,0,1.867.833,2.516,2.516,0,0,1,4.45,0,2.534,2.534,0,0,0,1.871-.836,2.94,2.94,0,0,0,.752-1.977v-13.6c1.307-.1,2.178-1.2,2.178-2.831v-5.937A3.833,3.833,0,0,0,2020.381,803.773Zm-6.595-5.068a3.267,3.267,0,1,1,4.427,3.05,3.213,3.213,0,0,1-2.329,0A3.267,3.267,0,0,1,2013.786,798.705Zm9.5,14.945c0,.893-.373,1.915-1.382,2.032v-4.27a.4.4,0,1,0-.8,0V830.08a2.144,2.144,0,0,1-.543,1.44,1.746,1.746,0,0,1-1.285.578,1.932,1.932,0,0,1-1.827-2.018V815.459a.4.4,0,1,0-.8,0V830.08a1.932,1.932,0,0,1-1.827,2.018,1.74,1.74,0,0,1-1.281-.574,2.143,2.143,0,0,1-.547-1.443V811.412a.4.4,0,1,0-.8,0v4.27c-1.009-.117-1.382-1.139-1.382-2.032v-5.937a3.043,3.043,0,0,1,2.93-3.145l1.743-.06a.371.371,0,0,0,.067-.016.389.389,0,0,0,.08-.019.377.377,0,0,0,.06-.04.313.313,0,0,0,.163-.253.38.38,0,0,0,.014-.069v-1.535a3.685,3.685,0,0,0,2.345,0v1.534a.4.4,0,0,0,.4.4c.01,0,.019-.005.03-.006s.02.007.032.008l1.682.059a3.04,3.04,0,0,1,2.916,3.145Z" transform="translate(-2010.028 -794.643)"/>
      </g>
    </g>
  </g>
</svg>
