<svg xmlns="http://www.w3.org/2000/svg" width="90" height="90" viewBox="0 0 90 90">
  <g id="Grupo_22452" data-name="Grupo 22452" transform="translate(-50 -140)">
    <path id="Trazado_20480" data-name="Trazado 20480" d="M140,185a45,45,0,1,1-45-45,45,45,0,0,1,45,45Zm0,0" fill="#d64626"/>
    <path id="Trazado_20481" data-name="Trazado 20481" d="M160.127,200v61.523H96.406q-.558-.741-1.086-1.5l.861-5.581q4.087-26.488,5.858-53.241c.448-.409.906-.806,1.37-1.2Zm0,0" transform="translate(-37.354 -49.453)" fill="#0ab59e"/>
    <path id="Trazado_20482" data-name="Trazado 20482" d="M223.25,141.758v58.359a1.758,1.758,0,0,1-1.758,1.758H217.8a1.758,1.758,0,0,1-1.758-1.758V141.758A1.758,1.758,0,0,1,217.8,140h3.691a1.758,1.758,0,0,1,1.758,1.758Zm7.354,56.476a1.758,1.758,0,0,0-2.153-1.243l-3.566.956a1.758,1.758,0,0,0-1.243,2.153l7.607,28.387a44.662,44.662,0,0,0,6.814-2.417Zm-16.2-.287-3.566-.956a1.758,1.758,0,0,0-2.153,1.243L201.23,226.07a44.692,44.692,0,0,0,6.814,2.417L215.65,200.1a1.758,1.758,0,0,0-1.243-2.153Zm0,0" transform="translate(-124.647)" fill="#024c67"/>
    <path id="Trazado_20483" data-name="Trazado 20483" d="M239.439,141.758v58.359a1.758,1.758,0,0,1-3.516,0V141.758a1.758,1.758,0,0,1,3.516,0ZM230.6,197.947a1.758,1.758,0,0,0-2.153,1.243l-7.572,28.259q1.652.583,3.361,1.038l7.607-28.387a1.758,1.758,0,0,0-1.243-2.153Zm16.2.287a1.758,1.758,0,1,0-3.4.911l7.568,28.246q1.675-.6,3.286-1.32Zm0,0" transform="translate(-140.835)" fill="#025f80"/>
    <path id="Trazado_20484" data-name="Trazado 20484" d="M192.523,181.758v3.516a1.758,1.758,0,0,1-1.758,1.758h-.088v63.281a1.758,1.758,0,0,1-1.758,1.758H134.6a1.758,1.758,0,0,1-1.758-1.758V187.031h-.088A1.758,1.758,0,0,1,131,185.273v-3.516A1.758,1.758,0,0,1,132.758,180h58.008a1.758,1.758,0,0,1,1.758,1.758Zm0,0" transform="translate(-66.762 -32.969)" fill="#ddf4ba"/>
    <path id="Trazado_20485" data-name="Trazado 20485" d="M155.361,187.031h50.977v63.281a1.758,1.758,0,0,1-1.758,1.758H151.846V190.547a3.515,3.515,0,0,1,3.516-3.516ZM206.426,180H151.758a1.758,1.758,0,0,0,0,3.516h54.668a1.758,1.758,0,0,0,0-3.516Zm0,0" transform="translate(-82.422 -32.969)" fill="#ecf8d9"/>
    <path id="Trazado_20486" data-name="Trazado 20486" d="M190.117,575.273H131.758A1.758,1.758,0,0,1,130,573.516v-1.758A1.758,1.758,0,0,1,131.758,570h58.359a1.758,1.758,0,0,1,1.758,1.758v1.758a1.758,1.758,0,0,1-1.758,1.758Zm0,0" transform="translate(-65.937 -354.414)" fill="#0680ae"/>
    <path id="Trazado_20487" data-name="Trazado 20487" d="M206.6,575.273H151.758A1.758,1.758,0,0,1,150,573.516v-1.758A1.758,1.758,0,0,1,151.758,570H206.6a1.758,1.758,0,0,1,1.758,1.758v1.758a1.758,1.758,0,0,1-1.758,1.758Zm0,0" transform="translate(-82.422 -354.414)" fill="#3691bb"/>
    <path id="Trazado_20488" data-name="Trazado 20488" d="M178.35,273.311a8.35,8.35,0,1,0,8.35,8.35,8.359,8.359,0,0,0-8.35-8.35Zm0,14.063a5.713,5.713,0,1,1,5.713-5.713,5.719,5.719,0,0,1-5.713,5.713ZM197.686,240H188.9a3.08,3.08,0,0,0-3.076,3.076v8.789a3.08,3.08,0,0,0,3.076,3.076h8.789a3.08,3.08,0,0,0,3.076-3.076v-8.789A3.08,3.08,0,0,0,197.686,240Zm.439,11.865a.44.44,0,0,1-.439.439H188.9a.44.44,0,0,1-.439-.439v-8.789a.44.44,0,0,1,.439-.439h8.789a.44.44,0,0,1,.439.439Zm0,0" transform="translate(-98.906 -82.422)" fill="#fc9368"/>
    <path id="Trazado_20489" data-name="Trazado 20489" d="M382.637,536.318A1.318,1.318,0,1,1,381.318,535a1.319,1.319,0,0,1,1.318,1.318ZM385.713,535a1.318,1.318,0,1,0,1.318,1.318A1.319,1.319,0,0,0,385.713,535Zm4.395,0a1.318,1.318,0,1,0,1.318,1.318A1.319,1.319,0,0,0,390.107,535Zm0,0" transform="translate(-271.992 -325.566)" fill="#b8eb6a"/>
    <path id="Trazado_20490" data-name="Trazado 20490" d="M190.426,273.818a1.319,1.319,0,0,1-1.318,1.318H187.35a2.2,2.2,0,0,0-2.2,2.2v13.729l1.478-1.478a1.319,1.319,0,0,1,1.864,1.865l-3.728,3.728a1.318,1.318,0,0,1-1.865,0l-3.729-3.728a1.319,1.319,0,1,1,1.864-1.865l1.478,1.478V277.334a4.839,4.839,0,0,1,4.834-4.834h1.758a1.319,1.319,0,0,1,1.318,1.318Zm34.658,38.672H214.271a.351.351,0,0,0-.352.352v1.934a.351.351,0,0,0,.352.352h10.814a.351.351,0,0,0,.352-.352v-1.934a.352.352,0,0,0-.352-.352Zm0-10.547H214.271a.351.351,0,0,0-.352.352v1.934a.351.351,0,0,0,.352.352h10.814a.351.351,0,0,0,.352-.352v-1.934a.352.352,0,0,0-.352-.352Zm0,5.273h-13.92a.352.352,0,0,0-.352.352V309.5a.352.352,0,0,0,.352.352h13.92a.351.351,0,0,0,.352-.352v-1.934a.352.352,0,0,0-.352-.352Zm0,0" transform="translate(-106.149 -109.209)" fill="#a1e52e"/>
    <path id="Trazado_20491" data-name="Trazado 20491" d="M432.93,242.85l-4.971,4.971a1.758,1.758,0,0,1-2.486,0l-7.458-7.458a1.757,1.757,0,0,1,0-2.486l4.972-4.972a1.757,1.757,0,0,1,2.485,0l7.458,7.458a1.758,1.758,0,0,1,0,2.486Zm0,0" transform="translate(-302.9 -76.15)" fill="#024c67"/>
    <path id="Trazado_20492" data-name="Trazado 20492" d="M225.667,473.281l-3.942,3.942a3.519,3.519,0,0,1-2.486,1.03h-3.164a.352.352,0,0,1-.352-.352v-3.164a3.518,3.518,0,0,1,1.03-2.486l3.942-3.942Zm0,0" transform="translate(-136.592 -270.598)" fill="#fc5426"/>
    <path id="Trazado_20493" data-name="Trazado 20493" d="M292.074,252.335l-32,32a3.515,3.515,0,0,1-1.8.961l-5.028,1.006a2.633,2.633,0,0,1-2.379-.72l-1.987-1.987a2.634,2.634,0,0,1-.72-2.378l1.006-5.029a3.511,3.511,0,0,1,.961-1.8l32-32Zm0,0" transform="translate(-163.287 -84.393)" fill="#fc5426"/>
    <path id="Trazado_20494" data-name="Trazado 20494" d="M305.006,266.324l-32,32a3.514,3.514,0,0,1-1.8.961l-5.028,1.006a2.633,2.633,0,0,1-2.379-.72l1.282-6.411a3.517,3.517,0,0,1,.961-1.8l32-32Zm0,0" transform="translate(-176.219 -98.381)" fill="#fd7d43"/>
    <path id="Trazado_20495" data-name="Trazado 20495" d="M245.036,434.384l-2.74,2.74a3.515,3.515,0,0,1-4.972,0l-2.486,2.486-4.972-4.972,2.486-2.486a3.516,3.516,0,0,1,0-4.972l2.74-2.74Zm0,0" transform="translate(-148.25 -234.442)" fill="#024c67"/>
  </g>
</svg>
