<svg xmlns="http://www.w3.org/2000/svg" width="79" height="79" viewBox="0 0 79 79">
  <g id="Grupo_55671" data-name="Grupo 55671" transform="translate(-514.484 -24879.111)">
    <circle id="Base" cx="39.5" cy="39.5" r="39.5" transform="translate(514.484 24879.111)" fill="#fff"/>
    <g id="connection" transform="translate(535.475 24900.111)">
      <g id="Grupo_55672" data-name="Grupo 55672" transform="translate(0.011 0)">
        <path id="Trazado_25271" data-name="Trazado 25271" d="M28.146,19.367l-3.926-5a8.434,8.434,0,0,0,2.376-5.3h6.079v.665a3.024,3.024,0,1,0,1.21,0V8.468a.6.6,0,0,0-.6-.6H26.6a8.413,8.413,0,0,0-1.772-4.6l.844-.844h7.118a1.814,1.814,0,1,0,0-1.21H25.417a.6.6,0,0,0-.428.177l-.977.977a8.449,8.449,0,0,0-14.289,5.5H4.644L2.667,3.416a1.808,1.808,0,1,0-1.252.161L3.7,8.714a.6.6,0,0,0,.553.359H9.724a8.43,8.43,0,0,0,2.333,5.248L6.951,19.426A6.044,6.044,0,1,0,5.16,31.381q.149.022.3.037v3.055a.6.6,0,0,0,.6.6h5.554a1.814,1.814,0,1,0,0-1.21H6.669v-2.45A6.044,6.044,0,0,0,8.3,19.787l4.657-4.657a8.411,8.411,0,0,0,10.353.042l3.355,4.271a8.47,8.47,0,1,0,1.479-.076ZM35.094,12.7a1.814,1.814,0,1,1-1.814-1.814A1.814,1.814,0,0,1,35.094,12.7Zm-.6-11.491a.6.6,0,1,1-.6.6A.6.6,0,0,1,34.489,1.21ZM1.831,2.42a.6.6,0,1,1,.6-.6A.6.6,0,0,1,1.831,2.42ZM13.322,33.868a.6.6,0,1,1-.6.6A.6.6,0,0,1,13.322,33.868ZM8.484,29.585a4.8,4.8,0,0,1-4.838,0v-1.16a2.419,2.419,0,1,1,4.838,0Zm-3.629-6a1.21,1.21,0,1,1,1.21,1.21A1.21,1.21,0,0,1,4.855,23.587Zm4.838-1.4a4.838,4.838,0,0,1,0,6.4v-.166a3.629,3.629,0,0,0-1.879-3.177,2.419,2.419,0,1,0-3.5,0,3.629,3.629,0,0,0-1.878,3.177v.166a4.838,4.838,0,1,1,7.257-6.4Zm12.7-7.842a7.206,7.206,0,0,1-8.467,0V12.882a2,2,0,0,1,2-2h1.343l-.878,2.194a.6.6,0,0,0,.134.653l1.21,1.21a.6.6,0,0,0,.855,0l1.21-1.21a.6.6,0,0,0,.134-.653l-.877-2.194H20.4a2,2,0,0,1,2,2v1.466ZM18.247,4.527a.6.6,0,0,0-.055.12c-.306.917-1.958,1.265-3.022,1.366.162-2.027,1.116-2.989,2.991-2.989a2.643,2.643,0,0,1,2.931,2.5L19.076,4.32A.6.6,0,0,0,18.247,4.527Zm.747,1.155,2.161,1.3a3.743,3.743,0,0,1-3,2.7,3.81,3.81,0,0,1-2.94-2.451C16.256,7.141,18.125,6.827,18.994,5.682ZM18.66,13.16l-.5.5-.5-.5.5-1.25ZM20.8,9.7a4.2,4.2,0,0,0,1.595-3.052c0-4-2.3-4.838-4.233-4.838s-4.233.839-4.233,4.838a4.2,4.2,0,0,0,1.595,3.054,3.2,3.2,0,0,0-2.8,3.176v.368a7.257,7.257,0,1,1,10.886,0v-.368A3.2,3.2,0,0,0,20.8,9.7Zm11.271,24a7.206,7.206,0,0,1-8.467,0V32.235a2,2,0,0,1,2-2h1.343l-.878,2.194a.6.6,0,0,0,.134.653l1.21,1.21a.6.6,0,0,0,.855,0l1.21-1.21a.6.6,0,0,0,.134-.653l-.877-2.194h1.344a2,2,0,0,1,2,2Zm-3.4-8.666h0l2.161,1.3a3.743,3.743,0,0,1-3,2.7,3.81,3.81,0,0,1-2.94-2.451C25.932,26.494,27.8,26.18,28.67,25.035Zm-3.825.331h0c.162-2.027,1.116-2.989,2.991-2.989a2.643,2.643,0,0,1,2.931,2.5l-2.015-1.21a.6.6,0,0,0-.885.327C27.562,24.917,25.91,25.265,24.846,25.366Zm3.49,7.147-.5.5-.5-.5.5-1.25Zm4.943.092v-.37a3.2,3.2,0,0,0-2.8-3.177,4.2,4.2,0,0,0,1.595-3.052c0-4-2.3-4.838-4.233-4.838s-4.233.839-4.233,4.838A4.2,4.2,0,0,0,25.2,29.059a3.2,3.2,0,0,0-2.8,3.176V32.6a7.257,7.257,0,1,1,10.886,0Z" transform="translate(-0.011 0)"/>
      </g>
    </g>
  </g>
</svg>
