<svg xmlns="http://www.w3.org/2000/svg" width="80" height="80" viewBox="0 0 80 80">
  <g id="Grupo_55777" data-name="Grupo 55777" transform="translate(-297 -4158)">
    <circle id="Base" cx="40" cy="40" r="40" transform="translate(297 4158)" fill="#fff"/>
    <g id="_004-web" data-name="004-web" transform="translate(310 4174)">
      <path id="Trazado_25855" data-name="Trazado 25855" d="M35.213,61.165a.791.791,0,0,0,0-1.582A.791.791,0,1,0,35.213,61.165Z" transform="translate(-30.792 -56.568)"/>
      <path id="Trazado_25856" data-name="Trazado 25856" d="M62.046,61.165a.791.791,0,1,0,0-1.582A.791.791,0,0,0,62.046,61.165Z" transform="translate(-54.795 -56.568)"/>
      <path id="Trazado_25857" data-name="Trazado 25857" d="M88.88,61.165a.791.791,0,0,0,0-1.582A.791.791,0,1,0,88.88,61.165Z" transform="translate(-78.798 -56.568)"/>
      <g id="Grupo_55758" data-name="Grupo 55758" transform="translate(0 0)">
        <path id="Trazado_25858" data-name="Trazado 25858" d="M53.209,31H.791A.791.791,0,0,0,0,31.791V77.67a.791.791,0,0,0,.791.791H53.209A.791.791,0,0,0,54,77.67v-7.6a.792.792,0,0,0-1.582,0v6.8H1.582V38.611H52.418v27.27a.792.792,0,0,0,1.582,0V31.791A.791.791,0,0,0,53.209,31ZM1.582,37.029V32.582H52.418v4.447Z" transform="translate(0 -31)"/>
        <path id="Trazado_25859" data-name="Trazado 25859" d="M109.248,127.833a5.079,5.079,0,0,0-4.317,2.406H88a.792.792,0,0,0,0,1.582h16.29a5.1,5.1,0,0,0,0,2.179H80.18a1.09,1.09,0,0,1,0-2.179h3.332a.792.792,0,0,0,0-1.582H80.18a2.672,2.672,0,1,0,0,5.343h24.751a5.077,5.077,0,1,0,4.317-7.749Zm0,8.574a3.5,3.5,0,1,1,3.5-3.5A3.5,3.5,0,0,1,109.248,136.407Z" transform="translate(-69.334 -117.62)"/>
        <path id="Trazado_25860" data-name="Trazado 25860" d="M359.622,156.043a2.032,2.032,0,1,0-1.119,1.119l.524.524a.791.791,0,0,0,1.119-1.119Zm-2.332-.764a.45.45,0,0,1,.9,0A.45.45,0,0,1,357.289,155.279Z" transform="translate(-318.191 -140.354)"/>
        <path id="Trazado_25861" data-name="Trazado 25861" d="M86.476,241.082h18.571a.792.792,0,0,0,0-1.582H86.476A.792.792,0,0,0,86.476,241.082Z" transform="translate(-76.676 -217.51)"/>
        <path id="Trazado_25862" data-name="Trazado 25862" d="M86.476,301.082h27.009a.792.792,0,0,0,0-1.582H86.476A.792.792,0,0,0,86.476,301.082Z" transform="translate(-76.676 -271.182)"/>
        <path id="Trazado_25863" data-name="Trazado 25863" d="M120.876,269.5h-34.4a.792.792,0,0,0,0,1.582h34.4A.792.792,0,0,0,120.876,269.5Z" transform="translate(-76.676 -244.346)"/>
        <path id="Trazado_25864" data-name="Trazado 25864" d="M86.476,348.082h22.579a.792.792,0,0,0,0-1.582H86.476A.792.792,0,0,0,86.476,348.082Z" transform="translate(-76.676 -313.225)"/>
        <path id="Trazado_25865" data-name="Trazado 25865" d="M86.476,406.5a.792.792,0,0,0,0,1.582h13.5a.792.792,0,0,0,0-1.582Z" transform="translate(-76.676 -366.896)"/>
        <path id="Trazado_25866" data-name="Trazado 25866" d="M121.667,377.291a.791.791,0,0,0-.791-.791h-34.4a.792.792,0,0,0,0,1.582h34.4A.791.791,0,0,0,121.667,377.291Z" transform="translate(-76.676 -340.061)"/>
      </g>
    </g>
  </g>
</svg>
