<svg xmlns="http://www.w3.org/2000/svg" width="90" height="90" viewBox="0 0 90 90">
  <g id="Grupo_55778" data-name="Grupo 55778" transform="translate(-273 -4777)">
    <circle id="Elipse_1795" data-name="Elipse 1795" cx="45" cy="45" r="45" transform="translate(273 4777)" fill="#dff7f9"/>
    <g id="_001-advertising" data-name="001-advertising" transform="translate(286 4790)">
      <path id="Trazado_24373" data-name="Trazado 24373" d="M63,40a7,7,0,0,0-6-6.92V27a4,4,0,0,0-7.921-.782L49,26.24V1H1V39H17v5a5.006,5.006,0,0,0,5,5h3v1.427a1.429,1.429,0,0,1-.151.638L21.362,58.04A3.427,3.427,0,0,0,24.427,63H27.25A3.422,3.422,0,0,0,30.5,60.657l1.058-3.173,3.786-.334A2.912,2.912,0,0,0,37.9,53.5l-.814-3.049,11.991,3.331A4,4,0,0,0,57,53V46.92A7,7,0,0,0,63,40ZM25,45h4V43H25V37h4V35H25V33h6V47.032l-6-.021Zm8,2.24V32.724l16-4.411V51.685ZM47,3V9H3V3ZM17,36v1H3V11H47V26.8L31.864,31H22A5.006,5.006,0,0,0,17,36Zm2,8V36a3,3,0,0,1,3-3h1V47l-1,0a3,3,0,0,1-3-3Zm9.6,16.024A1.424,1.424,0,0,1,27.25,61H24.427a1.426,1.426,0,0,1-1.276-2.065l3.487-6.975A3.448,3.448,0,0,0,27,50.427V49h4.864l.38.106Zm7.366-6.008a.921.921,0,0,1,.03.234.905.905,0,0,1-.831.907l-2.92.258,1.925-5.774.679.188ZM55,53a2,2,0,0,1-4,0V27a2,2,0,1,1,4,0Zm2-8.1V35.1a5,5,0,0,1,0,9.8Z"/>
      <path id="Trazado_24374" data-name="Trazado 24374" d="M39,33H37a2,2,0,0,0-2,2V45a2,2,0,0,0,2,2h2a2,2,0,0,0,2-2V35A2,2,0,0,0,39,33ZM37,45V35h2V45Z"/>
      <path id="Trazado_24375" data-name="Trazado 24375" d="M5,5H7V7H5Z"/>
      <path id="Trazado_24376" data-name="Trazado 24376" d="M9,5h2V7H9Z"/>
      <path id="Trazado_24377" data-name="Trazado 24377" d="M13,5h2V7H13Z"/>
      <path id="Trazado_24378" data-name="Trazado 24378" d="M5,25H17V13H5ZM7,15h8v8H7Z"/>
      <path id="Trazado_24379" data-name="Trazado 24379" d="M31,13H19V25H31ZM29,23H21V15h8Z"/>
      <path id="Trazado_24380" data-name="Trazado 24380" d="M45,13H33V25H45ZM43,23H35V15h8Z"/>
      <path id="Trazado_24381" data-name="Trazado 24381" d="M5,27H17v2H5Z"/>
      <path id="Trazado_24382" data-name="Trazado 24382" d="M15,31h2v2H15Z"/>
      <path id="Trazado_24383" data-name="Trazado 24383" d="M5,31h8v2H5Z"/>
    </g>
  </g>
</svg>
