<svg xmlns="http://www.w3.org/2000/svg" width="200" height="120" viewBox="0 0 200 120">
  <g id="Grupo_55876" data-name="Grupo 55876" transform="translate(-179 -3722)">
    <rect id="Rectángulo_5483" data-name="Rectángulo 5483" width="200" height="120" rx="5" transform="translate(179 3722)" fill="#e1eafe"/>
    <g id="seo" transform="translate(241 3744)">
      <path id="Trazado_25795" data-name="Trazado 25795" d="M3.763,380.974H53.929a3.763,3.763,0,0,0,3.763-3.763v-15.05a3.763,3.763,0,0,0-3.763-3.763H3.763A3.763,3.763,0,0,0,0,362.162v15.05a3.762,3.762,0,0,0,3.763,3.763ZM2.508,362.161a1.255,1.255,0,0,1,1.254-1.254H53.929a1.255,1.255,0,0,1,1.254,1.254v15.05a1.254,1.254,0,0,1-1.254,1.254H3.763a1.254,1.254,0,0,1-1.254-1.254Zm0,0" transform="translate(0 -305.724)" fill="#20287a"/>
      <path id="Trazado_25796" data-name="Trazado 25796" d="M3.763,201.775H53.929a3.763,3.763,0,0,0,3.763-3.763v-15.05a3.763,3.763,0,0,0-3.763-3.763H3.763A3.762,3.762,0,0,0,0,182.963v15.05a3.762,3.762,0,0,0,3.763,3.763ZM2.508,182.962a1.254,1.254,0,0,1,1.254-1.254H53.929a1.254,1.254,0,0,1,1.254,1.254v15.05a1.254,1.254,0,0,1-1.254,1.254H3.763a1.254,1.254,0,0,1-1.254-1.254Zm0,0" transform="translate(0 -152.862)" fill="#20287a"/>
      <path id="Trazado_25797" data-name="Trazado 25797" d="M173.394,0H123.227a3.763,3.763,0,0,0-3.763,3.763v15.05a3.763,3.763,0,0,0,3.763,3.763h50.167a3.763,3.763,0,0,0,3.763-3.763V3.763A3.763,3.763,0,0,0,173.394,0Zm1.254,18.813a1.255,1.255,0,0,1-1.254,1.254H123.227a1.254,1.254,0,0,1-1.254-1.254V3.763a1.254,1.254,0,0,1,1.254-1.254h50.167a1.254,1.254,0,0,1,1.254,1.254Zm0,0" transform="translate(-101.906)" fill="#20287a"/>
      <path id="Trazado_25798" data-name="Trazado 25798" d="M430.5,195.5a1.254,1.254,0,0,0,1.254-1.254V183.482l.367.367a1.254,1.254,0,0,0,1.773-1.773l-2.508-2.508a1.259,1.259,0,0,0-1.776,0l-2.508,2.508a1.254,1.254,0,0,0,1.773,1.773l.37-.367v10.769A1.254,1.254,0,0,0,430.5,195.5Zm0,0" transform="translate(-364.032 -152.863)" fill="#20287a"/>
      <path id="Trazado_25799" data-name="Trazado 25799" d="M37.983,16.312a1.254,1.254,0,0,0,1.254-1.254V4.29l.367.367a1.254,1.254,0,0,0,1.773-1.773L38.869.375a1.258,1.258,0,0,0-1.775,0L34.586,2.885a1.254,1.254,0,0,0,1.775,1.772l.367-.367V15.058a1.254,1.254,0,0,0,1.254,1.254Zm0,0" transform="translate(-29.203 -0.008)" fill="#20287a"/>
      <path id="Trazado_25800" data-name="Trazado 25800" d="M278.614,38.149l-3.573-.795-1.974-2.577a1.3,1.3,0,0,0-1.992,0L269.1,37.354l-3.573.795a1.254,1.254,0,0,0-.627,2.1l2.237,2.311-.193,2.935a1.254,1.254,0,0,0,1.64,1.275l3.485-1.137,3.487,1.137a1.254,1.254,0,0,0,1.64-1.275l-.193-2.935,2.237-2.311a1.254,1.254,0,0,0-.627-2.1Zm-3.8,3.062a1.253,1.253,0,0,0-.351.956l.109,1.64-2.113-.688a1.257,1.257,0,0,0-.777,0l-2.113.688.109-1.64a1.256,1.256,0,0,0-.351-.956l-1.066-1.1,1.83-.408a1.25,1.25,0,0,0,.726-.462l1.254-1.639,1.254,1.639a1.254,1.254,0,0,0,.724.462l1.83.408Zm0,0" transform="translate(-225.667 -29.269)" fill="#20287a"/>
      <path id="Trazado_25801" data-name="Trazado 25801" d="M168.651,34.133h-13.8a1.254,1.254,0,0,0,0,2.508h13.8a1.254,1.254,0,1,0,0-2.508Zm0,0" transform="translate(-131.026 -29.116)" fill="#20287a"/>
      <path id="Trazado_25802" data-name="Trazado 25802" d="M168.651,102.4h-13.8a1.254,1.254,0,0,0,0,2.508h13.8a1.254,1.254,0,1,0,0-2.508Zm0,0" transform="translate(-131.026 -87.348)" fill="#20287a"/>
      <path id="Trazado_25803" data-name="Trazado 25803" d="M154.856,70.774h10.033a1.254,1.254,0,1,0,0-2.508H154.856a1.254,1.254,0,0,0,0,2.508Zm0,0" transform="translate(-131.026 -58.232)" fill="#20287a"/>
      <path id="Trazado_25804" data-name="Trazado 25804" d="M381.983,34.133h-13.8a1.254,1.254,0,0,0,0,2.508h13.8a1.254,1.254,0,1,0,0-2.508Zm0,0" transform="translate(-313.004 -29.116)" fill="#20287a"/>
      <path id="Trazado_25805" data-name="Trazado 25805" d="M381.983,102.4h-13.8a1.254,1.254,0,0,0,0,2.508h13.8a1.254,1.254,0,1,0,0-2.508Zm0,0" transform="translate(-313.004 -87.348)" fill="#20287a"/>
      <path id="Trazado_25806" data-name="Trazado 25806" d="M403.822,68.266H393.789a1.254,1.254,0,0,0,0,2.508h10.033a1.254,1.254,0,1,0,0-2.508Zm0,0" transform="translate(-334.843 -58.232)" fill="#20287a"/>
      <path id="Trazado_25807" data-name="Trazado 25807" d="M36.641,225.874h7.525a2.508,2.508,0,0,0,2.508-2.508V215.84a2.508,2.508,0,0,0-2.508-2.508H36.641a2.508,2.508,0,0,0-2.508,2.508v7.525A2.508,2.508,0,0,0,36.641,225.874Zm0-10.034h7.525v7.525H36.641Zm0,0" transform="translate(-29.116 -181.978)" fill="#20287a"/>
      <path id="Trazado_25808" data-name="Trazado 25808" d="M36.641,400.06H59.216a2.508,2.508,0,0,0,2.508-2.508v-2.508a2.508,2.508,0,0,0-2.508-2.508H36.641a2.508,2.508,0,0,0-2.508,2.508v2.508A2.508,2.508,0,0,0,36.641,400.06Zm0-5.017H59.216v2.508H36.641Zm0,0" transform="translate(-29.116 -334.843)" fill="#20287a"/>
      <path id="Trazado_25809" data-name="Trazado 25809" d="M241.442,400.06h12.541a2.508,2.508,0,0,0,2.508-2.508v-2.508a2.508,2.508,0,0,0-2.508-2.508H241.442a2.508,2.508,0,0,0-2.508,2.508v2.508A2.508,2.508,0,0,0,241.442,400.06Zm0-5.017h12.541v2.508H241.442Zm0,0" transform="translate(-203.817 -334.843)" fill="#20287a"/>
      <path id="Trazado_25810" data-name="Trazado 25810" d="M137.789,215.84h30.1a1.254,1.254,0,0,0,0-2.508h-30.1a1.254,1.254,0,0,0,0,2.508Zm0,0" transform="translate(-116.468 -181.978)" fill="#20287a"/>
      <path id="Trazado_25811" data-name="Trazado 25811" d="M137.789,249.974h30.1a1.254,1.254,0,0,0,0-2.509h-30.1a1.254,1.254,0,0,0,0,2.509Zm0,0" transform="translate(-116.468 -211.094)" fill="#20287a"/>
      <path id="Trazado_25812" data-name="Trazado 25812" d="M137.789,284.11h30.1a1.254,1.254,0,0,0,0-2.508h-30.1a1.254,1.254,0,0,0,0,2.508Zm0,0" transform="translate(-116.468 -240.214)" fill="#20287a"/>
      <path id="Trazado_25813" data-name="Trazado 25813" d="M35.387,463.309H60.47a1.254,1.254,0,1,0,0-2.508H35.387a1.254,1.254,0,1,0,0,2.508Zm0,0" transform="translate(-29.116 -393.075)" fill="#20287a"/>
      <path id="Trazado_25814" data-name="Trazado 25814" d="M240.188,463.309h15.05a1.254,1.254,0,0,0,0-2.508h-15.05a1.254,1.254,0,0,0,0,2.508Zm0,0" transform="translate(-203.817 -393.075)" fill="#20287a"/>
    </g>
  </g>
</svg>
